<?xml version="1.0" encoding="UTF-8" standalone="no"?>
<svg
   xmlns:dc="http://purl.org/dc/elements/1.1/"
   xmlns:cc="http://creativecommons.org/ns#"
   xmlns:rdf="http://www.w3.org/1999/02/22-rdf-syntax-ns#"
   xmlns:svg="http://www.w3.org/2000/svg"
   xmlns="http://www.w3.org/2000/svg"
   xmlns:sodipodi="http://sodipodi.sourceforge.net/DTD/sodipodi-0.dtd"
   xmlns:inkscape="http://www.inkscape.org/namespaces/inkscape"
   width="1300"
   height="1500"
   viewBox="0 0 343.95814 396.875"
   version="1.1"
   id="svg4"
   sodipodi:docname="voctocat-sample.svg"
   inkscape:version="0.92.1 r">
  <metadata
     id="metadata10">
    <rdf:RDF>
      <cc:Work
         rdf:about="">
        <dc:format>image/svg+xml</dc:format>
        <dc:type
           rdf:resource="http://purl.org/dc/dcmitype/StillImage" />
        <dc:title></dc:title>
      </cc:Work>
    </rdf:RDF>
  </metadata>
  <defs
     id="defs8" />
  <sodipodi:namedview
     pagecolor="#ffffff"
     bordercolor="#666666"
     borderopacity="1"
     objecttolerance="10"
     gridtolerance="10"
     guidetolerance="10"
     inkscape:pageopacity="0"
     inkscape:pageshadow="2"
     inkscape:window-width="2300"
     inkscape:window-height="1376"
     id="namedview6"
     showgrid="false"
     units="px"
     fit-margin-top="2"
     fit-margin-left="2"
     fit-margin-right="2"
     fit-margin-bottom="2"
     inkscape:zoom="0.44152926"
     inkscape:cx="644.69149"
     inkscape:cy="817.32194"
     inkscape:window-x="256"
     inkscape:window-y="30"
     inkscape:window-maximized="0"
     inkscape:current-layer="svg4"
     inkscape:snap-page="true" />
  <rect
     style="opacity:1;fill:#231f20;fill-opacity:1;fill-rule:nonzero;stroke:none;stroke-width:10.68632793;stroke-linecap:round;stroke-linejoin:round;stroke-miterlimit:4;stroke-dasharray:none;stroke-dashoffset:0;stroke-opacity:1"
     id="rect4482"
     width="343.95822"
     height="198.43744"
     x="3.1554436e-30"
     y="0" />
  <path
     d="m 107.78994,30.205137 c -38.912036,0 -70.459429,31.547419 -70.459429,70.463733 a 70.463719,70.463719 0 0 0 4.604873,24.97415 c 1.032228,-2.70242 2.216418,-5.34036 3.708843,-7.81766 0.759837,-1.26161 1.595652,-2.48452 2.153341,-3.84222 0.559118,-1.36194 0.817174,-2.89883 0.389956,-4.30522 -0.243702,-0.79997 -0.702486,-1.52254 -1.198533,-2.19348 -0.497458,-0.67383 -1.042255,-1.31037 -1.495289,-2.01425 -1.15265,-1.78775 -1.68167,-3.98842 -1.382038,-6.093035 0.301096,-2.107455 1.436517,-4.100227 3.148292,-5.364718 1.525399,-1.126818 3.452216,-1.634329 5.356099,-1.562653 a 9.5480849,9.5480849 0 0 1 1.878077,0.258163 c 2.46014,0.597848 4.630679,2.136148 6.240656,4.085871 1.995641,2.422896 3.168366,5.488032 3.455096,8.613392 0.289576,3.12535 -0.286742,6.30804 -1.493858,9.20399 -2.164812,5.18981 -6.253564,9.37889 -8.50439,14.53141 -1.837936,4.2092 -2.365521,8.90297 -2.114628,13.49065 0.03423,0.42717 0.09174,0.85159 0.129025,1.27883 a 70.463719,70.463719 0 0 0 19.671051,17.28546 95.810586,95.810586 0 0 1 -0.69962,-11.46916 c 0.01,-3.05085 0.1649,-6.093 0.45877,-9.10367 -1.8537,-1.27596 -3.53681,-2.76692 -4.73104,-4.66365 -2.124654,-3.37911 -2.526086,-7.65565 -1.65156,-11.55086 0.87453,-3.89526 2.93898,-7.44352 5.41918,-10.57029 4.09163,-5.15399 9.43627,-9.32442 15.40884,-12.08564 -0.17201,-0.23641 -0.34409,-0.47881 -0.48746,-0.68241 -2.19922,-3.559775 -3.49811,-7.6614 -3.81351,-11.834774 -0.32109,-4.220662 0.34409,-8.447075 0.62364,-12.669144 0.20072,-2.944698 0.21218,-5.892278 0.38425,-8.838443 0.20071,-3.407753 0.61647,-6.819856 1.57271,-10.095705 0.34697,-1.187042 0.77131,-2.372672 1.44512,-3.412101 a 7.6126626,7.6126626 0 0 1 3.23001,-2.801325 c 1.4867,-0.587788 2.77841,-0.713987 4.21492,-0.473383 1.2014,0.258159 2.31246,0.853013 3.28592,1.605696 0.97487,0.748335 1.81644,1.652979 2.61211,2.590613 a 39.661828,39.661828 0 0 1 5.639966,8.782516 19.408705,19.408705 0 0 1 5.93529,0 39.601614,39.601614 0 0 1 5.64283,-8.783984 c 0.79425,-0.937579 1.63866,-1.842223 2.61212,-2.592026 0.97487,-0.751216 2.08451,-1.347645 3.28734,-1.602815 a 6.8915384,6.8915384 0 0 1 4.2393,0.473383 7.6212644,7.6212644 0 0 1 3.23,2.809966 c 0.67381,1.036496 1.09817,2.216418 1.44512,3.404874 0.95481,3.275903 1.37057,6.68795 1.57127,10.092879 0.17207,2.947577 0.18637,5.903744 0.38707,8.845615 0.27958,4.223483 0.9505,8.444139 0.63081,12.663384 a 26.386262,26.386262 0 0 1 -3.82497,11.837594 c -0.17206,0.2723 -0.38136,0.52014 -0.55912,0.78857 1.33903,1.50818 3.25007,2.78985 4.88014,3.33747 a 10.629054,10.629054 0 0 0 5.6973,0.23207 8.9703255,8.9703255 0 0 0 2.9017,-1.23003 6.8098209,6.8098209 0 0 0 2.15764,-2.27092 c 0.64514,-1.1326 0.90319,-2.437196 1.04657,-3.734613 0.36555,-3.308904 0,-6.652144 -0.27241,-9.969628 -0.18636,-2.15332 -0.33685,-4.343919 0.1462,-6.451366 0.32691,-1.426505 0.96629,-2.821435 2.03579,-3.817819 a 6.0098459,6.0098459 0 0 1 2.52609,-1.376287 7.1309573,7.1309573 0 0 1 2.88162,-0.157614 c 2.06445,0.301096 3.997,1.482378 5.14966,3.21851 0.65517,0.986332 1.05374,2.126091 1.29314,3.287371 0.23794,1.161227 0.32545,2.343976 0.38991,3.526776 0.22365,4.133207 0.21506,8.27213 0.10038,12.411046 -0.0961,3.612814 -0.30104,7.325964 -1.74618,10.637674 -1.85801,4.25077 -5.59983,7.4234 -9.64127,9.70293 a 38.32567,38.32567 0 0 1 -8.62482,3.52677 c 2.61927,8.36099 3.98267,17.61232 3.98267,26.99556 a 95.648588,95.648588 0 0 1 -0.73115,11.55232 70.460855,70.460855 0 0 0 34.69426,-60.61173 C 178.24963,61.753969 146.70198,30.208018 107.78994,30.208018 Z M 88.083024,117.06409 v 8.05995 a 10.217598,10.217598 0 0 1 5.88799,1.96983 9.4448626,9.4448626 0 0 1 3.02213,3.69879 c 0.65948,1.4695 0.90319,3.12965 0.6308,4.71671 a 8.114439,8.114439 0 0 1 -1.80352,3.84793 8.9502548,8.9502548 0 0 1 -3.45509,2.48875 9.44773,9.44773 0 0 1 -4.28231,0.66382 v 20.27892 L 130.26952,139.91497 88.081594,117.06263 Z"
     id="path2"
     inkscape:connector-curvature="0"
     style="fill:#ffffff;stroke-width:1.43364644" />
  <path
     style="fill:#ffffff;stroke-width:0.48437634"
     inkscape:connector-curvature="0"
     id="path4484"
     d="m 243.10648,117.99365 c -13.14695,0 -23.80565,10.65871 -23.80565,23.8071 a 23.807098,23.807098 0 0 0 1.55582,8.43785 c 0.34875,-0.91305 0.74883,-1.80432 1.25307,-2.64131 0.25673,-0.42625 0.53911,-0.83941 0.72754,-1.29813 0.1889,-0.46016 0.27608,-0.97941 0.13176,-1.45457 -0.0824,-0.27029 -0.23735,-0.51442 -0.40495,-0.74111 -0.16807,-0.22766 -0.35214,-0.44272 -0.5052,-0.68053 -0.38944,-0.60402 -0.56817,-1.34755 -0.46694,-2.05862 0.10171,-0.71204 0.48534,-1.38531 1.06369,-1.81255 0.51537,-0.38069 1.16638,-0.55217 1.80962,-0.52796 a 3.2259464,3.2259464 0 0 1 0.63455,0.0872 c 0.83119,0.20199 1.56452,0.72174 2.10848,1.38046 0.67425,0.81861 1.07047,1.85421 1.16734,2.91015 0.0979,1.05594 -0.0969,2.13126 -0.50471,3.10971 -0.73141,1.75343 -2.11285,3.16877 -2.87333,4.90961 -0.62096,1.42213 -0.79921,3.00799 -0.71444,4.558 0.012,0.14432 0.031,0.28772 0.0436,0.43206 a 23.807098,23.807098 0 0 0 6.64613,5.84012 32.370871,32.370871 0 0 1 -0.23638,-3.875 c 0.002,-1.03077 0.0557,-2.0586 0.155,-3.0758 -0.62631,-0.43109 -1.19496,-0.93483 -1.59845,-1.57567 -0.71783,-1.14168 -0.85348,-2.58656 -0.558,-3.90261 0.29547,-1.31606 0.99297,-2.5149 1.83095,-3.5713 1.38241,-1.74135 3.18816,-3.15039 5.20608,-4.0833 -0.0581,-0.0799 -0.11624,-0.16178 -0.1647,-0.23056 -0.74304,-1.20272 -1.18188,-2.58852 -1.28844,-3.99855 -0.10855,-1.426 0.11624,-2.85394 0.2107,-4.28042 0.0678,-0.99491 0.0717,-1.99079 0.12982,-2.9862 0.0678,-1.15135 0.20829,-2.30417 0.53137,-3.41096 0.1172,-0.40106 0.2606,-0.80164 0.48825,-1.15283 a 2.5720385,2.5720385 0 0 1 1.09131,-0.94647 c 0.50229,-0.19859 0.93871,-0.24122 1.42405,-0.15992 0.40591,0.0872 0.7813,0.28819 1.1102,0.5425 0.32937,0.25283 0.6137,0.55848 0.88254,0.87526 a 13.400272,13.400272 0 0 1 1.90553,2.96729 6.557487,6.557487 0 0 1 2.00531,0 13.379927,13.379927 0 0 1 1.9065,-2.96778 c 0.26835,-0.31676 0.55366,-0.62242 0.88254,-0.87575 0.32938,-0.25381 0.70429,-0.45532 1.11068,-0.54152 a 2.3283972,2.3283972 0 0 1 1.43229,0.15992 2.5749447,2.5749447 0 0 1 1.09131,0.9494 c 0.22765,0.35019 0.37103,0.74884 0.48825,1.15038 0.3226,1.10681 0.46307,2.2596 0.53088,3.41 0.0581,0.99589 0.063,1.99466 0.13077,2.98862 0.0945,1.42695 0.32115,2.85296 0.21313,4.27848 a 8.9149468,8.9149468 0 0 1 -1.29231,3.9995 c -0.0581,0.092 -0.12885,0.17573 -0.18891,0.26642 0.45241,0.50957 1.09808,0.94259 1.64882,1.12761 a 3.5911663,3.5911663 0 0 0 1.9249,0.0784 3.0307429,3.0307429 0 0 0 0.98039,-0.41558 2.3007879,2.3007879 0 0 0 0.72899,-0.76727 c 0.21796,-0.38265 0.30514,-0.82343 0.35358,-1.26179 0.12352,-1.11796 0,-2.24751 -0.092,-3.36836 -0.063,-0.72754 -0.11384,-1.46766 0.0495,-2.17968 0.11048,-0.48197 0.32647,-0.95326 0.68781,-1.2899 a 2.0305058,2.0305058 0 0 1 0.85347,-0.465 2.409288,2.409288 0 0 1 0.97361,-0.0532 c 0.6975,0.10171 1.35043,0.50084 1.73986,1.08742 0.22136,0.33324 0.35602,0.71833 0.43691,1.11068 0.0804,0.39233 0.10999,0.79195 0.13174,1.19157 0.0755,1.39646 0.0727,2.79485 0.034,4.19323 -0.0324,1.22064 -0.10171,2.47517 -0.58996,3.59408 -0.62776,1.43618 -1.89198,2.5081 -3.25743,3.27826 a 12.948833,12.948833 0 0 1 -2.91401,1.19157 c 0.88495,2.82486 1.3456,5.95055 1.3456,9.1208 a 32.316138,32.316138 0 0 1 -0.24702,3.90311 23.80613,23.80613 0 0 0 11.72189,-20.47847 c -9.6e-4,-13.14889 -10.66012,-23.8071 -23.80707,-23.8071 z m -6.65825,29.34644 v 2.72317 a 3.4521505,3.4521505 0 0 1 1.98934,0.66552 3.1910715,3.1910715 0 0 1 1.02107,1.2497 c 0.22281,0.49648 0.30515,1.05739 0.21312,1.5936 a 2.7415703,2.7415703 0 0 1 -0.60934,1.30007 3.0239617,3.0239617 0 0 1 -1.16735,0.84086 3.1920402,3.1920402 0 0 1 -1.44684,0.22428 v 6.8515 l 14.25326,-7.72822 -14.25374,-7.72097 z" />
  <path
     d="m 307.54646,150.02735 c -3.74537,0 -6.78186,3.0365 -6.78186,6.78227 a 6.7822717,6.7822717 0 0 0 0.44323,2.40381 c 0.0993,-0.26011 0.21334,-0.51402 0.35698,-0.75246 0.0731,-0.12143 0.15358,-0.23913 0.20727,-0.36982 0.0538,-0.13109 0.0787,-0.27902 0.0375,-0.41438 -0.0235,-0.077 -0.0676,-0.14655 -0.1154,-0.21113 -0.0479,-0.0649 -0.10027,-0.12612 -0.14392,-0.19387 -0.11095,-0.17208 -0.16187,-0.3839 -0.13302,-0.58648 0.0289,-0.20284 0.13826,-0.39465 0.30302,-0.51636 0.14682,-0.10843 0.33229,-0.15731 0.51553,-0.15041 a 0.91902195,0.91902195 0 0 1 0.18077,0.0249 c 0.23679,0.0575 0.44572,0.20562 0.60067,0.39328 0.1921,0.2332 0.30497,0.52823 0.33257,0.82905 0.0279,0.30083 -0.0276,0.60717 -0.14379,0.8859 -0.20836,0.49954 -0.60192,0.90274 -0.81857,1.39868 -0.1769,0.40515 -0.22768,0.85693 -0.20353,1.2985 0.004,0.0412 0.008,0.082 0.0125,0.1231 a 6.7822717,6.7822717 0 0 0 1.89338,1.66375 9.2219575,9.2219575 0 0 1 -0.0674,-1.10392 c 8.6e-4,-0.29366 0.0159,-0.58647 0.0442,-0.87626 -0.17842,-0.12281 -0.34042,-0.26631 -0.45537,-0.44887 -0.2045,-0.32526 -0.24314,-0.73688 -0.15897,-1.1118 0.0842,-0.37493 0.28289,-0.71645 0.52161,-1.01741 0.39383,-0.49608 0.90826,-0.89749 1.48314,-1.16326 -0.0166,-0.0227 -0.0331,-0.0461 -0.0469,-0.0657 -0.21169,-0.34264 -0.33671,-0.73743 -0.36707,-1.13913 -0.031,-0.40624 0.0331,-0.81304 0.06,-1.21942 0.0193,-0.28344 0.0204,-0.56714 0.037,-0.85073 0.0193,-0.32799 0.0593,-0.65642 0.15138,-0.97172 0.0334,-0.11432 0.0742,-0.22838 0.13909,-0.32842 a 0.73273374,0.73273374 0 0 1 0.31091,-0.26964 c 0.14309,-0.0566 0.26742,-0.0687 0.40568,-0.0455 0.11564,0.0248 0.22258,0.0821 0.31628,0.15455 0.0938,0.072 0.17484,0.1591 0.25143,0.24935 a 3.8175289,3.8175289 0 0 1 0.54285,0.84534 1.868126,1.868126 0 0 1 0.57128,0 3.8117333,3.8117333 0 0 1 0.54313,-0.84548 c 0.0765,-0.0903 0.15773,-0.17731 0.25143,-0.24949 0.0938,-0.0723 0.20063,-0.12972 0.31641,-0.15427 a 0.66332415,0.66332415 0 0 1 0.40804,0.0455 0.73356172,0.73356172 0 0 1 0.31089,0.27047 c 0.0648,0.0998 0.10567,0.21333 0.1391,0.32772 0.0919,0.31531 0.13192,0.64374 0.15124,0.97146 0.0166,0.28372 0.0179,0.56825 0.0372,0.85141 0.0269,0.40651 0.0915,0.81277 0.0608,1.21887 a 2.5397297,2.5397297 0 0 1 -0.36816,1.1394 c -0.0166,0.0262 -0.0367,0.0501 -0.0538,0.0759 0.12889,0.14516 0.31283,0.26853 0.46973,0.32124 a 1.0230674,1.0230674 0 0 0 0.54837,0.0223 0.86341149,0.86341149 0 0 0 0.2793,-0.1184 0.65545868,0.65545868 0 0 0 0.20768,-0.21858 c 0.0621,-0.10903 0.0869,-0.23459 0.10075,-0.35946 0.0352,-0.3185 0,-0.64029 -0.0262,-0.9596 -0.0179,-0.20727 -0.0324,-0.41811 0.014,-0.62096 0.0315,-0.1373 0.0931,-0.27156 0.19595,-0.36747 a 0.57845952,0.57845952 0 0 1 0.24314,-0.13248 0.68636868,0.68636868 0 0 1 0.27736,-0.0151 c 0.19871,0.0289 0.38473,0.1427 0.49567,0.3098 0.063,0.095 0.10147,0.20464 0.12447,0.31641 0.0229,0.1118 0.0313,0.22561 0.0376,0.33946 0.0215,0.39783 0.0207,0.79621 0.01,1.19459 -0.01,0.34773 -0.0289,0.70514 -0.16807,1.0239 -0.17883,0.40914 -0.53899,0.71452 -0.928,0.93392 a 3.6889213,3.6889213 0 0 1 -0.83014,0.33947 c 0.2521,0.80476 0.38333,1.69521 0.38333,2.59836 a 9.2063649,9.2063649 0 0 1 -0.0704,1.11194 6.7819958,6.7819958 0 0 0 3.33938,-5.834 c -2.8e-4,-3.74591 -3.0369,-6.78227 -6.78226,-6.78227 z m -1.89684,8.36034 v 0.77579 a 0.98346397,0.98346397 0 0 1 0.56674,0.18961 0.90908658,0.90908658 0 0 1 0.29088,0.35601 c 0.0635,0.14144 0.0869,0.30124 0.0608,0.45399 a 0.78103071,0.78103071 0 0 1 -0.17361,0.37037 0.86147963,0.86147963 0 0 1 -0.33255,0.23955 0.90936263,0.90936263 0 0 1 -0.41219,0.0639 v 1.95189 l 4.06053,-2.20165 -4.06066,-2.19959 z"
     id="path4486"
     inkscape:connector-curvature="0"
     style="fill:#ffffff;stroke-width:0.13799129" />
  <path
     style="fill:#231f20;fill-opacity:1;stroke-width:1.43364644"
     inkscape:connector-curvature="0"
     id="path4494"
     d="m 107.78994,230.49765 c -38.912036,0 -70.459429,31.54742 -70.459429,70.46374 a 70.463719,70.463719 0 0 0 4.604873,24.97415 c 1.032228,-2.70242 2.216418,-5.34036 3.708843,-7.81766 0.759837,-1.26161 1.595652,-2.48452 2.153341,-3.84222 0.559118,-1.36194 0.817174,-2.89883 0.389956,-4.30522 -0.243702,-0.79997 -0.702486,-1.52254 -1.198533,-2.19348 -0.497458,-0.67383 -1.042255,-1.31037 -1.495289,-2.01425 -1.15265,-1.78775 -1.68167,-3.98842 -1.382038,-6.09304 0.301096,-2.10745 1.436517,-4.10023 3.148292,-5.36472 1.525399,-1.12681 3.452216,-1.63433 5.356099,-1.56265 a 9.5480849,9.5480849 0 0 1 1.878077,0.25816 c 2.46014,0.59785 4.630679,2.13615 6.240656,4.08587 1.995641,2.4229 3.168366,5.48804 3.455096,8.6134 0.289576,3.12535 -0.286742,6.30804 -1.493858,9.20399 -2.164812,5.18981 -6.253564,9.37889 -8.50439,14.53141 -1.837936,4.2092 -2.365521,8.90297 -2.114628,13.49065 0.03423,0.42717 0.09174,0.85159 0.129025,1.27883 a 70.463719,70.463719 0 0 0 19.671051,17.28546 95.810586,95.810586 0 0 1 -0.69962,-11.46916 c 0.01,-3.05085 0.1649,-6.093 0.45877,-9.10367 -1.8537,-1.27596 -3.53681,-2.76692 -4.73104,-4.66365 -2.124654,-3.37911 -2.526086,-7.65565 -1.65156,-11.55086 0.87453,-3.89526 2.93898,-7.44352 5.41918,-10.57029 4.09163,-5.15399 9.43627,-9.32442 15.40884,-12.08564 -0.17201,-0.23641 -0.34409,-0.47881 -0.48746,-0.68241 -2.19922,-3.55978 -3.49811,-7.6614 -3.81351,-11.83478 -0.32109,-4.22066 0.34409,-8.44707 0.62364,-12.66914 0.20072,-2.9447 0.21218,-5.89228 0.38425,-8.83844 0.20071,-3.40776 0.61647,-6.81986 1.57271,-10.09571 0.34697,-1.18704 0.77131,-2.37267 1.44512,-3.4121 a 7.6126626,7.6126626 0 0 1 3.23001,-2.80133 c 1.4867,-0.58778 2.77841,-0.71398 4.21492,-0.47338 1.2014,0.25816 2.31246,0.85301 3.28592,1.6057 0.97487,0.74833 1.81644,1.65298 2.61211,2.59061 a 39.661828,39.661828 0 0 1 5.639966,8.78252 19.408705,19.408705 0 0 1 5.93529,0 39.601614,39.601614 0 0 1 5.64283,-8.78399 c 0.79425,-0.93758 1.63866,-1.84222 2.61212,-2.59202 0.97487,-0.75122 2.08451,-1.34765 3.28734,-1.60282 a 6.8915384,6.8915384 0 0 1 4.2393,0.47338 7.6212644,7.6212644 0 0 1 3.23,2.80997 c 0.67381,1.0365 1.09817,2.21642 1.44512,3.40487 0.95481,3.27591 1.37057,6.68795 1.57127,10.09288 0.17207,2.94758 0.18637,5.90375 0.38707,8.84562 0.27958,4.22348 0.9505,8.44414 0.63081,12.66338 a 26.386262,26.386262 0 0 1 -3.82497,11.8376 c -0.17206,0.2723 -0.38136,0.52014 -0.55912,0.78857 1.33903,1.50818 3.25007,2.78985 4.88014,3.33747 a 10.629054,10.629054 0 0 0 5.6973,0.23207 8.9703255,8.9703255 0 0 0 2.9017,-1.23003 6.8098209,6.8098209 0 0 0 2.15764,-2.27092 c 0.64514,-1.1326 0.90319,-2.4372 1.04657,-3.73462 0.36555,-3.3089 0,-6.65214 -0.27241,-9.96962 -0.18636,-2.15332 -0.33685,-4.34392 0.1462,-6.45137 0.32691,-1.42651 0.96629,-2.82144 2.03579,-3.81782 a 6.0098459,6.0098459 0 0 1 2.52609,-1.37629 7.1309573,7.1309573 0 0 1 2.88162,-0.15761 c 2.06445,0.3011 3.997,1.48238 5.14966,3.21851 0.65517,0.98633 1.05374,2.12609 1.29314,3.28737 0.23794,1.16123 0.32545,2.34398 0.38991,3.52678 0.22365,4.1332 0.21506,8.27213 0.10038,12.41104 -0.0961,3.61282 -0.30104,7.32597 -1.74618,10.63768 -1.85801,4.25077 -5.59983,7.4234 -9.64127,9.70293 a 38.32567,38.32567 0 0 1 -8.62482,3.52677 c 2.61927,8.36099 3.98267,17.61232 3.98267,26.99556 a 95.648588,95.648588 0 0 1 -0.73115,11.55232 70.460855,70.460855 0 0 0 34.69426,-60.61173 c -0.004,-38.91778 -31.55165,-70.46374 -70.46369,-70.46374 z m -19.706916,86.85896 v 8.05995 a 10.217598,10.217598 0 0 1 5.88799,1.96983 9.4448626,9.4448626 0 0 1 3.02213,3.69879 c 0.65948,1.4695 0.90319,3.12965 0.6308,4.71671 a 8.114439,8.114439 0 0 1 -1.80352,3.84793 8.9502548,8.9502548 0 0 1 -3.45509,2.48875 9.44773,9.44773 0 0 1 -4.28231,0.66382 v 20.27892 L 130.26952,340.20749 88.081594,317.35515 Z" />
  <path
     d="m 243.10648,318.28617 c -13.14695,0 -23.80565,10.65871 -23.80565,23.8071 a 23.807098,23.807098 0 0 0 1.55582,8.43785 c 0.34875,-0.91305 0.74883,-1.80432 1.25307,-2.64131 0.25673,-0.42625 0.53911,-0.83941 0.72754,-1.29813 0.1889,-0.46016 0.27608,-0.97941 0.13176,-1.45457 -0.0824,-0.27029 -0.23735,-0.51442 -0.40495,-0.74111 -0.16807,-0.22766 -0.35214,-0.44272 -0.5052,-0.68053 -0.38944,-0.60402 -0.56817,-1.34755 -0.46694,-2.05862 0.10171,-0.71204 0.48534,-1.38531 1.06369,-1.81255 0.51537,-0.38069 1.16638,-0.55217 1.80962,-0.52796 a 3.2259464,3.2259464 0 0 1 0.63455,0.0872 c 0.83119,0.20199 1.56452,0.72174 2.10848,1.38046 0.67425,0.81861 1.07047,1.85421 1.16734,2.91015 0.0979,1.05594 -0.0969,2.13126 -0.50471,3.10971 -0.73141,1.75343 -2.11285,3.16877 -2.87333,4.90961 -0.62096,1.42213 -0.79921,3.00799 -0.71444,4.558 0.012,0.14432 0.031,0.28772 0.0436,0.43206 a 23.807098,23.807098 0 0 0 6.64613,5.84012 32.370871,32.370871 0 0 1 -0.23638,-3.875 c 0.002,-1.03077 0.0557,-2.0586 0.155,-3.0758 -0.62631,-0.43109 -1.19496,-0.93483 -1.59845,-1.57567 -0.71783,-1.14168 -0.85348,-2.58656 -0.558,-3.90261 0.29547,-1.31606 0.99297,-2.5149 1.83095,-3.5713 1.38241,-1.74135 3.18816,-3.15039 5.20608,-4.0833 -0.0581,-0.0799 -0.11624,-0.16178 -0.1647,-0.23056 -0.74304,-1.20272 -1.18188,-2.58852 -1.28844,-3.99855 -0.10855,-1.426 0.11624,-2.85394 0.2107,-4.28042 0.0678,-0.99491 0.0717,-1.99079 0.12982,-2.9862 0.0678,-1.15135 0.20829,-2.30417 0.53137,-3.41096 0.1172,-0.40106 0.2606,-0.80164 0.48825,-1.15283 a 2.5720385,2.5720385 0 0 1 1.09131,-0.94647 c 0.50229,-0.19859 0.93871,-0.24122 1.42405,-0.15992 0.40591,0.0872 0.7813,0.28819 1.1102,0.5425 0.32937,0.25283 0.6137,0.55848 0.88254,0.87526 a 13.400272,13.400272 0 0 1 1.90553,2.96729 6.557487,6.557487 0 0 1 2.00531,0 13.379927,13.379927 0 0 1 1.9065,-2.96778 c 0.26835,-0.31676 0.55366,-0.62242 0.88254,-0.87575 0.32938,-0.25381 0.70429,-0.45532 1.11068,-0.54152 a 2.3283972,2.3283972 0 0 1 1.43229,0.15992 2.5749447,2.5749447 0 0 1 1.09131,0.9494 c 0.22765,0.35019 0.37103,0.74884 0.48825,1.15038 0.3226,1.10681 0.46307,2.2596 0.53088,3.41 0.0581,0.99589 0.063,1.99466 0.13077,2.98862 0.0945,1.42695 0.32115,2.85296 0.21313,4.27848 a 8.9149468,8.9149468 0 0 1 -1.29231,3.9995 c -0.0581,0.092 -0.12885,0.17573 -0.18891,0.26642 0.45241,0.50957 1.09808,0.94259 1.64882,1.12761 a 3.5911663,3.5911663 0 0 0 1.9249,0.0784 3.0307429,3.0307429 0 0 0 0.98039,-0.41558 2.3007879,2.3007879 0 0 0 0.72899,-0.76727 c 0.21796,-0.38265 0.30514,-0.82343 0.35358,-1.26179 0.12352,-1.11796 0,-2.24751 -0.092,-3.36836 -0.063,-0.72754 -0.11384,-1.46766 0.0495,-2.17968 0.11048,-0.48197 0.32647,-0.95326 0.68781,-1.2899 a 2.0305058,2.0305058 0 0 1 0.85347,-0.465 2.409288,2.409288 0 0 1 0.97361,-0.0532 c 0.6975,0.10171 1.35043,0.50084 1.73986,1.08742 0.22136,0.33324 0.35602,0.71833 0.43691,1.11068 0.0804,0.39233 0.10999,0.79195 0.13174,1.19157 0.0755,1.39646 0.0727,2.79485 0.034,4.19323 -0.0324,1.22064 -0.10171,2.47517 -0.58996,3.59408 -0.62776,1.43618 -1.89198,2.5081 -3.25743,3.27826 a 12.948833,12.948833 0 0 1 -2.91401,1.19157 c 0.88495,2.82486 1.3456,5.95055 1.3456,9.1208 a 32.316138,32.316138 0 0 1 -0.24702,3.90311 23.80613,23.80613 0 0 0 11.72189,-20.47847 c -9.6e-4,-13.14889 -10.66012,-23.8071 -23.80707,-23.8071 z m -6.65825,29.34644 v 2.72317 a 3.4521505,3.4521505 0 0 1 1.98934,0.66552 3.1910715,3.1910715 0 0 1 1.02107,1.2497 c 0.22281,0.49648 0.30515,1.05739 0.21312,1.5936 a 2.7415703,2.7415703 0 0 1 -0.60934,1.30007 3.0239617,3.0239617 0 0 1 -1.16735,0.84086 3.1920402,3.1920402 0 0 1 -1.44684,0.22428 v 6.8515 l 14.25326,-7.72822 -14.25374,-7.72097 z"
     id="path4496"
     inkscape:connector-curvature="0"
     style="fill:#231f20;fill-opacity:1;stroke-width:0.48437634" />
  <path
     style="fill:#231f20;fill-opacity:1;stroke-width:0.13799129"
     inkscape:connector-curvature="0"
     id="path4498"
     d="m 307.54646,350.31987 c -3.74537,0 -6.78186,3.0365 -6.78186,6.78227 a 6.7822717,6.7822717 0 0 0 0.44323,2.40381 c 0.0993,-0.26011 0.21334,-0.51402 0.35698,-0.75246 0.0731,-0.12143 0.15358,-0.23913 0.20727,-0.36982 0.0538,-0.13109 0.0787,-0.27902 0.0375,-0.41438 -0.0235,-0.077 -0.0676,-0.14655 -0.1154,-0.21113 -0.0479,-0.0649 -0.10027,-0.12612 -0.14392,-0.19387 -0.11095,-0.17208 -0.16187,-0.3839 -0.13302,-0.58648 0.0289,-0.20284 0.13826,-0.39465 0.30302,-0.51636 0.14682,-0.10843 0.33229,-0.15731 0.51553,-0.15041 a 0.91902195,0.91902195 0 0 1 0.18077,0.0249 c 0.23679,0.0575 0.44572,0.20562 0.60067,0.39328 0.1921,0.2332 0.30497,0.52823 0.33257,0.82905 0.0279,0.30083 -0.0276,0.60717 -0.14379,0.8859 -0.20836,0.49954 -0.60192,0.90274 -0.81857,1.39868 -0.1769,0.40515 -0.22768,0.85693 -0.20353,1.2985 0.004,0.0412 0.008,0.082 0.0125,0.1231 a 6.7822717,6.7822717 0 0 0 1.89338,1.66375 9.2219575,9.2219575 0 0 1 -0.0674,-1.10392 c 8.6e-4,-0.29366 0.0159,-0.58647 0.0442,-0.87626 -0.17842,-0.12281 -0.34042,-0.26631 -0.45537,-0.44887 -0.2045,-0.32526 -0.24314,-0.73688 -0.15897,-1.1118 0.0842,-0.37493 0.28289,-0.71645 0.52161,-1.01741 0.39383,-0.49608 0.90826,-0.89749 1.48314,-1.16326 -0.0166,-0.0227 -0.0331,-0.0461 -0.0469,-0.0657 -0.21169,-0.34264 -0.33671,-0.73743 -0.36707,-1.13913 -0.031,-0.40624 0.0331,-0.81304 0.06,-1.21942 0.0193,-0.28344 0.0204,-0.56714 0.037,-0.85073 0.0193,-0.32799 0.0593,-0.65642 0.15138,-0.97172 0.0334,-0.11432 0.0742,-0.22838 0.13909,-0.32842 a 0.73273374,0.73273374 0 0 1 0.31091,-0.26964 c 0.14309,-0.0566 0.26742,-0.0687 0.40568,-0.0455 0.11564,0.0248 0.22258,0.0821 0.31628,0.15455 0.0938,0.072 0.17484,0.1591 0.25143,0.24935 a 3.8175289,3.8175289 0 0 1 0.54285,0.84534 1.868126,1.868126 0 0 1 0.57128,0 3.8117333,3.8117333 0 0 1 0.54313,-0.84548 c 0.0765,-0.0903 0.15773,-0.17731 0.25143,-0.24949 0.0938,-0.0723 0.20063,-0.12972 0.31641,-0.15427 a 0.66332415,0.66332415 0 0 1 0.40804,0.0455 0.73356172,0.73356172 0 0 1 0.31089,0.27047 c 0.0648,0.0998 0.10567,0.21333 0.1391,0.32772 0.0919,0.31531 0.13192,0.64374 0.15124,0.97146 0.0166,0.28372 0.0179,0.56825 0.0372,0.85141 0.0269,0.40651 0.0915,0.81277 0.0608,1.21887 a 2.5397297,2.5397297 0 0 1 -0.36816,1.1394 c -0.0166,0.0262 -0.0367,0.0501 -0.0538,0.0759 0.12889,0.14516 0.31283,0.26853 0.46973,0.32124 a 1.0230674,1.0230674 0 0 0 0.54837,0.0223 0.86341149,0.86341149 0 0 0 0.2793,-0.1184 0.65545868,0.65545868 0 0 0 0.20768,-0.21858 c 0.0621,-0.10903 0.0869,-0.23459 0.10075,-0.35946 0.0352,-0.3185 0,-0.64029 -0.0262,-0.9596 -0.0179,-0.20727 -0.0324,-0.41811 0.014,-0.62096 0.0315,-0.1373 0.0931,-0.27156 0.19595,-0.36747 a 0.57845952,0.57845952 0 0 1 0.24314,-0.13248 0.68636868,0.68636868 0 0 1 0.27736,-0.0151 c 0.19871,0.0289 0.38473,0.1427 0.49567,0.3098 0.063,0.095 0.10147,0.20464 0.12447,0.31641 0.0229,0.1118 0.0313,0.22561 0.0376,0.33946 0.0215,0.39783 0.0207,0.79621 0.01,1.19459 -0.01,0.34773 -0.0289,0.70514 -0.16807,1.0239 -0.17883,0.40914 -0.53899,0.71452 -0.928,0.93392 a 3.6889213,3.6889213 0 0 1 -0.83014,0.33947 c 0.2521,0.80476 0.38333,1.69521 0.38333,2.59836 a 9.2063649,9.2063649 0 0 1 -0.0704,1.11194 6.7819958,6.7819958 0 0 0 3.33938,-5.834 c -2.8e-4,-3.74591 -3.0369,-6.78227 -6.78226,-6.78227 z m -1.89684,8.36034 v 0.77579 a 0.98346397,0.98346397 0 0 1 0.56674,0.18961 0.90908658,0.90908658 0 0 1 0.29088,0.35601 c 0.0635,0.14144 0.0869,0.30124 0.0608,0.45399 a 0.78103071,0.78103071 0 0 1 -0.17361,0.37037 0.86147963,0.86147963 0 0 1 -0.33255,0.23955 0.90936263,0.90936263 0 0 1 -0.41219,0.0639 v 1.95189 l 4.06053,-2.20165 -4.06066,-2.19959 z" />
</svg>
