<?xml version="1.0" encoding="UTF-8" standalone="no"?>
<!-- Created with Inkscape (http://www.inkscape.org/) -->

<svg
   xmlns:dc="http://purl.org/dc/elements/1.1/"
   xmlns:cc="http://creativecommons.org/ns#"
   xmlns:rdf="http://www.w3.org/1999/02/22-rdf-syntax-ns#"
   xmlns:svg="http://www.w3.org/2000/svg"
   xmlns="http://www.w3.org/2000/svg"
   xmlns:xlink="http://www.w3.org/1999/xlink"
   xmlns:sodipodi="http://sodipodi.sourceforge.net/DTD/sodipodi-0.dtd"
   xmlns:inkscape="http://www.inkscape.org/namespaces/inkscape"
   width="1052.36"
   height="400"
   id="svg3832"
   version="1.1"
   inkscape:version="0.48.2 r9819"
   sodipodi:docname="key_and_hourglass.svg">
  <defs
     id="defs3834">
    <inkscape:path-effect
       effect="spiro"
       id="path-effect2996"
       is_visible="true" />
    <inkscape:path-effect
       effect="skeletal"
       id="path-effect2998"
       is_visible="true"
       pattern="M 0,0 1,0"
       copytype="single_stretched"
       prop_scale="1"
       scale_y_rel="false"
       spacing="0"
       normal_offset="0"
       tang_offset="0"
       prop_units="false"
       vertical_pattern="false"
       fuse_tolerance="0" />
    <inkscape:path-effect
       effect="spiro"
       id="path-effect4825"
       is_visible="true" />
    <inkscape:path-effect
       effect="skeletal"
       id="path-effect4827"
       is_visible="true"
       pattern="M 0,0 1,0"
       copytype="single_stretched"
       prop_scale="1"
       scale_y_rel="false"
       spacing="0"
       normal_offset="0"
       tang_offset="0"
       prop_units="false"
       vertical_pattern="false"
       fuse_tolerance="0" />
  </defs>
  <sodipodi:namedview
     id="base"
     pagecolor="#ffffff"
     bordercolor="#666666"
     borderopacity="1.0"
     inkscape:pageopacity="1"
     inkscape:pageshadow="2"
     inkscape:zoom="0.98994949"
     inkscape:cx="506.76241"
     inkscape:cy="153.12536"
     inkscape:document-units="px"
     inkscape:current-layer="layer1"
     showgrid="false"
     inkscape:window-width="1031"
     inkscape:window-height="879"
     inkscape:window-x="0"
     inkscape:window-y="19"
     inkscape:window-maximized="0"
     height="400px" />
  <metadata
     id="metadata3837">
    <rdf:RDF>
      <cc:Work
         rdf:about="">
        <dc:format>image/svg+xml</dc:format>
        <dc:type
           rdf:resource="http://purl.org/dc/dcmitype/StillImage" />
        <dc:title />
      </cc:Work>
    </rdf:RDF>
  </metadata>
  <g
     inkscape:label="Layer 1"
     inkscape:groupmode="layer"
     id="layer1"
     transform="translate(0,-652.36218)">
    <g
       id="g4790"
       transform="matrix(0.98872082,0,0,0.98872082,-82.648524,537.60051)">
      <path
         sodipodi:nodetypes="ccsssscc"
         inkscape:connector-curvature="0"
         id="rect3846"
         d="m 379.22536,188.60089 c 10.41331,18.04357 27.92102,30.00622 29.96753,55.22134 l 0,117.85028 c 0,26.11562 -21.02449,47.14011 -47.14012,47.14011 l -126.9627,0 c -26.11563,0 -47.14012,-21.02449 -47.14012,-47.14011 l 0,-117.85028 c -1.36517,-22.47474 19.00103,-38.76795 31.24816,-56.29277"
         style="fill:none;stroke:#000000;stroke-width:6.00000048" />
      <rect
         ry="41.00415"
         y="175.63776"
         x="207.14285"
         height="184.51868"
         width="182.85715"
         id="rect3840"
         style="fill:#ffffff;stroke:#000000;stroke-width:6" />
      <g
         id="text3842"
         style="font-size:105.49190521px;font-style:normal;font-variant:normal;font-weight:900;font-stretch:normal;text-align:start;line-height:125%;writing-mode:lr-tb;text-anchor:start;fill:#000000;stroke:none;font-family:Andale Mono;-inkscape-font-specification:Andale Mono">
        <path
           id="path4771"
           style="font-weight:normal;font-family:Arial;-inkscape-font-specification:Arial"
           d="m 244.48662,263.6057 c -10e-6,-8.9283 0.91,-16.10532 2.73001,-21.53106 1.85434,-5.45997 4.58436,-9.66659 8.19005,-12.61988 3.64,-2.95315 8.20719,-4.42976 13.70158,-4.42984 4.05207,8e-5 7.60624,0.82423 10.66252,2.47247 3.0562,1.61404 5.58017,3.96632 7.57192,7.05683 1.99166,3.05631 3.55412,6.79934 4.68739,11.22912 1.13316,4.39555 1.69977,10.33633 1.69982,17.82236 -5e-5,8.8597 -0.91006,16.01955 -2.73002,21.47955 -1.82005,5.42571 -4.55007,9.63233 -8.19004,12.61989 -3.60572,2.95322 -8.17291,4.42983 -13.70159,4.42983 -7.28006,0 -12.99763,-2.60982 -17.15273,-7.82948 -4.97928,-6.28417 -7.46892,-16.51742 -7.46891,-30.69979 m 9.5293,0 c -2e-5,12.3967 1.44225,20.65542 4.32681,24.77618 2.91887,4.08644 6.50737,6.12966 10.76553,6.12965 4.25811,1e-5 7.82944,-2.06038 10.71403,-6.18116 2.91884,-4.12076 4.37828,-12.36231 4.37832,-24.72467 -4e-5,-12.43096 -1.45948,-20.68968 -4.37832,-24.77617 -2.88459,-4.08637 -6.49026,-6.12959 -10.81705,-6.12966 -4.25816,7e-5 -7.6578,1.80291 -10.19892,5.40852 -3.19362,4.60159 -4.79042,13.10069 -4.7904,25.49731"
           inkscape:connector-curvature="0" />
      </g>
      <path
         sodipodi:nodetypes="cc"
         inkscape:connector-curvature="0"
         id="path3849"
         d="m 208.09142,390.71227 12.12183,-32.82996"
         style="fill:none;stroke:#000000;stroke-width:6" />
      <path
         style="fill:none;stroke:#000000;stroke-width:6"
         d="M 387.39349,393.23765 375.27166,360.40769"
         id="path3851"
         inkscape:connector-curvature="0"
         sodipodi:nodetypes="cc" />
      <g
         id="text3853"
         style="font-size:48.28359222px;font-style:normal;font-variant:normal;font-weight:normal;font-stretch:normal;text-align:start;line-height:125%;writing-mode:lr-tb;text-anchor:start;fill:#000000;stroke:none;font-family:Arial;-inkscape-font-specification:Arial"
         transform="matrix(0.94249703,0,0,1.0610113,7.0710678,-4.0406102)">
        <path
           inkscape:connector-curvature="0"
           id="path4774"
           style="font-weight:bold;fill:#000000;font-family:Courier New;-inkscape-font-specification:Courier New Bold"
           d="m 201.51216,429.76633 c -0.42438,0.50295 -0.77016,0.82516 -1.03735,0.96661 -0.25148,0.14146 -0.56583,0.21219 -0.94304,0.21219 -0.73871,0 -1.33597,-0.24362 -1.79177,-0.73086 -0.44009,-0.50295 -0.66013,-1.32811 -0.66013,-2.47548 l 0,-3.25348 c 0,-1.16307 0.22004,-1.98823 0.66013,-2.47548 0.4558,-0.50294 1.05306,-0.75442 1.79177,-0.75443 0.56582,10e-6 1.03734,0.14933 1.41456,0.44795 0.39293,0.29863 0.69156,0.80159 0.89589,1.50886 0.20432,0.69157 0.4165,1.16309 0.63655,1.41456 0.45579,0.48724 1.26523,0.98233 2.42833,1.48528 1.16306,0.50296 2.43617,0.75444 3.8193,0.75443 2.15326,10e-6 3.92145,-0.50295 5.3046,-1.50886 0.88015,-0.61297 1.32023,-1.3674 1.32025,-2.26329 -2e-5,-0.59725 -0.2122,-1.15522 -0.63655,-1.6739 -0.42439,-0.53437 -1.11595,-0.97446 -2.07469,-1.32025 -0.62871,-0.23575 -2.0354,-0.55795 -4.22009,-0.96662 -2.64053,-0.48722 -4.63662,-1.07662 -5.9883,-1.76819 -1.3517,-0.69155 -2.42047,-1.66602 -3.20633,-2.92342 -0.78587,-1.25737 -1.17881,-2.61692 -1.1788,-4.07865 -1e-5,-2.31042 0.96661,-4.33009 2.89984,-6.05902 1.93322,-1.7446 4.44799,-2.61691 7.54431,-2.61694 1.24166,3e-5 2.38902,0.14149 3.4421,0.42437 1.06875,0.26723 2.03537,0.68373 2.89984,1.24953 0.62867,-0.61295 1.25736,-0.91944 1.88608,-0.91946 0.70725,2e-5 1.28094,0.2515 1.72104,0.75443 0.45578,0.48726 0.68368,1.30456 0.68371,2.4519 l 0,3.6307 c -3e-5,1.1631 -0.22793,1.99612 -0.68371,2.49905 -0.4401,0.48726 -1.01379,0.73087 -1.72104,0.73086 -0.59728,1e-5 -1.11595,-0.18073 -1.55602,-0.54225 -0.3458,-0.26718 -0.60513,-0.80156 -0.778,-1.60317 -0.17291,-0.80156 -0.39296,-1.37524 -0.66013,-1.72104 -0.45582,-0.59724 -1.13952,-1.10019 -2.05111,-1.50887 -0.91162,-0.40862 -1.96468,-0.61295 -3.15918,-0.61297 -1.74464,2e-5 -3.12776,0.40867 -4.14937,1.22595 -1.00592,0.80161 -1.50887,1.64248 -1.50886,2.52263 -1e-5,0.59728 0.20431,1.17882 0.61297,1.74462 0.42436,0.55013 1.03733,0.98235 1.83893,1.29668 0.53437,0.22006 2.03538,0.5737 4.50301,1.06092 2.48332,0.48725 4.38511,1.02164 5.70538,1.60316 1.33595,0.58156 2.44402,1.49316 3.32422,2.73482 0.88014,1.24168 1.32022,2.7191 1.32025,4.43228 -3e-5,2.38904 -0.8409,4.29869 -2.52263,5.72896 -2.23188,1.88608 -5.07671,2.82912 -8.5345,2.82912 -1.33599,0 -2.64052,-0.16503 -3.91361,-0.4951 -1.2574,-0.31434 -2.48335,-0.79372 -3.67785,-1.43813" />
        <path
           inkscape:connector-curvature="0"
           id="path4776"
           style="font-weight:bold;fill:#000000;font-family:Courier New;-inkscape-font-specification:Courier New Bold"
           d="m 232.54454,414.41837 0,9.68973 c -2e-5,1.03734 0.21217,1.72105 0.63655,2.0511 0.66011,0.51868 1.83891,0.77802 3.53639,0.77801 2.4676,1e-5 4.74661,-0.52652 6.83704,-1.57959 0.80155,-0.40864 1.43025,-0.61297 1.88607,-0.61297 0.62867,0 1.17092,0.23576 1.62675,0.70728 0.47149,0.47152 0.70725,1.0452 0.70727,1.72104 -2e-5,0.6287 -0.2515,1.17094 -0.75443,1.62674 -0.77017,0.73872 -2.29475,1.42242 -4.57373,2.05111 -2.26332,0.61298 -4.17297,0.91947 -5.72897,0.91947 -3.00202,0 -5.25745,-0.64441 -6.7663,-1.93323 -1.49315,-1.30454 -2.23973,-2.89984 -2.23972,-4.78593 l 0,-10.63276 -1.74462,0 c -1.16309,2e-5 -1.9961,-0.22003 -2.49905,-0.66013 -0.48724,-0.45578 -0.73086,-1.04518 -0.73086,-1.76819 0,-0.70726 0.24362,-1.28095 0.73086,-1.72105 0.50295,-0.45578 1.33596,-0.68368 2.49905,-0.6837 l 1.74462,0 0,-4.36156 c -10e-6,-1.16305 0.22004,-1.98821 0.66013,-2.47548 0.45579,-0.50292 1.04519,-0.7544 1.7682,-0.75443 0.70726,3e-5 1.28095,0.25151 1.72104,0.75443 0.45579,0.48727 0.68369,1.31243 0.68371,2.47548 l 0,4.36156 8.93529,0 c 1.16306,2e-5 1.98822,0.22792 2.47548,0.6837 0.50293,0.4401 0.7544,1.02164 0.75443,1.74462 -3e-5,0.7073 -0.2515,1.28884 -0.75443,1.74462 -0.48726,0.4401 -1.31242,0.66015 -2.47548,0.66013 l -8.93529,0" />
        <path
           inkscape:connector-curvature="0"
           id="path4778"
           style="font-weight:bold;fill:#000000;font-family:Courier New;-inkscape-font-specification:Courier New Bold"
           d="m 260.92658,409.5853 0,3.01772 c 2.02752,-1.46169 3.62282,-2.43616 4.78592,-2.92342 1.17878,-0.48722 2.27899,-0.73083 3.30064,-0.73086 1.57171,3e-5 3.09628,0.58157 4.57374,1.74463 1.00588,0.78588 1.50883,1.58746 1.50886,2.40475 -3e-5,0.69157 -0.24365,1.28097 -0.73086,1.76819 -0.47154,0.47154 -1.04522,0.7073 -1.72104,0.70728 -0.59729,2e-5 -1.22598,-0.29861 -1.88608,-0.89588 -0.66015,-0.59725 -1.24955,-0.89587 -1.7682,-0.89589 -0.67586,2e-5 -1.68963,0.42438 -3.0413,1.2731 -1.33599,0.84875 -3.00988,2.12185 -5.02168,3.81931 l 0,7.28497 6.88418,0 c 1.16306,10e-6 1.98822,0.22791 2.47548,0.68371 0.50293,0.44009 0.75441,1.02163 0.75443,1.74462 -2e-5,0.70728 -0.2515,1.28882 -0.75443,1.74462 -0.48726,0.44009 -1.31242,0.66013 -2.47548,0.66013 l -14.59352,0 c -1.16309,0 -1.99611,-0.22004 -2.49906,-0.66013 -0.48724,-0.4558 -0.73086,-1.0452 -0.73085,-1.7682 -10e-6,-0.70727 0.24361,-1.28095 0.73085,-1.72104 0.50295,-0.4558 1.33597,-0.6837 2.49906,-0.68371 l 2.87626,0 0,-11.74083 -1.74462,0 c -1.16309,2e-5 -1.9961,-0.22003 -2.49905,-0.66013 -0.48724,-0.45578 -0.73086,-1.04518 -0.73086,-1.76819 0,-0.70726 0.24362,-1.28095 0.73086,-1.72105 0.50295,-0.45578 1.33596,-0.68368 2.49905,-0.6837 l 6.5777,0" />
        <path
           inkscape:connector-curvature="0"
           id="path4780"
           style="font-weight:bold;fill:#000000;font-family:Courier New;-inkscape-font-specification:Courier New Bold"
           d="m 295.22962,430.99228 0,-1.13165 c -1.21025,0.64441 -2.54622,1.12379 -4.00792,1.43814 -1.46172,0.33006 -2.78983,0.49509 -3.98434,0.49509 -2.59336,0 -4.69948,-0.6837 -6.31836,-2.05111 -1.61888,-1.38312 -2.42832,-2.9077 -2.42832,-4.57374 0,-2.02752 1.02948,-3.90574 3.08845,-5.63465 2.07468,-1.74461 4.93523,-2.61692 8.58165,-2.61694 1.4617,2e-5 3.15131,0.15719 5.06884,0.47152 l 0,-1.15522 c -2e-5,-0.72298 -0.31437,-1.31238 -0.94304,-1.7682 -0.61299,-0.45578 -1.79179,-0.68368 -3.5364,-0.6837 -1.43029,2e-5 -3.28493,0.28293 -5.56393,0.84873 -0.84874,0.20435 -1.50887,0.30651 -1.98038,0.30649 -0.64441,2e-5 -1.19452,-0.22788 -1.65032,-0.6837 -0.44009,-0.4715 -0.66013,-1.06876 -0.66012,-1.79178 -10e-6,-0.40863 0.0786,-0.76227 0.23576,-1.06091 0.15716,-0.29861 0.37721,-0.53437 0.66012,-0.70728 0.28291,-0.18859 0.87231,-0.40863 1.7682,-0.66013 1.19451,-0.33004 2.4126,-0.58938 3.65428,-0.77801 1.24165,-0.2043 2.36544,-0.30646 3.37136,-0.30649 3.00199,3e-5 5.32815,0.65229 6.97849,1.95681 1.66601,1.28884 2.49903,3.05704 2.49905,5.30459 l 0,9.94906 0.82516,0 c 1.16306,10e-6 1.98822,0.22791 2.47548,0.68371 0.50293,0.44009 0.7544,1.02163 0.75443,1.74462 -3e-5,0.70728 -0.2515,1.28882 -0.75443,1.74462 -0.48726,0.44009 -1.31242,0.66013 -2.47548,0.66013 l -5.65823,0 m 0,-8.65238 c -1.93325,-0.37721 -3.71716,-0.56582 -5.35175,-0.56583 -1.96467,1e-5 -3.65428,0.47939 -5.06883,1.43814 -0.88018,0.61298 -1.32026,1.23381 -1.32026,1.8625 0,0.45581 0.21218,0.82516 0.63655,1.10807 0.78586,0.51868 1.8625,0.77801 3.22991,0.77801 1.16307,0 2.47547,-0.2279 3.93719,-0.68371 1.47741,-0.45579 2.78981,-1.07663 3.93719,-1.8625 l 0,-2.07468" />
        <path
           inkscape:connector-curvature="0"
           id="path4782"
           style="font-weight:bold;fill:#000000;font-family:Courier New;-inkscape-font-specification:Courier New Bold"
           d="m 314.09337,414.41837 0,9.68973 c -10e-6,1.03734 0.21217,1.72105 0.63655,2.0511 0.66011,0.51868 1.83891,0.77802 3.5364,0.77801 2.46759,1e-5 4.7466,-0.52652 6.83703,-1.57959 0.80156,-0.40864 1.43025,-0.61297 1.88608,-0.61297 0.62866,0 1.17091,0.23576 1.62674,0.70728 0.47149,0.47152 0.70725,1.0452 0.70728,1.72104 -3e-5,0.6287 -0.25151,1.17094 -0.75443,1.62674 -0.77018,0.73872 -2.29476,1.42242 -4.57374,2.05111 -2.26332,0.61298 -4.17297,0.91947 -5.72896,0.91947 -3.00203,0 -5.25746,-0.64441 -6.76631,-1.93323 -1.49315,-1.30454 -2.23972,-2.89984 -2.23972,-4.78593 l 0,-10.63276 -1.74462,0 c -1.16308,2e-5 -1.9961,-0.22003 -2.49905,-0.66013 -0.48724,-0.45578 -0.73086,-1.04518 -0.73086,-1.76819 0,-0.70726 0.24362,-1.28095 0.73086,-1.72105 0.50295,-0.45578 1.33597,-0.68368 2.49905,-0.6837 l 1.74462,0 0,-4.36156 c 0,-1.16305 0.22004,-1.98821 0.66013,-2.47548 0.45579,-0.50292 1.04519,-0.7544 1.7682,-0.75443 0.70727,3e-5 1.28095,0.25151 1.72105,0.75443 0.45578,0.48727 0.68369,1.31243 0.6837,2.47548 l 0,4.36156 8.93529,0 c 1.16306,2e-5 1.98822,0.22792 2.47548,0.6837 0.50293,0.4401 0.7544,1.02164 0.75443,1.74462 -3e-5,0.7073 -0.2515,1.28884 -0.75443,1.74462 -0.48726,0.4401 -1.31242,0.66015 -2.47548,0.66013 l -8.93529,0" />
        <path
           inkscape:connector-curvature="0"
           id="path4784"
           style="font-weight:bold;fill:#000000;font-family:Courier New;-inkscape-font-specification:Courier New Bold"
           d="m 355.26045,409.5853 0,16.5739 c 1.02159,10e-6 1.77603,0.22791 2.26329,0.68371 0.48721,0.4558 0.73083,1.03734 0.73085,1.74462 -2e-5,0.70728 -0.2515,1.28882 -0.75443,1.74462 -0.48726,0.44009 -1.31242,0.66013 -2.47547,0.66013 l -4.59732,0 0,-1.10807 c -1.38314,0.62869 -2.70339,1.10021 -3.96076,1.41456 -1.2574,0.31434 -2.45192,0.47152 -3.58355,0.47152 -1.58746,0 -2.96272,-0.33007 -4.1258,-0.99019 -1.16308,-0.67585 -2.08255,-1.60317 -2.75838,-2.78197 -0.48725,-0.84873 -0.73086,-1.90965 -0.73086,-3.18276 l 0,-10.397 -0.82516,0 c -1.16308,2e-5 -1.9961,-0.22003 -2.49905,-0.66013 -0.48724,-0.45578 -0.73086,-1.04518 -0.73086,-1.76819 0,-0.70726 0.24362,-1.28095 0.73086,-1.72105 0.50295,-0.45578 1.33597,-0.68368 2.49905,-0.6837 l 5.65823,0 0,14.38134 c -10e-6,1.02163 0.24361,1.77606 0.73086,2.26329 0.50294,0.47153 1.26523,0.70729 2.28687,0.70728 0.97446,1e-5 2.01966,-0.1886 3.1356,-0.56582 1.13163,-0.39293 2.52261,-1.09235 4.17295,-2.09826 l 0,-9.85476 -1.74462,0 c -1.1631,2e-5 -1.99612,-0.22003 -2.49905,-0.66013 -0.48726,-0.45578 -0.73087,-1.04518 -0.73086,-1.76819 -10e-6,-0.70726 0.2436,-1.28095 0.73086,-1.72105 0.50293,-0.45578 1.33595,-0.68368 2.49905,-0.6837 l 6.5777,0" />
        <path
           inkscape:connector-curvature="0"
           id="path4786"
           style="font-weight:bold;fill:#000000;font-family:Courier New;-inkscape-font-specification:Courier New Bold"
           d="m 368.75621,409.5853 0,1.3674 c 0.78586,-0.77013 1.49313,-1.29665 2.12183,-1.57959 0.64441,-0.29861 1.38312,-0.44792 2.21615,-0.44794 0.70726,2e-5 1.40668,0.17291 2.09826,0.51867 0.69155,0.3458 1.36739,0.86447 2.02753,1.55601 0.833,-0.69154 1.67388,-1.20235 2.52263,-1.53243 0.86443,-0.34576 1.7446,-0.51865 2.64051,-0.51868 1.79175,3e-5 3.2456,0.4794 4.36155,1.43814 1.47741,1.2574 2.21612,2.90772 2.21615,4.95095 l 0,10.82137 c 1.00588,10e-6 1.75245,0.22791 2.23971,0.68371 0.48721,0.4558 0.73083,1.03734 0.73086,1.74462 -3e-5,0.70728 -0.24365,1.28882 -0.73086,1.74462 -0.48726,0.44009 -1.31242,0.66013 -2.47547,0.66013 l -4.59732,0 0,-15.25366 c -2e-5,-0.73869 -0.13362,-1.24951 -0.40079,-1.53243 -0.26722,-0.2829 -0.67587,-0.42435 -1.22595,-0.42437 -0.53441,2e-5 -1.0295,0.14147 -1.48529,0.42437 -0.58156,0.39295 -1.28883,1.13166 -2.12183,2.21614 l 0,9.73687 c 1.00589,10e-6 1.75246,0.22791 2.23971,0.68371 0.48722,0.4558 0.73084,1.03734 0.73086,1.74462 -2e-5,0.70728 -0.24364,1.28882 -0.73086,1.74462 -0.48725,0.44009 -1.31241,0.66013 -2.47547,0.66013 l -4.59732,0 0,-15.25366 c -10e-6,-0.72298 -0.14147,-1.22593 -0.42437,-1.50886 -0.2672,-0.29861 -0.67585,-0.44792 -1.22595,-0.44794 -0.56583,2e-5 -1.12379,0.18077 -1.67389,0.54225 -0.55012,0.34579 -1.21024,1.04521 -1.98038,2.09826 l 0,9.73687 c 1.0059,10e-6 1.75247,0.22791 2.23971,0.68371 0.50295,0.4558 0.75443,1.03734 0.75444,1.74462 -10e-6,0.70728 -0.25149,1.28882 -0.75444,1.74462 -0.48724,0.44009 -1.3124,0.66013 -2.47547,0.66013 l -4.36156,0 c -1.16308,0 -1.98824,-0.22004 -2.47547,-0.66013 -0.50296,-0.4558 -0.75443,-1.0452 -0.75444,-1.7682 10e-6,-0.70727 0.24362,-1.28095 0.73086,-1.72104 0.48724,-0.4558 1.24167,-0.6837 2.26329,-0.68371 l 0,-11.74083 c -1.02162,2e-5 -1.77605,-0.22788 -2.26329,-0.6837 -0.48724,-0.45579 -0.73085,-1.03733 -0.73086,-1.74462 10e-6,-0.70726 0.25148,-1.28095 0.75444,-1.72105 0.48723,-0.45578 1.31239,-0.68368 2.47547,-0.6837 l 4.59732,0" />
        <path
           inkscape:connector-curvature="0"
           id="path4788"
           style="font-weight:bold;fill:#000000;font-family:Courier New;-inkscape-font-specification:Courier New Bold"
           d="m 432.54499,413.05096 0,5.3046 c -3e-5,3.14347 -0.91163,6.15333 -2.73481,9.0296 -1.80752,2.87626 -4.40087,4.3144 -7.78008,4.3144 -1.94895,0 -3.59927,-0.42437 -4.95095,-1.2731 -1.33598,-0.86446 -2.60908,-2.44404 -3.81931,-4.73877 -1.19452,-2.31044 -1.79178,-4.75448 -1.79177,-7.33213 l 0,-5.3046 c -1e-5,-3.12772 0.90374,-6.12973 2.71124,-9.00602 1.80748,-2.89195 4.40083,-4.33795 7.78007,-4.33798 1.93321,3e-5 3.56781,0.4244 4.9038,1.27311 1.35167,0.84876 2.63263,2.42835 3.84288,4.73877 1.22593,2.29475 1.8389,4.73879 1.83893,7.33212 m -4.85665,0 c -2e-5,-2.62477 -0.73088,-4.91949 -2.19257,-6.88418 -0.83303,-1.08447 -2.00397,-1.62672 -3.51282,-1.62674 -1.46172,2e-5 -2.65624,0.59728 -3.58355,1.79177 -1.39885,1.80752 -2.09827,4.04723 -2.09826,6.71915 l 0,5.3046 c -10e-6,2.64052 0.73871,4.93524 2.21614,6.88418 0.81729,1.0845 1.98823,1.62675 3.51282,1.62674 1.44598,10e-6 2.63264,-0.59725 3.55998,-1.79177 1.39882,-1.80748 2.09824,-4.0472 2.09826,-6.71915 l 0,-5.3046" />
      </g>
    </g>
    <g
       transform="matrix(0.46662993,0,0,0.46662993,380.29152,578.70962)"
       id="g4807">
      <path
         sodipodi:nodetypes="caaaccaaacaaaccaaacc"
         inkscape:connector-curvature="0"
         inkscape:original-d="m 259.50992,568.0343 c 0,0 29.12484,23.66513 42.00065,37.24177 9.62578,10.14971 19.25329,20.65357 26.1398,32.82929 5.98986,10.5904 10.45448,22.25195 12.75688,34.19908 2.0492,10.63328 0.77091,32.47766 0.77091,32.47766 l -126.48984,0 c 0,0 -0.9928,-19.39947 1e-5,-29.02259 0.97584,-9.4586 3.02482,-18.83812 5.8241,-27.92555 2.67941,-8.69827 6.20008,-17.1755 10.43197,-25.23343 5.78093,-11.00742 20.28978,-31.29804 20.28978,-31.29804 0,0 -17.73256,18.56108 -24.44591,29.39266 -10.57075,17.05527 -20.21307,35.42394 -24.32119,55.06436 -1.22615,5.86208 0.0586,11.97777 0.0634,17.96671 0.009,10.93439 -0.0634,32.80312 -0.0634,32.80312 l 147.05962,0 c 0,0 2.25864,-35.29697 0.69101,-52.84288 -1.34435,-15.04677 -3.19352,-30.3937 -8.61659,-44.49345 -5.12968,-13.33694 -13.13514,-25.61605 -22.15279,-36.7007 -8.02193,-9.8607 -27.95483,-25.93818 -27.95483,-25.93818 z"
         inkscape:path-effect="#path-effect2996;#path-effect2998"
         id="path2994"
         d="m 259.50992,568.0343 c 14.88194,11.36935 28.93198,23.82745 42.00065,37.24177 9.78621,10.04504 19.08352,20.70982 26.1398,32.82929 10e-6,10e-6 2e-5,3e-5 2e-5,4e-5 6.15218,10.56663 10.53655,22.17518 12.75686,34.19904 0,10e-6 0,2e-5 0,2e-5 1.97468,10.69367 2.23599,21.70232 0.77091,32.47764 l -126.48984,0 c -1.01173,-9.63888 -1.01173,-19.38371 1e-5,-29.02259 0,-10e-6 0,-2e-5 0,-2e-5 0.99429,-9.47266 2.9649,-18.84012 5.8241,-27.92553 2.73541,-8.69206 6.28103,-17.12146 10.43197,-25.23343 0,-1e-5 1e-5,-1e-5 1e-5,-2e-5 5.67351,-11.08747 12.48392,-21.59287 20.28976,-31.298 0,-10e-6 1e-5,-10e-6 1e-5,-2e-5 -8.73817,9.28653 -16.90717,19.10857 -24.44591,29.39266 -12.01806,16.39463 -22.71092,34.80048 -24.32119,55.06436 -0.4747,5.97376 -0.14543,11.97776 0.0634,17.96671 0.38113,10.9302 0.35998,21.87443 -0.0634,32.80307 0,2e-5 0,3e-5 0,5e-5 l 147.05962,0 c 1.7065,-17.55366 1.93792,-35.25055 0.69101,-52.84283 0,-2e-5 0,-3e-5 0,-5e-5 -1.07185,-15.12242 -3.27042,-30.30701 -8.61659,-44.49345 -10e-6,-10e-6 -10e-6,-3e-5 -2e-5,-4e-5 -5.06363,-13.4367 -12.87735,-25.73928 -22.15277,-36.70066 -8.23104,-9.72717 -17.63972,-18.45711 -27.95483,-25.93818 z"
         style="fill:#000000;fill-opacity:1;fill-rule:evenodd;stroke:none" />
      <use
         height="1052.3622"
         width="744.09448"
         transform="matrix(-1,0,0,-1,552.81127,1135.9227)"
         id="use3000"
         xlink:href="#path2994"
         y="0"
         x="0" />
      <g
         transform="scale(0.62320253,1.6046148)"
         style="font-size:256.2208252px;font-style:normal;font-variant:normal;font-weight:bold;font-stretch:normal;text-align:start;line-height:125%;writing-mode:lr-tb;text-anchor:start;fill:#000000;fill-opacity:1;fill-rule:evenodd;stroke:none;font-family:Arial;-inkscape-font-specification:Arial Bold"
         id="text3002">
        <path
           d="m 638.93424,453.47574 -42.41155,0 0,-127.73509 -26.27265,0 0,-16.76445 26.27265,0 0,-53.17082 42.41155,0 0,53.17082 43.78774,0 0,16.76445 -43.78774,0 0,127.73509"
           style="font-family:Aclonica;-inkscape-font-specification:Aclonica Bold"
           id="path3008" />
        <path
           d="m 825.47,321.7372 -23.77048,39.40896 c -1.00098,-3.33611 -2.29376,-7.08934 -3.87835,-11.2597 -1.58481,-4.17015 -3.54483,-8.04849 -5.88006,-11.63503 -2.33546,-3.66971 -5.12953,-6.714 -8.38223,-9.13287 -3.2529,-2.50203 -7.00613,-3.75311 -11.2597,-3.75323 -3.92013,1.2e-4 -7.33974,1.00099 -10.25884,3.00258 -2.83586,2.00185 -5.25461,4.62911 -7.25626,7.8818 -2.00179,3.16951 -3.66989,6.79763 -5.00431,10.88438 -1.25114,4.00355 -2.25201,8.0904 -3.00259,12.26056 -0.6673,4.08695 -1.12603,8.04869 -1.37619,11.88525 -0.25027,3.75331 -0.37538,7.00611 -0.37532,9.75841 l 0,72.43743 -42.41155,0 0,-144.49954 16.26402,0 17.13977,33.65401 c 2.33529,-5.42123 5.00425,-10.38383 8.0069,-14.88784 3.00252,-4.58715 6.46384,-8.50719 10.38395,-11.76013 3.91997,-3.33607 8.34044,-5.92163 13.26143,-7.75669 5.00422,-1.83476 10.63407,-2.75222 16.88955,-2.75237 3.2527,1.5e-4 6.88083,0.29207 10.88438,0.87576 4.00334,0.50057 7.92338,1.41803 11.76014,2.75237 3.83651,1.25122 7.38123,2.91932 10.63417,5.00431 3.25266,2.08527 5.79652,4.62913 7.63157,7.63158"
           style="font-family:Aclonica;-inkscape-font-specification:Aclonica Bold"
           id="path3010" />
        <path
           d="m 985.73313,453.47574 -42.28644,0 0,-17.26488 c -5.00443,6.83924 -11.0513,11.92695 -18.14064,15.26315 -7.00613,3.25281 -14.72111,4.87921 -23.14494,4.87921 -11.00956,0 -20.85137,-1.96003 -29.52545,-5.88007 -8.67418,-3.92004 -16.01384,-9.25797 -22.01898,-16.0138 -6.0052,-6.8392 -10.59248,-14.8461 -13.76186,-24.0207 -3.16941,-9.17452 -4.75411,-19.01633 -4.7541,-29.52545 -10e-6,-10.50897 1.58469,-20.35078 4.7541,-29.52545 3.16938,-9.17446 7.75666,-17.13965 13.76186,-23.89559 6.00514,-6.8391 13.3448,-12.21873 22.01898,-16.13891 8.67408,-3.9199 18.51589,-5.87992 29.52545,-5.88007 5.58806,1.5e-4 10.88429,0.8342 15.88869,2.50216 5.08762,1.66825 9.7166,4.04529 13.88697,7.13114 4.25355,3.00273 7.96508,6.67255 11.13459,11.00949 3.25268,4.25379 5.79654,9.00788 7.63158,14.26229 l 18.76618,-31.40206 16.26401,0 0,144.49954 M 943.19647,380.9132 c -1.2e-4,-3.75316 -0.20863,-7.7149 -0.62554,-11.88524 -0.33374,-4.17018 -0.95928,-8.29873 -1.87661,-12.38568 -0.91758,-4.08675 -2.21036,-7.96509 -3.87835,-11.63503 -1.58481,-3.75312 -3.66994,-7.04762 -6.25539,-9.88351 -2.50226,-2.91907 -5.54655,-5.21271 -9.13287,-6.88093 -3.58652,-1.66798 -7.75678,-2.50203 -12.51078,-2.50216 -4.75418,1.3e-4 -8.88273,0.87588 -12.38568,2.62726 -3.50309,1.66823 -6.50567,3.96187 -9.00776,6.88093 -2.50222,2.8359 -4.58735,6.1304 -6.25539,9.88352 -1.58476,3.75334 -2.83583,7.67338 -3.75324,11.76014 -0.91751,4.08695 -1.58475,8.2155 -2.00172,12.38567 -0.33367,4.08694 -0.50048,7.96528 -0.50043,11.63503 -5e-5,3.6699 0.16676,7.58994 0.50043,11.76014 0.41697,4.17031 1.08421,8.29887 2.00172,12.38567 0.91741,4.0869 2.16848,8.00694 3.75324,11.76014 1.66804,3.75326 3.75317,7.08947 6.25539,10.00862 2.50209,2.8358 5.50467,5.12944 9.00776,6.88093 3.50295,1.66812 7.6315,2.50218 12.38568,2.50216 4.33698,2e-5 8.17362,-0.87574 11.50992,-2.62727 3.41951,-1.83489 6.38039,-4.25364 8.88265,-7.25625 2.58546,-3.00256 4.75399,-6.42217 6.50561,-10.25884 1.7514,-3.8366 3.16928,-7.79834 4.25367,-11.88524 1.08415,-4.08681 1.87649,-8.13196 2.37705,-12.13546 0.50031,-4.08679 0.75052,-7.79832 0.75064,-11.1346"
           style="font-family:Aclonica;-inkscape-font-specification:Aclonica Bold"
           id="path3012" />
        <path
           d="m 1075.3103,453.47574 -42.4115,0 0,-127.73509 -26.2727,0 0,-16.76445 26.2727,0 0,-53.17082 42.4115,0 0,53.17082 43.7878,0 0,16.76445 -43.7878,0 0,127.73509"
           style="font-family:Aclonica;-inkscape-font-specification:Aclonica Bold"
           id="path3014" />
        <path
           d="m 1128.1058,391.67247 c 0,-6.58894 0.5421,-13.42816 1.6264,-20.51768 1.1677,-7.08935 2.7941,-14.17879 4.8792,-21.26833 2.1686,-7.08933 4.7541,-14.09536 7.7567,-21.01811 3.0026,-6.92251 6.3805,-13.55321 10.1338,-19.89215 l 30.9016,0 c -2.0852,6.25553 -3.9618,12.80283 -5.6299,19.64193 -1.5847,6.75594 -2.9609,13.55346 -4.1285,20.39257 -1.0843,6.75593 -1.9601,13.38663 -2.6273,19.89215 -0.5839,6.50568 -0.8758,12.55256 -0.8757,18.14063 -10e-5,3.25287 0.125,6.75589 0.3753,10.50906 0.3335,3.66988 0.8757,7.38141 1.6264,11.1346 0.7506,3.66987 1.7931,7.21459 3.1277,10.63416 1.4178,3.41965 3.211,6.46393 5.3796,9.13287 2.1685,2.58559 4.7957,4.67072 7.8818,6.25539 3.1693,1.50132 6.8809,2.25196 11.1346,2.25195 4.1702,1e-5 7.8817,-0.91744 11.1346,-2.75238 3.3361,-1.9183 6.2553,-4.37875 8.7575,-7.38136 2.5021,-3.08596 4.6289,-6.58898 6.3805,-10.50906 1.7514,-3.92 3.1693,-7.92345 4.2537,-12.01035 1.1676,-4.1702 2.0016,-8.21535 2.5022,-12.13546 0.5837,-4.00338 0.8756,-7.5898 0.8757,-10.75927 l 0,-72.43743 42.2865,0 0,144.49954 -16.264,0 -19.3918,-33.65401 c -2.4188,5.58818 -5.3797,10.67589 -8.8826,15.26316 -3.4197,4.50389 -7.3398,8.38223 -11.7602,11.63503 -4.4205,3.2528 -9.3414,5.75496 -14.7627,7.50647 -5.338,1.7515 -11.1346,2.62726 -17.39,2.62726 -10.0087,0 -18.7245,-1.6264 -26.1475,-4.87921 -7.4231,-3.25279 -13.5951,-7.75667 -18.516,-13.51164 -4.9209,-5.75494 -8.5907,-12.59416 -11.0094,-20.51768 -2.4188,-8.00686 -3.6282,-16.7644 -3.6282,-26.27265"
           style="font-family:Aclonica;-inkscape-font-specification:Aclonica Bold"
           id="path3016" />
        <path
           d="m 1534.7062,369.15306 c -2e-4,9.9253 -1.1679,20.26754 -3.503,31.02675 -2.3356,10.75931 -5.6301,21.26836 -9.8835,31.52717 -4.1705,10.17545 -9.2165,19.80874 -15.138,28.8999 -5.922,9.09116 -12.511,16.97294 -19.7671,23.64538 l -15.8887,-8.63244 c 2.4186,-4.33709 4.6288,-9.21629 6.6307,-14.63761 2.0016,-5.42134 3.8365,-11.13459 5.5048,-17.13977 1.6679,-6.00516 3.1275,-12.17714 4.3788,-18.51596 1.2508,-6.33876 2.2934,-12.63585 3.1277,-18.89128 0.9172,-6.33875 1.5845,-12.46902 2.0017,-18.39085 0.4168,-5.9217 0.6253,-11.46814 0.6255,-16.63934 -2e-4,-2.9191 -0.084,-6.0885 -0.2502,-9.5082 -0.167,-3.41952 -0.5423,-6.83913 -1.126,-10.25884 -0.5006,-3.41951 -1.2929,-6.67231 -2.377,-9.75841 -1.0845,-3.16928 -2.5858,-5.96336 -4.5039,-8.38223 -1.8351,-2.50203 -4.1704,-4.46205 -7.006,-5.88006 -2.7526,-1.50117 -6.0888,-2.25182 -10.0087,-2.25194 -3.8368,1.2e-4 -7.1313,1.04269 -9.8835,3.12769 -2.6691,2.00185 -4.9628,4.62911 -6.8809,7.88179 -1.9185,3.25292 -3.4615,6.92275 -4.629,11.00949 -1.0844,4.08696 -1.9185,8.21551 -2.5022,12.38568 -0.5839,4.08694 -1.001,8.00698 -1.251,11.76013 -0.167,3.75332 -0.2504,6.92271 -0.2503,9.5082 l 0,72.43743 -42.1613,0 0,-67.30801 c -10e-5,-2.91911 0.042,-6.42213 0.1251,-10.50906 0.083,-4.17018 -0.042,-8.50724 -0.3753,-13.01121 -0.2503,-4.50379 -0.7925,-8.96596 -1.6264,-13.38654 -0.7508,-4.50377 -2.0018,-8.50722 -3.7532,-12.01035 -1.6682,-3.5029 -3.9619,-6.33867 -6.881,-8.50733 -2.9192,-2.25182 -6.5891,-3.37779 -11.0095,-3.37791 -3.7533,1.2e-4 -6.9227,1.04269 -9.5082,3.12769 -2.5022,2.08525 -4.629,4.79592 -6.3805,8.13201 -1.6681,3.25292 -3.0026,6.96445 -4.0034,11.1346 -0.9175,4.08695 -1.6265,8.21551 -2.1268,12.38567 -0.4171,4.08695 -0.6673,8.00699 -0.7507,11.76014 -0.083,3.6699 -0.1252,6.71419 -0.1251,9.13287 l 0,72.43743 -42.4115,0 0,-144.49954 16.264,0 15.5133,33.65401 c 3.503,-11.67661 9.0077,-20.76777 16.5143,-27.27351 7.5898,-6.58887 17.6401,-9.88337 30.151,-9.88352 11.2596,1.5e-4 20.6009,2.33549 28.0241,7.00604 7.4229,4.67083 13.2613,12.2607 17.5151,22.76962 2.4186,-4.58716 5.0876,-8.71571 8.0069,-12.38567 3.0024,-3.6697 6.2969,-6.79739 9.8835,-9.38309 3.6697,-2.58542 7.7148,-4.54544 12.1355,-5.88007 4.4203,-1.41774 9.2995,-2.12668 14.6376,-2.12683 9.8416,1.5e-4 18.2238,1.62655 25.1467,4.87921 7.0058,3.16954 12.719,7.59001 17.1397,13.26143 4.4203,5.67168 7.6314,12.42749 9.6334,20.26746 2.0014,7.75679 3.0023,16.18071 3.0025,25.27178"
           style="font-family:Aclonica;-inkscape-font-specification:Aclonica Bold"
           id="path3018" />
        <path
           d="m 1808.9426,363.14789 c -10e-5,11.00957 -1.2512,20.97648 -3.7532,29.90077 -2.5023,8.841 -5.9636,16.76449 -10.3839,23.77049 -4.3373,6.92266 -9.425,12.92783 -15.2632,18.01552 -5.8385,5.08773 -12.0939,9.29969 -18.7662,12.63589 -6.6725,3.25281 -13.5951,5.67156 -20.7679,7.25626 -7.1729,1.58469 -14.2624,2.37704 -21.2683,2.37705 -7.0895,-10e-6 -14.2207,-0.87576 -21.3934,-2.62727 -7.173,-1.6681 -14.0539,-4.21196 -20.6428,-7.63158 -6.5891,-3.50301 -12.7611,-7.84007 -18.516,-13.01121 -5.6716,-5.1711 -10.6342,-11.21797 -14.8878,-18.14063 -4.1703,-7.006 -7.4648,-14.88778 -9.8835,-23.64538 -2.4188,-8.75748 -3.6282,-18.39077 -3.6282,-28.89991 0,-11.09279 1.2094,-21.10141 3.6282,-30.02588 2.5021,-8.92423 5.88,-16.88942 10.1337,-23.89559 4.2536,-7.00589 9.2579,-13.01106 15.0129,-18.01553 5.755,-5.08755 11.9269,-9.25781 18.516,-12.51078 6.5889,-3.25263 13.4282,-5.67138 20.5177,-7.25626 7.0893,-1.58451 14.1371,-2.37686 21.1432,-2.37705 7.5064,1.9e-4 14.9711,0.79254 22.3943,2.37705 7.4229,1.58488 14.4707,4.00363 21.1432,7.25626 6.6723,3.25297 12.8443,7.42323 18.516,12.51078 5.7548,5.00447 10.6757,11.00964 14.7627,18.01553 4.1701,7.00617 7.4229,14.97136 9.7584,23.89559 2.4186,8.92447 3.628,18.93309 3.6281,30.02588 m -49.2924,0 c -2e-4,-5.50465 -0.2921,-11.1345 -0.8758,-16.88956 -0.5006,-5.75484 -1.3763,-11.34299 -2.6273,-16.76445 -1.1678,-5.42121 -2.7942,-10.50892 -4.8792,-15.26315 -2.0018,-4.75395 -4.5457,-8.88251 -7.6315,-12.38568 -3.0027,-3.58626 -6.5892,-6.38034 -10.7593,-8.38222 -4.087,-2.08497 -8.7994,-3.12753 -14.1372,-3.1277 -4.921,1.7e-4 -9.3415,1.04273 -13.2614,3.1277 -3.8367,2.00188 -7.2564,4.75425 -10.2589,8.25712 -2.9192,3.50316 -5.4214,7.63172 -7.5064,12.38567 -2.0018,4.75423 -3.6699,9.84195 -5.0043,15.26316 -1.2512,5.33805 -2.1686,10.92619 -2.7524,16.76444 -0.5839,5.75507 -0.8758,11.42662 -0.8758,17.01467 0,5.50483 0.2919,11.13467 0.8758,16.88956 0.5838,5.75502 1.5012,11.34317 2.7524,16.76444 1.3344,5.33799 3.0025,10.384 5.0043,15.13805 2.085,4.75413 4.5872,8.92439 7.5064,12.51078 3.0025,3.50305 6.4222,6.29712 10.2589,8.38223 3.9199,2.08515 8.3404,3.12771 13.2614,3.12769 4.6706,2e-5 8.9243,-1.04254 12.761,-3.12769 3.9199,-2.16852 7.3812,-5.04599 10.384,-8.63244 3.0858,-3.6698 5.7131,-7.88176 7.8817,-12.63589 2.2519,-4.83746 4.0868,-9.92517 5.5048,-15.26316 1.5011,-5.42127 2.5854,-10.96772 3.2528,-16.63934 0.7505,-5.67147 1.1258,-11.17621 1.126,-16.51423"
           style="font-family:Aclonica;-inkscape-font-specification:Aclonica Bold"
           id="path3020" />
      </g>
    </g>
  </g>
</svg>
