<?xml version="1.0" encoding="UTF-8" standalone="no"?>
<!-- Created with Inkscape (http://www.inkscape.org/) -->

<svg
   xmlns:dc="http://purl.org/dc/elements/1.1/"
   xmlns:cc="http://creativecommons.org/ns#"
   xmlns:rdf="http://www.w3.org/1999/02/22-rdf-syntax-ns#"
   xmlns:svg="http://www.w3.org/2000/svg"
   xmlns="http://www.w3.org/2000/svg"
   xmlns:sodipodi="http://sodipodi.sourceforge.net/DTD/sodipodi-0.dtd"
   xmlns:inkscape="http://www.inkscape.org/namespaces/inkscape"
   width="91mm"
   height="14.5mm"
   viewBox="0 0 91 14.5"
   version="1.1"
   id="svg8"
   inkscape:version="0.92.2 5c3e80d, 2017-08-06"
   sodipodi:docname="space-bar.svg">
  <defs
     id="defs2">
    <inkscape:path-effect
       effect="spiro"
       id="path-effect5302"
       is_visible="true" />
    <inkscape:path-effect
       is_visible="true"
       id="path-effect5298"
       effect="spiro" />
    <inkscape:path-effect
       effect="spiro"
       id="path-effect5294"
       is_visible="true" />
    <inkscape:path-effect
       is_visible="true"
       id="path-effect5290"
       effect="spiro" />
    <inkscape:path-effect
       is_visible="true"
       id="path-effect5286"
       effect="spiro" />
    <inkscape:path-effect
       effect="spiro"
       id="path-effect5282"
       is_visible="true" />
    <inkscape:path-effect
       is_visible="true"
       id="path-effect5278"
       effect="spiro" />
    <inkscape:path-effect
       effect="spiro"
       id="path-effect5274"
       is_visible="true" />
    <inkscape:path-effect
       is_visible="true"
       id="path-effect5266"
       effect="spiro" />
    <inkscape:path-effect
       is_visible="true"
       id="path-effect5246"
       effect="spiro" />
    <inkscape:path-effect
       effect="spiro"
       id="path-effect5242"
       is_visible="true" />
    <inkscape:path-effect
       effect="spiro"
       id="path-effect5238"
       is_visible="true" />
    <inkscape:path-effect
       effect="spiro"
       id="path-effect5234"
       is_visible="true" />
    <inkscape:path-effect
       effect="spiro"
       id="path-effect5230"
       is_visible="true" />
    <inkscape:path-effect
       effect="spiro"
       id="path-effect5226"
       is_visible="true" />
    <inkscape:path-effect
       effect="spiro"
       id="path-effect5204"
       is_visible="true" />
    <inkscape:path-effect
       is_visible="true"
       id="path-effect5200"
       effect="spiro" />
    <inkscape:path-effect
       effect="spiro"
       id="path-effect5196"
       is_visible="true" />
    <inkscape:path-effect
       is_visible="true"
       id="path-effect5192"
       effect="spiro" />
    <inkscape:path-effect
       effect="spiro"
       id="path-effect5184"
       is_visible="true" />
    <inkscape:path-effect
       effect="spiro"
       id="path-effect5164"
       is_visible="true" />
    <inkscape:path-effect
       is_visible="true"
       id="path-effect5160"
       effect="spiro" />
    <inkscape:path-effect
       is_visible="true"
       id="path-effect5156"
       effect="spiro" />
    <inkscape:path-effect
       is_visible="true"
       id="path-effect5152"
       effect="spiro" />
    <inkscape:path-effect
       is_visible="true"
       id="path-effect5148"
       effect="spiro" />
    <inkscape:path-effect
       is_visible="true"
       id="path-effect5144"
       effect="spiro" />
    <inkscape:path-effect
       is_visible="true"
       id="path-effect5140"
       effect="spiro" />
    <inkscape:path-effect
       is_visible="true"
       id="path-effect5118"
       effect="spiro" />
    <inkscape:path-effect
       effect="spiro"
       id="path-effect5114"
       is_visible="true" />
    <inkscape:path-effect
       is_visible="true"
       id="path-effect5110"
       effect="spiro" />
    <inkscape:path-effect
       effect="spiro"
       id="path-effect5106"
       is_visible="true" />
    <inkscape:path-effect
       is_visible="true"
       id="path-effect5092"
       effect="spiro" />
    <inkscape:path-effect
       is_visible="true"
       id="path-effect5072"
       effect="spiro" />
    <inkscape:path-effect
       effect="spiro"
       id="path-effect5068"
       is_visible="true" />
    <inkscape:path-effect
       effect="spiro"
       id="path-effect5064"
       is_visible="true" />
    <inkscape:path-effect
       effect="spiro"
       id="path-effect5060"
       is_visible="true" />
    <inkscape:path-effect
       effect="spiro"
       id="path-effect5056"
       is_visible="true" />
    <inkscape:path-effect
       effect="spiro"
       id="path-effect5052"
       is_visible="true" />
    <inkscape:path-effect
       effect="spiro"
       id="path-effect5048"
       is_visible="true" />
    <inkscape:path-effect
       is_visible="true"
       id="path-effect5012"
       effect="spiro" />
    <inkscape:path-effect
       is_visible="true"
       id="path-effect4994"
       effect="spiro" />
    <inkscape:path-effect
       effect="spiro"
       id="path-effect4990"
       is_visible="true" />
    <inkscape:path-effect
       effect="spiro"
       id="path-effect4986"
       is_visible="true" />
    <inkscape:path-effect
       effect="spiro"
       id="path-effect4982"
       is_visible="true" />
    <inkscape:path-effect
       effect="spiro"
       id="path-effect4978"
       is_visible="true" />
    <inkscape:path-effect
       effect="spiro"
       id="path-effect4974"
       is_visible="true" />
    <inkscape:path-effect
       effect="spiro"
       id="path-effect4970"
       is_visible="true" />
    <inkscape:path-effect
       effect="spiro"
       id="path-effect4966"
       is_visible="true" />
    <inkscape:path-effect
       effect="spiro"
       id="path-effect4948"
       is_visible="true" />
    <inkscape:path-effect
       effect="spiro"
       id="path-effect4942"
       is_visible="true" />
    <inkscape:path-effect
       is_visible="true"
       id="path-effect4937"
       effect="spiro" />
    <inkscape:path-effect
       is_visible="true"
       id="path-effect4927"
       effect="spiro" />
    <inkscape:path-effect
       effect="spiro"
       id="path-effect4889"
       is_visible="true" />
    <inkscape:path-effect
       is_visible="true"
       id="path-effect4847"
       effect="spiro" />
    <inkscape:path-effect
       is_visible="true"
       id="path-effect4843"
       effect="spiro" />
    <inkscape:path-effect
       effect="spiro"
       id="path-effect4839"
       is_visible="true" />
    <inkscape:path-effect
       is_visible="true"
       id="path-effect4833"
       effect="spiro" />
    <inkscape:path-effect
       effect="spiro"
       id="path-effect4829"
       is_visible="true" />
    <inkscape:path-effect
       effect="spiro"
       id="path-effect4825"
       is_visible="true" />
    <inkscape:path-effect
       effect="spiro"
       id="path-effect4821"
       is_visible="true" />
    <inkscape:path-effect
       effect="spiro"
       id="path-effect4817"
       is_visible="true" />
    <inkscape:path-effect
       effect="spiro"
       id="path-effect4813"
       is_visible="true" />
    <inkscape:path-effect
       effect="spiro"
       id="path-effect4809"
       is_visible="true" />
    <inkscape:path-effect
       is_visible="true"
       id="path-effect4787"
       effect="spiro" />
    <inkscape:path-effect
       is_visible="true"
       id="path-effect4783"
       effect="spiro" />
    <inkscape:path-effect
       effect="spiro"
       id="path-effect4779"
       is_visible="true" />
    <inkscape:path-effect
       is_visible="true"
       id="path-effect4775"
       effect="spiro" />
    <inkscape:path-effect
       effect="spiro"
       id="path-effect4771"
       is_visible="true" />
    <inkscape:path-effect
       is_visible="true"
       id="path-effect4767"
       effect="spiro" />
    <inkscape:path-effect
       is_visible="true"
       id="path-effect4763"
       effect="spiro" />
    <inkscape:path-effect
       is_visible="true"
       id="path-effect4759"
       effect="spiro" />
    <inkscape:path-effect
       is_visible="true"
       id="path-effect4755"
       effect="spiro" />
    <inkscape:path-effect
       is_visible="true"
       id="path-effect4751"
       effect="spiro" />
    <inkscape:path-effect
       is_visible="true"
       id="path-effect4747"
       effect="spiro" />
    <inkscape:path-effect
       is_visible="true"
       id="path-effect4743"
       effect="spiro" />
    <inkscape:path-effect
       effect="spiro"
       id="path-effect4735"
       is_visible="true" />
    <inkscape:path-effect
       effect="spiro"
       id="path-effect4731"
       is_visible="true" />
    <inkscape:path-effect
       is_visible="true"
       id="path-effect4720"
       effect="spiro" />
    <inkscape:path-effect
       effect="spiro"
       id="path-effect4716"
       is_visible="true" />
    <inkscape:path-effect
       is_visible="true"
       id="path-effect4706"
       effect="spiro" />
    <inkscape:path-effect
       effect="spiro"
       id="path-effect4702"
       is_visible="true" />
    <inkscape:path-effect
       effect="spiro"
       id="path-effect4696"
       is_visible="true" />
    <inkscape:path-effect
       is_visible="true"
       id="path-effect4692"
       effect="spiro" />
    <inkscape:path-effect
       effect="spiro"
       id="path-effect4688"
       is_visible="true" />
    <inkscape:path-effect
       effect="spiro"
       id="path-effect4684"
       is_visible="true" />
    <inkscape:path-effect
       effect="spiro"
       id="path-effect4678"
       is_visible="true" />
    <inkscape:path-effect
       effect="spiro"
       id="path-effect4674"
       is_visible="true" />
    <inkscape:path-effect
       effect="spiro"
       id="path-effect4670"
       is_visible="true" />
    <inkscape:path-effect
       effect="spiro"
       id="path-effect4666"
       is_visible="true" />
    <inkscape:path-effect
       effect="spiro"
       id="path-effect4662"
       is_visible="true" />
    <inkscape:path-effect
       effect="spiro"
       id="path-effect4658"
       is_visible="true" />
    <inkscape:path-effect
       effect="spiro"
       id="path-effect4654"
       is_visible="true" />
    <inkscape:path-effect
       effect="spiro"
       id="path-effect4650"
       is_visible="true" />
    <inkscape:path-effect
       effect="spiro"
       id="path-effect4646"
       is_visible="true" />
    <inkscape:path-effect
       is_visible="true"
       id="path-effect4642"
       effect="spiro" />
    <inkscape:path-effect
       effect="spiro"
       id="path-effect4638"
       is_visible="true" />
    <inkscape:path-effect
       is_visible="true"
       id="path-effect4632"
       effect="spiro" />
    <inkscape:path-effect
       effect="spiro"
       id="path-effect4628"
       is_visible="true" />
    <inkscape:path-effect
       effect="spiro"
       id="path-effect4624"
       is_visible="true" />
    <inkscape:path-effect
       effect="spiro"
       id="path-effect4620"
       is_visible="true" />
    <inkscape:path-effect
       effect="spiro"
       id="path-effect4616"
       is_visible="true" />
    <inkscape:path-effect
       effect="spiro"
       id="path-effect4612"
       is_visible="true" />
    <inkscape:path-effect
       effect="spiro"
       id="path-effect4608"
       is_visible="true" />
    <inkscape:path-effect
       is_visible="true"
       id="path-effect4584"
       effect="spiro" />
    <inkscape:path-effect
       effect="spiro"
       id="path-effect4580"
       is_visible="true" />
    <inkscape:path-effect
       is_visible="true"
       id="path-effect4569"
       effect="spiro" />
    <inkscape:path-effect
       is_visible="true"
       id="path-effect4565"
       effect="spiro" />
    <inkscape:path-effect
       is_visible="true"
       id="path-effect4561"
       effect="spiro" />
    <inkscape:path-effect
       is_visible="true"
       id="path-effect4557"
       effect="spiro" />
    <inkscape:path-effect
       is_visible="true"
       id="path-effect4553"
       effect="spiro" />
    <inkscape:path-effect
       is_visible="true"
       id="path-effect4549"
       effect="spiro" />
    <inkscape:path-effect
       effect="spiro"
       id="path-effect4545"
       is_visible="true" />
  </defs>
  <sodipodi:namedview
     id="base"
     pagecolor="#ffffff"
     bordercolor="#666666"
     borderopacity="1.0"
     inkscape:pageopacity="0.0"
     inkscape:pageshadow="2"
     inkscape:zoom="3.238549"
     inkscape:cx="119.723"
     inkscape:cy="109.04352"
     inkscape:document-units="mm"
     inkscape:current-layer="layer1"
     showgrid="false"
     inkscape:window-width="2560"
     inkscape:window-height="1440"
     inkscape:window-x="0"
     inkscape:window-y="0"
     inkscape:window-maximized="0"
     inkscape:snap-global="false" />
  <metadata
     id="metadata5">
    <rdf:RDF>
      <cc:Work
         rdf:about="">
        <dc:format>image/svg+xml</dc:format>
        <dc:type
           rdf:resource="http://purl.org/dc/dcmitype/StillImage" />
        <dc:title></dc:title>
      </cc:Work>
    </rdf:RDF>
  </metadata>
  <g
     inkscape:label="Layer 1"
     inkscape:groupmode="layer"
     id="layer1"
     transform="translate(-51.264263,-89.873581)">
    <rect
       rx="1.4699793"
       ry="1.4699793"
       y="89.873581"
       x="51.264263"
       height="14.5"
       width="91"
       id="rect5206"
       style="opacity:1;fill:#333333;fill-opacity:1;fill-rule:nonzero;stroke:none;stroke-width:0.26458332;stroke-linecap:butt;stroke-linejoin:round;stroke-miterlimit:4;stroke-dasharray:none;stroke-dashoffset:0;stroke-opacity:1" />
    <rect
       y="94.717171"
       x="53.716938"
       height="3.4130111"
       width="4.9221344"
       id="rect5208"
       style="opacity:1;fill:#ffffff;fill-opacity:1;fill-rule:nonzero;stroke:none;stroke-width:0.26458332;stroke-linecap:butt;stroke-linejoin:round;stroke-miterlimit:4;stroke-dasharray:none;stroke-dashoffset:0;stroke-opacity:1" />
    <path
       style="opacity:1;fill:#efcc0c;fill-opacity:1;fill-rule:nonzero;stroke:none;stroke-width:0.26458332;stroke-linecap:butt;stroke-linejoin:round;stroke-miterlimit:4;stroke-dasharray:none;stroke-dashoffset:0;stroke-opacity:1"
       d="m 64.083836,97.251083 a 5.5191154,5.5191154 0 0 1 -5.519116,5.519117 5.5191154,5.5191154 0 0 1 -5.519115,-5.519117 5.5191154,5.5191154 0 0 1 5.519115,-5.519115 5.5191154,5.5191154 0 0 1 5.519116,5.519115 z"
       id="circle5210" />
    <path
       style="opacity:1;fill:#5c5ce4;fill-opacity:1;fill-rule:nonzero;stroke:none;stroke-width:0.5;stroke-linecap:butt;stroke-linejoin:round;stroke-miterlimit:4;stroke-dasharray:none;stroke-dashoffset:0;stroke-opacity:1"
       d="m 81.412771,95.408478 a 2.2876189,2.2876189 0 0 1 -2.287618,2.287619 2.2876189,2.2876189 0 0 1 -2.287619,-2.287619 2.2876189,2.2876189 0 0 1 2.287619,-2.287619 2.2876189,2.2876189 0 0 1 2.287618,2.287619 z"
       id="circle5218" />
    <path
       style="opacity:1;fill:#ff0000;fill-opacity:1;fill-rule:nonzero;stroke:none;stroke-width:0.49999991;stroke-linecap:butt;stroke-linejoin:round;stroke-miterlimit:4;stroke-dasharray:none;stroke-dashoffset:0;stroke-opacity:1"
       d="m 87.182654,98.520584 a 1.3638593,1.3638593 0 0 1 -1.36386,1.363859 1.3638593,1.3638593 0 0 1 -1.363859,-1.363859 1.3638593,1.3638593 0 0 1 1.363859,-1.363859 1.3638593,1.3638593 0 0 1 1.36386,1.363859 z"
       id="circle5220" />
    <path
       style="opacity:1;fill:#ffffff;fill-opacity:1;fill-rule:nonzero;stroke:none;stroke-width:0.49999997;stroke-linecap:butt;stroke-linejoin:round;stroke-miterlimit:4;stroke-dasharray:none;stroke-dashoffset:0;stroke-opacity:1"
       d="m 91.938633,93.778067 c -0.03153,0.574866 -0.289718,1.134256 -0.706722,1.53121 -0.354051,0.337028 -0.818729,0.555883 -1.304055,0.614186 0.543371,0.10956 1.045762,0.412215 1.396606,0.841359 0.355163,0.434427 0.552241,0.995341 0.54686,1.556446 -0.03143,-0.569949 0.165803,-1.149311 0.538456,-1.581699 0.371743,-0.431332 0.913886,-0.711644 1.480744,-0.765609 -0.499759,-0.09814 -0.966354,-0.358369 -1.312479,-0.731984 -0.368755,-0.398043 -0.597999,-0.922888 -0.63941,-1.463909 z"
       id="path5224"
       inkscape:connector-curvature="0"
       inkscape:path-effect="#path-effect5226"
       inkscape:original-d="m 91.938633,93.778067 c 0,0 -0.481613,1.014436 -0.706722,1.53121 -0.225111,0.516782 -1.304055,0.614186 -1.304055,0.614186 0,0 1.004733,0.605009 1.396606,0.841359 0.391863,0.236465 0.54686,1.556446 0.54686,1.556446 0,0 0.359722,-1.055233 0.538456,-1.581699 0.178728,-0.526496 1.480744,-0.765609 1.480744,-0.765609 0,0 -0.930323,-0.508372 -1.312479,-0.731984 -0.382157,-0.223651 -0.63941,-1.463909 -0.63941,-1.463909 z"
       sodipodi:nodetypes="csccccccc" />
    <path
       style="opacity:1;fill:#ffffff;fill-opacity:1;fill-rule:nonzero;stroke:none;stroke-width:0.49999997;stroke-linecap:butt;stroke-linejoin:round;stroke-miterlimit:4;stroke-dasharray:none;stroke-dashoffset:0;stroke-opacity:1"
       d="m 93.915432,97.592146 c -0.016,0.291659 -0.146989,0.575466 -0.358555,0.776862 -0.179628,0.170993 -0.415384,0.282032 -0.661616,0.311613 0.27568,0.05558 0.53057,0.209136 0.708571,0.426862 0.180194,0.220407 0.280182,0.50499 0.27745,0.789668 -0.01594,-0.289164 0.08412,-0.583103 0.273187,-0.802477 0.188604,-0.218839 0.463661,-0.361059 0.751259,-0.388442 -0.253553,-0.04979 -0.490281,-0.18181 -0.665889,-0.371362 -0.187092,-0.201948 -0.3034,-0.468233 -0.324407,-0.742724 z"
       id="path5228"
       inkscape:connector-curvature="0"
       inkscape:path-effect="#path-effect5230"
       inkscape:original-d="m 93.915432,97.592146 c 0,0 -0.244346,0.514669 -0.358555,0.776862 -0.11421,0.262187 -0.661616,0.311613 -0.661616,0.311613 0,0 0.509754,0.306953 0.708571,0.426862 0.198813,0.119977 0.27745,0.789668 0.27745,0.789668 0,0 0.182506,-0.535377 0.273187,-0.802477 0.09068,-0.267122 0.751259,-0.388442 0.751259,-0.388442 0,0 -0.472002,-0.257922 -0.665889,-0.371362 -0.193887,-0.11347 -0.324407,-0.742724 -0.324407,-0.742724 z"
       sodipodi:nodetypes="csccccccc" />
    <path
       style="opacity:1;fill:#5c5ce4;fill-opacity:1;fill-rule:nonzero;stroke:none;stroke-width:0.49999994;stroke-linecap:butt;stroke-linejoin:round;stroke-miterlimit:4;stroke-dasharray:none;stroke-dashoffset:0;stroke-opacity:1"
       d="m 130.59962,97.120941 a 2.0105672,2.0105672 0 0 1 -2.01057,2.010567 2.0105672,2.0105672 0 0 1 -2.01057,-2.010567 2.0105672,2.0105672 0 0 1 2.01057,-2.010567 2.0105672,2.0105672 0 0 1 2.01057,2.010567 z"
       id="circle5248" />
    <path
       style="opacity:1;fill:#f0ce3f;fill-opacity:1;fill-rule:nonzero;stroke:none;stroke-width:0.5;stroke-linecap:butt;stroke-linejoin:round;stroke-miterlimit:4;stroke-dasharray:none;stroke-dashoffset:0;stroke-opacity:1"
       d="m 104.41709,93.499727 a 4.2507423,4.2507423 0 0 0 -2.99052,1.232483 c 0.9436,-0.243458 1.91731,-0.370035 2.89182,-0.37052 1.06573,-5.29e-4 2.13118,0.148299 3.15691,0.4377 a 4.2507423,4.2507423 0 0 0 -3.05821,-1.299663 z m -0.0543,1.523938 c -1.23632,-0.0018 -2.47157,0.212269 -3.63699,0.624768 a 4.2507423,4.2507423 0 0 0 -0.55965,2.101681 4.2507423,4.2507423 0 0 0 0.12557,1.005623 c 0.23709,-0.132126 0.4804,-0.253011 0.73174,-0.355534 1.04761,-0.427322 2.19035,-0.584242 3.32176,-0.58446 1.10823,-2.14e-4 2.2236,0.148829 3.2675,0.520898 0.31957,0.113901 0.62999,0.251689 0.93224,0.40566 a 4.2507423,4.2507423 0 0 0 0.12248,-0.992187 4.2507423,4.2507423 0 0 0 -0.52607,-2.038636 c -1.20574,-0.450213 -2.49152,-0.685901 -3.77858,-0.687813 z m 0,3.864364 c -0.96685,-0.0037 -1.94805,0.04773 -2.86701,0.348299 -0.30842,0.100877 -0.60679,0.231066 -0.89245,0.384989 a 4.2507423,4.2507423 0 0 0 0.76016,1.085723 c 0.33225,-0.10844 0.66779,-0.20694 1.00717,-0.29042 0.56941,-0.14007 1.14914,-0.24493 1.73478,-0.2744 0.24278,-0.0122 0.49051,-0.0119 0.72192,-0.0863 0.26449,-0.08505 0.49065,-0.262334 0.75086,-0.359672 0.16475,-0.06163 0.34068,-0.09007 0.51677,-0.08888 0.0587,3.96e-4 0.11746,0.0046 0.17569,0.01137 0.10704,0.01252 0.21327,0.03531 0.31265,0.077 0.0994,0.04169 0.19206,0.102345 0.26303,0.183451 0.0831,0.09499 0.13375,0.213671 0.18345,0.329701 0.0497,0.11603 0.10121,0.2342 0.18552,0.32814 0.0684,0.0762 0.15752,0.13199 0.25476,0.16382 a 4.2507423,4.2507423 0 0 0 0.76068,-1.085728 c -0.24568,-0.122904 -0.49949,-0.229229 -0.75964,-0.317293 -0.99442,-0.336621 -2.05849,-0.405787 -3.10834,-0.409794 z m 1.66191,1.100191 a 0.52303875,0.31699319 4.8861239 0 0 -0.45888,0.2744 0.52303875,0.31699319 4.8861239 0 0 0.49454,0.36019 0.52303875,0.31699319 4.8861239 0 0 0.54777,-0.2713 0.52303875,0.31699319 4.8861239 0 0 -0.49403,-0.36019 0.52303875,0.31699319 4.8861239 0 0 -0.0889,-0.0031 0.52303875,0.31699319 4.8861239 0 1 -5.3e-4,0 z m -1.58543,0.79737 c -0.81532,0.0164 -1.62712,0.18713 -2.38073,0.49867 a 4.2507423,4.2507423 0 0 0 2.35851,0.71676 4.2507423,4.2507423 0 0 0 2.46393,-0.79375 c -0.7781,-0.29174 -1.6108,-0.43836 -2.44171,-0.42168 z"
       id="circle5250"
       inkscape:connector-curvature="0" />
    <path
       style="opacity:1;fill:#5c5ce4;fill-opacity:1;fill-rule:nonzero;stroke:none;stroke-width:0.49999997;stroke-linecap:butt;stroke-linejoin:round;stroke-miterlimit:4;stroke-dasharray:none;stroke-dashoffset:0;stroke-opacity:1"
       d="m 134.41243,94.867958 a 1.4906437,1.4906437 0 0 1 -1.49065,1.490644 1.4906437,1.4906437 0 0 1 -1.49064,-1.490644 1.4906437,1.4906437 0 0 1 1.49064,-1.490644 1.4906437,1.4906437 0 0 1 1.49065,1.490644 z"
       id="circle5270" />
    <path
       inkscape:connector-curvature="0"
       d="m 121.15405,92.19902 a 2.2479657,5.4865611 68.955956 0 0 -1.11621,0.06149 c 0.10538,0.07191 0.20915,0.146076 0.31006,0.224276 0.14457,0.112034 0.28273,0.231961 0.41703,0.356051 a 1.6095457,3.928383 68.955956 0 1 0.7829,0.559655 1.6095457,3.928383 68.955956 0 1 -3.08819,2.912484 1.6095457,3.928383 68.955956 0 1 -4.2447,-0.09095 1.6095457,3.928383 68.955956 0 1 0.14831,-0.844393 c 0.01,-0.198626 0.0266,-0.396909 0.0548,-0.593762 0.015,-0.104711 0.0326,-0.208896 0.0527,-0.312643 a 2.2479657,5.4865611 68.955956 0 0 -1.54823,2.57297 2.2479657,5.4865611 68.955956 0 0 5.92781,0.128157 2.2479657,5.4865611 68.955956 0 0 4.31343,-4.068485 2.2479657,5.4865611 68.955956 0 0 -2.0097,-0.904855 z m -3.01325,-0.02119 a 3.0901118,3.0901118 0 0 0 -1.21078,0.204639 3.0901118,3.0901118 0 0 0 -1.77819,3.982186 c 1.02977,-0.0026 2.05871,-0.192153 3.02049,-0.560173 1.0068,-0.385251 1.93738,-0.965968 2.72955,-1.697054 A 3.0901118,3.0901118 0 0 0 118.1408,92.17783 Z m 2.45101,4.825545 c -0.57012,0.313835 -1.16322,0.585659 -1.77663,0.803052 -0.51769,0.183468 -1.04906,0.327318 -1.58699,0.438216 a 3.0901118,3.0901118 0 0 0 1.92133,-0.09457 3.0901118,3.0901118 0 0 0 1.44229,-1.1467 z"
       style="opacity:1;fill:#d6d6d6;fill-opacity:1;fill-rule:nonzero;stroke:none;stroke-width:0.49999994;stroke-linecap:butt;stroke-linejoin:round;stroke-miterlimit:4;stroke-dasharray:none;stroke-dashoffset:0;stroke-opacity:1"
       id="path5216" />
    <path
       style="opacity:1;fill:#ffffff;fill-opacity:1;fill-rule:nonzero;stroke:none;stroke-width:0.49999997;stroke-linecap:butt;stroke-linejoin:round;stroke-miterlimit:4;stroke-dasharray:none;stroke-dashoffset:0;stroke-opacity:1"
       d="m 137.35386,97.590839 c -0.0235,0.428671 -0.21604,0.845802 -0.52699,1.141807 -0.26401,0.251319 -0.61052,0.414517 -0.97242,0.457992 0.40518,0.0817 0.77981,0.307385 1.04143,0.627391 0.26484,0.323951 0.4118,0.742221 0.40779,1.160631 -0.0234,-0.42501 0.12364,-0.85703 0.40152,-1.179459 0.2772,-0.321639 0.68147,-0.530665 1.10417,-0.570908 -0.37266,-0.07318 -0.7206,-0.267232 -0.9787,-0.545833 -0.27498,-0.296816 -0.44592,-0.688188 -0.4768,-1.091621 z"
       id="path5292"
       inkscape:connector-curvature="0"
       inkscape:path-effect="#path-effect5294"
       inkscape:original-d="m 137.35386,97.590839 c 0,0 -0.35913,0.756454 -0.52699,1.141807 -0.16787,0.385359 -0.97242,0.457992 -0.97242,0.457992 0,0 0.74922,0.451148 1.04143,0.627391 0.29221,0.176331 0.40779,1.160631 0.40779,1.160631 0,0 0.26824,-0.78688 0.40152,-1.179459 0.13328,-0.392604 1.10417,-0.570908 1.10417,-0.570908 0,0 -0.69373,-0.379088 -0.9787,-0.545833 -0.28496,-0.166774 -0.4768,-1.091621 -0.4768,-1.091621 z"
       sodipodi:nodetypes="csccccccc" />
    <path
       style="opacity:1;fill:#ffffff;fill-opacity:1;fill-rule:nonzero;stroke:none;stroke-width:0.49999994;stroke-linecap:butt;stroke-linejoin:round;stroke-miterlimit:4;stroke-dasharray:none;stroke-dashoffset:0;stroke-opacity:1"
       d="m 68.252332,91.67041 c -0.03333,0.607642 -0.306237,1.198926 -0.747016,1.618513 -0.374238,0.356245 -0.865411,0.587578 -1.378408,0.649205 0.574352,0.115803 1.105387,0.435713 1.476235,0.889323 0.375416,0.459197 0.583731,1.052097 0.57804,1.645197 -0.03322,-0.602444 0.175257,-1.214837 0.569156,-1.671878 0.392938,-0.455926 0.965991,-0.752222 1.56517,-0.809266 -0.528253,-0.103739 -1.021451,-0.378801 -1.387311,-0.773718 -0.38978,-0.420738 -0.632094,-0.975508 -0.675866,-1.547376 z"
       id="path5300"
       inkscape:connector-curvature="0"
       inkscape:path-effect="#path-effect5302"
       inkscape:original-d="m 68.252332,91.67041 c 0,0 -0.509074,1.072276 -0.747016,1.618513 -0.237947,0.546248 -1.378408,0.649205 -1.378408,0.649205 0,0 1.062019,0.639506 1.476235,0.889323 0.414205,0.249963 0.57804,1.645197 0.57804,1.645197 0,0 0.380232,-1.115403 0.569156,-1.671878 0.188918,-0.556523 1.56517,-0.809266 1.56517,-0.809266 0,0 -0.983366,-0.537357 -1.387311,-0.773718 -0.403946,-0.236403 -0.675866,-1.547376 -0.675866,-1.547376 z"
       sodipodi:nodetypes="csccccccc" />
    <path
       sodipodi:nodetypes="csccccccc"
       inkscape:original-d="m 73.557699,97.562881 c 0,0 -0.313106,0.659504 -0.459453,0.995468 -0.146349,0.33597 -0.847791,0.399294 -0.847791,0.399294 0,0 0.653196,0.393329 0.90796,0.546979 0.254757,0.15374 0.355524,1.011878 0.355524,1.011878 0,0 0.233862,-0.686028 0.35006,-1.028288 0.116194,-0.34229 0.962659,-0.49774 0.962659,-0.49774 0,0 -0.60482,-0.330502 -0.853267,-0.475876 -0.248447,-0.1454 -0.415692,-0.951715 -0.415692,-0.951715 z"
       inkscape:path-effect="#path-effect5298"
       inkscape:connector-curvature="0"
       id="path5296"
       d="m 73.557699,97.562881 c -0.0205,0.373731 -0.188351,0.737401 -0.459453,0.995468 -0.230175,0.219109 -0.532271,0.36139 -0.847791,0.399294 0.353256,0.07122 0.67987,0.267986 0.90796,0.546979 0.2309,0.282429 0.359024,0.647088 0.355524,1.011878 -0.02043,-0.37053 0.107793,-0.747185 0.35006,-1.028288 0.241677,-0.280418 0.594134,-0.462655 0.962659,-0.49774 -0.324903,-0.06381 -0.628245,-0.232982 -0.853267,-0.475876 -0.239735,-0.258775 -0.38877,-0.599987 -0.415692,-0.951715 z"
       style="opacity:1;fill:#ffffff;fill-opacity:1;fill-rule:nonzero;stroke:none;stroke-width:0.49999994;stroke-linecap:butt;stroke-linejoin:round;stroke-miterlimit:4;stroke-dasharray:none;stroke-dashoffset:0;stroke-opacity:1" />
  </g>
</svg>
