<?xml version="1.0" encoding="UTF-8" standalone="no"?>
<!-- Created with Inkscape (http://www.inkscape.org/) -->

<svg
   xmlns:dc="http://purl.org/dc/elements/1.1/"
   xmlns:cc="http://creativecommons.org/ns#"
   xmlns:rdf="http://www.w3.org/1999/02/22-rdf-syntax-ns#"
   xmlns:svg="http://www.w3.org/2000/svg"
   xmlns="http://www.w3.org/2000/svg"
   xmlns:sodipodi="http://sodipodi.sourceforge.net/DTD/sodipodi-0.dtd"
   xmlns:inkscape="http://www.inkscape.org/namespaces/inkscape"
   width="264.58334mm"
   height="138.87494mm"
   viewBox="0 0 264.58336 138.87494"
   version="1.1"
   id="svg6914"
   inkscape:version="0.92.2 5c3e80d, 2017-08-06"
   sodipodi:docname="elymas-logo-clean.svg"
   inkscape:export-filename="/home/seb/work/elymas-logo/elymas-logo.png"
   inkscape:export-xdpi="227.66083"
   inkscape:export-ydpi="227.66083">
  <defs
     id="defs6908">
    <inkscape:path-effect
       is_visible="true"
       id="path-effect6745"
       effect="spiro" />
    <inkscape:path-effect
       effect="spiro"
       id="path-effect5799"
       is_visible="true" />
    <inkscape:path-effect
       effect="spiro"
       id="path-effect5783"
       is_visible="true" />
    <inkscape:path-effect
       is_visible="true"
       id="path-effect6641"
       effect="spiro" />
    <inkscape:path-effect
       is_visible="true"
       id="path-effect5791"
       effect="spiro" />
    <inkscape:path-effect
       effect="spiro"
       id="path-effect5771"
       is_visible="true" />
    <inkscape:path-effect
       effect="spiro"
       id="path-effect5775"
       is_visible="true" />
    <inkscape:path-effect
       is_visible="true"
       id="path-effect5787"
       effect="spiro" />
    <inkscape:path-effect
       is_visible="true"
       id="path-effect6637"
       effect="spiro" />
    <inkscape:path-effect
       is_visible="true"
       id="path-effect5767"
       effect="spiro" />
    <inkscape:path-effect
       is_visible="true"
       id="path-effect5747"
       effect="spiro" />
    <inkscape:path-effect
       is_visible="true"
       id="path-effect5743"
       effect="spiro" />
    <inkscape:path-effect
       effect="spiro"
       id="path-effect6649"
       is_visible="true" />
  </defs>
  <sodipodi:namedview
     id="base"
     pagecolor="#ffffff"
     bordercolor="#666666"
     borderopacity="1.0"
     inkscape:pageopacity="1"
     inkscape:pageshadow="2"
     inkscape:zoom="0.70000001"
     inkscape:cx="373.08071"
     inkscape:cy="281.65887"
     inkscape:document-units="mm"
     inkscape:current-layer="layer1"
     showgrid="false"
     inkscape:window-width="2556"
     inkscape:window-height="1369"
     inkscape:window-x="0"
     inkscape:window-y="32"
     inkscape:window-maximized="0"
     inkscape:snap-global="false"
     showguides="true"
     inkscape:guide-bbox="true" />
  <metadata
     id="metadata6911">
    <rdf:RDF>
      <cc:Work
         rdf:about="">
        <dc:format>image/svg+xml</dc:format>
        <dc:type
           rdf:resource="http://purl.org/dc/dcmitype/StillImage" />
        <dc:title></dc:title>
      </cc:Work>
    </rdf:RDF>
  </metadata>
  <g
     inkscape:label="Layer 1"
     inkscape:groupmode="layer"
     id="layer1"
     transform="translate(-32.332417,24.002438)">
    <path
       style="color:#000000;font-style:normal;font-variant:normal;font-weight:normal;font-stretch:normal;font-size:medium;line-height:normal;font-family:sans-serif;font-variant-ligatures:normal;font-variant-position:normal;font-variant-caps:normal;font-variant-numeric:normal;font-variant-alternates:normal;font-feature-settings:normal;text-indent:0;text-align:start;text-decoration:none;text-decoration-line:none;text-decoration-style:solid;text-decoration-color:#000000;letter-spacing:normal;word-spacing:normal;text-transform:none;writing-mode:lr-tb;direction:ltr;text-orientation:mixed;dominant-baseline:auto;baseline-shift:baseline;text-anchor:start;white-space:normal;shape-padding:0;clip-rule:nonzero;display:inline;overflow:visible;visibility:visible;opacity:1;isolation:auto;mix-blend-mode:normal;color-interpolation:sRGB;color-interpolation-filters:linearRGB;solid-color:#000000;solid-opacity:1;vector-effect:none;fill:#000000;fill-opacity:1;fill-rule:nonzero;stroke:none;stroke-width:1.43727577;stroke-linecap:round;stroke-linejoin:round;stroke-miterlimit:4;stroke-dasharray:none;stroke-dashoffset:0;stroke-opacity:1;color-rendering:auto;image-rendering:auto;shape-rendering:auto;text-rendering:auto;enable-background:accumulate"
       d="m 102.39271,-5.4251095 c -0.67744,-0.02062 -1.35874,0.083961 -2.00046,0.3149972 -0.70842,0.255051 -1.328062,0.6429676 -1.885417,1.0572951 -1.908959,1.4190926 -3.288026,3.25191054 -4.992475,4.46109133 C 92.043689,1.451604 90.106584,2.1562123 88.596745,3.6751148 88.358072,3.9152502 88.127116,4.1810827 87.924751,4.4822379 87.505806,5.1057676 87.281755,5.7613622 87.071064,6.3585258 86.407681,6.1929287 85.747757,6.017877 85.096168,5.8198353 83.633904,5.3753959 82.110897,4.8154643 80.444253,4.6529759 79.740901,4.5844049 79.077691,4.5908457 78.462055,4.5470635 77.867928,4.5047992 77.215774,4.4048981 76.501768,4.4210647 c -1.547396,0.035056 -2.913252,0.611158 -4.182617,1.0225997 -2.006264,0.6502963 -4.287,1.0791627 -6.225989,2.4414567 -0.148933,0.1046371 -0.290148,0.2178963 -0.430951,0.3314322 -0.726702,0.2072453 -1.366307,0.5390201 -1.955723,0.8573401 -1.318291,0.71195 -2.689926,1.5170386 -3.77814,2.7190176 -0.865475,0.955961 -1.526063,2.166098 -1.670855,3.517014 -0.108413,1.01145 0.08469,2.043928 0.552386,2.947279 a 0.71870976,0.71870976 0 0 0 1.19425,0.124171 c 0.583725,-0.708266 1.258438,-1.341946 2.001374,-1.88085 0.59205,-0.429454 1.227454,-0.800301 1.894549,-1.107511 0.333915,-0.153776 0.676233,-0.287315 1.023513,-0.408129 1.036128,0.66551 2.19919,1.133994 3.420232,1.347639 0.505284,0.08841 1.008641,0.133249 1.509245,0.147914 -0.159843,0.119556 -0.319841,0.238398 -0.476604,0.363386 -1.784849,1.423099 -3.268322,3.079631 -4.904826,4.448311 -0.752882,0.629669 -1.579438,1.232454 -2.371153,1.936549 -0.792966,0.705157 -1.555395,1.521072 -2.088112,2.526366 -0.07275,0.137279 -0.118632,0.252058 -0.166172,0.364303 -0.416338,0.471686 -0.729801,0.991237 -0.994296,1.496464 -0.516194,0.986015 -0.93958,2.054918 -1.142208,3.191974 -0.202885,1.138506 -0.184198,2.385998 0.324128,3.526139 0.380966,0.854482 1.016431,1.581269 1.811463,2.074417 a 0.71870976,0.71870976 0 0 0 1.087425,-0.496692 c 0.132583,-0.817345 0.361843,-1.617965 0.68295,-2.381196 0.156,-0.370787 0.335878,-0.728353 0.535039,-1.070988 1.518181,0.147806 3.075349,-0.137166 4.430963,-0.866473 1.584088,-0.852233 2.743265,-2.163442 3.864876,-3.326186 1.19384,-1.237605 2.440261,-2.423839 3.733402,-3.557188 2.527689,-0.136475 5.096184,0.565615 7.186504,1.994983 0.76389,0.522351 1.448525,1.134349 2.088109,1.795031 -8.290472,6.460137 -13.632528,16.529652 -13.632528,27.843929 0,19.478993 15.816212,35.291558 35.295208,35.291558 19.47899,0 35.29156,-15.812565 35.29156,-35.291558 0,-9.108285 -3.47064,-17.402221 -9.14405,-23.664968 1.87639,-0.687673 3.69983,-1.519996 5.44808,-2.488935 2.94224,-1.630676 5.62628,-3.587097 8.63732,-4.503089 2.87672,-0.875131 6.0901,-0.795253 9.28648,-1.480945 0.19146,-0.04109 0.38608,-0.08932 0.58069,-0.138783 0.1926,0.04413 0.39162,0.08185 0.60261,0.100437 0.79173,0.06972 1.53901,-0.0374 2.22963,-0.147002 1.47969,-0.23478 3.01433,-0.544519 4.45105,-1.230771 0.79376,-0.37915 1.59235,-0.891856 2.18946,-1.657158 0.68812,-0.88197 1.01902,-2.006825 0.91942,-3.120755 a 0.71870972,0.71870972 0 0 0 -1.09473,-0.546907 c -0.68516,0.425439 -1.52306,0.62771 -2.32733,0.562427 -0.62167,-0.05046 -1.29465,-0.268704 -2.05067,-0.455605 -0.63283,-0.156445 -1.27631,-0.259747 -1.92286,-0.326867 -0.0456,-0.04804 -0.0899,-0.09829 -0.13695,-0.144258 -0.74649,-0.728876 -1.63946,-1.191264 -2.47798,-1.590506 -1.784,-0.8494 -3.68184,-1.568376 -5.69734,-1.863506 -0.50505,-0.07395 -1.01725,-0.120225 -1.53207,-0.134217 -0.51483,-0.01398 -1.03197,0.0042 -1.54577,0.05843 -1.0276,0.107986 -2.03976,0.357828 -2.99841,0.787034 -0.61916,0.277217 -1.1613,0.598405 -1.68455,0.831777 -1.14404,0.510248 -2.46166,0.741395 -3.82014,1.051817 -1.61657,0.369398 -3.14971,0.817467 -4.64827,0.831777 -1.48597,0.01412 -2.98393,-0.400742 -4.25109,-1.176904 -0.61308,-0.375531 -1.17147,-0.839022 -1.66355,-1.365903 0.0694,-0.309594 0.12932,-0.623442 0.17348,-0.944078 0.41704,-3.028045 -0.48001,-5.9044021 -0.0164,-8.464751 0.16072,-0.8877358 0.49826,-1.8110164 0.72404,-2.835888 0.22727,-1.0317729 0.33249,-2.20171722 -0.0913,-3.3207101 -0.24089,-0.6360397 -0.63651,-1.1968156 -1.13125,-1.6443768 -0.49352,-0.4464658 -1.07666,-0.7739679 -1.69551,-0.9796869 -0.61881,-0.205698 -1.26263,-0.2856417 -1.89729,-0.2638672 -0.63478,0.021784 -1.26103,0.1453746 -1.85255,0.3487796 -0.81612,0.2806463 -1.60854,0.724606 -2.23876,1.3859875 -0.55002,0.5772235 -0.92022,1.26094979 -1.18055,1.96485227 -1.18085,0.43839538 -2.48386,0.56357935 -3.71241,0.32230145 -2.04203,-0.40104233 -3.89203,-1.75921552 -5.94112,-2.92627832 -1.28676,-0.7328784 -2.62068,-1.3515524 -3.95527,-1.9283309 -0.40919,-0.1768403 -0.8499,-0.3649168 -1.34216,-0.4948653 -0.39623,-0.1045964 -0.80199,-0.1620396 -1.20795,-0.1743898 z m -0.0438,1.4371179 c 0.30017,0.00919 0.59782,0.051168 0.88473,0.1269117 0.3615,0.095427 0.73811,0.2520205 1.13947,0.4254744 1.311,0.5665843 2.59522,1.1636189 3.81284,1.8571145 1.94197,1.10605926 3.91085,2.602889 6.37572,3.0869726 1.17964,0.2316731 2.39542,0.1837921 3.55354,-0.103173 -0.13883,0.7418824 -0.2168,1.4665024 -0.32505,2.1556766 -0.35557,2.2637829 -1.08677,4.5612841 -1.28098,7.0276328 -0.0483,0.6137 -0.0576,1.22159 -0.0539,1.825159 -0.48035,-0.549721 -1.04215,-1.027092 -1.6672,-1.408812 -1.2151,-0.74206 -2.52753,-1.0751676 -3.68684,-1.5028597 C 109.79959,9.0219075 108.55685,8.3944529 107.44,7.6020805 105.94184,6.5391845 104.65933,5.1673171 103.69929,3.601159 a 0.71870972,0.71870972 0 0 0 -1.09656,-0.1561293 c -0.76306,0.6944973 -1.5477,1.3646557 -2.35289,2.0086784 -1.700257,1.3599165 -3.492169,2.6056584 -5.359514,3.7251847 a 0.71870972,0.71870972 0 0 0 -0.325044,0.8016443 c 0.540672,2.0303239 0.778317,4.1418629 0.702128,6.2415089 -0.03604,0.993098 -0.147956,1.949124 -0.48665,2.776544 -0.07431,0.181544 -0.198499,0.330766 -0.29765,0.498515 -0.07278,-1.160407 -0.432965,-2.297687 -1.14677,-3.220276 l -9.35e-4,-9.34e-4 c -0.0781,-0.100942 -0.162681,-0.201332 -0.254736,-0.298562 l -9.35e-4,-9.35e-4 c -0.185055,-0.195315 -0.399382,-0.378196 -0.650996,-0.524081 -0.125787,-0.07316 -0.26056,-0.136956 -0.405388,-0.189 -0.432508,-0.1555 -0.878179,-0.17835 -1.299247,-0.114129 -0.134193,0.01968 -0.266684,0.04889 -0.39717,0.08674 -0.01309,0.0037 -0.02445,0.01066 -0.03744,0.01459 -0.14099,0.04296 -0.278082,0.09323 -0.40904,0.154304 -0.410919,0.185905 -0.776049,0.449519 -1.085601,0.766036 -0.0055,-0.46803 0.0037,-0.949809 0,-1.443509 -2.8e-5,-0.0037 3.3e-5,-0.0079 0,-0.01187 -0.0019,-0.247182 -0.0073,-0.497141 -0.0201,-0.750516 -8.8e-5,-0.0019 9.4e-5,-0.0037 0,-0.0055 -0.01295,-0.255269 -0.03356,-0.513777 -0.06482,-0.775165 -0.120637,-1.008473 -0.389434,-1.93151 -0.561516,-2.811236 -0.171526,-0.8769577 -0.246546,-1.733978 -0.06756,-2.4898496 0.03216,-0.1357755 0.07521,-0.27728 0.12417,-0.4245614 0.04901,-0.1475751 0.103967,-0.3013217 0.161611,-0.4629088 0.233489,-0.6545901 0.441179,-1.2515831 0.750516,-1.7119418 0.137671,-0.2049065 0.307387,-0.4030235 0.498514,-0.5952989 1.214652,-1.2219442 3.048217,-1.9152079 4.729525,-3.1079729 1.948563,-1.38235982 3.334329,-3.2263448 5.019868,-4.4793517 0.490712,-0.3647888 0.99443,-0.6709302 1.51472,-0.8582536 0.46626,-0.1678634 0.96966,-0.2461925 1.46908,-0.2309977 z m 21.5239,1.501943 c 0.48107,-0.016427 0.95453,0.044363 1.39512,0.1908248 0.44054,0.1464527 0.84984,0.3795521 1.1842,0.6820373 0.33316,0.3013895 0.59692,0.67944285 0.75143,1.08742531 0.2738,0.72293615 0.22749,1.61091219 0.031,2.50263029 -0.19796,0.8986097 -0.54299,1.8384894 -0.73317,2.888844 -0.54801,3.0267413 0.36313,5.9282239 0.005,8.5250109 -0.32012,2.3243 -1.64535,4.560953 -2.32733,7.150896 -0.3214,1.220617 -0.4741,2.392588 -0.68568,3.540752 -0.23856,-0.291054 -0.51859,-0.548474 -0.83543,-0.759646 -0.10537,-0.07132 -0.21493,-0.137222 -0.3287,-0.197218 -0.5869,-0.309515 -1.27807,-0.46538 -1.97945,-0.349694 -0.17726,0.02926 -0.34625,0.07471 -0.50765,0.133305 -4.7e-4,2.24e-4 -0.001,4.67e-4 -0.002,9.35e-4 -0.0243,0.0088 -0.0454,0.02253 -0.0694,0.03198 -0.13495,0.05281 -0.26723,0.110128 -0.39077,0.178959 -0.29099,0.16212 -0.55026,0.363554 -0.77791,0.577947 -0.7854,0.739708 -1.34876,1.689882 -1.63798,2.7245 -0.0873,-0.358646 -0.18765,-0.715371 -0.1963,-1.081945 -0.043,-1.820176 0.74226,-3.71246 1.07737,-5.830646 0.48354,-3.05629 -0.12197,-6.031085 0.0968,-8.808966 0.177,-2.2478408 0.89001,-4.51034 1.26821,-6.9180698 0.15307,-0.9746074 0.24318,-1.9103696 0.45834,-2.7683235 0.21408,-0.85378963 0.56425,-1.64599095 1.10386,-2.2122849 0.43449,-0.4559753 1.02199,-0.7977091 1.66537,-1.0189474 0.46421,-0.1596335 0.95344,-0.2537566 1.43438,-0.2702589 z M 76.534659,5.8581827 c 0.550708,-0.012547 1.157434,0.074854 1.82516,0.1223468 0.692423,0.049259 1.343862,0.043583 1.945679,0.10226 1.426866,0.1391203 2.860951,0.6526533 4.372524,1.112077 0.65264,0.1983634 1.312284,0.3624346 1.971245,0.5277344 -0.203272,1.0125116 -0.08926,2.0124842 0.08948,2.9262791 0.188168,0.962053 0.44102,1.850352 0.543252,2.705324 0.03286,0.274866 0.04833,0.558763 0.05843,0.846386 -0.357781,-0.08698 -0.714581,-0.17715 -1.06916,-0.276651 -2.176074,-0.610643 -4.346883,-1.430967 -6.606728,-1.395121 -2.580177,0.04095 -5.024941,1.197258 -7.596455,1.412469 -1.005098,0.08411 -2.020676,0.01566 -3.007537,-0.190828 0.05123,-0.04002 0.0982,-0.08555 0.146997,-0.128738 0.05698,-0.04385 0.110955,-0.09178 0.162522,-0.143346 0.0042,-0.0042 0.0088,-0.0069 0.01276,-0.01094 l 9.35e-4,-9.35e-4 c 0.185499,-0.190238 0.337844,-0.405978 0.469298,-0.633647 0.03038,-0.05263 0.06672,-0.101863 0.09404,-0.156127 v -9.35e-4 c 0.02118,-0.04203 0.03459,-0.08762 0.05387,-0.130566 0.113334,-0.252552 0.20107,-0.517176 0.245606,-0.793429 0.0294,-0.182512 0.04268,-0.366696 0.04016,-0.549647 -0.0023,-0.182951 -0.02122,-0.364948 -0.05478,-0.544168 -0.03361,-0.179613 -0.08312,-0.356056 -0.146997,-0.527736 -0.06361,-0.1709276 -0.141042,-0.3368575 -0.233737,-0.4957754 -4.35e-4,-9.349e-4 -0.0014,-9.349e-4 -0.0019,-0.00187 -0.0019,-0.0028 -0.0037,-0.00538 -0.0055,-0.00823 C 69.491395,9.0243738 68.951069,8.5581338 68.311813,8.2904296 69.662958,7.685419 71.210012,7.31464 72.762858,6.811312 74.103139,6.3768836 75.339398,5.8851835 76.534608,5.8581032 Z M 66.96422,9.4664978 c 0.12806,9.35e-4 0.253918,0.010284 0.374349,0.030152 0.125998,0.020709 0.246569,0.051857 0.360647,0.094953 0.09332,0.035248 0.184811,0.078975 0.272084,0.1305656 0.261276,0.1555473 0.488005,0.3797856 0.638214,0.6372986 0.0501,0.08589 0.09305,0.177369 0.127822,0.272084 0.03441,0.09443 0.06186,0.191865 0.08035,0.29126 0.01879,0.0999 0.02917,0.201308 0.03104,0.302212 v 9.35e-4 c 0.0019,0.100302 -0.0053,0.200266 -0.02099,0.29765 v 9.35e-4 c -0.01398,0.08651 -0.0352,0.172956 -0.063,0.257476 -0.05555,0.168809 -0.137451,0.331201 -0.240132,0.476604 -4.4e-4,4.67e-4 -0.0014,9.35e-4 -0.0019,0.0019 -0.05109,0.07186 -0.107108,0.140251 -0.168001,0.202696 -4.67e-4,4.68e-4 -0.0014,0.0014 -0.0019,0.0019 -0.1226,0.125339 -0.268358,0.233649 -0.426388,0.318649 -0.07898,0.04226 -0.160741,0.07876 -0.244694,0.108655 -4.68e-4,2.29e-4 -0.0014,4.68e-4 -0.0019,9.35e-4 -0.08335,0.02959 -0.168964,0.05239 -0.254736,0.06848 l 0.0073,-9.35e-4 c -0.0023,4.67e-4 -0.0049,0.0014 -0.0073,0.0019 -4.68e-4,1.21e-4 -0.0014,9.35e-4 -0.0019,9.35e-4 -0.0092,9.35e-4 -0.01823,0.0019 -0.02739,0.0028 a 0.71870976,0.71870976 0 0 0 -0.0028,9.35e-4 c -0.880375,0.09339 -1.743838,0.280793 -2.577498,0.545084 a 0.71870972,0.71870972 0 0 0 -0.119608,0.05113 c -0.474847,0.149208 -0.944199,0.316498 -1.396943,0.524996 -0.7499,0.345342 -1.468495,0.762497 -2.139242,1.249035 -0.472536,0.342762 -0.854808,0.788045 -1.273685,1.194247 -0.06832,-0.362344 -0.238947,-0.706269 -0.199955,-1.070076 0.104332,-0.973417 0.604024,-1.924685 1.307467,-2.701674 0.89561,-0.98924 2.113979,-1.72691 3.396492,-2.419543 0.595368,-0.321529 1.164873,-0.607025 1.728376,-0.7587297 0.04016,-0.010799 0.08027,-0.015286 0.120519,-0.024636 0.108225,-0.025244 0.216838,-0.048585 0.324128,-0.062997 0.04062,-0.00538 0.0802,-0.00538 0.12052,-0.00912 0.0942,-0.00893 0.188639,-0.018512 0.280302,-0.018278 z m 80.85751,5.4325642 c 0.17065,-0.0037 0.34195,-0.0028 0.51313,0.0019 0.45647,0.01201 0.9137,0.05235 1.36681,0.118696 1.81711,0.266082 3.58777,0.930895 5.30108,1.746638 0.80352,0.382576 1.54976,0.786763 2.10455,1.328463 0.0601,0.05873 0.10806,0.124432 0.16343,0.18626 a 0.71870972,0.71870972 0 0 0 0.073,0.107739 c 0.16362,0.196526 0.29947,0.40063 0.39991,0.611732 0.15142,0.318135 0.23042,0.663234 0.21913,0.986081 a 0.71870972,0.71870972 0 0 0 0,9.35e-4 c -0.0124,0.349881 -0.13179,0.714927 -0.33234,1.036296 -0.20162,0.323217 -0.48844,0.61299 -0.82447,0.85186 -0.49362,0.350877 -1.08984,0.591579 -1.74116,0.772431 a 0.71870972,0.71870972 0 0 0 -0.15613,0.06482 c -0.0141,0.0037 -0.0288,0.0064 -0.0429,0.01005 -1.51795,-0.301264 -3.06165,-0.469568 -4.609,-0.493036 -4.17575,-0.06334 -8.36879,0.874738 -12.09773,2.75828 -1.85134,0.93514 -3.59152,2.093588 -5.5056,2.892497 -0.95704,0.399451 -1.95839,0.707751 -2.98745,0.836339 -0.94062,0.117537 -1.90541,0.07924 -2.82037,-0.164345 -0.79429,-0.622096 -1.61694,-1.208725 -2.46337,-1.762158 0.001,-0.104696 0.009,-0.208751 0.005,-0.314087 0.12804,-0.381365 0.24033,-0.767069 0.33052,-1.154077 0.35729,-1.533128 0.48922,-3.038226 0.85186,-4.415438 0.41775,-1.58649 1.18766,-3.159475 1.75577,-4.858262 0.4254,0.384151 0.88153,0.734425 1.37138,1.034469 1.49366,0.914898 3.23556,1.39714 4.987,1.380511 1.75759,-0.01678 3.38984,-0.509565 4.94774,-0.865561 1.30905,-0.299132 2.72083,-0.535136 4.07578,-1.139468 0.62017,-0.276595 1.16012,-0.596469 1.68364,-0.83086 1.06182,-0.475398 2.23662,-0.703325 3.43119,-0.728601 z m -69.74313,0.73134 c 0.216123,-0.0014 0.431035,0.0033 0.644605,0.01459 0.213318,0.01159 0.425481,0.02954 0.636387,0.0557 1.649412,0.204445 3.290475,0.91192 5.076474,1.436202 0.893512,0.262318 1.832583,0.476627 2.812152,0.528648 0.07014,0.0037 0.137825,0.0019 0.206348,0.0019 0.03618,0.280233 0.08783,0.56104 0.154299,0.841819 0.01276,0.06883 0.02908,0.13754 0.04567,0.206347 v 9.35e-4 c -0.02538,0.244807 -0.0403,0.489235 -0.0338,0.730429 1.49e-4,0.0055 9.35e-4,0.01089 9.35e-4,0.01646 -0.361161,0.34084 -0.764465,0.640645 -1.217079,0.864645 -1.331824,0.659119 -2.936738,0.806715 -4.579783,0.861905 -0.419619,0.01407 -0.847147,0.02342 -1.279164,0.03745 -1.057061,-0.06213 -2.113469,-0.119253 -3.162757,0.0019 -1.303654,0.150433 -2.574268,0.580729 -3.701441,1.252685 -1.610687,1.198202 -3.212338,2.407661 -4.805307,3.629315 -1.220884,0.936304 -2.434536,1.882294 -3.64484,2.832235 0.07417,-0.165182 0.137994,-0.335394 0.180781,-0.513123 0.07116,-0.295552 0.09552,-0.598671 0.07396,-0.89843 -0.01075,-0.150166 -0.03286,-0.299389 -0.06665,-0.44647 -0.03361,-0.146619 -0.07891,-0.290979 -0.135133,-0.431867 v -9.35e-4 C 65.221205,26.4948 65.144044,26.343796 65.056,26.200712 v -9.35e-4 c -0.26466,-0.429866 -0.636276,-0.786843 -1.08012,-1.034469 -0.08402,-0.04686 -0.173591,-0.07951 -0.261128,-0.11778 -0.02894,-0.01183 -0.05655,-0.02763 -0.08582,-0.03833 -0.338198,-0.135334 -0.695427,-0.211901 -1.058208,-0.219128 0.159749,-0.1637 0.310459,-0.332496 0.484822,-0.487562 0.722556,-0.64258 1.536694,-1.236927 2.338284,-1.907332 1.742491,-1.457322 3.219892,-3.105173 4.879261,-4.428219 0.779434,-0.621474 1.618101,-1.16934 2.488019,-1.682724 0.443044,-0.06153 0.881675,-0.129935 1.312948,-0.199958 0.392085,-0.06366 0.781238,-0.125741 1.168686,-0.184432 0.115148,-0.01753 0.22952,-0.03277 0.344215,-0.0493 0.334936,-0.04798 0.667329,-0.0893 0.997945,-0.12417 0.105701,-0.01122 0.211621,-0.02347 0.316826,-0.03286 0.118692,-0.01056 0.237112,-0.02029 0.355168,-0.02828 0.246639,-0.01674 0.492405,-0.0288 0.735907,-0.03198 0.02847,-4.02e-4 0.05741,-0.0023 0.08582,-0.0028 z m 13.074673,0.924902 c 0.138442,7.5e-5 0.270027,0.02099 0.384385,0.06209 0.05485,0.01973 0.111128,0.04642 0.167085,0.07943 0.01683,0.0099 0.03338,0.02454 0.05022,0.03562 0.0395,0.02623 0.07941,0.05176 0.118696,0.084 h 9.35e-4 c 0.111661,0.09171 0.220779,0.206983 0.324128,0.34056 0.604556,0.781387 0.938038,1.788574 0.918516,2.776544 -0.0037,0.198246 -0.02314,0.401298 -0.05113,0.608992 -0.0076,0.05626 -0.01931,0.1147 -0.02828,0.171652 -0.02398,0.152948 -0.04969,0.306953 -0.08126,0.465646 -0.07094,0.357482 -0.153383,0.724337 -0.231914,1.111168 -0.178706,0.880324 -0.297225,1.783544 -0.324128,2.698017 -0.01519,0.517204 0.08295,1.027728 0.127826,1.54303 -0.294523,-0.184199 -0.645185,-0.275109 -0.880165,-0.527732 -0.644329,-0.692778 -1.064799,-1.659449 -1.483684,-2.688893 -0.307686,-0.756167 -0.600479,-1.492799 -0.814428,-2.232371 -0.164383,-0.568247 -0.278437,-1.129357 -0.293083,-1.673595 -0.0058,-0.213551 0.0091,-0.423798 0.03562,-0.629991 a 0.71870972,0.71870972 0 0 0 0.0019,-0.01459 c 0.02033,-0.153411 0.04965,-0.300381 0.08673,-0.441913 0.0023,-0.0084 0.0033,-0.01725 0.0055,-0.02557 0.03922,-0.144679 0.08801,-0.282864 0.147002,-0.412695 0.102325,-0.22523 0.24081,-0.435602 0.405384,-0.619951 0.05486,-0.06145 0.113297,-0.120136 0.17348,-0.175302 0.02711,-0.02478 0.05591,-0.04693 0.084,-0.0703 0.221246,-0.184133 0.46976,-0.326129 0.730428,-0.401733 0.14272,-0.04142 0.287918,-0.06216 0.426388,-0.06209 z m 68.050357,2.313632 c 0.19633,0.03342 0.39578,0.04996 0.5889,0.0977 0.68031,0.168164 1.4259,0.424705 2.27894,0.493952 0.68098,0.05526 1.35113,-0.06755 1.99864,-0.272084 -0.10477,0.384338 -0.27194,0.750908 -0.51313,1.060035 -0.40264,0.516035 -1.00179,0.923125 -1.6745,1.244463 -1.11155,0.530929 -2.36735,0.811731 -3.66036,1.030817 0.13819,-0.136998 0.26892,-0.283027 0.38895,-0.44008 0.087,-0.09147 0.16997,-0.187569 0.23921,-0.298566 0.32066,-0.514021 0.52739,-1.113458 0.54965,-1.747549 0.005,-0.144539 -0.0137,-0.283771 -0.0393,-0.420909 -0.0241,-0.257097 -0.0796,-0.506836 -0.15704,-0.747777 z m -54.08639,4.336005 c 3.57249,0 7.00568,0.57741 10.22782,1.622468 -0.007,0.182048 -0.0181,0.36333 -0.0137,0.54873 0.0368,1.556324 0.56666,3.069978 1.46177,4.328703 0.002,0.02936 0.003,0.06215 0.005,0.0913 0.046,0.851154 0.0561,1.699793 0.021,2.543719 -0.0362,0.869493 -0.12257,1.735273 -0.2584,2.594846 a 0.71870976,0.71870976 0 0 0 0.77974,0.828126 c 1.01163,-0.0973 1.98429,-0.482354 2.78841,-1.103861 1.01742,-0.786371 1.66093,-1.839048 2.24606,-2.795715 0.42819,-0.700056 0.86482,-1.42215 1.239,-2.201331 0.0979,-0.203917 0.18934,-0.41551 0.27664,-0.630908 1.6557,1.139814 3.20185,2.426602 4.62088,3.841142 a 0.69498003,0.69498003 0 0 0 0.43186,0.437345 c 5.76313,5.960945 9.30931,14.079045 9.30931,23.03406 0,18.313851 -14.82112,33.13862 -33.13497,33.13862 -18.313853,0 -33.138617,-14.824769 -33.138617,-33.13862 0,-12.99947 7.47464,-24.232392 18.359313,-29.661787 0.08263,0.102134 0.16629,0.20417 0.25748,0.302218 0.69225,0.744298 1.588533,1.281823 2.571108,1.542117 a 0.71870976,0.71870976 0 0 0 0.890206,-0.834516 c -0.162854,-0.823063 -0.234429,-1.662847 -0.220952,-2.501716 3.522357,-1.275582 7.316552,-1.984942 11.281462,-1.984942 z m 15.72885,0.972384 c 0.26919,0.0063 0.55469,0.08263 0.81352,0.219128 0.0708,0.03735 0.13943,0.07875 0.20634,0.124176 h 9.4e-4 c 0.1336,0.09076 0.25901,0.196951 0.37343,0.314998 0.17186,0.177308 0.31919,0.38251 0.43369,0.602602 l 9.4e-4,9.35e-4 c 0.038,0.07302 0.0719,0.147628 0.10226,0.223696 l 9.3e-4,9.35e-4 c 0.0303,0.07609 0.0564,0.153602 0.0785,0.231909 0.0121,0.04273 0.0197,0.09107 0.0292,0.136956 0.009,0.04203 0.019,0.08406 0.0265,0.126914 0.0137,0.08961 0.0243,0.184241 0.032,0.283953 a 0.71870972,0.71870972 0 0 0 0.005,0.03651 c 0.0195,0.310852 -9.4e-4,0.633727 -0.0639,0.955952 -0.10399,0.533145 -0.30809,1.06614 -0.56516,1.601464 -0.33424,0.696003 -0.74483,1.37752 -1.17052,2.0735 -0.57956,0.947547 -1.15223,1.833564 -1.90094,2.412241 -0.32886,0.254175 -0.75546,0.314882 -1.14951,0.455605 0.0568,-0.526722 0.1332,-1.05112 0.15522,-1.580464 0.0373,-0.897434 0.0243,-1.792413 -0.0237,-2.681586 -0.005,-0.08662 -0.007,-0.164785 -0.0119,-0.250174 a 0.71870972,0.71870972 0 0 0 -9.3e-4,-0.04656 c -0.0216,-0.366374 -0.0421,-0.719873 -0.0466,-1.060035 -4.7e-4,-0.04348 9.3e-4,-0.08568 9.3e-4,-0.128738 -1e-5,-0.1282 9.4e-4,-0.255732 0.007,-0.379823 0.005,-0.106023 0.0181,-0.208386 0.0292,-0.311347 0.007,-0.06487 0.01,-0.131776 0.0192,-0.19539 0.037,-0.244858 0.0952,-0.48758 0.17348,-0.724038 0.2349,-0.709359 0.64784,-1.365024 1.18877,-1.874459 0.31164,-0.293499 0.66366,-0.496925 0.9943,-0.551475 0.0846,-0.01393 0.17231,-0.01945 0.26203,-0.01734 z m -58.325611,2.047939 c 0.175839,0.0023 0.352545,0.03286 0.517691,0.09039 0.08257,0.02875 0.162548,0.06418 0.237389,0.10591 0.149463,0.08339 0.286587,0.196485 0.401735,0.327779 0.11515,0.131337 0.208321,0.280934 0.271172,0.438257 0.112653,0.282037 0.136815,0.612289 0.06574,0.907559 -0.01762,0.07317 -0.04119,0.145053 -0.0703,0.215478 -2.59e-4,4.67e-4 -6.54e-4,0.0014 -9.35e-4,0.0019 -0.02927,0.06991 -0.06366,0.138307 -0.103173,0.203603 -5.61e-4,9.35e-4 -0.0013,0.0019 -0.0018,0.0028 -0.07945,0.130659 -0.177886,0.24958 -0.290345,0.348783 -0.80723,0.559099 -1.518103,1.252195 -2.099069,2.043371 -0.01831,0.02482 -0.03953,0.04707 -0.05752,0.07213 v 9.35e-4 c -0.03669,0.05111 -0.06945,0.104377 -0.104999,0.156127 -0.03527,0.05289 -0.07588,0.110796 -0.106825,0.157954 a 0.71870972,0.71870972 0 0 0 -0.0046,0.0073 c -0.348214,0.531037 -0.641912,1.090397 -0.883819,1.665377 -0.1883,0.447564 -0.268603,0.930858 -0.400822,1.397855 -0.175482,-0.217923 -0.42853,-0.367631 -0.54143,-0.620862 -0.351605,-0.788629 -0.392213,-1.747456 -0.224607,-2.687976 0.169351,-0.950347 0.533487,-1.885941 1.000687,-2.778367 0.250256,-0.47803 0.518735,-0.910088 0.83634,-1.259077 a 0.71870972,0.71870972 0 0 0 0.02191,-0.02099 c 0.06225,-0.06711 0.08304,-0.09328 0.06757,-0.07761 0.353262,-0.35809 0.787167,-0.61313 1.208859,-0.680213 0.08553,-0.0136 0.173209,-0.01935 0.261128,-0.01828 z m 96.421111,12.317761 c -3.43031,0 -5.91854,0.339517 -7.46407,1.018037 -1.50782,0.678511 -2.37415,2.242787 -2.60032,4.693001 v 24.652871 c 0,2.374816 0.6592,3.902175 1.97855,4.580695 1.35704,0.640828 3.07259,0.960515 5.14586,0.960515 h 7.29424 c 2.78949,0 4.69234,-0.452076 5.71013,-1.356769 1.05547,-0.904693 1.523,-2.039828 1.82333,-3.243102 0.29923,-1.198978 0.29211,-2.047406 -0.0849,-3.706013 -0.33925,-1.696301 -1.22895,-2.9268 -1.22895,-3.115276 -0.52675,2.240477 -0.76298,4.558041 -2.09268,6.558335 -1.24395,1.997863 -3.52414,2.997496 -6.84137,2.997496 -0.11308,0.03768 -0.58408,0.05661 -1.41338,0.05661 h -1.18786 -1.18694 c -0.98008,0 -1.84734,-0.244952 -2.60125,-0.734991 -0.71621,-0.527741 -1.07463,-1.621023 -1.07463,-3.279626 V 58.484631 h 7.69049 v -2.884278 h -7.69049 V 44.537105 c 0,-1.809391 0.35842,-2.959406 1.07463,-3.44945 0.75391,-0.490043 2.35602,-0.734995 4.80622,-0.734995 2.75179,0 4.80595,0.358431 6.163,1.074643 1.35703,0.716217 2.29991,2.129181 2.82767,4.24014 -0.45237,-0.150783 -0.92333,-0.225523 -1.41338,-0.225523 -1.16857,0 -1.96107,0.414252 -2.37572,1.243556 -0.37695,0.791607 -0.56517,1.413894 -0.56517,1.866246 0,0.753909 0.26387,1.357287 0.7916,1.809634 0.56544,0.452347 1.37594,0.678385 2.43141,0.678385 0.9801,0 1.69603,-0.377341 2.14838,-1.131251 0.45234,-0.791606 0.67929,-1.828151 0.67929,-3.109796 0,-2.224041 -0.79159,-4.146739 -2.3748,-5.767645 -1.58322,-1.658608 -4.37316,-2.488024 -8.36888,-2.488024 z m -52.033,0.659214 c -0.1214,0.09705 -0.18261,0.248453 -0.18261,0.454688 0,0.19411 0.0612,0.339377 0.18261,0.436434 0.87415,0 1.60824,0.461238 2.20315,1.383247 0.59491,0.922008 0.85623,2.128905 0.78338,3.621097 l -0.30951,5.550344 c -0.0729,1.443677 0.21816,2.596314 0.87377,3.457667 0.65561,0.849219 1.6694,1.559013 3.04132,2.129196 v 0.145174 c -1.38407,0.400349 -2.40397,0.970995 -3.05958,1.71103 -0.64347,0.727899 -0.92836,1.862155 -0.85551,3.40288 l 0.30951,6.18673 c 0.0486,0.922009 -0.007,1.693089 -0.16434,2.311805 -0.14569,0.618716 -0.4009,1.0913 -0.76512,1.418859 -0.35209,0.33968 -0.6737,0.582108 -0.96508,0.727689 -0.27924,0.157707 -0.64278,0.297767 -1.09199,0.419081 -0.1214,0.121309 -0.18261,0.266586 -0.18261,0.436434 0,0.181973 0.0612,0.333374 0.18261,0.454689 1.91827,0 3.54467,-0.466456 4.88017,-1.400595 1.34765,-0.922013 1.98474,-2.353845 1.9119,-4.294919 l -0.23648,-6.860548 c 0,-1.043327 0.29192,-1.93516 0.87469,-2.675195 0.59491,-0.752166 1.52301,-1.18889 2.78567,-1.310204 0.16997,-0.181978 0.24953,-0.387625 0.23739,-0.618127 -0.0122,-0.242633 -0.0917,-0.436934 -0.23739,-0.582515 -2.51318,-0.291162 -3.7332,-1.65649 -3.66036,-4.094966 l 0.23648,-6.332811 c 0.0729,-2.232236 -0.50918,-3.803211 -1.74755,-4.713089 -1.22624,-0.909887 -2.90772,-1.364075 -5.04452,-1.364075 z m 11.43668,0 c -0.1214,0.09705 -0.18261,0.248453 -0.18261,0.454688 0,0.19411 0.0612,0.339377 0.18261,0.436434 0.87415,0 1.60825,0.461238 2.20315,1.383247 0.59491,0.922008 0.85623,2.128905 0.78339,3.621097 l -0.30952,5.550344 c -0.0729,1.443677 0.21816,2.596314 0.87377,3.457667 0.65561,0.849219 1.6694,1.559013 3.04133,2.129196 v 0.145174 c -1.38407,0.400349 -2.40398,0.970995 -3.05959,1.71103 -0.64347,0.727899 -0.92836,1.862155 -0.85551,3.40288 l 0.30952,6.18673 c 0.0485,0.922009 -0.007,1.693089 -0.16435,2.311805 -0.14569,0.618716 -0.39998,1.0913 -0.76421,1.418859 -0.35209,0.33968 -0.67461,0.582108 -0.96599,0.727689 -0.27924,0.157707 -0.64278,0.297767 -1.09199,0.419081 -0.1214,0.121309 -0.18261,0.266586 -0.18261,0.436434 0,0.181973 0.0612,0.333374 0.18261,0.454689 1.91827,0 3.54467,-0.466456 4.88017,-1.400595 1.34765,-0.922013 1.98566,-2.353845 1.91281,-4.294919 l -0.23739,-6.860548 c 0,-1.043327 0.29193,-1.93516 0.87469,-2.675195 0.5949,-0.752166 1.52302,-1.18889 2.78567,-1.310204 0.16997,-0.181978 0.24953,-0.387625 0.23739,-0.618127 -0.0122,-0.242633 -0.0917,-0.436934 -0.23739,-0.582515 -2.51317,-0.291162 -3.7332,-1.65649 -3.66036,-4.094966 l 0.23739,-6.332811 c 0.0729,-2.232236 -0.51008,-3.803211 -1.74846,-4.713089 -1.22624,-0.909887 -2.90771,-1.364075 -5.04452,-1.364075 z m -26.44151,0.03562 c -1.918266,0 -3.551709,0.467367 -4.899344,1.401511 -1.335508,0.922009 -1.966481,2.35384 -1.893639,4.294919 l 0.218217,6.860547 c 0,1.043328 -0.291012,1.940373 -0.873775,2.692539 -0.582767,0.740035 -1.505669,1.171542 -2.768321,1.292861 -0.182119,0.181974 -0.266872,0.393744 -0.254741,0.636387 0.02431,0.230497 0.109048,0.418674 0.254741,0.564255 2.501024,0.291161 3.714942,1.655574 3.642096,4.09405 l -0.218217,6.332811 c -0.07285,2.244376 0.503969,3.815337 1.730206,4.713093 1.238376,0.909878 2.925972,1.364987 5.062777,1.364987 0.09712,-0.09705 0.146086,-0.248453 0.146086,-0.454693 0,-0.194105 -0.04896,-0.339372 -0.146086,-0.436429 -0.874144,0 -1.609158,-0.461243 -2.204065,-1.383252 -0.594903,-0.909877 -0.855315,-2.110636 -0.782473,-3.602837 l 0.29126,-5.568603 c 0.08498,-1.431542 -0.206025,-2.57805 -0.873775,-3.439404 -0.655613,-0.861349 -1.669392,-1.577267 -3.041321,-2.147459 v -0.145175 c 1.39621,-0.400344 2.415191,-0.964861 3.058669,-1.692765 0.643465,-0.740035 0.929269,-1.880415 0.856427,-3.421145 l -0.29126,-6.169377 c -0.04855,-0.922014 -4.67e-4,-1.692177 0.145174,-2.310893 0.145693,-0.630857 0.400897,-1.109564 0.765125,-1.437119 0.364227,-0.33969 0.685836,-0.583024 0.965077,-0.728605 0.291381,-0.157707 0.661952,-0.296851 1.111162,-0.41817 0.09712,-0.121328 0.146086,-0.266586 0.146086,-0.436429 0,-0.181978 -0.04896,-0.334291 -0.146086,-0.455605 z m 11.43669,0 c -1.91828,0 -3.550798,0.467367 -4.898442,1.401511 -1.335503,0.922009 -1.967393,2.35384 -1.894546,4.294919 l 0.219128,6.860547 c 0,1.043328 -0.291924,1.940373 -0.874691,2.692539 -0.582762,0.740035 -1.505664,1.171542 -2.768321,1.292861 -0.182109,0.181974 -0.266876,0.393744 -0.254736,0.636387 0.02426,0.230497 0.109048,0.418674 0.254736,0.564255 2.501033,0.291161 3.715854,1.655574 3.643012,4.09405 l -0.219128,6.332811 c -0.07285,2.244376 0.503965,3.815337 1.730201,4.713093 1.238376,0.909878 2.925967,1.364987 5.062787,1.364987 0.0971,-0.09705 0.14608,-0.248453 0.14608,-0.454693 0,-0.194105 -0.049,-0.339372 -0.14608,-0.436429 -0.87415,0 -1.60826,-0.461243 -2.20316,-1.383252 -0.59491,-0.909877 -0.85623,-2.110636 -0.78338,-3.602837 l 0.29125,-5.568603 c 0.085,-1.431542 -0.20602,-2.57805 -0.873772,-3.439404 -0.655609,-0.861349 -1.669393,-1.577267 -3.041322,-2.147459 v -0.145175 c 1.39621,-0.400344 2.416117,-0.964861 3.059581,-1.692765 0.643473,-0.740035 0.928363,-1.880415 0.855513,-3.421145 l -0.29125,-6.169377 c -0.0486,-0.922014 -4.6e-4,-1.692177 0.14517,-2.310893 0.14569,-0.630857 0.40089,-1.109564 0.76512,-1.437119 0.36423,-0.33969 0.68584,-0.583024 0.96508,-0.728605 0.29138,-0.157707 0.66195,-0.296851 1.11117,-0.41817 0.0971,-0.121328 0.14608,-0.266586 0.14608,-0.436429 0,-0.181978 -0.049,-0.334291 -0.14608,-0.455605 z m 72.16175,1.001601 v 34.265308 h 3.44945 V 40.239461 Z m 81.96958,14.701697 c -1.69629,0 -3.18492,0.452076 -4.46656,1.356769 -1.24396,0.866996 -1.86625,2.261967 -1.86625,4.184441 0,1.809386 1.60209,3.411481 4.80622,4.806218 3.24182,1.35704 5.08887,2.469236 5.54121,3.336232 0.45234,0.829304 0.67839,1.583069 0.67839,2.261589 0,1.130867 -0.54664,1.960283 -1.63981,2.488024 -1.09318,0.527736 -2.28011,0.791602 -3.56176,0.791602 -1.35705,0 -2.12973,-0.603383 -2.31819,-1.80964 -0.18849,-1.243948 -0.49016,-1.997718 -0.90482,-2.261588 -0.37696,-0.301563 -0.79212,-0.452866 -1.24447,-0.452866 -0.90469,0 -1.50716,0.508813 -1.80872,1.526598 -0.22617,0.942386 0.3763,1.80963 1.80872,2.601236 1.43244,0.791607 2.90304,1.187857 4.41087,1.187857 0.41466,0 0.71636,-0.01893 0.90482,-0.05661 2.33713,0 4.14634,-0.489904 5.428,-1.469987 1.31933,-1.01778 1.97855,-2.3371 1.97855,-3.95801 0,-0.980083 -0.24495,-2.017539 -0.735,-3.110709 -0.56544,-1.093174 -2.48812,-2.204453 -5.76764,-3.33532 -3.24182,-1.130867 -4.86192,-2.525838 -4.86192,-4.184441 0,-0.94239 0.22603,-1.639418 0.67839,-2.091764 0.45235,-0.452347 1.33759,-0.679301 2.65693,-0.679301 h 1.01804 c 1.16856,0 1.75303,0.358426 1.75303,1.074644 -0.0376,0.26387 -0.0754,0.527736 -0.11322,0.791602 -0.0376,0.226173 -0.0566,0.452211 -0.0566,0.678384 0,0.603131 0.20712,1.037208 0.62178,1.301079 0.41464,0.263866 0.84873,0.395343 1.30107,0.395343 0.41464,0 0.77217,-0.113484 1.07374,-0.339648 0.33926,-0.263871 0.5662,-0.545734 0.67929,-0.847297 0.11308,-0.33926 0.16891,-0.603126 0.16891,-0.791602 0,-0.904694 -0.6781,-1.696286 -2.03515,-2.374806 -1.35703,-0.67852 -2.7331,-1.018033 -4.12784,-1.018033 z m -19.53804,0.282126 c -1.96018,0 -3.4497,0.282779 -4.46749,0.848208 -1.01778,0.527746 -1.67698,0.980728 -1.97854,1.357685 -0.26386,0.33926 -0.39626,0.715689 -0.39626,1.130339 0,0.60313 0.24496,1.056117 0.73499,1.357685 0.49005,0.301563 0.8674,0.451949 1.13125,0.451949 0.64084,0 1.07399,-0.169296 1.30017,-0.50856 0.22617,-0.376953 0.33964,-0.792121 0.33964,-1.244468 0,-0.376952 -0.11342,-0.829033 -0.33964,-1.356769 0.75392,-0.640823 1.71573,-0.961426 2.88427,-0.961426 0.56545,0 1.11208,0.07566 1.63982,0.226431 0.52773,0.150783 1.1122,0.395735 1.75303,0.734995 0.64083,0.301563 1.05508,0.829295 1.24355,1.583204 0.22617,0.75391 0.33965,1.922843 0.33965,3.506056 -0.33927,0.67852 -2.22414,1.280987 -5.65443,1.808723 -3.4303,0.490044 -5.25841,1.300546 -5.4846,2.431413 -0.18847,1.093169 -0.28304,1.75329 -0.28304,1.979463 0,1.658603 0.52773,3.034665 1.5832,4.127829 1.09317,1.093175 2.35576,1.752379 3.78819,1.978552 1.28165,0.150779 2.48841,-0.244559 3.61927,-1.18695 1.16856,-0.942385 2.16726,-1.979846 2.99658,-3.110708 0,1.470122 0.3206,2.563408 0.96143,3.279621 0.67851,0.67852 1.48904,1.018037 2.43141,1.018037 0.867,0 1.60185,-0.244952 2.20498,-0.734996 0.64081,-0.527736 0.96143,-1.168942 0.96143,-1.922852 -0.64082,0.829304 -1.28205,1.244468 -1.92286,1.244468 -1.13088,0 -1.69642,-1.131105 -1.69642,-3.392839 v -7.746196 c 0,-1.620906 -0.0756,-2.789839 -0.22643,-3.506056 -0.15071,-0.753909 -0.79108,-1.507674 -1.92194,-2.261588 -1.13086,-0.75391 -2.97793,-1.13125 -5.54121,-1.13125 z m -25.66452,0.05661 c -1.09317,-5e-6 -2.13063,0.490815 -3.1107,1.470898 -0.9801,0.980083 -1.86533,2.110276 -2.65694,3.391927 v -4.523177 h -3.44945 v 18.885226 h 3.44945 V 63.083604 c 0,-1.507819 0.58446,-2.959527 1.75303,-4.354264 1.16856,-1.394738 2.27985,-2.091765 3.33532,-2.091765 0.56542,0 0.99951,0.207129 1.30107,0.621778 0.30156,0.41465 0.45196,1.092763 0.45196,2.035158 v 15.210258 h 3.39283 V 63.083604 c 0,-1.507819 0.58447,-2.959527 1.75303,-4.354264 1.16857,-1.394738 2.28075,-2.091765 3.33623,-2.091765 0.56542,0 0.9986,0.207129 1.30017,0.621778 0.30156,0.41465 0.45195,1.092763 0.45195,2.035158 v 15.210258 h 3.39284 V 59.520942 c 0,-2.827167 -1.48861,-4.241052 -4.46657,-4.241047 -1.09318,-5e-6 -2.1297,0.490815 -3.1098,1.470898 -0.98008,0.980083 -1.86623,2.110276 -2.65785,3.391927 v -0.621778 c 0,-2.827167 -1.48862,-4.241052 -4.46657,-4.241047 z m -28.13062,0.339648 v 18.885226 c 0,1.696295 0.32062,3.449697 0.96143,5.259084 0.64083,1.847075 1.67738,3.939078 3.1098,6.276205 1.43244,2.337119 3.54334,3.50514 6.33281,3.50514 1.01779,0 1.97868,-0.319682 2.88337,-0.96051 0.90471,-0.603135 1.30095,-1.413637 1.18786,-2.431417 -0.22617,-1.055472 -0.86738,-1.583195 -1.92286,-1.583204 -0.49005,0 -0.90428,0.150396 -1.24355,0.451954 -0.37695,0.33926 -0.56608,0.81025 -0.56608,1.41338 0,0.113078 0.0378,0.358039 0.11322,0.734991 0,0.904698 -0.33952,1.357685 -1.01804,1.357685 -0.867,0 -1.88463,-0.679025 -3.05319,-2.036069 -1.16857,-1.319343 -1.94124,-2.807963 -2.3182,-4.466566 -0.37695,-1.658608 -0.64082,-3.374177 -0.7916,-5.145872 -0.15071,-1.771689 -0.22643,-4.070816 -0.22643,-6.897983 0.79161,1.281651 1.67777,2.412756 2.65784,3.392844 0.98008,0.980083 2.01663,1.469986 3.10981,1.469986 2.97794,0 4.46748,-1.413885 4.46748,-4.241052 v -14.98382 h -3.39285 V 70.8298 c 0,0.942386 -0.15124,1.620504 -0.45286,2.035154 -0.30156,0.414654 -0.73472,0.622689 -1.30016,0.622689 -1.05547,0 -2.16767,-0.697938 -3.33624,-2.092676 -1.16856,-1.394737 -1.75302,-2.845529 -1.75302,-4.353353 V 55.619543 Z m 58.03528,7.972622 v 1.809639 c 0,2.525604 -0.37644,4.560865 -1.13034,6.106381 -0.71622,1.507819 -2.29941,2.261588 -4.74961,2.261588 -1.50784,-0.188476 -2.26159,-1.451058 -2.26159,-3.788186 0,-0.527736 0.019,-1.017639 0.0566,-1.469986 0.0376,-0.490039 0.11236,-0.961033 0.22553,-1.41338 0.49003,-1.394733 1.84717,-2.224149 4.07122,-2.488019 2.22404,-0.301563 3.48662,-0.64108 3.78819,-1.018037 z"
       id="path6647"
       inkscape:connector-curvature="0" />
  </g>
</svg>
