<?xml version="1.0" encoding="UTF-8" standalone="no"?>
<!-- Created with Inkscape (http://www.inkscape.org/) -->

<svg
   xmlns:dc="http://purl.org/dc/elements/1.1/"
   xmlns:cc="http://creativecommons.org/ns#"
   xmlns:rdf="http://www.w3.org/1999/02/22-rdf-syntax-ns#"
   xmlns:svg="http://www.w3.org/2000/svg"
   xmlns="http://www.w3.org/2000/svg"
   xmlns:sodipodi="http://sodipodi.sourceforge.net/DTD/sodipodi-0.dtd"
   xmlns:inkscape="http://www.inkscape.org/namespaces/inkscape"
   width="152.29167mm"
   height="128.81459mm"
   viewBox="0 0 152.29167 128.81459"
   version="1.1"
   id="svg8"
   inkscape:version="0.92.1 r"
   sodipodi:docname="thumbnail.svg">
  <defs
     id="defs2">
    <inkscape:path-effect
       effect="spiro"
       id="path-effect4762"
       is_visible="true" />
    <inkscape:path-effect
       is_visible="true"
       id="path-effect4738"
       effect="spiro" />
    <inkscape:path-effect
       effect="spiro"
       id="path-effect4714"
       is_visible="true" />
    <inkscape:path-effect
       is_visible="true"
       id="path-effect4690"
       effect="spiro" />
    <inkscape:path-effect
       is_visible="true"
       id="path-effect4658"
       effect="spiro" />
    <inkscape:path-effect
       effect="spiro"
       id="path-effect4654"
       is_visible="true" />
    <inkscape:path-effect
       effect="spiro"
       id="path-effect4977"
       is_visible="true" />
    <inkscape:path-effect
       effect="spiro"
       id="path-effect4973"
       is_visible="true" />
    <inkscape:path-effect
       effect="spiro"
       id="path-effect4969"
       is_visible="true" />
    <inkscape:path-effect
       effect="spiro"
       id="path-effect4949"
       is_visible="true" />
    <inkscape:path-effect
       is_visible="true"
       id="path-effect4807"
       effect="spiro" />
    <inkscape:path-effect
       is_visible="true"
       id="path-effect4803"
       effect="spiro" />
    <inkscape:path-effect
       is_visible="true"
       id="path-effect4799"
       effect="spiro" />
    <inkscape:path-effect
       is_visible="true"
       id="path-effect4777"
       effect="spiro" />
    <inkscape:path-effect
       effect="spiro"
       id="path-effect4773"
       is_visible="true" />
    <inkscape:path-effect
       effect="spiro"
       id="path-effect4769"
       is_visible="true" />
    <inkscape:path-effect
       effect="spiro"
       id="path-effect4765"
       is_visible="true" />
    <inkscape:path-effect
       effect="spiro"
       id="path-effect4743"
       is_visible="true" />
    <inkscape:path-effect
       is_visible="true"
       id="path-effect4739"
       effect="spiro" />
    <inkscape:path-effect
       is_visible="true"
       id="path-effect4735"
       effect="spiro" />
    <inkscape:path-effect
       is_visible="true"
       id="path-effect4731"
       effect="spiro" />
    <inkscape:path-effect
       is_visible="true"
       id="path-effect4709"
       effect="spiro" />
    <inkscape:path-effect
       effect="spiro"
       id="path-effect4699"
       is_visible="true" />
    <inkscape:path-effect
       effect="spiro"
       id="path-effect4695"
       is_visible="true" />
    <inkscape:path-effect
       effect="spiro"
       id="path-effect4691"
       is_visible="true" />
    <inkscape:path-effect
       effect="spiro"
       id="path-effect4675"
       is_visible="true" />
    <inkscape:path-effect
       is_visible="true"
       id="path-effect4650"
       effect="spiro" />
    <inkscape:path-effect
       is_visible="true"
       id="path-effect4646"
       effect="spiro" />
    <inkscape:path-effect
       is_visible="true"
       id="path-effect4642"
       effect="spiro" />
    <inkscape:path-effect
       is_visible="true"
       id="path-effect4620"
       effect="spiro" />
    <inkscape:path-effect
       is_visible="true"
       id="path-effect4616"
       effect="spiro" />
    <inkscape:path-effect
       is_visible="true"
       id="path-effect4612"
       effect="spiro" />
    <inkscape:path-effect
       is_visible="true"
       id="path-effect4608"
       effect="spiro" />
    <inkscape:path-effect
       is_visible="true"
       id="path-effect4586"
       effect="spiro" />
    <inkscape:path-effect
       effect="spiro"
       id="path-effect4561"
       is_visible="true" />
    <inkscape:path-effect
       effect="spiro"
       id="path-effect4557"
       is_visible="true" />
    <inkscape:path-effect
       effect="spiro"
       id="path-effect4553"
       is_visible="true" />
    <inkscape:path-effect
       effect="spiro"
       id="path-effect4549"
       is_visible="true" />
    <inkscape:path-effect
       is_visible="true"
       id="path-effect4739-3"
       effect="spiro" />
    <inkscape:path-effect
       is_visible="true"
       id="path-effect4735-6"
       effect="spiro" />
    <inkscape:path-effect
       is_visible="true"
       id="path-effect4731-7"
       effect="spiro" />
    <inkscape:path-effect
       is_visible="true"
       id="path-effect4709-5"
       effect="spiro" />
  </defs>
  <sodipodi:namedview
     id="base"
     pagecolor="#ffffff"
     bordercolor="#666666"
     borderopacity="1.0"
     inkscape:pageopacity="0.0"
     inkscape:pageshadow="2"
     inkscape:zoom="1.4142136"
     inkscape:cx="186.97723"
     inkscape:cy="168.6734"
     inkscape:document-units="mm"
     inkscape:current-layer="layer1"
     showgrid="false"
     inkscape:snap-global="true"
     inkscape:window-width="2556"
     inkscape:window-height="1376"
     inkscape:window-x="0"
     inkscape:window-y="30"
     inkscape:window-maximized="0"
     showguides="true"
     inkscape:guide-bbox="true"
     fit-margin-top="0"
     fit-margin-left="0"
     fit-margin-right="0"
     fit-margin-bottom="0"
     inkscape:snap-page="true" />
  <metadata
     id="metadata5">
    <rdf:RDF>
      <cc:Work
         rdf:about="">
        <dc:format>image/svg+xml</dc:format>
        <dc:type
           rdf:resource="http://purl.org/dc/dcmitype/StillImage" />
        <dc:title></dc:title>
      </cc:Work>
    </rdf:RDF>
  </metadata>
  <g
     inkscape:label="Layer 1"
     inkscape:groupmode="layer"
     id="layer1"
     transform="translate(-263.68045,-113.36552)">
    <rect
       style="opacity:1;fill:#333333;fill-opacity:1;fill-rule:nonzero;stroke:none;stroke-width:0.11494534;stroke-linecap:butt;stroke-linejoin:round;stroke-miterlimit:4;stroke-dasharray:none;stroke-dashoffset:0;stroke-opacity:0.98431373"
       id="rect4530"
       width="152.29167"
       height="128.81459"
       x="263.68045"
       y="113.36552" />
    <text
       xml:space="preserve"
       style="font-style:normal;font-variant:normal;font-weight:bold;font-stretch:normal;font-size:13.11245632px;line-height:100%;font-family:Montserrat;-inkscape-font-specification:'Montserrat Bold';font-variant-ligatures:discretionary-ligatures historical-ligatures;font-variant-caps:normal;font-variant-numeric:lining-nums tabular-nums slashed-zero;font-feature-settings:normal;text-align:start;writing-mode:lr-tb;text-anchor:start;opacity:1;fill:#ffffff;fill-opacity:1;fill-rule:nonzero;stroke:none;stroke-width:4.91719007;stroke-linecap:butt;stroke-linejoin:round;stroke-miterlimit:4;stroke-dasharray:none;stroke-dashoffset:0;stroke-opacity:1"
       x="-13.697966"
       y="191.15495"
       id="text4545"><tspan
         sodipodi:role="line"
         id="tspan4543"
         x="-13.697966"
         y="201.56717"
         style="stroke-width:4.91719007" /></text>
    <path
       style="opacity:1;fill:#ffffff;fill-opacity:1;fill-rule:nonzero;stroke:none;stroke-width:0.01805489;stroke-linecap:butt;stroke-linejoin:round;stroke-miterlimit:4;stroke-dasharray:none;stroke-dashoffset:0;stroke-opacity:1"
       d="m 344.56072,136.93187 c -3.91972,0.0292 -7.8295,0.48153 -11.64751,1.34027 -9.83657,2.21247 -19.49595,7.31209 -25.86487,15.92223 -3.53369,4.77732 -5.90564,10.2837 -6.74409,16.22774 -0.55935,0.32239 -1.23316,0.70375 -1.13385,0.65724 -2.16897,1.01576 -2.32947,1.161 -4.28897,1.71505 -2.55015,0.72107 -5.27438,0.93044 -7.90507,0.60698 a 5.7577779,5.7577779 0 0 0 -5.72907,2.90661 l -4.19729,7.51538 a 5.7577779,5.7577779 0 0 0 5.3746,8.55419 c 6.62572,-0.40183 12.46124,-2.70118 17.61623,-4.94147 1.54745,-0.67246 2.77501,-1.41281 3.79945,-2.08575 4.27223,5.07734 9.49294,9.15876 15.36888,12.06847 h -14.48829 c -2.31953,0 -4.18711,1.86757 -4.18711,4.18711 v 5.19403 c 0,2.31956 1.86758,4.18646 4.18711,4.18646 h 10.08117 v 4.81991 c 0,2.28164 1.83692,4.11856 4.11857,4.11856 h 53.6335 c 2.28165,0 4.11857,-1.83692 4.11857,-4.11856 v -4.81991 h 10.41317 c 2.31954,0 4.18713,-1.8669 4.18713,-4.18646 v -5.19403 c 0,-2.31954 -1.86759,-4.18711 -4.18713,-4.18711 H 371.4454 c 7.5829,-3.94603 13.77446,-9.9008 18.73784,-16.32756 5.14072,-6.65639 9.23314,-14.1029 12.09696,-22.01043 a 5.7577779,5.7577779 0 0 0 -5.30401,-7.71634 c -4.39047,-0.0834 -8.7814,-0.86546 -12.9307,-2.30302 -3.78698,-1.31205 -7.68685,-3.30627 -11.97548,-5.28909 -4.88304,-2.25773 -10.10758,-4.38755 -15.80339,-5.63262 -3.85535,-0.84271 -7.78595,-1.23714 -11.7059,-1.20788 z"
       id="path4754"
       inkscape:connector-curvature="0" />
    <path
       style="opacity:1;fill:#8aae48;fill-opacity:1;fill-rule:nonzero;stroke:none;stroke-width:0.51731223;stroke-linecap:butt;stroke-linejoin:round;stroke-miterlimit:4;stroke-dasharray:none;stroke-dashoffset:0;stroke-opacity:1"
       d="m 344.60349,142.68876 c -3.50508,0.0258 -7.00675,0.43228 -10.42673,1.20041 -8.7568,1.96672 -17.15381,6.5203 -22.49995,13.72918 -3.49503,4.7128 -5.58544,10.4539 -5.93885,16.31058 -1.32619,0.86995 -2.70488,1.65989 -4.12601,2.36413 -1.66081,0.82299 -3.38264,1.52988 -5.16415,2.04162 -3.29175,0.94557 -6.7767,1.21301 -10.17418,0.78081 l -4.19731,7.51538 c 5.47222,-0.27698 10.87646,-1.82036 15.66965,-4.47501 2.08399,-1.1542 4.04919,-2.51201 6.12282,-3.6847 1.94027,-1.09726 3.97156,-2.02991 6.05154,-2.83126 4.89301,-1.88509 10.06527,-3.04344 15.29488,-3.42533 0.15798,0.37117 0.33828,0.73281 0.53975,1.08224 0.20074,0.34808 0.42238,0.68407 0.66336,1.00555 -4.01162,0.17152 -7.99384,1.00777 -11.73576,2.46393 -2.57392,1.00163 -5.03428,2.29501 -7.3185,3.84764 5.2591,6.62381 12.5413,11.61886 20.61451,14.13997 5.93265,1.85267 12.20862,2.38273 18.42351,2.31863 6.18047,-0.0637 12.43235,-0.72233 18.21845,-2.89574 8.46406,-3.17935 15.47986,-9.44859 21.00624,-16.60458 4.77377,-6.18143 8.58062,-13.1081 11.24014,-20.45155 -4.9989,-0.0953 -9.98187,-0.98276 -14.70622,-2.61941 -4.30596,-1.49172 -8.37093,-3.59002 -12.50705,-5.50293 -4.70669,-2.1768 -9.5501,-4.12885 -14.6166,-5.2341 -3.42297,-0.74669 -6.93016,-1.10133 -10.43354,-1.07546 z m 1.33078,5.23612 a 5.3246616,5.3246616 0 0 1 5.32505,5.32505 5.3246616,5.3246616 0 0 1 -5.32505,5.32439 5.3246616,5.3246616 0 0 1 -5.32441,-5.32439 5.3246616,5.3246616 0 0 1 5.32441,-5.32505 z m -10.74995,4.15998 3.01662,3.01727 c -2.44048,2.14678 -3.98072,5.29216 -3.98072,8.79793 0,6.46959 5.24446,11.71473 11.71405,11.71473 6.46971,0 11.71472,-5.24514 11.71472,-11.71473 0,-3.50577 -1.54096,-6.65115 -3.98141,-8.79793 l 3.01727,-3.01727 c 3.20925,2.92169 5.22391,7.13328 5.22391,11.8152 0,8.82225 -7.15212,15.97382 -15.97449,15.97382 -8.82225,0 -15.97383,-7.15157 -15.97383,-15.97382 0,-4.68205 2.01457,-8.89351 5.22388,-11.8152 z m 4.52796,4.52863 5.15738,5.15667 v 11.6543 c -4.79184,-0.52985 -8.51958,-4.59128 -8.51958,-9.5244 0,-2.91769 1.30548,-5.52871 3.3622,-7.28657 z m 12.4446,0 c 2.05667,1.75798 3.36219,4.36888 3.36219,7.28657 0,4.93312 -3.72758,8.99443 -8.51953,9.5244 v -11.6543 z m 38.02705,5.6822 c -1.84549,1.6982 -3.90912,3.15907 -6.12421,4.33513 -2.79973,1.48646 -5.8275,2.51274 -8.91197,3.24338 -2.80679,0.66487 -5.67048,1.08947 -8.54943,1.26762 0.16484,-0.43152 0.2997,-0.87449 0.4033,-1.32465 0.12079,-0.52484 0.19895,-1.05949 0.23354,-1.59691 2.53043,0.0641 5.0655,-0.0588 7.57785,-0.36732 2.75985,-0.33887 5.49986,-0.90381 8.12099,-1.83181 2.56887,-0.90951 5.01473,-2.16655 7.24993,-3.72544 z m -67.77352,21.24456 h 1.56296 l 1.03883,2.7715 1.1909,-2.7715 h 1.07954 l 1.16913,2.7715 1.08633,-2.7715 h 1.54466 l -2.1652,5.06841 h -0.87383 l -1.29883,-2.94871 -1.3321,2.94871 h -0.87995 z m 9.37235,0 h 1.50525 v 5.00256 h -1.50525 z m 2.77489,0 h 1.50525 v 2.23921 l 1.81145,-2.23921 h 1.63834 l -1.86238,2.3424 2.16519,2.66016 h -1.83999 l -1.91261,-2.34241 v 2.34241 h -1.50525 z m 5.92184,0 h 1.50527 v 5.00256 h -1.50527 z m 2.77086,0 h 1.36674 l 1.5385,1.87664 1.54531,-1.87664 h 1.36472 v 5.00256 h -1.50526 v -2.89914 l -1.36201,1.67838 h -0.1188 l -1.36537,-1.67838 v 2.89914 h -1.46381 z m 7.08424,0 h 3.70707 v 1.00622 h -2.20184 v 0.9159 h 2.1007 v 1.00622 h -2.1007 v 1.068 h 2.26296 v 1.00622 h -3.76819 z m 4.78186,0 h 2.07695 c 0.31251,0 0.57945,0.0162 0.80185,0.0489 0.22224,0.0325 0.42227,0.0784 0.60018,0.13721 0.17784,0.0592 0.3299,0.12585 0.45491,0.19963 0.12494,0.0734 0.23599,0.15255 0.33472,0.23695 0.1708,0.13956 0.32092,0.30422 0.44947,0.49426 0.1291,0.19007 0.23111,0.41039 0.30691,0.66063 0.076,0.25023 0.1141,0.52191 0.1141,0.81543 0,0.51222 -0.0933,0.92351 -0.27974,1.23367 -0.18646,0.3104 -0.40669,0.56189 -0.65924,0.75432 -0.35831,0.28124 -0.85905,0.42164 -1.50323,0.42164 h -0.0753 -2.62147 z m 6.07803,0 h 1.50528 v 5.00256 h -1.50528 z m 4.39151,0 h 1.66751 l 2.20458,5.00256 h -1.54463 l -0.40739,-1.01436 h -2.17266 l -0.41482,1.01436 h -1.54466 z m -8.96427,1.00622 v 2.96159 h 0.64231 c 0.39433,0 0.73575,-0.0943 1.02452,-0.28176 0.2885,-0.18766 0.43251,-0.57321 0.43251,-1.15761 0,-0.40636 -0.0778,-0.7233 -0.23291,-0.95055 -0.1551,-0.22727 -0.34111,-0.37946 -0.55876,-0.45625 -0.21762,-0.0771 -0.4393,-0.11537 -0.66536,-0.11537 z m 9.80482,0.28447 -0.73941,1.82709 h 1.472 z"
       id="path4760"
       inkscape:connector-curvature="0" />
    <g
       transform="matrix(1.3757884,0,0,1.3757884,65.320303,-198.96385)"
       id="g4770" />
    <path
       d="m 369.90528,211.85238 v 1.01976 h 2.44738 v 1.02689 h -2.44738 v 1.03048 h 2.79087 v 1.02689 h -4.09686 v -5.13091 h 4.01815 v 1.02689 z m -6.82924,4.10402 -1.99297,-5.13091 h 1.39186 l 1.31314,3.77485 1.30958,-3.77485 h 1.34176 l -2.01444,5.13091 z m -5.46601,0 v -5.13091 h 1.30601 v 5.13091 z m -3.76283,-4.08254 v 4.08254 h -1.30599 v -4.08254 h -1.53141 v -1.05554 h 4.38311 v 1.05554 z m -7.96349,3.13794 -0.37211,0.9446 h -1.34177 l 2.21124,-5.13091 h 1.34177 l 2.16112,5.13091 h -1.39184 l -0.36498,-0.9446 z m 1.12708,-2.88748 -0.7478,1.89636 h 1.48131 z m -6.28535,3.83208 v -5.13091 h 1.30595 v 5.13091 z m -3.76286,-4.08254 v 4.08254 h -1.306 v -4.08254 h -1.5314 v -1.05554 h 4.3831 v 1.05554 z m -6.36767,4.08254 v -5.13091 h 1.30598 v 5.13091 z m -3.82726,0 -2.36151,-3.15941 v 3.15941 h -1.2237 v -5.13091 h 1.15214 l 2.36507,3.16656 v -3.16656 h 1.21654 v 5.13091 z m -7.57705,0 v -5.13091 h 1.30597 v 5.13091 z m 66.50923,-9.26232 H 384.401 v -1.62086 l -1.89636,-3.51006 h 1.30243 l 1.23798,2.23628 1.20938,-2.23628 h 1.306 l -1.8606,3.47428 z m -6.41058,-4.08255 v 4.08255 h -1.306 v -4.08255 h -1.53139 v -1.05552 h 4.38311 v 1.05552 z m -6.36769,4.08255 v -5.13092 h 1.30599 v 5.13092 z m -2.28511,-1.09131 v 1.09131 h -3.48143 v -5.13092 h 1.30598 v 4.03961 z m -7.47328,1.09131 v -5.13092 h 1.30598 v 5.13092 z m -4.47131,-5.13092 q 0.57249,0 0.99827,0.15744 0.42579,0.15744 0.65478,0.44725 0.23259,0.28982 0.23259,0.67982 0,0.40432 -0.23616,0.70845 -0.23257,0.30057 -0.64406,0.41864 0.48305,0.0966 0.76928,0.44726 0.28626,0.35065 0.28626,0.85158 0,0.43294 -0.24332,0.75496 -0.23971,0.32201 -0.6834,0.49377 -0.44368,0.1717 -1.04478,0.1717 h -2.51537 v -5.13093 z m -1.1271,2.0538 h 1.05555 q 0.28622,0 0.45441,-0.14318 0.16808,-0.14318 0.16808,-0.39358 0,-0.24331 -0.16808,-0.37928 -0.16809,-0.13956 -0.45441,-0.13956 h -1.05555 z m 0,2.07168 h 1.05555 q 0.36496,0 0.57248,-0.15383 0.2111,-0.15383 0.2111,-0.42221 0,-0.25762 -0.2111,-0.40791 -0.20752,-0.15022 -0.57248,-0.15022 h -1.05555 z m -7.43033,0.0608 -0.37211,0.94461 h -1.34177 l 2.21122,-5.13092 h 1.34176 l 2.16116,5.13092 h -1.39187 l -0.36495,-0.94461 z m 1.12707,-2.88748 -0.7478,1.89636 h 1.48131 z m -6.12076,3.83209 -2.36152,-3.15942 v 3.15942 h -1.22368 v -5.13092 h 1.15212 l 2.36508,3.16657 v -3.16657 h 1.21655 v 5.13092 z m -7.57706,0 v -5.13092 h 1.30599 v 5.13092 z m -6.13151,-0.94461 -0.37212,0.94461 h -1.34176 l 2.21122,-5.13092 h 1.34176 l 2.16113,5.13092 h -1.39185 l -0.36495,-0.94461 z m 1.12707,-2.88748 -0.74781,1.89636 h 1.48131 z m -5.51251,-0.25046 v 4.08255 h -1.30599 v -4.08255 h -1.53141 v -1.05552 h 4.38311 v 1.05552 z m -6.7863,-1.10562 q 0.55102,0 1.08415,0.15382 0.5367,0.15383 0.94102,0.41864 l -0.49376,1.01616 q -0.40433,-0.23616 -0.8659,-0.38286 -0.45798,-0.15022 -0.77286,-0.15022 -0.2576,0 -0.41147,0.0966 -0.15382,0.093 -0.15382,0.27552 0,0.24329 0.23614,0.37211 0.23973,0.12873 0.75138,0.27551 0.53671,0.15383 0.8802,0.3077 0.3435,0.15382 0.59397,0.46157 0.25046,0.30771 0.25046,0.81937 0,0.49735 -0.27193,0.85515 -0.27194,0.35423 -0.73709,0.53312 -0.46515,0.17893 -1.0448,0.17893 -0.63686,0 -1.25945,-0.21827 -0.62259,-0.22184 -1.08416,-0.60112 l 0.50452,-1.00544 q 0.39001,0.33636 0.91596,0.55461 0.52955,0.21469 0.93746,0.21469 0.31486,0 0.4902,-0.11086 0.17892,-0.11446 0.17892,-0.33632 0,-0.25048 -0.2469,-0.37928 -0.24688,-0.13234 -0.76569,-0.27192 -0.52598,-0.14661 -0.86947,-0.29341 -0.33991,-0.14679 -0.5868,-0.44726 -0.24331,-0.30056 -0.24331,-0.79073 0,-0.46875 0.25046,-0.81581 0.25405,-0.34707 0.7192,-0.5367 0.46514,-0.19323 1.07341,-0.19323 z m -4.56432,3.03417 q 0,0.67269 -0.28626,1.1736 -0.28624,0.49734 -0.81579,0.76928 -0.52598,0.26835 -1.23801,0.26835 -0.71917,0 -1.2523,-0.26835 -0.53313,-0.27194 -0.82296,-0.76928 -0.28982,-0.50091 -0.28982,-1.1736 v -2.97692 h 1.30241 v 2.97692 q 0,0.51166 0.29698,0.8158 0.29697,0.30414 0.77284,0.30414 0.46872,0 0.75141,-0.30055 0.28266,-0.30057 0.28266,-0.81939 v -2.97692 h 1.29884 z m -9.02975,-3.03417 q 0.55102,0 1.08416,0.15382 0.5367,0.15383 0.94101,0.41864 l -0.49377,1.01616 q -0.40431,-0.23616 -0.86588,-0.38286 -0.45799,-0.15022 -0.77285,-0.15022 -0.25763,0 -0.41148,0.0966 -0.15383,0.093 -0.15383,0.27552 0,0.24329 0.23616,0.37211 0.23973,0.12873 0.75139,0.27551 0.5367,0.15383 0.8802,0.3077 0.34349,0.15382 0.59394,0.46157 0.25047,0.30771 0.25047,0.81937 0,0.49735 -0.27193,0.85515 -0.27193,0.35423 -0.73708,0.53312 -0.46514,0.17893 -1.04477,0.17893 -0.63691,0 -1.2595,-0.21827 -0.62256,-0.22184 -1.08414,-0.60112 l 0.50451,-1.00544 q 0.39,0.33636 0.91598,0.55461 0.52955,0.21469 0.93744,0.21469 0.31488,0 0.49019,-0.11086 0.17893,-0.11446 0.17893,-0.33632 0,-0.25048 -0.24689,-0.37928 -0.24688,-0.13234 -0.76571,-0.27192 -0.52595,-0.14661 -0.86945,-0.29341 -0.33991,-0.14679 -0.5868,-0.44726 -0.24332,-0.30056 -0.24332,-0.79073 0,-0.46875 0.25047,-0.81581 0.25406,-0.34707 0.71919,-0.5367 0.46514,-0.19323 1.07341,-0.19323 z"
       style="font-style:normal;font-variant:normal;font-weight:bold;font-stretch:normal;font-size:medium;font-family:Montserrat;-inkscape-font-specification:'Montserrat Bold';font-variant-ligatures:discretionary-ligatures historical-ligatures;font-variant-caps:normal;font-variant-numeric:lining-nums tabular-nums slashed-zero;font-feature-settings:normal;text-align:center;letter-spacing:1.26266098px;writing-mode:lr-tb;text-anchor:middle;fill:#333333;fill-opacity:1;fill-rule:nonzero;stroke:none;stroke-width:2.74794912;stroke-linecap:butt;stroke-linejoin:round;stroke-miterlimit:4;stroke-dasharray:none;stroke-dashoffset:0;stroke-opacity:1"
       id="path4774"
       inkscape:connector-curvature="0" />
  </g>
</svg>
