<?xml version="1.0" encoding="UTF-8" standalone="no"?>
<!-- Created with Inkscape (http://www.inkscape.org/) -->

<svg
   xmlns:dc="http://purl.org/dc/elements/1.1/"
   xmlns:cc="http://creativecommons.org/ns#"
   xmlns:rdf="http://www.w3.org/1999/02/22-rdf-syntax-ns#"
   xmlns:svg="http://www.w3.org/2000/svg"
   xmlns="http://www.w3.org/2000/svg"
   xmlns:sodipodi="http://sodipodi.sourceforge.net/DTD/sodipodi-0.dtd"
   xmlns:inkscape="http://www.inkscape.org/namespaces/inkscape"
   width="285.125mm"
   height="232.20346mm"
   viewBox="0 0 285.125 232.20346"
   version="1.1"
   id="svg8"
   inkscape:version="0.92.1 r"
   sodipodi:docname="wikimedia-env.svg">
  <defs
     id="defs2">
    <inkscape:path-effect
       effect="spiro"
       id="path-effect4977"
       is_visible="true" />
    <inkscape:path-effect
       effect="spiro"
       id="path-effect4973"
       is_visible="true" />
    <inkscape:path-effect
       effect="spiro"
       id="path-effect4969"
       is_visible="true" />
    <inkscape:path-effect
       effect="spiro"
       id="path-effect4949"
       is_visible="true" />
    <inkscape:path-effect
       is_visible="true"
       id="path-effect4807"
       effect="spiro" />
    <inkscape:path-effect
       is_visible="true"
       id="path-effect4803"
       effect="spiro" />
    <inkscape:path-effect
       is_visible="true"
       id="path-effect4799"
       effect="spiro" />
    <inkscape:path-effect
       is_visible="true"
       id="path-effect4777"
       effect="spiro" />
    <inkscape:path-effect
       effect="spiro"
       id="path-effect4773"
       is_visible="true" />
    <inkscape:path-effect
       effect="spiro"
       id="path-effect4769"
       is_visible="true" />
    <inkscape:path-effect
       effect="spiro"
       id="path-effect4765"
       is_visible="true" />
    <inkscape:path-effect
       effect="spiro"
       id="path-effect4743"
       is_visible="true" />
    <inkscape:path-effect
       is_visible="true"
       id="path-effect4739"
       effect="spiro" />
    <inkscape:path-effect
       is_visible="true"
       id="path-effect4735"
       effect="spiro" />
    <inkscape:path-effect
       is_visible="true"
       id="path-effect4731"
       effect="spiro" />
    <inkscape:path-effect
       is_visible="true"
       id="path-effect4709"
       effect="spiro" />
    <inkscape:path-effect
       effect="spiro"
       id="path-effect4699"
       is_visible="true" />
    <inkscape:path-effect
       effect="spiro"
       id="path-effect4695"
       is_visible="true" />
    <inkscape:path-effect
       effect="spiro"
       id="path-effect4691"
       is_visible="true" />
    <inkscape:path-effect
       effect="spiro"
       id="path-effect4675"
       is_visible="true" />
    <inkscape:path-effect
       is_visible="true"
       id="path-effect4650"
       effect="spiro" />
    <inkscape:path-effect
       is_visible="true"
       id="path-effect4646"
       effect="spiro" />
    <inkscape:path-effect
       is_visible="true"
       id="path-effect4642"
       effect="spiro" />
    <inkscape:path-effect
       is_visible="true"
       id="path-effect4620"
       effect="spiro" />
    <inkscape:path-effect
       is_visible="true"
       id="path-effect4616"
       effect="spiro" />
    <inkscape:path-effect
       is_visible="true"
       id="path-effect4612"
       effect="spiro" />
    <inkscape:path-effect
       is_visible="true"
       id="path-effect4608"
       effect="spiro" />
    <inkscape:path-effect
       is_visible="true"
       id="path-effect4586"
       effect="spiro" />
    <inkscape:path-effect
       effect="spiro"
       id="path-effect4561"
       is_visible="true" />
    <inkscape:path-effect
       effect="spiro"
       id="path-effect4557"
       is_visible="true" />
    <inkscape:path-effect
       effect="spiro"
       id="path-effect4553"
       is_visible="true" />
    <inkscape:path-effect
       effect="spiro"
       id="path-effect4549"
       is_visible="true" />
    <inkscape:path-effect
       is_visible="true"
       id="path-effect4739-3"
       effect="spiro" />
    <inkscape:path-effect
       is_visible="true"
       id="path-effect4735-6"
       effect="spiro" />
    <inkscape:path-effect
       is_visible="true"
       id="path-effect4731-7"
       effect="spiro" />
    <inkscape:path-effect
       is_visible="true"
       id="path-effect4709-5"
       effect="spiro" />
  </defs>
  <sodipodi:namedview
     id="base"
     pagecolor="#ffffff"
     bordercolor="#666666"
     borderopacity="1.0"
     inkscape:pageopacity="0.0"
     inkscape:pageshadow="2"
     inkscape:zoom="0.70710678"
     inkscape:cx="905.46229"
     inkscape:cy="45.748429"
     inkscape:document-units="mm"
     inkscape:current-layer="layer1"
     showgrid="false"
     inkscape:snap-global="false"
     inkscape:window-width="2556"
     inkscape:window-height="1376"
     inkscape:window-x="0"
     inkscape:window-y="30"
     inkscape:window-maximized="0"
     showguides="true"
     inkscape:guide-bbox="true"
     fit-margin-top="50"
     fit-margin-left="50"
     fit-margin-right="50"
     fit-margin-bottom="50" />
  <metadata
     id="metadata5">
    <rdf:RDF>
      <cc:Work
         rdf:about="">
        <dc:format>image/svg+xml</dc:format>
        <dc:type
           rdf:resource="http://purl.org/dc/dcmitype/StillImage" />
        <dc:title></dc:title>
      </cc:Work>
    </rdf:RDF>
  </metadata>
  <g
     inkscape:label="Layer 1"
     inkscape:groupmode="layer"
     id="layer1"
     transform="translate(26.857698,30.757519)">
    <path
       style="opacity:1;fill:#8eb349;fill-opacity:1;fill-rule:nonzero;stroke:none;stroke-width:0.34334171;stroke-linecap:butt;stroke-linejoin:round;stroke-miterlimit:4;stroke-dasharray:none;stroke-dashoffset:0;stroke-opacity:1"
       d="m 38.267044,55.53758 c 0.301566,-8.610966 3.839254,-17.070478 9.757477,-23.332612 3.212677,-3.399367 7.120888,-6.171279 11.47803,-7.871957 4.357142,-1.700677 9.166334,-2.307971 13.777535,-1.524509 4.244312,0.721126 8.208575,2.577187 11.994779,4.626301 3.786204,2.049114 7.469462,4.317403 11.44566,5.967873 4.385585,1.820401 9.092365,2.863914 13.836385,3.067586 -1.84075,6.703398 -5.19463,12.986642 -9.73966,18.246548 C 92.585053,64.243825 80.167188,70.262914 67.580625,69.92898 56.356733,69.631199 45.366803,64.235732 38.267044,55.53758 Z"
       id="path4547"
       inkscape:connector-curvature="0"
       inkscape:path-effect="#path-effect4549"
       inkscape:original-d="m 38.267044,55.53758 c -8.992369,-4.414313 8.367847,-16.302368 9.757477,-23.332612 1.389631,-7.030247 18.347943,-5.10478 25.255565,-9.396466 6.907622,-4.291686 16.654913,16.996242 23.440439,10.594174 20.289245,-19.142676 13.034255,13.896338 13.836385,3.067586 0,0 -7.24626,10.848265 -9.73966,18.246548 -2.493398,7.398279 -20.769965,8.46788 -33.236625,15.21217 -12.466663,6.7443 -29.313581,-14.3914 -29.313581,-14.3914 z"
       sodipodi:nodetypes="cssscssc" />
    <g
       id="g4527"
       transform="matrix(0.08583543,0,0,0.08583543,51.949167,22.993072)"
       style="fill:#ffffff">
      <circle
         id="circle4504"
         r="45"
         cy="61.599998"
         cx="200.724"
         style="fill:#ffffff" />
      <path
         id="path4506"
         d="M 291.578,51.758 266.08,77.255 c 20.625,18.143 33.645,44.72701 33.645,74.355 0,54.67601 -44.324,99 -99.001,99 -54.676,0 -99,-44.32399 -99,-99 0,-29.62799 13.02,-56.211991 33.645,-74.354991 l -25.498,-25.498 C 82.748,76.449009 65.724,112.04101 65.724,151.61 c 0,74.55901 60.441,135 135,135 74.56,0 135.001,-60.44099 135.001,-135 0,-39.56799 -17.025,-75.16 -44.147,-99.852 z"
         inkscape:connector-curvature="0"
         style="fill:#ffffff" />
      <path
         id="path4508"
         d="M 191.724,133.61101 148.14,90.026009 C 130.758,104.88201 119.724,126.95201 119.724,151.61 c 0,41.69101 31.503,76.01201 72,80.49001 z M 253.31,90.026009 209.725,133.61 v 98.49001 c 40.498,-4.479 72,-38.799 72,-80.49001 0,-24.65799 -11.034,-46.72699 -28.415,-61.583991 z"
         inkscape:connector-curvature="0"
         style="fill:#ffffff" />
      <path
         id="path4510"
         d="m 379.047,340.05501 h -11.703 l -3.09,-7.688 h -16.461 l -3.145,7.688 h -11.703 l 16.762,-37.906 h 12.633 z m -17.418,-14.281 -5.551,-13.844 -5.605,13.844 z m -33.793,14.281 H 316.43 v -37.906 h 11.406 z m -18.52,-18.256 c 0,3.881 -0.707,6.996 -2.12,9.346 -1.413,2.352 -3.077,4.25499 -4.991,5.71299 -2.715,2.13101 -6.512,3.19701 -11.393,3.19701 h -0.573 -19.86 v -37.906 h 15.735 c 2.368,0 4.394,0.123 6.079,0.371 1.684,0.246 3.2,0.594 4.548,1.041 1.348,0.449 2.495,0.951 3.442,1.51 0.947,0.557 1.793,1.156 2.541,1.796 1.294,1.058 2.43,2.307 3.404,3.747 0.977,1.44 1.752,3.108 2.326,5.004 0.575,1.896 0.862,3.957 0.862,6.181 z m -11.625,-0.492 c 0,-3.079 -0.588,-5.479 -1.763,-7.201 -1.175,-1.722 -2.587,-2.875 -4.236,-3.457 -1.649,-0.584 -3.329,-0.875 -5.042,-0.875 h -4.865 v 22.438 h 4.865 c 2.988,0 5.574,-0.711 7.762,-2.131 2.186,-1.422 3.279,-4.346 3.279,-8.774 z m -34.992,18.748 h -28.551 v -37.906 h 28.086 v 7.625 h -16.68 v 6.938 h 15.914 v 7.625 h -15.914 v 8.094 h 17.145 z m -38.168,0 h -11.407 v -21.969 l -10.315,12.719 h -0.903 l -10.343,-12.719 v 21.969 h -11.094 v -37.906 h 10.356 l 11.655,14.219 11.709,-14.219 h 10.343 v 37.906 z m -53.649,0 h -11.406 v -37.906 h 11.406 z m -16.437,0 H 140.5 l -14.492,-17.75 v 17.75 h -11.406 v -37.906 h 11.406 v 16.969 l 13.727,-16.969 h 12.414 l -14.109,17.75 z m -49.461,0 H 93.578 v -37.906 h 11.406 z m -16.711,-37.906 -16.406,38.406 H 65.25 l -9.844,-22.344 -10.09,22.344 h -6.672 l -16.078,-38.406 h 11.84 l 7.875,21 9.023,-21 h 8.176 l 8.859,21 8.23,-21 z"
         inkscape:connector-curvature="0"
         style="fill:#ffffff" />
      <path
         id="path4512"
         d="m 326.218,381.05401 h -6.105 l -11.801,-12.656 v 12.656 h -6.781 v -22.75 h 6.076 l 11.768,12.625 v -12.625 h 6.844 v 22.75 z m -28.496,-11.383 c 0,2.119 -0.488,4.068 -1.467,5.85 -0.979,1.779 -2.434,3.194 -4.367,4.242 -1.936,1.049 -4.289,1.573 -7.064,1.573 -2.809,0 -5.186,-0.546 -7.129,-1.638 -1.945,-1.092 -3.391,-2.529 -4.336,-4.309 -0.945,-1.781 -1.418,-3.687 -1.418,-5.719 0,-2.041 0.471,-3.95 1.41,-5.725 0.939,-1.775 2.385,-3.205 4.334,-4.293 1.951,-1.086 4.33,-1.63 7.139,-1.63 2.098,0 3.969,0.312 5.613,0.935 1.645,0.622 2.996,1.466 4.057,2.53 1.059,1.065 1.863,2.305 2.408,3.719 0.546,1.416 0.82,2.904 0.82,4.465 z m -6.969,0 c 0,-0.85 -0.125,-1.626 -0.377,-2.329 -0.252,-0.703 -0.633,-1.313 -1.143,-1.831 -0.51,-0.518 -1.131,-0.921 -1.863,-1.21 -0.734,-0.289 -1.584,-0.434 -2.547,-0.434 -1.84,0 -3.285,0.534 -4.338,1.603 -1.051,1.068 -1.576,2.469 -1.576,4.201 0,1.734 0.529,3.137 1.586,4.211 1.057,1.074 2.498,1.61 4.328,1.61 1.26,0 2.332,-0.247 3.219,-0.743 0.887,-0.496 1.561,-1.184 2.021,-2.061 0.459,-0.877 0.69,-1.883 0.69,-3.017 z m -23.07,11.383 h -6.844 v -22.75 h 6.844 z m -10.912,-17.218 h -8.332 v 17.219 h -6.844 v -17.219 h -8.334 v -5.531 h 23.51 z m -21.452,17.218 h -7.02 l -1.854,-4.594 h -9.875 l -1.887,4.594 h -7.021 l 10.056,-22.75 h 7.578 z m -10.449,-8.562 -3.329,-8.312 -3.362,8.312 z m -17.319,-2.39 c 0,2.33 -0.424,4.201 -1.271,5.611 -0.848,1.412 -1.846,2.555 -2.992,3.43 -1.627,1.274 -3.904,1.911 -6.83,1.911 h -0.344 -11.907 v -22.75 h 9.434 c 1.419,0 2.634,0.074 3.644,0.222 1.01,0.147 1.919,0.355 2.727,0.623 0.807,0.269 1.496,0.569 2.063,0.903 0.568,0.334 1.076,0.692 1.523,1.075 0.776,0.635 1.457,1.386 2.041,2.252 0.586,0.865 1.05,1.867 1.395,3.008 0.344,1.139 0.517,2.377 0.517,3.715 z m -6.969,-0.297 c 0,-1.852 -0.353,-3.296 -1.057,-4.332 -0.704,-1.036 -1.55,-1.729 -2.538,-2.08 -0.988,-0.351 -1.995,-0.526 -3.021,-0.526 h -2.915 v 13.5 h 2.915 c 1.791,0 3.341,-0.427 4.651,-1.282 1.31,-0.855 1.965,-2.616 1.965,-5.28 z m -22.12,11.249 h -6.105 l -11.801,-12.656 v 12.656 h -6.781 v -22.75 h 6.077 l 11.767,12.625 v -12.625 h 6.844 v 22.75 z m -30.071,-10.2 c 0,1.946 -0.364,3.605 -1.09,4.979 -0.727,1.372 -1.688,2.457 -2.885,3.256 -1.197,0.799 -2.486,1.373 -3.869,1.723 -1.383,0.35 -2.762,0.524 -4.139,0.524 -1.924,0 -3.795,-0.327 -5.615,-0.983 -1.82,-0.656 -3.342,-1.771 -4.566,-3.348 -1.224,-1.574 -1.836,-3.625 -1.836,-6.15 v -12.55 h 6.844 v 10.79 c 0,1.5 0.216,2.74 0.647,3.721 0.431,0.981 1.033,1.697 1.804,2.151 0.771,0.454 1.68,0.682 2.729,0.682 1.005,0 1.896,-0.224 2.672,-0.673 0.776,-0.449 1.38,-1.16 1.812,-2.135 0.432,-0.975 0.648,-2.213 0.648,-3.713 v -10.823 h 6.844 z m -27.972,-1.183 c 0,2.119 -0.489,4.068 -1.467,5.85 -0.978,1.779 -2.434,3.194 -4.368,4.242 -1.934,1.049 -4.289,1.573 -7.064,1.573 -2.808,0 -5.185,-0.546 -7.129,-1.638 -1.945,-1.092 -3.39,-2.529 -4.335,-4.309 -0.945,-1.781 -1.417,-3.687 -1.417,-5.719 0,-2.041 0.47,-3.95 1.409,-5.725 0.939,-1.775 2.385,-3.205 4.335,-4.293 1.95,-1.086 4.33,-1.63 7.138,-1.63 2.098,0 3.969,0.312 5.613,0.935 1.645,0.622 2.997,1.466 4.057,2.53 1.06,1.065 1.863,2.305 2.409,3.719 0.546,1.416 0.819,2.904 0.819,4.465 z m -6.968,0 c 0,-0.85 -0.126,-1.626 -0.378,-2.329 -0.252,-0.703 -0.633,-1.313 -1.142,-1.831 -0.509,-0.518 -1.131,-0.921 -1.864,-1.21 -0.734,-0.289 -1.583,-0.434 -2.546,-0.434 -1.84,0 -3.286,0.534 -4.337,1.603 -1.051,1.069 -1.577,2.469 -1.577,4.201 0,1.734 0.528,3.137 1.585,4.211 1.057,1.074 2.5,1.61 4.329,1.61 1.259,0 2.333,-0.247 3.22,-0.743 0.887,-0.496 1.561,-1.184 2.021,-2.061 0.46,-0.877 0.689,-1.883 0.689,-3.017 z m -21.939,2.165 H 82.08 v 9.219 h -6.844 v -22.75 h 16.275 v 4.562 h -9.432 v 4.406 h 9.432 v 4.563 z"
         inkscape:connector-curvature="0"
         style="fill:#ffffff" />
    </g>
    <text
       xml:space="preserve"
       style="font-style:normal;font-variant:normal;font-weight:bold;font-stretch:normal;font-size:2.76017833px;font-family:'Lilita One';-inkscape-font-specification:'Lilita One Bold';font-variant-ligatures:discretionary-ligatures historical-ligatures;font-variant-caps:normal;font-variant-numeric:lining-nums tabular-nums slashed-zero;font-feature-settings:normal;text-align:center;writing-mode:lr-tb;text-anchor:middle;opacity:1;fill:#ffffff;fill-opacity:1;fill-rule:nonzero;stroke:none;stroke-width:1.0350709;stroke-linecap:butt;stroke-linejoin:round;stroke-miterlimit:4;stroke-dasharray:none;stroke-dashoffset:0;stroke-opacity:1"
       x="69.344086"
       y="60.948395"
       id="text4533"><tspan
         sodipodi:role="line"
         x="69.656525"
         y="60.948395"
         style="font-style:normal;font-variant:normal;font-weight:bold;font-stretch:normal;font-family:Montserrat;-inkscape-font-specification:'Montserrat Bold';text-align:center;letter-spacing:0.62488198px;text-anchor:middle;fill:#ffffff;stroke:none;stroke-width:1.0350709"
         id="tspan4539">SUSTAINABILITY</tspan><tspan
         sodipodi:role="line"
         x="69.656525"
         y="64.437241"
         style="font-style:normal;font-variant:normal;font-weight:bold;font-stretch:normal;font-family:Montserrat;-inkscape-font-specification:'Montserrat Bold';text-align:center;letter-spacing:0.62488198px;text-anchor:middle;fill:#ffffff;stroke:none;stroke-width:1.0350709"
         id="tspan4563">INITIATIVE</tspan></text>
    <text
       xml:space="preserve"
       style="font-style:normal;font-variant:normal;font-weight:bold;font-stretch:normal;font-size:9.53086662px;line-height:100%;font-family:Montserrat;-inkscape-font-specification:'Montserrat Bold';font-variant-ligatures:discretionary-ligatures historical-ligatures;font-variant-caps:normal;font-variant-numeric:lining-nums tabular-nums slashed-zero;font-feature-settings:normal;text-align:start;writing-mode:lr-tb;text-anchor:start;opacity:1;fill:#ffffff;fill-opacity:1;fill-rule:nonzero;stroke:none;stroke-width:3.57408905;stroke-linecap:butt;stroke-linejoin:round;stroke-miterlimit:4;stroke-dasharray:none;stroke-dashoffset:0;stroke-opacity:1"
       x="64.802605"
       y="196.37685"
       id="text4545"><tspan
         sodipodi:role="line"
         id="tspan4543"
         x="64.802605"
         y="203.94502"
         style="stroke-width:3.57408905" /></text>
    <path
       style="opacity:1;fill:#ffffff;fill-opacity:1;fill-rule:nonzero;stroke:none;stroke-width:0.34334171;stroke-linecap:butt;stroke-linejoin:round;stroke-miterlimit:4;stroke-dasharray:none;stroke-dashoffset:0;stroke-opacity:1"
       d="m 38.113767,55.81347 c 1.884956,-1.304996 3.956131,-2.340581 6.131102,-3.065546 2.590621,-0.86351 5.328011,-1.284828 8.058393,-1.240285 l -0.681859,-1.502124 c -2.797099,0.06943 -5.583325,0.561681 -8.234888,1.454877 -2.419783,0.81512 -4.727031,1.963569 -6.836179,3.402758 z"
       id="path4551"
       inkscape:connector-curvature="0"
       inkscape:path-effect="#path-effect4553"
       inkscape:original-d="m 38.113767,55.81347 c 0,0 4.189672,-2.145969 6.131102,-3.065546 1.94143,-0.919581 8.058393,-1.240285 8.058393,-1.240285 l -0.681859,-1.502124 c 0,0 -5.434932,1.046053 -8.234888,1.454877 -2.799956,0.408828 -6.836179,3.402758 -6.836179,3.402758 z"
       sodipodi:nodetypes="ccccccc" />
    <path
       style="opacity:1;fill:#ffffff;fill-opacity:1;fill-rule:nonzero;stroke:none;stroke-width:0.34334171;stroke-linecap:butt;stroke-linejoin:round;stroke-miterlimit:4;stroke-dasharray:none;stroke-dashoffset:0;stroke-opacity:1"
       d="m 86.066133,49.467785 c 1.976409,-0.230462 3.934195,-0.620446 5.848055,-1.164912 5.445111,-1.549058 10.525212,-4.366097 14.723112,-8.164318 -3.43364,3.890103 -7.800182,6.951083 -12.628018,8.852343 -2.357574,0.928441 -4.822619,1.583659 -7.330039,1.948353 z"
       id="path4555"
       inkscape:connector-curvature="0"
       inkscape:path-effect="#path-effect4557"
       inkscape:original-d="m 86.066133,49.467785 c 0,0 2.067295,2.043612 5.848055,-1.164912 3.780761,-3.208523 14.723112,-8.164318 14.723112,-8.164318 0,0 -9.521507,3.579509 -12.628018,8.852343 -3.10651,5.272833 -7.330039,1.948353 -7.330039,1.948353 z"
       sodipodi:nodetypes="cscscc" />
    <path
       style="opacity:1;fill:#8eb349;fill-opacity:1;fill-rule:nonzero;stroke:none;stroke-width:0.34334171;stroke-linecap:butt;stroke-linejoin:round;stroke-miterlimit:4;stroke-dasharray:none;stroke-dashoffset:0;stroke-opacity:1"
       d="m 40.65374,50.509268 c -1.387904,0.737124 -2.792877,1.442109 -4.213413,2.114199 -1.335182,0.631707 -2.686942,1.235463 -4.088771,1.700908 -2.424258,0.804919 -4.987919,1.188091 -7.541585,1.127185 l 0.696737,4.13462 c 2.608413,-0.529278 5.136756,-1.451383 7.473473,-2.72563 1.388205,-0.757009 2.70599,-1.635524 4.063821,-2.445754 1.162611,-0.69374 2.354981,-1.337605 3.572733,-1.929229 z"
       id="path4559"
       inkscape:connector-curvature="0"
       inkscape:path-effect="#path-effect4561"
       inkscape:original-d="m 40.65374,50.509268 c 0,0 -2.794867,1.254792 -4.213413,2.114199 -1.144937,0.693647 -3.204485,1.165155 -4.088771,1.700908 -1.979893,1.199525 -7.541585,1.127185 -7.541585,1.127185 l 0.696737,4.13462 c 0,0 5.594909,-2.21993 7.473473,-2.72563 0.909172,-0.24475 2.415614,-1.37097 4.063821,-2.445754 1.757373,-1.145968 3.572733,-1.929229 3.572733,-1.929229 z"
       sodipodi:nodetypes="csccccscc" />
    <path
       sodipodi:nodetypes="cssscssc"
       inkscape:original-d="m 145.06404,59.315992 c -8.99237,-4.414313 -173.277753,-16.795178 7.52401,-10.024489 7.16125,0.268175 18.10049,1.984578 25.00811,-2.307108 6.90762,-4.291686 6.80311,10.973995 13.58864,4.571929 20.28925,-19.142676 8.83179,0.08848 8.83179,0.08848 0,0 -6.82046,3.315267 -9.31386,10.71355 -2.4934,7.398279 -9.00339,1.664785 -21.47005,8.409075 -12.46666,6.7443 -24.16864,-11.451435 -24.16864,-11.451437 z"
       inkscape:path-effect="#path-effect4620"
       inkscape:connector-curvature="0"
       id="path4618"
       d="m 145.06404,59.315992 c 1.38343,-4.01491 4.05529,-7.574717 7.52401,-10.024489 3.54607,-2.504401 7.85451,-3.826895 12.18693,-4.103972 4.33242,-0.277078 8.69124,0.458874 12.82118,1.796864 4.55194,1.474708 8.88723,3.682169 13.58864,4.571929 2.90789,0.55033 5.91346,0.580441 8.83179,0.08848 -2.47744,4.05769 -5.64022,7.695778 -9.31386,10.71355 -6.0511,4.970782 -13.64061,8.252904 -21.47005,8.409075 -9.23876,0.184283 -18.46016,-4.184944 -24.16864,-11.451437 z"
       style="opacity:1;fill:#8eb349;fill-opacity:1;fill-rule:nonzero;stroke:none;stroke-width:0.34334171;stroke-linecap:butt;stroke-linejoin:round;stroke-miterlimit:4;stroke-dasharray:none;stroke-dashoffset:0;stroke-opacity:1" />
    <g
       style="fill:#ffffff"
       transform="matrix(0.08583543,0,0,0.08583543,153.26713,24.633328)"
       id="g4632">
      <path
         style="fill:#ffffff"
         inkscape:connector-curvature="0"
         d="m 379.047,340.05501 h -11.703 l -3.09,-7.688 h -16.461 l -3.145,7.688 h -11.703 l 16.762,-37.906 h 12.633 z m -17.418,-14.281 -5.551,-13.844 -5.605,13.844 z m -33.793,14.281 H 316.43 v -37.906 h 11.406 z m -18.52,-18.256 c 0,3.881 -0.707,6.996 -2.12,9.346 -1.413,2.352 -3.077,4.25499 -4.991,5.71299 -2.715,2.13101 -6.512,3.19701 -11.393,3.19701 h -0.573 -19.86 v -37.906 h 15.735 c 2.368,0 4.394,0.123 6.079,0.371 1.684,0.246 3.2,0.594 4.548,1.041 1.348,0.449 2.495,0.951 3.442,1.51 0.947,0.557 1.793,1.156 2.541,1.796 1.294,1.058 2.43,2.307 3.404,3.747 0.977,1.44 1.752,3.108 2.326,5.004 0.575,1.896 0.862,3.957 0.862,6.181 z m -11.625,-0.492 c 0,-3.079 -0.588,-5.479 -1.763,-7.201 -1.175,-1.722 -2.587,-2.875 -4.236,-3.457 -1.649,-0.584 -3.329,-0.875 -5.042,-0.875 h -4.865 v 22.438 h 4.865 c 2.988,0 5.574,-0.711 7.762,-2.131 2.186,-1.422 3.279,-4.346 3.279,-8.774 z m -34.992,18.748 h -28.551 v -37.906 h 28.086 v 7.625 h -16.68 v 6.938 h 15.914 v 7.625 h -15.914 v 8.094 h 17.145 z m -38.168,0 h -11.407 v -21.969 l -10.315,12.719 h -0.903 l -10.343,-12.719 v 21.969 h -11.094 v -37.906 h 10.356 l 11.655,14.219 11.709,-14.219 h 10.343 v 37.906 z m -53.649,0 h -11.406 v -37.906 h 11.406 z m -16.437,0 H 140.5 l -14.492,-17.75 v 17.75 h -11.406 v -37.906 h 11.406 v 16.969 l 13.727,-16.969 h 12.414 l -14.109,17.75 z m -49.461,0 H 93.578 v -37.906 h 11.406 z m -16.711,-37.906 -16.406,38.406 H 65.25 l -9.844,-22.344 -10.09,22.344 h -6.672 l -16.078,-38.406 h 11.84 l 7.875,21 9.023,-21 h 8.176 l 8.859,21 8.23,-21 z"
         id="path4628" />
      <path
         style="fill:#ffffff"
         inkscape:connector-curvature="0"
         d="m 326.218,381.05401 h -6.105 l -11.801,-12.656 v 12.656 h -6.781 v -22.75 h 6.076 l 11.768,12.625 v -12.625 h 6.844 v 22.75 z m -28.496,-11.383 c 0,2.119 -0.488,4.068 -1.467,5.85 -0.979,1.779 -2.434,3.194 -4.367,4.242 -1.936,1.049 -4.289,1.573 -7.064,1.573 -2.809,0 -5.186,-0.546 -7.129,-1.638 -1.945,-1.092 -3.391,-2.529 -4.336,-4.309 -0.945,-1.781 -1.418,-3.687 -1.418,-5.719 0,-2.041 0.471,-3.95 1.41,-5.725 0.939,-1.775 2.385,-3.205 4.334,-4.293 1.951,-1.086 4.33,-1.63 7.139,-1.63 2.098,0 3.969,0.312 5.613,0.935 1.645,0.622 2.996,1.466 4.057,2.53 1.059,1.065 1.863,2.305 2.408,3.719 0.546,1.416 0.82,2.904 0.82,4.465 z m -6.969,0 c 0,-0.85 -0.125,-1.626 -0.377,-2.329 -0.252,-0.703 -0.633,-1.313 -1.143,-1.831 -0.51,-0.518 -1.131,-0.921 -1.863,-1.21 -0.734,-0.289 -1.584,-0.434 -2.547,-0.434 -1.84,0 -3.285,0.534 -4.338,1.603 -1.051,1.068 -1.576,2.469 -1.576,4.201 0,1.734 0.529,3.137 1.586,4.211 1.057,1.074 2.498,1.61 4.328,1.61 1.26,0 2.332,-0.247 3.219,-0.743 0.887,-0.496 1.561,-1.184 2.021,-2.061 0.459,-0.877 0.69,-1.883 0.69,-3.017 z m -23.07,11.383 h -6.844 v -22.75 h 6.844 z m -10.912,-17.218 h -8.332 v 17.219 h -6.844 v -17.219 h -8.334 v -5.531 h 23.51 z m -21.452,17.218 h -7.02 l -1.854,-4.594 h -9.875 l -1.887,4.594 h -7.021 l 10.056,-22.75 h 7.578 z m -10.449,-8.562 -3.329,-8.312 -3.362,8.312 z m -17.319,-2.39 c 0,2.33 -0.424,4.201 -1.271,5.611 -0.848,1.412 -1.846,2.555 -2.992,3.43 -1.627,1.274 -3.904,1.911 -6.83,1.911 h -0.344 -11.907 v -22.75 h 9.434 c 1.419,0 2.634,0.074 3.644,0.222 1.01,0.147 1.919,0.355 2.727,0.623 0.807,0.269 1.496,0.569 2.063,0.903 0.568,0.334 1.076,0.692 1.523,1.075 0.776,0.635 1.457,1.386 2.041,2.252 0.586,0.865 1.05,1.867 1.395,3.008 0.344,1.139 0.517,2.377 0.517,3.715 z m -6.969,-0.297 c 0,-1.852 -0.353,-3.296 -1.057,-4.332 -0.704,-1.036 -1.55,-1.729 -2.538,-2.08 -0.988,-0.351 -1.995,-0.526 -3.021,-0.526 h -2.915 v 13.5 h 2.915 c 1.791,0 3.341,-0.427 4.651,-1.282 1.31,-0.855 1.965,-2.616 1.965,-5.28 z m -22.12,11.249 h -6.105 l -11.801,-12.656 v 12.656 h -6.781 v -22.75 h 6.077 l 11.767,12.625 v -12.625 h 6.844 v 22.75 z m -30.071,-10.2 c 0,1.946 -0.364,3.605 -1.09,4.979 -0.727,1.372 -1.688,2.457 -2.885,3.256 -1.197,0.799 -2.486,1.373 -3.869,1.723 -1.383,0.35 -2.762,0.524 -4.139,0.524 -1.924,0 -3.795,-0.327 -5.615,-0.983 -1.82,-0.656 -3.342,-1.771 -4.566,-3.348 -1.224,-1.574 -1.836,-3.625 -1.836,-6.15 v -12.55 h 6.844 v 10.79 c 0,1.5 0.216,2.74 0.647,3.721 0.431,0.981 1.033,1.697 1.804,2.151 0.771,0.454 1.68,0.682 2.729,0.682 1.005,0 1.896,-0.224 2.672,-0.673 0.776,-0.449 1.38,-1.16 1.812,-2.135 0.432,-0.975 0.648,-2.213 0.648,-3.713 v -10.823 h 6.844 z m -27.972,-1.183 c 0,2.119 -0.489,4.068 -1.467,5.85 -0.978,1.779 -2.434,3.194 -4.368,4.242 -1.934,1.049 -4.289,1.573 -7.064,1.573 -2.808,0 -5.185,-0.546 -7.129,-1.638 -1.945,-1.092 -3.39,-2.529 -4.335,-4.309 -0.945,-1.781 -1.417,-3.687 -1.417,-5.719 0,-2.041 0.47,-3.95 1.409,-5.725 0.939,-1.775 2.385,-3.205 4.335,-4.293 1.95,-1.086 4.33,-1.63 7.138,-1.63 2.098,0 3.969,0.312 5.613,0.935 1.645,0.622 2.997,1.466 4.057,2.53 1.06,1.065 1.863,2.305 2.409,3.719 0.546,1.416 0.819,2.904 0.819,4.465 z m -6.968,0 c 0,-0.85 -0.126,-1.626 -0.378,-2.329 -0.252,-0.703 -0.633,-1.313 -1.142,-1.831 -0.509,-0.518 -1.131,-0.921 -1.864,-1.21 -0.734,-0.289 -1.583,-0.434 -2.546,-0.434 -1.84,0 -3.286,0.534 -4.337,1.603 -1.051,1.069 -1.577,2.469 -1.577,4.201 0,1.734 0.528,3.137 1.585,4.211 1.057,1.074 2.5,1.61 4.329,1.61 1.259,0 2.333,-0.247 3.22,-0.743 0.887,-0.496 1.561,-1.184 2.021,-2.061 0.46,-0.877 0.689,-1.883 0.689,-3.017 z m -21.939,2.165 H 82.08 v 9.219 h -6.844 v -22.75 h 16.275 v 4.562 h -9.432 v 4.406 h 9.432 v 4.563 z"
         id="path4630" />
    </g>
    <text
       id="text4638"
       y="62.588654"
       x="170.66205"
       style="font-style:normal;font-variant:normal;font-weight:bold;font-stretch:normal;font-size:2.76017833px;font-family:'Lilita One';-inkscape-font-specification:'Lilita One Bold';font-variant-ligatures:discretionary-ligatures historical-ligatures;font-variant-caps:normal;font-variant-numeric:lining-nums tabular-nums slashed-zero;font-feature-settings:normal;text-align:center;writing-mode:lr-tb;text-anchor:middle;opacity:1;fill:#ffffff;fill-opacity:1;fill-rule:nonzero;stroke:none;stroke-width:1.0350709;stroke-linecap:butt;stroke-linejoin:round;stroke-miterlimit:4;stroke-dasharray:none;stroke-dashoffset:0;stroke-opacity:1"
       xml:space="preserve"><tspan
         id="tspan4634"
         style="font-style:normal;font-variant:normal;font-weight:bold;font-stretch:normal;font-family:Montserrat;-inkscape-font-specification:'Montserrat Bold';text-align:center;letter-spacing:0.62488198px;text-anchor:middle;fill:#ffffff;stroke:none;stroke-width:1.0350709"
         y="62.588654"
         x="170.97449"
         sodipodi:role="line">SUSTAINABILITY</tspan><tspan
         id="tspan4636"
         style="font-style:normal;font-variant:normal;font-weight:bold;font-stretch:normal;font-family:Montserrat;-inkscape-font-specification:'Montserrat Bold';text-align:center;letter-spacing:0.62488198px;text-anchor:middle;fill:#ffffff;stroke:none;stroke-width:1.0350709"
         y="66.077499"
         x="170.97449"
         sodipodi:role="line">INITIATIVE</tspan></text>
    <path
       sodipodi:nodetypes="ccccccc"
       inkscape:original-d="m 140.16672,63.467291 c 0,0 4.18968,-2.145969 6.13111,-3.065546 1.94143,-0.919581 9.38802,-1.287532 9.38802,-1.287532 l -0.68186,-1.502124 c 0,0 -6.76456,1.0933 -9.56452,1.502124 -2.79995,0.408828 -6.83618,3.402758 -6.83618,3.402758 z"
       inkscape:path-effect="#path-effect4642"
       inkscape:connector-curvature="0"
       id="path4640"
       d="m 140.16672,63.467291 c 1.8907,-1.295774 3.96007,-2.330458 6.13111,-3.065546 3.0099,-1.019117 6.21488,-1.458668 9.38802,-1.287532 l -0.68186,-1.502124 c -3.24269,-0.05018 -6.49332,0.460337 -9.56452,1.502124 -2.41782,0.820154 -4.7242,1.968168 -6.83618,3.402758 z"
       style="opacity:1;fill:#ffffff;fill-opacity:1;fill-rule:nonzero;stroke:none;stroke-width:0.34334171;stroke-linecap:butt;stroke-linejoin:round;stroke-miterlimit:4;stroke-dasharray:none;stroke-dashoffset:0;stroke-opacity:1" />
    <path
       sodipodi:nodetypes="cscscc"
       inkscape:original-d="m 185.54286,56.300465 c 0,0 2.53502,2.310881 6.31578,-0.897643 3.78076,-3.208523 5.30187,-2.017119 5.30187,-2.017119 0,0 -2.30524,-1.765881 -5.41175,3.506953 -3.10651,5.272833 -5.79324,1.012909 -5.79324,1.012909 z"
       inkscape:path-effect="#path-effect4646"
       inkscape:connector-curvature="0"
       id="path4644"
       d="m 185.54286,56.300465 c 2.13075,-0.04998 4.25548,-0.351966 6.31578,-0.897643 1.83119,-0.484996 3.61139,-1.16228 5.30187,-2.017119 -1.53137,1.531101 -3.38865,2.734661 -5.41175,3.506953 -1.84272,0.703433 -3.82116,1.04935 -5.79324,1.012909 z"
       style="opacity:1;fill:#ffffff;fill-opacity:1;fill-rule:nonzero;stroke:none;stroke-width:0.34334171;stroke-linecap:butt;stroke-linejoin:round;stroke-miterlimit:4;stroke-dasharray:none;stroke-dashoffset:0;stroke-opacity:1" />
    <path
       sodipodi:nodetypes="csccccscc"
       inkscape:original-d="m 147.55096,56.024933 c 0,0 -2.79487,1.254792 -4.21342,2.114199 -1.14493,0.693647 -3.20448,1.165155 -4.08877,1.700908 -1.97989,1.199525 -7.54158,1.127185 -7.54158,1.127185 l 0.69674,4.13462 c 0,0 5.5949,-2.21993 7.47347,-2.72563 0.90917,-0.24475 2.41561,-1.37097 4.06382,-2.445754 1.75737,-1.145968 3.57273,-1.929229 3.57273,-1.929229 z"
       inkscape:path-effect="#path-effect4650"
       inkscape:connector-curvature="0"
       id="path4648"
       d="m 147.55096,56.024933 c -1.38791,0.737124 -2.79288,1.442108 -4.21342,2.114199 -1.33518,0.631706 -2.68694,1.235463 -4.08877,1.700908 -2.42426,0.804919 -4.98792,1.188091 -7.54158,1.127185 l 0.69674,4.13462 c 2.60841,-0.529278 5.13675,-1.451383 7.47347,-2.72563 1.3882,-0.757009 2.70599,-1.635524 4.06382,-2.445754 1.16261,-0.69374 2.35498,-1.337604 3.57273,-1.929229 z"
       style="opacity:1;fill:#8eb349;fill-opacity:1;fill-rule:nonzero;stroke:none;stroke-width:0.34334171;stroke-linecap:butt;stroke-linejoin:round;stroke-miterlimit:4;stroke-dasharray:none;stroke-dashoffset:0;stroke-opacity:1" />
    <g
       id="g4840"
       transform="translate(14.761416,-31.16261)">
      <circle
         id="circle4622"
         r="3.8625944"
         cy="54.267685"
         cx="155.91513"
         style="fill:#8eb349;fill-opacity:1;stroke-width:0.08583543" />
      <path
         id="path4624"
         d="m 163.71363,53.422893 -2.18863,2.188546 c 1.77035,1.557312 2.88793,3.839162 2.88793,6.382294 0,4.693138 -3.80457,8.497707 -8.49779,8.497707 -4.69314,0 -8.49771,-3.804569 -8.49771,-8.497707 0,-2.543132 1.11758,-4.824981 2.88793,-6.382293 l -2.18863,-2.188632 c -2.32811,2.119448 -3.78937,5.174503 -3.78937,8.570925 0,6.399804 5.18798,11.587782 11.58778,11.587782 6.39989,0 11.58787,-5.187978 11.58787,-11.587782 0,-3.396336 -1.46135,-6.451392 -3.78938,-8.57084 z"
         inkscape:connector-curvature="0"
         style="fill:#8eb349;fill-opacity:1;stroke-width:0.08583543" />
      <path
         id="path4626"
         d="m 155.14262,60.448781 -3.74105,-3.741137 c -1.49199,1.275171 -2.4391,3.169559 -2.4391,5.286089 0,3.578565 2.70407,6.524523 6.18015,6.908894 z m 5.28626,-3.741137 -3.74114,3.741051 v 8.453932 c 3.47617,-0.384457 6.18015,-3.330329 6.18015,-6.908894 0,-2.11653 -0.9471,-4.010832 -2.43901,-5.286089 z"
         inkscape:connector-curvature="0"
         style="fill:#8eb349;fill-opacity:1;stroke-width:0.08583543" />
    </g>
    <path
       sodipodi:nodetypes="cssscssc"
       inkscape:original-d="m 38.791201,125.55959 c -10.312181,-5.06222 9.812722,-14.46892 11.406313,-22.53099 1.593591,-8.06208 12.010884,-0.15566 19.932331,-5.07725 7.921458,-4.92157 14.465666,13.962 22.247108,6.62031 23.267097,-21.952255 16.450657,2.07284 16.450657,2.07284 0,0 -6.50255,9.50154 -9.361897,17.98567 -2.859362,8.48412 -10.161464,7.74836 -24.45786,15.4825 -14.296396,7.73417 -36.216652,-14.55308 -36.216652,-14.55308 z"
       inkscape:path-effect="#path-effect4709"
       inkscape:connector-curvature="0"
       id="path4707"
       d="m 38.791201,125.55959 c -0.113301,-8.75157 4.285954,-17.44146 11.406313,-22.53099 5.702846,-4.076314 12.962512,-5.825857 19.932331,-5.07725 7.70933,0.828035 14.785634,4.5118 22.247108,6.62031 5.338644,1.50863 10.904647,2.20997 16.450657,2.07284 -1.89205,6.53479 -5.09454,12.68728 -9.361897,17.98567 -6.177556,7.67011 -14.793692,13.58601 -24.45786,15.4825 -6.750411,1.3247 -13.880261,0.6514 -20.263358,-1.91355 -6.383097,-2.56494 -11.996411,-7.01228 -15.953294,-12.63953 z"
       style="opacity:1;fill:#8eb349;fill-opacity:1;fill-rule:nonzero;stroke:none;stroke-width:0.39373404;stroke-linecap:butt;stroke-linejoin:round;stroke-miterlimit:4;stroke-dasharray:none;stroke-dashoffset:0;stroke-opacity:1" />
    <g
       style="fill:#ffffff"
       transform="matrix(0.09843351,0,0,0.09843351,49.49675,99.0748)"
       id="g4721">
      <circle
         style="fill:#ffffff"
         cx="200.724"
         cy="61.599998"
         r="45"
         id="circle4711" />
      <path
         style="fill:#ffffff"
         inkscape:connector-curvature="0"
         d="M 291.578,51.758 266.08,77.255 c 20.625,18.143 33.645,44.72701 33.645,74.355 0,54.67601 -44.324,99 -99.001,99 -54.676,0 -99,-44.32399 -99,-99 0,-29.62799 13.02,-56.211991 33.645,-74.354991 l -25.498,-25.498 C 82.748,76.449009 65.724,112.04101 65.724,151.61 c 0,74.55901 60.441,135 135,135 74.56,0 135.001,-60.44099 135.001,-135 0,-39.56799 -17.025,-75.16 -44.147,-99.852 z"
         id="path4713" />
      <path
         style="fill:#ffffff"
         inkscape:connector-curvature="0"
         d="M 191.724,133.61101 148.14,90.026009 C 130.758,104.88201 119.724,126.95201 119.724,151.61 c 0,41.69101 31.503,76.01201 72,80.49001 z M 253.31,90.026009 209.725,133.61 v 98.49001 c 40.498,-4.479 72,-38.799 72,-80.49001 0,-24.65799 -11.034,-46.72699 -28.415,-61.583991 z"
         id="path4715" />
      <path
         style="fill:#ffffff"
         inkscape:connector-curvature="0"
         d="m 379.047,340.05501 h -11.703 l -3.09,-7.688 h -16.461 l -3.145,7.688 h -11.703 l 16.762,-37.906 h 12.633 z m -17.418,-14.281 -5.551,-13.844 -5.605,13.844 z m -33.793,14.281 H 316.43 v -37.906 h 11.406 z m -18.52,-18.256 c 0,3.881 -0.707,6.996 -2.12,9.346 -1.413,2.352 -3.077,4.25499 -4.991,5.71299 -2.715,2.13101 -6.512,3.19701 -11.393,3.19701 h -0.573 -19.86 v -37.906 h 15.735 c 2.368,0 4.394,0.123 6.079,0.371 1.684,0.246 3.2,0.594 4.548,1.041 1.348,0.449 2.495,0.951 3.442,1.51 0.947,0.557 1.793,1.156 2.541,1.796 1.294,1.058 2.43,2.307 3.404,3.747 0.977,1.44 1.752,3.108 2.326,5.004 0.575,1.896 0.862,3.957 0.862,6.181 z m -11.625,-0.492 c 0,-3.079 -0.588,-5.479 -1.763,-7.201 -1.175,-1.722 -2.587,-2.875 -4.236,-3.457 -1.649,-0.584 -3.329,-0.875 -5.042,-0.875 h -4.865 v 22.438 h 4.865 c 2.988,0 5.574,-0.711 7.762,-2.131 2.186,-1.422 3.279,-4.346 3.279,-8.774 z m -34.992,18.748 h -28.551 v -37.906 h 28.086 v 7.625 h -16.68 v 6.938 h 15.914 v 7.625 h -15.914 v 8.094 h 17.145 z m -38.168,0 h -11.407 v -21.969 l -10.315,12.719 h -0.903 l -10.343,-12.719 v 21.969 h -11.094 v -37.906 h 10.356 l 11.655,14.219 11.709,-14.219 h 10.343 v 37.906 z m -53.649,0 h -11.406 v -37.906 h 11.406 z m -16.437,0 H 140.5 l -14.492,-17.75 v 17.75 h -11.406 v -37.906 h 11.406 v 16.969 l 13.727,-16.969 h 12.414 l -14.109,17.75 z m -49.461,0 H 93.578 v -37.906 h 11.406 z m -16.711,-37.906 -16.406,38.406 H 65.25 l -9.844,-22.344 -10.09,22.344 h -6.672 l -16.078,-38.406 h 11.84 l 7.875,21 9.023,-21 h 8.176 l 8.859,21 8.23,-21 z"
         id="path4717" />
      <path
         style="fill:#ffffff"
         inkscape:connector-curvature="0"
         d="m 326.218,381.05401 h -6.105 l -11.801,-12.656 v 12.656 h -6.781 v -22.75 h 6.076 l 11.768,12.625 v -12.625 h 6.844 v 22.75 z m -28.496,-11.383 c 0,2.119 -0.488,4.068 -1.467,5.85 -0.979,1.779 -2.434,3.194 -4.367,4.242 -1.936,1.049 -4.289,1.573 -7.064,1.573 -2.809,0 -5.186,-0.546 -7.129,-1.638 -1.945,-1.092 -3.391,-2.529 -4.336,-4.309 -0.945,-1.781 -1.418,-3.687 -1.418,-5.719 0,-2.041 0.471,-3.95 1.41,-5.725 0.939,-1.775 2.385,-3.205 4.334,-4.293 1.951,-1.086 4.33,-1.63 7.139,-1.63 2.098,0 3.969,0.312 5.613,0.935 1.645,0.622 2.996,1.466 4.057,2.53 1.059,1.065 1.863,2.305 2.408,3.719 0.546,1.416 0.82,2.904 0.82,4.465 z m -6.969,0 c 0,-0.85 -0.125,-1.626 -0.377,-2.329 -0.252,-0.703 -0.633,-1.313 -1.143,-1.831 -0.51,-0.518 -1.131,-0.921 -1.863,-1.21 -0.734,-0.289 -1.584,-0.434 -2.547,-0.434 -1.84,0 -3.285,0.534 -4.338,1.603 -1.051,1.068 -1.576,2.469 -1.576,4.201 0,1.734 0.529,3.137 1.586,4.211 1.057,1.074 2.498,1.61 4.328,1.61 1.26,0 2.332,-0.247 3.219,-0.743 0.887,-0.496 1.561,-1.184 2.021,-2.061 0.459,-0.877 0.69,-1.883 0.69,-3.017 z m -23.07,11.383 h -6.844 v -22.75 h 6.844 z m -10.912,-17.218 h -8.332 v 17.219 h -6.844 v -17.219 h -8.334 v -5.531 h 23.51 z m -21.452,17.218 h -7.02 l -1.854,-4.594 h -9.875 l -1.887,4.594 h -7.021 l 10.056,-22.75 h 7.578 z m -10.449,-8.562 -3.329,-8.312 -3.362,8.312 z m -17.319,-2.39 c 0,2.33 -0.424,4.201 -1.271,5.611 -0.848,1.412 -1.846,2.555 -2.992,3.43 -1.627,1.274 -3.904,1.911 -6.83,1.911 h -0.344 -11.907 v -22.75 h 9.434 c 1.419,0 2.634,0.074 3.644,0.222 1.01,0.147 1.919,0.355 2.727,0.623 0.807,0.269 1.496,0.569 2.063,0.903 0.568,0.334 1.076,0.692 1.523,1.075 0.776,0.635 1.457,1.386 2.041,2.252 0.586,0.865 1.05,1.867 1.395,3.008 0.344,1.139 0.517,2.377 0.517,3.715 z m -6.969,-0.297 c 0,-1.852 -0.353,-3.296 -1.057,-4.332 -0.704,-1.036 -1.55,-1.729 -2.538,-2.08 -0.988,-0.351 -1.995,-0.526 -3.021,-0.526 h -2.915 v 13.5 h 2.915 c 1.791,0 3.341,-0.427 4.651,-1.282 1.31,-0.855 1.965,-2.616 1.965,-5.28 z m -22.12,11.249 h -6.105 l -11.801,-12.656 v 12.656 h -6.781 v -22.75 h 6.077 l 11.767,12.625 v -12.625 h 6.844 v 22.75 z m -30.071,-10.2 c 0,1.946 -0.364,3.605 -1.09,4.979 -0.727,1.372 -1.688,2.457 -2.885,3.256 -1.197,0.799 -2.486,1.373 -3.869,1.723 -1.383,0.35 -2.762,0.524 -4.139,0.524 -1.924,0 -3.795,-0.327 -5.615,-0.983 -1.82,-0.656 -3.342,-1.771 -4.566,-3.348 -1.224,-1.574 -1.836,-3.625 -1.836,-6.15 v -12.55 h 6.844 v 10.79 c 0,1.5 0.216,2.74 0.647,3.721 0.431,0.981 1.033,1.697 1.804,2.151 0.771,0.454 1.68,0.682 2.729,0.682 1.005,0 1.896,-0.224 2.672,-0.673 0.776,-0.449 1.38,-1.16 1.812,-2.135 0.432,-0.975 0.648,-2.213 0.648,-3.713 v -10.823 h 6.844 z m -27.972,-1.183 c 0,2.119 -0.489,4.068 -1.467,5.85 -0.978,1.779 -2.434,3.194 -4.368,4.242 -1.934,1.049 -4.289,1.573 -7.064,1.573 -2.808,0 -5.185,-0.546 -7.129,-1.638 -1.945,-1.092 -3.39,-2.529 -4.335,-4.309 -0.945,-1.781 -1.417,-3.687 -1.417,-5.719 0,-2.041 0.47,-3.95 1.409,-5.725 0.939,-1.775 2.385,-3.205 4.335,-4.293 1.95,-1.086 4.33,-1.63 7.138,-1.63 2.098,0 3.969,0.312 5.613,0.935 1.645,0.622 2.997,1.466 4.057,2.53 1.06,1.065 1.863,2.305 2.409,3.719 0.546,1.416 0.819,2.904 0.819,4.465 z m -6.968,0 c 0,-0.85 -0.126,-1.626 -0.378,-2.329 -0.252,-0.703 -0.633,-1.313 -1.142,-1.831 -0.509,-0.518 -1.131,-0.921 -1.864,-1.21 -0.734,-0.289 -1.583,-0.434 -2.546,-0.434 -1.84,0 -3.286,0.534 -4.337,1.603 -1.051,1.069 -1.577,2.469 -1.577,4.201 0,1.734 0.528,3.137 1.585,4.211 1.057,1.074 2.5,1.61 4.329,1.61 1.259,0 2.333,-0.247 3.22,-0.743 0.887,-0.496 1.561,-1.184 2.021,-2.061 0.46,-0.877 0.689,-1.883 0.689,-3.017 z m -21.939,2.165 H 82.08 v 9.219 h -6.844 v -22.75 h 16.275 v 4.562 h -9.432 v 4.406 h 9.432 v 4.563 z"
         id="path4719" />
    </g>
    <text
       id="text4727"
       y="145.37096"
       x="68.79454"
       style="font-style:normal;font-variant:normal;font-weight:bold;font-stretch:normal;font-size:3.16529036px;font-family:'Lilita One';-inkscape-font-specification:'Lilita One Bold';font-variant-ligatures:discretionary-ligatures historical-ligatures;font-variant-caps:normal;font-variant-numeric:lining-nums tabular-nums slashed-zero;font-feature-settings:normal;text-align:center;writing-mode:lr-tb;text-anchor:middle;opacity:1;fill:#8eb349;fill-opacity:1;fill-rule:nonzero;stroke:none;stroke-width:1.18698859;stroke-linecap:butt;stroke-linejoin:round;stroke-miterlimit:4;stroke-dasharray:none;stroke-dashoffset:0;stroke-opacity:1"
       xml:space="preserve"><tspan
         id="tspan4723"
         style="font-style:normal;font-variant:normal;font-weight:bold;font-stretch:normal;font-family:Montserrat;-inkscape-font-specification:'Montserrat Bold';text-align:center;letter-spacing:0.71659607px;text-anchor:middle;fill:#8eb349;fill-opacity:1;stroke:none;stroke-width:1.18698859"
         y="145.37096"
         x="69.15284"
         sodipodi:role="line">SUSTAINABILITY</tspan><tspan
         id="tspan4725"
         style="font-style:normal;font-variant:normal;font-weight:bold;font-stretch:normal;font-family:Montserrat;-inkscape-font-specification:'Montserrat Bold';text-align:center;letter-spacing:0.71659607px;text-anchor:middle;fill:#8eb349;fill-opacity:1;stroke:none;stroke-width:1.18698859"
         y="149.37186"
         x="69.15284"
         sodipodi:role="line">INITIATIVE</tspan></text>
    <path
       sodipodi:nodetypes="ccccccc"
       inkscape:original-d="m 35.797994,128.15159 c 0,0 4.804583,-2.46094 7.030956,-3.51548 2.226373,-1.05455 10.765916,-1.47651 10.765916,-1.47651 l -0.781935,-1.72258 c 0,0 -7.757401,1.25376 -10.968308,1.72258 -3.210906,0.46884 -7.839527,3.90219 -7.839527,3.90219 z"
       inkscape:path-effect="#path-effect4731"
       inkscape:connector-curvature="0"
       id="path4729"
       d="m 35.797994,128.15159 c 2.168189,-1.48596 4.541278,-2.6725 7.030956,-3.51548 3.451671,-1.1687 7.127046,-1.67277 10.765916,-1.47651 l -0.781935,-1.72258 c -3.718623,-0.0576 -7.44635,0.52789 -10.968308,1.72258 -2.772689,0.94053 -5.417569,2.25704 -7.839527,3.90219 z"
       style="opacity:1;fill:#ffffff;fill-opacity:1;fill-rule:nonzero;stroke:none;stroke-width:0.39373404;stroke-linecap:butt;stroke-linejoin:round;stroke-miterlimit:4;stroke-dasharray:none;stroke-dashoffset:0;stroke-opacity:1" />
    <path
       sodipodi:nodetypes="cscscc"
       inkscape:original-d="m 84.599444,118.09429 c 0,0 3.749939,2.34354 8.085601,-1.33588 4.335662,-3.67944 11.443715,-5.76127 11.443715,-5.76127 0,0 -5.478668,0.50354 -9.041119,6.55027 -3.562451,6.04673 -9.785108,2.23432 -9.785108,2.23432 z"
       inkscape:path-effect="#path-effect4735"
       inkscape:connector-curvature="0"
       id="path4733"
       d="m 84.599444,118.09429 c 2.735184,-0.12566 5.455353,-0.57508 8.085601,-1.33588 4.125991,-1.19344 8.027635,-3.15771 11.443715,-5.76127 -2.50529,2.78977 -5.609647,5.03887 -9.041119,6.55027 -3.080394,1.35676 -6.421112,2.11958 -9.785108,2.23432 z"
       style="opacity:1;fill:#ffffff;fill-opacity:1;fill-rule:nonzero;stroke:none;stroke-width:0.39373404;stroke-linecap:butt;stroke-linejoin:round;stroke-miterlimit:4;stroke-dasharray:none;stroke-dashoffset:0;stroke-opacity:1" />
    <path
       sodipodi:nodetypes="csccccscc"
       inkscape:original-d="m 41.311467,120.76853 c 0,0 -3.205072,1.43895 -4.831828,2.42449 -1.312972,0.79546 -3.674799,1.33617 -4.68888,1.95055 -2.270477,1.37559 -8.648457,1.29263 -8.648457,1.29263 l 0.79899,4.74147 c 0,0 6.416076,-2.54576 8.570361,-3.12568 1.042608,-0.28067 2.770153,-1.57219 4.660266,-2.80473 2.015301,-1.31414 4.097106,-2.21238 4.097106,-2.21238 z"
       inkscape:path-effect="#path-effect4739"
       inkscape:connector-curvature="0"
       id="path4737"
       d="m 41.311467,120.76853 c -1.591612,0.84531 -3.202797,1.65376 -4.831828,2.42449 -1.531147,0.72442 -3.081305,1.41679 -4.68888,1.95055 -2.780064,0.92306 -5.719991,1.36247 -8.648457,1.29263 l 0.79899,4.74147 c 2.991253,-0.60696 5.890684,-1.6644 8.570361,-3.12568 1.591951,-0.86812 3.103146,-1.87558 4.660266,-2.80473 1.333247,-0.79556 2.700623,-1.53393 4.097106,-2.21238 z"
       style="opacity:1;fill:#8eb349;fill-opacity:1;fill-rule:nonzero;stroke:none;stroke-width:0.39373404;stroke-linecap:butt;stroke-linejoin:round;stroke-miterlimit:4;stroke-dasharray:none;stroke-dashoffset:0;stroke-opacity:1" />
    <path
       sodipodi:nodetypes="cssscssc"
       inkscape:original-d="m 138.21261,124.47025 c -8.78246,-4.31126 9.98376,-16.56871 11.34096,-23.43484 1.35719,-6.86616 17.22477,-3.73177 23.97116,-7.92327 6.74639,-4.19151 15.88475,16.56827 22.51189,10.31563 19.81567,-18.69586 12.23069,3.10845 12.23069,3.10845 0,0 -5.88329,7.41505 -8.31849,14.64065 -2.4352,7.22559 -16.79122,10.76201 -28.96689,17.34889 -12.17568,6.58686 -32.76932,-14.05551 -32.76932,-14.05551 z"
       inkscape:path-effect="#path-effect4777"
       inkscape:connector-curvature="0"
       id="path4775"
       d="m 138.21261,124.47025 c 0.70362,-8.85311 4.83482,-17.38978 11.34096,-23.43484 3.19559,-2.969121 6.95722,-5.357161 11.07675,-6.791372 4.11953,-1.434211 8.59994,-1.896743 12.89441,-1.131898 4.07991,0.726631 7.88903,2.522314 11.52734,4.50633 3.63831,1.984017 7.17403,4.18032 10.98455,5.8093 3.88345,1.66016 8.02583,2.71295 12.23069,3.10845 -2.02292,5.25818 -4.83709,10.21115 -8.31849,14.64065 -7.13953,9.08385 -17.4895,16.02274 -28.96689,17.34889 -6.17841,0.71388 -12.53913,-0.21544 -18.25503,-2.66712 -5.71591,-2.45169 -10.77322,-6.41982 -14.51429,-11.38839 z"
       style="opacity:1;fill:#8eb349;fill-opacity:1;fill-rule:nonzero;stroke:none;stroke-width:0.33532754;stroke-linecap:butt;stroke-linejoin:round;stroke-miterlimit:4;stroke-dasharray:none;stroke-dashoffset:0;stroke-opacity:1" />
    <text
       id="text4795"
       y="145.7869"
       x="168.93622"
       style="font-style:normal;font-variant:normal;font-weight:bold;font-stretch:normal;font-size:4.47712469px;font-family:'Lilita One';-inkscape-font-specification:'Lilita One Bold';font-variant-ligatures:discretionary-ligatures historical-ligatures;font-variant-caps:normal;font-variant-numeric:lining-nums tabular-nums slashed-zero;font-feature-settings:normal;text-align:center;writing-mode:lr-tb;text-anchor:middle;opacity:1;fill:#8eb349;fill-opacity:1;fill-rule:nonzero;stroke:none;stroke-width:1.67892826;stroke-linecap:butt;stroke-linejoin:round;stroke-miterlimit:4;stroke-dasharray:none;stroke-dashoffset:0;stroke-opacity:1"
       xml:space="preserve"><tspan
         id="tspan4791"
         style="font-style:normal;font-variant:normal;font-weight:bold;font-stretch:normal;font-family:Montserrat;-inkscape-font-specification:'Montserrat Bold';text-align:center;letter-spacing:1.01358461px;text-anchor:middle;fill:#8eb349;fill-opacity:1;stroke:none;stroke-width:1.67892826"
         y="145.7869"
         x="169.44301"
         sodipodi:role="line">SUSTAINABILITY</tspan><tspan
         id="tspan4793"
         style="font-style:normal;font-variant:normal;font-weight:bold;font-stretch:normal;font-family:Montserrat;-inkscape-font-specification:'Montserrat Bold';text-align:center;letter-spacing:1.01358461px;text-anchor:middle;fill:#8eb349;fill-opacity:1;stroke:none;stroke-width:1.67892826"
         y="151.44595"
         x="169.44301"
         sodipodi:role="line">INITIATIVE</tspan></text>
    <path
       sodipodi:nodetypes="ccccccc"
       inkscape:original-d="m 138.6377,127.0005 c 0,0 4.05355,-3.24544 5.94968,-4.14356 1.89611,-0.8981 2.47042,-1.00649 2.47042,-1.00649 l -0.62762,-2.08014 c 0,0 -0.483,0.31865 -3.2176,0.71793 -2.73458,0.39928 -6.6766,3.32335 -6.6766,3.32335 z"
       inkscape:path-effect="#path-effect4799"
       inkscape:connector-curvature="0"
       id="path4797"
       d="m 138.6377,127.0005 c 1.74202,-1.69046 3.76002,-3.09586 5.94968,-4.14356 0.80258,-0.38401 1.62799,-0.7203 2.47042,-1.00649 l -0.62762,-2.08014 c -1.0883,0.15941 -2.16476,0.3996 -3.2176,0.71793 -2.39087,0.72289 -4.65848,1.85162 -6.6766,3.32335 z"
       style="opacity:1;fill:#ffffff;fill-opacity:1;fill-rule:nonzero;stroke:none;stroke-width:0.33532754;stroke-linecap:butt;stroke-linejoin:round;stroke-miterlimit:4;stroke-dasharray:none;stroke-dashoffset:0;stroke-opacity:1" />
    <path
       sodipodi:nodetypes="cscscc"
       inkscape:original-d="m 190.0974,113.03731 c 0,0 2.32608,2.17885 6.0186,-0.95478 3.69251,-3.13363 8.38839,-3.2186 8.38839,-3.2186 0,0 -3.57917,-0.55474 -6.61316,4.59504 -3.034,5.14977 -7.51472,2.25251 -7.51472,2.25251 z"
       inkscape:path-effect="#path-effect4803"
       inkscape:connector-curvature="0"
       id="path4801"
       d="m 190.0974,113.03731 c 2.0283,-0.14815 4.04403,-0.46793 6.0186,-0.95478 2.91535,-0.71882 5.74047,-1.80281 8.38839,-3.2186 -1.94031,1.87148 -4.18242,3.42938 -6.61316,4.59504 -2.36749,1.13533 -4.91307,1.89836 -7.51472,2.25251 z"
       style="opacity:1;fill:#ffffff;fill-opacity:1;fill-rule:nonzero;stroke:none;stroke-width:0.33532754;stroke-linecap:butt;stroke-linejoin:round;stroke-miterlimit:4;stroke-dasharray:none;stroke-dashoffset:0;stroke-opacity:1" />
    <path
       sodipodi:nodetypes="csccccscc"
       inkscape:original-d="m 140.083,118.44841 c 0,0 -2.72964,1.2255 -4.11508,2.06487 -1.11821,0.67743 -3.1297,1.13795 -3.99334,1.66118 -1.93367,1.17154 -7.36555,1.1009 -7.36555,1.1009 l 1.14111,5.149 c 0,0 5.46431,-2.1681 7.29901,-2.66201 0.88796,-0.23903 2.35924,-1.33896 3.96898,-2.38868 1.71635,-1.1192 3.48933,-1.88418 3.48933,-1.88418 z"
       inkscape:path-effect="#path-effect4807"
       inkscape:connector-curvature="0"
       id="path4805"
       d="m 140.083,118.44841 c -1.35551,0.71993 -2.72769,1.40847 -4.11508,2.06487 -1.30402,0.61696 -2.62423,1.20661 -3.99334,1.66118 -2.36767,0.78612 -4.87149,1.16035 -7.36555,1.1009 l 1.14111,5.149 c 2.54752,-0.51692 5.01684,-1.41751 7.29901,-2.66201 1.35581,-0.73934 2.64284,-1.59736 3.96898,-2.38868 1.13547,-0.67754 2.3,-1.30637 3.48933,-1.88418 z"
       style="opacity:1;fill:#8eb349;fill-opacity:1;fill-rule:nonzero;stroke:none;stroke-width:0.33532754;stroke-linecap:butt;stroke-linejoin:round;stroke-miterlimit:4;stroke-dasharray:none;stroke-dashoffset:0;stroke-opacity:1" />
    <g
       id="g4833"
       transform="matrix(1.5374484,0,0,1.5374484,72.16446,-182.89032)">
      <circle
         id="circle4779"
         r="3.8625944"
         cy="186.27588"
         cx="62.460526"
         style="fill:#ffffff;stroke-width:0.08583543" />
      <path
         id="path4781"
         d="m 70.259015,185.43108 -2.188632,2.18854 c 1.770356,1.55731 2.887933,3.83916 2.887933,6.3823 0,4.69313 -3.804569,8.4977 -8.497793,8.4977 -4.693138,0 -8.497708,-3.80457 -8.497708,-8.4977 0,-2.54314 1.117578,-4.82498 2.887934,-6.3823 l -2.188632,-2.18863 c -2.328115,2.11945 -3.789377,5.1745 -3.789377,8.57093 0,6.3998 5.187979,11.58778 11.587783,11.58778 6.39989,0 11.587869,-5.18798 11.587869,-11.58778 0,-3.39634 -1.461348,-6.4514 -3.789377,-8.57084 z"
         inkscape:connector-curvature="0"
         style="fill:#ffffff;stroke-width:0.08583543" />
      <path
         id="path4783"
         d="m 61.688004,192.45696 -3.741051,-3.74113 c -1.491992,1.27517 -2.4391,3.16956 -2.4391,5.28609 0,3.57856 2.704074,6.52452 6.180151,6.90889 z m 5.286261,-3.74113 -3.741137,3.74105 v 8.45393 c 3.476163,-0.38446 6.18015,-3.33033 6.18015,-6.90889 0,-2.11653 -0.947108,-4.01084 -2.439013,-5.28609 z"
         inkscape:connector-curvature="0"
         style="fill:#ffffff;stroke-width:0.08583543" />
    </g>
    <path
       sodipodi:nodetypes="cssscssssc"
       inkscape:original-d="m 40.02742,262.22764 c -10.312181,-5.06222 9.812722,-14.46892 11.406313,-22.53099 1.593591,-8.06208 12.010885,-0.15566 19.932333,-5.07725 7.921455,-4.92157 14.465665,13.962 22.247106,6.62031 23.267098,-21.95226 16.450658,2.07284 16.450658,2.07284 0,0 -6.50254,9.50154 -9.3619,17.98567 -2.703885,8.02281 -1.34885,6.36105 -16.848102,12.43965 -0.453993,0.17805 -6.324933,2.23013 -13.005989,2.40201 -6.434144,0.16553 -13.688185,-1.54984 -14.069541,-1.34353 C 42.481949,282.5306 40.02742,262.22764 40.02742,262.22764 Z"
       inkscape:path-effect="#path-effect4709-5"
       inkscape:connector-curvature="0"
       id="path4707-3"
       d="m 40.02742,262.22764 c -0.1133,-8.75157 4.285954,-17.44146 11.406313,-22.53099 5.702847,-4.07631 12.962513,-5.82586 19.932333,-5.07725 7.70933,0.82804 14.785633,4.5118 22.247106,6.62031 5.338644,1.50863 10.904638,2.20997 16.450658,2.07284 -1.84651,6.55119 -5.05499,12.71517 -9.3619,17.98567 -4.470868,5.47114 -10.209445,10.02092 -16.848102,12.43965 -4.157753,1.51484 -8.586773,2.17361 -13.005989,2.40201 -4.727705,0.24435 -9.529256,-0.003 -14.069541,-1.34353 -6.839034,-2.01907 -12.900189,-6.56694 -16.750878,-12.56871 z"
       style="opacity:1;fill:#8eb349;fill-opacity:1;fill-rule:nonzero;stroke:none;stroke-width:0.39373404;stroke-linecap:butt;stroke-linejoin:round;stroke-miterlimit:4;stroke-dasharray:none;stroke-dashoffset:0;stroke-opacity:1" />
    <g
       id="g4986"
       transform="matrix(0.95424506,0,0,0.95424506,3.2253105,10.674073)">
      <circle
         style="fill:#ffffff;stroke-width:0.09843351"
         cx="70.490936"
         cy="241.80635"
         r="4.4295077"
         id="circle4711-6" />
      <path
         style="fill:#ffffff;stroke-width:0.09843351"
         inkscape:connector-curvature="0"
         d="m 79.434015,240.83757 -2.509858,2.50976 c 2.030191,1.78588 3.311796,4.40264 3.311796,7.31902 0,5.38196 -4.362967,9.74492 -9.745016,9.74492 -5.381951,0 -9.744918,-4.36296 -9.744918,-9.74492 0,-2.91638 1.281605,-5.53314 3.311796,-7.31902 l -2.509858,-2.50986 c -2.669812,2.43052 -4.345544,5.93397 -4.345544,9.82888 0,7.33911 5.94942,13.28853 13.288524,13.28853 7.339202,0 13.288622,-5.94942 13.288622,-13.28853 0,-3.89481 -1.67583,-7.39826 -4.345544,-9.82878 z"
         id="path4713-2" />
      <path
         style="fill:#ffffff;stroke-width:0.09843351"
         inkscape:connector-curvature="0"
         d="m 69.605035,248.89465 -4.290126,-4.29022 c -1.710971,1.46232 -2.797086,3.63475 -2.797086,6.06192 0,4.1038 3.10095,7.48213 7.087212,7.92292 z m 6.062126,-4.29022 -4.290224,4.29012 v 9.69472 c 3.98636,-0.44089 7.087213,-3.81912 7.087213,-7.92292 0,-2.42717 -1.086116,-4.5995 -2.796989,-6.06192 z"
         id="path4715-9" />
    </g>
    <path
       id="path4717-1"
       d="m 88.043896,269.21566 h -1.151968 l -0.304159,-0.75676 h -1.620314 l -0.309574,0.75676 h -1.151967 l 1.649942,-3.73122 h 1.243511 z m -1.714515,-1.40573 -0.546405,-1.36271 -0.551719,1.36271 z m -3.326364,1.40573 h -1.122732 v -3.73122 h 1.122732 z m -1.822988,-1.797 c 0,0.38202 -0.06959,0.68864 -0.208679,0.91996 -0.139087,0.23151 -0.30288,0.41883 -0.491282,0.56235 -0.267247,0.20976 -0.640999,0.31469 -1.121453,0.31469 h -0.0564 -1.95489 v -3.73122 h 1.548851 c 0.233091,0 0.432517,0.0121 0.598378,0.0365 0.165762,0.0242 0.314987,0.0585 0.447675,0.10247 0.132689,0.0442 0.245592,0.0936 0.338808,0.14863 0.09322,0.0548 0.176492,0.11379 0.25012,0.17679 0.127373,0.10414 0.239193,0.22708 0.335068,0.36883 0.09617,0.14174 0.172455,0.30593 0.228956,0.49256 0.0566,0.18663 0.08485,0.3895 0.08485,0.60842 z m -1.14429,-0.0484 c 0,-0.30308 -0.05788,-0.53932 -0.173538,-0.70882 -0.11566,-0.16951 -0.254648,-0.283 -0.416965,-0.34029 -0.162316,-0.0575 -0.327685,-0.0861 -0.496301,-0.0861 h -0.478879 v 2.20865 h 0.478879 c 0.294119,0 0.548668,-0.07 0.764041,-0.20976 0.215175,-0.13997 0.322763,-0.42779 0.322763,-0.86365 z m -3.444385,1.84543 h -2.810376 v -3.73122 h 2.764604 v 0.75055 h -1.641871 v 0.68293 h 1.566471 v 0.75056 h -1.566471 v 0.79672 h 1.687643 z m -3.757011,0 h -1.122831 v -2.16249 l -1.015341,1.25198 h -0.08889 l -1.018098,-1.25198 v 2.16249 h -1.092021 v -3.73122 h 1.019378 l 1.147242,1.39962 1.152558,-1.39962 h 1.018098 v 3.73122 z m -5.280859,0 h -1.122733 v -3.73122 h 1.122733 z m -1.617952,0 h -1.372655 l -1.426498,-1.7472 v 1.7472 h -1.122733 v -3.73122 h 1.122733 v 1.67032 l 1.351197,-1.67032 h 1.221953 l -1.388798,1.74719 z m -4.868619,0 H 59.94418 v -3.73122 h 1.122733 z m -1.644923,-3.73122 -1.6149,3.78043 h -0.651334 l -0.96898,-2.19939 -0.993194,2.19939 h -0.656748 l -1.582614,-3.78043 h 1.165452 l 0.775164,2.0671 0.888166,-2.0671 h 0.804792 l 0.872023,2.0671 0.810107,-2.0671 z"
       inkscape:connector-curvature="0"
       style="fill:#ffffff;stroke-width:0.09843351" />
    <text
       xml:space="preserve"
       style="font-style:normal;font-variant:normal;font-weight:bold;font-stretch:normal;font-size:5.57732487px;font-family:'Lilita One';-inkscape-font-specification:'Lilita One Bold';font-variant-ligatures:discretionary-ligatures historical-ligatures;font-variant-caps:normal;font-variant-numeric:lining-nums tabular-nums slashed-zero;font-feature-settings:normal;text-align:center;writing-mode:lr-tb;text-anchor:middle;opacity:1;fill:#8eb349;fill-opacity:1;fill-rule:nonzero;stroke:none;stroke-width:2.09150505;stroke-linecap:butt;stroke-linejoin:round;stroke-miterlimit:4;stroke-dasharray:none;stroke-dashoffset:0;stroke-opacity:1"
       x="70.436424"
       y="283.46323"
       id="text4945"><tspan
         sodipodi:role="line"
         x="71.067757"
         y="283.46323"
         style="font-style:normal;font-variant:normal;font-weight:bold;font-stretch:normal;font-family:Montserrat;-inkscape-font-specification:'Montserrat Bold';text-align:center;letter-spacing:1.26266098px;text-anchor:middle;fill:#8eb349;fill-opacity:1;stroke:none;stroke-width:2.09150505"
         id="tspan4941">SUSTAINABILITY</tspan><tspan
         sodipodi:role="line"
         x="71.067757"
         y="290.51291"
         style="font-style:normal;font-variant:normal;font-weight:bold;font-stretch:normal;font-family:Montserrat;-inkscape-font-specification:'Montserrat Bold';text-align:center;letter-spacing:1.26266098px;text-anchor:middle;fill:#8eb349;fill-opacity:1;stroke:none;stroke-width:2.09150505"
         id="tspan4943">INITIATIVE</tspan></text>
    <path
       sodipodi:nodetypes="ccccccc"
       inkscape:original-d="m 37.034213,264.81964 c 0,0 4.804583,-2.46094 7.030956,-3.51548 2.226373,-1.05455 10.765918,-1.47651 10.765918,-1.47651 l -0.781937,-1.72258 c 0,0 -7.757401,1.25376 -10.968308,1.72258 -3.210906,0.46884 -7.839527,3.90219 -7.839527,3.90219 z"
       inkscape:path-effect="#path-effect4731-7"
       inkscape:connector-curvature="0"
       id="path4729-3"
       d="m 37.034213,264.81964 c 2.168189,-1.48596 4.541278,-2.6725 7.030956,-3.51548 3.451671,-1.1687 7.127048,-1.67277 10.765918,-1.47651 l -0.781937,-1.72258 c -3.718623,-0.0575 -7.44635,0.52789 -10.968308,1.72258 -2.772689,0.94053 -5.417569,2.25704 -7.839527,3.90219 z"
       style="opacity:1;fill:#ffffff;fill-opacity:1;fill-rule:nonzero;stroke:none;stroke-width:0.39373404;stroke-linecap:butt;stroke-linejoin:round;stroke-miterlimit:4;stroke-dasharray:none;stroke-dashoffset:0;stroke-opacity:1" />
    <path
       sodipodi:nodetypes="cscscc"
       inkscape:original-d="m 85.835662,254.76234 c 0,0 3.74994,2.34354 8.085604,-1.33588 4.335661,-3.67944 11.443714,-5.76127 11.443714,-5.76127 0,0 -5.478667,0.50354 -9.04112,6.55027 -3.562451,6.04673 -9.785107,2.23432 -9.785107,2.23432 z"
       inkscape:path-effect="#path-effect4735-6"
       inkscape:connector-curvature="0"
       id="path4733-6"
       d="m 85.835662,254.76234 c 2.735185,-0.12566 5.455355,-0.57508 8.085604,-1.33588 4.125991,-1.19344 8.027644,-3.15771 11.443714,-5.76127 -2.50529,2.78977 -5.609648,5.03887 -9.04112,6.55027 -3.080394,1.35676 -6.421112,2.11958 -9.785107,2.23432 z"
       style="opacity:1;fill:#ffffff;fill-opacity:1;fill-rule:nonzero;stroke:none;stroke-width:0.39373404;stroke-linecap:butt;stroke-linejoin:round;stroke-miterlimit:4;stroke-dasharray:none;stroke-dashoffset:0;stroke-opacity:1" />
    <path
       sodipodi:nodetypes="csccccscc"
       inkscape:original-d="m 42.547686,257.43658 c 0,0 -3.205072,1.43895 -4.831828,2.42449 -1.312972,0.79546 -3.674799,1.33617 -4.68888,1.95055 -2.270477,1.37559 -8.648457,1.29263 -8.648457,1.29263 l 0.79899,4.74147 c 0,0 6.416076,-2.54576 8.570361,-3.12568 1.042608,-0.28067 2.770153,-1.57219 4.660266,-2.80473 2.015301,-1.31414 4.097106,-2.21238 4.097106,-2.21238 z"
       inkscape:path-effect="#path-effect4739-3"
       inkscape:connector-curvature="0"
       id="path4737-0"
       d="m 42.547686,257.43658 c -1.591612,0.84531 -3.202797,1.65376 -4.831828,2.42449 -1.531147,0.72442 -3.081305,1.41679 -4.68888,1.95055 -2.780064,0.92306 -5.719991,1.36247 -8.648457,1.29263 l 0.79899,4.74147 c 2.991253,-0.60696 5.890684,-1.6644 8.570361,-3.12568 1.591951,-0.86812 3.103146,-1.87558 4.660266,-2.80473 1.333247,-0.79556 2.700623,-1.53393 4.097106,-2.21238 z"
       style="opacity:1;fill:#8eb349;fill-opacity:1;fill-rule:nonzero;stroke:none;stroke-width:0.39373404;stroke-linecap:butt;stroke-linejoin:round;stroke-miterlimit:4;stroke-dasharray:none;stroke-dashoffset:0;stroke-opacity:1" />
    <path
       style="opacity:1;fill:#8eb349;fill-opacity:1;fill-rule:nonzero;stroke:none;stroke-width:0.39373404;stroke-linecap:butt;stroke-linejoin:round;stroke-miterlimit:4;stroke-dasharray:none;stroke-dashoffset:0;stroke-opacity:1"
       d="m 173.98291,266.1565 c -0.59679,-5.66635 1.00217,-11.5358 4.39048,-16.11652 4.06245,-5.4921 10.46007,-8.95039 17.12487,-10.44945 5.2047,-1.17065 10.66549,-1.23462 15.87716,-0.0954 3.85574,0.84282 7.54233,2.32735 11.12474,3.98368 3.1483,1.45562 6.24219,3.05291 9.51958,4.1884 3.59571,1.24578 7.38833,1.92131 11.19305,1.99368 -2.02425,5.58932 -4.92183,10.86138 -8.55537,15.56621 -4.20631,5.44647 -9.54615,10.21796 -15.9882,12.63809 -4.40368,1.65436 -9.16195,2.15604 -13.86589,2.20357 -4.73024,0.0478 -9.50624,-0.35793 -14.02277,-1.76448 -6.71446,-2.09103 -12.70883,-6.42605 -16.79765,-12.14776 z"
       id="path4947"
       inkscape:connector-curvature="0"
       inkscape:path-effect="#path-effect4949"
       inkscape:original-d="m 173.98291,266.1565 c -10.31218,-5.06222 2.79689,-8.05445 4.39048,-16.11652 0.93801,-4.74547 9.20016,-8.82033 17.12487,-10.44945 5.53857,-1.13859 12.61841,1.92924 15.87716,-0.0954 7.92144,-4.92158 3.34331,11.32538 11.12474,3.98368 2.85307,-2.69184 -2.20111,6.02864 9.51958,4.1884 17.27544,-2.71239 11.19305,1.99368 11.19305,1.99368 0,0 -5.69601,7.08208 -8.55537,15.56621 -2.70389,8.02281 -0.48895,6.55949 -15.9882,12.63809 -0.454,0.17805 -7.18484,2.03169 -13.86589,2.20357 -6.43415,0.16553 -13.64142,-1.97079 -14.02277,-1.76448 -14.29635,7.73425 -16.79765,-12.14776 -16.79765,-12.14776 z"
       sodipodi:nodetypes="cssssscsssscc" />
    <g
       id="g4995">
      <circle
         id="circle4951"
         r="4.0526795"
         cy="246.71478"
         cx="204.44713"
         style="fill:#ffffff;stroke-width:0.09005955" />
      <path
         id="path4953"
         d="m 212.62939,245.82841 -2.29633,2.29625 c 1.85747,1.63395 3.03005,4.02809 3.03005,6.69638 0,4.9241 -3.9918,8.91589 -8.91599,8.91589 -4.92409,0 -8.91589,-3.99179 -8.91589,-8.91589 0,-2.66829 1.17257,-5.06243 3.03005,-6.69638 l -2.29634,-2.29634 c -2.44268,2.22375 -3.97586,5.42915 -3.97586,8.99272 0,6.71475 5.44329,12.15804 12.15804,12.15804 6.71484,0 12.15813,-5.44329 12.15813,-12.15804 0,-3.56348 -1.53326,-6.76888 -3.97586,-8.99263 z"
         inkscape:connector-curvature="0"
         style="fill:#ffffff;stroke-width:0.09005955" />
      <path
         id="path4955"
         d="m 203.63659,253.20006 -3.92516,-3.92525 c -1.56541,1.33793 -2.55913,3.32554 -2.55913,5.54623 0,3.75467 2.83715,6.84561 6.48429,7.24889 z m 5.5464,-3.92525 -3.92524,3.92516 v 8.86996 c 3.64723,-0.40337 6.48429,-3.49422 6.48429,-7.24889 0,-2.22069 -0.99372,-4.20821 -2.55905,-5.54623 z"
         inkscape:connector-curvature="0"
         style="fill:#ffffff;stroke-width:0.09005955" />
    </g>
    <path
       style="fill:#ffffff;stroke-width:0.10045047"
       inkscape:connector-curvature="0"
       d="m 222.3515,273.5769 h -1.17556 l -0.3104,-0.77226 h -1.65351 l -0.31592,0.77226 h -1.17557 l 1.68375,-3.80768 h 1.26899 z m -1.74963,-1.43453 -0.55762,-1.39063 -0.56302,1.39063 z m -3.39454,1.43453 h -1.14574 v -3.80768 h 1.14574 z m -1.86034,-1.83383 c 0,0.38986 -0.0711,0.70276 -0.21295,0.93882 -0.14194,0.23626 -0.30909,0.42741 -0.50135,0.57387 -0.27273,0.21406 -0.65413,0.32114 -1.14443,0.32114 h -0.0575 -1.99495 v -3.80768 h 1.5806 c 0.23786,0 0.44137,0.0124 0.61063,0.0373 0.16916,0.0248 0.32144,0.0597 0.45685,0.10451 0.13541,0.0451 0.25062,0.0955 0.34576,0.15168 0.0951,0.056 0.1801,0.11612 0.25524,0.1804 0.12997,0.10629 0.24409,0.23174 0.34193,0.37639 0.0982,0.14465 0.17598,0.3122 0.23365,0.50266 0.0578,0.19045 0.0865,0.39748 0.0865,0.62088 z m -1.16773,-0.0494 c 0,-0.30928 -0.0591,-0.55036 -0.1771,-0.72333 -0.11803,-0.17299 -0.25986,-0.28881 -0.42551,-0.34726 -0.16564,-0.0587 -0.3344,-0.0879 -0.50647,-0.0879 h -0.48869 v 2.25391 h 0.48869 c 0.30015,0 0.55991,-0.0714 0.7797,-0.21406 0.21958,-0.14284 0.32938,-0.43656 0.32938,-0.88136 z m -3.51497,1.88325 h -2.86796 v -3.80768 h 2.82126 v 0.76594 h -1.67552 v 0.69693 h 1.59857 v 0.76594 h -1.59857 v 0.81304 h 1.72222 z m -3.83399,0 h -1.14584 v -2.2068 l -1.03614,1.27764 h -0.0907 l -1.03895,-1.27764 v 2.2068 h -1.1144 v -3.80768 h 1.04026 l 1.17075,1.42831 1.17617,-1.42831 h 1.03896 v 3.80768 z m -5.38906,0 h -1.14574 v -3.80768 h 1.14574 z m -1.65111,0 h -1.40078 l -1.45574,-1.783 v 1.783 h -1.14573 v -3.80768 h 1.14573 v 1.70455 l 1.37889,-1.70455 h 1.24699 l -1.41725,1.783 z m -4.96838,0 h -1.14574 v -3.80768 h 1.14574 z m -1.67863,-3.80768 -1.64799,3.85791 h -0.66468 l -0.98883,-2.24447 -1.01355,2.24447 h -0.67021 l -1.61504,-3.85791 h 1.18934 l 0.79104,2.10946 0.90637,-2.10946 h 0.82128 l 0.88989,2.10946 0.82671,-2.10946 z"
       id="path4957" />
    <text
       id="text4965"
       y="287.39209"
       x="204.38454"
       style="font-style:normal;font-variant:normal;font-weight:bold;font-stretch:normal;font-size:5.57732487px;font-family:'Lilita One';-inkscape-font-specification:'Lilita One Bold';font-variant-ligatures:discretionary-ligatures historical-ligatures;font-variant-caps:normal;font-variant-numeric:lining-nums tabular-nums slashed-zero;font-feature-settings:normal;text-align:center;writing-mode:lr-tb;text-anchor:middle;opacity:1;fill:#000000;fill-opacity:1;fill-rule:nonzero;stroke:none;stroke-width:2.09150505;stroke-linecap:butt;stroke-linejoin:round;stroke-miterlimit:4;stroke-dasharray:none;stroke-dashoffset:0;stroke-opacity:1;"
       xml:space="preserve"><tspan
         id="tspan4961"
         style="font-style:normal;font-variant:normal;font-weight:bold;font-stretch:normal;font-family:Montserrat;-inkscape-font-specification:'Montserrat Bold';text-align:center;letter-spacing:1.26266098px;text-anchor:middle;fill:#000000;fill-opacity:1;stroke:none;stroke-width:2.09150505;"
         y="287.39209"
         x="205.01587"
         sodipodi:role="line">SUSTAINABILITY</tspan><tspan
         id="tspan4963"
         style="font-style:normal;font-variant:normal;font-weight:bold;font-stretch:normal;font-family:Montserrat;-inkscape-font-specification:'Montserrat Bold';text-align:center;letter-spacing:1.26266098px;text-anchor:middle;fill:#000000;fill-opacity:1;stroke:none;stroke-width:2.09150505;"
         y="294.44177"
         x="205.01587"
         sodipodi:role="line">INITIATIVE</tspan></text>
    <path
       style="opacity:1;fill:#ffffff;fill-opacity:1;fill-rule:nonzero;stroke:none;stroke-width:0.39373404;stroke-linecap:butt;stroke-linejoin:round;stroke-miterlimit:4;stroke-dasharray:none;stroke-dashoffset:0;stroke-opacity:1"
       d="m 171.64451,269.54363 c 1.92972,-1.49075 4.02539,-2.76651 6.23583,-3.79612 3.67491,-1.71176 7.6679,-2.73771 11.7128,-3.00947 -0.18337,-0.24464 -0.35201,-0.50032 -0.50472,-0.76518 -0.15336,-0.26599 -0.29065,-0.54125 -0.41086,-0.82377 -3.97638,0.32272 -7.9071,1.20313 -11.64123,2.60742 -2.73695,1.02928 -5.36831,2.33906 -7.83953,3.90219 z"
       id="path4967"
       inkscape:connector-curvature="0"
       inkscape:path-effect="#path-effect4969"
       inkscape:original-d="m 171.64451,269.54363 c 0,0 4.00946,-2.74158 6.23583,-3.79612 2.22637,-1.05455 11.7128,-3.00947 11.7128,-3.00947 0,0 -0.34587,-0.4858 -0.50472,-0.76518 -0.14615,-0.25703 -0.41086,-0.82377 -0.41086,-0.82377 0,0 -8.43032,2.1386 -11.64123,2.60742 -3.2109,0.46884 -7.83953,3.90219 -7.83953,3.90219 z"
       sodipodi:nodetypes="cccscccc" />
    <path
       style="opacity:1;fill:#ffffff;fill-opacity:1;fill-rule:nonzero;stroke:none;stroke-width:0.45463213;stroke-linecap:butt;stroke-linejoin:round;stroke-miterlimit:4;stroke-dasharray:none;stroke-dashoffset:0;stroke-opacity:1"
       d="m 225.80437,257.841 c 2.26721,-0.26416 4.5177,-0.72295 6.67248,-1.47589 2.24004,-0.78274 4.36908,-1.8824 6.30392,-3.25603 -1.65741,1.90214 -3.71939,3.45002 -6.0086,4.51052 -2.57725,1.19394 -5.39742,1.76133 -8.20705,2.17807 -1.45844,0.21632 -2.92249,0.39476 -4.39019,0.53508 0.12538,-0.32837 0.22797,-0.66545 0.3068,-1.00799 0.0919,-0.39956 0.15153,-0.80655 0.17798,-1.2157 1.71826,0.0204 3.43782,-0.0692 5.14466,-0.26806 z"
       id="path4971"
       inkscape:connector-curvature="0"
       inkscape:path-effect="#path-effect4973"
       inkscape:original-d="m 225.80437,257.841 c 0.97717,-0.82927 5.71445,-0.88817 6.67248,-1.47589 3.9502,-2.4233 6.30392,-3.25603 6.30392,-3.25603 0,0 -2.56086,1.05628 -6.0086,4.51052 -0.86455,0.86618 -7.38236,0.77829 -8.20705,2.17807 -4.11345,6.98197 -4.39019,0.53508 -4.39019,0.53508 -0.26918,0.33322 0.0517,-0.2484 0.3068,-1.00799 0.1451,-0.43203 0.41434,-1.15657 0.17798,-1.2157 5.10391,-0.0722 -4.8534,8.00045 5.14466,-0.26806 z"
       sodipodi:nodetypes="cscsscscc" />
    <path
       style="opacity:1;fill:#8eb349;fill-opacity:1;fill-rule:nonzero;stroke:none;stroke-width:0.39373404;stroke-linecap:butt;stroke-linejoin:round;stroke-miterlimit:4;stroke-dasharray:none;stroke-dashoffset:0;stroke-opacity:1"
       d="m 176.57,261.43226 c -1.58832,0.85159 -3.19972,1.66015 -4.83183,2.42449 -1.60963,0.75381 -3.24581,1.46694 -4.95615,1.95055 -2.50765,0.70906 -5.15715,0.91244 -7.74364,0.5944 l -3.19449,5.71982 c 4.15952,-0.25225 8.26083,-1.42347 11.92629,-3.4058 1.595,-0.8626 3.10414,-1.87385 4.66027,-2.80473 1.33239,-0.79704 2.69985,-1.53545 4.0971,-2.21238 z"
       id="path4975"
       inkscape:connector-curvature="0"
       inkscape:path-effect="#path-effect4977"
       inkscape:original-d="m 176.57,261.43226 c 0,0 -3.20508,1.43895 -4.83183,2.42449 -1.31297,0.79546 -3.94207,1.33617 -4.95615,1.95055 -2.27048,1.37559 -7.74364,0.5944 -7.74364,0.5944 l -3.19449,5.71982 c 0,0 9.77201,-2.82588 11.92629,-3.4058 1.04261,-0.28067 2.77015,-1.57219 4.66027,-2.80473 2.0153,-1.31414 4.0971,-2.21238 4.0971,-2.21238 z"
       sodipodi:nodetypes="csccccscc" />
  </g>
</svg>
