<?xml version="1.0" encoding="UTF-8" standalone="no"?>
<!-- Created with Inkscape (http://www.inkscape.org/) -->

<svg
   xmlns:dc="http://purl.org/dc/elements/1.1/"
   xmlns:cc="http://creativecommons.org/ns#"
   xmlns:rdf="http://www.w3.org/1999/02/22-rdf-syntax-ns#"
   xmlns:svg="http://www.w3.org/2000/svg"
   xmlns="http://www.w3.org/2000/svg"
   xmlns:sodipodi="http://sodipodi.sourceforge.net/DTD/sodipodi-0.dtd"
   xmlns:inkscape="http://www.inkscape.org/namespaces/inkscape"
   width="152.29167mm"
   height="106.92522mm"
   viewBox="0 0 152.29167 106.92522"
   version="1.1"
   id="svg8"
   inkscape:version="0.92.1 r"
   sodipodi:docname="wikimedia-si-sticker.svg">
  <defs
     id="defs2">
    <inkscape:path-effect
       effect="spiro"
       id="path-effect4762"
       is_visible="true" />
    <inkscape:path-effect
       is_visible="true"
       id="path-effect4738"
       effect="spiro" />
    <inkscape:path-effect
       effect="spiro"
       id="path-effect4714"
       is_visible="true" />
    <inkscape:path-effect
       is_visible="true"
       id="path-effect4690"
       effect="spiro" />
    <inkscape:path-effect
       is_visible="true"
       id="path-effect4658"
       effect="spiro" />
    <inkscape:path-effect
       effect="spiro"
       id="path-effect4654"
       is_visible="true" />
    <inkscape:path-effect
       effect="spiro"
       id="path-effect4977"
       is_visible="true" />
    <inkscape:path-effect
       effect="spiro"
       id="path-effect4973"
       is_visible="true" />
    <inkscape:path-effect
       effect="spiro"
       id="path-effect4969"
       is_visible="true" />
    <inkscape:path-effect
       effect="spiro"
       id="path-effect4949"
       is_visible="true" />
    <inkscape:path-effect
       is_visible="true"
       id="path-effect4807"
       effect="spiro" />
    <inkscape:path-effect
       is_visible="true"
       id="path-effect4803"
       effect="spiro" />
    <inkscape:path-effect
       is_visible="true"
       id="path-effect4799"
       effect="spiro" />
    <inkscape:path-effect
       is_visible="true"
       id="path-effect4777"
       effect="spiro" />
    <inkscape:path-effect
       effect="spiro"
       id="path-effect4773"
       is_visible="true" />
    <inkscape:path-effect
       effect="spiro"
       id="path-effect4769"
       is_visible="true" />
    <inkscape:path-effect
       effect="spiro"
       id="path-effect4765"
       is_visible="true" />
    <inkscape:path-effect
       effect="spiro"
       id="path-effect4743"
       is_visible="true" />
    <inkscape:path-effect
       is_visible="true"
       id="path-effect4739"
       effect="spiro" />
    <inkscape:path-effect
       is_visible="true"
       id="path-effect4735"
       effect="spiro" />
    <inkscape:path-effect
       is_visible="true"
       id="path-effect4731"
       effect="spiro" />
    <inkscape:path-effect
       is_visible="true"
       id="path-effect4709"
       effect="spiro" />
    <inkscape:path-effect
       effect="spiro"
       id="path-effect4699"
       is_visible="true" />
    <inkscape:path-effect
       effect="spiro"
       id="path-effect4695"
       is_visible="true" />
    <inkscape:path-effect
       effect="spiro"
       id="path-effect4691"
       is_visible="true" />
    <inkscape:path-effect
       effect="spiro"
       id="path-effect4675"
       is_visible="true" />
    <inkscape:path-effect
       is_visible="true"
       id="path-effect4650"
       effect="spiro" />
    <inkscape:path-effect
       is_visible="true"
       id="path-effect4646"
       effect="spiro" />
    <inkscape:path-effect
       is_visible="true"
       id="path-effect4642"
       effect="spiro" />
    <inkscape:path-effect
       is_visible="true"
       id="path-effect4620"
       effect="spiro" />
    <inkscape:path-effect
       is_visible="true"
       id="path-effect4616"
       effect="spiro" />
    <inkscape:path-effect
       is_visible="true"
       id="path-effect4612"
       effect="spiro" />
    <inkscape:path-effect
       is_visible="true"
       id="path-effect4608"
       effect="spiro" />
    <inkscape:path-effect
       is_visible="true"
       id="path-effect4586"
       effect="spiro" />
    <inkscape:path-effect
       effect="spiro"
       id="path-effect4561"
       is_visible="true" />
    <inkscape:path-effect
       effect="spiro"
       id="path-effect4557"
       is_visible="true" />
    <inkscape:path-effect
       effect="spiro"
       id="path-effect4553"
       is_visible="true" />
    <inkscape:path-effect
       effect="spiro"
       id="path-effect4549"
       is_visible="true" />
    <inkscape:path-effect
       is_visible="true"
       id="path-effect4739-3"
       effect="spiro" />
    <inkscape:path-effect
       is_visible="true"
       id="path-effect4735-6"
       effect="spiro" />
    <inkscape:path-effect
       is_visible="true"
       id="path-effect4731-7"
       effect="spiro" />
    <inkscape:path-effect
       is_visible="true"
       id="path-effect4709-5"
       effect="spiro" />
  </defs>
  <sodipodi:namedview
     id="base"
     pagecolor="#ffffff"
     bordercolor="#666666"
     borderopacity="1.0"
     inkscape:pageopacity="0.0"
     inkscape:pageshadow="2"
     inkscape:zoom="1.4142136"
     inkscape:cx="262.04526"
     inkscape:cy="276.93339"
     inkscape:document-units="mm"
     inkscape:current-layer="layer1"
     showgrid="false"
     inkscape:snap-global="false"
     inkscape:window-width="1532"
     inkscape:window-height="1376"
     inkscape:window-x="1024"
     inkscape:window-y="30"
     inkscape:window-maximized="0"
     showguides="true"
     inkscape:guide-bbox="true"
     fit-margin-top="10"
     fit-margin-left="10"
     fit-margin-right="10"
     fit-margin-bottom="10" />
  <metadata
     id="metadata5">
    <rdf:RDF>
      <cc:Work
         rdf:about="">
        <dc:format>image/svg+xml</dc:format>
        <dc:type
           rdf:resource="http://purl.org/dc/dcmitype/StillImage" />
        <dc:title></dc:title>
      </cc:Work>
    </rdf:RDF>
  </metadata>
  <g
     inkscape:label="Layer 1"
     inkscape:groupmode="layer"
     id="layer1"
     transform="translate(-263.68046,-113.36552)">
    <text
       xml:space="preserve"
       style="font-style:normal;font-variant:normal;font-weight:bold;font-stretch:normal;font-size:13.11245632px;line-height:100%;font-family:Montserrat;-inkscape-font-specification:'Montserrat Bold';font-variant-ligatures:discretionary-ligatures historical-ligatures;font-variant-caps:normal;font-variant-numeric:lining-nums tabular-nums slashed-zero;font-feature-settings:normal;text-align:start;writing-mode:lr-tb;text-anchor:start;opacity:1;fill:#ffffff;fill-opacity:1;fill-rule:nonzero;stroke:none;stroke-width:4.91719007;stroke-linecap:butt;stroke-linejoin:round;stroke-miterlimit:4;stroke-dasharray:none;stroke-dashoffset:0;stroke-opacity:1"
       x="-13.697966"
       y="191.15495"
       id="text4545"><tspan
         sodipodi:role="line"
         id="tspan4543"
         x="-13.697966"
         y="201.56717"
         style="stroke-width:4.91719007" /></text>
    <path
       style="opacity:1;fill:#ffffff;fill-opacity:1;fill-rule:nonzero;stroke:#000000;stroke-width:0.01890587;stroke-linecap:butt;stroke-linejoin:round;stroke-miterlimit:4;stroke-dasharray:none;stroke-dashoffset:0;stroke-opacity:1"
       d="m 345.1579,123.37656 c -4.10446,0.0306 -8.19852,0.50422 -12.19649,1.40344 -10.3002,2.31675 -20.41486,7.65673 -27.08396,16.67269 -3.70025,5.00249 -6.18399,10.7684 -7.06196,16.99261 -0.58572,0.33758 -1.29129,0.73691 -1.18729,0.68821 -2.2712,1.06364 -2.43927,1.21572 -4.49113,1.79589 -2.67034,0.75506 -5.52298,0.97429 -8.27766,0.63559 a 6.02916,6.02916 0 0 0 -5.9991,3.0436 l -4.39512,7.86961 a 6.02916,6.02916 0 0 0 5.62792,8.95737 c 6.93801,-0.42077 13.04858,-2.82849 18.44654,-5.17437 1.62039,-0.70416 2.90581,-1.4794 3.97853,-2.18406 4.4736,5.31665 9.94037,9.59044 16.09326,12.63729 h -15.17116 c -2.42886,0 -4.38446,1.9556 -4.38446,4.38447 v 5.43884 c 0,2.42888 1.9556,4.38378 4.38446,4.38378 h 10.55632 v 5.04709 c 0,2.38918 1.9235,4.31268 4.31269,4.31268 h 56.16142 c 2.38919,0 4.31269,-1.9235 4.31269,-4.31268 v -5.04709 h 10.90398 c 2.42886,0 4.38448,-1.9549 4.38448,-4.38378 v -5.43884 c 0,-2.42887 -1.95562,-4.38447 -4.38448,-4.38447 h -16.37764 c 7.94031,-4.13201 14.4237,-10.36745 19.62102,-17.09713 5.38301,-6.97012 9.66832,-14.76761 12.66712,-23.04785 a 6.02916,6.02916 0 0 0 -5.554,-8.08003 c -4.59741,-0.0873 -9.1953,-0.90625 -13.54017,-2.41157 -3.96547,-1.37389 -8.04915,-3.4621 -12.53992,-5.53838 -5.11319,-2.36414 -10.58398,-4.59435 -16.54825,-5.8981 -4.03706,-0.88243 -8.15293,-1.29545 -12.25764,-1.26481 z"
       id="path4754"
       inkscape:connector-curvature="0" />
    <path
       style="opacity:1;fill:#8aae48;fill-opacity:1;fill-rule:nonzero;stroke:none;stroke-width:0.54169476;stroke-linecap:butt;stroke-linejoin:round;stroke-miterlimit:4;stroke-dasharray:none;stroke-dashoffset:0;stroke-opacity:1"
       d="m 345.20269,129.40479 c -3.67029,0.027 -7.337,0.45265 -10.91817,1.25698 -9.16954,2.05942 -17.96233,6.82763 -23.56045,14.37628 -3.65976,4.93493 -5.8487,10.94663 -6.21877,17.07935 -1.38869,0.91096 -2.83236,1.73813 -4.32048,2.47556 -1.73909,0.86178 -3.54207,1.60199 -5.40755,2.13785 -3.4469,0.99014 -7.09611,1.27018 -10.65372,0.81761 l -4.39514,7.8696 c 5.73014,-0.29003 11.3891,-1.90615 16.40821,-4.68593 2.18221,-1.2086 4.24004,-2.63041 6.4114,-3.85837 2.03173,-1.14898 4.15876,-2.12558 6.33677,-2.9647 5.12364,-1.97394 10.53968,-3.18689 16.01578,-3.58678 0.16543,0.38866 0.35422,0.76735 0.56519,1.13325 0.2102,0.36449 0.44229,0.71631 0.69462,1.05294 -4.20069,0.17961 -8.37061,1.05527 -12.2889,2.58007 -2.69524,1.04884 -5.27156,2.40318 -7.66344,4.02899 5.50698,6.93601 13.13241,12.16649 21.58613,14.80643 6.21228,1.93999 12.78405,2.49503 19.29187,2.42791 6.47178,-0.0667 13.01833,-0.75637 19.07715,-3.03222 8.86299,-3.32921 16.20947,-9.89393 21.99633,-17.38721 4.99877,-6.47278 8.98505,-13.72592 11.76992,-21.41549 -5.23452,-0.0998 -10.45235,-1.02908 -15.39937,-2.74288 -4.50892,-1.56202 -8.76548,-3.75922 -13.09655,-5.7623 -4.92853,-2.2794 -10.00022,-4.32345 -15.30552,-5.48079 -3.58431,-0.78189 -7.25681,-1.15324 -10.92531,-1.12615 z m 1.3935,5.48291 a 5.5756296,5.5756296 0 0 1 5.57604,5.57604 5.5756296,5.5756296 0 0 1 -5.57604,5.57534 5.5756296,5.5756296 0 0 1 -5.57536,-5.57534 5.5756296,5.5756296 0 0 1 5.57536,-5.57604 z m -11.25663,4.35605 3.15881,3.15949 c -2.55551,2.24796 -4.16835,5.54159 -4.16835,9.2126 0,6.77452 5.49165,12.26688 12.26617,12.26688 6.77465,0 12.26688,-5.49236 12.26688,-12.26688 0,-3.67101 -1.6136,-6.96464 -4.16907,-9.2126 l 3.15948,-3.15949 c 3.36051,3.0594 5.47013,7.4695 5.47013,12.37209 0,9.23807 -7.48922,16.72672 -16.72742,16.72672 -9.23807,0 -16.72672,-7.48865 -16.72672,-16.72672 0,-4.90273 2.10952,-9.31269 5.47009,-12.37209 z m 4.74138,4.74208 5.40046,5.39972 v 12.20361 c -5.01769,-0.55483 -8.92113,-4.80769 -8.92113,-9.97332 0,-3.05521 1.36701,-5.7893 3.52067,-7.63001 z m 13.03115,0 c 2.15361,1.84084 3.52067,4.5748 3.52067,7.63001 0,5.16563 -3.90328,9.41837 -8.92109,9.97332 v -12.20361 z m 39.81939,5.95002 c -1.93247,1.77824 -4.09337,3.30797 -6.41286,4.53946 -2.93169,1.55652 -6.10217,2.63117 -9.33202,3.39625 -2.93909,0.69621 -5.93775,1.14082 -8.9524,1.32737 0.17261,-0.45186 0.31383,-0.91571 0.42231,-1.38709 0.12649,-0.54958 0.20833,-1.10942 0.24455,-1.67217 2.6497,0.0671 5.30425,-0.0616 7.93502,-0.38464 2.88993,-0.35484 5.75909,-0.94641 8.50376,-1.91815 2.68995,-0.95238 5.25109,-2.26866 7.59164,-3.90103 z m -70.9679,22.24588 h 1.63663 l 1.08779,2.90213 1.24703,-2.90213 h 1.13042 l 1.22424,2.90213 1.13753,-2.90213 h 1.61746 l -2.26725,5.3073 h -0.91501 l -1.36005,-3.08769 -1.39489,3.08769 h -0.92142 z m 9.8141,0 h 1.5762 v 5.23835 h -1.5762 z m 2.90568,0 h 1.5762 v 2.34475 l 1.89682,-2.34475 h 1.71556 l -1.95016,2.45281 2.26725,2.78554 h -1.92672 l -2.00275,-2.45281 v 2.45281 h -1.5762 z m 6.20095,0 h 1.57622 v 5.23835 h -1.57622 z m 2.90146,0 h 1.43116 l 1.61102,1.9651 1.61814,-1.9651 h 1.42904 v 5.23835 h -1.5762 v -3.03579 l -1.42621,1.75749 h -0.1244 l -1.42972,-1.75749 v 3.03579 h -1.53281 z m 7.41814,0 h 3.8818 v 1.05365 h -2.30562 v 0.95907 h 2.19971 v 1.05365 h -2.19971 v 1.11833 h 2.36962 v 1.05365 h -3.9458 z m 5.00725,0 h 2.17484 c 0.32724,0 0.60676,0.017 0.83965,0.0512 0.23271,0.034 0.44217,0.0821 0.62846,0.14368 0.18623,0.062 0.34545,0.13178 0.47636,0.20903 0.13082,0.0769 0.24711,0.15975 0.35049,0.24812 0.17885,0.14614 0.33605,0.31856 0.47066,0.51756 0.13518,0.19903 0.242,0.42973 0.32137,0.69177 0.0796,0.26202 0.11948,0.54651 0.11948,0.85386 0,0.53636 -0.0977,0.96704 -0.29293,1.29182 -0.19524,0.32503 -0.42585,0.58837 -0.69031,0.78987 -0.3752,0.2945 -0.89954,0.44151 -1.57408,0.44151 h -0.0788 -2.74502 z m 6.36451,0 h 1.57622 v 5.23835 h -1.57622 z m 4.59849,0 h 1.74611 l 2.30848,5.23835 h -1.61743 l -0.42659,-1.06217 h -2.27506 l -0.43438,1.06217 h -1.61746 z m -9.38678,1.05365 v 3.10118 h 0.67258 c 0.41292,0 0.77043,-0.0987 1.07281,-0.29504 0.3021,-0.19651 0.45289,-0.60023 0.45289,-1.21217 0,-0.42552 -0.0815,-0.75739 -0.24388,-0.99536 -0.16241,-0.23798 -0.35719,-0.39734 -0.5851,-0.47775 -0.22788,-0.0807 -0.46,-0.12081 -0.69672,-0.12081 z m 10.26695,0.29788 -0.77426,1.9132 h 1.54138 z"
       id="path4760"
       inkscape:connector-curvature="0" />
    <g
       transform="matrix(1.3757884,0,0,1.3757884,65.320303,-198.96385)"
       id="g4770" />
    <path
       d="m 371.69703,201.8283 v 1.06783 h 2.56273 v 1.07529 h -2.56273 v 1.07905 h 2.92241 v 1.07529 h -4.28995 v -5.37275 h 4.20754 v 1.07529 z m -7.15112,4.29746 -2.08691,-5.37275 h 1.45747 l 1.37503,3.95277 1.3713,-3.95277 h 1.40501 l -2.10939,5.37275 z m -5.72364,0 v -5.37275 h 1.36756 v 5.37275 z m -3.94019,-4.27496 v 4.27496 h -1.36754 v -4.27496 h -1.60359 v -1.10529 h 4.5897 v 1.10529 z m -8.33883,3.28584 -0.38965,0.98912 h -1.40501 l 2.31546,-5.37275 h 1.40501 l 2.26299,5.37275 h -1.45745 l -0.38218,-0.98912 z m 1.1802,-3.02358 -0.78304,1.98574 h 1.55113 z m -6.5816,4.0127 v -5.37275 h 1.36751 v 5.37275 z m -3.94021,-4.27496 v 4.27496 h -1.36756 v -4.27496 h -1.60358 v -1.10529 h 4.58969 v 1.10529 z m -6.6678,4.27496 v -5.37275 h 1.36754 v 5.37275 z m -4.00765,0 -2.47281,-3.30832 v 3.30832 H 322.772 v -5.37275 h 1.20644 l 2.47655,3.31581 v -3.31581 h 1.27388 v 5.37275 z m -7.93418,0 v -5.37275 h 1.36753 v 5.37275 z m 69.64402,-9.69888 h -1.36005 v -1.69726 l -1.98574,-3.6755 h 1.36382 l 1.29633,2.34168 1.26638,-2.34168 h 1.36755 l -1.94829,3.63803 z m -6.71273,-4.27498 v 4.27498 h -1.36756 v -4.27498 h -1.60357 v -1.10527 h 4.5897 v 1.10527 z m -6.66782,4.27498 v -5.37276 h 1.36754 v 5.37276 z m -2.39282,-1.14275 v 1.14275 h -3.64552 v -5.37276 h 1.36754 v 4.23001 z m -7.82551,1.14275 v -5.37276 h 1.36753 v 5.37276 z m -4.68206,-5.37276 q 0.59947,0 1.04532,0.16486 0.44586,0.16486 0.68564,0.46833 0.24355,0.30348 0.24355,0.71186 0,0.42338 -0.24729,0.74185 -0.24353,0.31473 -0.67441,0.43837 0.50581,0.10115 0.80554,0.46834 0.29975,0.36717 0.29975,0.89171 0,0.45335 -0.25479,0.79055 -0.25101,0.33719 -0.71561,0.51704 -0.46459,0.17979 -1.09402,0.17979 h -2.63393 v -5.37276 z m -1.18022,2.1506 h 1.1053 q 0.29971,0 0.47582,-0.14993 0.17601,-0.14992 0.17601,-0.41213 0,-0.25477 -0.17601,-0.39715 -0.17601,-0.14614 -0.47582,-0.14614 h -1.1053 z m 0,2.16933 h 1.1053 q 0.38216,0 0.59946,-0.16108 0.22105,-0.16108 0.22105,-0.44211 0,-0.26977 -0.22105,-0.42714 -0.2173,-0.1573 -0.59946,-0.1573 h -1.1053 z m -7.78055,0.0637 -0.38965,0.98914 h -1.40501 l 2.31544,-5.37276 h 1.405 l 2.26302,5.37276 h -1.45747 l -0.38215,-0.98914 z m 1.18019,-3.02357 -0.78304,1.98574 h 1.55113 z m -6.40925,4.01271 -2.47282,-3.30834 v 3.30834 h -1.28136 v -5.37276 h 1.20642 l 2.47656,3.31582 v -3.31582 h 1.27389 v 5.37276 z m -7.93419,0 v -5.37276 h 1.36755 v 5.37276 z m -6.42051,-0.98914 -0.38965,0.98914 h -1.40501 l 2.31544,-5.37276 h 1.40501 l 2.26299,5.37276 h -1.45745 l -0.38216,-0.98914 z m 1.1802,-3.02357 -0.78306,1.98574 h 1.55113 z m -5.77234,-0.26227 v 4.27498 h -1.36754 v -4.27498 h -1.60359 v -1.10527 h 4.5897 v 1.10527 z m -7.10615,-1.15773 q 0.57699,0 1.13524,0.16107 0.562,0.16108 0.98538,0.43837 l -0.51704,1.06406 q -0.42338,-0.24729 -0.90671,-0.40091 -0.47956,-0.1573 -0.80928,-0.1573 -0.26975,0 -0.43087,0.10115 -0.16107,0.0974 -0.16107,0.2885 0,0.25476 0.24727,0.38965 0.25103,0.1348 0.7868,0.2885 0.562,0.16108 0.92168,0.3222 0.35969,0.16107 0.62197,0.48332 0.26226,0.32222 0.26226,0.85799 0,0.5208 -0.28474,0.89546 -0.28476,0.37093 -0.77183,0.55825 -0.48708,0.18736 -1.09405,0.18736 -0.66688,0 -1.31881,-0.22856 -0.65194,-0.23229 -1.13526,-0.62945 l 0.5283,-1.05283 q 0.40839,0.35222 0.95913,0.58075 0.55451,0.22481 0.98165,0.22481 0.3297,0 0.5133,-0.11608 0.18735,-0.11986 0.18735,-0.35218 0,-0.26228 -0.25853,-0.39715 -0.25852,-0.13858 -0.80178,-0.28474 -0.55077,-0.15352 -0.91045,-0.30724 -0.35594,-0.15371 -0.61446,-0.46834 -0.25478,-0.31473 -0.25478,-0.828 0,-0.49084 0.26227,-0.85426 0.26602,-0.36343 0.75309,-0.562 0.48707,-0.20233 1.12401,-0.20233 z m -4.77946,3.17718 q 0,0.7044 -0.29975,1.22892 -0.29973,0.52078 -0.85424,0.80554 -0.55077,0.281 -1.29636,0.281 -0.75307,0 -1.31133,-0.281 -0.55825,-0.28476 -0.86174,-0.80554 -0.30348,-0.52452 -0.30348,-1.22892 v -3.11723 h 1.36379 v 3.11723 q 0,0.53578 0.31098,0.85425 0.31097,0.31848 0.80927,0.31848 0.49081,0 0.78682,-0.31472 0.29599,-0.31473 0.29599,-0.85801 v -3.11723 h 1.36005 z m -9.45535,-3.17718 q 0.57699,0 1.13526,0.16107 0.562,0.16108 0.98537,0.43837 l -0.51705,1.06406 q -0.42336,-0.24729 -0.90669,-0.40091 -0.47958,-0.1573 -0.80928,-0.1573 -0.26977,0 -0.43087,0.10115 -0.16108,0.0974 -0.16108,0.2885 0,0.25476 0.24729,0.38965 0.25103,0.1348 0.78681,0.2885 0.56199,0.16108 0.92168,0.3222 0.35968,0.16107 0.62194,0.48332 0.26227,0.32222 0.26227,0.85799 0,0.5208 -0.28474,0.89546 -0.28475,0.37093 -0.77182,0.55825 -0.48707,0.18736 -1.09402,0.18736 -0.66693,0 -1.31886,-0.22856 -0.65191,-0.23229 -1.13524,-0.62945 l 0.52829,-1.05283 q 0.40838,0.35222 0.95915,0.58075 0.55451,0.22481 0.98163,0.22481 0.32972,0 0.51329,-0.11608 0.18736,-0.11986 0.18736,-0.35218 0,-0.26228 -0.25852,-0.39715 -0.25852,-0.13858 -0.8018,-0.28474 -0.55074,-0.15352 -0.91043,-0.30724 -0.35594,-0.15371 -0.61446,-0.46834 -0.25479,-0.31473 -0.25479,-0.828 0,-0.49084 0.26228,-0.85426 0.26603,-0.36343 0.75308,-0.562 0.48707,-0.20233 1.12401,-0.20233 z"
       style="font-style:normal;font-variant:normal;font-weight:bold;font-stretch:normal;font-size:medium;font-family:Montserrat;-inkscape-font-specification:'Montserrat Bold';font-variant-ligatures:discretionary-ligatures historical-ligatures;font-variant-caps:normal;font-variant-numeric:lining-nums tabular-nums slashed-zero;font-feature-settings:normal;text-align:center;letter-spacing:1.26266098px;writing-mode:lr-tb;text-anchor:middle;fill:#333333;fill-opacity:1;fill-rule:nonzero;stroke:none;stroke-width:2.87746859;stroke-linecap:butt;stroke-linejoin:round;stroke-miterlimit:4;stroke-dasharray:none;stroke-dashoffset:0;stroke-opacity:1"
       id="path4774"
       inkscape:connector-curvature="0" />
  </g>
</svg>
