<?xml version="1.0" encoding="UTF-8" standalone="no"?>
<!-- Created with Inkscape (http://www.inkscape.org/) -->

<svg
   xmlns:dc="http://purl.org/dc/elements/1.1/"
   xmlns:cc="http://creativecommons.org/ns#"
   xmlns:rdf="http://www.w3.org/1999/02/22-rdf-syntax-ns#"
   xmlns:svg="http://www.w3.org/2000/svg"
   xmlns="http://www.w3.org/2000/svg"
   xmlns:sodipodi="http://sodipodi.sourceforge.net/DTD/sodipodi-0.dtd"
   xmlns:inkscape="http://www.inkscape.org/namespaces/inkscape"
   width="118.25282mm"
   height="118.25282mm"
   viewBox="0 0 118.25282 118.25283"
   version="1.1"
   id="svg8"
   inkscape:version="0.92.1 r"
   sodipodi:docname="wikimedia-si-square-2.svg">
  <defs
     id="defs2">
    <inkscape:path-effect
       effect="spiro"
       id="path-effect4572"
       is_visible="true" />
    <inkscape:path-effect
       effect="spiro"
       id="path-effect4570"
       is_visible="true" />
    <inkscape:path-effect
       effect="spiro"
       id="path-effect4762"
       is_visible="true" />
    <inkscape:path-effect
       is_visible="true"
       id="path-effect4738"
       effect="spiro" />
    <inkscape:path-effect
       effect="spiro"
       id="path-effect4714"
       is_visible="true" />
    <inkscape:path-effect
       is_visible="true"
       id="path-effect4690"
       effect="spiro" />
    <inkscape:path-effect
       is_visible="true"
       id="path-effect4658"
       effect="spiro" />
    <inkscape:path-effect
       effect="spiro"
       id="path-effect4654"
       is_visible="true" />
    <inkscape:path-effect
       effect="spiro"
       id="path-effect4977"
       is_visible="true" />
    <inkscape:path-effect
       effect="spiro"
       id="path-effect4973"
       is_visible="true" />
    <inkscape:path-effect
       effect="spiro"
       id="path-effect4969"
       is_visible="true" />
    <inkscape:path-effect
       effect="spiro"
       id="path-effect4949"
       is_visible="true" />
    <inkscape:path-effect
       is_visible="true"
       id="path-effect4807"
       effect="spiro" />
    <inkscape:path-effect
       is_visible="true"
       id="path-effect4803"
       effect="spiro" />
    <inkscape:path-effect
       is_visible="true"
       id="path-effect4799"
       effect="spiro" />
    <inkscape:path-effect
       is_visible="true"
       id="path-effect4777"
       effect="spiro" />
    <inkscape:path-effect
       effect="spiro"
       id="path-effect4773"
       is_visible="true" />
    <inkscape:path-effect
       effect="spiro"
       id="path-effect4769"
       is_visible="true" />
    <inkscape:path-effect
       effect="spiro"
       id="path-effect4765"
       is_visible="true" />
    <inkscape:path-effect
       effect="spiro"
       id="path-effect4743"
       is_visible="true" />
    <inkscape:path-effect
       is_visible="true"
       id="path-effect4739"
       effect="spiro" />
    <inkscape:path-effect
       is_visible="true"
       id="path-effect4735"
       effect="spiro" />
    <inkscape:path-effect
       is_visible="true"
       id="path-effect4731"
       effect="spiro" />
    <inkscape:path-effect
       is_visible="true"
       id="path-effect4709"
       effect="spiro" />
    <inkscape:path-effect
       effect="spiro"
       id="path-effect4699"
       is_visible="true" />
    <inkscape:path-effect
       effect="spiro"
       id="path-effect4695"
       is_visible="true" />
    <inkscape:path-effect
       effect="spiro"
       id="path-effect4691"
       is_visible="true" />
    <inkscape:path-effect
       effect="spiro"
       id="path-effect4675"
       is_visible="true" />
    <inkscape:path-effect
       is_visible="true"
       id="path-effect4650"
       effect="spiro" />
    <inkscape:path-effect
       is_visible="true"
       id="path-effect4646"
       effect="spiro" />
    <inkscape:path-effect
       is_visible="true"
       id="path-effect4642"
       effect="spiro" />
    <inkscape:path-effect
       is_visible="true"
       id="path-effect4620"
       effect="spiro" />
    <inkscape:path-effect
       is_visible="true"
       id="path-effect4616"
       effect="spiro" />
    <inkscape:path-effect
       is_visible="true"
       id="path-effect4612"
       effect="spiro" />
    <inkscape:path-effect
       is_visible="true"
       id="path-effect4608"
       effect="spiro" />
    <inkscape:path-effect
       is_visible="true"
       id="path-effect4586"
       effect="spiro" />
    <inkscape:path-effect
       effect="spiro"
       id="path-effect4561"
       is_visible="true" />
    <inkscape:path-effect
       effect="spiro"
       id="path-effect4557"
       is_visible="true" />
    <inkscape:path-effect
       effect="spiro"
       id="path-effect4553"
       is_visible="true" />
    <inkscape:path-effect
       effect="spiro"
       id="path-effect4549"
       is_visible="true" />
    <inkscape:path-effect
       is_visible="true"
       id="path-effect4739-3"
       effect="spiro" />
    <inkscape:path-effect
       is_visible="true"
       id="path-effect4735-6"
       effect="spiro" />
    <inkscape:path-effect
       is_visible="true"
       id="path-effect4731-7"
       effect="spiro" />
    <inkscape:path-effect
       is_visible="true"
       id="path-effect4709-5"
       effect="spiro" />
  </defs>
  <sodipodi:namedview
     id="base"
     pagecolor="#ffffff"
     bordercolor="#666666"
     borderopacity="1.0"
     inkscape:pageopacity="0.0"
     inkscape:pageshadow="2"
     inkscape:zoom="1.4142135"
     inkscape:cx="251.19209"
     inkscape:cy="247.94612"
     inkscape:document-units="mm"
     inkscape:current-layer="layer1"
     showgrid="false"
     inkscape:snap-global="false"
     inkscape:window-width="2556"
     inkscape:window-height="1376"
     inkscape:window-x="0"
     inkscape:window-y="30"
     inkscape:window-maximized="0"
     showguides="true"
     inkscape:guide-bbox="true"
     fit-margin-top="0"
     fit-margin-left="0"
     fit-margin-right="0"
     fit-margin-bottom="0" />
  <metadata
     id="metadata5">
    <rdf:RDF>
      <cc:Work
         rdf:about="">
        <dc:format>image/svg+xml</dc:format>
        <dc:type
           rdf:resource="http://purl.org/dc/dcmitype/StillImage" />
        <dc:title></dc:title>
      </cc:Work>
    </rdf:RDF>
  </metadata>
  <g
     inkscape:label="Layer 1"
     inkscape:groupmode="layer"
     id="layer1"
     transform="translate(-291.34702,-105.7801)">
    <rect
       style="opacity:1;fill:#ffffff;fill-opacity:1;fill-rule:nonzero;stroke:none;stroke-width:0.11593769;stroke-linecap:butt;stroke-linejoin:round;stroke-miterlimit:4;stroke-dasharray:none;stroke-dashoffset:0;stroke-opacity:0.98431373"
       id="rect4531"
       width="118.25282"
       height="118.25282"
       x="291.34702"
       y="105.7801" />
    <text
       xml:space="preserve"
       style="font-style:normal;font-variant:normal;font-weight:bold;font-stretch:normal;font-size:14.43139553px;line-height:100%;font-family:Montserrat;-inkscape-font-specification:'Montserrat Bold';font-variant-ligatures:discretionary-ligatures historical-ligatures;font-variant-caps:normal;font-variant-numeric:lining-nums tabular-nums slashed-zero;font-feature-settings:normal;text-align:start;writing-mode:lr-tb;text-anchor:start;opacity:1;fill:#ffffff;fill-opacity:1;fill-rule:nonzero;stroke:none;stroke-width:5.41179466;stroke-linecap:butt;stroke-linejoin:round;stroke-miterlimit:4;stroke-dasharray:none;stroke-dashoffset:0;stroke-opacity:1"
       x="-46.061749"
       y="191.61107"
       id="text4545"><tspan
         sodipodi:role="line"
         id="tspan4543"
         x="-46.061749"
         y="203.07062"
         style="stroke-width:5.41179466" /></text>
    <path
       style="opacity:1;fill:#8aae48;fill-opacity:1;fill-rule:nonzero;stroke:none;stroke-width:2.2532866;stroke-linecap:butt;stroke-linejoin:round;stroke-miterlimit:4;stroke-dasharray:none;stroke-dashoffset:0;stroke-opacity:1"
       d="m 287.4707,37.800781 c -15.26736,0.11263 -30.51934,1.882765 -45.41601,5.228516 -38.14243,8.566715 -74.71733,28.400655 -98.00391,59.800783 -15.22352,20.52775 -24.32974,45.53462 -25.86914,71.04492 -5.77659,3.78928 -11.78052,7.2314 -17.9707,10.29883 -7.234132,3.58473 -14.734357,6.66352 -22.494143,8.89258 -2.61867,0.75223 -5.265413,1.40591 -7.93278,1.96048 l 0.0099,21.35973 c 4.629654,-2.00485 9.162815,-4.2322 13.577164,-6.67568 9.078501,-5.02522 17.640629,-10.93765 26.669929,-16.05078 8.44886,-4.78447 17.29198,-8.85971 26.35937,-12.33204 15.77862,-6.04236 32.25517,-10.26095 48.99609,-12.54492 0.15383,1.69977 0.4104,3.39009 0.76954,5.0586 0.34847,1.61941 0.79297,3.21812 1.33007,4.78515 -10.35722,1.4041 -20.55834,3.96079 -30.35351,7.60743 -11.28114,4.19984 -22.02187,9.84742 -31.87696,16.75976 22.90731,28.85174 54.62603,50.60846 89.79102,61.58984 25.84127,8.06975 53.17748,10.37877 80.24805,10.09961 26.92074,-0.27779 54.15267,-3.14639 79.35547,-12.61328 36.86755,-13.84849 67.42642,-41.15641 91.49804,-72.32617 20.79341,-26.92486 37.37489,-57.09574 48.95899,-89.08203 C 493.34322,100.24734 471.63864,96.382738 451.06055,89.253906 432.30475,82.756369 414.5999,73.615361 396.58398,65.283203 376.08284,55.801691 354.98648,47.300501 332.91797,42.486328 318.00834,39.233856 302.73055,37.688151 287.4707,37.800781 Z m 6.56446,32.103516 c 15.67492,-0.0015 28.38232,12.705939 28.38086,28.380859 -7e-4,15.673394 -12.70747,28.378414 -28.38086,28.376954 -15.67187,-7e-4 -28.37626,-12.70508 -28.37696,-28.376954 -0.001,-15.673397 12.70356,-28.380164 28.37696,-28.380859 z m -57.29297,22.169922 16.07812,16.082031 c -13.00675,11.44146 -21.21679,28.20439 -21.21679,46.88867 0,34.48022 27.95142,62.43555 62.43164,62.43555 34.48085,0 62.43554,-27.95533 62.43554,-62.43555 0,-18.68428 -8.21417,-35.44721 -21.2207,-46.88867 l 16.08203,-16.082031 c 17.10403,15.571431 27.83985,38.018031 27.83985,62.970701 0,47.01891 -38.11717,85.13477 -85.13672,85.13477 -47.01888,0 -85.13282,-38.11586 -85.13282,-85.13477 0,-24.95331 10.73556,-47.39927 27.83985,-62.970701 z m 24.13281,24.136721 27.48633,27.48242 v 62.11328 c -25.53846,-2.82395 -45.40625,-24.47023 -45.40625,-50.76172 0,-15.55003 6.95846,-29.46537 17.91992,-38.83398 z m 66.32422,0 c 10.96116,9.36933 17.91992,23.28395 17.91992,38.83398 0,26.29149 -19.86715,47.93724 -45.40625,50.76172 v -62.11328 z m 158.80469,6.99609 c -7.33958,8.24493 -16.10622,15.21453 -25.79493,20.50391 -8.47997,4.6295 -17.62187,7.96372 -26.94336,10.5039 -9.77245,2.6631 -19.77877,4.47107 -29.86523,5.39649 0.18142,-1.85549 0.29008,-3.71992 0.32031,-5.58399 0.034,-2.04892 -0.0245,-4.09872 -0.17187,-6.14257 9.46828,0.0397 18.94056,-0.78962 28.25781,-2.47461 7.68393,-1.38958 15.2662,-3.36112 22.62305,-5.97852 11.18075,-3.97788 21.83018,-9.45075 31.57422,-16.22461 z"
       id="path4561"
       transform="matrix(0.26458333,0,0,0.26458333,272.87944,113.64813)"
       inkscape:connector-curvature="0"
       sodipodi:nodetypes="csscccccccscccscscsscscsccccccccsssccsssccccsccsccccsccccccc" />
    <g
       transform="matrix(1.5141746,0,0,1.5141746,40.904713,-237.74853)"
       id="g4770" />
    <path
       d="m 378.09889,203.35801 v 1.17523 h 2.8205 v 1.18345 h -2.8205 v 1.18759 h 3.21637 v 1.18345 h -4.72147 v -5.91317 h 4.63077 v 1.18345 z m -7.87044,4.72972 -2.29682,-5.91317 h 1.60408 l 1.51333,4.35036 1.50924,-4.35036 h 1.54633 l -2.32156,5.91317 z m -6.29936,0 v -5.91317 h 1.50512 v 5.91317 z m -4.33652,-4.70496 v 4.70496 h -1.50509 v -4.70496 h -1.7649 v -1.21647 h 5.05137 v 1.21647 z m -9.1776,3.61635 -0.42884,1.08861 h -1.54634 l 2.54836,-5.91317 h 1.54634 l 2.49062,5.91317 h -1.60405 l -0.42063,-1.08861 z m 1.29891,-3.32771 -0.86181,2.18548 h 1.70716 z m -7.24363,4.41632 v -5.91317 h 1.50508 v 5.91317 z m -4.33654,-4.70496 v 4.70496 h -1.50511 v -4.70496 h -1.76488 v -1.21647 h 5.05135 v 1.21647 z m -7.33849,4.70496 v -5.91317 h 1.5051 v 5.91317 z m -4.41076,0 -2.72154,-3.64109 v 3.64109 h -1.41028 v -5.91317 h 1.3278 l 2.72566,3.64933 v -3.64933 h 1.40201 v 5.91317 z m -8.73226,0 v -5.91317 h 1.50509 v 5.91317 z m 76.64929,-10.67446 h -1.49685 v -1.86797 l -2.18548,-4.04522 h 1.501 l 1.42673,2.57722 1.39375,-2.57722 h 1.50511 l -2.14426,4.00397 z m -7.38794,-4.70498 v 4.70498 h -1.50512 v -4.70498 h -1.76487 v -1.21645 h 5.05136 v 1.21645 z m -7.33851,4.70498 v -5.91319 h 1.50509 v 5.91319 z m -2.63351,-1.25769 v 1.25769 h -4.01221 v -5.91319 h 1.50509 v 4.6555 z m -8.61266,1.25769 v -5.91319 h 1.50509 v 5.91319 z m -5.15301,-5.91319 q 0.65977,0 1.15047,0.18144 0.49071,0.18144 0.75461,0.51545 0.26804,0.334 0.26804,0.78346 0,0.46597 -0.27216,0.81647 -0.26802,0.34638 -0.74225,0.48246 0.55669,0.11132 0.88657,0.51545 0.3299,0.4041 0.3299,0.98141 0,0.49894 -0.28042,0.87007 -0.27626,0.3711 -0.78759,0.56904 -0.51132,0.19788 -1.20407,0.19788 h -2.89886 v -5.91319 z m -1.29893,2.36692 h 1.21647 q 0.32986,0 0.52369,-0.165 0.19371,-0.16501 0.19371,-0.45359 0,-0.2804 -0.19371,-0.4371 -0.19372,-0.16084 -0.52369,-0.16084 h -1.21647 z m 0,2.38754 h 1.21647 q 0.42061,0 0.65977,-0.17728 0.24328,-0.17728 0.24328,-0.48658 0,-0.29691 -0.24328,-0.47011 -0.23916,-0.17312 -0.65977,-0.17312 h -1.21647 z m -8.56318,0.0701 -0.42884,1.08863 h -1.54634 l 2.54835,-5.91319 h 1.54633 l 2.49064,5.91319 h -1.60407 l -0.42059,-1.08863 z m 1.29891,-3.32771 -0.8618,2.18548 h 1.70715 z m -7.05394,4.41634 -2.72155,-3.64111 v 3.64111 h -1.41025 v -5.91319 h 1.32777 l 2.72567,3.64935 v -3.64935 h 1.40203 v 5.91319 z m -8.73226,0 v -5.91319 h 1.50511 v 5.91319 z m -7.06633,-1.08863 -0.42884,1.08863 h -1.54634 l 2.54835,-5.91319 h 1.54633 l 2.49062,5.91319 h -1.60405 l -0.42061,-1.08863 z m 1.29891,-3.32771 -0.86183,2.18548 h 1.70716 z m -6.35296,-0.28864 v 4.70498 h -1.50509 v -4.70498 h -1.7649 v -1.21645 h 5.05137 v 1.21645 z m -7.82093,-1.27419 q 0.63503,0 1.24943,0.17728 0.61853,0.17728 1.08449,0.48246 l -0.56904,1.1711 q -0.46597,-0.27217 -0.99791,-0.44125 -0.52781,-0.17312 -0.89069,-0.17312 -0.29688,0 -0.4742,0.11132 -0.17729,0.10716 -0.17729,0.31752 0,0.28039 0.27215,0.42885 0.27628,0.14836 0.86594,0.31752 0.61853,0.17728 1.01439,0.3546 0.39587,0.17728 0.68453,0.53195 0.28864,0.35462 0.28864,0.94429 0,0.57318 -0.31338,0.98553 -0.3134,0.40824 -0.84947,0.6144 -0.53606,0.2062 -1.20409,0.2062 -0.73397,0 -1.45147,-0.25154 -0.71751,-0.25566 -1.24945,-0.69277 l 0.58144,-1.15873 q 0.44947,0.38765 1.05561,0.63917 0.61029,0.24742 1.08039,0.24742 0.36286,0 0.56493,-0.12776 0.2062,-0.13192 0.2062,-0.3876 0,-0.28866 -0.28454,-0.4371 -0.28453,-0.15252 -0.88243,-0.31339 -0.60617,-0.16895 -1.00203,-0.33814 -0.39174,-0.16916 -0.67627,-0.51544 -0.2804,-0.34639 -0.2804,-0.91129 0,-0.54021 0.28864,-0.94019 0.29279,-0.39998 0.82885,-0.61852 0.53607,-0.22269 1.23707,-0.22269 z m -5.26021,3.49677 q 0,0.77525 -0.3299,1.35253 -0.32989,0.57317 -0.94017,0.88657 -0.60617,0.30926 -1.42675,0.30926 -0.82883,0 -1.44324,-0.30926 -0.6144,-0.3134 -0.94842,-0.88657 -0.33401,-0.57728 -0.33401,-1.35253 v -3.43079 h 1.50098 v 3.43079 q 0,0.58967 0.34226,0.94017 0.34224,0.35052 0.89067,0.35052 0.54018,0 0.86596,-0.34638 0.32577,-0.34638 0.32577,-0.94431 v -3.43079 h 1.49685 z M 305.2185,191.4341 q 0.63503,0 1.24946,0.17728 0.61852,0.17728 1.08449,0.48246 l -0.56907,1.1711 q -0.46594,-0.27217 -0.99789,-0.44125 -0.52782,-0.17312 -0.89069,-0.17312 -0.2969,0 -0.4742,0.11132 -0.17728,0.10716 -0.17728,0.31752 0,0.28039 0.27216,0.42885 0.27629,0.14836 0.86595,0.31752 0.61853,0.17728 1.01439,0.3546 0.39586,0.17728 0.6845,0.53195 0.28865,0.35462 0.28865,0.94429 0,0.57318 -0.31339,0.98553 -0.31338,0.40824 -0.84944,0.6144 -0.53607,0.2062 -1.20407,0.2062 -0.73401,0 -1.45152,-0.25154 -0.71748,-0.25566 -1.24943,-0.69277 l 0.58143,-1.15873 q 0.44946,0.38765 1.05563,0.63917 0.61028,0.24742 1.08037,0.24742 0.36288,0 0.56492,-0.12776 0.2062,-0.13192 0.2062,-0.3876 0,-0.28866 -0.28452,-0.4371 -0.28452,-0.15252 -0.88245,-0.31339 -0.60614,-0.16895 -1.002,-0.33814 -0.39175,-0.16916 -0.67627,-0.51544 -0.28042,-0.34639 -0.28042,-0.91129 0,-0.54021 0.28866,-0.94019 0.29278,-0.39998 0.82883,-0.61852 0.53606,-0.22269 1.23707,-0.22269 z"
       style="font-style:normal;font-variant:normal;font-weight:bold;font-stretch:normal;font-size:medium;font-family:Montserrat;-inkscape-font-specification:'Montserrat Bold';font-variant-ligatures:discretionary-ligatures historical-ligatures;font-variant-caps:normal;font-variant-numeric:lining-nums tabular-nums slashed-zero;font-feature-settings:normal;text-align:center;letter-spacing:1.26266098px;writing-mode:lr-tb;text-anchor:middle;fill:#333333;fill-opacity:1;fill-rule:nonzero;stroke:none;stroke-width:3.16690373;stroke-linecap:butt;stroke-linejoin:round;stroke-miterlimit:4;stroke-dasharray:none;stroke-dashoffset:0;stroke-opacity:1"
       id="path4774"
       inkscape:connector-curvature="0" />
  </g>
</svg>
