<?xml version="1.0" encoding="UTF-8" standalone="no"?>
<!-- Created with Inkscape (http://www.inkscape.org/) -->

<svg
   xmlns:dc="http://purl.org/dc/elements/1.1/"
   xmlns:cc="http://creativecommons.org/ns#"
   xmlns:rdf="http://www.w3.org/1999/02/22-rdf-syntax-ns#"
   xmlns:svg="http://www.w3.org/2000/svg"
   xmlns="http://www.w3.org/2000/svg"
   xmlns:sodipodi="http://sodipodi.sourceforge.net/DTD/sodipodi-0.dtd"
   xmlns:inkscape="http://www.inkscape.org/namespaces/inkscape"
   width="155.29167mm"
   height="104.4396mm"
   viewBox="0 0 155.29167 104.4396"
   version="1.1"
   id="svg8"
   inkscape:version="0.92.1 r"
   sodipodi:docname="wikimedia-si-2.svg">
  <defs
     id="defs2">
    <inkscape:path-effect
       effect="spiro"
       id="path-effect4572"
       is_visible="true" />
    <inkscape:path-effect
       effect="spiro"
       id="path-effect4570"
       is_visible="true" />
    <inkscape:path-effect
       effect="spiro"
       id="path-effect4762"
       is_visible="true" />
    <inkscape:path-effect
       is_visible="true"
       id="path-effect4738"
       effect="spiro" />
    <inkscape:path-effect
       effect="spiro"
       id="path-effect4714"
       is_visible="true" />
    <inkscape:path-effect
       is_visible="true"
       id="path-effect4690"
       effect="spiro" />
    <inkscape:path-effect
       is_visible="true"
       id="path-effect4658"
       effect="spiro" />
    <inkscape:path-effect
       effect="spiro"
       id="path-effect4654"
       is_visible="true" />
    <inkscape:path-effect
       effect="spiro"
       id="path-effect4977"
       is_visible="true" />
    <inkscape:path-effect
       effect="spiro"
       id="path-effect4973"
       is_visible="true" />
    <inkscape:path-effect
       effect="spiro"
       id="path-effect4969"
       is_visible="true" />
    <inkscape:path-effect
       effect="spiro"
       id="path-effect4949"
       is_visible="true" />
    <inkscape:path-effect
       is_visible="true"
       id="path-effect4807"
       effect="spiro" />
    <inkscape:path-effect
       is_visible="true"
       id="path-effect4803"
       effect="spiro" />
    <inkscape:path-effect
       is_visible="true"
       id="path-effect4799"
       effect="spiro" />
    <inkscape:path-effect
       is_visible="true"
       id="path-effect4777"
       effect="spiro" />
    <inkscape:path-effect
       effect="spiro"
       id="path-effect4773"
       is_visible="true" />
    <inkscape:path-effect
       effect="spiro"
       id="path-effect4769"
       is_visible="true" />
    <inkscape:path-effect
       effect="spiro"
       id="path-effect4765"
       is_visible="true" />
    <inkscape:path-effect
       effect="spiro"
       id="path-effect4743"
       is_visible="true" />
    <inkscape:path-effect
       is_visible="true"
       id="path-effect4739"
       effect="spiro" />
    <inkscape:path-effect
       is_visible="true"
       id="path-effect4735"
       effect="spiro" />
    <inkscape:path-effect
       is_visible="true"
       id="path-effect4731"
       effect="spiro" />
    <inkscape:path-effect
       is_visible="true"
       id="path-effect4709"
       effect="spiro" />
    <inkscape:path-effect
       effect="spiro"
       id="path-effect4699"
       is_visible="true" />
    <inkscape:path-effect
       effect="spiro"
       id="path-effect4695"
       is_visible="true" />
    <inkscape:path-effect
       effect="spiro"
       id="path-effect4691"
       is_visible="true" />
    <inkscape:path-effect
       effect="spiro"
       id="path-effect4675"
       is_visible="true" />
    <inkscape:path-effect
       is_visible="true"
       id="path-effect4650"
       effect="spiro" />
    <inkscape:path-effect
       is_visible="true"
       id="path-effect4646"
       effect="spiro" />
    <inkscape:path-effect
       is_visible="true"
       id="path-effect4642"
       effect="spiro" />
    <inkscape:path-effect
       is_visible="true"
       id="path-effect4620"
       effect="spiro" />
    <inkscape:path-effect
       is_visible="true"
       id="path-effect4616"
       effect="spiro" />
    <inkscape:path-effect
       is_visible="true"
       id="path-effect4612"
       effect="spiro" />
    <inkscape:path-effect
       is_visible="true"
       id="path-effect4608"
       effect="spiro" />
    <inkscape:path-effect
       is_visible="true"
       id="path-effect4586"
       effect="spiro" />
    <inkscape:path-effect
       effect="spiro"
       id="path-effect4561"
       is_visible="true" />
    <inkscape:path-effect
       effect="spiro"
       id="path-effect4557"
       is_visible="true" />
    <inkscape:path-effect
       effect="spiro"
       id="path-effect4553"
       is_visible="true" />
    <inkscape:path-effect
       effect="spiro"
       id="path-effect4549"
       is_visible="true" />
    <inkscape:path-effect
       is_visible="true"
       id="path-effect4739-3"
       effect="spiro" />
    <inkscape:path-effect
       is_visible="true"
       id="path-effect4735-6"
       effect="spiro" />
    <inkscape:path-effect
       is_visible="true"
       id="path-effect4731-7"
       effect="spiro" />
    <inkscape:path-effect
       is_visible="true"
       id="path-effect4709-5"
       effect="spiro" />
  </defs>
  <sodipodi:namedview
     id="base"
     pagecolor="#ffffff"
     bordercolor="#666666"
     borderopacity="1.0"
     inkscape:pageopacity="0.0"
     inkscape:pageshadow="2"
     inkscape:zoom="0.99999999"
     inkscape:cx="309.12245"
     inkscape:cy="301.02886"
     inkscape:document-units="mm"
     inkscape:current-layer="layer1"
     showgrid="false"
     inkscape:snap-global="false"
     inkscape:window-width="2556"
     inkscape:window-height="1376"
     inkscape:window-x="0"
     inkscape:window-y="30"
     inkscape:window-maximized="0"
     showguides="true"
     inkscape:guide-bbox="true"
     fit-margin-top="10"
     fit-margin-left="4"
     fit-margin-right="19"
     fit-margin-bottom="10" />
  <metadata
     id="metadata5">
    <rdf:RDF>
      <cc:Work
         rdf:about="">
        <dc:format>image/svg+xml</dc:format>
        <dc:type
           rdf:resource="http://purl.org/dc/dcmitype/StillImage" />
        <dc:title></dc:title>
      </cc:Work>
    </rdf:RDF>
  </metadata>
  <g
     inkscape:label="Layer 1"
     inkscape:groupmode="layer"
     id="layer1"
     transform="translate(-272.87944,-113.64813)">
    <text
       xml:space="preserve"
       style="font-style:normal;font-variant:normal;font-weight:bold;font-stretch:normal;font-size:14.43139553px;line-height:100%;font-family:Montserrat;-inkscape-font-specification:'Montserrat Bold';font-variant-ligatures:discretionary-ligatures historical-ligatures;font-variant-caps:normal;font-variant-numeric:lining-nums tabular-nums slashed-zero;font-feature-settings:normal;text-align:start;writing-mode:lr-tb;text-anchor:start;opacity:1;fill:#ffffff;fill-opacity:1;fill-rule:nonzero;stroke:none;stroke-width:5.41179466;stroke-linecap:butt;stroke-linejoin:round;stroke-miterlimit:4;stroke-dasharray:none;stroke-dashoffset:0;stroke-opacity:1"
       x="-46.061749"
       y="191.61107"
       id="text4545"><tspan
         sodipodi:role="line"
         id="tspan4543"
         x="-46.061749"
         y="203.07062"
         style="stroke-width:5.41179466" /></text>
    <path
       style="opacity:1;fill:#8aae48;fill-opacity:1;fill-rule:nonzero;stroke:none;stroke-width:2.2532866;stroke-linecap:butt;stroke-linejoin:round;stroke-miterlimit:4;stroke-dasharray:none;stroke-dashoffset:0;stroke-opacity:1"
       d="M 287.4707 37.800781 C 272.20334 37.913411 256.95136 39.683546 242.05469 43.029297 C 203.91226 51.596012 167.33736 71.429952 144.05078 102.83008 C 128.82726 123.35783 119.72104 148.3647 118.18164 173.875 C 112.40505 177.66428 106.40112 181.1064 100.21094 184.17383 C 92.976808 187.75856 85.476583 190.83735 77.716797 193.06641 C 63.378706 197.18511 48.199017 198.34942 33.400391 196.4668 L 15.117188 229.20312 C 38.952136 227.99103 62.490754 221.26888 83.371094 209.71094 C 92.449595 204.68572 101.01172 198.77329 110.04102 193.66016 C 118.48988 188.87569 127.333 184.80045 136.40039 181.32812 C 152.17901 175.28576 168.65556 171.06717 185.39648 168.7832 C 185.55031 170.48297 185.80688 172.17329 186.16602 173.8418 C 186.51449 175.46121 186.95899 177.05992 187.49609 178.62695 C 177.13887 180.03105 166.93775 182.58774 157.14258 186.23438 C 145.86144 190.43422 135.12071 196.0818 125.26562 202.99414 C 148.17293 231.84588 179.89165 253.6026 215.05664 264.58398 C 240.89791 272.65373 268.23412 274.96275 295.30469 274.68359 C 322.22543 274.4058 349.45736 271.5372 374.66016 262.07031 C 411.52771 248.22182 442.08658 220.9139 466.1582 189.74414 C 486.95161 162.81928 503.53309 132.6484 515.11719 100.66211 C 493.34322 100.24734 471.63864 96.382738 451.06055 89.253906 C 432.30475 82.756369 414.5999 73.615361 396.58398 65.283203 C 376.08284 55.801691 354.98648 47.300501 332.91797 42.486328 C 318.00834 39.233856 302.73055 37.688151 287.4707 37.800781 z M 294.03516 69.904297 A 28.378219 28.378219 0 0 1 322.41602 98.285156 A 28.378219 28.378219 0 0 1 294.03516 126.66211 A 28.378219 28.378219 0 0 1 265.6582 98.285156 A 28.378219 28.378219 0 0 1 294.03516 69.904297 z M 236.74219 92.074219 L 252.82031 108.15625 C 239.81356 119.59771 231.60352 136.36064 231.60352 155.04492 C 231.60352 189.52514 259.55494 217.48047 294.03516 217.48047 C 328.51601 217.48047 356.4707 189.52514 356.4707 155.04492 C 356.4707 136.36064 348.25653 119.59771 335.25 108.15625 L 351.33203 92.074219 C 368.43606 107.64565 379.17188 130.09225 379.17188 155.04492 C 379.17188 202.06383 341.05471 240.17969 294.03516 240.17969 C 247.01628 240.17969 208.90234 202.06383 208.90234 155.04492 C 208.90234 130.09161 219.6379 107.64565 236.74219 92.074219 z M 260.875 116.21094 L 288.36133 143.69336 L 288.36133 205.80664 C 262.82287 202.98269 242.95508 181.33641 242.95508 155.04492 C 242.95508 139.49489 249.91354 125.57955 260.875 116.21094 z M 327.19922 116.21094 C 338.16038 125.58027 345.11914 139.49489 345.11914 155.04492 C 345.11914 181.33641 325.25199 202.98216 299.71289 205.80664 L 299.71289 143.69336 L 327.19922 116.21094 z M 486.00391 123.20703 C 478.66433 131.45196 469.89769 138.42156 460.20898 143.71094 C 451.72901 148.34044 442.58711 151.67466 433.26562 154.21484 C 423.49317 156.87794 413.48685 158.68591 403.40039 159.61133 C 403.58181 157.75584 403.69047 155.89141 403.7207 154.02734 C 403.75472 151.97842 403.69623 149.92862 403.54883 147.88477 C 413.01711 147.92445 422.48939 147.09515 431.80664 145.41016 C 439.49057 144.02058 447.07284 142.04904 454.42969 139.43164 C 465.61044 135.45376 476.25987 129.98089 486.00391 123.20703 z "
       transform="matrix(0.26458333,0,0,0.26458333,272.87944,113.64813)"
       id="path4561" />
    <g
       transform="matrix(1.5141746,0,0,1.5141746,40.904713,-237.74853)"
       id="g4770" />
    <path
       d="m 378.09889,203.35801 v 1.17523 h 2.8205 v 1.18345 h -2.8205 v 1.18759 h 3.21637 v 1.18345 h -4.72147 v -5.91317 h 4.63077 v 1.18345 z m -7.87044,4.72972 -2.29682,-5.91317 h 1.60408 l 1.51333,4.35036 1.50924,-4.35036 h 1.54633 l -2.32156,5.91317 z m -6.29936,0 v -5.91317 h 1.50512 v 5.91317 z m -4.33652,-4.70496 v 4.70496 h -1.50509 v -4.70496 h -1.7649 v -1.21647 h 5.05137 v 1.21647 z m -9.1776,3.61635 -0.42884,1.08861 h -1.54634 l 2.54836,-5.91317 h 1.54634 l 2.49062,5.91317 h -1.60405 l -0.42063,-1.08861 z m 1.29891,-3.32771 -0.86181,2.18548 h 1.70716 z m -7.24363,4.41632 v -5.91317 h 1.50508 v 5.91317 z m -4.33654,-4.70496 v 4.70496 h -1.50511 v -4.70496 h -1.76488 v -1.21647 h 5.05135 v 1.21647 z m -7.33849,4.70496 v -5.91317 h 1.5051 v 5.91317 z m -4.41076,0 -2.72154,-3.64109 v 3.64109 h -1.41028 v -5.91317 h 1.3278 l 2.72566,3.64933 v -3.64933 h 1.40201 v 5.91317 z m -8.73226,0 v -5.91317 h 1.50509 v 5.91317 z m 76.64929,-10.67446 h -1.49685 v -1.86797 l -2.18548,-4.04522 h 1.501 l 1.42673,2.57722 1.39375,-2.57722 h 1.50511 l -2.14426,4.00397 z m -7.38794,-4.70498 v 4.70498 h -1.50512 v -4.70498 h -1.76487 v -1.21645 h 5.05136 v 1.21645 z m -7.33851,4.70498 v -5.91319 h 1.50509 v 5.91319 z m -2.63351,-1.25769 v 1.25769 h -4.01221 v -5.91319 h 1.50509 v 4.6555 z m -8.61266,1.25769 v -5.91319 h 1.50509 v 5.91319 z m -5.15301,-5.91319 q 0.65977,0 1.15047,0.18144 0.49071,0.18144 0.75461,0.51545 0.26804,0.334 0.26804,0.78346 0,0.46597 -0.27216,0.81647 -0.26802,0.34638 -0.74225,0.48246 0.55669,0.11132 0.88657,0.51545 0.3299,0.4041 0.3299,0.98141 0,0.49894 -0.28042,0.87007 -0.27626,0.3711 -0.78759,0.56904 -0.51132,0.19788 -1.20407,0.19788 h -2.89886 v -5.91319 z m -1.29893,2.36692 h 1.21647 q 0.32986,0 0.52369,-0.165 0.19371,-0.16501 0.19371,-0.45359 0,-0.2804 -0.19371,-0.4371 -0.19372,-0.16084 -0.52369,-0.16084 h -1.21647 z m 0,2.38754 h 1.21647 q 0.42061,0 0.65977,-0.17728 0.24328,-0.17728 0.24328,-0.48658 0,-0.29691 -0.24328,-0.47011 -0.23916,-0.17312 -0.65977,-0.17312 h -1.21647 z m -8.56318,0.0701 -0.42884,1.08863 h -1.54634 l 2.54835,-5.91319 h 1.54633 l 2.49064,5.91319 h -1.60407 l -0.42059,-1.08863 z m 1.29891,-3.32771 -0.8618,2.18548 h 1.70715 z m -7.05394,4.41634 -2.72155,-3.64111 v 3.64111 h -1.41025 v -5.91319 h 1.32777 l 2.72567,3.64935 v -3.64935 h 1.40203 v 5.91319 z m -8.73226,0 v -5.91319 h 1.50511 v 5.91319 z m -7.06633,-1.08863 -0.42884,1.08863 h -1.54634 l 2.54835,-5.91319 h 1.54633 l 2.49062,5.91319 h -1.60405 l -0.42061,-1.08863 z m 1.29891,-3.32771 -0.86183,2.18548 h 1.70716 z m -6.35296,-0.28864 v 4.70498 h -1.50509 v -4.70498 h -1.7649 v -1.21645 h 5.05137 v 1.21645 z m -7.82093,-1.27419 q 0.63503,0 1.24943,0.17728 0.61853,0.17728 1.08449,0.48246 l -0.56904,1.1711 q -0.46597,-0.27217 -0.99791,-0.44125 -0.52781,-0.17312 -0.89069,-0.17312 -0.29688,0 -0.4742,0.11132 -0.17729,0.10716 -0.17729,0.31752 0,0.28039 0.27215,0.42885 0.27628,0.14836 0.86594,0.31752 0.61853,0.17728 1.01439,0.3546 0.39587,0.17728 0.68453,0.53195 0.28864,0.35462 0.28864,0.94429 0,0.57318 -0.31338,0.98553 -0.3134,0.40824 -0.84947,0.6144 -0.53606,0.2062 -1.20409,0.2062 -0.73397,0 -1.45147,-0.25154 -0.71751,-0.25566 -1.24945,-0.69277 l 0.58144,-1.15873 q 0.44947,0.38765 1.05561,0.63917 0.61029,0.24742 1.08039,0.24742 0.36286,0 0.56493,-0.12776 0.2062,-0.13192 0.2062,-0.3876 0,-0.28866 -0.28454,-0.4371 -0.28453,-0.15252 -0.88243,-0.31339 -0.60617,-0.16895 -1.00203,-0.33814 -0.39174,-0.16916 -0.67627,-0.51544 -0.2804,-0.34639 -0.2804,-0.91129 0,-0.54021 0.28864,-0.94019 0.29279,-0.39998 0.82885,-0.61852 0.53607,-0.22269 1.23707,-0.22269 z m -5.26021,3.49677 q 0,0.77525 -0.3299,1.35253 -0.32989,0.57317 -0.94017,0.88657 -0.60617,0.30926 -1.42675,0.30926 -0.82883,0 -1.44324,-0.30926 -0.6144,-0.3134 -0.94842,-0.88657 -0.33401,-0.57728 -0.33401,-1.35253 v -3.43079 h 1.50098 v 3.43079 q 0,0.58967 0.34226,0.94017 0.34224,0.35052 0.89067,0.35052 0.54018,0 0.86596,-0.34638 0.32577,-0.34638 0.32577,-0.94431 v -3.43079 h 1.49685 z M 305.2185,191.4341 q 0.63503,0 1.24946,0.17728 0.61852,0.17728 1.08449,0.48246 l -0.56907,1.1711 q -0.46594,-0.27217 -0.99789,-0.44125 -0.52782,-0.17312 -0.89069,-0.17312 -0.2969,0 -0.4742,0.11132 -0.17728,0.10716 -0.17728,0.31752 0,0.28039 0.27216,0.42885 0.27629,0.14836 0.86595,0.31752 0.61853,0.17728 1.01439,0.3546 0.39586,0.17728 0.6845,0.53195 0.28865,0.35462 0.28865,0.94429 0,0.57318 -0.31339,0.98553 -0.31338,0.40824 -0.84944,0.6144 -0.53607,0.2062 -1.20407,0.2062 -0.73401,0 -1.45152,-0.25154 -0.71748,-0.25566 -1.24943,-0.69277 l 0.58143,-1.15873 q 0.44946,0.38765 1.05563,0.63917 0.61028,0.24742 1.08037,0.24742 0.36288,0 0.56492,-0.12776 0.2062,-0.13192 0.2062,-0.3876 0,-0.28866 -0.28452,-0.4371 -0.28452,-0.15252 -0.88245,-0.31339 -0.60614,-0.16895 -1.002,-0.33814 -0.39175,-0.16916 -0.67627,-0.51544 -0.28042,-0.34639 -0.28042,-0.91129 0,-0.54021 0.28866,-0.94019 0.29278,-0.39998 0.82883,-0.61852 0.53606,-0.22269 1.23707,-0.22269 z"
       style="font-style:normal;font-variant:normal;font-weight:bold;font-stretch:normal;font-size:medium;font-family:Montserrat;-inkscape-font-specification:'Montserrat Bold';font-variant-ligatures:discretionary-ligatures historical-ligatures;font-variant-caps:normal;font-variant-numeric:lining-nums tabular-nums slashed-zero;font-feature-settings:normal;text-align:center;letter-spacing:1.26266098px;writing-mode:lr-tb;text-anchor:middle;fill:#333333;fill-opacity:1;fill-rule:nonzero;stroke:none;stroke-width:3.16690373;stroke-linecap:butt;stroke-linejoin:round;stroke-miterlimit:4;stroke-dasharray:none;stroke-dashoffset:0;stroke-opacity:1"
       id="path4774"
       inkscape:connector-curvature="0" />
  </g>
</svg>
