<?xml version="1.0" encoding="UTF-8" standalone="no"?>
<!-- Created with Inkscape (http://www.inkscape.org/) -->

<svg
   xmlns:dc="http://purl.org/dc/elements/1.1/"
   xmlns:cc="http://creativecommons.org/ns#"
   xmlns:rdf="http://www.w3.org/1999/02/22-rdf-syntax-ns#"
   xmlns:svg="http://www.w3.org/2000/svg"
   xmlns="http://www.w3.org/2000/svg"
   xmlns:sodipodi="http://sodipodi.sourceforge.net/DTD/sodipodi-0.dtd"
   xmlns:inkscape="http://www.inkscape.org/namespaces/inkscape"
   width="155.29167mm"
   height="104.4396mm"
   viewBox="0 0 155.29167 104.4396"
   version="1.1"
   id="svg8"
   inkscape:version="0.92.1 r"
   sodipodi:docname="wikimedia-si.svg">
  <defs
     id="defs2">
    <inkscape:path-effect
       effect="spiro"
       id="path-effect4762"
       is_visible="true" />
    <inkscape:path-effect
       is_visible="true"
       id="path-effect4738"
       effect="spiro" />
    <inkscape:path-effect
       effect="spiro"
       id="path-effect4714"
       is_visible="true" />
    <inkscape:path-effect
       is_visible="true"
       id="path-effect4690"
       effect="spiro" />
    <inkscape:path-effect
       is_visible="true"
       id="path-effect4658"
       effect="spiro" />
    <inkscape:path-effect
       effect="spiro"
       id="path-effect4654"
       is_visible="true" />
    <inkscape:path-effect
       effect="spiro"
       id="path-effect4977"
       is_visible="true" />
    <inkscape:path-effect
       effect="spiro"
       id="path-effect4973"
       is_visible="true" />
    <inkscape:path-effect
       effect="spiro"
       id="path-effect4969"
       is_visible="true" />
    <inkscape:path-effect
       effect="spiro"
       id="path-effect4949"
       is_visible="true" />
    <inkscape:path-effect
       is_visible="true"
       id="path-effect4807"
       effect="spiro" />
    <inkscape:path-effect
       is_visible="true"
       id="path-effect4803"
       effect="spiro" />
    <inkscape:path-effect
       is_visible="true"
       id="path-effect4799"
       effect="spiro" />
    <inkscape:path-effect
       is_visible="true"
       id="path-effect4777"
       effect="spiro" />
    <inkscape:path-effect
       effect="spiro"
       id="path-effect4773"
       is_visible="true" />
    <inkscape:path-effect
       effect="spiro"
       id="path-effect4769"
       is_visible="true" />
    <inkscape:path-effect
       effect="spiro"
       id="path-effect4765"
       is_visible="true" />
    <inkscape:path-effect
       effect="spiro"
       id="path-effect4743"
       is_visible="true" />
    <inkscape:path-effect
       is_visible="true"
       id="path-effect4739"
       effect="spiro" />
    <inkscape:path-effect
       is_visible="true"
       id="path-effect4735"
       effect="spiro" />
    <inkscape:path-effect
       is_visible="true"
       id="path-effect4731"
       effect="spiro" />
    <inkscape:path-effect
       is_visible="true"
       id="path-effect4709"
       effect="spiro" />
    <inkscape:path-effect
       effect="spiro"
       id="path-effect4699"
       is_visible="true" />
    <inkscape:path-effect
       effect="spiro"
       id="path-effect4695"
       is_visible="true" />
    <inkscape:path-effect
       effect="spiro"
       id="path-effect4691"
       is_visible="true" />
    <inkscape:path-effect
       effect="spiro"
       id="path-effect4675"
       is_visible="true" />
    <inkscape:path-effect
       is_visible="true"
       id="path-effect4650"
       effect="spiro" />
    <inkscape:path-effect
       is_visible="true"
       id="path-effect4646"
       effect="spiro" />
    <inkscape:path-effect
       is_visible="true"
       id="path-effect4642"
       effect="spiro" />
    <inkscape:path-effect
       is_visible="true"
       id="path-effect4620"
       effect="spiro" />
    <inkscape:path-effect
       is_visible="true"
       id="path-effect4616"
       effect="spiro" />
    <inkscape:path-effect
       is_visible="true"
       id="path-effect4612"
       effect="spiro" />
    <inkscape:path-effect
       is_visible="true"
       id="path-effect4608"
       effect="spiro" />
    <inkscape:path-effect
       is_visible="true"
       id="path-effect4586"
       effect="spiro" />
    <inkscape:path-effect
       effect="spiro"
       id="path-effect4561"
       is_visible="true" />
    <inkscape:path-effect
       effect="spiro"
       id="path-effect4557"
       is_visible="true" />
    <inkscape:path-effect
       effect="spiro"
       id="path-effect4553"
       is_visible="true" />
    <inkscape:path-effect
       effect="spiro"
       id="path-effect4549"
       is_visible="true" />
    <inkscape:path-effect
       is_visible="true"
       id="path-effect4739-3"
       effect="spiro" />
    <inkscape:path-effect
       is_visible="true"
       id="path-effect4735-6"
       effect="spiro" />
    <inkscape:path-effect
       is_visible="true"
       id="path-effect4731-7"
       effect="spiro" />
    <inkscape:path-effect
       is_visible="true"
       id="path-effect4709-5"
       effect="spiro" />
  </defs>
  <sodipodi:namedview
     id="base"
     pagecolor="#ffffff"
     bordercolor="#666666"
     borderopacity="1.0"
     inkscape:pageopacity="0.0"
     inkscape:pageshadow="2"
     inkscape:zoom="0.99999999"
     inkscape:cx="19.064557"
     inkscape:cy="256.27358"
     inkscape:document-units="mm"
     inkscape:current-layer="layer1"
     showgrid="false"
     inkscape:snap-global="false"
     inkscape:window-width="2560"
     inkscape:window-height="1440"
     inkscape:window-x="0"
     inkscape:window-y="0"
     inkscape:window-maximized="0"
     showguides="true"
     inkscape:guide-bbox="true"
     fit-margin-top="10"
     fit-margin-left="4"
     fit-margin-right="19"
     fit-margin-bottom="10" />
  <metadata
     id="metadata5">
    <rdf:RDF>
      <cc:Work
         rdf:about="">
        <dc:format>image/svg+xml</dc:format>
        <dc:type
           rdf:resource="http://purl.org/dc/dcmitype/StillImage" />
        <dc:title></dc:title>
      </cc:Work>
    </rdf:RDF>
  </metadata>
  <g
     inkscape:label="Layer 1"
     inkscape:groupmode="layer"
     id="layer1"
     transform="translate(-272.87944,-113.64813)">
    <text
       xml:space="preserve"
       style="font-style:normal;font-variant:normal;font-weight:bold;font-stretch:normal;font-size:14.43139553px;line-height:100%;font-family:Montserrat;-inkscape-font-specification:'Montserrat Bold';font-variant-ligatures:discretionary-ligatures historical-ligatures;font-variant-caps:normal;font-variant-numeric:lining-nums tabular-nums slashed-zero;font-feature-settings:normal;text-align:start;writing-mode:lr-tb;text-anchor:start;opacity:1;fill:#ffffff;fill-opacity:1;fill-rule:nonzero;stroke:none;stroke-width:5.41179466;stroke-linecap:butt;stroke-linejoin:round;stroke-miterlimit:4;stroke-dasharray:none;stroke-dashoffset:0;stroke-opacity:1"
       x="-46.061749"
       y="191.61107"
       id="text4545"><tspan
         sodipodi:role="line"
         id="tspan4543"
         x="-46.061749"
         y="203.07062"
         style="stroke-width:5.41179466" /></text>
    <path
       style="opacity:1;fill:#8aae48;fill-opacity:1;fill-rule:nonzero;stroke:none;stroke-width:0.59618205;stroke-linecap:butt;stroke-linejoin:round;stroke-miterlimit:4;stroke-dasharray:none;stroke-dashoffset:0;stroke-opacity:1"
       d="m 348.93957,123.64965 c -4.03947,0.0298 -8.07501,0.49818 -12.0164,1.38341 -10.09187,2.26657 -19.7691,7.5144 -25.93032,15.82235 -4.02788,5.43131 -6.437,12.04771 -6.84429,18.79731 -1.52838,1.00259 -3.11726,1.91296 -4.75506,2.72456 -1.91403,0.94847 -3.89836,1.76313 -5.95148,2.35289 -3.79361,1.08974 -7.80989,1.39794 -11.72535,0.89985 l -4.83723,8.66118 c 6.30652,-0.31921 12.53469,-2.09788 18.05866,-5.15728 2.40171,-1.33016 4.66653,-2.89499 7.0563,-4.24646 2.2361,-1.26456 4.57707,-2.33939 6.97417,-3.26292 5.63901,-2.17249 11.59983,-3.50744 17.62675,-3.94756 0.18207,0.42776 0.38985,0.84454 0.62205,1.24724 0.23133,0.40115 0.48677,0.78836 0.76449,1.15886 -4.62323,0.19767 -9.21259,1.16141 -13.52501,2.83958 -2.96635,1.15434 -5.80181,2.64491 -8.43428,4.43426 6.06091,7.63368 14.45336,13.39028 23.75741,16.29576 6.83715,2.13513 14.06996,2.74599 21.23237,2.67213 7.12276,-0.0735 14.32781,-0.83245 20.99606,-3.33722 9.7545,-3.66409 17.83994,-10.88913 24.20888,-19.13614 5.50157,-7.12386 9.88882,-15.10657 12.95382,-23.5696 -5.76105,-0.10986 -11.50373,-1.1326 -16.94835,-3.01878 -4.96246,-1.71914 -9.64717,-4.13735 -14.41389,-6.34191 -5.42428,-2.50868 -11.00611,-4.75833 -16.84506,-6.03209 -3.94484,-0.86053 -7.98675,-1.26924 -12.02424,-1.23942 z m 1.53366,6.03442 a 6.1364642,6.1364642 0 0 1 6.13691,6.13691 6.1364642,6.1364642 0 0 1 -6.13691,6.13615 6.1364642,6.1364642 0 0 1 -6.13617,-6.13615 6.1364642,6.1364642 0 0 1 6.13617,-6.13691 z m -12.3889,4.7942 3.47655,3.4773 c -2.81256,2.47408 -4.58763,6.099 -4.58763,10.13926 0,7.45595 6.04403,13.50077 13.49998,13.50077 7.45609,0 13.50077,-6.04482 13.50077,-13.50077 0,-4.04026 -1.77591,-7.66518 -4.58842,-10.13926 l 3.47727,-3.4773 c 3.69855,3.36714 6.02035,8.22083 6.02035,13.61656 0,10.1673 -8.24253,18.40921 -18.40997,18.40921 -10.16729,0 -18.4092,-8.24191 -18.4092,-18.40921 0,-5.39587 2.3217,-10.24942 6.0203,-13.61656 z m 5.21831,5.21908 5.94367,5.94286 v 13.43112 c -5.5224,-0.61064 -9.81847,-5.29127 -9.81847,-10.9765 0,-3.36252 1.50451,-6.37162 3.8748,-8.39748 z m 14.34191,0 c 2.37023,2.02601 3.8748,5.03496 3.8748,8.39748 0,5.68523 -4.2959,10.36574 -9.81843,10.9765 v -13.43112 z m 43.82469,6.5485 c -2.12685,1.95712 -4.50511,3.64072 -7.0579,4.99608 -3.22659,1.71309 -6.71597,2.89583 -10.27071,3.73787 -3.23472,0.76624 -6.53501,1.25557 -9.85289,1.46088 0.18997,-0.4973 0.3454,-1.00782 0.46479,-1.52661 0.13921,-0.60486 0.22928,-1.22101 0.26915,-1.84037 2.91622,0.0739 5.83779,-0.0678 8.73318,-0.42333 3.18062,-0.39053 6.33837,-1.0416 9.35913,-2.11109 2.96051,-1.04818 5.77927,-2.49686 8.35525,-4.29343 z m -78.10633,24.48353 h 1.80125 l 1.1972,3.19405 1.37247,-3.19405 h 1.24412 l 1.3474,3.19405 1.25194,-3.19405 h 1.78015 l -2.4953,5.84114 h -1.00704 l -1.49686,-3.39827 -1.5352,3.39827 h -1.0141 z m 10.80126,0 h 1.73475 v 5.76526 h -1.73475 z m 3.19796,0 h 1.73474 v 2.5806 l 2.08762,-2.5806 h 1.88812 l -2.14632,2.69953 2.4953,3.06573 h -2.12051 l -2.20421,-2.69953 v 2.69953 h -1.73474 z m 6.82468,0 h 1.73477 v 5.76526 h -1.73477 z m 3.19332,0 h 1.57511 l 1.77307,2.16276 1.7809,-2.16276 h 1.57278 v 5.76526 h -1.73475 v -3.34116 l -1.56966,1.93427 h -0.13691 l -1.57353,-1.93427 v 3.34116 h -1.68699 z m 8.16429,0 h 4.27227 v 1.15963 h -2.53754 v 1.05555 h 2.42098 v 1.15962 h -2.42098 v 1.23083 h 2.60798 v 1.15963 h -4.34271 z m 5.51092,0 h 2.3936 c 0.36016,0 0.6678,0.0187 0.9241,0.0564 0.25612,0.0375 0.48665,0.0903 0.69169,0.15814 0.20495,0.0683 0.38019,0.14503 0.52427,0.23005 0.14398,0.0847 0.27197,0.17582 0.38575,0.27308 0.19684,0.16084 0.36985,0.3506 0.518,0.56962 0.14877,0.21905 0.26634,0.47296 0.35369,0.76135 0.0876,0.28837 0.1315,0.60149 0.1315,0.93975 0,0.59031 -0.10757,1.06431 -0.32239,1.42176 -0.21488,0.35773 -0.46869,0.64755 -0.75975,0.86932 -0.41294,0.32412 -0.99002,0.48592 -1.73241,0.48592 h -0.0868 -3.02113 z m 7.0047,0 h 1.73476 v 5.76526 h -1.73476 z m 5.06104,0 h 1.92174 l 2.54069,5.76526 h -1.78013 l -0.4695,-1.16901 h -2.5039 l -0.47807,1.16901 h -1.78015 z m -10.33097,1.15963 v 3.41312 h 0.74023 c 0.45446,0 0.84793,-0.10861 1.18072,-0.32472 0.33249,-0.21627 0.49845,-0.6606 0.49845,-1.33409 0,-0.46832 -0.0897,-0.83358 -0.26842,-1.09548 -0.17874,-0.26193 -0.39312,-0.43731 -0.64395,-0.52581 -0.25079,-0.0889 -0.50627,-0.13296 -0.7668,-0.13296 z m 11.29966,0.32784 -0.85213,2.10564 h 1.69642 z"
       id="path4760"
       inkscape:connector-curvature="0" />
    <g
       transform="matrix(1.5141746,0,0,1.5141746,40.904713,-237.74853)"
       id="g4770" />
    <path
       d="m 378.09889,203.35801 v 1.17523 h 2.8205 v 1.18345 h -2.8205 v 1.18759 h 3.21637 v 1.18345 h -4.72147 v -5.91317 h 4.63077 v 1.18345 z m -7.87044,4.72972 -2.29682,-5.91317 h 1.60408 l 1.51333,4.35036 1.50924,-4.35036 h 1.54633 l -2.32156,5.91317 z m -6.29936,0 v -5.91317 h 1.50512 v 5.91317 z m -4.33652,-4.70496 v 4.70496 h -1.50509 v -4.70496 h -1.7649 v -1.21647 h 5.05137 v 1.21647 z m -9.1776,3.61635 -0.42884,1.08861 h -1.54634 l 2.54836,-5.91317 h 1.54634 l 2.49062,5.91317 h -1.60405 l -0.42063,-1.08861 z m 1.29891,-3.32771 -0.86181,2.18548 h 1.70716 z m -7.24363,4.41632 v -5.91317 h 1.50508 v 5.91317 z m -4.33654,-4.70496 v 4.70496 h -1.50511 v -4.70496 h -1.76488 v -1.21647 h 5.05135 v 1.21647 z m -7.33849,4.70496 v -5.91317 h 1.5051 v 5.91317 z m -4.41076,0 -2.72154,-3.64109 v 3.64109 h -1.41028 v -5.91317 h 1.3278 l 2.72566,3.64933 v -3.64933 h 1.40201 v 5.91317 z m -8.73226,0 v -5.91317 h 1.50509 v 5.91317 z m 76.64929,-10.67446 h -1.49685 v -1.86797 l -2.18548,-4.04522 h 1.501 l 1.42673,2.57722 1.39375,-2.57722 h 1.50511 l -2.14426,4.00397 z m -7.38794,-4.70498 v 4.70498 h -1.50512 v -4.70498 h -1.76487 v -1.21645 h 5.05136 v 1.21645 z m -7.33851,4.70498 v -5.91319 h 1.50509 v 5.91319 z m -2.63351,-1.25769 v 1.25769 h -4.01221 v -5.91319 h 1.50509 v 4.6555 z m -8.61266,1.25769 v -5.91319 h 1.50509 v 5.91319 z m -5.15301,-5.91319 q 0.65977,0 1.15047,0.18144 0.49071,0.18144 0.75461,0.51545 0.26804,0.334 0.26804,0.78346 0,0.46597 -0.27216,0.81647 -0.26802,0.34638 -0.74225,0.48246 0.55669,0.11132 0.88657,0.51545 0.3299,0.4041 0.3299,0.98141 0,0.49894 -0.28042,0.87007 -0.27626,0.3711 -0.78759,0.56904 -0.51132,0.19788 -1.20407,0.19788 h -2.89886 v -5.91319 z m -1.29893,2.36692 h 1.21647 q 0.32986,0 0.52369,-0.165 0.19371,-0.16501 0.19371,-0.45359 0,-0.2804 -0.19371,-0.4371 -0.19372,-0.16084 -0.52369,-0.16084 h -1.21647 z m 0,2.38754 h 1.21647 q 0.42061,0 0.65977,-0.17728 0.24328,-0.17728 0.24328,-0.48658 0,-0.29691 -0.24328,-0.47011 -0.23916,-0.17312 -0.65977,-0.17312 h -1.21647 z m -8.56318,0.0701 -0.42884,1.08863 h -1.54634 l 2.54835,-5.91319 h 1.54633 l 2.49064,5.91319 h -1.60407 l -0.42059,-1.08863 z m 1.29891,-3.32771 -0.8618,2.18548 h 1.70715 z m -7.05394,4.41634 -2.72155,-3.64111 v 3.64111 h -1.41025 v -5.91319 h 1.32777 l 2.72567,3.64935 v -3.64935 h 1.40203 v 5.91319 z m -8.73226,0 v -5.91319 h 1.50511 v 5.91319 z m -7.06633,-1.08863 -0.42884,1.08863 h -1.54634 l 2.54835,-5.91319 h 1.54633 l 2.49062,5.91319 h -1.60405 l -0.42061,-1.08863 z m 1.29891,-3.32771 -0.86183,2.18548 h 1.70716 z m -6.35296,-0.28864 v 4.70498 h -1.50509 v -4.70498 h -1.7649 v -1.21645 h 5.05137 v 1.21645 z m -7.82093,-1.27419 q 0.63503,0 1.24943,0.17728 0.61853,0.17728 1.08449,0.48246 l -0.56904,1.1711 q -0.46597,-0.27217 -0.99791,-0.44125 -0.52781,-0.17312 -0.89069,-0.17312 -0.29688,0 -0.4742,0.11132 -0.17729,0.10716 -0.17729,0.31752 0,0.28039 0.27215,0.42885 0.27628,0.14836 0.86594,0.31752 0.61853,0.17728 1.01439,0.3546 0.39587,0.17728 0.68453,0.53195 0.28864,0.35462 0.28864,0.94429 0,0.57318 -0.31338,0.98553 -0.3134,0.40824 -0.84947,0.6144 -0.53606,0.2062 -1.20409,0.2062 -0.73397,0 -1.45147,-0.25154 -0.71751,-0.25566 -1.24945,-0.69277 l 0.58144,-1.15873 q 0.44947,0.38765 1.05561,0.63917 0.61029,0.24742 1.08039,0.24742 0.36286,0 0.56493,-0.12776 0.2062,-0.13192 0.2062,-0.3876 0,-0.28866 -0.28454,-0.4371 -0.28453,-0.15252 -0.88243,-0.31339 -0.60617,-0.16895 -1.00203,-0.33814 -0.39174,-0.16916 -0.67627,-0.51544 -0.2804,-0.34639 -0.2804,-0.91129 0,-0.54021 0.28864,-0.94019 0.29279,-0.39998 0.82885,-0.61852 0.53607,-0.22269 1.23707,-0.22269 z m -5.26021,3.49677 q 0,0.77525 -0.3299,1.35253 -0.32989,0.57317 -0.94017,0.88657 -0.60617,0.30926 -1.42675,0.30926 -0.82883,0 -1.44324,-0.30926 -0.6144,-0.3134 -0.94842,-0.88657 -0.33401,-0.57728 -0.33401,-1.35253 v -3.43079 h 1.50098 v 3.43079 q 0,0.58967 0.34226,0.94017 0.34224,0.35052 0.89067,0.35052 0.54018,0 0.86596,-0.34638 0.32577,-0.34638 0.32577,-0.94431 v -3.43079 h 1.49685 z M 305.2185,191.4341 q 0.63503,0 1.24946,0.17728 0.61852,0.17728 1.08449,0.48246 l -0.56907,1.1711 q -0.46594,-0.27217 -0.99789,-0.44125 -0.52782,-0.17312 -0.89069,-0.17312 -0.2969,0 -0.4742,0.11132 -0.17728,0.10716 -0.17728,0.31752 0,0.28039 0.27216,0.42885 0.27629,0.14836 0.86595,0.31752 0.61853,0.17728 1.01439,0.3546 0.39586,0.17728 0.6845,0.53195 0.28865,0.35462 0.28865,0.94429 0,0.57318 -0.31339,0.98553 -0.31338,0.40824 -0.84944,0.6144 -0.53607,0.2062 -1.20407,0.2062 -0.73401,0 -1.45152,-0.25154 -0.71748,-0.25566 -1.24943,-0.69277 l 0.58143,-1.15873 q 0.44946,0.38765 1.05563,0.63917 0.61028,0.24742 1.08037,0.24742 0.36288,0 0.56492,-0.12776 0.2062,-0.13192 0.2062,-0.3876 0,-0.28866 -0.28452,-0.4371 -0.28452,-0.15252 -0.88245,-0.31339 -0.60614,-0.16895 -1.002,-0.33814 -0.39175,-0.16916 -0.67627,-0.51544 -0.28042,-0.34639 -0.28042,-0.91129 0,-0.54021 0.28866,-0.94019 0.29278,-0.39998 0.82883,-0.61852 0.53606,-0.22269 1.23707,-0.22269 z"
       style="font-style:normal;font-variant:normal;font-weight:bold;font-stretch:normal;font-size:medium;font-family:Montserrat;-inkscape-font-specification:'Montserrat Bold';font-variant-ligatures:discretionary-ligatures historical-ligatures;font-variant-caps:normal;font-variant-numeric:lining-nums tabular-nums slashed-zero;font-feature-settings:normal;text-align:center;letter-spacing:1.26266098px;writing-mode:lr-tb;text-anchor:middle;fill:#333333;fill-opacity:1;fill-rule:nonzero;stroke:none;stroke-width:3.16690373;stroke-linecap:butt;stroke-linejoin:round;stroke-miterlimit:4;stroke-dasharray:none;stroke-dashoffset:0;stroke-opacity:1"
       id="path4774"
       inkscape:connector-curvature="0" />
  </g>
</svg>
