<?xml version="1.0" encoding="UTF-8" standalone="no"?>
<!-- Created with Inkscape (http://www.inkscape.org/) -->

<svg
   width="1000.0001"
   height="1000.0001"
   viewBox="0 0 264.58336 264.58335"
   version="1.1"
   id="svg1"
   xml:space="preserve"
   inkscape:version="1.3 (0e150ed6c4, 2023-07-21)"
   sodipodi:docname="square.svg"
   inkscape:export-filename="square.png"
   inkscape:export-xdpi="287.99997"
   inkscape:export-ydpi="287.99997"
   xmlns:inkscape="http://www.inkscape.org/namespaces/inkscape"
   xmlns:sodipodi="http://sodipodi.sourceforge.net/DTD/sodipodi-0.dtd"
   xmlns="http://www.w3.org/2000/svg"
   xmlns:svg="http://www.w3.org/2000/svg"><sodipodi:namedview
     id="namedview1"
     pagecolor="#ffffff"
     bordercolor="#666666"
     borderopacity="1.0"
     inkscape:showpageshadow="2"
     inkscape:pageopacity="0.0"
     inkscape:pagecheckerboard="0"
     inkscape:deskcolor="#d1d1d1"
     inkscape:document-units="mm"
     inkscape:zoom="0.47747362"
     inkscape:cx="592.7029"
     inkscape:cy="464.94715"
     inkscape:window-width="1920"
     inkscape:window-height="1034"
     inkscape:window-x="0"
     inkscape:window-y="21"
     inkscape:window-maximized="1"
     inkscape:current-layer="layer2" /><defs
     id="defs1"><inkscape:path-effect
       effect="spiro"
       id="path-effect81"
       is_visible="true"
       lpeversion="1" /><inkscape:path-effect
       effect="spiro"
       id="path-effect79"
       is_visible="true"
       lpeversion="1" /><inkscape:path-effect
       effect="spiro"
       id="path-effect77"
       is_visible="true"
       lpeversion="1" /><inkscape:path-effect
       effect="spiro"
       id="path-effect75"
       is_visible="true"
       lpeversion="1" /><inkscape:path-effect
       effect="spiro"
       id="path-effect45"
       is_visible="true"
       lpeversion="1" /><inkscape:path-effect
       effect="spiro"
       id="path-effect44"
       is_visible="true"
       lpeversion="1" /><inkscape:path-effect
       effect="spiro"
       id="path-effect43"
       is_visible="true"
       lpeversion="1" /><inkscape:path-effect
       effect="spiro"
       id="path-effect42"
       is_visible="true"
       lpeversion="1" /><inkscape:path-effect
       effect="spiro"
       id="path-effect41"
       is_visible="true"
       lpeversion="1" /><inkscape:path-effect
       effect="spiro"
       id="path-effect40"
       is_visible="true"
       lpeversion="1" /><inkscape:path-effect
       effect="spiro"
       id="path-effect39"
       is_visible="true"
       lpeversion="1" /><inkscape:path-effect
       effect="spiro"
       id="path-effect38"
       is_visible="true"
       lpeversion="1" /><inkscape:path-effect
       effect="spiro"
       id="path-effect37"
       is_visible="true"
       lpeversion="1" /><inkscape:path-effect
       effect="spiro"
       id="path-effect36"
       is_visible="true"
       lpeversion="1" /><inkscape:path-effect
       effect="spiro"
       id="path-effect35"
       is_visible="true"
       lpeversion="1" /><inkscape:path-effect
       effect="spiro"
       id="path-effect34"
       is_visible="true"
       lpeversion="1" /><inkscape:path-effect
       effect="spiro"
       id="path-effect33"
       is_visible="true"
       lpeversion="1" /><inkscape:path-effect
       effect="spiro"
       id="path-effect32"
       is_visible="true"
       lpeversion="1" /><inkscape:path-effect
       effect="spiro"
       id="path-effect31"
       is_visible="true"
       lpeversion="1" /><inkscape:path-effect
       effect="spiro"
       id="path-effect30"
       is_visible="true"
       lpeversion="1" /><inkscape:path-effect
       effect="spiro"
       id="path-effect29"
       is_visible="true"
       lpeversion="1" /><inkscape:path-effect
       effect="spiro"
       id="path-effect25"
       is_visible="true"
       lpeversion="1" /><inkscape:path-effect
       effect="spiro"
       id="path-effect24"
       is_visible="true"
       lpeversion="1" /><inkscape:path-effect
       effect="spiro"
       id="path-effect23"
       is_visible="true"
       lpeversion="1" /><inkscape:path-effect
       effect="spiro"
       id="path-effect22"
       is_visible="true"
       lpeversion="1" /><inkscape:path-effect
       effect="spiro"
       id="path-effect21"
       is_visible="true"
       lpeversion="1" /><inkscape:path-effect
       effect="spiro"
       id="path-effect20"
       is_visible="true"
       lpeversion="1" /><inkscape:path-effect
       effect="spiro"
       id="path-effect19"
       is_visible="true"
       lpeversion="1" /><inkscape:path-effect
       effect="spiro"
       id="path-effect18"
       is_visible="true"
       lpeversion="1" /><inkscape:path-effect
       effect="spiro"
       id="path-effect17"
       is_visible="true"
       lpeversion="1" /><inkscape:path-effect
       effect="spiro"
       id="path-effect13"
       is_visible="true"
       lpeversion="1" /><inkscape:path-effect
       effect="spiro"
       id="path-effect12"
       is_visible="true"
       lpeversion="1" /><inkscape:path-effect
       effect="spiro"
       id="path-effect11"
       is_visible="true"
       lpeversion="1" /><inkscape:path-effect
       effect="spiro"
       id="path-effect10"
       is_visible="true"
       lpeversion="1" /><inkscape:path-effect
       effect="spiro"
       id="path-effect9"
       is_visible="true"
       lpeversion="1" /><inkscape:path-effect
       effect="spiro"
       id="path-effect8"
       is_visible="true"
       lpeversion="1" /><inkscape:path-effect
       effect="spiro"
       id="path-effect7"
       is_visible="true"
       lpeversion="1" /><inkscape:path-effect
       effect="spiro"
       id="path-effect6"
       is_visible="true"
       lpeversion="1" /><inkscape:path-effect
       effect="spiro"
       id="path-effect5"
       is_visible="true"
       lpeversion="1" /><inkscape:path-effect
       effect="spiro"
       id="path-effect4"
       is_visible="true"
       lpeversion="1" /><inkscape:path-effect
       effect="spiro"
       id="path-effect3"
       is_visible="true"
       lpeversion="1" /><inkscape:path-effect
       effect="spiro"
       id="path-effect2"
       is_visible="true"
       lpeversion="1" /><inkscape:path-effect
       effect="spiro"
       id="path-effect1"
       is_visible="true"
       lpeversion="1" /></defs><g
     inkscape:label="Layer 1"
     inkscape:groupmode="layer"
     id="layer1"
     style="opacity:0.445"
     transform="translate(20.08857,-16.192072)" /><g
     inkscape:groupmode="layer"
     id="layer2"
     inkscape:label="Layer 2"
     transform="translate(20.08857,-16.192072)"><rect
       style="fill:#000000;fill-opacity:1;stroke:none;stroke-width:0.826065;stroke-linecap:round;stroke-linejoin:round"
       id="rect46"
       width="264.58334"
       height="264.58334"
       x="-20.08857"
       y="16.192072"
       inkscape:export-filename="muecken.png"
       inkscape:export-xdpi="255.41397"
       inkscape:export-ydpi="255.41397" /><rect
       style="opacity:1;fill:#e10a19;fill-opacity:1;stroke:none;stroke-width:1.04033;stroke-linecap:square;stroke-linejoin:miter;stroke-dasharray:none;stroke-opacity:1"
       id="rect45"
       width="129.89458"
       height="129.89458"
       x="46.702026"
       y="37.230991"
       ry="7.5231252" /><g
       id="g45"
       transform="matrix(0.43482851,0,0,0.43482851,-65.433903,16.50604)"
       style="opacity:1;fill:#f9f9f9"><path
         style="opacity:1;fill:#f9f9f9;stroke:none;stroke-width:1;stroke-linecap:square;stroke-linejoin:miter;stroke-dasharray:none;stroke-opacity:1"
         d="m 455.71028,181.15329 16.59732,8.41511 c 4.91616,1.91995 9.99625,3.41996 15.16681,4.47833 5.4447,1.11449 10.98958,1.73911 16.54577,1.86386 l -23.6016,-8.02654"
         id="path30"
         inkscape:path-effect="#path-effect30"
         inkscape:original-d="m 455.71028,181.15329 c 5.26437,3.00029 16.59732,8.41511 16.59732,8.41511 0,0 9.84313,3.18081 15.16681,4.47833 5.32368,1.29751 16.54577,1.86386 16.54577,1.86386 0,0 -15.7344,-5.35103 -23.6016,-8.02654"
         transform="translate(2.96087,3.4121001)"
         sodipodi:nodetypes="ccscc" /><path
         style="opacity:1;fill:#f9f9f9;stroke:none;stroke-width:1;stroke-linecap:square;stroke-linejoin:miter;stroke-dasharray:none;stroke-opacity:1"
         d="m 363.5013,178.76654 -1.89553,3.78992 -12.1199,-11.16038 -7.79407,60.83726 -26.84875,27.63453 -37.26026,20.47812 -2.17872,-3.0243 37.88249,-20.13086 25.67458,-26.20619 7.26303,-64.67328 4.86177,0.69874 z"
         id="path31"
         inkscape:path-effect="#path-effect31"
         inkscape:original-d="m 363.5013,178.76654 -1.89553,3.78992 -12.1199,-11.16038 -7.79407,60.83726 -26.84875,27.63453 -37.26026,20.47812 -2.17872,-3.0243 37.88249,-20.13086 25.67458,-26.20619 7.26303,-64.67328 4.86177,0.69874 z"
         sodipodi:nodetypes="cccccccccccc" /><path
         style="opacity:1;fill:#f9f9f9;stroke:none;stroke-width:1;stroke-linecap:square;stroke-linejoin:miter;stroke-dasharray:none;stroke-opacity:1"
         d="m 373.52398,170.62086 3.91707,-0.63842 22.29942,41.71827 c 0.37051,0.42928 0.53284,1.03047 0.42877,1.5879 -0.10407,0.55744 -0.47238,1.05955 -0.97282,1.32624 -0.48192,0.25681 -1.07678,0.2913 -1.58514,0.0919 -0.50837,-0.1994 -0.92115,-0.62912 -1.09995,-1.14509 l -19.82989,-33.05856 0.64005,57.84971 -14.11576,34.49901 -16.89769,26.8083 -3.97044,-1.57557 17.43525,-26.10196 13.80873,-34.75993 z"
         id="path32"
         inkscape:path-effect="#path-effect32"
         inkscape:original-d="m 373.52398,170.62086 3.91707,-0.63842 22.29942,41.71827 c 0,0 0.24727,2.49279 -0.54405,2.91414 -0.73864,0.39331 -2.68509,-1.05319 -2.68509,-1.05319 l -19.82989,-33.05856 0.64005,57.84971 -14.11576,34.49901 -16.89769,26.8083 -3.97044,-1.57557 17.43525,-26.10196 13.80873,-34.75993 z"
         sodipodi:nodetypes="cccsccccccccc" /><path
         style="opacity:1;fill:#f9f9f9;stroke:none;stroke-width:1;stroke-linecap:square;stroke-linejoin:miter;stroke-dasharray:none;stroke-opacity:1"
         d="m 451.39976,166.53092 -46.66396,40.80233 c -0.93427,0.69141 -1.52388,1.82709 -1.55183,2.98904 -0.0279,1.16194 0.50639,2.32466 1.40634,3.06018 0.85086,0.6954 2.01036,0.99788 3.09249,0.80675 1.08213,-0.19114 2.06784,-0.87253 2.62899,-1.81734 l 39.81927,-38.75222 12.32388,67.69328 27.35789,29.67439 23.79667,19.93043 14.41689,1.21848 -0.31743,-4.86576 -13.51147,-0.40341 -22.0843,-18.17299 -25.34703,-28.49531 z"
         id="path33"
         inkscape:path-effect="#path-effect33"
         inkscape:original-d="m 451.39976,166.53092 -46.66396,40.80233 c 0,0 -2.02123,5.25537 -0.14549,6.04922 1.85221,0.78389 5.72148,-1.01059 5.72148,-1.01059 l 39.81927,-38.75222 12.32388,67.69328 27.35789,29.67439 23.79667,19.93043 14.41689,1.21848 -0.31743,-4.86576 -13.51147,-0.40341 -22.0843,-18.17299 -25.34703,-28.49531 z"
         sodipodi:nodetypes="ccsccccccccccc" /><path
         style="opacity:1;fill:#f9f9f9;stroke:none;stroke-width:1;stroke-linecap:square;stroke-linejoin:miter;stroke-dasharray:none;stroke-opacity:1"
         d="m 445.45805,212.33093 4.47791,8.40249 8.30313,8.55661 1.00343,7.05765 -12.25169,-12.61927 -7.41216,-14.74231 z"
         id="path34"
         inkscape:path-effect="#path-effect34"
         inkscape:original-d="m 445.45805,212.33093 c 0,0 4.47791,8.40249 4.47791,8.40249 0,0 8.30313,8.55661 8.30313,8.55661 0,0 1.00343,7.05765 1.00343,7.05765 0,0 -12.25169,-12.61927 -12.25169,-12.61927 0,0 -7.41216,-14.74231 -7.41216,-14.74231 z" /><path
         style="opacity:1;fill:#f9f9f9;stroke:none;stroke-width:1;stroke-linecap:square;stroke-linejoin:miter;stroke-dasharray:none;stroke-opacity:1"
         d="m 473.18839,243.77063 9.87023,9.85701 7.77804,6.286 6.70544,-0.80595 0.74888,-5.45443 -7.42429,1.94106 -6.90068,-5.18939 -12.88595,-12.50326 z"
         id="path35"
         inkscape:path-effect="#path-effect35"
         inkscape:original-d="m 473.18839,243.77063 c 0,0 9.87023,9.85701 9.87023,9.85701 0,0 7.77804,6.286 7.77804,6.286 0,0 6.70544,-0.80595 6.70544,-0.80595 0,0 0.74888,-5.45443 0.74888,-5.45443 0,0 -7.42429,1.94106 -7.42429,1.94106 0,0 -6.90068,-5.18939 -6.90068,-5.18939 0,0 -12.88595,-12.50326 -12.88595,-12.50326 z"
         transform="translate(-1.1248571,-0.54523014)" /><path
         style="opacity:1;fill:#f9f9f9;stroke:none;stroke-width:1;stroke-linecap:square;stroke-linejoin:miter;stroke-dasharray:none;stroke-opacity:1"
         d="m 413.78677,196.32016 -3.66181,-54.22024 33.20265,28.43468 3.63705,-3.28573 -37.47925,-29.64159 -4.6132,3.31175 4.63751,58.84032 z"
         id="path36"
         inkscape:path-effect="#path-effect36"
         inkscape:original-d="m 413.78677,196.32016 -3.66181,-54.22024 33.20265,28.43468 3.63705,-3.28573 -37.47925,-29.64159 -4.6132,3.31175 4.63751,58.84032 z"
         sodipodi:nodetypes="cccccccc" /><path
         style="opacity:1;fill:#f9f9f9;stroke:none;stroke-width:1;stroke-linecap:square;stroke-linejoin:miter;stroke-dasharray:none;stroke-opacity:1"
         d="m 402.69435,163.96304 -4.99296,-2.30257 -0.96157,-19.38522 3.87088,-3.70315 2.47462,2.23329 0.0566,4.28121 -3.32245,-2.47084 z"
         id="path37"
         inkscape:path-effect="#path-effect37"
         inkscape:original-d="m 402.69435,163.96304 -4.99296,-2.30257 -0.96157,-19.38522 3.87088,-3.70315 2.47462,2.23329 0.0566,4.28121 -3.32245,-2.47084 z"
         sodipodi:nodetypes="cccccccc" /><path
         style="opacity:1;fill:#f9f9f9;stroke:none;stroke-width:1;stroke-linecap:square;stroke-linejoin:miter;stroke-dasharray:none;stroke-opacity:1"
         d="m 456.89857,175.77348 1.13429,5.88298 12.6135,2.06157 28.76872,-35.06334 14.85236,-33.4439 1.81499,-22.896954 -6.60257,-19.258793 -1.94813,2.741324 4.4934,16.918781 -2.53625,22.771182 -12.23221,28.48924 -27.78064,35.0495 -7.53624,-0.49567 z"
         id="path38"
         inkscape:path-effect="#path-effect38"
         inkscape:original-d="m 456.89857,175.77348 1.13429,5.88298 12.6135,2.06157 28.76872,-35.06334 14.85236,-33.4439 1.81499,-22.896954 -6.60257,-19.258793 -1.94813,2.741324 4.4934,16.918781 -2.53625,22.771182 -12.23221,28.48924 -27.78064,35.0495 -7.53624,-0.49567 z"
         sodipodi:nodetypes="cccccccccccccc" /><path
         style="opacity:1;fill:#f9f9f9;stroke:none;stroke-width:1;stroke-linecap:square;stroke-linejoin:miter;stroke-dasharray:none;stroke-opacity:1"
         d="m 486.38158,169.64663 11.3538,-9.06064 17.31269,-23.50715 13.74182,-33.7015 -0.65447,-12.62457 -3.15629,0.576731 -0.10629,9.661999 0.13491,0.72718 -14.48268,35.20256 c -5.04976,6.79135 -10.08364,13.5945 -15.1016,20.40938 -3.01973,4.1011 -6.0337,8.20644 -9.04189,12.31601 z"
         id="path39"
         inkscape:path-effect="#path-effect39"
         inkscape:original-d="m 486.38158,169.64663 c 0,0 11.3538,-9.06064 11.3538,-9.06064 0,0 17.31269,-23.50715 17.31269,-23.50715 0,0 13.74182,-33.7015 13.74182,-33.7015 0,0 -0.65447,-12.62457 -0.65447,-12.62457 0,0 -3.15629,0.576731 -3.15629,0.576731 0,0 -0.10629,9.661999 -0.10629,9.661999 0,0 0.13491,0.72718 0.13491,0.72718 0,0 -14.48268,35.20256 -14.48268,35.20256 0,0 -15.1016,20.40938 -15.1016,20.40938 z" /><path
         style="opacity:1;fill:#f9f9f9;stroke:none;stroke-width:1;stroke-linecap:square;stroke-linejoin:miter;stroke-dasharray:none;stroke-opacity:1"
         d="m 362.73332,223.78571 c -5.10841,5.16906 -10.35703,10.19865 -15.70287,15.12176 -9.56711,8.81057 -19.44711,17.28137 -29.61512,25.39107 l 1.55886,-2.66606 27.29935,-24.66997 10.78193,-11.43831 c 1.9216,-1.72987 3.16479,-4.19438 3.41397,-6.76788 0.21746,-2.24588 -0.31972,-4.5651 -1.53987,-6.46312 -0.75825,-1.1795 -1.76558,-2.19206 -2.44497,-3.41868 -0.80079,-1.44581 -1.10623,-3.16134 -0.84695,-4.79364 0.25929,-1.63229 1.08283,-3.17058 2.30206,-4.28643 0.97647,-0.89367 2.1994,-1.51527 3.49687,-1.77741 1.29746,-0.26213 2.66579,-0.16407 3.91262,0.28041 -1.21009,-3.05198 -1.78597,-6.35378 -1.6805,-9.63521 0.17855,-5.55522 2.35604,-11.02525 6.04417,-15.18338 l 0.59759,42.4276 c -2.48973,2.66071 -5.01575,5.28745 -7.57714,7.87925 z"
         id="path40"
         inkscape:path-effect="#path-effect40"
         inkscape:original-d="m 362.73332,223.78571 c 0,0 -10.2632,10.07053 -15.70287,15.12176 -9.44221,8.76796 -29.61512,25.39107 -29.61512,25.39107 l 1.55886,-2.66606 27.29935,-24.66997 10.78193,-11.43831 c 0,0 3.1199,-4.25832 3.41397,-6.76788 0.25775,-2.19963 -0.62194,-4.44763 -1.53987,-6.46312 -0.58068,-1.275 -2.12425,-2.05488 -2.44497,-3.41868 -0.70171,-2.98391 -0.66811,-6.86918 1.45511,-9.08007 1.74532,-1.81739 7.40949,-1.497 7.40949,-1.497 0,0 -2.01599,-6.3923 -1.6805,-9.63521 0.56056,-5.41848 6.04417,-15.18338 6.04417,-15.18338 l 0.59759,42.4276 z"
         sodipodi:nodetypes="csccccsasscsccc" /><path
         style="opacity:1;fill:#f9f9f9;stroke:none;stroke-width:1;stroke-linecap:square;stroke-linejoin:miter;stroke-dasharray:none;stroke-opacity:1"
         d="m 454.04582,211.35694 -4.8303,-28.54399 -4.07957,-0.94478 -18.6612,18.67362 c 4.20086,2.72934 8.6809,5.02869 13.34752,6.85054 4.59261,1.79295 9.36566,3.12337 14.22355,3.96461 z"
         id="path41"
         inkscape:path-effect="#path-effect41"
         inkscape:original-d="m 454.04582,211.35694 -4.8303,-28.54399 -4.07957,-0.94478 -18.6612,18.67362 c 0,0 8.89836,4.56703 13.34752,6.85054 4.44918,2.28352 14.22355,3.96461 14.22355,3.96461 z"
         sodipodi:nodetypes="ccccsc" /><path
         style="opacity:1;fill:#f9f9f9;stroke:none;stroke-width:1;stroke-linecap:square;stroke-linejoin:miter;stroke-dasharray:none;stroke-opacity:1"
         d="m 458.9422,188.29048 5.38914,24.6666 c 6.13673,0.69186 12.34583,0.73995 18.49254,0.14322 6.95189,-0.6749 13.82326,-2.17539 20.42367,-4.45987 -8.04536,-3.63357 -16.07817,-7.29492 -24.09825,-10.98397 -6.74475,-3.10242 -13.48048,-6.22444 -20.2071,-9.36598 z"
         id="path42"
         inkscape:path-effect="#path-effect42"
         inkscape:original-d="m 458.9422,188.29048 5.38914,24.6666 c 0,0 12.32836,0.0955 18.49254,0.14322 6.16419,0.0477 20.42367,-4.45987 20.42367,-4.45987 0,0 -16.0655,-7.32265 -24.09825,-10.98397 -8.03275,-3.66133 -20.2071,-9.36598 -20.2071,-9.36598 z"
         sodipodi:nodetypes="ccscsc" /><path
         style="opacity:1;fill:#f9f9f9;stroke:none;stroke-width:1;stroke-linecap:square;stroke-linejoin:miter;stroke-dasharray:none;stroke-opacity:1"
         d="m 416.48832,194.23191 19.39196,-17.18787 -21.28183,-5.26599 z"
         id="path43"
         inkscape:path-effect="#path-effect43"
         inkscape:original-d="m 416.48832,194.23191 19.39196,-17.18787 -21.28183,-5.26599 z"
         sodipodi:nodetypes="cccc" /><path
         style="opacity:1;fill:#f9f9f9;stroke:none;stroke-width:1;stroke-linecap:square;stroke-linejoin:miter;stroke-dasharray:none;stroke-opacity:1"
         d="m 406.78965,201.78366 -3.28249,-33.17688 c -4.22093,-3.37085 -9.51086,-5.38202 -14.9051,-5.66674 -2.03073,-0.10719 -4.11618,0.0336 -5.9948,0.81219 -1.51881,0.62944 -2.86453,1.67091 -3.85482,2.98328 l 21.87263,40.39282 z"
         id="path44"
         inkscape:path-effect="#path-effect44"
         inkscape:original-d="m 406.78965,201.78366 -3.28249,-33.17688 c 0,0 -10.50638,-4.09274 -14.9051,-5.66674 -4.3987,-1.574 -3.99653,0.54146 -5.9948,0.81219 -1.99827,0.27074 -3.85482,2.98328 -3.85482,2.98328 l 21.87263,40.39282 z"
         sodipodi:nodetypes="ccssccc" /><path
         style="opacity:1;fill:#f9f9f9;stroke:none;stroke-width:1;stroke-linecap:square;stroke-linejoin:miter;stroke-dasharray:none;stroke-opacity:1"
         d="m 379.66949,191.27213 13.77489,23.46235 c -2.93706,-1.06644 -5.63846,-2.77663 -7.85879,-4.97522 -1.36463,-1.35127 -2.54502,-2.87942 -3.6082,-4.47873 -0.73191,-1.10099 -1.41011,-2.2377 -2.03137,-3.40471 z"
         id="path45"
         inkscape:path-effect="#path-effect45"
         inkscape:original-d="m 379.66949,191.27213 13.77489,23.46235 c 0,0 -5.2392,-3.31681 -7.85879,-4.97522 -2.61958,-1.6584 -2.40545,-2.98582 -3.6082,-4.47873 -1.20271,-1.49291 -2.03137,-3.40471 -2.03137,-3.40471 z"
         sodipodi:nodetypes="ccsscc" /></g><path
       style="font-weight:500;font-size:26.2924px;line-height:100%;font-family:Geo;-inkscape-font-specification:'Geo Medium';font-variant-ligatures:historical-ligatures;font-variant-numeric:lining-nums tabular-nums slashed-zero;font-feature-settings:'ss06';text-align:center;text-anchor:middle;fill:#ababac;stroke:none;stroke-width:6.96152;stroke-linecap:square"
       d="M 36.044308,198.95492 H 33.831874 V 185.41051 H 29.54191 v 13.54441 h -2.050548 v -15.46005 h 14.920439 v 15.46005 h -2.158472 v -13.54441 h -4.209021 z m 19.318328,-12.16838 v 12.16838 H 46.80969 v -12.16838 h 2.050548 v 10.22576 h 4.343926 v -10.22576 z m -8.552946,-6.07071 v 3.58846 h 2.050548 v -3.58846 z m 4.964485,0 v 3.58846 h 2.05055 v -3.58846 z m 14.542708,8.09427 h -4.370907 v 8.2022 h 6.178628 v 1.94262 h -8.337099 v -12.16838 h 8.552946 v 4.42486 h -2.023568 z m 15.837791,10.14482 -5.396181,-6.28655 5.126372,-5.85486 h -2.940919 l -4.128079,5.15336 v -11.25104 h -2.050548 v 18.23909 h 2.050548 v -5.34221 h 0.404714 l 3.750346,5.34221 z m 5.746932,-4.96448 v 3.02186 h 6.394475 v 1.94262 h -8.552947 v -12.16838 h 8.498984 v 7.2039 z m 0,-1.99659 h 4.370907 v -3.21072 h -4.370907 z m 19.372284,6.96107 v -12.16838 h -8.552941 v 12.16838 h 2.050551 v -10.22576 h 4.34392 v 10.22576 z m 11.97953,-2.10451 h 4.34392 v -11.41292 h -4.34392 z m -2.05055,2.10451 v -15.46005 h 8.55295 v 15.46005 z m 15.02836,0 h 6.5024 v -12.16838 h -8.55295 v 18.23909 h 2.05055 z m 0,-10.17179 4.34393,0.027 v 8.2022 h -4.34393 z m 13.08574,5.20731 v 3.02186 h 6.39448 v 1.94262 h -8.55294 v -12.16838 h 8.49898 v 7.2039 z m 0,-1.99659 h 4.37091 v -3.21072 h -4.37091 z m 19.37229,6.96107 v -12.16838 h -8.55295 v 12.16838 h 2.05055 v -10.22576 h 4.34392 v 10.22576 z m 11.97951,-13.54441 v 4.69468 h 4.34393 v -4.69468 z m 6.5024,13.54441 h -2.15847 v -6.90711 h -4.34393 v 6.90711 h -2.05055 v -15.46005 h 8.55295 z m 4.42488,-12.14141 v 12.14141 h 2.05055 v -12.16838 z m 0,-6.09768 v 3.58846 h 2.05055 v -3.58846 z m 11.5748,8.0673 -2.9679,0.027 v 10.14482 h -2.15847 v -12.16838 h 7.17692 v 4.42487 h -2.05055 z"
       id="path2" /><path
       style="font-weight:500;font-size:26.2924px;line-height:100%;font-family:Geo;-inkscape-font-specification:'Geo Medium';font-variant-ligatures:historical-ligatures;font-variant-numeric:lining-nums tabular-nums slashed-zero;font-feature-settings:'ss06';text-align:center;text-anchor:middle;fill:#ababac;stroke:none;stroke-width:6.96152;stroke-linecap:square"
       d="m 98.100388,226.19873 v 2.02356 l -8.525966,-0.027 v -2.10451 l 6.367494,-5.31525 v -2.69809 h -4.370907 v 2.4013 H 89.52046 v -4.42486 h 8.579928 v 6.09769 l -5.315238,4.04713 z m 4.829582,-1.29508 v 3.31864 h 2.05055 v -3.31864 z m 0,-8.84974 v 3.31865 h 2.05055 v -3.31865 z m 6.44844,8.84974 v 3.31864 h 2.05055 v -3.31864 z m 0,-8.84974 v 3.31865 h 2.05055 v -3.31865 z m 15.43308,10.14482 v 2.02356 l -8.52597,-0.027 v -2.10451 l 6.36749,-5.31525 v -2.69809 h -4.37091 v 2.4013 h -2.05055 v -4.42486 h 8.57994 v 6.09769 l -5.31524,4.04713 z m 11.62877,-3.2647 v 3.2647 h -4.34393 v -1.5649 h -2.05054 v 3.58846 h 8.57992 v -6.90711 h -3.12979 l 3.07583,-3.12978 v -2.10451 l -8.52596,-0.027 v 2.02356 h 5.31523 l -3.10281,3.23771 v 1.61885 z"
       id="path3" /><path
       id="rect47"
       style="fill:#ceff0a;stroke-width:0.62064;stroke-linecap:square"
       d="m 53.752658,211.13526 c -0.665438,0.0183 -1.333681,0.22953 -1.918156,0.6476 l -16.23458,11.61297 c -1.558607,1.11487 -0.883084,3.19693 -0.800936,4.82546 0.120803,2.39486 1.479868,6.39238 2.129816,8.18614 L 3.8409021,260.07532 v 3.40697 L 38.736919,238.521 c 1.677587,1.31197 4.447262,3.3539 6.379826,4.12435 1.514663,0.60384 3.26685,1.9158 4.825455,0.80093 l 16.234579,-11.61236 c 1.558607,-1.11487 1.915808,-3.26743 0.800936,-4.82605 L 56.660558,212.5838 c -0.696793,-0.97411 -1.798839,-1.47908 -2.9079,-1.44854 z m -0.206247,2.9043 1.550158,2.16649 -2.166494,1.55016 -1.550159,-2.1671 z m -4.471892,3.19893 1.549559,2.1665 -2.166495,1.55016 -1.550158,-2.16711 z m 7.670823,1.27296 1.550159,2.16709 -2.166494,1.54957 -1.550159,-2.1665 z m -12.143313,1.92596 1.55016,2.1665 -2.167097,1.55016 -1.549558,-2.16709 z m 7.671422,1.27296 1.549559,2.16711 -2.166495,1.54955 -1.550158,-2.1665 z m 7.671425,1.27357 1.549557,2.16649 -2.166494,1.55017 -1.55016,-2.16711 z m -19.814737,0.65242 1.549558,2.16648 -2.166495,1.55017 -1.55016,-2.1671 z m 7.670821,1.27295 1.55016,2.1671 -2.167096,1.54955 -1.549557,-2.16648 z m 7.671424,1.27356 1.550159,2.1665 -2.167097,1.55016 -1.550158,-2.1671 z m 7.671424,1.27297 1.549557,2.16708 -2.166494,1.54957 -1.55016,-2.16651 z m -19.814738,0.65241 1.549558,2.16708 -2.166494,1.54958 -1.550159,-2.16651 z m 7.670823,1.27355 1.550158,2.16649 -2.166495,1.55016 -1.550158,-2.16709 z m 7.671423,1.27296 1.550159,2.1671 -2.167096,1.54955 -1.549558,-2.16649 z m -12.143314,1.92598 1.549558,2.16649 -2.166495,1.55016 -1.550159,-2.16649 z m 7.670823,1.27295 1.550158,2.1671 -2.166495,1.55016 -1.550159,-2.16709 z m -4.47189,3.19893 1.550158,2.1671 -2.167096,1.55015 -1.550159,-2.16709 z" /><g
       id="g1"
       transform="matrix(1.0508149,0,0,1.0508149,9.4776127,-3.7850955)"><path
         id="rect73"
         style="fill:#ff8b3d;stroke-width:0.543323;stroke-linecap:square"
         d="m 166.86922,204.53085 c 0.0443,-0.0566 -2.51158,0.8134 -4.28191,2.85978 -1.92643,2.22682 -2.49862,4.5443 -2.47272,4.516 l 1.55133,1.42059 a 2.3818579,2.3818579 0 0 1 2.64738,0.38033 2.3818579,2.3818579 0 0 1 0.61495,2.6076 l 5.23534,4.79454 6.75824,-7.37268 z m 11.49232,10.52443 -6.75876,7.37267 1.572,1.43971 6.75514,-7.3763 z" /><path
         style="color:#000000;fill:#ff8b3d;stroke-linecap:square;stroke-dasharray:4.35532, 4.35532;-inkscape-stroke:none"
         d="m 158.99609,214.66797 -0.97851,0.48047 -3.90625,1.92383 -0.97656,0.48046 0.96093,1.95313 0.97657,-0.48047 3.9082,-1.92383 0.97656,-0.48047 z m -7.8164,3.8457 -0.97657,0.48047 -3.9082,1.92383 -0.97656,0.48047 0.96289,1.95508 0.97656,-0.48243 3.90625,-1.92187 0.97852,-0.48047 z m -7.81446,3.84766 -0.97656,0.48047 -3.9082,1.92382 -0.97656,0.48047 0.96093,1.95313 0.97657,-0.48047 3.9082,-1.92383 0.97656,-0.48047 z m -7.8164,3.8457 -0.97656,0.48047 -0.84766,0.41797 -0.97656,0.48047 0.96289,1.95312 0.97656,-0.48047 0.84766,-0.41601 0.97656,-0.48047 z"
         id="path75" /><path
         style="color:#000000;fill:#ff8b3d;stroke-linecap:square;stroke-dasharray:4.35532, 4.35532;-inkscape-stroke:none"
         d="m 161.53711,218.06836 -0.39453,1.01367 -1.57227,4.0625 -0.39258,1.01563 2.0293,0.78515 0.39453,-1.01562 1.57227,-4.06055 0.39258,-1.01562 z m -3.14649,8.12109 -0.39453,1.01563 -1.57226,4.0625 -0.39258,1.01367 2.0293,0.78711 0.39453,-1.01563 1.57226,-4.06054 0.39453,-1.01563 z m -3.14648,8.12305 -0.39258,1.01562 -1.57422,4.06055 -0.39257,1.01563 2.03125,0.78711 0.39257,-1.01563 1.57227,-4.06055 0.39453,-1.01562 z m -3.14648,8.12305 -0.39258,1.01562 -0.3418,0.88086 -0.39258,1.01367 2.0293,0.78711 0.39453,-1.01562 0.33984,-0.88086 0.39454,-1.01367 z"
         id="path76" /><path
         style="color:#000000;fill:#ff8b3d;stroke-linecap:square;stroke-dasharray:4.35532, 4.35532;-inkscape-stroke:none"
         d="m 157.39844,219.56445 -0.74024,0.79883 -2.96289,3.19336 -0.74023,0.79688 1.5957,1.48242 0.74219,-0.79883 2.96094,-3.19336 0.74218,-0.79688 z m -5.92383,6.38672 -0.74024,0.79688 -2.96289,3.19336 -0.74023,0.79687 1.5957,1.48242 0.74024,-0.79883 2.96289,-3.1914 0.74023,-0.79883 z m -5.92578,6.38477 -0.74024,0.79687 -2.96289,3.19336 -0.74023,0.79883 1.5957,1.48047 0.74024,-0.79883 2.96289,-3.19141 0.74023,-0.79882 z m -5.92383,6.38476 -0.74219,0.79688 -0.45898,0.49609 -0.74219,0.79883 1.59766,1.48242 0.74023,-0.79883 0.46094,-0.49609 0.74023,-0.79883 z"
         id="path77" /><path
         style="color:#000000;fill:#000000;stroke-linecap:square;-inkscape-stroke:none"
         d="m 169.68056,223.08159 8.91566,-9.72634"
         id="path1" /><path
         id="rect74"
         style="fill:#ff8b3d;fill-opacity:1;stroke:none;stroke-width:0.7256;stroke-linecap:square;stroke-linejoin:miter;stroke-dasharray:none;stroke-opacity:1"
         d="m 182.21134,212.15811 c -0.73842,0.0325 -1.46409,0.34776 -2.00504,0.93845 l -11.26133,12.29692 c -1.0819,1.18138 -1.00206,3.00312 0.17931,4.08502 l 31.55776,28.90056 1e-5,-30.45137 -16.39073,-15.01045 c -0.59069,-0.54095 -1.34156,-0.79159 -2.07998,-0.75913 z" /></g></g></svg>
