<svg xmlns="http://www.w3.org/2000/svg" width="500" height="500" viewBox="0 0 500 500"><title>logo-square</title><g fill="none" fill-rule="evenodd" stroke-width=".1"><path d="M478.854 307.537l-25.67-79L402.31 71.962c-2.618-8.057-14.015-8.057-16.633 0L334.8 228.537H165.87L114.99 71.962c-2.616-8.057-14.013-8.057-16.632 0L47.485 228.536l-25.67 79a17.488 17.488 0 0 0 6.354 19.555l222.164 161.413L472.5 327.09a17.49 17.49 0 0 0 6.353-19.552" fill="#fc6d26"/><path d="M250.335 488.503l84.467-259.966H165.866z" fill="#e24329"/><path d="M250.335 488.502l-84.47-259.965H47.488z" fill="#fc6d26"/><path d="M47.487 228.537l-25.67 79.002a17.486 17.486 0 0 0 6.352 19.55l222.165 161.412z" fill="#fca326"/><path d="M47.487 228.537h118.38L114.99 71.962c-2.617-8.057-14.015-8.057-16.632 0z" fill="#e24329"/><path d="M250.335 488.502l84.468-259.965h118.38z" fill="#fc6d26"/><path d="M453.183 228.537l25.67 79.002a17.486 17.486 0 0 1-6.353 19.55L250.334 488.502z" fill="#fca326"/><path d="M453.183 228.537h-118.38l50.875-156.575c2.618-8.057 14.015-8.057 16.632 0z" fill="#e24329"/></g><g transform="matrix(.93146 0 0 .93146 17.16 50.576)" stroke="#915d45" stroke-linejoin="round"><rect transform="rotate(45.12)" width="251.297" height="76.562" x="262.336" y="-103.619" ry="38.281" fill="#ebc5b2" stroke-width="7"/><rect transform="rotate(135.12)" ry="38.281" y="-426.266" x="-190.985" height="76.562" width="251.297" fill="#ebc5b2" stroke-width="7"/><circle transform="rotate(45.12)" r="3.666" cy="-66.52" cx="376.222" fill="#915d45" stroke-width="4"/><circle transform="rotate(45.12)" r="3.666" cy="-66.52" cx="400.268" fill="#915d45" stroke-width="4"/><circle transform="rotate(45.12)" r="3.666" cy="-42.592" cx="376.222" fill="#915d45" stroke-width="4"/><circle transform="rotate(45.12)" r="3.666" cy="-42.592" cx="400.268" fill="#915d45" stroke-width="4"/><circle transform="rotate(45.12)" cx="376.081" cy="-91.215" r="3.666" fill="#915d45" stroke-width="4"/><circle transform="rotate(45.12)" cx="400.127" cy="-91.215" r="3.666" fill="#915d45" stroke-width="4"/></g></svg>