<?xml version="1.0" encoding="UTF-8" standalone="no"?>
<!-- Created with Inkscape (http://www.inkscape.org/) -->

<svg
   xmlns:dc="http://purl.org/dc/elements/1.1/"
   xmlns:cc="http://creativecommons.org/ns#"
   xmlns:rdf="http://www.w3.org/1999/02/22-rdf-syntax-ns#"
   xmlns:svg="http://www.w3.org/2000/svg"
   xmlns="http://www.w3.org/2000/svg"
   xmlns:sodipodi="http://sodipodi.sourceforge.net/DTD/sodipodi-0.dtd"
   xmlns:inkscape="http://www.inkscape.org/namespaces/inkscape"
   width="141.11111mm"
   height="141.40024mm"
   viewBox="0 0 500.00001 501.02446"
   id="svg4920"
   version="1.1"
   inkscape:version="0.91 r13725"
   sodipodi:docname="hanko-single.svg">
  <defs
     id="defs4922" />
  <sodipodi:namedview
     id="base"
     pagecolor="#ffffff"
     bordercolor="#666666"
     borderopacity="1.0"
     inkscape:pageopacity="0.0"
     inkscape:pageshadow="2"
     inkscape:zoom="0.7"
     inkscape:cx="-52.362077"
     inkscape:cy="185.041"
     inkscape:document-units="px"
     inkscape:current-layer="layer1"
     showgrid="false"
     fit-margin-top="0"
     fit-margin-left="0"
     fit-margin-right="0"
     fit-margin-bottom="0"
     inkscape:window-width="1006"
     inkscape:window-height="849"
     inkscape:window-x="0"
     inkscape:window-y="24"
     inkscape:window-maximized="0" />
  <metadata
     id="metadata4925">
    <rdf:RDF>
      <cc:Work
         rdf:about="">
        <dc:format>image/svg+xml</dc:format>
        <dc:type
           rdf:resource="http://purl.org/dc/dcmitype/StillImage" />
        <dc:title></dc:title>
      </cc:Work>
    </rdf:RDF>
  </metadata>
  <g
     inkscape:label="Layer 1"
     inkscape:groupmode="layer"
     id="layer1"
     transform="translate(-147.83033,-23.895331)">
    <path
       style="opacity:1;fill:#c50c04;fill-opacity:1;fill-rule:nonzero;stroke:none;stroke-width:0.01;stroke-miterlimit:4;stroke-dasharray:none;stroke-dashoffset:0;stroke-opacity:1"
       d="m 523.6448,24.481225 c -1.43176,-0.183163 -2.87052,-0.327501 -4.3106,-0.423903 -1.48022,-0.09772 -2.96335,-0.13549 -4.44648,-0.15477 -2.09799,-0.02773 -4.19624,0.03169 -6.29409,0.05546 -4.2451,0.04886 -8.49032,0.129415 -12.73542,0.186068 -3.76124,0.05018 -7.5242,0.04886 -11.28491,0.138923 -1.90241,0.0449 -3.80337,0.122813 -5.70459,0.202575 -0.94433,0.04094 -1.88748,0.07395 -2.83037,0.138396 -2.17352,0.150148 -4.34176,0.382172 -6.51092,0.583162 -0.49324,0.0449 -0.98581,0.08188 -1.47759,0.141169 -2.47038,0.297128 -4.93562,0.65685 -7.3887,1.074546 l -0.0145,0 c -1.99049,0.335688 -3.96976,0.744404 -5.94863,1.143743 -5.44034,1.097788 -10.8507,2.331462 -16.2884,3.441927 -1.39254,0.284186 -2.78719,0.554902 -4.1829,0.823242 -1.48669,0.285638 -2.97445,0.567447 -4.46405,0.836975 -1.82885,0.330802 -3.6614,0.643381 -5.49303,0.958996 -4.69303,0.808451 -9.38804,1.607395 -14.08504,2.393132 -2.12254,0.354573 -4.24377,0.713503 -6.36962,1.048927 -1.92222,0.303466 -3.848,0.588181 -5.77299,0.872763 -0.91252,0.134962 -1.82344,0.274678 -2.7382,0.394057 -2.45586,0.321294 -4.91925,0.59452 -7.38091,0.869066 -0.99915,0.110927 -1.99802,0.218025 -2.99862,0.314823 -2.68194,0.259755 -5.36533,0.491911 -8.04978,0.718917 -5.16117,0.436315 -10.3308,0.786398 -15.49091,1.234466 -2.35801,0.20482 -4.71522,0.41796 -7.06927,0.664113 -1.29772,0.136019 -2.59399,0.292374 -3.88959,0.449654 -1.73893,0.210498 -3.47666,0.433674 -5.21374,0.658831 -3.97187,0.515285 -7.94017,1.051699 -11.90953,1.584945 -4.96071,0.672036 -9.92209,1.33298 -14.88121,2.016242 -3.39875,0.471706 -6.79749,0.942489 -10.19584,1.417629 -7.63486,1.069527 -15.26998,2.144997 -22.9022,3.233409 -3.56976,0.509871 -7.13754,1.024892 -10.70637,1.542423 -2.81624,0.407659 -5.63367,0.815978 -8.44886,1.230372 -2.3098,0.340178 -4.61881,0.682073 -6.9269,1.034533 -2.35193,0.35959 -4.70479,0.715615 -7.05262,1.101089 -2.17155,0.355496 -4.34177,0.725519 -6.50684,1.118256 -1.66114,0.301222 -3.31779,0.619742 -4.97312,0.950677 -1.51205,0.302674 -3.02291,0.613799 -4.52889,0.94645 -1.22971,0.271245 -2.45586,0.553714 -3.67844,0.855464 -1.8031,0.444767 -3.60462,0.901551 -5.39174,1.406404 -2.07646,0.586464 -4.13853,1.224826 -6.19267,1.885242 -0.84978,0.273225 -1.69482,0.560449 -2.53655,0.858369 -1.1757,0.416507 -2.34638,0.850973 -3.5102,1.30023 -0.99636,0.38455 -1.98877,0.780192 -2.97365,1.194189 -1.04021,0.437372 -2.0754,0.888742 -3.10069,1.360317 -1.18613,0.545394 -2.36382,1.110333 -3.52922,1.699306 -1.32849,0.671244 -2.64206,1.370089 -3.94427,2.090986 -0.99254,0.549488 -1.97398,1.119973 -2.94816,1.701023 -0.68089,0.406207 -1.35385,0.825487 -2.02417,1.248729 -0.74837,0.472366 -1.49356,0.949752 -2.22991,1.440342 -0.8103,0.539584 -1.61453,1.089204 -2.40779,1.653219 -1.19908,0.85269 -2.39115,1.71436 -3.55312,2.6171 -1.70485,1.324661 -3.37537,2.695014 -5.01234,4.102739 -1.07561,0.925057 -2.12876,1.877054 -3.1588,2.852689 -1.26378,1.19683 -2.49231,2.430901 -3.70406,3.680686 -0.71747,0.740442 -1.42304,1.493693 -2.11291,2.260283 -1.04351,1.160118 -2.06735,2.338724 -3.0649,3.538856 -0.8416,1.012611 -1.65943,2.043842 -2.46062,3.088679 -0.72208,0.94156 -1.42661,1.8995 -2.11555,2.86563 -0.62079,0.87012 -1.22905,1.74738 -1.81881,2.63876 -0.8309,1.25612 -1.63658,2.53087 -2.42073,3.81683 -0.53391,0.87554 -1.05474,1.75847 -1.55444,2.65408 -0.85877,1.53886 -1.68095,3.09911 -2.47897,4.67032 -0.37927,0.74731 -0.74428,1.50148 -1.09911,2.26068 -0.54421,1.16474 -1.07428,2.33661 -1.58046,3.51825 -0.42733,0.99743 -0.83684,2.00238 -1.22905,3.0142 -0.50155,1.29402 -0.98197,2.59756 -1.43625,3.90901 -0.39432,1.13833 -0.76487,2.28471 -1.11984,3.43612 -0.32341,1.04919 -0.63797,2.10062 -0.92136,3.16144 -0.4787,1.79267 -0.92519,3.59418 -1.31344,5.40851 -0.30227,1.41684 -0.56969,2.84397 -0.7922,4.27573 -0.22886,1.47798 -0.41347,2.9627 -0.55728,4.4515 -0.12282,1.228 -0.2035,2.45916 -0.26663,3.69152 -0.0621,1.22337 -0.0924,2.44914 -0.10432,3.67409 -0.0145,1.21374 0,2.42721 0.0343,3.64041 0.0515,1.78871 0.14421,3.57636 0.2521,5.36256 0.0713,1.19287 0.16441,2.38521 0.26464,3.57597 0.16481,1.95523 0.3559,3.90676 0.55147,5.85922 0.34375,3.43348 0.72605,6.86365 1.09026,10.29488 0.28551,2.68683 0.58554,5.3722 0.85758,8.06048 0.24496,2.42179 0.47461,4.8445 0.69686,7.2684 0.51608,5.63169 0.86643,11.28108 1.47706,16.90326 0.1792,1.6519 0.42416,3.29601 0.64166,4.94328 0.85124,6.4346 1.73034,12.86537 2.5994,19.29759 5.79664,42.90655 12.0037,85.75843 17.43678,128.71253 0.24364,1.92446 0.47448,3.85077 0.67903,5.77972 0.16454,1.55035 0.30677,3.10334 0.44213,4.65646 0.28326,3.25836 0.51462,6.52188 0.77068,9.78236 0.18911,2.40581 0.35589,4.81241 0.56586,7.21651 0.0832,0.94566 0.17405,1.88986 0.27336,2.83394 0.22912,2.17801 0.46933,4.35641 0.74493,6.52901 0.31007,2.43883 0.64616,4.87474 1.02067,7.30446 0.29343,1.90478 0.61538,3.80548 0.95939,5.70168 0.28274,1.55681 0.58805,3.10756 0.90829,4.65711 0.46391,2.24417 0.94764,4.48491 1.46688,6.71693 0.47594,2.0453 0.98845,4.08307 1.511,6.11687 0.43182,1.67963 0.8758,3.35556 1.3413,5.02621 0.47633,1.71001 0.9722,3.41499 1.48299,5.11509 0.37901,1.2618 0.77095,2.51964 1.17412,3.77405 0.45573,1.41789 0.91476,2.83539 1.40852,4.24047 0.86127,2.45084 1.74988,4.89376 2.71073,7.30736 0.56362,1.41565 1.16236,2.81545 1.79016,4.2039 0.57986,1.28293 1.19234,2.55411 1.82595,3.81129 0.5475,1.08577 1.11561,2.15926 1.7067,3.22178 0.59333,1.06623 1.20436,2.12334 1.84509,3.16144 0.82879,1.34183 1.69733,2.66081 2.58554,3.96395 0.41889,0.61433 0.85137,1.21822 1.29244,1.8167 0.67257,0.91291 1.35675,1.81909 2.06431,2.70519 0.90367,1.13146 1.83005,2.24311 2.78429,3.33232 0.9343,1.06609 1.89554,2.10894 2.87593,3.13291 0.96309,1.00535 1.94889,1.9897 2.95134,2.95583 0.93694,0.9034 1.89409,1.78474 2.86246,2.65434 1.15972,1.041 2.3337,2.06708 3.52987,3.06596 0.97775,0.8165 1.96871,1.61677 2.9796,2.39154 1.12499,0.86234 2.26768,1.70354 3.43308,2.5104 1.59722,1.10637 3.22469,2.17075 4.8758,3.19459 1.03255,0.64008 2.08491,1.24754 3.144,1.84206 1.05368,0.59135 2.11819,1.16289 3.193,1.71502 1.1629,0.59729 2.33622,1.17372 3.51945,1.72928 0.79947,0.37531 1.60581,0.73741 2.41809,1.08339 1.73813,0.73992 3.48854,1.45408 5.25665,2.11951 1.15536,0.435 2.32024,0.842 3.49396,1.2247 1.64899,0.53787 3.30762,1.04866 4.98065,1.50611 1.84311,0.50379 3.70062,0.96216 5.5687,1.36216 1.23433,0.26438 2.47765,0.48254 3.72347,0.68538 0.84001,0.13694 1.68452,0.24787 2.52849,0.35866 0.74929,0.0964 1.49845,0.18739 2.24985,0.26398 1.79069,0.1693 3.58495,0.30585 5.38158,0.3938 1.7236,0.0845 3.4513,0.12281 5.17715,0.13073 1.92182,0.0132 3.84338,-0.0396 5.76441,-0.0951 1.76771,-0.0515 3.53436,-0.12941 5.30076,-0.21974 2.13667,-0.10829 4.27163,-0.24985 6.4066,-0.38759 3.20792,-0.20693 6.41531,-0.43552 9.62218,-0.65975 3.97517,-0.27825 7.95061,-0.54989 11.92432,-0.85098 3.07944,-0.23334 6.15781,-0.47949 9.235,-0.74149 1.65335,-0.14065 3.30828,-0.27085 4.95859,-0.44451 0.85481,-0.0898 1.70882,-0.19861 2.56111,-0.30967 6.65632,-0.86709 13.29548,-1.86068 19.94308,-2.79393 1.99855,-0.28101 4.00013,-0.53998 5.99538,-0.84278 3.66563,-0.55622 7.32624,-1.14203 10.97695,-1.78805 7.2989,-1.29178 14.54275,-2.88399 21.84205,-4.17577 3.64965,-0.64615 7.30181,-1.30155 10.97655,-1.78831 3.68716,-0.48808 7.3895,-0.86867 11.09898,-1.13608 4.13984,-0.29832 8.29276,-0.35708 12.44001,-0.52017 3.31251,-0.13074 6.62911,-0.16045 9.93779,-0.36514 3.69086,-0.22846 7.38528,-0.49601 11.05342,-0.96441 6.7955,-0.86775 13.52115,-2.21314 20.26516,-3.41697 6.67679,-1.19168 13.30458,-2.65896 19.9959,-3.7656 12.24232,-2.02456 24.55436,-3.59841 36.85201,-5.25519 4.0041,-0.53906 8.0144,-1.02991 12.02417,-1.52618 2.74321,-0.33965 5.49158,-0.63916 8.23281,-0.99333 2.27732,-0.29436 4.55371,-0.59954 6.82429,-0.94104 1.3421,-0.20192 2.68115,-0.41545 4.0173,-0.65329 1.34421,-0.23915 2.68683,-0.49032 4.02179,-0.77689 1.24767,-0.26807 2.48914,-0.57035 3.72651,-0.88266 0.71377,-0.18013 1.42436,-0.37095 2.13258,-0.57181 0.89086,-0.25275 1.77828,-0.51845 2.66187,-0.79617 0.84701,-0.26636 1.69297,-0.53905 2.53126,-0.83248 1.55761,-0.5454 3.10453,-1.12341 4.64127,-1.7244 1.2445,-0.4865 2.48254,-0.9895 3.7071,-1.52394 2.14526,-0.93615 4.26992,-1.9197 6.37385,-2.94526 1.25705,-0.61261 2.49534,-1.26233 3.73166,-1.91574 0.76579,-0.40476 1.52591,-0.81942 2.28273,-1.24081 0.87738,-0.48861 1.74988,-0.9862 2.61802,-1.49158 0.95702,-0.55728 1.91073,-1.1205 2.85494,-1.69944 1.00086,-0.61367 1.99511,-1.23843 2.97748,-1.88141 1.65481,-1.08353 3.29244,-2.1928 4.91093,-3.33007 0.82773,-0.58132 1.64556,-1.17663 2.45308,-1.78515 1.44352,-1.08775 2.87277,-2.1965 4.27534,-3.33641 1.08551,-0.88201 2.15424,-1.78448 3.20317,-2.70954 1.04246,-0.91938 2.07157,-1.85527 3.07058,-2.82166 1.37722,-1.33232 2.72209,-2.69884 4.0272,-4.10168 0.88254,-0.94883 1.73695,-1.92486 2.57009,-2.91753 0.72235,-0.86061 1.42225,-1.73866 2.10406,-2.63189 0.73582,-0.96375 1.45646,-1.94005 2.14262,-2.93985 0.91106,-1.3277 1.78792,-2.68167 2.62001,-4.06035 0.97867,-1.62126 1.90016,-3.27646 2.78864,-4.94882 0.53932,-1.01525 1.05223,-2.04371 1.54163,-3.08392 0.5623,-1.19485 1.08841,-2.40713 1.60026,-3.62443 0.22807,-0.54209 0.44781,-1.08934 0.65567,-1.63949 0.40369,-1.06728 0.79709,-2.13892 1.15087,-3.22377 0.5005,-1.53397 0.96402,-3.08127 1.3726,-4.64232 0.46444,-1.77286 0.86088,-3.56342 1.22311,-5.35992 0.27336,-1.35133 0.50842,-2.71165 0.71614,-4.07447 0.28458,-1.87257 0.52215,-3.752 0.72697,-5.635 0.19624,-1.77127 0.34401,-3.54757 0.4733,-5.32505 0.11621,-1.6033 0.1961,-3.20991 0.26979,-4.81585 0.0462,-1.02133 0.0832,-2.04133 0.10828,-3.06345 0.0436,-1.74487 0.0753,-3.49132 0.0806,-5.23671 0,-1.58798 -0.0132,-3.1753 -0.037,-4.76315 -0.0198,-1.26894 -0.0541,-2.53946 -0.0964,-3.80786 -0.0806,-2.41149 -0.18131,-4.821 -0.30677,-7.23064 -0.0792,-1.52235 -0.17048,-3.04483 -0.28075,-4.5652 -0.20548,-2.83367 -0.44226,-5.66563 -0.70769,-8.49441 -0.16336,-1.74395 -0.33952,-3.48696 -0.54632,-5.22628 -0.87303,-7.34539 -1.95259,-14.66292 -2.93232,-21.99484 -0.43156,-3.27144 -0.86722,-6.54275 -1.31225,-9.81235 -1.25942,-9.29481 -2.57933,-18.58117 -3.85407,-27.87374 -0.32882,-2.42786 -0.69449,-4.85176 -0.98541,-7.28451 -0.1998,-1.64332 -0.36897,-3.29099 -0.53126,-4.93827 -0.29079,-2.95146 -0.49958,-5.90901 -0.79314,-8.86008 -0.10696,-1.0752 -0.22014,-2.15081 -0.35312,-3.22324 -0.19042,-1.53991 -0.40396,-3.07573 -0.63691,-4.60984 -0.18224,-1.19498 -0.38587,-2.38679 -0.59504,-3.57741 -0.43777,-2.49204 -0.93536,-4.97458 -1.38211,-7.46504 -0.34916,-1.94691 -0.70333,-3.89277 -1.01459,-5.84615 -0.22582,-1.41433 -0.41704,-2.8342 -0.6171,-4.25236 -1.65481,-11.68609 -3.2309,-23.38196 -4.8412,-35.07427 -0.58937,-4.26688 -1.2243,-8.52967 -1.76124,-12.80356 -0.13206,-1.05843 -0.26623,-2.11528 -0.36131,-3.17768 -0.11357,-1.27184 -0.18884,-2.54922 -0.24906,-3.82476 -0.074,-1.56989 -0.0951,-3.14057 -0.13826,-4.71165 -0.0317,-1.1625 -0.037,-2.32565 -0.0898,-3.48749 -0.0568,-1.27897 -0.13853,-2.55714 -0.24351,-3.83294 -0.0568,-0.69343 -0.12282,-1.38805 -0.21024,-2.07844 -0.13853,-1.10651 -0.31165,-2.20733 -0.49363,-3.30736 -0.19689,-1.15867 -0.42152,-2.31377 -0.66266,-3.46385 -0.13958,-0.66966 -0.30096,-1.33391 -0.4552,-2.0004 -0.43354,-1.87322 -0.87976,-3.74249 -1.32096,-5.61386 -0.24576,-1.04074 -0.50314,-2.07897 -0.73635,-3.12248 -0.25223,-1.13135 -0.50129,-2.26307 -0.71694,-3.40193 -0.23228,-1.22932 -0.43433,-2.46629 -0.6237,-3.703 -1.80825,-11.79901 -3.14797,-23.66457 -4.89996,-35.47203 -0.29555,-1.98785 -0.59809,-3.9757 -0.94553,-5.9551 -0.44741,-2.54803 -0.92955,-5.09012 -1.46913,-7.6202 -0.23387,-1.096469 -0.49495,-2.187125 -0.7662,-3.274877 -0.26464,-1.060811 -0.53667,-2.121227 -0.84106,-3.17121 -0.45824,-1.579795 -0.9454,-3.152326 -1.48327,-4.706898 -0.46153,-1.333245 -0.96137,-2.652096 -1.49488,-3.958401 -0.50327,-1.232485 -1.04179,-2.453746 -1.6099,-3.657707 -0.5104,-1.081149 -1.0488,-2.148035 -1.614,-3.20132 -0.74057,-1.379861 -1.51456,-2.741762 -2.32697,-4.080289 -0.72314,-1.191548 -1.48181,-2.362099 -2.26689,-3.513765 -0.90036,-1.320304 -1.83585,-2.615648 -2.79894,-3.890788 -0.62978,-0.83407 -1.28201,-1.652822 -1.94863,-2.45784 -1.13503,-1.370749 -2.29673,-2.719312 -3.49013,-4.039483 -0.77755,-0.860218 -1.57834,-1.700495 -2.39022,-2.528623 -0.90578,-0.923737 -1.82635,-1.832683 -2.76778,-2.719972 -1.36494,-1.286365 -2.75668,-2.543545 -4.17365,-3.772201 -0.69423,-0.601914 -1.40826,-1.181776 -2.11991,-1.762693 -0.7238,-0.590822 -1.45183,-1.177946 -2.18792,-1.75345 -0.54896,-0.429448 -1.1028,-0.85269 -1.66246,-1.268404 -1.1794,-0.876329 -2.36196,-1.747243 -3.57028,-2.58303 -1.44484,-0.999538 -2.91252,-1.968834 -4.39723,-2.908418 -1.28055,-0.810564 -2.58105,-1.587586 -3.8896,-2.352326 -0.69211,-0.40449 -1.39069,-0.799868 -2.09481,-1.1827 -1.50123,-0.815979 -3.01446,-1.609772 -4.5413,-2.376229 -1.18904,-0.596765 -2.38336,-1.18587 -3.59723,-1.730076 -2.60865,-1.169626 -5.25057,-2.268602 -7.91786,-3.297852 -1.33879,-0.516606 -2.69646,-0.979201 -4.05453,-1.443381 -0.68234,-0.233212 -1.36811,-0.45784 -2.05679,-0.672168 -1.36163,-0.423902 -2.7271,-0.83724 -4.10326,-1.212149 -1.20687,-0.328821 -2.42034,-0.632024 -3.63988,-0.910135 -1.27475,-0.290657 -2.55662,-0.5586 -3.84325,-0.791416 -1.11007,-0.200726 -2.22344,-0.379927 -3.34209,-0.522417 z M 476.24607,130.40948 c 0.7172,0.0805 1.42819,0.2002 2.12809,0.36606 1.22166,0.28934 2.38283,0.80264 3.53595,1.29865 1.31793,0.56678 2.58184,1.25374 3.8558,1.91337 2.08544,1.07956 4.14565,2.20614 6.1994,3.34446 0.88967,0.4931 1.77577,0.99492 2.65302,1.50994 1.21769,0.71482 2.42813,1.44153 3.6235,2.19267 1.31133,0.82377 2.6109,1.66537 3.89119,2.53668 1.5242,1.03717 3.02185,2.11185 4.50881,3.20185 0.70294,0.51502 1.3961,1.0439 2.08557,1.57636 1.0451,0.80686 2.0832,1.62509 3.11205,2.45256 1.02001,0.82046 2.03011,1.65374 3.03599,2.49177 1.12525,0.93761 2.24245,1.88419 3.35437,2.83778 1.98547,1.70314 3.95378,3.42595 5.92235,5.14903 1.16606,1.0208 2.33661,2.03526 3.48669,3.07402 1.11958,1.01142 2.23334,2.03142 3.32228,3.0756 1.05633,1.01287 2.09971,2.04107 3.11602,3.09422 1.05737,1.09567 2.08015,2.22423 3.10095,3.35397 0.77636,0.85903 1.54454,1.72519 2.29885,2.60364 1.413,1.64635 2.80977,3.30722 4.1714,4.99663 0.96243,1.19419 1.91152,2.39973 2.8243,3.63222 0.9759,1.31739 1.92011,2.65843 2.83381,4.01941 0.80409,1.19788 1.57556,2.41822 2.33001,3.64806 0.73859,1.20436 1.44879,2.42549 2.14975,3.65217 0.86272,1.5098 1.70076,3.03466 2.5306,4.56269 1.35385,2.49244 2.63572,5.02264 3.99419,7.51231 0.98554,1.80614 1.98204,3.60753 3.01538,5.38659 1.06359,1.83084 2.18422,3.62628 3.27739,5.43929 1.07877,1.78897 2.18553,3.56236 3.23988,5.36586 0.82482,1.41089 1.65242,2.82152 2.41228,4.26847 0.67877,1.29336 1.32598,2.60469 1.91376,3.94203 0.57366,1.30485 1.09779,2.63294 1.57227,3.97702 0.37517,1.06279 0.69779,2.14367 1.00733,3.22746 0.34453,1.207 0.65526,2.42377 0.94368,3.64543 0.40316,1.70802 0.7617,3.42714 1.09976,5.14915 0.3901,1.98852 0.73305,3.98429 1.0727,5.98218 0.40885,2.40396 0.78204,4.81558 1.16157,7.22442 0.4346,2.75682 0.88795,5.51126 1.27659,8.27494 0.16521,1.17478 0.33028,2.34956 0.44807,3.53014 0.21011,2.11238 0.35431,4.23136 0.46101,6.35154 0.0594,1.18864 0.0832,2.3786 0.0991,3.56856 0.0238,1.73734 0.0198,3.47613 0,5.21347 -0.033,2.83632 -0.11886,5.67078 -0.19017,8.5063 -0.0647,2.61103 -0.13298,5.22206 -0.22106,7.83242 -0.0607,1.78475 -0.12677,3.56963 -0.21274,5.35319 -0.0515,1.0373 -0.10697,2.07421 -0.17841,3.1102 -0.10433,1.52697 -0.2138,3.0546 -0.36619,4.57748 -0.23058,2.31891 -0.48756,4.63691 -0.82153,6.94315 -0.3102,2.13865 -0.70082,4.26543 -1.10096,6.38903 -0.35681,1.89343 -0.75655,3.77669 -1.16091,5.66048 -0.47302,2.20324 -0.95556,4.40528 -1.47969,6.5969 -0.41928,1.75371 -0.86233,3.5032 -1.33259,5.2441 -0.33635,1.24503 -0.68471,2.48557 -1.06424,3.71819 -0.50116,1.628 -1.03889,3.2449 -1.59881,4.85361 -0.47013,1.35068 -0.96705,2.69224 -1.47785,4.028 -0.51291,1.34143 -1.03559,2.67943 -1.59445,4.00237 -0.38944,0.92229 -0.76105,1.85527 -1.22602,2.74177 -0.61142,1.1654 -1.26378,2.31865 -2.04833,3.37537 -0.40911,0.55133 -0.8556,1.08696 -1.37669,1.53384 -0.67217,0.57642 -1.41433,1.0921 -2.2245,1.44985 -0.54288,0.23981 -1.13661,0.36513 -1.72439,0.44767 -1.07376,0.15094 -2.17221,0.18871 -3.25151,0.0832 -1.28544,-0.12545 -2.54196,-0.48121 -3.78104,-0.84582 -0.53219,-0.15662 -1.04985,-0.36434 -1.56303,-0.57484 -1.01749,-0.41757 -2.01413,-0.88412 -3.00416,-1.36309 -9.27328,-4.48557 -18.31943,-9.42463 -27.48576,-14.12492 -3.1724,-1.62681 -6.30386,-3.33866 -9.52234,-4.87184 -2.45454,-1.1691 -4.97669,-2.18699 -7.45883,-3.29574 -1.72123,-0.76883 -3.44417,-1.53595 -5.1555,-2.32657 -1.43413,-0.66253 -2.86193,-1.33668 -4.28312,-2.02668 -1.17478,-0.57035 -2.37161,-1.10082 -3.50611,-1.74751 -1.42344,-0.81148 -2.83315,-1.66233 -4.12796,-2.66609 -0.93074,-0.72156 -1.86227,-1.47719 -2.59743,-2.39709 -0.53588,-0.67059 -1.03268,-1.41011 -1.28504,-2.23057 -0.32288,-1.04985 -0.33252,-2.19241 -0.24325,-3.28716 0.0819,-1.01446 0.42153,-1.99287 0.71298,-2.96784 0.73449,-2.45731 1.77259,-4.81506 2.60323,-7.2416 0.54249,-1.58508 1.07098,-3.1753 1.55391,-4.7794 0.297,-0.98659 0.56507,-1.98137 0.82536,-2.97827 0.23994,-0.91819 0.46193,-1.84166 0.67639,-2.76619 0.34242,-1.47455 0.69488,-2.94698 0.97405,-4.43486 0.30756,-1.635 0.56349,-3.2799 0.77016,-4.93074 0.17127,-1.36586 0.29026,-2.73872 0.37741,-4.11238 0.0858,-1.40204 0.12942,-2.80686 0.13655,-4.21142 0,-1.62337 -0.0343,-3.2482 -0.10961,-4.86986 -0.0515,-1.10914 -0.13522,-2.21538 -0.23215,-3.32135 -0.0753,-0.86313 -0.16481,-1.72585 -0.27349,-2.58541 -0.13444,-1.06662 -0.28089,-2.13245 -0.46814,-3.19115 -0.29568,-1.67131 -0.63348,-3.33734 -1.0311,-4.98739 -0.36567,-1.51799 -0.79406,-3.02053 -1.24556,-4.51515 -0.3621,-1.19934 -0.75444,-2.38904 -1.17266,-3.56989 -0.57023,-1.60924 -1.17623,-3.20621 -1.82133,-4.78679 -0.75312,-1.84431 -1.5444,-3.67461 -2.39195,-5.47719 -0.55741,-1.18547 -1.15351,-2.35246 -1.76863,-3.50901 -0.70901,-1.3339 -1.43757,-2.65909 -2.2138,-3.95523 -1.3236,-2.21063 -2.7032,-4.38983 -4.16613,-6.51106 -0.6752,-0.9796 -1.37061,-1.94665 -2.12598,-2.86603 -0.52756,-0.64206 -1.04219,-1.30789 -1.67474,-1.84681 -0.71165,-0.6064 -1.49845,-1.14678 -2.35061,-1.53199 -0.60258,-0.27243 -1.25969,-0.42588 -1.91231,-0.53206 -0.57287,-0.0938 -1.16158,-0.16375 -1.73708,-0.0885 -0.99756,0.12941 -1.96368,0.49191 -2.87474,0.91819 -1.17095,0.5479 -2.25421,1.28398 -3.27276,2.07976 -8.95741,6.99636 -16.47712,15.66047 -24.71165,23.49474 -3.54651,3.37418 -7.11746,6.72605 -10.63783,10.12756 -1.40138,1.35411 -2.78389,2.72539 -4.17246,4.09257 -1.49106,1.46834 -2.95319,2.966 -4.46537,4.41294 -0.86774,0.83051 -1.74249,1.65375 -2.64259,2.44913 -1.10095,0.97312 -2.2303,1.91707 -3.37259,2.84146 -1.08881,0.88135 -2.1726,1.77022 -3.31714,2.57775 -1.06121,0.74863 -2.14275,1.47904 -3.28425,2.09825 -0.70782,0.38402 -1.43083,0.76382 -2.20138,0.99795 -0.80014,0.24325 -1.63738,0.40674 -2.47369,0.40938 -0.86761,0 -1.72664,-0.21063 -2.57101,-0.41043 -0.83117,-0.19637 -1.642,-0.47713 -2.44371,-0.77161 -1.56329,-0.57418 -3.09621,-1.23037 -4.60509,-1.93609 -1.41327,-0.66094 -2.79022,-1.40033 -4.15925,-2.14869 -6.58607,-3.59934 -12.84397,-7.78831 -19.50135,-11.25361 -2.8828,-1.50056 -5.88867,-2.75074 -8.83512,-4.12255 -5.19195,-2.41717 -10.39828,-4.80541 -15.58204,-7.24041 -1.73747,-0.81611 -3.47137,-1.63869 -5.20158,-2.46985 -1.11971,-0.53787 -2.24523,-1.06596 -3.35253,-1.62853 -1.65757,-0.84212 -3.24582,-1.81921 -4.92611,-2.61512 -1.15114,-0.54513 -2.31258,-1.08629 -3.52472,-1.47692 -0.77703,-0.25051 -1.57214,-0.50102 -2.38693,-0.54935 -0.69647,-0.0409 -1.41076,0.0317 -2.08042,0.22555 -0.89416,0.25975 -1.74896,0.69079 -2.50591,1.23288 -0.83235,0.59597 -1.55655,1.35411 -2.17088,2.17313 -0.42153,0.5619 -0.71615,1.21148 -1.0142,1.84747 -0.41954,0.89521 -0.73582,1.83453 -1.08392,2.75959 -0.77874,2.06774 -1.54929,4.14037 -2.24681,6.23677 -0.49521,1.48842 -0.95887,2.98805 -1.37709,4.49984 -0.34295,1.23869 -0.64853,2.48742 -0.92743,3.74196 -0.30941,1.3924 -0.59624,2.79062 -0.82694,4.19821 -0.32909,1.99829 -0.5973,4.00819 -0.79129,6.02404 -0.17154,1.78712 -0.28682,3.58124 -0.33106,5.37602 -0.0449,1.84193 -0.0198,3.68452 0.0634,5.52526 0.0396,0.9174 0.11621,1.83334 0.20205,2.74744 0.11093,1.18177 0.23744,2.36289 0.40489,3.53806 0.19887,1.39465 0.4371,2.78521 0.71231,4.16666 0.34982,1.75596 0.74863,3.50175 1.19274,5.23618 0.41096,1.60396 0.87316,3.19511 1.35912,4.77781 0.32143,1.04655 0.66808,2.0861 1.02978,3.11945 0.52136,1.49052 1.06227,2.9751 1.6449,4.44304 0.49825,1.25613 1.02489,2.49984 1.58059,3.7318 0.62225,1.37986 1.27104,2.74915 1.96104,4.09666 0.84833,1.65626 1.74751,3.28623 2.67732,4.89825 0.40436,0.70135 0.83922,1.38646 1.26207,2.07685 1.68002,2.74282 3.41947,5.44919 5.06926,8.21037 0.39194,0.65606 0.82126,1.29363 1.14704,1.98481 0.39525,0.83803 0.77768,1.69812 0.97194,2.60416 0.10036,0.46642 0.12545,0.95319 0.0938,1.42925 -0.033,0.49812 -0.16375,0.98527 -0.2929,1.46755 -0.17564,0.66147 -0.36025,1.3306 -0.65619,1.94783 -0.65989,1.37511 -1.51984,2.6558 -2.46748,3.85091 -0.73543,0.92717 -1.6239,1.72572 -2.47501,2.54777 -3.25401,3.14242 -6.70386,6.07382 -10.05599,9.11112 -8.09943,7.33879 -16.21749,14.65619 -24.29791,22.01584 -2.87065,2.61459 -5.71885,5.25295 -8.59135,7.8657 -1.30934,1.19115 -2.5957,2.41267 -3.94176,3.56223 -0.71574,0.61129 -1.43875,1.21426 -2.1965,1.77286 -0.75998,0.56032 -1.52037,1.13278 -2.35179,1.58045 -0.89046,0.4795 -1.80641,0.97775 -2.79961,1.16937 -1.37431,0.2653 -2.83909,0.27335 -4.19861,-0.0621 -1.10822,-0.27309 -2.131,-0.87857 -3.05632,-1.54705 -0.9763,-0.70518 -1.77286,-1.63724 -2.56084,-2.54777 -0.56125,-0.64839 -1.03203,-1.36916 -1.53424,-2.06431 -1.23301,-1.70643 -2.42443,-3.44298 -3.6309,-5.16843 -2.08478,-2.98224 -4.17128,-5.96329 -6.23295,-8.96164 -1.46464,-2.12994 -2.93535,-4.25645 -4.36024,-6.41333 -0.89944,-1.36177 -1.78686,-2.73067 -2.64352,-4.11991 -0.86418,-1.40165 -1.69825,-2.82337 -2.51621,-4.25249 -0.52968,-0.92572 -1.05619,-1.85236 -1.54902,-2.79828 -1.22205,-2.34639 -2.37781,-4.72922 -3.48934,-7.12975 -0.49719,-1.07348 -0.96216,-2.16031 -1.42159,-3.25044 -0.67916,-1.61136 -1.34473,-3.22998 -1.97398,-4.8614 -0.54487,-1.41248 -1.06332,-2.83619 -1.56078,-4.2661 -0.47659,-1.37101 -0.93126,-2.74942 -1.36375,-4.13509 -0.58673,-1.88036 -1.13186,-3.77246 -1.66695,-5.66827 -0.24483,-0.86709 -0.47871,-1.73853 -0.70492,-2.6105 -0.38217,-1.47322 -0.75299,-2.94975 -1.10294,-4.43077 -0.35483,-1.50109 -0.68907,-3.00614 -1.01036,-4.51462 -0.30268,-1.42106 -0.59743,-2.84358 -0.86326,-4.27204 -0.48531,-2.61168 -0.92889,-5.23182 -1.3376,-7.85658 -0.19439,-1.24714 -0.36831,-2.49706 -0.52942,-3.74896 -0.20284,-1.57979 -0.38613,-3.16289 -0.54843,-4.74744 -0.13523,-1.32056 -0.24959,-2.64298 -0.35352,-3.96645 -0.12809,-1.63196 -0.2447,-3.26577 -0.33423,-4.90023 -0.0779,-1.41552 -0.1413,-2.83117 -0.17616,-4.24827 -0.0343,-1.41749 -0.0502,-2.8371 -0.0343,-4.25487 0.029,-2.51871 0.10168,-5.0377 0.23942,-7.55285 0.13364,-2.41809 0.34005,-4.83209 0.56679,-7.24331 0.28207,-2.98792 0.6311,-5.96791 0.99188,-8.94737 0.30822,-2.57683 0.64536,-5.15088 0.99531,-7.72228 0.27243,-2.00198 0.55926,-4.00212 0.86365,-5.99947 0.13879,-0.90446 0.28286,-1.8076 0.43618,-2.70968 0.13708,-0.7922 0.27917,-1.58349 0.42998,-2.37319 0.21551,-1.12869 0.4309,-2.2583 0.67811,-3.38039 0.25962,-1.17992 0.54539,-2.35298 0.84239,-3.52406 0.20997,-0.82813 0.43169,-1.65296 0.66464,-2.47474 0.35893,-1.26722 0.73397,-2.53114 1.12816,-3.78779 0.35391,-1.12829 0.72869,-2.24958 1.11139,-3.36837 0.68458,-2.00039 1.40456,-3.98838 2.1211,-5.97755 0.76144,-2.11423 1.49884,-4.23849 2.31403,-6.33265 0.3823,-0.98237 0.78019,-1.95827 1.20858,-2.92136 0.68643,-1.54295 1.41023,-3.06952 2.18052,-4.57246 0.83183,-1.62377 1.72017,-3.21967 2.63255,-4.79973 0.43711,-0.75722 0.90102,-1.4999 1.36098,-2.24338 1.59089,-2.57141 3.23473,-5.10915 4.83975,-7.67171 0.9339,-1.49105 1.86569,-2.98276 2.78811,-4.48081 0.87316,-1.41816 1.73509,-2.84464 2.60139,-4.26689 1.00957,-1.65758 2.00554,-3.32321 3.02489,-4.97471 0.7481,-1.21188 1.49303,-2.42601 2.26781,-3.62086 0.98448,-1.51826 1.97926,-3.02952 3.0241,-4.50683 0.48808,-0.69013 0.99095,-1.3697 1.51455,-2.03341 1.02384,-1.29799 2.08875,-2.56468 3.18046,-3.80614 0.63532,-0.72235 1.30181,-1.41816 1.96012,-2.11965 1.28253,-1.36718 2.56031,-2.7378 3.87507,-4.07421 1.34117,-1.36335 2.70822,-2.70307 4.0927,-4.02258 0.71205,-0.67864 1.43176,-1.35002 2.16745,-2.00277 1.32691,-1.17729 2.64589,-2.36699 4.0519,-3.44867 1.04747,-0.80581 2.11739,-1.59101 3.25744,-2.25909 1.04259,-0.61076 2.13206,-1.15153 3.25824,-1.58904 0.83631,-0.32473 1.7034,-0.57114 2.57999,-0.76197 0.70056,-0.15265 1.4134,-0.28511 2.13007,-0.30373 1.01024,-0.0264 2.02074,0.11225 3.01882,0.27112 0.77068,0.12281 1.52869,0.31852 2.28141,0.52505 1.19802,0.32869 2.3798,0.71588 3.54969,1.13398 0.98818,0.35325 1.96368,0.74493 2.9273,1.16051 1.6651,0.71799 3.30446,1.49422 4.92756,2.30241 19.22773,9.57319 37.96486,20.1055 56.95581,30.13997 1.27738,0.67494 2.53153,1.39095 3.83163,2.02113 0.30452,0.14777 0.61736,0.28035 0.92875,0.41347 1.40112,0.59914 2.83156,1.13001 4.22806,1.74024 1.01459,0.44345 2.01057,0.92625 3.01327,1.39531 1.50215,0.70267 2.98752,1.44048 4.49719,2.12664 0.6731,0.30598 1.34461,0.6212 2.03447,0.88676 1.11562,0.42958 2.23876,0.85692 3.39993,1.1419 0.94645,0.23242 1.91179,0.44833 2.88663,0.45876 0.75946,0.0132 1.52394,-0.11092 2.25712,-0.30993 0.62977,-0.17102 1.22271,-0.4655 1.80904,-0.75207 0.66755,-0.32657 1.3137,-0.69805 1.93899,-1.09963 1.14216,-0.73358 2.2278,-1.55233 3.29997,-2.38468 0.85929,-0.66702 1.67315,-1.39241 2.50854,-2.08875 1.19974,-0.99993 2.38601,-2.01558 3.59683,-3.00204 1.02741,-0.83711 2.06418,-1.66273 3.11152,-2.47474 1.51496,-1.17438 3.08406,-2.27878 4.58898,-3.46583 5.12419,-4.042 10.20032,-8.15173 15.11613,-12.44477 0.17392,-0.15173 0.34309,-0.30874 0.50697,-0.47117 1.20528,-1.19367 2.35312,-2.44451 3.49356,-3.70037 0.98581,-1.0859 1.93014,-2.20917 2.89469,-3.31396 0.68973,-0.78983 1.36467,-1.593 2.06919,-2.37002 3.13582,-3.45976 6.37425,-6.82403 9.59789,-10.20232 0.42826,-0.44873 0.84872,-0.90631 1.29428,-1.33774 3.92288,-3.79795 8.07646,-7.34763 12.12981,-11.00587 1.42608,-1.28702 2.84305,-2.58422 4.28841,-3.84945 0.78349,-0.68551 1.56936,-1.37062 2.37702,-2.0276 0.61446,-0.49984 1.23619,-0.98977 1.87666,-1.45566 0.81928,-0.59558 1.65005,-1.18046 2.51264,-1.71106 0.65936,-0.40568 1.3314,-0.79604 2.03302,-1.12341 0.7139,-0.33318 1.43889,-0.66636 2.20508,-0.85111 0.49614,-0.12017 1.0138,-0.1619 1.52407,-0.15992 0.71944,0 1.44166,0.0409 2.15886,0.1215 z"
       id="path4903"
       inkscape:connector-curvature="0" />
  </g>
</svg>
