<?xml version="1.0" encoding="UTF-8" standalone="no"?>
<svg
xmlns:dc="http://purl.org/dc/elements/1.1/"
xmlns:cc="http://creativecommons.org/ns#"
xmlns:rdf="http://www.w3.org/1999/02/22-rdf-syntax-ns#"
xmlns:svg="http://www.w3.org/2000/svg"
xmlns="http://www.w3.org/2000/svg"
xmlns:xlink="http://www.w3.org/1999/xlink"
version="1.1"
width="3063.2571"
height="2427.1704"
viewBox="0 0 3063.2571 2427.1704"
xml:space="preserve"
style="fill-rule:evenodd;enable-background:new">

<g transform="translate(78.879613,1.2731172)" style="display:inline">
<g transform="translate(2.9653653,7.946102)" style="fill-rule:evenodd;display:inline;enable-background:new"><rect width="3063.2571" height="2427.1704" x="-81.844978" y="-9.2192192" style="color:#000000;fill:#e0b794;fill-opacity:1;fill-rule:nonzero;stroke:none;stroke-width:5;marker:none;visibility:visible;display:inline;overflow:visible;enable-background:accumulate" />
</g>
</g>
<g transform="translate(78.879613,1.2731172)" style="display:inline">
<path d="m 555.11099,184.67951 c -3.02768,-0.0101 -5.03934,-2.03549 -5.02913,-5.0632 0.006,-2.01848 2.03549,-5.03938 5.06317,-5.02916 3.0277,0.0101 5.03595,3.04473 5.02914,5.06321 -0.0102,3.0277 -2.03548,5.03937 -5.06318,5.02915 z" style="fill:none;stroke:#000000;stroke-width:8;stroke-linecap:round;stroke-linejoin:round;display:inline" />
<path d="m 947.13828,128.47021 c -3.0277,-0.0101 -5.03936,-2.0355 -5.02915,-5.06321 0.006,-2.01849 2.03209,-4.03014 5.05978,-4.01993 2.01846,0.006 4.03012,2.03207 4.0233,4.05056 -0.0102,3.02772 -2.03547,5.03939 -4.05393,5.03258 z" style="fill:none;stroke:#000000;stroke-width:8;stroke-linecap:round;stroke-linejoin:round;display:inline" />
<path d="m 556.1856,230.45455 0,54.50225" style="fill:none;stroke:#000000;stroke-width:8;stroke-linecap:round;stroke-linejoin:round;display:inline" />
<path d="m 556.67321,234.4915 c -3.0277,-0.0102 -5.03936,-2.0355 -5.02914,-5.0632 0.006,-2.01848 2.03548,-5.03939 5.06318,-5.02918 2.01846,0.006 4.02671,3.04134 4.01991,5.05982 -0.0102,3.02769 -2.03549,5.03937 -4.05395,5.03256 z" style="fill:none;stroke:#000000;stroke-width:8;stroke-linecap:round;stroke-linejoin:round;display:inline" />
<path d="m 555.128,125.13107 0,54.50226" style="fill:none;stroke:#000000;stroke-width:8;stroke-linecap:round;stroke-linejoin:round;display:inline" />
<path d="m 556.82356,364.30266 c -55.70238,-0.1879 -101.29687,-48.08833 -101.10228,-105.78151 0.19795,-58.68789 46.1112,-105.28494 101.81359,-105.09704 56.69707,0.19125 102.29491,47.09696 102.09696,105.78486 -0.1946,57.69319 -46.11119,105.28493 -102.80827,105.09369 z" style="fill:none;stroke:#000000;stroke-width:7.99999952;stroke-linecap:round;stroke-linejoin:round;display:inline" />
<path d="m 672.75524,257.37799 157.44693,0" style="fill:none;stroke:#000000;stroke-width:5.19999981;stroke-linecap:round;stroke-linejoin:round;stroke-miterlimit:4;stroke-dasharray:none;display:inline" />
<path d="m 750.49691,282.942 0,-16.14782" style="fill:none;stroke:#000000;stroke-width:5.19999981;stroke-linecap:round;stroke-linejoin:round;stroke-miterlimit:4;stroke-dasharray:none;display:inline" />
<path d="m 946.65066,125.13107 0,54.50226" style="fill:none;stroke:#000000;stroke-width:8;stroke-linecap:round;stroke-linejoin:round;display:inline" />
<path d="m 946.72295,230.45455 0,54.50225" style="fill:none;stroke:#000000;stroke-width:8;stroke-linecap:round;stroke-linejoin:round;display:inline" />
<path d="m 947.21056,234.4915 c -3.0277,-0.0102 -5.03936,-2.0355 -5.02914,-5.0632 0.006,-2.01848 2.03548,-5.03939 5.06318,-5.02918 2.01846,0.006 4.02671,3.04134 4.01991,5.05982 -0.0102,3.02769 -2.03549,5.03937 -4.05395,5.03256 z" style="fill:none;stroke:#000000;stroke-width:8;stroke-linecap:round;stroke-linejoin:round;display:inline" />
<path d="m 945.79765,364.30266 c -55.70238,-0.1879 -101.29687,-48.08833 -101.10228,-105.78151 0.19795,-58.68789 46.1112,-105.28494 101.81359,-105.09704 56.69704,0.19125 102.29494,47.09696 102.09694,105.78486 -0.1946,57.69319 -46.1112,105.28493 -102.80825,105.09369 z" style="fill:none;stroke:#000000;stroke-width:7.99999952;stroke-linecap:round;stroke-linejoin:round;display:inline" />
</g>
<g transform="translate(78.879613,1.2731172)" style="display:inline" />
<g transform="translate(78.879613,1.2731172)" style="display:inline"><circle cx="151" cy="2189" r="109" transform="matrix(0.994356,0.0073193,-0.00731946,0.9943325,9.4013469,33.640002)" style="fill:none;stroke:#000000;stroke-width:8.04528522;stroke-linecap:round;stroke-linejoin:round;display:inline" /><circle cx="477" cy="2225" r="10" transform="matrix(0.99835199,0.00734871,-0.00734887,0.9983284,5.8352069,25.146202)" style="fill:none;stroke:#000000;stroke-width:8.01308346;stroke-linecap:round;stroke-linejoin:round;display:inline" /><circle cx="700" cy="2224" r="10" transform="matrix(0.99835199,0.00734871,-0.00734887,0.9983284,4.9112069,26.838202)" style="fill:none;stroke:#000000;stroke-width:8.01308346;stroke-linecap:round;stroke-linejoin:round;display:inline" /><circle cx="924" cy="2222" r="10" transform="matrix(0.99835199,0.00734871,-0.00734887,0.9983284,3.6792169,27.146202)" style="fill:none;stroke:#000000;stroke-width:8.01308346;stroke-linecap:round;stroke-linejoin:round;display:inline" /><circle cx="1148" cy="2221" r="10" transform="matrix(0.99835199,0.00734871,-0.00734887,0.9983284,0.80421692,28.094606)" style="fill:none;stroke:#000000;stroke-width:8.01308346;stroke-linecap:round;stroke-linejoin:round;display:inline" /><circle cx="1353" cy="2219" r="35" transform="matrix(0.99835199,0.00734871,-0.00734887,0.9983284,1.3428169,30.169314)" style="fill:none;stroke:#000000;stroke-width:8.01308346;stroke-linecap:round;stroke-linejoin:round;display:inline" /><circle cx="1578" cy="2218" r="35" transform="matrix(0.97346269,0.00734871,-0.00716566,0.9983284,39.468197,30.17191)" style="fill:none;stroke:#000000;stroke-width:8.11487579;stroke-linecap:round;stroke-linejoin:round;display:inline" />
<path d="m 1500.7887,2256.6254 118.3391,-0.1385" style="fill:none;stroke:#000000;stroke-width:8;stroke-linecap:round;stroke-linejoin:round;display:inline" /><circle cx="1801" cy="2215" r="20" transform="matrix(0.99835199,0.00734871,-0.00734887,0.9983284,2.7642869,30.990222)" style="fill:none;stroke:#000000;stroke-width:8.01308346;stroke-linecap:round;stroke-linejoin:round;display:inline" /><circle cx="2024" cy="2212" r="20" transform="matrix(0.99835199,0.00734871,-0.00734887,0.9983284,5.0697469,33.146214)" style="fill:none;stroke:#000000;stroke-width:8.01308346;stroke-linecap:round;stroke-linejoin:round;display:inline" /><circle cx="2246" cy="2210" r="9" transform="matrix(0.99835199,0.00734871,-0.00734887,0.9983284,7.5027669,34.723502)" style="fill:none;stroke:#000000;stroke-width:8.01308346;stroke-linecap:round;stroke-linejoin:round;display:inline" />
<path d="m 926.04028,2270.0978 c 58.9206,40.2324 74.98002,50.3998 152.48882,51.9189 45.9747,0.9011 115.4857,-0.7657 219.5096,0 104.36,0 169.9053,-44.4055 206.3877,-105.5077 36.1205,-60.4962 41.9894,-135.7662 47.4196,-155.9846" style="fill:none;stroke:#000000;stroke-width:8;stroke-linecap:round;stroke-linejoin:round;display:inline" />
<path d="m 1524.1275,2082.1405 27.7185,-21.6161 11.2558,35.3523" style="fill:none;stroke:#000000;stroke-width:8;stroke-linecap:round;stroke-linejoin:round;display:inline" />
<path d="m 2288.946,2205.2331 -11,0.068 m -9.472,-0.068 -11,0.068 m -172.5948,103.8653 -11,0.067 m -10.3432,-0.067 -11,0.067 m -26.4594,-0.067 -11,0.067 m -9.0364,-0.067 -11,0.067 m -9.0366,-0.067 -11,0.067 m -9.0364,-0.067 -11,0.067 m -165.0998,-105.0475 -11,0.067 m -209.3769,103.5336 -11,0.067 m -201.324,-104.6768 -11,0.067 m -9.0969,-0.067 -11,0.067 m -9.0199,-0.067 -11,0.067 m -8.8659,-0.067 -11,0.067 m -149.6953,100.3249 -11,0.067 m -9.1453,-0.067 -11,0.067 m -168.23892,-102.0624 -11,0.067 m -16.4412,-0.067 -11,0.067 m -220.81812,100.7327 -11,0.067 m 31.01986,-0.067 -11,0.067 m -197.18014,-102.0427 -11,0.067 m -16.64032,-0.067 -11,0.067 m 1737.61514,-0.6974 3,0 m -3,11 3,0 m -1.5681,-11 0.044,11 m 8.3246,-11 3,0 m -3,11 3,0 m -1.5681,-11 0.044,11 m 8.3245,-11 3,0 m -3,11 3,0 m -1.5681,-11 0.044,11 m 8.3246,-11 3,0 m -3,11 3,0 m -1.5681,-11 0.044,11 m 8.3243,-11 3,0 m -3,11 3,0 m -1.5681,-11 0.044,11 m 8.3247,-11 3,0 m -3,11 3,0 m -1.5681,-11 0.044,11 m 8.3246,-11 3,0 m -3,11 3,0 m -1.5681,-11 0.044,11 m -70.0789,-11 3,0 m -3,11 3,0 m -1.5681,-11 0.044,11 m -137.7797,92.9332 3,0 m -3,11 3,0 m -1.5681,-11 0.044,11 m -10.7158,-11 3,0 m -3,11 3,0 m -1.5681,-11 0.044,11 m -90.0225,-11 3,0 m -3,11 3,0 m -1.5681,-11 0.044,11 m -10.7158,-11 3,0 m -3,11 3,0 m -1.5681,-11 0.044,11 m -130.306,-115.9805 3,0 m -3,11 3,0 m -1.5681,-11 0.044,11 m 7.9616,-11 3,0 m -3,11 3,0 m -1.5681,-11 0.044,11 m 7.9615,-11 3,0 m -3,11 3,0 m -1.5681,-11 0.044,11 m -29.7883,-11 3,0 m -3,11 3,0 m -1.5681,-11 0.044,11 m -30.006,-11 3,0 m -3,11 3,0 m -1.5681,-11 0.044,11 m -11.1675,-11 3,0 m -3,11 3,0 m -1.5681,-11 0.044,11 m -11.1673,-11 3,0 m -3,11 3,0 m -1.5681,-11 0.044,11 m -11.1675,-11 3,0 m -3,11 3,0 m -1.5681,-11 0.044,11 m -143.9183,92.6006 3,0 m -3,11 3,0 m -1.5681,-11 0.044,11 m -11.4941,-11 3,0 m -3,11 3,0 m -1.5681,-11 0.044,11 m -11.603,-11 3,0 m -3,11 3,0 m -1.5681,-11 0.044,11 m -29.1349,-11 3,0 m -3,11 3,0 m -1.5681,-11 0.044,11 m -11.2763,-11 3,0 m -3,11 3,0 m -1.5681,-11 0.044,11 m -11.3852,-11 3,0 m -3,11 3,0 m -1.5681,-11 0.044,11 m -11.1674,-11 3,0 m -3,11 3,0 m -1.5681,-11 0.044,11 m -147.0932,-115.6098 3,0 m -3,11 3,0 m -1.5681,-11 0.044,11 m -11.4858,-11 3,0 m -3,11 3,0 m -1.5681,-11 0.044,11 m -89.4357,-11 3,0 m -3,11 3,0 m -1.5681,-11 0.044,11 m -114.4957,89.3919 3,0 m -3,11 3,0 m -1.5681,-11 0.044,11 m -11.2763,-11 3,0 m -3,11 3,0 m -1.5681,-11 0.044,11 m -11.0585,-11 3,0 m -3,11 3,0 m -1.5681,-11 0.044,11 m -49.4529,-11 3,0 m -3,11 3,0 m -1.5681,-11 0.044,11 m -180.90002,-112.9954 3,0 m -3,11 3,0 m -1.5681,-11 0.044,11 m -29.5411,-11 3,0 m -3,11 3,0 m -1.5681,-11 0.044,11 m -9.8183,-11 3,0 m -3,11 3,0 m -1.5681,-11 0.044,11 m -166.70759,89.7997 3,0 m -3,11 3,0 m -1.56809,-11 0.0438,11 m -10.62278,-11 3,0 m -3,11 3,0 m -1.56809,-11 0.0438,11 m -49.9334,-11 3,0 m -3,11 3,0 m -1.56809,-11 0.0438,11 m -189.87325,-112.9757 3,0 m -3,11 3,0 m -1.5681,-11 0.0438,11 m 913.73061,-2.9635 4.9369,0 m -947.36663,-8.0365 3,0 m -3,11 3,0 m -1.56809,-11 0.0438,11" style="fill:none;stroke:#000000;stroke-width:5.19999981;stroke-linecap:round;stroke-linejoin:round;stroke-miterlimit:4;stroke-dasharray:none;display:inline" />
<path d="m 1544.0902,1945.0005 18.7787,33.8256 19.9748,35.9797 c 10.801,-34.7293 1.3788,-56.5212 -38.7535,-69.8053 z m -29.9285,60.8661 48.7072,-27.0405 m 15.3002,27.5595 -64.0074,-0.519 34.7526,-52.1765 m 31.1154,-9.461 10.9468,-5.9318 c 1.4737,-0.7976 3.3121,-0.2375 4.1227,1.2575 l 17.0296,31.4044 c 0.8106,1.495 0.2775,3.3413 -1.196,4.1397 l -10.9466,5.9317 c -1.4738,0.7976 -3.3121,0.2376 -4.1228,-1.2573 l -17.0296,-31.4045 c -0.8106,-1.4951 -0.2772,-3.3413 1.1959,-4.1397 z" style="fill:none;stroke:#000000;stroke-width:7;stroke-linecap:round;stroke-linejoin:round;stroke-miterlimit:4;stroke-opacity:1;stroke-dasharray:none;display:inline" />
</g>
<g transform="translate(78.879613,1.2731172)" style="display:inline">
<path d="m 2808.3247,952.94546 -113.957,0.50704 m -329.5594,1.46634 -110.2638,0.4906 M 2127.6494,684.9873 2429.0325,803.63134 m 256.3036,100.89781 122.9886,48.41631 -113.1991,48.07914 m -352.4723,149.706 -105.9556,45.0027 m -795.8164,-610.29012 217.7874,0 0,745.70402 -217.7874,0 z m 569.1159,1182.25882 0,101.5371 c 0,0 -17.5046,-18.4645 -44.4125,-53.9677 m -66.3654,-97.1923 C 1805.1255,1565.7655 1684.9576,1303.8859 1683.1333,957.85958 1680.2099,403.36621 2009.9972,41.4412 2009.9972,41.4412 l 0,487.15947 m 848.5928,109.87176 80.3512,0 m -39.3962,624.51627 0,-1.8601 m 0,-10.0727 0,-5.961 m 0,-15.6455 0,-17.8938 m -2111.52321,-0.8019 -44.04315,14.5382 m -18.37871,6.0666 -15.33161,5.0608 m -23.05788,7.6113 -10.44563,3.448 m -23.88508,7.8843 -10.44563,3.448 m -7.13332,2.3546 -10.44563,3.448 m -32.778,10.8198 -10.44564,3.448 m -22.85105,7.5429 -10.44563,3.448 m -15.40579,5.0854 -10.44563,3.448 m -16.64663,5.4949 -10.44563,3.448 m -16.23308,5.3584 -10.44563,3.448 m -40.01636,13.2091 -10.44563,3.448 m -7.34014,2.4229 -10.44563,3.448 m -6.30613,2.0817 -10.44563,3.448 m -16.23308,5.3583 -10.44563,3.448 m 399.81658,-137.7679 3.44802,10.4456 m -66.91519,10.5044 3.44801,10.4456 m -29.18586,-1.9498 3.44802,10.4456 m -12.51473,-7.4527 3.44801,10.4456 m -47.61186,4.1325 3.44802,10.4457 m -11.63729,-7.7425 3.44801,10.4456 m -11.6373,-7.7423 3.44802,10.4455 m -27.72348,-2.4325 3.44802,10.4457 m -12.51472,-7.4529 3.44801,10.4457 m -29.77081,-1.7567 3.44801,10.4456 m -30.35576,-1.5636 3.448,10.4457 m -29.77081,-1.7567 3.44801,10.4455 m -30.06329,-1.6601 3.44802,10.4456 m -11.63729,-7.7424 3.44801,10.4457 m -12.22225,-7.5494 3.44801,10.4456 m -11.92976,-7.6457 3.44801,10.4455 m -62.8206,9.1528 3.44802,10.4456 m -29.47834,-1.8533 3.44801,10.4457 m -12.51473,-7.4527 3.44802,10.4456 m 406.42884,-182.4835 41.19761,29.0741 m -113.41918,-80.0427 58.56101,41.328 m -111.90939,-78.9772 8.98732,6.3425 m -23.83428,-16.8204 8.98732,6.3426 m -23.33099,-16.4653 8.98731,6.3426 m -65.60699,-46.3005 8.98732,6.3426 m -25.34415,-17.886 8.98732,6.3426 m -24.84086,-17.5308 8.98732,6.3426 m -57.05115,-40.26243 8.98731,6.34257 M 441.9864,964.965 l 8.98731,6.34257 m -27.86051,-19.66184 8.98731,6.34256 m -25.0925,-17.70839 8.98732,6.34257 m -29.62203,-20.90499 8.98731,6.34257 m -37.17137,-26.23275 8.98732,6.34257 m 315.7474,216.09893 -6.34257,8.9873 m -14.29215,-23.5497 -6.34256,8.9873 m -0.11613,-13.5454 -6.34257,8.9874 m -0.11637,-13.5456 -6.34256,8.9873 m -0.11621,-13.5454 -6.34257,8.9873 m -46.25087,-46.1038 -6.34257,8.9873 m -0.25036,-13.6401 -6.34257,8.9873 m -0.25053,-13.6402 -6.34256,8.9873 m -0.25045,-13.6401 -6.34257,8.9873 m -0.25036,-13.6401 -6.34257,8.9873 m -0.25052,-13.6402 -6.34257,8.9873 m -48.76724,-47.8797 -6.34257,8.9873 m -0.13728,-13.56026 -6.34257,8.98736 m -0.1372,-13.56029 -6.34257,8.98729 m -0.13721,-13.56022 -6.34257,8.98731 m -0.13712,-13.56019 -6.34257,8.98731 m -63.86584,-58.53511 -6.34257,8.98732 m -15.55037,-24.4377 -6.34256,8.98732 m -0.95505,-14.13743 -6.34257,8.98732 m 419.35795,290.05187 -7.09231,-49.6113 m -2.40976,-16.8564 -22.52228,-157.5453 m -4.50195,-31.49153 -1.55671,-10.88929 m -3.97889,-27.83274 -1.55671,-10.88929 m -3.76096,-26.30823 -1.55671,-10.88929 m -1.40724,-9.84382 -1.55671,-10.88929 m -2.45334,-17.16132 -1.55671,-10.8893 m -3.84813,-26.91803 -1.55671,-10.88929 m -2.49693,-17.46622 -1.5567,-10.8893 m -1.32007,-9.23402 -1.55671,-10.88929 m -2.40975,-16.85642 -1.55671,-10.88929 m -1.05854,-7.40462 -1.55671,-10.88929 m -1.10213,-7.70952 -1.55671,-10.88929 m -1.27649,-8.92912 -1.5567,-10.88929 m -2.27899,-15.94173 -1.55671,-10.88929 m -3.63019,-25.39353 -1.55671,-10.88929 m -1.8867,-13.19762 -1.5567,-10.8893 m -1.36366,-9.53892 -1.55671,-10.88929 m 72.86823,470.85536 -10.88929,1.5567 m 4.13323,-48.81592 -10.88929,1.55671 m 6.48695,-32.35143 -10.88929,1.55671 m 9.66885,-10.09381 -10.88929,1.5567 m 6.74848,-30.52202 -10.88929,1.55671 m 9.62526,-10.39872 -10.88929,1.55671 m 3.91529,-50.34043 -10.88929,1.5567 m 6.79206,-30.21712 -10.88929,1.55671 m 9.53809,-11.00852 -10.88929,1.55671 m 6.87924,-29.60732 -10.88929,1.5567 m 3.8717,-50.64533 -10.88929,1.55671 m -1.09726,-85.40366 -10.88929,1.55671 m 7.14077,-27.77793 -10.88929,1.55671 m 9.62526,-10.39871 -10.88929,1.55671 m 0.47189,-74.42735 -10.8893,1.5567 m 102.39033,676.82917 17.98815,-46.7762 m 5.66962,-14.7432 3.94826,-10.267 m 8.2123,-21.3552 3.94826,-10.267 m 16.28247,-42.3407 3.94825,-10.267 m 2.46368,-6.4065 3.94826,-10.267 m 16.28247,-42.34077 3.94825,-10.267 m 4.34301,-11.29351 3.94826,-10.267 m 12.85542,-33.42906 3.94825,-10.267 m 3.01644,-7.8439 3.94825,-10.267 m 9.98109,-25.95469 3.94826,-10.267 m 2.79533,-7.26894 3.94825,-10.267 m 2.68478,-6.98147 3.94826,-10.26699 m 4.23246,-11.00604 3.94825,-10.267 m 2.90589,-7.55642 3.94825,-10.267 m 9.20723,-23.94236 3.94826,-10.267 m -145.30977,393.18495 -10.267,-3.9482 m 18.55827,-17.6123 -10.267,-3.9483 m 20.99039,-23.9367 -10.267,-3.9482 m 13.50981,-4.4843 -10.267,-3.9483 m 13.50978,-4.4842 -10.267,-3.9483 m 13.50981,-4.4843 -10.267,-3.9482 m 27.40233,-40.6103 -10.267,-3.9482 m 13.58353,-4.6761 -10.267,-3.9482 m 13.58354,-4.676 -10.267,-3.9483 m 13.58342,-4.6757 -10.26699,-3.9483 m 28.39728,-43.19752 -10.267,-3.94825 m 13.58354,-4.67602 -10.267,-3.94826 m 13.58346,-4.67584 -10.267,-3.94825 m 27.62343,-41.18519 -10.267,-3.94826 m 13.47295,-4.38845 -10.267,-3.94826 m 48.84911,-96.3802 -10.26699,-3.94826 m 13.25184,-3.8135 -10.267,-3.94826 m 20.54819,-22.78682 -10.267,-3.94826 m -157.07752,447.2682 -12.97362,15.1347 m 61.35783,-69.3799 -7.2872,8.24 m 20.3458,-23.0059 -7.2872,8.24 m 30.54781,-34.5417 -7.2872,8.2399 m 20.54984,-23.2366 -7.2872,8.24 m 26.26294,-29.6966 -7.2872,8.2399 m 33.40433,-37.7717 -7.2872,8.24 m 25.65081,-29.0045 -7.2872,8.2399 m 39.52558,-44.6932 -7.2872,8.23995 m 25.65083,-29.00446 -7.2872,8.23995 m 20.5498,-23.23658 -7.2872,8.23995 m 26.671,-30.15805 -7.2872,8.23994 m 39.3216,-44.46252 -7.2872,8.23995 m 20.5497,-23.23643 -7.2872,8.23995 m 20.55,-23.23672 -7.2872,8.23994 m -256.46845,298.30193 -8.23995,-7.2872 m 38.64195,-27.0897 -8.23994,-7.2872 m 14.15708,0.5965 -8.23994,-7.2872 m 40.27428,-28.9354 -8.23995,-7.2872 m 27.41973,-14.4002 -8.23995,-7.2872 m 14.36113,0.3657 -8.23994,-7.2872 m 27.21568,-14.1694 -8.23994,-7.2872 m 27.62376,-14.6309 -8.23994,-7.2872 m 14.2591,0.481 -8.23994,-7.28717 m 14.25911,0.48108 -8.23995,-7.2872 m 27.62377,-14.6309 -8.23995,-7.2872 m 40.88645,-29.62753 -8.24,-7.28721 m 27.6238,-14.6309 -8.24,-7.2872 m 14.1571,0.59651 -8.24,-7.2872 m 14.1572,0.59637 -8.24,-7.2872 m -275.32487,314.73575 30.53921,-40.259 m 12.75507,-16.8147 456.34549,-601.58827 m 29.5481,-38.95242 6.6479,-8.76383 m 5.3297,-7.02596 6.6479,-8.76382 m 9.2784,-12.23136 6.6479,-8.76383 m 34.2865,-45.19896 6.648,-8.76383 m 5.5928,-7.37292 6.648,-8.76383 m 5.5928,-7.37293 6.648,-8.76383 m 21.7824,-28.71515 6.6479,-8.76383 m 12.3057,-16.22216 6.6479,-8.76383 m 5.8561,-7.71998 6.648,-8.76383 m 5.5929,-7.37292 6.6479,-8.76383 m 27.1789,-35.82924 6.648,-8.76382 m -248.6291,336.8617 -8.7638,-6.64796 m 35.4831,-28.57538 -8.7638,-6.64795 m 14.1604,-0.4662 -8.7638,-6.64796 m 14.1602,-0.46596 -8.7639,-6.64796 m 14.1604,-0.4662 -8.7638,-6.64795 m 35.0882,-28.05481 -8.7638,-6.64796 m 27.3225,-17.81746 -8.7638,-6.64796 m 14.259,-0.59622 -8.7638,-6.64796 m 14.259,-0.59622 -8.7638,-6.64796 m 14.259,-0.59622 -8.7638,-6.64796 m 14.2591,-0.5963 -8.7638,-6.64796 m 51.5409,-49.744 -8.7638,-6.64796 m 14.1604,-0.4662 -8.7639,-6.64795 m 14.1603,-0.46604 -8.7638,-6.64796 m 26.9277,-17.29697 -8.7639,-6.64796 m 51.9359,-50.26457 -8.7638,-6.64796 m 14.0726,-0.35052 -8.7638,-6.64796 m 14.0726,-0.35051 -8.7638,-6.64796 m 14.0725,-0.35028 -8.7639,-6.64795 M 789.74845,1211.8761 836.706,1199.9052 m 15.7207,-4.0077 91.90857,-23.4302 m -72.31764,24.1118 -2.71732,-10.6591 m 95.36292,-12.959 -2.71732,-10.6591 m 7.81768,3.683 10.65909,-2.7174 m 9.03881,-2.3042 10.65911,-2.7173 m 7.0988,-1.8098 10.6591,-2.7173 m 8.5912,-2.1901 10.659,-2.7173 m 7.2481,-1.8478 10.6591,-2.7173 m 24.8567,-6.3367 10.6591,-2.7173 m -25.4592,12.1662 -2.7173,-10.6591 m 11.5216,8.4146 -2.7173,-10.6591 m 27.7873,4.268 -2.7173,-10.6591 m 49.1267,-1.172 -2.7174,-10.6591 m 57.1849,-3.2263 -2.7173,-10.6591 m -91.4177,28.981 10.6591,-2.7173 m 8.4419,-2.1521 10.6591,-2.7173 m 16.3509,-4.1684 10.6591,-2.7173 m 16.6493,-4.2444 10.659,-2.7173 m 16.9478,-4.3205 10.6591,-2.7173 m 8.1434,-2.076 10.6591,-2.7173 m 11.1279,-2.8369 10.6591,-2.7173 m 9.6089,3.2263 -2.7173,-10.6591 m 11.3724,8.4527 -2.7173,-10.6591 m 11.2231,8.4907 -2.7173,-10.6591 m 9.3102,3.3025 10.6591,-2.7174 m 18.2908,-4.6628 10.659,-2.7174 m 43.8086,-11.1681 10.6591,-2.7173 m -29.9093,7.6248 10.6591,-2.7173 m -53.6632,19.3562 -2.7173,-10.6591 m 30.9211,3.4691 -2.7174,-10.659 m 11.2232,8.4906 -2.7173,-10.659 m -174.2795,54.3909 -2.7174,-10.6592 m -381.05378,102.8563 44.21942,13.6202 m 17.29699,5.3277 523.86137,161.3562 m 30.6966,9.455 10.5126,3.238 m 7.7372,2.3831 10.5126,3.2381 m 7.4428,2.2925 10.5126,3.238 m 22.7492,7.007 10.5126,3.238 m 7.1485,2.2019 10.5126,3.238 m 6.5598,2.0205 10.5126,3.238 m 46.2972,14.2602 10.5126,3.238 m 7.1485,2.2018 10.5126,3.2381 m 15.0959,4.6497 10.5127,3.238 m 8.0315,2.4739 10.5126,3.238 m 6.8542,2.1111 10.5126,3.2381 m 18.9225,5.8284 10.5126,3.238 m 31.2853,9.6363 10.5126,3.238 m 17.1564,5.2844 10.5126,3.238 m 16.2734,5.0124 10.5126,3.2381 m -475.4404,-140.687 3.238,-10.5126 m 88.1346,38.6565 3.238,-10.5126 m 58.1626,29.4249 3.2381,-10.5127 m 5.2956,13.1411 3.238,-10.5126 m 56.2894,28.8479 3.2381,-10.5126 m 4.463,12.8846 3.238,-10.5126 m 4.2549,12.8205 3.238,-10.5126 m 4.2549,12.8206 3.2381,-10.5127 m 4.2549,12.8206 3.238,-10.5126 m 41.7197,24.3602 3.2381,-10.5127 m 54.8324,28.3991 3.238,-10.5126 m 4.6712,12.9488 3.2381,-10.5126 m 20.6977,17.8851 3.2381,-10.5126 m 4.8793,13.0129 3.238,-10.5126 m 5.0875,13.077 3.2381,-10.5127 m 23.1954,18.6545 3.2381,-10.5126 m 23.6117,18.7827 3.2381,-10.5126 m -972.90866,-293.8805 12.36029,14.1603 m 6.33662,7.2595 7.23358,8.2871 m 20.91933,23.9659 7.23358,8.2871 m 16.46351,18.8611 7.23358,8.2871 m 23.14727,26.5183 7.23358,8.2871 m 4.71623,5.4031 7.23359,8.287 m 17.27359,19.7893 7.23359,8.2871 m 5.32385,6.0991 7.23358,8.2871 m 4.31115,4.939 7.23359,8.2871 m 10.79237,12.3641 7.23358,8.2871 m 12.61524,14.4524 7.23358,8.2871 m 19.70408,22.5737 7.2336,8.287 m 16.261,18.6292 7.2335,8.287 m -238.85709,-265.2795 8.28706,-7.2336 m 10.14398,28.3488 8.28705,-7.2336 m 9.94145,28.1168 8.28705,-7.2335 m -2.41345,13.9626 8.28706,-7.2336 m 52.27211,76.6123 8.28705,-7.2336 m -2.41345,13.9626 8.28705,-7.2335 m 33.63854,55.265 8.28705,-7.2336 m 11.56177,29.9731 8.28705,-7.2336 m 8.92874,26.9567 8.28708,-7.2336 m -2.616,13.7305 8.287,-7.2335 m -2.4134,13.9626 8.287,-7.2336 m 9.1313,27.1886 8.2871,-7.2335 m -2.616,13.7305 8.287,-7.2336 m 9.5364,27.6528 8.2871,-7.2336 m -2.4135,13.9626 8.2871,-7.2336 m -2.4135,13.9626 8.2871,-7.2336 m -2.4135,13.9626 8.2871,-7.2336 m -200.78027,-221.6569 7.23365,8.2872 m -0.46874,7.8265 8.28699,-7.2334 m -73.27786,-61.3445 -26.95575,-43.8002 m 598.14928,971.9271 -561.20432,-911.8956 m 546.69622,898.8151 9.368,-5.7653 m -253.5415,-372.2289 -5.7654,-9.3681 m 14.9668,24.3195 -5.7653,-9.3681 m 15.4511,25.1063 -5.7654,-9.368 m 15.6126,25.3686 -5.7654,-9.3681 m 15.3704,24.9752 -5.7654,-9.368 m 22.4733,36.5165 -5.7654,-9.3681 m 30.2218,49.1072 -5.7653,-9.3681 m 18.7603,30.4836 -5.7653,-9.3681 m 20.8589,33.8935 -5.7653,-9.3681 m 25.2982,41.1068 -5.7654,-9.368 m 16.1776,26.2867 -5.7654,-9.3681 m 9.9638,16.19 -0.2416,-0.3924 m 6.1562,10.0031 -3.1083,-5.0507 m 16.806,27.308 -5.7653,-9.3681 m 15.4678,25.1336 -5.7653,-9.3681 m 32.9324,53.5116 -5.7653,-9.3681 m 15.582,25.3191 -5.7654,-9.3681 m 15.2396,24.7627 -5.7653,-9.368 m -225.7586,-356.3392 9.3681,-5.7654 m 42.1124,89.4155 9.3681,-5.7654 m -5.3729,12.2571 9.368,-5.7653 m 6.2702,31.1757 9.3681,-5.7654 m -2.5193,16.894 9.3681,-5.7654 m 19.1687,52.1346 9.3681,-5.7654 m 6.3843,31.3612 9.3681,-5.7653 m -4.4598,13.7409 9.3681,-5.7654 m 25.1045,61.7795 9.368,-5.7654 m 12.6624,41.5624 9.3681,-5.7653 m -4.3456,13.9263 9.3681,-5.7654 m -4.6881,13.37 9.3681,-5.7654 m -4.8022,13.1844 9.3681,-5.7653 m -532.77232,-885.1928 -4.62158,49.9885 m -1.63389,17.6726 -24.18997,261.6464 m -4.98216,53.8886 -1.01266,10.9532 m -0.92213,9.974 -1.01266,10.9533 m -0.85194,9.2149 -1.01267,10.9533 m -2.20529,23.8532 -1.01267,10.9532 m -2.52609,27.323 -1.01266,10.9533 m -2.46594,26.6724 -1.01266,10.9532 m -0.97225,10.5162 -1.01266,10.9533 m -1.41334,15.2871 -1.01267,10.9533 m -1.70405,18.4316 -1.01266,10.9533 m -1.70406,18.4316 -1.01266,10.9532 m -0.88202,9.5403 -1.01267,10.9532 m 28.22179,-364.999 10.95328,1.0126 m -14.48201,37.1552 10.95329,1.0126 m -11.85552,8.7462 10.95329,1.0126 m -11.79538,8.0956 10.95329,1.0127 m -11.79537,8.0956 10.95329,1.0126 m -17.38921,68.6003 10.95329,1.0127 m -11.85552,8.7461 10.95329,1.0126 m -13.25899,23.9265 10.95329,1.0127 m -11.89561,9.1799 10.95328,1.0126 m -13.55973,27.1795 10.95328,1.0127 m -11.83546,8.5292 10.95329,1.0127 m -15.30405,46.0465 10.95328,1.0127 m -13.72013,28.9144 10.95329,1.0127 m -13.65998,28.2638 10.95329,1.0126 m -15.4845,47.9983 10.95329,1.0127 m -11.77533,7.8787 10.95329,1.0127 m -11.75527,7.6618 10.95329,1.0127 m 59.76439,-699.2453 -9.82572,11.8812 m -15.17015,18.3438 -7.01026,8.4768 m -10.85176,13.1219 -7.01027,8.4768 m -11.8332,14.3087 -7.01026,8.4768 m -16.93661,20.4797 -7.01026,8.4768 m -16.54404,20.0051 -7.01026,8.4768 m -6.5335,7.9003 -7.01027,8.4768 m -16.54403,20.005 -7.01027,8.4768 m -17.13289,20.7171 -7.01026,8.4768 m -6.14093,7.4256 -7.01027,8.4768 m -11.24433,13.5966 -7.01027,8.4768 m -11.8332,14.3087 -7.01026,8.4768 m -6.14093,7.4256 -7.01026,8.4768 m -4.37435,5.2895 -7.01026,8.4768 m -4.37434,5.2894 -7.01027,8.4768 m 240.30595,-299.2078 8.4768,7.0102 m -26.53512,14.8259 8.47681,7.0102 m -27.90913,16.4873 8.4768,7.0103 m -26.14254,14.3511 8.4768,7.0103 m -14.36536,0.1101 8.4768,7.0103 m -25.74996,13.8764 8.4768,7.0103 m -14.56165,0.3475 8.4768,7.0103 m -40.07888,31.2029 8.4768,7.0103 m -13.7765,-0.6019 8.47681,7.0103 m -26.73141,15.0631 8.47681,7.0103 m -14.36537,0.1102 8.47681,7.0102 m -39.29374,30.2536 8.47681,7.0102 m -27.71285,16.25 8.47681,7.0102 m -61.47402,57.0739 8.4768,7.0103 m -14.36536,0.1102 8.4768,7.0102 m 266.95796,-336.3328 -47.82615,2.9435 m -14.204,0.8738 -188.53758,11.6027 m 30.09467,-7.3706 0.67869,10.979 m -57.54931,-11.1372 10.97471,-0.7473 m -28.79201,1.9595 10.97434,-0.7469 m -62.9054,4.2812 10.97445,-0.7467 m -36.1798,2.4623 10.97487,-0.7468 m -31.83373,2.1664 10.97427,-0.7473 m -28.35759,1.9305 10.97478,-0.7469 m -48.56454,3.305 10.97444,-0.7468 m -34.65859,2.3587 10.97448,-0.747 m -38.56997,2.6248 10.97484,-0.7468 m -30.53046,2.0778 10.97481,-0.7467 m -31.39921,2.1364 10.97454,-0.7466 m -38.78717,2.6395 10.9747,-0.7465 m -31.18227,2.122 10.97458,-0.7467 m -49.21661,3.3496 10.97443,-0.7472 m -31.83391,2.1666 10.97478,-0.7468 m -27.27136,1.8556 10.97503,-0.7467 m -39.221887,2.6693 10.974567,-0.7469 m -30.530236,2.0778 10.974564,-0.7468 m 441.311312,-35.5469 0.74707,10.9746 m -46.81103,-7.8399 0.74645,10.9751 m -8.35163,-10.4572 0.74658,10.9747 m -8.78624,-10.4276 0.74714,10.9745 m -8.56938,-10.4421 0.74679,10.9747 m -28.55911,-9.0821 0.7468,10.9747 m -65.71503,-6.553 0.74709,10.9747 m -9.43843,-10.3832 0.74685,10.9746 m -27.47295,-9.1557 0.74732,10.9748 m -28.34243,-9.0967 0.74709,10.9743 m -65.06354,-6.5974 0.74699,10.9744 m -46.1593,-7.8836 0.74679,10.9746 m -8.35193,-10.4569 0.74668,10.9744 m -9.43802,-10.3833 0.74676,10.9749 m -65.49757,-6.5682 0.74696,10.9748 m 673.67991,-40.3544 -392.92334,38.549 m -21.47592,2.0842 -10.94748,1.0739 m -22.86503,2.2431 -10.94755,1.0741 m -8.12615,0.7975 -10.94737,1.0738 m -31.75171,3.1152 -10.94743,1.0739 m -7.476,0.7335 -10.94741,1.0739 m -9.42676,0.9252 -10.94735,1.0738 m -5.95915,0.5846 -10.94755,1.074 m -9.20945,0.9042 -10.94753,1.0736 m -14.19523,1.3922 -10.94764,1.0743 m -17.01254,1.6691 -10.94795,1.0742 m -18.31309,1.7968 -10.94751,1.0738 m -6.60908,0.6484 -10.947519,1.0741 m -7.475752,0.7333 -10.947693,1.0743 m -6.392154,0.627 -10.947185,1.074 m -44.845656,4.3997 34.854856,-3.4196 m 387.806853,-43.5732 1.074,10.9472 m -52.57037,-5.8953 1.07422,10.9476 m -26.20913,-8.4816 1.07382,10.9476 m -9.35027,-10.1355 1.07412,10.9476 m -47.97225,-6.3465 1.07396,10.9479 m -8.43085,-10.226 1.074,10.9472 m -9.04373,-10.1655 1.07419,10.9476 m -101.61469,-1.0836 1.07391,10.947 m -28.9679,-8.2107 1.07439,10.9478 m -29.58129,-8.151 1.07421,10.9477 m -101.308081,-1.1136 1.073904,10.9474 m 758.411587,-77.4151 1094.86569,-2.6363 m 355.5942,-0.8562 104.3715,-0.2514 m 340.9921,-0.821 137.0192,-0.3299 m 0.029,12.0097 -0.058,-24.0195 m 68.9933,92.1627 19.0648,0 m -10.0623,-90.5964 0,-17.8938 m -40.955,650.3123 80.3512,0" style="fill:none;stroke:#000000;stroke-width:5.19999981;stroke-linecap:round;stroke-linejoin:round;stroke-miterlimit:4;stroke-opacity:1;stroke-dasharray:none;display:inline" />
</g>
<g transform="translate(78.879613,1.2731172)" style="display:inline">
<path d="m 2476.787,737.45874 a 2.3956614,2.3956614 0 1 1 -4.7913,0 2.3956614,2.3956614 0 1 1 4.7913,0 z" transform="matrix(0.99999432,0.00337307,-0.00337307,0.99999432,3.5682756,-5.9655367)" style="color:#000000;fill:none;stroke:#000000;stroke-width:5.5;stroke-linecap:round;stroke-linejoin:round;stroke-miterlimit:4;stroke-opacity:1;stroke-dasharray:none;marker:none;visibility:visible;display:inline;overflow:visible;enable-background:accumulate" />
<path d="m 2476.787,737.45874 a 2.3956614,2.3956614 0 1 1 -4.7913,0 2.3956614,2.3956614 0 1 1 4.7913,0 z" transform="matrix(0.99999432,0.00337307,-0.00337307,0.99999432,42.557878,-7.5778003)" style="color:#000000;fill:none;stroke:#000000;stroke-width:5.5;stroke-linecap:round;stroke-linejoin:round;stroke-miterlimit:4;stroke-opacity:1;stroke-dasharray:none;marker:none;visibility:visible;display:inline;overflow:visible;enable-background:accumulate" />
<path d="m 2491.0729,786.27482 c 4.2127,1.72649 7.2536,1.61457 11.3111,-0.2684 m -18.0377,50.2493 c 2.0724,-11.16298 1.0222,-24.75359 2.7059,-36.05251 m 64.8566,-65.85958 c 3.1039,5.84998 -0.5434,12.31067 -8.7059,22.78896 10.2092,-5.41128 14.5976,-4.52565 19.4862,-14.66318 m 4.3115,10.60514 c 0.2536,9.40808 -9.9932,15.98693 -16.3121,14.12545 m -56.0663,48.47337 c 4.049,6.10636 2.2983,13.20862 7.3612,20.33386 m -2.3743,27.3177 c -10.0844,-0.034 -31.8617,1.05547 -42.3523,0.90148 -2.9406,-0.0431 -5.1908,-1.37728 -3.8004,-8.11914 m 56.7162,10.6991 c 9.943,3.32536 13.2499,-7.15492 19.3477,-5.16599 m 18.369,-1.35956 c 34.5838,2.14757 57.2021,-6.84325 64.1277,-12.40622 m -98.7389,3.09449 c 8.1013,11.19729 16.3695,-27.05398 22.5011,-35.15689 m 117.7313,402.5631 c 8.2586,-17.4513 5.7767,-33.1297 10.9217,-50.3749 16.7038,-48.4704 16.241,-100.9138 6.4263,-138.8069 -12.5366,-53.06608 1.112,-115.41688 -19.9288,-145.92582 -2.3809,-3.45235 -8.4233,-14.23286 -12.1223,-17.75942 -7.6492,-7.29237 -15.0359,-10.57367 -26.7904,-17.63366 -13.8192,-8.30029 -26.463,-17.27696 -42.5414,-23.37535 -11.1098,-4.21385 -17.7805,-17.63613 -15.939,-44.46141 0.2707,-3.94293 0.4544,-7.39824 0.5854,-12.77371 m 70.7226,357.15237 c -5.9829,-39.7299 -24.2569,-47.8183 -26.3343,-65.9778 -2.8904,-25.2664 20.9573,-44.1036 12.9624,-78.54346 m 12.2633,54.56556 c 7.2855,30.4825 2.4703,86.7659 -1.3084,116.286 -0.2823,2.2044 0.1145,7.3515 0.01,9.2327 -1.2545,21.5575 0.3258,6.8156 -1.4315,40.3321 -0.7501,14.3075 -11.5768,18.7718 -14.3856,34.4109 -0.6723,3.7435 -1.2921,11.4323 -0.9138,18.1242 0.2032,3.5925 -4.1374,14.6155 -4.5829,24.4926 -0.4032,8.9401 -1.1675,18.2275 2.647,19.3319 6.3383,1.8352 8.0403,-4.494 15.0815,-29.3093 1.6848,-5.9379 0.086,-11.7367 2.7889,-17.7715 m -2.7889,17.7715 c 4.1292,6.2004 6.4236,15.1147 7.0229,22.2703 0.5783,6.9039 -1.3101,13.3144 -3.6644,19.7025 -1.5698,4.2594 -3.4614,7.7216 -4.1163,11.0845 -1.2128,6.2283 5.4099,6.6389 7.6808,3.3792 7.7831,-11.1721 12.4184,-25.6046 12.6793,-35.4805 0.1684,-6.3742 0.7579,-12.8709 3.7555,-18.5749 m -14.1677,50.5679 c -4.7776,8.904 2.9587,18.5581 8.0529,8.8541 2.1728,-4.139 -0.2521,-4.3253 1.6968,-8.9279 3.0591,-7.2246 9.9831,-19.0026 8.5081,-25.4041 -2.1633,-9.3892 -2.7524,-15.5499 3.6728,-19.8319 m -12.9605,49.6846 c -0.7568,4.7347 5.2754,0.5587 6.8315,-1.4886 1.5101,-1.9868 2.2811,-4.3117 3.4018,-6.0105 1.5572,-2.3604 3.3335,-4.5255 4.6405,-11.9289 0.6529,-3.6981 1.3987,-17.4859 3.0981,-25.8414 m -3.3987,27.4735 c 6.4692,-0.01 10.2958,-6.7336 10.7352,-12.6382 0.4838,-6.5022 -2.4143,-13.0931 -3.7784,-13.8279 5.8153,-18.6011 2.976,-44.7604 -7.6968,-68.4429 m -37.4349,-210.4573 c 6.1257,7.2684 0.4341,21.4546 15.0006,39.7714 2.3771,2.989 2.2395,8.8111 6.7551,16.684 m -97.8268,-72.21055 c 45.6325,50.83165 100.2569,-6.17145 63.4649,-48.89509 m -10.8072,33.47704 c -2.3603,-0.47435 -8.8047,12.27547 -6.6038,12.65506 4.4246,0.76311 10.2773,-8.36176 6.4949,-10.15051 m -154.0236,11.81211 c 9.2273,4.18735 12.5792,-5.81974 6.3027,-8.33171 -0.1536,-0.0615 -0.5852,-0.11846 -0.8593,0.15604 m 48.664,12.20321 c -20.8091,23.1218 -49.2018,21.4908 -58.1591,11.11257 -1.1886,-1.37719 -4.2166,-7.46645 -5.2372,-9.0311 -7.895,-12.10267 -8.3935,-29.1157 3.1689,-50.84931 2.432,-4.57147 0.935,-12.3188 0.1055,-17.17824 m 7.3042,81.13108 c 0.5301,28.8084 -10.3178,48.5595 -13.9449,81.1334 m 5.9849,54.2314 c 3.0248,8.1338 6.6326,15.9083 11.6989,22.0181 m 132.162,-93.8919 c -0.5823,-10.0024 2.8059,-18.2687 8.9237,-22.3099 m -86.8118,80.5291 c -1.3481,-1.9985 -3.7679,-3.2793 -5.4173,-1.0683 -1.9196,2.5734 3.3998,6.582 6.2812,5.3958 2.0287,-0.8352 3.1332,-3.8138 1.4461,-5.5595 m 71.9038,44.9173 c 3.0728,-6.0826 5.1246,-11.1528 6.1626,-17.2419 m -29.6399,66.2874 2.8642,-2.9522 m -10.3749,9.9924 c -15.5261,11.7892 -21.9521,26.9657 -22.2036,40.278 -19.1302,-14.2353 -32.2828,-34.1012 -43.3274,-51.2042 -8.362,-12.9488 -17.3302,-19.7572 -28.5876,-32.3806 m -72.9857,82.5297 c 4.2059,2.9819 3.5777,19.6859 9.3255,30.5307 2.3793,4.4893 7.1761,5.1015 11.2317,9.177 3.2193,11.1266 8.5735,17.7734 5.9282,25.4525 -5.0732,-4.0787 -13.2839,-12.5151 -18.0222,-16.9788 -11.5091,-10.842 -14.0729,-24.4152 -22.1707,-36.6278 -4.0524,-5.0911 -2.9423,-11.4133 1.3485,-16.7075 23.1585,-28.5747 8.0315,-92.2398 11.32,-146.0965 1.5528,-25.4338 0.9468,-48.3029 12.2202,-72.6357 13.3165,-25.1168 12.1262,-71.70812 11.8115,-117.04623 1.3908,-37.32156 18.348,-55.10938 51.2112,-64.50816 15.6829,-6.84859 30.5363,-16.52272 39.8749,-31.05521 m -41.3795,178.1597 c 9.1936,52.9737 -10.6811,64.5106 -29.7055,89.6771 -12.6146,16.6872 -16.0842,39.3875 -16.0534,65.418 0.054,43.5481 -16.6791,74.3364 -13.837,99.8487 7.8774,70.7115 40.4837,160.493 57.1551,186.7579 m 14.6994,41.3404 c -17.4915,-10.2929 -23.1346,-27.869 -23.7926,-58.5266 m 4.8151,44.3162 c 4.4715,10.8533 7.4612,16.7352 11.9231,22.1403 m 52.635,-0.3995 c -1.6426,-15.2374 0.9886,-23.6094 7.0899,-31.9571 m -47.5476,34.8671 c 10.1704,1.0495 13.3856,-6.0765 11.246,-16.2094 -0.8652,-4.0969 -0.99,-8.1271 0.041,-12.1853 m -33.2521,-0.9743 c -20.2698,37.2272 12.138,127.7392 24.5682,193.8794 3.85,20.4858 7.7917,30.1487 4.6468,52.2361 m 37.6315,-41.1051 c 20.2309,34.5937 26.3066,53.1011 15.0948,59.1561 -9.1734,5.0463 -23.3235,12.1313 -33.4606,17.9342 m -18.1284,-49.8861 c -9.8469,7.735 -14.3805,25.4794 -22.0329,32.173 -9.7374,8.5174 -21.8187,12.0134 -25.9713,20.7077 -1.5893,3.3275 -1.722,6.0398 0.6382,7.9777 m 0.6392,14.5651 c -6.1448,2.4729 -3.2018,-12.6699 -0.6392,-14.5651 l 8.5867,-6.3504 m 0,0 3.4107,5.6741 c -3.9414,7.3372 -7.728,9.9525 -11.3582,15.2414 -3.1354,4.5682 -2.7472,7.593 -0.3953,10.3509 m 335.0091,-35.5958 c 11.1741,5.3759 20.2622,14.6861 26.466,23.7579 0.5081,2.0296 2.5523,6.7268 1.0273,11.163 m -93.6416,-60.994 c -10.8018,34.3945 -7.0086,35.2575 24.0302,45.9977 m -69.5703,-262.6409 c -9.1286,-8.1544 -13.1708,-16.7273 -13.1366,-26.8815 m -18.7512,31.9883 c -19.8285,49.532 30.3599,99.8948 51.1807,146.3712 12.1194,26.4426 20.6612,55.9788 35.947,85.9956 m -80.1981,-217.7326 c -3.2142,-7.7414 -3.8208,-9.374 -6.9296,-14.6342 -7.3696,-12.4688 -17.1679,-27.2285 -23.1825,-39.4004 -11.9456,-24.174 -18.5981,-51.6828 -31.6447,-99.9308 -2.7678,-10.2356 -40.363,-90.3326 -43.051,-110.1749 2.8499,59.9212 -6.933,90.1297 -5.5749,112.4031 0.8651,14.19 9.4976,50.9674 1.7344,67.8234 -3.9575,8.5929 -4.9715,17.7111 -3.024,19.5747 3.3649,3.22 1.7366,13.0654 3.3539,15.8187 5.1904,8.8361 9.1673,33.8985 7.5094,53.8593 -1.3003,15.6557 -3.6873,16.9667 -4.3155,29.9698 -0.9676,36.0813 -1.3272,74.8279 -8.3126,149.6063 -0.1339,1.4341 -2.4459,5.1293 -1.3969,9.8735 m 172.8585,-204.8098 c 1.0441,-13.3224 -0.6219,-28.3235 -2.3331,-37.3741 -0.8779,-4.643 -0.3512,-10.9226 -1.109,-14.9666 -3.8096,-20.3301 -10.8667,-33.8778 -11.4346,-68.3805 -0.4396,-26.7097 2.2093,-87.4828 -4.7613,-96.4839 m 20.9393,200.3438 c 35.6354,34.4477 34.388,162.2896 45.4348,193.2986 13.6188,38.2285 27.4808,41.7652 38.4726,72.0382 m -97.3897,-256.6403 c 2.2592,-0.935 4.0013,-5.7554 3.8826,-8.9075 m -55.866,-653.10802 c -2.9906,-18.28821 -10.464,-38.16106 -9.4075,-62.08635 0.9865,-22.33968 2.7249,-44.91142 -1.5164,-64.80407 -4.151,-19.46921 -15.2525,-32.51258 -25.5037,-47.93913 -11.8844,-17.88431 -21.0991,-36.21378 -48.5896,-35.24476 -14.4713,0.5101 -34.1032,11.238 -37.4193,33.22968 -1.9192,12.72756 11.286,26.41496 26.1808,26.49366 17.0883,0.0903 17.0767,15.34671 21.6537,23.8253 6.6439,12.8568 22.8486,13.06563 25.9225,26.29855 5.6681,24.40107 -7.4579,52.14443 6.2504,76.31587 m -122.4574,948.68697 c -5.2339,11.1315 -22.1759,14.2352 -21.6575,18.6141 1.8772,15.8563 19.1277,6.1555 30.346,-1.9304 12.0147,2.1339 19.3885,-10.0917 25.5458,-27.7214 4.1421,-11.8593 7.0934,-24.2395 15.0244,-27.8731 m -56.971,33.2222 c -4.3845,6.1121 -12.2398,14.2762 -19.6291,19.6856 -2.0477,1.4991 -1.6567,6.6109 5.6839,4.6171 m 348.2182,-14.6814 -0.3387,3.5924 8.9393,5.797 c 0.1521,3.7011 -1.102,10.0294 -1.3343,11.8409 m -10.5551,-14.7077 -2.3029,4.7836 c 4.168,3.2536 8.2207,7.2303 12.8578,9.9241 2.9266,4.5522 -5.0408,4.7397 -6.1859,8.1532 m -9.7279,-16.0186 -1.7576,4.5677 c 5.3192,4.9322 10.1605,8.2472 15.4855,11.4509 -0.4331,1.2911 -0.8682,4.2256 0.2185,6.3065 5.8135,11.1319 -11.6729,17.2394 -21.1821,12.0374 -7.9804,-4.3656 -10.5027,-11.7647 -21.499,-14.4346 -12.3391,-2.9959 -24.9577,-47.2843 -31.3899,-54.9061 m 52.255,43.6632 c 1.4371,6.1712 3.8091,7.0527 11.9652,10.681 2.2191,0.987 7.4089,0.1605 9.8503,2.9591 m -173.6068,-881.74418 -5.0785,-9.38964 m 5.5777,26.11416 c 0.1824,-8.793 -1.1153,-16.76949 -0.2013,-27.41713 M 2487.8141,751.25003 c 0.7856,-6.9612 0.508,-12.07097 -0.5996,-16.63245 m 17.8442,19.51157 c 3.0557,4.39876 -3.0247,9.84267 -8.7255,6.2044 -4.8532,5.46103 -14.6543,4.55593 -15.8038,-1.13113 m -1.8149,-29.67057 c -0.5013,-3.63048 -9.7247,-4.63908 -13.7976,-3.63734 m 34.8286,2.02401 c 3.5376,-2.81666 21.0518,-5.84203 23.2983,-2.20552 m -41.8362,51.25473 4.4801,-3.23284 c 3.2633,1.04492 7.5246,2.96876 10.8037,-0.69392 2.2766,2.62768 7.2509,3.43358 12.411,2.69876 0.7001,-0.0997 1.2788,0.46151 2.1446,0.80175 m -28.5906,-0.47492 c 5.5541,1.24546 11.118,2.28521 16.9014,-1.07979 M 2466.5531,736.128 c 12.9717,-0.37687 15.1534,0.81446 18.1476,5.89819 m 20.8227,-0.87186 c 1.0414,-7.10463 9.5853,-7.8582 19.7486,-4.77755 m 26.715,16.67592 c -1.4159,23.30692 -2.6629,24.54632 -17.9349,36.3514 -10.744,8.30496 -24.0999,16.32476 -43.5901,14.3778 -5.3392,-5.40316 -14.1286,-15.25153 -19.1813,-25.42307 -6.0632,-12.20588 -12.4163,-24.48769 -7.5681,-40.39188 -0.7702,-4.18091 -2.3902,-8.37501 -0.1772,-12.00363 -0.9899,-8.12694 1.7475,-23.01004 4.5206,-25.74955 16.7941,-16.59118 19.9882,-15.22694 22.6095,-26.42433 0.8072,-3.44837 2.9739,-12.96155 6.5007,-18.92448 -2.9089,-4.49395 -31.7501,11.35017 -44.675,38.60033 -5.8607,12.35628 -2.4338,27.1787 -7.4587,45.6086 -6.2418,22.89303 26.4884,54.95872 7.4564,103.18749 -1.8602,4.71401 -2.099,12.22433 -2.5067,14.82949" style="fill:none;stroke:#000000;stroke-width:5.19999981;stroke-linecap:round;stroke-linejoin:round;stroke-miterlimit:4;stroke-dasharray:none;display:inline" />
<path d="m 2022.16,662.19543 a 2.771981,2.771981 0 1 1 -5.5439,0 2.771981,2.771981 0 1 1 5.5439,0 z" transform="matrix(0.99999432,0.00337307,-0.00337307,0.99999432,-1.2355409,-9.4797314)" style="color:#000000;fill:none;stroke:#000000;stroke-width:5.5;stroke-linecap:round;stroke-linejoin:round;stroke-miterlimit:4;stroke-opacity:1;stroke-dasharray:none;marker:none;visibility:visible;display:inline;overflow:visible;enable-background:accumulate" />
<path d="m 2022.16,662.19543 a 2.771981,2.771981 0 1 1 -5.5439,0 2.771981,2.771981 0 1 1 5.5439,0 z" transform="matrix(0.99999432,0.00337307,-0.00337307,0.99999432,45.432106,-11.170315)" style="color:#000000;fill:none;stroke:#000000;stroke-width:5.5;stroke-linecap:round;stroke-linejoin:round;stroke-miterlimit:4;stroke-opacity:1;stroke-dasharray:none;marker:none;visibility:visible;display:inline;overflow:visible;enable-background:accumulate" />
<path d="m 2165.8748,1803.0141 c -19.5298,6.4549 -14.5768,0.8867 -7.8678,-7.688 m -4.2571,-6.2773 c 6.3922,9.558 15.6392,13.7563 12.714,19.4002 -6.5917,12.7181 -29.2381,7.3749 -29.6978,-6.8397 -0.093,-2.8782 -2.7389,-5.0897 -4.4275,-7.127 -12.1948,-4.103 -11.9861,-11.5183 -11.3549,-22.0991 3.4796,-58.3239 -14.591,-50.9881 -15.9025,-68.4169 -1.9219,-33.5165 6.0356,-60.4969 2.0725,-91.9891 m 58.5221,-436.9907 c -6.0938,-3.0669 0.2838,-90.6002 -19.2556,-92.1919 10.3182,-6.8233 7.5101,-36.538 0.9976,-57.7572 -6.1909,-20.1713 -0.7749,-35.93798 10.408,-61.13255 m -22.356,-172.49032 c -1.8052,5.22516 1.379,11.76172 8.6537,12.0317 M 2082.0642,684.1211 c 7.4548,-7.45356 12.3534,-15.25267 13.3879,-20.32643 m 7.0893,8.23556 c -2.1379,5.1099 -5.1676,11.95539 -9.5293,20.80186 -2.86,5.80066 -2.2406,13.54785 -2.3783,25.76909 -0.1624,14.43014 0.5957,27.98589 2.6433,32.42351 m -275.4353,-91.3957 6.3476,1.19086 m 128.2534,779.67145 c -14.6404,36.4444 2.453,113.4755 24.693,206.8765 6.0117,27.4377 -1.0167,43.1848 -12.5342,64.2554 m 46.5679,15.2089 c -18.1004,7.7934 -22.6186,19.1992 -32.2163,38.514 -5.139,15.4677 -18.4536,20.5381 -34.3537,16.3492 1.9293,10.1699 -22.031,14.8131 -30.9756,4.5753 -7.2106,-8.2532 3.7356,-11.6472 5.0647,-11.8864 9.8249,-1.7682 16.592,-6.3574 24.9284,-14.1255 m -32.3768,22.0808 c -6.1765,0.3347 -5.2944,-7.4239 -2.8945,-9.6358 8.7198,-8.0367 16.9979,-13.0878 26.8586,-17.9863 m -27.651,19.0047 c -5.8128,-4.6605 -1.5557,-9.7878 0.605,-12.1639 4.7238,-5.1947 10.6086,-7.7666 18.5965,-12.6701 m -18.5965,12.6701 c -2.9568,-5.0615 -3.2754,-11.8762 5.0525,-15.2185 -1.5863,-8.3063 4.3222,-14.5639 14.9853,-13.4033 9.7734,-0.2203 30.7784,-25.7289 47.1181,-43.952 m -62.1034,57.3553 c 4.2045,0.034 2.0004,0.1795 5.5201,-0.237 2.1318,0.1079 5.2667,0.8738 5.9791,-4.4038 m 94.467,-34.8936 c 4.0968,-8.1098 1.2328,-41.4507 3.3593,-47.7117 m 13.7567,-141.3245 c 0.5882,19.2925 -2.4523,49.8842 -9.6526,73.2152 m -1.1185,-15.5122 c 2.4157,34.7929 4.4258,64.5155 10.4781,104.5437 0.2133,1.4118 -0.4811,3.6065 -0.3779,5.0299 0.3798,5.2304 1.2319,9.7298 1.911,15.0433 12.977,38.9249 -23.9466,32.5606 -46.6163,43.0208 m 130.5109,15.2402 c -5.0449,-3.9913 -8.0438,-7.0707 -11.3017,-9.0896 -15.4658,-9.5835 -10.2705,-13.1677 -4.1633,-40.6448 m 60.501,99.8334 c 5.2753,6.3359 14.2692,-4.068 9.6178,-7.9671 -8.6545,-7.2547 -9.9175,-11.3674 -14.1646,-18.2301 m 14.1646,18.2301 c 3.6941,0.3318 5.4976,0.8208 7.546,-3.234 2.8897,-2.3046 3.0936,-3.2521 4.0614,-8.775 0.272,-2.7639 2.1375,-4.8435 1.878,-7.6557 -0.4799,-5.2007 -3.3502,-7.2108 -5.799,-12.3606 -1.1831,-2.488 -2.4578,-7.311 -4.1662,-10.2437 -1.6808,-2.8851 -4.1042,-6.3402 -5.1762,-9.2306 -12.373,-26.8098 -18.6924,-49.4599 -30.0777,-47.2316 5.7722,-1.8987 8.6371,-5.5057 8.2421,-15.8264 -0.024,-0.6057 0.4984,-1.695 0.4233,-2.3426 -2.2844,-19.7153 2.3431,-32.1446 5.6778,-49.219 8.0926,-41.4359 17.1944,-80.3972 15.7645,-121.568 -0.1492,-4.2952 -1.663,-10.3082 -1.9397,-14.613 -1.5445,-24.0271 -6.1772,-42.4319 -15.7724,-65.5991 m -71.9795,14.374 c -10.291,38.5045 -10.665,78.3824 12.3378,118.7963 m 38.1652,-101.3402 c 3.0726,-6.0824 0.045,-13.2009 5.1347,-14.1992 m 15.6162,-12.8441 c 4.1873,-26.0244 5.0492,-56.7484 1.0889,-66.7608 m -6.8863,20.1885 c 0.7143,-13.5516 8.8978,-20.8507 14.5198,-36.2617 2.8485,-7.8085 3.6621,-14.7478 5.1784,-22.289 2.8207,-14.0279 5.7682,-28.0009 5.3073,-41.8346 m -36.1547,136.8432 c -0.99,-8.127 1.6131,-15.2282 3.6719,-22.3292 m -48.7521,9.5006 c -2.9334,7.8987 1.1699,18.9702 9.2816,27.1211 -2.2255,12.5372 -1.175,24.6239 10.7821,23.1017 m -88.6505,-46.4336 c 21.8489,35.8578 22.453,78.0975 4.803,114.8767 m -8.5636,-73.3702 c -1.4589,-16.1743 -2.8508,-28.5294 5.021,-44.1382 3.7323,-7.4005 4.7282,-18.1225 5.6377,-26.2626 3.2595,-29.1738 2.7981,-54.1241 -0.6327,-89.6656 -0.1295,-1.3416 1.4449,-5.9044 1.4449,-5.9044 0,0 -0.9266,-2.4191 -0.6174,-3.7592 4.1868,-18.1435 5.0844,-35.3059 4.1977,-53.2757 m -76.1765,219.6907 c -15.9633,-28.086 -24.557,-60.4645 -21.9473,-81.1766 m 38.1111,50.5144 c -0.9831,-10.1579 -5.0183,-20.3258 -13.123,-30.5079 8.1047,10.1821 16.2265,15.2866 24.3621,16.3294 m -59.2533,-340.2514 c -4.9281,11.4768 -8.5171,24.3164 -6.4484,41.9567 2.9972,16.2573 -10.5297,38.2773 -10.5846,54.5246 -2.1958,47.7187 10.4292,90.4678 11.2855,138.1971 -1.7148,34.2964 10.3726,71.8834 30.0431,85.1462 m 125.3259,-227.2138 c 34.5848,-37.036 25.687,-61.8395 42.4686,-74.1176 m -51.4965,81.6863 3.2163,-3.0354 m -114.5772,-69.1292 c 20.4121,16.8697 17.1781,62.4624 44.4228,73.7243 m 43.1797,4.6462 c -7.2923,7.1517 -3.9549,19.4954 -1.9649,32.7031 2.9918,17.9306 -16.487,19.3883 -19.6715,4.3219 -2.6564,-12.5692 6.735,-25.5457 0.694,-33.2162 m 35.205,-6.3018 c -6.0118,4.8745 -8.6116,13.2633 -4.5832,25.4624 3.5954,16.4092 2.9264,33.3161 -16.1981,36.4854 -1.9473,0.3228 -5.0929,-1.4438 -7.396,-1.4515 -16.2815,0.9606 -20.3813,-8.2878 -21.421,-20.8066 -1.1186,-13.4691 5.1229,-28.6751 -1.3529,-37.5138 m 201.2008,7.0353 c 0.9626,16.2506 1.1873,35.3969 -1.8872,57.9335 -0.7297,5.3492 -3.3166,8.2251 -7.6082,15.7444 -3.011,5.2756 -3.3329,6.7331 -5.7203,13.1902 -1.875,3.1546 -3.6151,7.052 -7.2438,0.4817 -0.1524,2.8675 0.4352,6.0909 -1.1776,8.89 -3.2838,3.6269 -5.9203,6.5865 -11.1523,9.7534 -1.547,0.9365 -6.2552,0.4437 -8.1992,-1.5824 -3.4562,2.8559 -5.3558,3.2571 -7.8158,3.7321 -1.1123,0.2148 -2.3159,-4.3325 -4.1939,-4.2467 -1.084,1.7521 -3.0738,2.6032 -3.0738,2.6032 -7.8958,3.7196 -8.7566,-3.5673 -5.6705,-9.5575 13.844,-26.8715 18.6542,-45.8667 16.4834,-60.8715 m 33.6465,24.2488 c -6.808,12.1581 -7.5843,15.5542 -8.8468,27.0306 m -20.5291,17.061 c 6.4772,-7.5638 13.1976,-15.705 14.9847,-22.9937 2.6117,-10.6526 0.2572,-9.3816 8.5689,-23.0569 m -8.4364,-7.6434 c -10.2996,11.0185 -3.5775,28.0053 -30.2007,55.7826 m 26.3317,-125.6819 c -9.1873,9.1082 -25.9833,14.0284 -31.4543,38.1067 -3.7066,16.3128 -24.4866,19.1947 -23.4898,25.2908 4.1357,12.7085 14.9391,9.8824 24.3626,2.4186 7.3572,-5.8271 14.0738,-14.8629 20.7188,-14.6805 3.4628,0.095 4.6839,7.2141 -4.9568,9.0978 m 15.146,-213.0078 c -7.6135,8.8201 -4.5293,52.0229 0.455,82.5031 0.199,12.6098 -0.6206,54.8337 -4.726,72.3214 m 14.5607,-126.752 c 2.532,-17.6746 -4.4553,-21.6454 -16.2559,-34.272 -11.1397,-15.26945 -7.5496,-37.75597 -14.8096,-42.35735 -3.7846,-8.11936 -0.2955,-17.51974 -1.2483,-28.54362 -1.5792,-18.26736 -1.634,-34.84101 -5.3301,-44.1633 m 64.3479,-14.83161 c 16.8748,27.90163 9.0846,83.07467 12.0886,97.30114 0.9455,21.32763 19.5567,62.07124 6.751,109.97744 -5.0123,21.0092 -9.002,34.5873 -13.227,57.6459 -2.8106,15.34 -5.3922,40.0614 -10.752,52.3932 M 1920.3949,890.06126 c 0.9179,29.45119 4.9807,59.12954 14.0378,88.60818 7.2677,20.33353 3.0316,46.81816 -3.2352,59.49346 -9.3708,18.9534 -5.251,37.0593 5.9286,41.1872 m 88.1933,-14.7486 c 3.7492,3.646 8.6789,-0.7701 6.6717,-3.4858 m 17.2999,-120.34997 c 20.1473,4.03832 29.97,72.19807 49.2864,76.32497 m -119.744,0.2111 c 36.7158,-8.707 15.6865,-80.53818 60.7493,-77.58526 m 5.0787,-43.24783 c -5.9863,10.72142 -17.1572,14.37499 -33.9454,14.82608 -65.7491,5.88148 -89.0174,-10.66 -88.2639,-53.1251 0.037,-11.16983 1.284,-19.55595 -2.56,-22.76984 m 243.6067,9.93026 c 0.9261,8.4987 -6.1068,39.35076 -17.865,55.11588 -8.1551,10.93418 -22.7316,9.60693 -46.5399,9.16173 -19.3534,-0.36187 -45.3459,-0.64386 -47.1625,-11.39158 m -13.8625,-112.94426 c 5.3337,6.43773 10.2932,3.74037 14.2569,-4.01371 m -18.2482,-19.17225 c 3.291,4.51232 7.2954,7.60947 12.2393,8.84345 l 18.6513,-26.95483 m -115.5664,34.98114 c 13.9589,-12.53852 30.1172,-20.94314 45.6147,-28.20689 9.1735,-5.0463 7.2141,-22.39174 7.2792,-41.68509 m 15.696,71.64627 c -15.2573,-1.0669 -23.0817,0.7198 -36.3178,3.72152 -22.389,1.95537 -30.9667,-15.12744 -67.6505,2.01153 -24.4649,14.13377 -36.7912,28.90283 -36.9303,42.41121 m 10.5643,-0.11726 c -16.5407,-3.71816 -37.6064,13.45056 -46.3749,25.66896 m 9.1534,59.65739 c 2.337,-43.93563 -22.6532,-81.82367 -18.6952,-123.71546 2.3879,-25.27361 3.0012,-49.45513 16.2818,-65.65754 9.2444,-8.09244 13.8932,-21.70182 17.6693,-29.17667 4.5818,-9.0698 11.0839,-13.87095 16.1845,-17.91556 8.2457,-12.25832 -15.076,-14.68388 -27.5692,1.90901 -4.0988,5.44386 -11.1239,7.71556 -17.2311,16.83402 -22.5569,6.08354 -27.8799,22.22272 -26.8139,35.42142 -0.8262,-4.7647 -3.7104,-9.44197 -4.9545,-11.55718 m -19.6944,26.80282 c -9.2728,51.03526 -19.6318,155.23281 -6.8692,169.06571 m 109.1223,-3.46744 c -6.1317,8.10291 -17.635,13.85382 -30.3832,23.54147 m 48.9344,-102.97789 c 8.4751,2.74707 11.2913,7.37746 16.2493,14.28329 m 2.2247,32.63774 c -12.5033,28.95559 -23.9877,48.3368 -67.4084,56.05686 -22.8158,16.6362 -38.3251,16.79978 -52.364,12.44435 -13.6857,0.80718 -19.7256,-1.62783 -23.1247,-10.37357 -4.6069,-11.8537 -4.1388,-32.37208 0.1039,-36.82594 m 117.4395,-20.9817 12.7089,-11.34366 m 46.0762,23.13075 c -2.788,-0.49746 -2.5215,0.51571 -2.3592,0.7532 4.9686,7.27071 15.2639,2.33853 6.5646,-2.38237 m -10.3796,-87.92477 c 5.1461,0.47936 8.1492,-3.01887 10.1977,-7.07377 m 88.2071,44.82339 c 2.6588,-2.32993 3.2202,-4.14239 1.6035,-9.07109 m -3.0603,30.08265 c 2.7147,-1.00628 4.4047,-3.10464 3.6526,-6.15095 m 73.8374,35.2909 c -12.6861,2.73768 -1.2671,9.78037 4.5348,5.1443 0.5443,-0.43494 1.3794,-2.01504 -1.3161,-1.35654 m -63.5343,-115.98232 c 19.33,0.0652 40.3912,8.95184 59.7423,2.83296 m -19.1097,-189.80825 c 22.8783,20.72049 15.4639,46.32502 2.3749,54.4375 m -2.8282,-1.62737 c 16.3447,10.65932 1.731,31.83653 -16.4685,30.62504 m 5.7569,-0.35328 c -1.9083,7.00597 0.6012,6.52122 -5.5735,22.78722 -1.0769,4.21509 -3.9372,8.31831 -4.7813,9.23263 -16.8232,18.22381 -29.8685,29.36798 -33.2347,30.68467 -4.7974,1.87651 -19.9214,2.16759 -23.2177,1.58333 -14.8816,-2.63772 -29.1372,-31.16104 -34.2847,-49.9043 3.2792,-7.91007 -1.8331,-14.65233 -5.1633,-23.0937 -2.7777,-7.37939 2.3575,-7.89007 2.7838,-10.9571 0.3095,-2.22678 -2.0443,-3.7973 -1.6426,-5.37714 1.2557,-4.93934 1.7756,-6.55836 -7.378,-6.62477 m 97.5828,-60.16789 c 0.9968,-6.1278 2.0056,-14.57411 1.1525,-17.37635 -4.9969,-16.41458 -34.827,-27.0349 -50.9761,-13.21937 -8.2474,7.05563 -10.14,10.52133 -18.4373,9.18381 -10.094,-1.62715 -15.8853,4.73472 -17.4609,12.16389 -2.1866,10.30921 -9.8398,8.43065 -15.0468,13.59271 -2.6554,2.63275 -5.5605,6.64146 -5.5734,11.03246 -0.014,4.21239 3.5244,9.44667 1.0945,12.0857 -8.9153,9.68224 -10.3758,35.20736 7.6647,32.70504 -5.4776,-13.82993 -1.2118,-21.18053 3.4073,-21.12294 3.2164,0.0401 7.7404,3.85435 5.9756,12.53234 m -14.6891,8.4472 c -2.0656,9.13209 -1.1491,13.12617 2.9169,14.15534 -2.0553,6.08579 -1.0555,11.3204 4.9434,14.87789 -0.1026,12.33908 3.7694,14.09941 8.846,17.16288 m -222.8755,-8.15109 c -9.7474,-28.22924 -4.9939,-52.17963 2.7405,-52.10711 6.0448,0.0567 0.679,20.57775 9.7356,44.17022 l 2.268,-1.5321 c -6.2727,-3.83332 0.9309,-65.31882 13.7308,-59.62287 8.3947,3.73565 -0.8841,15.20678 -2.5592,32.04968 -0.528,6.3592 0.6261,13.62282 1.9978,20.3067 1.6842,-1.35054 3.5328,-1.51824 6.0615,-2.76353 -1.4272,-12.69742 -0.2637,-21.77542 1.3819,-32.69571 2.2693,-15.06089 5.5646,-26.79135 9.1991,-27.53257 4.5568,-0.92929 7.601,1.47214 5.6088,9.38565 -0.9924,3.9419 -2.1703,7.35327 -2.3678,9.51238 -0.9267,10.13094 -1.3856,27.54535 0.4123,40.16969 2.5839,0.48475 3.9027,-0.19081 4.2087,0.78958 0.1447,-20.0321 2.6027,-19.56755 3.3199,-30.89415 0.9623,-11.16285 -0.7021,-18.50693 4.2194,-19.57388 5.4288,-1.17692 8.8251,5.46601 7.334,21.70341 2.2297,10.95841 -5.6877,34.63191 4.141,57.20801 m -34.2455,-29.00244 c -4.298,1.26655 -5.9311,1.49961 -9.5059,3.94324 m 348.2461,113.40953 c -13.1635,-18.53905 -47.6077,-30.60321 -57.0699,-52.14685 m 16.868,-103.20136 c -1.0717,4.71793 0.7213,11.27639 -0.1988,16.65902 -1.4117,8.25843 -5.0413,16.28654 -11.8456,24.87029 3.8264,-10.97416 2.7977,-20.29614 -11.4335,-28.98583 -14.368,-8.77334 -16.5767,-20.95721 -8.3624,-43.26946 -14.9561,18.93513 -29.8828,27.88129 -47.8296,12.08859 m 54.1555,-38.38399 c 15.9601,-3.92852 25.4306,15.316 25.3076,37.65707 m -67.2329,2.79754 c 1.9359,-1.13338 2.2284,-3.34147 1.4284,-3.58746 -22.0013,-8.3747 -27.3256,33.26374 -49.2118,24.08245 m 219.3717,276.6241 c 3.1241,-21.31395 8.0528,-45.69377 4.5981,-65.34518 -2.0824,-11.84518 -9.9483,-29.21331 -21.9142,-42.36284 -11.9337,-13.11405 -23.8494,-23.34342 -57.052,-15.52062 m -348.7686,-109.62899 -7.6525,5.08396 m -6.5563,3.52066 -2.5282,2.12517 c -5.8433,4.9118 1.7036,49.88518 17.3063,71.76495 0.4761,1.01678 -5.5128,2.31793 -5.0299,3.33091 m 233.1932,-48.44623 c 4.6048,-0.68688 8.8916,-1.24776 12.6852,-3.57074 l 0,0 c 4.0911,0.62517 8.2974,2.1975 12.0129,-0.26748 l 0,0 c 3.9513,1.12469 7.7435,1.79086 12.9265,2.50968 m -29.406,-0.11324 c 7.2331,2.41091 14.6951,1.70801 22.9723,-0.79683 M 1930.0445,1770.5047 c 0.042,9.0596 -6.2071,10.3679 -12.6194,4.2014 m 176.6646,-214.4732 c -2.1273,27.4099 5.2577,60.1301 14.3145,89.6088 m -61.1706,-414.0128 c -1.0756,17.2591 9.1728,36.0894 14.1947,55.3999 5.9706,39.6229 4.6411,86.4878 12.1078,121.1875 -0.072,21.3243 24.3206,53.1161 33.2713,86.4445 m 63.4835,278.1234 c -1.5789,9.5385 4.1616,7.8635 13.3368,20.2637 m 5.8148,-14.7659 c -4.1945,-0.8897 -11.3712,-2.8826 -11.0614,-8.7609 M 2030.3143,661.18071 c -1.7783,-2.77455 -4.749,-4.97919 -7.8505,-5.70043 -6.6721,-0.41195 -14.3952,0.44293 -20.1462,-0.3424 l 2.4509,1.87352 c 11.448,-0.9606 17.3435,-0.0704 21.8835,1.27166 m 25.5863,2.07195 c 0.7698,-4.24068 5.9075,-5.99917 10.7501,-5.77118 4.9852,-0.22137 4.8672,2.31834 10.7423,3.61657 m -42.6796,22.94771 c 3.1525,-11.77901 1.5982,-22.46099 -0.3093,-27.32387 m 0.2887,63.39237 c 4.0627,2.0446 7.2602,2.30856 12.3539,0.29485 m 32.7924,-69.06768 c -7.1044,-5.10123 -20.4797,-4.123 -27.1001,-0.77367 m -21.5853,1.58754 c -8.1114,-8.15096 -16.5326,0.17685 -24.6579,-3.91231 m 19.3366,35.71894 c -4.6892,3.32788 -3.9004,8.32339 -0.8052,10.36334 2.1055,1.38768 4.2683,-0.92355 7.8281,0.0555 5.2743,1.45065 7.0425,1.86613 12.5857,-0.32875 2.0117,-0.79655 7.0008,1.40483 9.3086,0.52144 2.7093,-1.03705 3.1689,-6.28451 0.7157,-11.41065" style="fill:none;stroke:#000000;stroke-width:5.19999981;stroke-linecap:round;stroke-linejoin:round;stroke-miterlimit:4;stroke-dasharray:none;display:inline" />
</g>
</svg>