<svg xmlns="http://www.w3.org/2000/svg" width="477" height="279.617" viewBox="0 0 126.20625 73.982116"><path fill="#fff" d="M0 0h126.206v73.982H0z"/><path d="M27.388 10.104v10.682l-1.564-1.202s-.664-.306-1.078-.306c-.413 0-1.04.198-1.04.198l-8.587 6.25s-1.528 1.438-.217 2.785c1.312 1.348 2.64 0 2.64 0l6.43-4.67 3.415 2.848v3.464l-1.73 1.753-1.65-4.198-7.342 7.51 1.908 3.86-1.82 1.846-3.45-5.724s-1.34-1.773-3.113-.695c-1.77 1.077-.885 2.956-.885 2.956l5.245 8.828s.695 1.125 2.18 1.125c1.484 0 1.652-.31 2.275-.862.623-.55 4.86-4.956 4.86-4.956l3.523 5.047v7.886l-3.785 3.76s-1.58 2.012-.096 3.353c1.485 1.34 2.946.383 3.16.167.12-.118.448-.447.72-.718v3.62h.818V10.103z" fill="#f79026"/><path d="M94.466 10.2V64.63h.815V59.13c1.16-1.14 4.466-4.403 5.487-5.542 1.246-1.39 1.58-1.702 1.87-2.612.287-.91-1.008-2.11-1.175-2.3-.168-.192-5.51-6.948-5.032-7.115.48-.167 7.332-7.81 7.332-7.81s1.174 5.894 1.366 6.18c.19.29 6.372 4.937 6.444 4.985.072.048 1.342.934 2.564-.288s.216-2.49.216-2.49-.152-.11-.178-.126l.742-3.68c.098.002.195.007.294.003a6.558 6.558 0 0 0 2.306-.515.564.564 0 0 0 .327-.38l.402-1.577a.564.564 0 0 0-.045-.4c-.27-.518-.593-.995-1.018-1.37l.435-1.95c.192-.61.192-1.267-.003-1.876a3.113 3.113 0 0 0-1.116-1.553 3.114 3.114 0 0 0-1.814-.604 3.112 3.112 0 0 0-1.824.574c-.367.26-.675.605-.888 1.008-.216.406-.31.823-.386 1.2l-.364 1.806a.564.564 0 0 0-.166.033l-.604.218a.564.564 0 0 0-.36.416l-.472 2.278a.564.564 0 0 0 .127.486c.246.28.52.538.815.766.345.267.715.49 1.1.678l-.488 2.295c-1.47-1.08-2.91-2.192-2.955-2.447-.097-.528-1.774-7.38-1.87-7.475-.085-.084-9.04-6.91-11.07-8.458V10.2zm13.96 4.594c-1.477.024-2.95.265-4.356.718a15.02 15.02 0 0 0-5.28 2.995l1.786 1.624a5.486 5.486 0 1 0 10.805 1.352c0-1.735-.81-3.28-2.068-4.286l.588-2.353c-.49-.04-.982-.057-1.474-.05zm11.694 12.958a.446.446 0 0 0-.388.67l.166.284c-.468.287-.977.6-1.272.785a.446.446 0 1 0 .475.755c.284-.178.784-.485 1.245-.767l.18.312a.446.446 0 0 0 .797-.05l.548-1.306a.446.446 0 0 0 .036-.16.446.446 0 0 0-.498-.46l-1.27-.062a.446.446 0 0 0-.017 0zm-5.445 1.366c.434.004.875.15 1.224.408.347.257.618.634.75 1.047.132.412.13.877-.005 1.288a.506.506 0 0 0-.013.048l-.86 3.86a5.344 5.344 0 0 1-.37.06l.202-.973a.506.506 0 0 0 .008-.118l.017-.097a.506.506 0 0 0-.524-.598.506.506 0 0 0-.162.037l-.89.355a.506.506 0 0 0 .078.965l.308.067-.08.38a4.11 4.11 0 0 1-.71-.127 4.097 4.097 0 0 1-.54-.193.506.506 0 0 0 .005-.024c.086-.387.127-.578.147-.687.01-.055.017-.08.02-.143v-.03c0-.007 0 .002.004-.007l.054-.237 1.714-.718a.506.506 0 0 0-.093-.963l-1.72-.357a.506.506 0 0 0-.1-.01.506.506 0 0 0-.498.407l-.217 1.097c-.063.27-.11.48-.13.568-.01.053-.016.075-.022.13a.32.32 0 0 0-.005.06V34.63c-.008.046-.05.237-.077.363a5.245 5.245 0 0 1-.345-.273l.732-3.628c.072-.356.154-.674.288-.928.137-.257.34-.485.58-.657.354-.25.797-.39 1.23-.387zm5.483 1.39a.446.446 0 0 0-.388.668l.165.285c-.467.288-.976.6-1.27.786a.446.446 0 1 0 .474.754c.282-.178.782-.485 1.242-.767l.18.312a.446.446 0 0 0 .798-.05l.548-1.306a.446.446 0 0 0 .036-.16.446.446 0 0 0-.496-.463l-1.27-.06a.446.446 0 0 0-.02 0zm-7.853 4.294l.026.05-.02-.036-.005-.014zm.088.148c.02.014.08.06.13.1-.055-.04-.12-.084-.12-.084s-.01-.013-.01-.016zm.194.143l.168.04-.163-.036-.005-.004zm-1.724.105a.506.506 0 0 0 .07.087 5.638 5.638 0 0 0 2.45 1.41 5.642 5.642 0 0 0 2.936.015.506.506 0 0 0 .363-.38l.19-.848c.073.112.145.23.216.353l-.257 1c-.536.198-1.095.35-1.666.37a6.298 6.298 0 0 1-1.93-.243c-.726-.204-1.413-.52-1.986-.963-.167-.13-.313-.287-.462-.44zm1.753 2.752a8.098 8.098 0 0 0 1.284.3l-.63 3.124c-.34-.24-.777-.558-1.2-.862zM95.28 48.76c.626.76 1.75 2.143 1.75 2.264 0 .12-1.124 1.18-1.75 1.63z" fill="#08abe3"/><path d="M109.323 17.195a22.526 22.526 0 0 1-8.787 2.932c1.283.363 2.608.574 3.94.63 2.104.087 4.208-.215 6.265-.67.345-.076.696-.16.997-.343.15-.092.287-.21.39-.352a.975.975 0 0 0 .19-.487.958.958 0 0 0-.084-.466 1.257 1.257 0 0 0-.276-.39c-.23-.22-.524-.363-.822-.477a5.842 5.842 0 0 0-1.812-.378zm-6.057 10.413l-8.748 4.46v2.95l10.866-5.738z" fill="#78d0ee"/><path style="line-height:1em;-inkscape-font-specification:'Montserrat Bold';font-variant-ligatures:discretionary-ligatures historical-ligatures;font-variant-caps:normal;font-variant-numeric:lining-nums tabular-nums slashed-zero;font-feature-settings:normal;text-align:start" d="M40.113 13.662c-1.072 0-2.02.17-2.84.51-.82.335-1.454.81-1.902 1.42-.44.613-.66 1.332-.66 2.16 0 .864.213 1.56.643 2.09.435.532.952.926 1.552 1.184.606.26 1.372.518 2.3.777.915.246 1.59.485 2.026.72.436.226.654.56.654 1.002 0 .392-.158.688-.473.89-.31.196-.74.294-1.297.294-.72 0-1.546-.19-2.48-.57a8.898 8.898 0 0 1-2.423-1.467l-1.334 2.66c.814.67 1.77 1.2 2.868 1.59 1.098.386 2.208.578 3.332.578 1.022 0 1.944-.157 2.764-.472.82-.316 1.47-.786 1.95-1.41.48-.632.72-1.386.72-2.263 0-.903-.222-1.625-.663-2.167a4.25 4.25 0 0 0-1.572-1.222c-.606-.27-1.382-.543-2.33-.814-.9-.26-1.563-.5-1.986-.73-.417-.226-.626-.554-.626-.983a.8.8 0 0 1 .407-.73c.272-.17.635-.255 1.09-.255.555 0 1.236.132 2.044.397.814.26 1.578.596 2.29 1.013l1.307-2.688c-.712-.467-1.54-.836-2.488-1.108-.94-.272-1.897-.408-2.87-.408zm7.28.15v13.575h3.455v-5.272h5.623v5.272h3.446V13.813H56.47V19.4H50.85v-5.587zm15.22 0v13.575h10.84V24.67h-7.384v-2.725h6.474v-2.717H66.07V16.53h7.174v-2.717zm13.064 0v13.575h3.237V19.03l6.247 8.357h3.04V13.813h-3.218v8.378l-6.257-8.377zM33.67 31.707v2.735h7.016l-7.27 8.634v2.206H45.4v-2.736h-7.365l7.25-8.623v-2.214zm13.66 0V45.28h3.456v-5.273h5.622v5.273h3.446V31.706h-3.446v5.584h-5.622v-5.584zm15.22 0V45.28h10.84v-2.717h-7.384v-2.726h6.475V37.12h-6.474v-2.698h7.175v-2.716zm13.064 0V45.28h3.238v-8.358L85.1 45.28h3.037V31.706H84.92v8.377l-6.258-8.377zM47.33 49.386c-1.008 0-1.916.218-2.725.655a4.934 4.934 0 0 0-1.918 1.794c-.464.758-.697 1.614-.697 2.566 0 .95.233 1.813.697 2.586a4.99 4.99 0 0 0 1.924 1.82c.815.442 1.72.663 2.72.663 1.006 0 1.916-.222 2.73-.663a4.927 4.927 0 0 0 1.925-1.82c.464-.774.696-1.636.696-2.587 0-.943-.23-1.794-.695-2.552a4.908 4.908 0 0 0-1.925-1.8c-.814-.442-1.724-.663-2.73-.663zm16.02.07v2.033h2.953v7.868h2.517v-7.87h2.98v-2.033zm-30.312.012v9.89h2.518v-2.78h1.793c1.26 0 2.238-.318 2.937-.957.7-.643 1.05-1.544 1.05-2.703 0-1.104-.35-1.954-1.05-2.552-.7-.598-1.678-.897-2.938-.897zm20.967 0v9.89h2.518v-2.78h1.979l1.47 2.78h2.848l-2.076-3.26a3.085 3.085 0 0 0 1.33-1.243c.31-.538.463-1.184.463-1.938 0-1.104-.36-1.954-1.076-2.552-.712-.598-1.724-.897-3.034-.897zm21.03 0l-4.263 9.89h2.586l.718-1.82H78.4l.703 1.82h2.683l-4.165-9.89zm7.662 0v9.89h6.71v-2.103h-4.193v-7.787zm-47.14 1.98h1.668c.552 0 .977.13 1.276.393.304.263.456.65.456 1.16 0 .52-.15.917-.45 1.193-.298.27-.725.407-1.28.407h-1.67zm20.966 0h1.903c.547 0 .97.13 1.27.393.303.263.454.65.454 1.16 0 .52-.15.917-.455 1.193-.3.27-.722.407-1.27.407h-1.902zm-9.167.04c.502 0 .96.13 1.38.387.418.253.75.603.993 1.05.247.445.37.94.37 1.488a3.09 3.09 0 0 1-.37 1.504c-.245.45-.576.805-.994 1.062a2.58 2.58 0 0 1-1.38.385c-.496 0-.96-.128-1.393-.386a2.832 2.832 0 0 1-1.02-1.063 3.045 3.045 0 0 1-.38-1.504c0-.547.127-1.043.38-1.49a2.794 2.794 0 0 1 1.02-1.048 2.675 2.675 0 0 1 1.393-.386zm28.892.484l1.414 3.655h-2.856z" font-weight="700" font-family="Montserrat" fill="#333"/><path d="M26.94 26.318l-2.366 1.902-.567-.513-.306.313-.457 3.063a.26.26 0 0 0 .015.13l1.588 3.976a.25.25 0 0 0 .085.108l2.434 1.778-6.495 6.628.007.018 2.567-.013 4.72-4.87.028-4.562-1.643-4.27-.327-.296 1.172-1.02-.007-2.004zm-2.75 1.855l3.287 8.366-2.193-1.603-1.535-3.848zm-1.985 3.383a12.252 12.252 0 0 1-.295 1.9l.455.1c.12-.57.207-1.206.263-1.907zm-1.715 1.446l-.35.354.437 1.02-1.33 1.35c-.3-.102-.625-.267-.973-.496l-.246.715c.376.152.75.253 1.122.303a3.13 3.13 0 0 0-.073 1.3c.076.556.364 1.418.863 2.586.174.41.452 1.023.834 1.842.15-.102.308-.17.47-.204-.49-.995-.874-1.82-1.155-2.476-.33-.77-.533-1.364-.612-1.783a2.932 2.932 0 0 1 .038-1.33l1.627-1.652zm2.938.735c-.073.377-.222.838-.446 1.383l.41.28a8.99 8.99 0 0 0 .425-1.382zm-.94.32l-.314.316.713 1.67-.693.703-.82-1.922-.324.328.818 1.915c-.68.618-1.376.455-2.085-.49l-.16.68c.578.684 1.14.95 1.688.798 0 .72-.05 1.586-.143 2.602l.498.083c.054-1.02.065-1.974.033-2.865.13-.08.258-.18.387-.3l.902 2.114.323-.33-.9-2.106.694-.702.785 1.84.312-.32-.57-1.337a5.76 5.76 0 0 0 1.095-.167l-.105-.7a4.51 4.51 0 0 1-1.224.323z" fill="#efc497"/></svg>