<svg xmlns="http://www.w3.org/2000/svg" width="282.143" height="282.143" viewBox="0 0 74.650291 74.650291"><path d="M35.912 19.225a.54.54 0 0 0-.066-.31.912.912 0 0 0-.204-.246c-.333-.295-.784-.414-1.22-.493a9.697 9.697 0 0 0-4.582.263c-1.07.33-2.084.86-2.934 1.587-.85.73-1.534 1.66-1.924 2.71a6.128 6.128 0 0 0 .44 5.134 24.164 24.164 0 0 0-9.292 7.913c-1.715 2.46-2.972 5.273-3.408 8.24-.435 2.967-.02 6.092 1.404 8.732 1.306 2.425 3.41 4.362 5.787 5.754 2.377 1.39 5.026 2.263 7.71 2.885 6.096 1.412 12.55 1.555 18.575-.134 3.655-1.023 7.156-2.735 9.982-5.268 2.826-2.534 4.947-5.923 5.653-9.652.67-3.533.03-7.3-1.767-10.413a15.332 15.332 0 0 0-8.133-6.74c.45-.563.795-1.21 1.01-1.9.2-.644.286-1.332.177-2a3.863 3.863 0 0 0-.42-1.208c-.13-.243-.29-.48-.52-.63a.88.88 0 0 0-.383-.144.667.667 0 0 0-.4.076.852.852 0 0 0-.333.39c-.074.156-.12.324-.18.487-.31.844-.98 1.513-1.718 2.03-.993.694-2.138 1.16-3.325 1.405-1.318.272-2.674.273-4.018.342-.326.016-.656.038-.963.147-.155.054-.3.13-.428.234a1.03 1.03 0 0 0-.296.383c-.086.2-.097.428-.048.64.048.21.154.406.29.574.274.337.66.56 1.037.774 1.572.884 3.237 1.752 4.298 3.21a5.824 5.824 0 0 1 1.086 3.84 5.86 5.86 0 0 1-1.662 3.632c-.963.973-2.25 1.58-3.58 1.91-1.328.326-2.708.388-4.078.393-1.463.005-2.94-.058-4.353-.443-1.41-.386-2.763-1.12-3.67-2.268-.825-1.04-1.242-2.38-1.22-3.707.022-1.326.473-2.632 1.218-3.73.86-1.266 2.1-2.25 3.47-2.932.412-.204.84-.386 1.194-.68a1.79 1.79 0 0 0 .44-.523c.107-.203.166-.434.15-.663a1.224 1.224 0 0 0-.198-.563 1.793 1.793 0 0 0-.41-.438c-.316-.248-.69-.41-1.05-.59-.56-.28-1.1-.614-1.55-1.05-.45-.438-.807-.983-.956-1.592-.195-.802-.013-1.666.387-2.388a4.35 4.35 0 0 1 2.07-1.864c.646-.278 1.348-.397 2.04-.52.186-.034.376-.07.542-.16a.71.71 0 0 0 .218-.18.51.51 0 0 0 .11-.257z"/></svg>