<svg xmlns="http://www.w3.org/2000/svg" width="288.904" height="288.904" viewBox="0 0 76.439087 76.439087"><path d="M29.77 42.997a9.88 9.88 0 0 1 1.147-1.188 1267.58 1267.58 0 0 1 1.045 2.23 5.99 5.99 0 0 0-1.058 1.258 14.64 14.64 0 0 1-1.133-2.3zm5.036 5.828a35.886 35.886 0 0 0 5.074 6.842c2.27 2.402 4.867 4.484 7.64 6.284 1.162.756 2.373 1.47 3.705 1.852.777.223 1.588.33 2.396.315a3.453 3.453 0 0 1-1.23-1.977 3.453 3.453 0 0 1 .322-2.306 3.46 3.46 0 0 1 1.525-1.48 3.483 3.483 0 0 1 2.103-.303c.71.123 1.38.47 1.886.982.507.512.85 1.183.968 1.893.147.88-.053 1.805-.506 2.575-.452.77-1.147 1.385-1.94 1.79-1.064.544-2.292.716-3.483.628-1.19-.09-2.35-.427-3.464-.858-4.57-1.772-8.396-5.09-11.607-8.798a53.17 53.17 0 0 1-4.574-6.12 3.596 3.596 0 0 1 1.186-1.317zm13.16 11.968a11.8 11.8 0 0 1-1.984-1.39 9.274 9.274 0 0 0 .578-7.043 8.88 8.88 0 0 0-2.913-4.213c-1.636-1.29-3.785-1.948-5.85-1.674-2.106.278-4.06 1.532-5.198 3.324-1.255 1.975-1.483 4.566-.592 6.73l-.727.463a9.994 9.994 0 0 1-1.406-5.792 9.994 9.994 0 0 1 2.167-5.552 10.138 10.138 0 0 1 4.185-3.064 10.48 10.48 0 0 1 5.152-.624c3.467.45 6.624 2.714 8.26 5.804a11.484 11.484 0 0 1 1.23 6.78 11.484 11.484 0 0 1-2.9 6.25zM28.4 33.566a13.717 13.717 0 0 1-.296-8.43c.494-1.717 1.348-3.36 2.64-4.594 1.293-1.234 3.05-2.03 4.835-1.97 1.336.045 2.66.58 3.62 1.51.962.932 1.54 2.258 1.524 3.596-.02 1.547-.81 3.006-1.873 4.128-1.063 1.123-2.39 1.957-3.712 2.76-3.016 1.832-6.11 3.59-8.738 5.945-2.036 1.826-3.773 4.007-4.946 6.477a17.958 17.958 0 0 0-1.484 10.555c.538 3.255 2.038 6.4 4.477 8.622 2.708 2.466 6.4 3.655 10.056 3.882 1.697.105 3.41.018 5.075-.33a16.46 16.46 0 0 0 5.026-1.957 18.164 18.164 0 0 1-1.56-1.176 12.702 12.702 0 0 1-4.678 1.716c-1.724.267-3.496.173-5.203-.19-2.467-.528-4.856-1.656-6.578-3.5-1.564-1.672-2.517-3.887-2.74-6.166-.232-2.37.305-4.778 1.316-6.934 1.1-2.34 2.74-4.398 4.606-6.187 2.82-2.706 6.185-4.85 8.713-7.83 2.368-2.795 3.94-6.398 3.74-10.057-.177-3.25-1.744-6.33-3.975-8.7a17.473 17.473 0 0 0-4.817-3.6 15.912 15.912 0 0 0-6.642 5.518c-1.99 2.904-2.972 6.507-2.62 10.01.138 1.366.47 2.706.863 4.022.426 1.43.925 2.84 1.495 4.22a19.508 19.508 0 0 1 1.874-1.34z"/></svg>