<svg xmlns="http://www.w3.org/2000/svg" width="196.429" height="196.429" viewBox="0 0 51.971722 51.971722"><path d="M33.95 32.094c.572-.595 1.14-1.196 1.702-1.8.487-.525.97-1.054 1.422-1.61.518-.635.994-1.305 1.424-2.003a21.983 21.983 0 0 1-3.92-6.527c-.158.422-.318.842-.48 1.262-.513 1.33-1.046 2.654-1.715 3.912a20.178 20.178 0 0 1-1.515 2.422 306.14 306.14 0 0 0 3.08 4.344zM18.337 43.097a59.033 59.033 0 0 0 10.212-6.26 80.792 80.792 0 0 1-2.634-3.997 23.207 23.207 0 0 1-3.813 2.376 5676.724 5676.724 0 0 1-3.765 7.88zm3.006-32.218c-.15-.43-.293-.863-.43-1.297a5.322 5.322 0 0 1 1.91-1.16A5.322 5.322 0 0 1 25 8.148c.174.392.314.8.422 1.214.14.54.224 1.097.262 1.655.037.54.03 1.085-.018 1.625a7.82 7.82 0 0 0-3.336.77 39.868 39.868 0 0 1-.986-2.533zm2.854 19.068l-6.235 13.094a16.01 16.01 0 0 1-4.11-6.655c.32-.728.675-1.44 1.066-2.133.97-1.72 2.152-3.313 3.302-4.92a169.822 169.822 0 0 0 3.206-4.64 83.26 83.26 0 0 0 2.77 5.254zm1.226-21.734c.274.665.464 1.364.564 2.076.16 1.15.087 2.322-.077 3.47a22.26 22.26 0 0 1-1.14 4.522 79.49 79.49 0 0 0 2.713 4.388 115.53 115.53 0 0 0 1.64-4.675c.39-1.198.764-2.407.973-3.65a2.62 2.62 0 0 0 .048-.68c-.03-.31-.157-.598-.292-.877-.56-1.157-1.294-2.24-2.238-3.114a8.363 8.363 0 0 0-2.19-1.46zM20.607 9.82a38.997 38.997 0 0 0 1.342 3.635c1.377 3.23 3.184 6.256 5.08 9.21a181.38 181.38 0 0 0 5.13 7.555 202.366 202.366 0 0 0 5.47 7.295 6.31 6.31 0 0 1-.565 2.606c-.344.757-.835 1.44-1.174 2.198a6.13 6.13 0 0 0-.53 2.658 92.89 92.89 0 0 1-11.493-16.374 74.536 74.536 0 0 1-3.11-6.278c-.742-1.705-1.408-3.45-1.853-5.254A6.75 6.75 0 0 1 18.71 16c-.086-1.065.26-2.114.632-3.114.386-1.036.808-2.06 1.265-3.066z"/></svg>