<?xml version="1.0" encoding="UTF-8" standalone="no"?>
<svg
   xmlns:dc="http://purl.org/dc/elements/1.1/"
   xmlns:cc="http://creativecommons.org/ns#"
   xmlns:rdf="http://www.w3.org/1999/02/22-rdf-syntax-ns#"
   xmlns:svg="http://www.w3.org/2000/svg"
   xmlns="http://www.w3.org/2000/svg"
   xmlns:xlink="http://www.w3.org/1999/xlink"
   xmlns:sodipodi="http://sodipodi.sourceforge.net/DTD/sodipodi-0.dtd"
   xmlns:inkscape="http://www.inkscape.org/namespaces/inkscape"
   version="1.2"
   width="107mm"
   height="37mm"
   viewBox="0 0 60.88891 21.055009"
   id="svg202"
   sodipodi:docname="rickroll.svg"
   inkscape:version="0.92.2 2405546, 2018-03-11">
  <metadata
     id="metadata208">
    <rdf:RDF>
      <cc:Work
         rdf:about="">
        <dc:format>image/svg+xml</dc:format>
        <dc:type
           rdf:resource="http://purl.org/dc/dcmitype/StillImage" />
        <dc:title></dc:title>
      </cc:Work>
    </rdf:RDF>
  </metadata>
  <defs
     id="defs206" />
  <sodipodi:namedview
     pagecolor="#ffffff"
     bordercolor="#666666"
     borderopacity="1"
     objecttolerance="10"
     gridtolerance="10"
     guidetolerance="10"
     inkscape:pageopacity="0"
     inkscape:pageshadow="2"
     inkscape:window-width="2560"
     inkscape:window-height="1440"
     id="namedview204"
     showgrid="false"
     inkscape:zoom="2.9482143"
     inkscape:cx="151.63345"
     inkscape:cy="39.567082"
     inkscape:window-x="0"
     inkscape:window-y="0"
     inkscape:window-maximized="0"
     inkscape:current-layer="svg202" />
  <!-- Page: 1/1 -->
  <g
     id="g310"
     transform="translate(0.56917451,-0.56892388)">
    <text
       y="1.7072104"
       x="2.8453"
       style="font-size:2.20009995px;font-family:'Century Schoolbook L';text-anchor:start;fill:currentColor"
       id="text4"
       font-size="2.2001">
      <tspan
         id="tspan2" />
    </text>
    <line
       style="stroke:currentColor;stroke-width:0.1;stroke-linecap:round;stroke-linejoin:round"
       id="line6"
       y2="8.4712105"
       x2="56.855499"
       y1="8.4712105"
       x1="2.8952999" />
    <line
       style="stroke:currentColor;stroke-width:0.1;stroke-linecap:round;stroke-linejoin:round"
       id="line8"
       y2="7.4712105"
       x2="56.855499"
       y1="7.4712105"
       x1="2.8952999" />
    <line
       style="stroke:currentColor;stroke-width:0.1;stroke-linecap:round;stroke-linejoin:round"
       id="line10"
       y2="6.4712105"
       x2="56.855499"
       y1="6.4712105"
       x1="2.8952999" />
    <line
       style="stroke:currentColor;stroke-width:0.1;stroke-linecap:round;stroke-linejoin:round"
       id="line12"
       y2="5.4712105"
       x2="56.855499"
       y1="5.4712105"
       x1="2.8952999" />
    <line
       style="stroke:currentColor;stroke-width:0.1;stroke-linecap:round;stroke-linejoin:round"
       id="line14"
       y2="4.4712105"
       x2="56.855499"
       y1="4.4712105"
       x1="2.8952999" />
    <rect
       style="fill:currentColor"
       id="rect16"
       ry="0.0000"
       height="4"
       width="0.19"
       y="4.4712105"
       x="30.7362" />
    <rect
       style="fill:currentColor"
       id="rect18"
       ry="0.0000"
       height="4"
       width="0.19"
       y="4.4712105"
       x="56.7155" />
    <rect
       style="fill:currentColor"
       id="rect20"
       ry="0.039999999"
       height="3.3122001"
       width="0.13"
       y="5.1590109"
       x="38.837399" />
    <rect
       style="fill:currentColor"
       id="rect22"
       ry="0.039999999"
       height="3.0337999"
       width="0.13"
       y="4.6590104"
       x="48.648499" />
    <a
       transform="translate(0,1.1381105)"
       id="a26"
       xlink:href="textedit:///home/seb/wip/music-stickers/rickroll.ly:24:17:18"
       style="color:inherit">
      <path
         style="fill:currentColor"
         inkscape:connector-curvature="0"
         id="path24"
         d="m 220,138 c 56,0 109,-29 109,-91 0,-72 -56,-121 -103,-149 -36,-21 -76,-36 -117,-36 -56,0 -109,29 -109,91 0,72 56,121 103,149 36,21 76,36 117,36 z"
         transform="matrix(0.004,0,0,-0.004,48.6485,3.3331)" />
    </a>
    <rect
       style="fill:currentColor"
       id="rect28"
       ry="0.039999999"
       height="3.1314001"
       width="0.13"
       y="4.1590104"
       x="45.821098" />
    <a
       transform="translate(0,1.1381105)"
       id="a32"
       xlink:href="textedit:///home/seb/wip/music-stickers/rickroll.ly:24:13:14"
       style="color:inherit">
      <path
         style="fill:currentColor"
         inkscape:connector-curvature="0"
         id="path30"
         d="m 220,138 c 56,0 109,-29 109,-91 0,-72 -56,-121 -103,-149 -36,-21 -76,-36 -117,-36 -56,0 -109,29 -109,91 0,72 56,121 103,149 36,21 76,36 117,36 z"
         transform="matrix(0.004,0,0,-0.004,45.8211,2.8331)" />
    </a>
    <path
       style="fill:currentColor;stroke-width:0.004"
       inkscape:connector-curvature="0"
       id="path34"
       d="m 40.6035,4.9712105 c 0,-0.124 0.1,-0.224 0.224,-0.224 0.124,0 0.224,0.1 0.224,0.224 0,0.124 -0.1,0.224 -0.224,0.224 -0.124,0 -0.224,-0.1 -0.224,-0.224 z" />
    <a
       transform="translate(0,1.1381105)"
       id="a38"
       xlink:href="textedit:///home/seb/wip/music-stickers/rickroll.ly:24:9:10"
       style="color:inherit">
      <path
         style="fill:currentColor"
         inkscape:connector-curvature="0"
         id="path36"
         d="m 220,138 c 56,0 109,-29 109,-91 0,-72 -56,-121 -103,-149 -36,-21 -76,-36 -117,-36 -56,0 -109,29 -109,91 0,72 56,121 103,149 36,21 76,36 117,36 z"
         transform="matrix(0.004,0,0,-0.004,38.8374,3.8331)" />
    </a>
    <polygon
       style="fill:currentColor;stroke:currentColor;stroke-width:0.08;stroke-linecap:round;stroke-linejoin:round"
       id="polygon40"
       points="0.04,0.2 0.04,-0.2 8.3221,0.99 8.3221,1.39 "
       transform="translate(45.8211,6.4712105)" />
    <polygon
       style="fill:currentColor;stroke:currentColor;stroke-width:0.08;stroke-linecap:round;stroke-linejoin:round"
       id="polygon42"
       points="0.04,0.2 0.04,-0.2 8.3221,0.99 8.3221,1.39 "
       transform="translate(45.8211,7.2812105)" />
    <rect
       style="fill:currentColor"
       id="rect44"
       ry="0.039999999"
       height="2.3029001"
       width="0.13"
       y="6.1590104"
       x="54.053299" />
    <a
       transform="translate(0,1.1381105)"
       id="a48"
       xlink:href="textedit:///home/seb/wip/music-stickers/rickroll.ly:24:21:22"
       style="color:inherit">
      <path
         style="fill:currentColor"
         inkscape:connector-curvature="0"
         id="path46"
         d="m 220,138 c 56,0 109,-29 109,-91 0,-72 -56,-121 -103,-149 -36,-21 -76,-36 -117,-36 -56,0 -109,29 -109,91 0,72 56,121 103,149 36,21 76,36 117,36 z"
         transform="matrix(0.004,0,0,-0.004,54.0533,4.8331)" />
    </a>
    <rect
       style="fill:currentColor"
       id="rect50"
       ry="0.039999999"
       height="2.9361999"
       width="0.13"
       y="5.1590109"
       x="51.475899" />
    <a
       transform="translate(0,1.1381105)"
       id="a54"
       xlink:href="textedit:///home/seb/wip/music-stickers/rickroll.ly:24:19:20"
       style="color:inherit">
      <path
         style="fill:currentColor"
         inkscape:connector-curvature="0"
         id="path52"
         d="m 220,138 c 56,0 109,-29 109,-91 0,-72 -56,-121 -103,-149 -36,-21 -76,-36 -117,-36 -56,0 -109,29 -109,91 0,72 56,121 103,149 36,21 76,36 117,36 z"
         transform="matrix(0.004,0,0,-0.004,51.4759,3.8331)" />
    </a>
    <rect
       style="fill:currentColor"
       id="rect56"
       ry="0.039999999"
       height="3.3122001"
       width="0.13"
       y="6.1590104"
       x="11.45" />
    <a
       transform="translate(0,1.1381105)"
       id="a60"
       xlink:href="textedit:///home/seb/wip/music-stickers/rickroll.ly:23:8:9"
       style="color:inherit">
      <path
         style="fill:currentColor"
         inkscape:connector-curvature="0"
         id="path58"
         d="m 220,138 c 56,0 109,-29 109,-91 0,-72 -56,-121 -103,-149 -36,-21 -76,-36 -117,-36 -56,0 -109,29 -109,91 0,72 56,121 103,149 36,21 76,36 117,36 z"
         transform="matrix(0.004,0,0,-0.004,18.1838,4.3331)" />
    </a>
    <path
       style="fill:currentColor;stroke-width:0.004"
       inkscape:connector-curvature="0"
       id="path62"
       d="m 13.2162,5.9712105 c 0,-0.124 0.1,-0.224 0.224,-0.224 0.124,0 0.224,0.1 0.224,0.224 0,0.124 -0.1,0.224 -0.224,0.224 -0.124,0 -0.224,-0.1 -0.224,-0.224 z" />
    <path
       style="fill:currentColor;stroke-width:0.004"
       inkscape:connector-curvature="0"
       id="path64"
       d="m 8.6293,8.0176105 h 0.468 c 0,0.192 0.108,0.376 0.288,0.376 0.032,0 0.048,0.02 0.048,0.044 0,0.024 -0.016,0.048 -0.048,0.048 -0.176,0 -0.348,-0.052 -0.524,-0.052 -0.176,0 -0.348,0.052 -0.524,0.052 -0.032,0 -0.048,-0.024 -0.048,-0.048 0,-0.024 0.016,-0.044 0.048,-0.044 0.18,0 0.292,-0.184 0.292,-0.376 z m 0.032,-0.76 c 0.088,-0.056 0.176,-0.116 0.24,-0.2 0.044,-0.06 0.076,-0.132 0.108,-0.2 0.008,-0.016 0.02,-0.024 0.036,-0.024 0.024,0 0.052,0.02 0.052,0.056 v 0.98 h 0.288 c 0.04,0 0.06,0.028 0.06,0.056 0,0.028 -0.02,0.06 -0.06,0.06 h -0.288 v 0.032 h -0.468 v -0.032 h -0.668 c -0.092,0 -0.124,-0.056 -0.124,-0.092 0,-0.012 0.004,-0.02 0.008,-0.024 0.32,-0.372 0.552,-0.828 0.552,-1.32 0,-0.04 0.028,-0.076 0.064,-0.064 0.092,0.028 0.188,0.052 0.284,0.052 0.096,0 0.192,-0.024 0.284,-0.052 0.056,-0.016 0.092,0.036 0.068,0.064 l -1.136,1.32 h 0.668 v -0.524 c 0,-0.032 0.004,-0.068 0.032,-0.088 z" />
    <path
       style="fill:currentColor;stroke-width:0.004"
       inkscape:connector-curvature="0"
       id="path66"
       d="m 8.6293,6.0032105 h 0.468 c 0,0.192 0.108,0.376 0.288,0.376 0.032,0 0.048,0.02 0.048,0.044 0,0.024 -0.016,0.048 -0.048,0.048 -0.176,0 -0.348,-0.052 -0.524,-0.052 -0.176,0 -0.348,0.052 -0.524,0.052 -0.032,0 -0.048,-0.024 -0.048,-0.048 0,-0.024 0.016,-0.044 0.048,-0.044 0.18,0 0.292,-0.184 0.292,-0.376 z m 0.032,-0.76 c 0.088,-0.056 0.176,-0.116 0.24,-0.2 0.044,-0.06 0.076,-0.132 0.108,-0.2 0.008,-0.016 0.02,-0.024 0.036,-0.024 0.024,0 0.052,0.02 0.052,0.056 v 0.98 h 0.288 c 0.04,0 0.06,0.028 0.06,0.056 0,0.028 -0.02,0.06 -0.06,0.06 h -0.288 v 0.032 h -0.468 v -0.032 h -0.668 c -0.092,0 -0.124,-0.056 -0.124,-0.092 0,-0.012 0.004,-0.02 0.008,-0.024 0.32,-0.372 0.552,-0.828 0.552,-1.32 0,-0.04 0.028,-0.076 0.064,-0.064 0.092,0.028 0.188,0.052 0.284,0.052 0.096,0 0.192,-0.024 0.284,-0.052 0.056,-0.016 0.092,0.036 0.068,0.064 l -1.136,1.32 h 0.668 v -0.524 c 0,-0.032 0.004,-0.068 0.032,-0.088 z" />
    <a
       transform="translate(0,1.1381105)"
       id="a68"
       xlink:href="textedit:///home/seb/wip/music-stickers/rickroll.ly:22:4:5"
       style="color:inherit" />
    <path
       style="fill:currentColor;stroke-width:0.004"
       inkscape:connector-curvature="0"
       id="path70"
       d="m 4.7093,10.01121 h -0.024 c -0.432,0 -0.78,-0.3519995 -0.78,-0.7879995 0,-0.232 0.212,-0.412 0.448,-0.412 0.216,0 0.38,0.188 0.38,0.412 0,0.208 -0.172,0.38 -0.38,0.38 -0.044,0 -0.084,-0.008 -0.124,-0.024 0.104,0.156 0.272,0.26 0.468,0.26 h 0.016 z m 0.78,-1.7279995 c 0.272,-0.096 0.452,-0.38 0.452,-0.656 0,-0.36 -0.264,-0.716 -0.692,-0.76 0.096,0.464 0.184,0.924 0.24,1.416 z m -1.548,-0.924 c 0,0.54 0.516,0.988 1.056,0.988 0.112,0 0.22,-0.008 0.328,-0.024 -0.056,-0.508 -0.148,-0.98 -0.252,-1.456 -0.316,0.032 -0.496,0.244 -0.496,0.476 0,0.176 0.1,0.364 0.324,0.492 0.02,0.02 0.028,0.04 0.028,0.06 0,0.044 -0.04,0.088 -0.088,0.088 -0.012,0 -0.024,-0.004 -0.036,-0.008 -0.32,-0.172 -0.468,-0.46 -0.468,-0.74 0,-0.352 0.232,-0.696 0.64,-0.788 -0.056,-0.232 -0.116,-0.468 -0.184,-0.7 -0.428,0.484 -0.852,0.972 -0.852,1.612 z m 1.044,1.16 c -0.752,0 -1.332,-0.688 -1.332,-1.496 0,-0.708 0.524,-1.224 0.992,-1.764 -0.076,-0.248 -0.148,-0.5 -0.18,-0.76 -0.024,-0.208 -0.028,-0.416 -0.028,-0.624 0,-0.46 0.22,-0.896 0.596,-1.168 0.024,-0.02 0.056,-0.02 0.08,0 0.284,0.336 0.532,0.98 0.532,1.432 0,0.572 -0.344,1.02 -0.72,1.456 0.084,0.272 0.156,0.552 0.224,0.828 0.016,0 0.036,-0.004 0.052,-0.004 0.62,0 1.024,0.512 1.024,1.044 0,0.304 -0.132,0.616 -0.428,0.84 -0.088,0.068 -0.188,0.112 -0.292,0.144 0.012,0.14 0.02,0.28 0.02,0.42 0,0.076 -0.004,0.156 -0.008,0.232 -0.028,0.476 -0.352,0.9 -0.808,0.9119995 l 0.004,-0.1719995 c 0.372,-0.008 0.612,-0.368 0.636,-0.764 0.004,-0.072 0.008,-0.148 0.008,-0.22 0,-0.124 -0.004,-0.244 -0.016,-0.368 -0.116,0.02 -0.232,0.032 -0.356,0.032 z m 0.372,-4.712 c 0,-0.22 -0.016,-0.316 -0.08,-0.516 -0.396,0.192 -0.648,0.596 -0.648,1.036 0,0.296 0.072,0.532 0.144,0.776 0.32,-0.388 0.584,-0.792 0.584,-1.296 z" />
    <a
       transform="translate(0,1.1381105)"
       id="a74"
       xlink:href="textedit:///home/seb/wip/music-stickers/rickroll.ly:23:4:5"
       style="color:inherit">
      <path
         style="fill:currentColor"
         inkscape:connector-curvature="0"
         id="path72"
         d="m 220,138 c 56,0 109,-29 109,-91 0,-72 -56,-121 -103,-149 -36,-21 -76,-36 -117,-36 -56,0 -109,29 -109,91 0,72 56,121 103,149 36,21 76,36 117,36 z"
         transform="matrix(0.004,0,0,-0.004,11.45,4.8331)" />
    </a>
    <a
       transform="translate(0,1.1381105)"
       id="a78"
       xlink:href="textedit:///home/seb/wip/music-stickers/rickroll.ly:24:22:23"
       style="color:inherit">
      <path
         style="fill:currentColor;stroke:currentColor;stroke-width:0.08;stroke-linecap:round;stroke-linejoin:round"
         inkscape:connector-curvature="0"
         id="path76"
         d="m 0.858089,-1.225 c 0.4110989,-0.5044384 1.1930368,-0.5044384 1.6041356,0 -0.4110988,-0.3844384 -1.1930367,-0.3844384 -1.6041356,0 z"
         transform="translate(54.0533,5.3331)" />
    </a>
    <rect
       style="fill:currentColor"
       id="rect80"
       ry="0.039999999"
       height="3.3122001"
       width="0.13"
       y="5.6590104"
       x="32.1036" />
    <path
       style="fill:currentColor;stroke-width:0.004"
       inkscape:connector-curvature="0"
       id="path82"
       d="m 33.8698,4.9712105 c 0,-0.124 0.1,-0.224 0.224,-0.224 0.124,0 0.224,0.1 0.224,0.224 0,0.124 -0.1,0.224 -0.224,0.224 -0.124,0 -0.224,-0.1 -0.224,-0.224 z" />
    <a
       transform="translate(0,1.1381105)"
       id="a86"
       xlink:href="textedit:///home/seb/wip/music-stickers/rickroll.ly:24:4:5"
       style="color:inherit">
      <path
         style="fill:currentColor"
         inkscape:connector-curvature="0"
         id="path84"
         d="m 220,138 c 56,0 109,-29 109,-91 0,-72 -56,-121 -103,-149 -36,-21 -76,-36 -117,-36 -56,0 -109,29 -109,91 0,72 56,121 103,149 36,21 76,36 117,36 z"
         transform="matrix(0.004,0,0,-0.004,32.1036,4.3331)" />
    </a>
    <path
       style="fill:currentColor;stroke-width:0.004"
       inkscape:connector-curvature="0"
       id="path88"
       d="m 19.95,4.9712105 c 0,-0.124 0.1,-0.224 0.224,-0.224 0.124,0 0.224,0.1 0.224,0.224 0,0.124 -0.1,0.224 -0.224,0.224 -0.124,0 -0.224,-0.1 -0.224,-0.224 z" />
    <rect
       style="fill:currentColor"
       id="rect90"
       ry="0.039999999"
       height="3.3122001"
       width="0.13"
       y="3.9712105"
       x="25.8717" />
    <a
       transform="translate(0,1.1381105)"
       id="a94"
       xlink:href="textedit:///home/seb/wip/music-stickers/rickroll.ly:23:10:11"
       style="color:inherit">
      <path
         style="fill:currentColor"
         inkscape:connector-curvature="0"
         id="path92"
         d="m 220,138 c 56,0 109,-29 109,-91 0,-72 -56,-121 -103,-149 -36,-21 -76,-36 -117,-36 -56,0 -109,29 -109,91 0,72 56,121 103,149 36,21 76,36 117,36 z"
         transform="matrix(0.004,0,0,-0.004,24.6855,6.3331)" />
    </a>
    <rect
       style="fill:currentColor"
       id="rect96"
       ry="0.039999999"
       height="3.3122001"
       width="0.13"
       y="5.6590104"
       x="18.1838" />
    <line
       style="stroke:currentColor;stroke-width:0.1;stroke-linecap:round;stroke-linejoin:round"
       id="line98"
       y2="17.746012"
       x2="56.855499"
       y1="17.746012"
       x1="2.8952999" />
    <line
       style="stroke:currentColor;stroke-width:0.1;stroke-linecap:round;stroke-linejoin:round"
       id="line100"
       y2="16.74601"
       x2="56.855499"
       y1="16.74601"
       x1="2.8952999" />
    <line
       style="stroke:currentColor;stroke-width:0.1;stroke-linecap:round;stroke-linejoin:round"
       id="line102"
       y2="15.74601"
       x2="56.855499"
       y1="15.74601"
       x1="2.8952999" />
    <line
       style="stroke:currentColor;stroke-width:0.1;stroke-linecap:round;stroke-linejoin:round"
       id="line104"
       y2="14.74601"
       x2="56.855499"
       y1="14.74601"
       x1="2.8952999" />
    <line
       style="stroke:currentColor;stroke-width:0.1;stroke-linecap:round;stroke-linejoin:round"
       id="line106"
       y2="13.74601"
       x2="56.855499"
       y1="13.74601"
       x1="2.8952999" />
    <rect
       style="fill:currentColor"
       id="rect108"
       ry="0.0000"
       height="4"
       width="0.19"
       y="13.74601"
       x="56.7155" />
    <rect
       style="fill:currentColor"
       id="rect110"
       ry="0.0000"
       height="4"
       width="0.19"
       y="13.74601"
       x="24.8542" />
    <rect
       style="fill:currentColor"
       id="rect112"
       ry="0.039999999"
       height="3.8122001"
       width="0.13"
       y="15.43381"
       x="48.081299" />
    <a
       transform="translate(0,1.1381105)"
       id="a116"
       xlink:href="textedit:///home/seb/wip/music-stickers/rickroll.ly:27:17:18"
       style="color:inherit">
      <path
         style="fill:currentColor"
         inkscape:connector-curvature="0"
         id="path114"
         d="m 220,138 c 56,0 109,-29 109,-91 0,-72 -56,-121 -103,-149 -36,-21 -76,-36 -117,-36 -56,0 -109,29 -109,91 0,72 56,121 103,149 36,21 76,36 117,36 z"
         transform="matrix(0.004,0,0,-0.004,44.8982,15.1079)" />
    </a>
    <rect
       style="fill:currentColor"
       id="rect118"
       ry="0.039999999"
       height="2.8122001"
       width="0.13"
       y="16.433811"
       x="44.898201" />
    <a
       transform="translate(0,1.1381105)"
       id="a122"
       xlink:href="textedit:///home/seb/wip/music-stickers/rickroll.ly:27:19:20"
       style="color:inherit">
      <path
         style="fill:currentColor"
         inkscape:connector-curvature="0"
         id="path120"
         d="m 220,138 c 56,0 109,-29 109,-91 0,-72 -56,-121 -103,-149 -36,-21 -76,-36 -117,-36 -56,0 -109,29 -109,91 0,72 56,121 103,149 36,21 76,36 117,36 z"
         transform="matrix(0.004,0,0,-0.004,48.0813,14.1079)" />
    </a>
    <a
       transform="translate(0,1.1381105)"
       id="a126"
       xlink:href="textedit:///home/seb/wip/music-stickers/rickroll.ly:27:8:9"
       style="color:inherit">
      <path
         style="fill:currentColor"
         inkscape:connector-curvature="0"
         id="path124"
         d="m -23,-116 c 0,28 11,42 40,42 33,0 78,-13 119,-31 L 4,53 c -7,9 -10,17 -10,25 0,34 50,66 87,99 25,22 37,52 37,83 0,24 -8,49 -25,69 l -35,42 c -3,3 -4,7 -4,10 0,9 9,15 17,15 4,0 8,-1 11,-5 L 233,211 c 7,-9 10,-17 10,-25 0,-34 -50,-66 -87,-99 -25,-22 -37,-52 -37,-83 0,-24 7,-49 24,-69 l 84,-99 c 3,-3 4,-7 4,-10 0,-9 -8,-16 -16,-16 -4,0 -9,2 -12,6 -18,21 -63,38 -97,38 -41,0 -53,-26 -53,-67 0,-35 11,-74 28,-94 7,-8 -5,-19 -12,-11 -45,54 -92,148 -92,202 z"
         transform="matrix(0.004,0,0,-0.004,33.2134,14.6079)" />
    </a>
    <rect
       style="fill:currentColor"
       id="rect128"
       ry="0.039999999"
       height="2.8122001"
       width="0.13"
       y="13.74601"
       x="43.133499" />
    <a
       transform="translate(0,1.1381105)"
       id="a132"
       xlink:href="textedit:///home/seb/wip/music-stickers/rickroll.ly:27:15:16"
       style="color:inherit">
      <path
         style="fill:currentColor"
         inkscape:connector-curvature="0"
         id="path130"
         d="m 220,138 c 56,0 109,-29 109,-91 0,-72 -56,-121 -103,-149 -36,-21 -76,-36 -117,-36 -56,0 -109,29 -109,91 0,72 56,121 103,149 36,21 76,36 117,36 z"
         transform="matrix(0.004,0,0,-0.004,41.9473,15.6079)" />
    </a>
    <rect
       style="fill:currentColor"
       id="rect134"
       ry="0.039999999"
       height="2.8122001"
       width="0.13"
       y="13.74601"
       x="40.200401" />
    <a
       transform="translate(0,1.1381105)"
       id="a138"
       xlink:href="textedit:///home/seb/wip/music-stickers/rickroll.ly:27:11:12"
       style="color:inherit">
      <path
         style="fill:currentColor"
         inkscape:connector-curvature="0"
         id="path136"
         d="m 220,138 c 56,0 109,-29 109,-91 0,-72 -56,-121 -103,-149 -36,-21 -76,-36 -117,-36 -56,0 -109,29 -109,91 0,72 56,121 103,149 36,21 76,36 117,36 z"
         transform="matrix(0.004,0,0,-0.004,39.0142,15.6079)" />
    </a>
    <a
       transform="translate(0,1.1381105)"
       id="a142"
       xlink:href="textedit:///home/seb/wip/music-stickers/rickroll.ly:26:13:14"
       style="color:inherit">
      <path
         style="fill:currentColor;stroke:currentColor;stroke-width:0.08;stroke-linecap:round;stroke-linejoin:round"
         inkscape:connector-curvature="0"
         id="path140"
         d="m 0.858089,1.75 c 1.0756073,0.895086 6.1386053,0.895086 7.2142127,0 -1.0756074,0.775086 -6.1386054,0.775086 -7.2142127,0 z"
         transform="translate(18.4863,14.6079)" />
    </a>
    <polygon
       style="fill:currentColor;stroke:currentColor;stroke-width:0.08;stroke-linecap:round;stroke-linejoin:round"
       id="polygon144"
       points="0.04,0.2 0.04,-0.2 3.0231,-0.2 3.0231,0.2 "
       transform="translate(40.2004,13.74601)" />
    <polygon
       style="fill:currentColor;stroke:currentColor;stroke-width:0.08;stroke-linecap:round;stroke-linejoin:round"
       id="polygon146"
       points="0.04,0.2 0.04,-0.2 3.0231,-0.2 3.0231,0.2 "
       transform="translate(40.2004,14.55601)" />
    <polygon
       style="fill:currentColor;stroke:currentColor;stroke-width:0.08;stroke-linecap:round;stroke-linejoin:round"
       id="polygon148"
       points="0.04,0.2 0.04,-0.2 9.1393,-0.2 9.1393,0.2 "
       transform="translate(44.8982,18.43601)" />
    <polygon
       style="fill:currentColor;stroke:currentColor;stroke-width:0.08;stroke-linecap:round;stroke-linejoin:round"
       id="polygon150"
       points="0.04,0.2 0.04,-0.2 9.1393,-0.2 9.1393,0.2 "
       transform="translate(44.8982,19.24601)" />
    <rect
       style="fill:currentColor"
       id="rect152"
       ry="0.039999999"
       height="3.8122001"
       width="0.13"
       y="15.43381"
       x="53.947601" />
    <a
       transform="translate(0,1.1381105)"
       id="a156"
       xlink:href="textedit:///home/seb/wip/music-stickers/rickroll.ly:27:23:24"
       style="color:inherit">
      <path
         style="fill:currentColor"
         inkscape:connector-curvature="0"
         id="path154"
         d="m 220,138 c 56,0 109,-29 109,-91 0,-72 -56,-121 -103,-149 -36,-21 -76,-36 -117,-36 -56,0 -109,29 -109,91 0,72 56,121 103,149 36,21 76,36 117,36 z"
         transform="matrix(0.004,0,0,-0.004,53.9476,14.1079)" />
    </a>
    <rect
       style="fill:currentColor"
       id="rect158"
       ry="0.039999999"
       height="2.8122001"
       width="0.13"
       y="16.433811"
       x="50.7644" />
    <a
       transform="translate(0,1.1381105)"
       id="a162"
       xlink:href="textedit:///home/seb/wip/music-stickers/rickroll.ly:27:21:22"
       style="color:inherit">
      <path
         style="fill:currentColor"
         inkscape:connector-curvature="0"
         id="path160"
         d="m 220,138 c 56,0 109,-29 109,-91 0,-72 -56,-121 -103,-149 -36,-21 -76,-36 -117,-36 -56,0 -109,29 -109,91 0,72 56,121 103,149 36,21 76,36 117,36 z"
         transform="matrix(0.004,0,0,-0.004,50.7644,15.1079)" />
    </a>
    <rect
       style="fill:currentColor"
       id="rect164"
       ry="0.039999999"
       height="3.3122001"
       width="0.13"
       y="14.93381"
       x="11.6056" />
    <path
       style="fill:currentColor;stroke-width:0.004"
       inkscape:connector-curvature="0"
       id="path166"
       d="m 13.3717,14.24601 c 0,-0.124 0.1,-0.224 0.224,-0.224 0.124,0 0.224,0.1 0.224,0.224 0,0.124 -0.1,0.224 -0.224,0.224 -0.124,0 -0.224,-0.1 -0.224,-0.224 z" />
    <a
       transform="translate(0,1.1381105)"
       id="a170"
       xlink:href="textedit:///home/seb/wip/music-stickers/rickroll.ly:26:8:9"
       style="color:inherit">
      <path
         style="fill:currentColor"
         inkscape:connector-curvature="0"
         id="path168"
         d="m 220,138 c 56,0 109,-29 109,-91 0,-72 -56,-121 -103,-149 -36,-21 -76,-36 -117,-36 -56,0 -109,29 -109,91 0,72 56,121 103,149 36,21 76,36 117,36 z"
         transform="matrix(0.004,0,0,-0.004,11.6056,13.6079)" />
    </a>
    <rect
       style="fill:currentColor"
       id="rect172"
       ry="0.039999999"
       height="3.3122001"
       width="0.13"
       y="15.43381"
       x="4.4927001" />
    <path
       style="fill:currentColor;stroke-width:0.004"
       inkscape:connector-curvature="0"
       id="path174"
       d="m 6.2589,15.24601 c 0,-0.124 0.1,-0.224 0.224,-0.224 0.124,0 0.224,0.1 0.224,0.224 0,0.124 -0.1,0.224 -0.224,0.224 -0.124,0 -0.224,-0.1 -0.224,-0.224 z" />
    <a
       transform="translate(0,1.1381105)"
       id="a178"
       xlink:href="textedit:///home/seb/wip/music-stickers/rickroll.ly:26:4:5"
       style="color:inherit">
      <path
         style="fill:currentColor"
         inkscape:connector-curvature="0"
         id="path176"
         d="m 220,138 c 56,0 109,-29 109,-91 0,-72 -56,-121 -103,-149 -36,-21 -76,-36 -117,-36 -56,0 -109,29 -109,91 0,72 56,121 103,149 36,21 76,36 117,36 z"
         transform="matrix(0.004,0,0,-0.004,4.4927,14.1079)" />
    </a>
    <a
       transform="translate(0,1.1381105)"
       id="a182"
       xlink:href="textedit:///home/seb/wip/music-stickers/rickroll.ly:24:22:23"
       style="color:inherit">
      <path
         style="fill:currentColor;stroke:currentColor;stroke-width:0.08;stroke-linecap:round;stroke-linejoin:round"
         inkscape:connector-curvature="0"
         id="path180"
         d="m 0.2,-1.225 c 0.47018155,-0.5589603 1.4353554,-0.5589603 1.905537,0 C 1.6353554,-1.6639603 0.67018155,-1.6639603 0.2,-1.225 Z"
         transform="translate(2.8453,14.6079)" />
    </a>
    <rect
       style="fill:currentColor"
       id="rect184"
       ry="0.039999999"
       height="3.3122001"
       width="0.13"
       y="13.24601"
       x="27.286699" />
    <path
       style="fill:currentColor;stroke-width:0.004"
       inkscape:connector-curvature="0"
       id="path186"
       d="m 27.8667,16.24601 c 0,-0.124 0.1,-0.224 0.224,-0.224 0.124,0 0.224,0.1 0.224,0.224 0,0.124 -0.1,0.224 -0.224,0.224 -0.124,0 -0.224,-0.1 -0.224,-0.224 z" />
    <a
       transform="translate(0,1.1381105)"
       id="a190"
       xlink:href="textedit:///home/seb/wip/music-stickers/rickroll.ly:26:10:11"
       style="color:inherit">
      <path
         style="fill:currentColor"
         inkscape:connector-curvature="0"
         id="path188"
         d="m 220,138 c 56,0 109,-29 109,-91 0,-72 -56,-121 -103,-149 -36,-21 -76,-36 -117,-36 -56,0 -109,29 -109,91 0,72 56,121 103,149 36,21 76,36 117,36 z"
         transform="matrix(0.004,0,0,-0.004,18.4863,15.6079)" />
    </a>
    <rect
       style="fill:currentColor"
       id="rect192"
       ry="0.039999999"
       height="3.3122001"
       width="0.13"
       y="13.24601"
       x="19.672501" />
    <a
       transform="translate(0,1.1381105)"
       id="a196"
       xlink:href="textedit:///home/seb/wip/music-stickers/rickroll.ly:27:4:5"
       style="color:inherit">
      <path
         style="fill:currentColor"
         inkscape:connector-curvature="0"
         id="path194"
         d="m 220,138 c 56,0 109,-29 109,-91 0,-72 -56,-121 -103,-149 -36,-21 -76,-36 -117,-36 -56,0 -109,29 -109,91 0,72 56,121 103,149 36,21 76,36 117,36 z"
         transform="matrix(0.004,0,0,-0.004,26.1006,15.6079)" />
    </a>
    <text
       y="20.486012"
       x="29.875401"
       style="font-size:2.20009995px;font-family:'Century Schoolbook L';text-anchor:start;fill:currentColor"
       id="text200"
       font-size="2.2001">
      <tspan
         id="tspan198" />
    </text>
  </g>
</svg>
