<?xml version="1.0" encoding="UTF-8" standalone="no"?>
<svg
   xmlns:dc="http://purl.org/dc/elements/1.1/"
   xmlns:cc="http://creativecommons.org/ns#"
   xmlns:rdf="http://www.w3.org/1999/02/22-rdf-syntax-ns#"
   xmlns:svg="http://www.w3.org/2000/svg"
   xmlns="http://www.w3.org/2000/svg"
   xmlns:xlink="http://www.w3.org/1999/xlink"
   xmlns:sodipodi="http://sodipodi.sourceforge.net/DTD/sodipodi-0.dtd"
   xmlns:inkscape="http://www.inkscape.org/namespaces/inkscape"
   width="1000"
   height="800"
   viewBox="0 0 264.583 211.667"
   version="1.1"
   id="svg16"
   sodipodi:docname="spaceapi-plain-dark.svg"
   inkscape:version="0.92.4 5da689c313, 2019-01-14">
  <metadata
     id="metadata20">
    <rdf:RDF>
      <cc:Work
         rdf:about="">
        <dc:format>image/svg+xml</dc:format>
        <dc:type
           rdf:resource="http://purl.org/dc/dcmitype/StillImage" />
        <dc:title></dc:title>
      </cc:Work>
    </rdf:RDF>
  </metadata>
  <sodipodi:namedview
     pagecolor="#ffffff"
     bordercolor="#666666"
     borderopacity="1"
     objecttolerance="10"
     gridtolerance="10"
     guidetolerance="10"
     inkscape:pageopacity="0"
     inkscape:pageshadow="2"
     inkscape:window-width="2550"
     inkscape:window-height="1366"
     id="namedview18"
     showgrid="false"
     inkscape:zoom="0.70710678"
     inkscape:cx="338.70844"
     inkscape:cy="544.11013"
     inkscape:window-x="632"
     inkscape:window-y="2192"
     inkscape:window-maximized="0"
     inkscape:current-layer="svg16" />
  <defs
     id="defs8">
    <inkscape:path-effect
       effect="spiro"
       id="path-effect1070"
       is_visible="true" />
    <linearGradient
       id="a">
      <stop
         offset="0"
         stop-color="#044682"
         id="stop2" />
      <stop
         offset="1"
         stop-color="#022850"
         id="stop4" />
    </linearGradient>
    <linearGradient
       xlink:href="#linearGradient10312"
       id="b"
       gradientUnits="userSpaceOnUse"
       gradientTransform="matrix(19.62344,0,0,19.62344,-33626.237,-15370.754)"
       x1="1720.965"
       y1="790.89398"
       x2="1721.025"
       y2="786.828" />
    <linearGradient
       id="linearGradient10326">
      <stop
         id="stop10322"
         stop-color="#044682"
         offset="0"
         style="stop-color:#187cd6;stop-opacity:1" />
      <stop
         id="stop10324"
         stop-color="#022850"
         offset="1"
         style="stop-color:#0b447f;stop-opacity:1" />
    </linearGradient>
    <linearGradient
       id="linearGradient10312">
      <stop
         style="stop-color:#0b74d4;stop-opacity:1"
         offset="0"
         stop-color="#044682"
         id="stop10308" />
      <stop
         style="stop-color:#0d457c;stop-opacity:1"
         offset="1"
         stop-color="#022850"
         id="stop10310" />
    </linearGradient>
    <linearGradient
       id="a-6">
      <stop
         id="stop9732"
         stop-opacity=".478"
         offset="0" />
      <stop
         id="stop9734"
         stop-opacity="0"
         offset="1" />
    </linearGradient>
    <linearGradient
       y2="757.012"
       x2="1632.318"
       y1="769.624"
       x1="1632.411"
       gradientTransform="matrix(5.55606,0,0,5.55606,-9003.808,-4176.388)"
       gradientUnits="userSpaceOnUse"
       id="d"
       xlink:href="#linearGradient10312" />
    <linearGradient
       inkscape:collect="always"
       xlink:href="#linearGradient10312"
       id="linearGradient948"
       gradientUnits="userSpaceOnUse"
       gradientTransform="matrix(19.62344,0,0,19.62344,-33626.237,-15370.754)"
       x1="1720.965"
       y1="790.89398"
       x2="1721.025"
       y2="786.828" />
  </defs>
  <path
     id="path1091"
     d="m 179.136,76.093 v -4.784 h 11.615 v -5.53 h -11.614 v -4.407 h 13.187 v -5.715 h -20.51 v 26.15 h 20.997 v -5.715 z m -20.731,6.237 c 4.824,0 8.709,-1.759 11.247,-4.931 l -4.709,-4.262 c -1.64,1.98 -3.658,3.067 -6.161,3.067 -4.298,0 -7.284,-2.991 -7.284,-7.474 0,-4.482 2.986,-7.468 7.284,-7.468 2.503,0 4.518,1.08 6.161,3.06 l 4.71,-4.256 c -2.543,-3.177 -6.424,-4.931 -11.243,-4.931 -8.293,0 -14.385,5.639 -14.385,13.6 0,7.95 6.092,13.595 14.385,13.595 z m -21.29,-0.523 h 7.694 L 133.23,55.657 h -7.282 l -11.545,26.15 h 7.544 l 2.056,-5.082 h 11.057 z m -10.94,-10.534 3.356,-8.372 3.367,8.372 z M 104.804,55.657 H 92.847 v 26.15 h 7.399 v -6.836 h 4.558 c 7.132,0 11.62,-3.698 11.62,-9.638 0,-5.98 -4.488,-9.676 -11.62,-9.676 z m -0.448,13.485 h -4.11 v -7.66 h 4.11 c 3.062,0 4.595,1.419 4.595,3.85 0,2.393 -1.533,3.81 -4.595,3.81 z M 79.026,82.33 c 7.771,0 11.58,-3.885 11.58,-8.444 0,-9.64 -14.831,-6.65 -14.831,-10.645 0,-1.311 1.12,-2.356 4.222,-2.356 2.277,0 4.74,0.673 7.247,2.02 l 2.277,-5.493 c -2.577,-1.493 -6.087,-2.277 -9.489,-2.277 -7.77,0 -11.579,3.81 -11.579,8.479 0,9.71 14.866,6.688 14.866,10.83 0,1.272 -1.196,2.132 -4.256,2.132 -3.060234,-0.0423 -6.048339,-0.935271 -8.63,-2.579 l -2.428,5.454 c 2.463,1.718 6.725,2.879 11.022,2.879 z m 9.8,10.273 -0.044,0.06 c -3.680193,1.549752 -6.984433,3.872166 -9.689,6.81 -2.937,3.189 -5.116,7.11 -6.065,11.34 -0.87026,3.90936 -0.690859,7.97937 0.52,11.797 -3.004268,5.17395 -5.043072,10.85088 -6.017,16.754 -0.892971,5.4531 -0.864238,11.01741 0.085,16.461 l 9.949,0.071 c 0.414539,-5.87289 2.747549,-11.44682 6.64,-15.864 1.518157,0.39617 3.07507,0.62519 4.643,0.683 h 0.044 c 1.56928,-0.0574 3.127559,-0.28647 4.647,-0.683 3.896183,4.41399 6.228246,9.98949 6.635,15.863 l 9.955,-0.071 c 0.95014,-5.4432 0.97853,-11.00739 0.084,-16.46 -0.97469,-5.90336 -3.01452,-11.58034 -6.02,-16.754 1.21195,-3.81738 1.39204,-7.8875 0.522,-11.797 -0.952,-4.23 -3.128,-8.15 -6.064,-11.34 -2.704071,-2.937952 -6.008014,-5.260398 -9.688,-6.81 l -0.045,-0.065 c 0,0.013 -0.044,0.013 -0.053,0.022 0,-0.013 -0.044,-0.013 -0.044,-0.017 z m 0.265,16.665 c 3.74803,-0.0484 6.813086,2.9751 6.815871,6.72344 0.0028,3.74834 -3.057773,6.77638 -6.805871,6.73356 -3.684089,-0.0435 -6.648137,-3.04169 -6.649506,-6.72603 -0.0014,-3.68434 2.96045,-6.68471 6.644506,-6.73097 z m -3.34,35.629 c -1.062644,1.58219 -1.883655,3.31387 -2.436,5.138 -0.93,3.066 -1.081,6.335 -0.696,9.506 0.682986,5.5455 2.936455,10.78035 6.495,15.088 3.311003,-4.31938 5.395248,-9.45209 6.033,-14.857 0.369719,-2.88334 0.214894,-5.80977 -0.457,-8.638 -0.552947,-2.20138 -1.473912,-4.2935 -2.724,-6.188 -2.05685,0.36481 -4.163286,0.34786 -6.214,-0.05 z m 89.514,10.733 h 17.497 V 93.767 H 175.265 Z M 118.812,93.767 v 61.863 h 17.497 v -16.17 h 4.872 c 16.882,0 27.488,-8.753 27.488,-22.803 0,-14.14 -10.606,-22.885 -27.482,-22.885 z m 23.553,9.21 h 0.331 l 3.208,9.546 9.648,3.314 v 0.332 l -9.546,3.26 -3.31,9.6 h -0.332 l -3.362,-9.546 -9.492,-3.314 v -0.332 l 9.541,-3.366 z"
     style="font-weight:800;line-height:100%;font-family:Montserrat;-inkscape-font-specification:'Montserrat Ultra-Bold';font-variant-ligatures:discretionary-ligatures historical-ligatures;font-variant-caps:normal;font-variant-numeric:lining-nums tabular-nums slashed-zero;font-feature-settings:normal;text-align:end;letter-spacing:-0.257;text-anchor:end;fill:url(#linearGradient948);fill-opacity:1;stroke:none;stroke-width:8.46668"
     font-weight="800"
     letter-spacing="-.257"
     inkscape:connector-curvature="0"
     sodipodi:nodetypes="ccccccccccccccccsssccsscccccccccccccccsccccssssccssscsssccssscccccccccccccccccccccccccccccscsccccccccccccccccccccssccccccccccccccc" />
  <path
     d="M0 0h264.583v211.667H0z"
     fill="#fff"
     fill-opacity=".999"
     id="path10"
     style="fill:#000000;fill-opacity:1" />
  <path
     style="opacity:1;fill:#f2f2f2;fill-opacity:1;fill-rule:nonzero;stroke:none;stroke-width:20.9444046;stroke-linecap:round;stroke-linejoin:round;stroke-miterlimit:4;stroke-dasharray:none;stroke-dashoffset:0;stroke-opacity:1"
     d="M 302.48047 198.38086 C 286.16254 198.38086 272.86724 202.3757 263.34961 209.97656 C 253.83198 217.57743 248.71875 228.88509 248.71875 240.42773 C 248.71875 251.89783 253.8157 261.38688 260.75195 267.32812 L 244.5332 303.76367 L 251.31055 308.48828 C 263.32365 316.8677 280.64056 321.16872 298.67969 321.16992 C 298.68236 321.16992 298.68448 321.16993 298.6875 321.16992 C 315.03561 321.16859 328.34436 317.0812 337.83398 309.47852 C 338.99747 308.54638 339.88708 307.4114 340.91797 306.37695 L 340.91797 319.19336 L 388.88672 319.19336 L 388.88672 293.35547 L 396.11328 293.35547 C 410.80232 293.35547 423.71889 289.58939 433.46484 281.98828 L 417.04102 319.19336 L 467.64453 319.19336 L 475.41602 299.98438 L 503.71875 299.98438 L 511.48438 319.19336 L 518.23242 319.19336 L 562.67773 319.19336 L 557.22266 306.86523 C 568.40229 315.74156 582.71755 321.16502 598.69336 321.16992 C 598.70092 321.16992 598.70924 321.16993 598.7168 321.16992 C 614.30925 321.16539 628.41453 316.62117 639.37695 308.18555 L 639.37695 319.19336 L 738.73633 319.19336 L 738.73633 277.58789 L 730.94922 277.58789 L 730.94922 241.95508 L 736.89844 241.95508 L 736.89844 200.35938 L 639.37695 200.35938 L 639.37695 211.36523 C 628.40485 202.91991 614.30453 198.38086 598.7168 198.38086 C 564.14699 198.38086 536.69583 222.81431 534.72266 256.07031 L 510.05273 200.35938 L 469.51172 200.35938 L 449.82422 244.9375 C 449.30072 231.94837 443.93342 220.24866 434.56641 212.47266 C 424.71278 204.29271 411.31849 200.35938 396.11328 200.35938 L 340.91797 200.35938 L 340.91797 207.39453 C 329.50643 201.40762 315.97233 198.38086 302.48047 198.38086 z M 335.39062 339.35156 L 331.98633 340.71094 C 313.27349 348.19607 301.7734 357.7645 291.52734 369.24805 C 279.35804 382.48141 270.26513 398.77087 266.25781 416.63281 L 266.25 416.64062 L 266.25 416.64844 C 262.90795 431.66149 263.71741 447.15794 267.6543 461.98047 C 256.76351 481.64294 249.02931 502.90684 245.36719 525.10352 L 245.36719 525.11133 C 241.81134 546.82581 241.92714 568.98549 245.70703 590.66211 L 247.13867 598.88477 L 302.18555 599.27539 C 302.31333 600.9044 302.13824 602.58102 302.33398 604.19336 L 302.33398 604.19922 L 302.33398 604.21484 C 305.14822 627.065 314.43668 648.63519 329.09961 666.38477 L 337.10156 676.07031 L 344.75 666.09766 C 358.34298 648.3649 366.89964 627.29615 369.53125 605.10938 C 369.77907 603.17214 369.61691 601.22142 369.75195 599.27734 L 424.65039 598.87891 L 426.08984 590.66211 C 429.8736 568.98546 429.98415 546.82544 426.42188 525.11133 L 426.42188 525.10352 C 422.75721 502.90786 415.01672 481.64841 404.12305 461.98828 C 408.06588 447.16356 408.87314 431.66519 405.53125 416.64844 L 405.53125 416.63281 L 405.53125 416.62695 C 401.5555 398.9617 392.56073 382.88429 380.58789 369.72266 C 375.24352 362.54735 367.40713 356.81934 359.55078 351.6582 C 351.54605 346.39958 344.7283 342.46543 338.86719 340.51172 L 335.39062 339.35156 z M 439.05273 344.39453 L 439.05273 354.39648 L 439.05273 598.20508 L 525.18555 598.20508 L 525.18555 537.08984 L 533.59961 537.08984 C 567.23081 537.08984 595.61178 528.37972 615.84961 511.61523 C 636.08744 494.85079 647.48828 469.97169 647.48828 440.9043 C 647.48828 411.68285 636.10133 386.73435 615.86328 369.92773 C 595.62519 353.12112 567.24197 344.41602 533.62305 344.41602 L 439.05273 344.39453 z M 652.41992 344.39453 L 652.41992 598.20508 L 662.42188 598.20508 L 738.55078 598.20508 L 738.55078 344.39453 L 652.41992 344.39453 z "
     transform="matrix(0.26458375,0,0,0.26458375,-3.75e-4,0)"
     id="rect1072-7" />
  <path
     letter-spacing="-.257"
     font-weight="800"
     style="line-height:100%;-inkscape-font-specification:'Montserrat Ultra-Bold';font-variant-ligatures:discretionary-ligatures historical-ligatures;font-variant-caps:normal;font-variant-numeric:lining-nums tabular-nums slashed-zero;font-feature-settings:normal;text-align:end;fill-opacity:1.0"
     d="M179.136 76.093v-4.784h11.615v-5.53h-11.614v-4.407h13.187v-5.715h-20.51v26.15h20.997v-5.715zm-20.731 6.237c4.824 0 8.709-1.759 11.247-4.931l-4.709-4.262c-1.64 1.98-3.658 3.067-6.161 3.067-4.298 0-7.284-2.991-7.284-7.474 0-4.482 2.986-7.468 7.284-7.468 2.503 0 4.518 1.08 6.161 3.06l4.71-4.256c-2.543-3.177-6.424-4.931-11.243-4.931-8.293 0-14.385 5.639-14.385 13.6 0 7.95 6.092 13.595 14.385 13.595zm-21.29-.523h7.694l-11.579-26.15h-7.282l-11.545 26.15h7.544l2.056-5.082h11.057zm-10.94-10.534l3.356-8.372 3.367 8.372zm-21.371-15.616H92.847v26.15h7.399v-6.836h4.558c7.132 0 11.62-3.698 11.62-9.638 0-5.98-4.488-9.676-11.62-9.676zm-.448 13.485h-4.11v-7.66h4.11c3.062 0 4.595 1.419 4.595 3.85 0 2.393-1.533 3.81-4.595 3.81zM79.026 82.33c7.771 0 11.58-3.885 11.58-8.444 0-9.64-14.831-6.65-14.831-10.645 0-1.311 1.12-2.356 4.222-2.356 2.277 0 4.74.673 7.247 2.02l2.277-5.493c-2.577-1.493-6.087-2.277-9.489-2.277-7.77 0-11.579 3.81-11.579 8.479 0 9.71 14.866 6.688 14.866 10.83 0 1.272-1.196 2.132-4.256 2.132a16.493 16.493 0 0 1-8.63-2.579l-2.428 5.454c2.463 1.718 6.725 2.879 11.022 2.879zm9.8 10.273zm0 0l-.044.06a27.873 27.873 0 0 0-9.689 6.81c-2.937 3.189-5.116 7.11-6.065 11.34a22.703 22.703 0 0 0 .52 11.797 49.37 49.37 0 0 0-6.017 16.754 49.375 49.375 0 0 0 .085 16.461l9.949.071a26.855 26.855 0 0 1 6.64-15.864 21.53 21.53 0 0 0 4.643.683h.044a21.52 21.52 0 0 0 4.647-.683 26.765 26.765 0 0 1 6.635 15.863l9.955-.071a49.304 49.304 0 0 0 .084-16.46 49.362 49.362 0 0 0-6.02-16.754 22.694 22.694 0 0 0 .522-11.797c-.952-4.23-3.128-8.15-6.064-11.34a27.863 27.863 0 0 0-9.688-6.81l-.045-.065c0 .013-.044.013-.053.022 0-.013-.044-.013-.044-.017zm.265 16.665a6.729 6.729 0 1 1 .01 13.457 6.729 6.729 0 0 1-.005-13.457zm-3.34 35.629a19.19 19.19 0 0 0-2.436 5.138c-.93 3.066-1.081 6.335-.696 9.506a29.317 29.317 0 0 0 6.495 15.088 30.247 30.247 0 0 0 6.033-14.857 24.107 24.107 0 0 0-.457-8.638 20.147 20.147 0 0 0-2.724-6.188 17.02 17.02 0 0 1-6.214-.05zm89.514 10.733h17.497V93.767h-17.497zm-56.453-61.863v61.863h17.497v-16.17h4.872c16.882 0 27.488-8.753 27.488-22.803 0-14.14-10.606-22.885-27.482-22.885zm23.553 9.21h.331l3.208 9.546 9.648 3.314v.332l-9.546 3.26-3.31 9.6h-.332l-3.362-9.546-9.492-3.314v-.332l9.541-3.366z"
     font-family="Montserrat"
     text-anchor="end"
     fill="url(#b)"
     id="path12" />
  <path
     style="line-height:100%;-inkscape-font-specification:'Lato Semi-Bold';font-variant-ligatures:discretionary-ligatures historical-ligatures;font-variant-caps:normal;font-variant-numeric:lining-nums tabular-nums slashed-zero;font-feature-settings:normal;text-align:center;fill:#f2f2f2;fill-opacity:1"
     d="M29.986 111.107c3.6 0 6.288 1.081 8.06 3.242 1.719 2.16 2.577 4.986 2.577 8.476 0 2.66-.195 5.32-.581 7.978l-1.33 7.979a187.777 187.777 0 0 0-1.33 8.06 49.436 49.436 0 0 0-.664 8.145c0 4.044.609 7.729 1.828 11.053 1.163 3.38 2.964 6.26 5.4 8.643 2.384 2.438 5.403 4.321 9.06 5.65 3.6 1.33 7.84 1.995 12.715 1.995h4.487v-11.852s-3.166.051-3.887.051h-1.246c-4.045 0-7.175-1.302-9.391-3.906-2.272-2.548-3.408-6.066-3.408-10.554 0-3.047.195-5.983.582-8.809.332-2.826.72-5.596 1.164-8.31.443-2.715.858-5.375 1.246-7.979.333-2.659.499-5.318.499-7.978 0-4.155-1.164-7.784-3.49-10.886-2.328-3.103-5.43-5.208-9.31-6.316a17.647 17.647 0 0 0 5.32-2.327 17.799 17.799 0 0 0 3.989-3.906 17.748 17.748 0 0 0 2.577-4.986c.609-1.884.914-3.851.914-5.9 0-2.66-.164-5.292-.5-7.896-.39-2.66-.802-5.346-1.245-8.061a196.019 196.019 0 0 1-1.164-8.227c-.39-2.826-.582-5.79-.582-8.893 0-4.487 1.136-8.033 3.408-10.637 2.216-2.604 5.346-3.906 9.39-3.906h1.247c.72 0 3.899.106 3.899.106V29.333h-4.488c-4.875 0-9.113.664-12.715 1.994-3.656 1.33-6.676 3.213-9.058 5.65-2.438 2.383-4.238 5.264-5.402 8.644-1.22 3.324-1.828 7.008-1.828 11.053 0 2.77.22 5.512.665 8.227.385 2.66.83 5.319 1.33 7.978.442 2.66.886 5.319 1.329 7.978.385 2.66.58 5.319.58 7.978 0 3.49-.857 6.316-2.575 8.477-1.772 2.16-4.46 3.241-8.061 3.241zm204.607 0c-3.6 0-6.288 1.081-8.061 3.242-1.718 2.16-2.576 4.986-2.576 8.476 0 2.66.195 5.32.582 7.978l1.33 7.979c.498 2.659.94 5.346 1.329 8.06.443 2.66.665 5.375.665 8.145 0 4.044-.61 7.729-1.828 11.053-1.164 3.38-2.964 6.26-5.402 8.643-2.383 2.438-5.402 4.321-9.06 5.65-3.6 1.33-7.84 1.995-12.714 1.995h-4.488v-11.852s3.167.051 3.888.051h1.246c4.045 0 7.175-1.302 9.39-3.906 2.273-2.548 3.408-6.066 3.408-10.554 0-3.047-.195-5.983-.581-8.809a187.08 187.08 0 0 0-1.164-8.31 577.89 577.89 0 0 1-1.247-7.979 64.295 64.295 0 0 1-.498-7.978c0-4.155 1.163-7.784 3.49-10.886 2.327-3.103 5.43-5.208 9.308-6.316a17.649 17.649 0 0 1-5.32-2.327 17.799 17.799 0 0 1-3.988-3.906 17.748 17.748 0 0 1-2.576-4.986 19.058 19.058 0 0 1-.914-5.9c0-2.66.164-5.292.498-7.896.386-2.66.804-5.346 1.247-8.061a197.35 197.35 0 0 0 1.164-8.227c.39-2.826.58-5.79.58-8.893 0-4.487-1.134-8.033-3.406-10.637-2.216-2.604-5.346-3.906-9.39-3.906h-1.247c-.72 0-3.9.106-3.9.106V29.333h4.489c4.875 0 9.113.664 12.715 1.994 3.656 1.33 6.675 3.213 9.058 5.65 2.438 2.383 4.238 5.264 5.402 8.644 1.219 3.324 1.828 7.008 1.828 11.053 0 2.77-.221 5.512-.665 8.227-.385 2.66-.83 5.319-1.33 7.978l-1.33 7.978a55.562 55.562 0 0 0-.581 7.978c0 3.49.859 6.316 2.576 8.477 1.773 2.16 4.46 3.241 8.062 3.241z"
     font-weight="600"
     font-family="Lato"
     text-anchor="middle"
     fill="#010101"
     id="path14" />
</svg>
