<?xml version="1.0" encoding="UTF-8" standalone="no"?>
<svg
   xmlns:dc="http://purl.org/dc/elements/1.1/"
   xmlns:cc="http://creativecommons.org/ns#"
   xmlns:rdf="http://www.w3.org/1999/02/22-rdf-syntax-ns#"
   xmlns:svg="http://www.w3.org/2000/svg"
   xmlns="http://www.w3.org/2000/svg"
   xmlns:xlink="http://www.w3.org/1999/xlink"
   xmlns:sodipodi="http://sodipodi.sourceforge.net/DTD/sodipodi-0.dtd"
   xmlns:inkscape="http://www.inkscape.org/namespaces/inkscape"
   width="500"
   height="500"
   viewBox="0 0 132.292 132.292"
   version="1.1"
   id="svg9751"
   sodipodi:docname="spaceapi-avatar-plain-dark.svg"
   inkscape:version="0.92.4 5da689c313, 2019-01-14">
  <metadata
     id="metadata9755">
    <rdf:RDF>
      <cc:Work
         rdf:about="">
        <dc:format>image/svg+xml</dc:format>
        <dc:type
           rdf:resource="http://purl.org/dc/dcmitype/StillImage" />
        <dc:title></dc:title>
      </cc:Work>
    </rdf:RDF>
  </metadata>
  <sodipodi:namedview
     pagecolor="#ffffff"
     bordercolor="#666666"
     borderopacity="1"
     objecttolerance="10"
     gridtolerance="10"
     guidetolerance="10"
     inkscape:pageopacity="0"
     inkscape:pageshadow="2"
     inkscape:window-width="2550"
     inkscape:window-height="1366"
     id="namedview9753"
     showgrid="false"
     inkscape:zoom="0.6675088"
     inkscape:cx="-134.79919"
     inkscape:cy="115.92806"
     inkscape:window-x="632"
     inkscape:window-y="2192"
     inkscape:window-maximized="0"
     inkscape:current-layer="svg9751" />
  <defs
     id="defs9743">
    <linearGradient
       id="linearGradient10326">
      <stop
         style="stop-color:#187cd6;stop-opacity:1"
         offset="0"
         stop-color="#044682"
         id="stop10322" />
      <stop
         style="stop-color:#0b447f;stop-opacity:1"
         offset="1"
         stop-color="#022850"
         id="stop10324" />
    </linearGradient>
    <linearGradient
       id="linearGradient10312">
      <stop
         id="stop10308"
         stop-color="#044682"
         offset="0"
         style="stop-color:#0b74d4;stop-opacity:1" />
      <stop
         id="stop10310"
         stop-color="#022850"
         offset="1"
         style="stop-color:#0d457c;stop-opacity:1" />
    </linearGradient>
    <linearGradient
       id="b">
      <stop
         offset="0"
         stop-color="#044682"
         id="stop9727" />
      <stop
         offset="1"
         stop-color="#022850"
         id="stop9729" />
    </linearGradient>
    <linearGradient
       id="a">
      <stop
         offset="0"
         stop-opacity=".478"
         id="stop9732" />
      <stop
         offset="1"
         stop-opacity="0"
         id="stop9734" />
    </linearGradient>
    <linearGradient
       xlink:href="#linearGradient10312"
       id="d"
       gradientUnits="userSpaceOnUse"
       gradientTransform="matrix(5.55606,0,0,5.55606,-9003.809,-4176.388)"
       x1="1632.411"
       y1="769.624"
       x2="1632.318"
       y2="757.012" />
    <linearGradient
       id="c">
      <stop
         stop-color="#044682"
         offset="0"
         id="stop9738" />
      <stop
         stop-color="#022850"
         offset="1"
         id="stop9740" />
    </linearGradient>
    <linearGradient
       id="b-36">
      <stop
         id="stop2"
         stop-color="#064d8d"
         offset="0" />
      <stop
         id="stop4"
         stop-color="#01203f"
         offset="1" />
    </linearGradient>
    <filter
       color-interpolation-filters="sRGB"
       height="1.056"
       y="-.028"
       width="1.035"
       x="-.018"
       id="d-7">
      <feGaussianBlur
         id="feGaussianBlur7"
         stdDeviation="1.438" />
    </filter>
    <filter
       color-interpolation-filters="sRGB"
       height="1.056"
       y="-.028"
       width="1.035"
       x="-.018"
       id="e">
      <feGaussianBlur
         id="feGaussianBlur10"
         stdDeviation="1.438" />
    </filter>
    <filter
       color-interpolation-filters="sRGB"
       height="1.056"
       y="-.028"
       width="1.035"
       x="-.018"
       id="f">
      <feGaussianBlur
         id="feGaussianBlur13"
         stdDeviation="1.438" />
    </filter>
    <filter
       color-interpolation-filters="sRGB"
       height="1.056"
       y="-.028"
       width="1.035"
       x="-.018"
       id="g">
      <feGaussianBlur
         id="feGaussianBlur16"
         stdDeviation="1.438" />
    </filter>
    <filter
       color-interpolation-filters="sRGB"
       height="1.056"
       y="-.028"
       width="1.035"
       x="-.018"
       id="h">
      <feGaussianBlur
         id="feGaussianBlur19"
         stdDeviation="1.438" />
    </filter>
    <filter
       color-interpolation-filters="sRGB"
       height="1.056"
       y="-.028"
       width="1.035"
       x="-.018"
       id="i">
      <feGaussianBlur
         id="feGaussianBlur22"
         stdDeviation="1.438" />
    </filter>
    <filter
       color-interpolation-filters="sRGB"
       height="1.056"
       y="-.028"
       width="1.035"
       x="-.018"
       id="j">
      <feGaussianBlur
         id="feGaussianBlur25"
         stdDeviation="1.438" />
    </filter>
    <filter
       color-interpolation-filters="sRGB"
       height="1.056"
       y="-.028"
       width="1.035"
       x="-.018"
       id="k">
      <feGaussianBlur
         id="feGaussianBlur28"
         stdDeviation="1.438" />
    </filter>
    <filter
       color-interpolation-filters="sRGB"
       height="1.056"
       y="-.028"
       width="1.035"
       x="-.018"
       id="l">
      <feGaussianBlur
         id="feGaussianBlur31"
         stdDeviation="1.438" />
    </filter>
    <filter
       color-interpolation-filters="sRGB"
       height="1.056"
       y="-.028"
       width="1.035"
       x="-.018"
       id="m">
      <feGaussianBlur
         id="feGaussianBlur34"
         stdDeviation="1.438" />
    </filter>
    <filter
       color-interpolation-filters="sRGB"
       height="1.056"
       y="-.028"
       width="1.035"
       x="-.018"
       id="n">
      <feGaussianBlur
         id="feGaussianBlur37"
         stdDeviation="1.438" />
    </filter>
    <filter
       color-interpolation-filters="sRGB"
       height="1.056"
       y="-.028"
       width="1.035"
       x="-.018"
       id="o">
      <feGaussianBlur
         id="feGaussianBlur40"
         stdDeviation="1.438" />
    </filter>
    <filter
       color-interpolation-filters="sRGB"
       height="1.056"
       y="-.028"
       width="1.035"
       x="-.018"
       id="p">
      <feGaussianBlur
         id="feGaussianBlur43"
         stdDeviation="1.438" />
    </filter>
    <filter
       color-interpolation-filters="sRGB"
       height="1.056"
       y="-.028"
       width="1.035"
       x="-.018"
       id="q">
      <feGaussianBlur
         id="feGaussianBlur46"
         stdDeviation="1.438" />
    </filter>
    <filter
       color-interpolation-filters="sRGB"
       height="1.056"
       y="-.028"
       width="1.035"
       x="-.018"
       id="r">
      <feGaussianBlur
         id="feGaussianBlur49"
         stdDeviation="1.438" />
    </filter>
    <filter
       color-interpolation-filters="sRGB"
       height="1.056"
       y="-.028"
       width="1.035"
       x="-.018"
       id="s">
      <feGaussianBlur
         id="feGaussianBlur52"
         stdDeviation="1.438" />
    </filter>
    <filter
       color-interpolation-filters="sRGB"
       height="1.056"
       y="-.028"
       width="1.035"
       x="-.018"
       id="t">
      <feGaussianBlur
         id="feGaussianBlur55"
         stdDeviation="1.438" />
    </filter>
    <filter
       color-interpolation-filters="sRGB"
       height="1.056"
       y="-.028"
       width="1.035"
       x="-.018"
       id="u">
      <feGaussianBlur
         id="feGaussianBlur58"
         stdDeviation="1.438" />
    </filter>
    <filter
       color-interpolation-filters="sRGB"
       height="1.056"
       y="-.028"
       width="1.035"
       x="-.018"
       id="v">
      <feGaussianBlur
         id="feGaussianBlur61"
         stdDeviation="1.438" />
    </filter>
    <filter
       color-interpolation-filters="sRGB"
       height="1.056"
       y="-.028"
       width="1.035"
       x="-.018"
       id="w">
      <feGaussianBlur
         id="feGaussianBlur64"
         stdDeviation="1.438" />
    </filter>
    <clipPath
       id="c-5">
      <path
         id="path67"
         stroke-width="4.348"
         fill="url(#a)"
         text-anchor="end"
         font-family="Montserrat"
         letter-spacing="-.257"
         font-weight="800"
         style="line-height:100%;-inkscape-font-specification:'Montserrat Ultra-Bold';font-variant-ligatures:discretionary-ligatures historical-ligatures;font-variant-caps:normal;font-variant-numeric:lining-nums tabular-nums slashed-zero;font-feature-settings:normal;text-align:end;fill:url(#a-3)"
         d="M-206.196 142.443v4.696h11.401v5.427h-11.4v4.327h12.944v5.609h-20.133v-25.668h20.611v5.61zm-20.35-6.122c4.736 0 8.549 1.726 11.04 4.84l-4.622 4.183c-1.609-1.944-3.591-3.01-6.048-3.01-4.218 0-7.149 2.936-7.149 7.336s2.931 7.331 7.149 7.331c2.457 0 4.435-1.06 6.048-3.004l4.623 4.178c-2.496 3.118-6.305 4.84-11.036 4.84-8.14 0-14.12-5.535-14.12-13.35 0-7.804 5.98-13.344 14.12-13.344zm-20.897.513h7.552l-11.366 25.668h-7.148l-11.332-25.668h7.405l2.018 4.988h10.853zm-10.74 10.34l3.295 8.218 3.305-8.218zm-20.977 15.328h-11.736v-25.668h7.262v6.71h4.474c7.001 0 11.406 3.63 11.406 9.461 0 5.87-4.405 9.497-11.406 9.497zm-.439-13.236h-4.035v7.518h4.035c3.005 0 4.51-1.392 4.51-3.779 0-2.348-1.505-3.74-4.51-3.74zm-24.863-12.945c7.627 0 11.366 3.813 11.366 8.288 0 9.462-14.558 6.527-14.558 10.449 0 1.287 1.1 2.313 4.144 2.313 2.235 0 4.653-.661 7.114-1.983l2.235 5.392c-2.53 1.465-5.975 2.235-9.314 2.235-7.627 0-11.366-3.74-11.366-8.323 0-9.531 14.592-6.565 14.592-10.631 0-1.248-1.174-2.092-4.178-2.092a16.189 16.189 0 0 0-8.47 2.531l-2.384-5.353c2.418-1.687 6.601-2.826 10.819-2.826zm9.618-10.084zm0 0l-.043-.06a27.36 27.36 0 0 1-9.51-6.684c-2.883-3.13-5.022-6.979-5.953-11.131a22.285 22.285 0 0 1 .51-11.58 48.461 48.461 0 0 1-5.906-16.445 48.466 48.466 0 0 1 .083-16.158l9.766-.07a26.36 26.36 0 0 0 6.518 15.572 21.133 21.133 0 0 1 4.557-.67h.043a21.124 21.124 0 0 1 4.562.67 26.272 26.272 0 0 0 6.513-15.571l9.771.07a48.396 48.396 0 0 1 .083 16.157 48.453 48.453 0 0 1-5.91 16.445 22.276 22.276 0 0 1 .513 11.58c-.934 4.152-3.07 8-5.952 11.131a27.35 27.35 0 0 1-9.51 6.684l-.044.065c0-.013-.043-.013-.052-.022 0 .013-.043.013-.043.017zm.261-16.358a6.605 6.605 0 1 0 .01-13.21 6.605 6.605 0 0 0-.005 13.21zm-3.278-34.973a18.836 18.836 0 0 1-2.392-5.044c-.913-3.009-1.061-6.218-.683-9.331a28.777 28.777 0 0 1 6.375-14.81 29.69 29.69 0 0 1 5.922 14.584 23.663 23.663 0 0 1-.448 8.479 19.776 19.776 0 0 1-2.674 6.074 16.706 16.706 0 0 0-6.1.048zm87.865-10.536h17.175v60.724h-17.175zm-55.414 60.724V64.37h17.175v15.872h4.783c16.571 0 26.981 8.592 26.981 22.384 0 13.88-10.41 22.463-26.976 22.463zm23.12-9.04h.325l3.149-9.37 9.47-3.253v-.326l-9.37-3.2-3.249-9.423h-.326l-3.3 9.37-9.318 3.253v.326l9.366 3.304z" />
    </clipPath>
    <linearGradient
       y2="749.108"
       x2="1641.205"
       y1="767.987"
       x1="1641.205"
       gradientTransform="matrix(19.26208 0 0 -19.26208 -33389.059 15304.843)"
       gradientUnits="userSpaceOnUse"
       id="a-3"
       xlink:href="#b-36" />
    <linearGradient
       y2="786.828"
       x2="1721.025"
       y1="790.89398"
       x1="1720.965"
       gradientTransform="matrix(19.262083,0,0,-19.262083,-33389.059,15304.843)"
       gradientUnits="userSpaceOnUse"
       id="b-3"
       xlink:href="#b" />
    <linearGradient
       y2="786.828"
       x2="1721.025"
       y1="790.89398"
       x1="1720.965"
       gradientTransform="matrix(19.62344,0,0,19.62344,-33626.238,-15370.754)"
       gradientUnits="userSpaceOnUse"
       id="b-3-7"
       xlink:href="#b" />
    <filter
       id="d-3"
       x="-.018"
       width="1.035"
       y="-.028"
       height="1.056"
       color-interpolation-filters="sRGB">
      <feGaussianBlur
         stdDeviation="1.438"
         id="feGaussianBlur1526" />
    </filter>
    <filter
       id="e-6"
       x="-.018"
       width="1.035"
       y="-.028"
       height="1.056"
       color-interpolation-filters="sRGB">
      <feGaussianBlur
         stdDeviation="1.438"
         id="feGaussianBlur1529" />
    </filter>
    <filter
       id="f-7"
       x="-.018"
       width="1.035"
       y="-.028"
       height="1.056"
       color-interpolation-filters="sRGB">
      <feGaussianBlur
         stdDeviation="1.438"
         id="feGaussianBlur1532" />
    </filter>
    <filter
       id="g-5"
       x="-.018"
       width="1.035"
       y="-.028"
       height="1.056"
       color-interpolation-filters="sRGB">
      <feGaussianBlur
         stdDeviation="1.438"
         id="feGaussianBlur1535" />
    </filter>
    <filter
       id="h-3"
       x="-.018"
       width="1.035"
       y="-.028"
       height="1.056"
       color-interpolation-filters="sRGB">
      <feGaussianBlur
         stdDeviation="1.438"
         id="feGaussianBlur1538" />
    </filter>
    <filter
       id="i-5"
       x="-.018"
       width="1.035"
       y="-.028"
       height="1.056"
       color-interpolation-filters="sRGB">
      <feGaussianBlur
         stdDeviation="1.438"
         id="feGaussianBlur1541" />
    </filter>
    <filter
       id="j-6"
       x="-.018"
       width="1.035"
       y="-.028"
       height="1.056"
       color-interpolation-filters="sRGB">
      <feGaussianBlur
         stdDeviation="1.438"
         id="feGaussianBlur1544" />
    </filter>
    <filter
       id="k-2"
       x="-.018"
       width="1.035"
       y="-.028"
       height="1.056"
       color-interpolation-filters="sRGB">
      <feGaussianBlur
         stdDeviation="1.438"
         id="feGaussianBlur1547" />
    </filter>
    <filter
       id="l-9"
       x="-.018"
       width="1.035"
       y="-.028"
       height="1.056"
       color-interpolation-filters="sRGB">
      <feGaussianBlur
         stdDeviation="1.438"
         id="feGaussianBlur1550" />
    </filter>
    <filter
       id="m-1"
       x="-.018"
       width="1.035"
       y="-.028"
       height="1.056"
       color-interpolation-filters="sRGB">
      <feGaussianBlur
         stdDeviation="1.438"
         id="feGaussianBlur1553" />
    </filter>
    <filter
       id="n-2"
       x="-.018"
       width="1.035"
       y="-.028"
       height="1.056"
       color-interpolation-filters="sRGB">
      <feGaussianBlur
         stdDeviation="1.438"
         id="feGaussianBlur1556" />
    </filter>
    <filter
       id="o-7"
       x="-.018"
       width="1.035"
       y="-.028"
       height="1.056"
       color-interpolation-filters="sRGB">
      <feGaussianBlur
         stdDeviation="1.438"
         id="feGaussianBlur1559" />
    </filter>
    <filter
       id="p-0"
       x="-.018"
       width="1.035"
       y="-.028"
       height="1.056"
       color-interpolation-filters="sRGB">
      <feGaussianBlur
         stdDeviation="1.438"
         id="feGaussianBlur1562" />
    </filter>
    <filter
       id="q-9"
       x="-.018"
       width="1.035"
       y="-.028"
       height="1.056"
       color-interpolation-filters="sRGB">
      <feGaussianBlur
         stdDeviation="1.438"
         id="feGaussianBlur1565" />
    </filter>
    <filter
       id="r-3"
       x="-.018"
       width="1.035"
       y="-.028"
       height="1.056"
       color-interpolation-filters="sRGB">
      <feGaussianBlur
         stdDeviation="1.438"
         id="feGaussianBlur1568" />
    </filter>
    <filter
       id="s-6"
       x="-.018"
       width="1.035"
       y="-.028"
       height="1.056"
       color-interpolation-filters="sRGB">
      <feGaussianBlur
         stdDeviation="1.438"
         id="feGaussianBlur1571" />
    </filter>
    <filter
       id="t-0"
       x="-.018"
       width="1.035"
       y="-.028"
       height="1.056"
       color-interpolation-filters="sRGB">
      <feGaussianBlur
         stdDeviation="1.438"
         id="feGaussianBlur1574" />
    </filter>
    <filter
       id="u-6"
       x="-.018"
       width="1.035"
       y="-.028"
       height="1.056"
       color-interpolation-filters="sRGB">
      <feGaussianBlur
         stdDeviation="1.438"
         id="feGaussianBlur1577" />
    </filter>
    <filter
       id="v-2"
       x="-.018"
       width="1.035"
       y="-.028"
       height="1.056"
       color-interpolation-filters="sRGB">
      <feGaussianBlur
         stdDeviation="1.438"
         id="feGaussianBlur1580" />
    </filter>
    <filter
       id="w-6"
       x="-.018"
       width="1.035"
       y="-.028"
       height="1.056"
       color-interpolation-filters="sRGB">
      <feGaussianBlur
         stdDeviation="1.438"
         id="feGaussianBlur1583" />
    </filter>
    <clipPath
       id="c-1">
      <path
         d="M-206.196 142.443v4.696h11.401v5.427h-11.4v4.327h12.944v5.609h-20.133v-25.668h20.611v5.61zm-20.35-6.122c4.736 0 8.549 1.726 11.04 4.84l-4.622 4.183c-1.609-1.944-3.591-3.01-6.048-3.01-4.218 0-7.149 2.936-7.149 7.336s2.931 7.331 7.149 7.331c2.457 0 4.435-1.06 6.048-3.004l4.623 4.178c-2.496 3.118-6.305 4.84-11.036 4.84-8.14 0-14.12-5.535-14.12-13.35 0-7.804 5.98-13.344 14.12-13.344zm-20.897.513h7.552l-11.366 25.668h-7.148l-11.332-25.668h7.405l2.018 4.988h10.853zm-10.74 10.34l3.295 8.218 3.305-8.218zm-20.977 15.328h-11.736v-25.668h7.262v6.71h4.474c7.001 0 11.406 3.63 11.406 9.461 0 5.87-4.405 9.497-11.406 9.497zm-.439-13.236h-4.035v7.518h4.035c3.005 0 4.51-1.392 4.51-3.779 0-2.348-1.505-3.74-4.51-3.74zm-24.863-12.945c7.627 0 11.366 3.813 11.366 8.288 0 9.462-14.558 6.527-14.558 10.449 0 1.287 1.1 2.313 4.144 2.313 2.235 0 4.653-.661 7.114-1.983l2.235 5.392c-2.53 1.465-5.975 2.235-9.314 2.235-7.627 0-11.366-3.74-11.366-8.323 0-9.531 14.592-6.565 14.592-10.631 0-1.248-1.174-2.092-4.178-2.092a16.189 16.189 0 0 0-8.47 2.531l-2.384-5.353c2.418-1.687 6.601-2.826 10.819-2.826zm9.618-10.084zm0 0l-.043-.06a27.36 27.36 0 0 1-9.51-6.684c-2.883-3.13-5.022-6.979-5.953-11.131a22.285 22.285 0 0 1 .51-11.58 48.461 48.461 0 0 1-5.906-16.445 48.466 48.466 0 0 1 .083-16.158l9.766-.07a26.36 26.36 0 0 0 6.518 15.572 21.133 21.133 0 0 1 4.557-.67h.043a21.124 21.124 0 0 1 4.562.67 26.272 26.272 0 0 0 6.513-15.571l9.771.07a48.396 48.396 0 0 1 .083 16.157 48.453 48.453 0 0 1-5.91 16.445 22.276 22.276 0 0 1 .513 11.58c-.934 4.152-3.07 8-5.952 11.131a27.35 27.35 0 0 1-9.51 6.684l-.044.065c0-.013-.043-.013-.052-.022 0 .013-.043.013-.043.017zm.261-16.358a6.605 6.605 0 1 0 .01-13.21 6.605 6.605 0 0 0-.005 13.21zm-3.278-34.973a18.836 18.836 0 0 1-2.392-5.044c-.913-3.009-1.061-6.218-.683-9.331a28.777 28.777 0 0 1 6.375-14.81 29.69 29.69 0 0 1 5.922 14.584 23.663 23.663 0 0 1-.448 8.479 19.776 19.776 0 0 1-2.674 6.074 16.706 16.706 0 0 0-6.1.048zm87.865-10.536h17.175v60.724h-17.175zm-55.414 60.724V64.37h17.175v15.872h4.783c16.571 0 26.981 8.592 26.981 22.384 0 13.88-10.41 22.463-26.976 22.463zm23.12-9.04h.325l3.149-9.37 9.47-3.253v-.326l-9.37-3.2-3.249-9.423h-.326l-3.3 9.37-9.318 3.253v.326l9.366 3.304z"
         style="line-height:100%;-inkscape-font-specification:'Montserrat Ultra-Bold';font-variant-ligatures:discretionary-ligatures historical-ligatures;font-variant-caps:normal;font-variant-numeric:lining-nums tabular-nums slashed-zero;font-feature-settings:normal;text-align:end;fill:url(#a-3)"
         font-weight="800"
         letter-spacing="-.257"
         font-family="Montserrat"
         text-anchor="end"
         fill="url(#a)"
         stroke-width="4.348"
         id="path1586" />
    </clipPath>
    <inkscape:path-effect
       effect="spiro"
       id="path-effect1070"
       is_visible="true" />
    <linearGradient
       xlink:href="#linearGradient10312"
       id="b-2"
       gradientUnits="userSpaceOnUse"
       gradientTransform="matrix(19.62344,0,0,19.62344,-33614.248,-15104.785)"
       x1="1720.965"
       y1="790.89398"
       x2="1721.025"
       y2="786.828" />
  </defs>
  <path
     inkscape:connector-curvature="0"
     d="M 0.001,0 H 132.292 V 132.292 H 0 Z"
     id="path9745"
     style="fill:#000000" />
  <path
     style="opacity:1;fill:#f2f2f2;fill-opacity:1;fill-rule:nonzero;stroke:none;stroke-width:7.01268005;stroke-linecap:round;stroke-linejoin:round;stroke-miterlimit:4;stroke-dasharray:none;stroke-dashoffset:0;stroke-opacity:1"
     d="m 66.035916,14.389671 -1.139836,0.455154 c -6.265496,2.506191 -10.116001,5.709926 -13.546622,9.554889 -4.074569,4.430852 -7.119095,9.884939 -8.460837,15.865537 l -0.0025,0.0025 v 0.0025 c -1.118993,5.026728 -0.847967,10.215306 0.470199,15.178237 -3.646497,6.583459 -6.236085,13.703123 -7.462252,21.135093 v 0.0025 c -1.190583,7.270522 -1.151808,14.690103 0.113766,21.94794 l 0.479347,2.753159 18.430993,0.13078 c 0.04276,0.54544 -0.01582,1.1068 0.04974,1.64664 v 0.002 0.005 c 0.942271,7.65076 4.052272,14.87297 8.961763,20.81594 l 2.679245,3.24296 2.560875,-3.33907 c 4.551248,-5.93736 7.416227,-12.99169 8.297352,-20.42033 0.08302,-0.64863 0.02873,-1.30177 0.0739,-1.9527 l 18.381285,-0.1334 0.481954,-2.751182 c 1.2669,-7.25785 1.303914,-14.677546 0.111109,-21.947953 v -0.0025 C 95.288305,69.152615 92.696604,62.034443 89.049156,55.45177 90.369297,50.488105 90.63959,45.298882 89.520647,40.270926 v -0.005 -0.0025 C 88.189511,34.348449 85.177851,28.965354 81.169061,24.558533 79.379645,22.156071 76.75585,20.238196 74.125363,18.51013 71.445192,16.749414 69.162445,15.432171 67.200012,14.778023 Z"
     id="path1886"
     inkscape:connector-curvature="0" />
  <path
     inkscape:connector-curvature="0"
     style="font-weight:800;line-height:100%;font-family:Montserrat;-inkscape-font-specification:'Montserrat Ultra-Bold';font-variant-ligatures:discretionary-ligatures historical-ligatures;font-variant-caps:normal;font-variant-numeric:lining-nums tabular-nums slashed-zero;font-feature-settings:normal;text-align:end;letter-spacing:-0.257;text-anchor:end;fill:url(#d)"
     d="m 66.084,18.36 -0.053,0.081 a 34.957,34.957 0 0 0 -12.15,8.537 c -3.681,4.004 -6.413,8.918 -7.603,14.226 a 28.478,28.478 0 0 0 0.65,14.792 61.924,61.924 0 0 0 -7.546,21.017 61.885,61.885 0 0 0 0.106,20.647 l 12.482,0.09 a 33.704,33.704 0 0 1 4.069,-13.85 33.55,33.55 0 0 1 4.258,-6.051 26.97,26.97 0 0 0 5.826,0.855 h 0.053 a 27.093,27.093 0 0 0 5.823,-0.855 33.545,33.545 0 0 1 4.26,6.051 33.682,33.682 0 0 1 4.065,13.849 l 12.484,-0.09 A 61.904,61.904 0 0 0 92.915,77.012 61.908,61.908 0 0 0 85.368,55.995 28.468,28.468 0 0 0 86.018,41.203 C 84.828,35.895 82.096,30.983 78.416,26.977 A 34.947,34.947 0 0 0 66.262,18.44 L 66.21,18.354 c 0,0.017 -0.055,0.017 -0.07,0.027 0,-0.018 -0.052,-0.018 -0.052,-0.02 z m 0.339,20.906 a 8.438,8.438 0 1 1 0,16.876 8.439,8.439 0 1 1 0,-16.876 z m -4.195,44.683 a 24.162,24.162 0 0 0 -3.058,6.452 c -1.162,3.84 -1.35,7.937 -0.867,11.921 a 36.763,36.763 0 0 0 8.146,18.924 37.94,37.94 0 0 0 7.565,-18.637 c 0.423,-3.61 0.311,-7.304 -0.572,-10.83 a 25.26,25.26 0 0 0 -3.416,-7.77 21.327,21.327 0 0 1 -3.905,0.33 22.079,22.079 0 0 1 -3.893,-0.39 z"
     font-weight="800"
     letter-spacing="-.257"
     id="path9747" />
  <path
     inkscape:connector-curvature="0"
     font-weight="600"
     d="m 10.641,69.556 c 2.327,0 4.064,0.698 5.21,2.094 1.11,1.397 1.664,3.223 1.664,5.478 a 35.61,35.61 0 0 1 -0.376,5.155 l -0.86,5.156 a 122.2,122.2 0 0 0 -0.858,5.209 31.934,31.934 0 0 0 -0.43,5.263 c 0,2.613 0.394,4.994 1.181,7.142 0.752,2.184 1.916,4.046 3.491,5.585 1.54,1.575 3.49,2.793 5.854,3.652 2.327,0.859 5.066,1.289 8.216,1.289 h 2.9 v -7.66 c 0,0 -2.047,0.034 -2.512,0.034 h -0.806 c -2.613,0 -4.636,-0.842 -6.068,-2.524 -1.468,-1.647 -2.202,-3.92 -2.202,-6.82 0,-1.97 0.125,-3.867 0.376,-5.693 0.215,-1.826 0.466,-3.616 0.752,-5.37 0.286,-1.754 0.555,-3.473 0.806,-5.155 a 41.54,41.54 0 0 0 0.322,-5.156 c 0,-2.685 -0.752,-5.03 -2.256,-7.035 -1.504,-2.005 -3.509,-3.365 -6.015,-4.081 a 11.406,11.406 0 0 0 3.438,-1.504 11.51,11.51 0 0 0 2.577,-2.524 11.453,11.453 0 0 0 1.665,-3.222 c 0.394,-1.217 0.59,-2.488 0.59,-3.813 0,-1.718 -0.107,-3.419 -0.321,-5.101 -0.253,-1.719 -0.52,-3.455 -0.806,-5.21 a 126.515,126.515 0 0 1 -0.752,-5.316 41.965,41.965 0 0 1 -0.376,-5.746 c 0,-2.9 0.734,-5.191 2.202,-6.874 1.432,-1.683 3.455,-2.524 6.068,-2.524 h 0.806 c 0.465,0 2.52,0.068 2.52,0.068 v -7.64 h -2.9 c -3.151,0 -5.89,0.43 -8.217,1.289 -2.363,0.86 -4.314,2.076 -5.854,3.652 -1.575,1.54 -2.738,3.4 -3.49,5.585 -0.788,2.148 -1.182,4.528 -1.182,7.142 0,1.79 0.142,3.562 0.43,5.316 0.25,1.719 0.537,3.437 0.86,5.156 l 0.858,5.155 a 35.81,35.81 0 0 1 0.376,5.156 c 0,2.255 -0.555,4.081 -1.664,5.477 -1.146,1.397 -2.882,2.095 -5.21,2.095 z m 111.01,0 c -2.327,0 -4.063,0.698 -5.21,2.094 -1.109,1.397 -1.664,3.223 -1.664,5.478 0,1.719 0.125,3.437 0.376,5.155 l 0.86,5.156 c 0.321,1.718 0.608,3.455 0.859,5.209 0.286,1.718 0.43,3.473 0.43,5.263 0,2.613 -0.395,4.994 -1.182,7.142 -0.752,2.184 -1.916,4.046 -3.49,5.585 -1.54,1.575 -3.491,2.793 -5.854,3.652 -2.328,0.859 -5.066,1.289 -8.217,1.289 h -2.9 v -7.66 c 0,0 2.047,0.034 2.512,0.034 h 0.805 c 2.614,0 4.637,-0.842 6.069,-2.524 1.468,-1.647 2.202,-3.92 2.202,-6.82 a 41.75,41.75 0 0 0 -0.376,-5.693 121.162,121.162 0 0 0 -0.752,-5.37 367.095,367.095 0 0 1 -0.805,-5.155 41.54,41.54 0 0 1 -0.323,-5.156 c 0,-2.685 0.752,-5.03 2.256,-7.035 1.503,-2.005 3.508,-3.365 6.014,-4.081 a 11.402,11.402 0 0 1 -3.437,-1.504 11.498,11.498 0 0 1 -2.577,-2.524 11.462,11.462 0 0 1 -1.665,-3.222 12.31,12.31 0 0 1 -0.59,-3.813 c 0,-1.718 0.107,-3.419 0.322,-5.101 0.25,-1.719 0.519,-3.455 0.805,-5.21 0.286,-1.754 0.537,-3.526 0.752,-5.316 0.253,-1.826 0.376,-3.741 0.376,-5.746 0,-2.9 -0.734,-5.191 -2.202,-6.874 -1.432,-1.683 -3.455,-2.524 -6.069,-2.524 h -0.805 c -0.465,0 -2.52,0.068 -2.52,0.068 v -7.64 h 2.9 c 3.151,0 5.89,0.43 8.217,1.289 2.363,0.86 4.314,2.076 5.853,3.652 1.576,1.54 2.74,3.4 3.491,5.585 0.788,2.148 1.182,4.528 1.182,7.142 0,1.79 -0.143,3.562 -0.43,5.316 -0.25,1.719 -0.537,3.437 -0.86,5.156 l -0.858,5.155 a 35.776,35.776 0 0 0 -0.377,5.156 c 0,2.255 0.556,4.081 1.665,5.477 1.146,1.397 2.883,2.095 5.21,2.095 z"
     style="font-weight:600;line-height:100%;font-family:Lato;-inkscape-font-specification:'Lato Semi-Bold';font-variant-ligatures:discretionary-ligatures historical-ligatures;font-variant-caps:normal;font-variant-numeric:lining-nums tabular-nums slashed-zero;font-feature-settings:normal;text-align:center;text-anchor:middle;fill:#f2f2f2"
     id="path9749" />
</svg>
