<svg xmlns="http://www.w3.org/2000/svg" width="1000" height="540.931" viewBox="0 0 264.583 143.121"><path d="M146.78 32.16h-10.372c-2.122 0-4.25-.018-6.017 1.484a5.808 5.808 0 0 0-1.872 3.132c-.262 1.12-.254 2.27-.254 3.426V65.42h4.726V50.52h11.38v-4.53h-11.38v-5.788c0-.988 0-1.73.093-2.239.088-.507.215-.746.498-.963.185-.137.406-.216.851-.264.447-.05 1.088-.052 1.98-.052h10.366zm42.404.822c-1.573 0-2.846 1.222-2.846 2.848 0 1.625 1.273 2.843 2.846 2.843 1.574 0 2.845-1.218 2.845-2.843 0-1.626-1.271-2.848-2.845-2.848zM158.64 40.94c-2.335 0-5.31.708-7.335 3.098-1.025 1.205-1.562 2.463-1.816 3.876-.255 1.415-.252 2.982-.252 4.935v12.583h4.534V52.849c0-3.038.042-4.903 1.016-6.036.768-.93 2.25-1.528 3.846-1.528.752 0 1.459.136 2.07.354l.559.198 1.38-4.14-.54-.188a10.52 10.52 0 0 0-3.47-.563zm15.64 0c-3.565 0-6.651 1.304-8.332 3.667-1.832 2.546-1.844 4.965-1.844 8.724 0 3.135-.017 6.198 1.944 8.877 1.668 2.242 4.52 3.512 7.987 3.512 2.589 0 5.187-.55 7.543-1.753l.507-.254-1.909-3.945-.528.28c-1.642.867-3.63 1.33-5.613 1.33-2.194 0-3.506-.642-4.355-1.789-.801-1.08-.933-3.29-.96-4.67h3.82c3.423 0 5.681 0 7.858-1.555a6.328 6.328 0 0 0 2.653-5.195c-.055-2.06-1.05-3.993-2.62-5.302-1.562-1.25-3.637-1.912-6.148-1.912zm31.451 0c-3.565 0-6.65 1.304-8.33 3.667-1.832 2.546-1.843 4.966-1.843 8.724 0 3.135-.017 6.198 1.945 8.877 1.668 2.242 4.518 3.512 7.984 3.512 2.589 0 5.191-.55 7.547-1.753l.503-.254-1.905-3.945-.533.28c-1.642.867-3.628 1.33-5.612 1.33-2.194 0-3.506-.642-4.356-1.789-.8-1.08-.933-3.29-.959-4.67h3.823c3.423 0 5.68 0 7.858-1.555a6.328 6.328 0 0 0 2.652-5.195c-.054-2.06-1.048-3.993-2.618-5.302-1.563-1.25-3.637-1.912-6.148-1.912zm19.68 0c-2.063 0-3.881.459-5.392 1.5-1.53 1.055-2.854 2.917-2.854 5.345 0 2.28 1.22 4.179 2.785 5.378 1.566 1.2 3.395 1.648 4.95 1.988 1.533.335 2.64.61 3.585 1.296.648.486 1.121 1.232 1.121 2.14 0 .66-.259 1.435-1.018 1.994-.774.57-1.846.8-3.178.8-2.134 0-4.27-.464-6.168-1.343l-.523-.244-1.84 3.942.524.245c2.545 1.198 5.325 1.742 8.007 1.742 2.302 0 4.27-.507 5.88-1.65 1.634-1.16 2.848-3.12 2.848-5.486 0-2.627-1.48-4.586-3.09-5.729-1.457-1.04-3.132-1.486-4.884-1.875-1.732-.385-2.62-.601-3.477-1.286-.563-.442-.985-1.098-.985-1.909 0-.85.451-1.522 1.112-1.91.723-.427 1.456-.596 2.6-.596 1.832 0 3.78.463 5.538 1.296l.547.258 1.706-4.012-.507-.234c-2.242-1.047-4.735-1.647-7.285-1.647zm-38.494.287v24.205h4.534V41.227zm-12.637 4.05c1.407 0 2.529.333 3.198.884.572.458.988 1.293 1.032 2.025 0 .912-.43 1.552-.926 1.934-.407.31-.868.47-1.654.56-.788.089-1.874.092-3.393.092h-3.813c.032-1.103.166-2.824 1.022-3.816.921-1.089 2.466-1.677 4.524-1.677zm31.451 0c1.408 0 2.532.333 3.202.884.572.458.985 1.293 1.028 2.025 0 .912-.426 1.552-.922 1.934-.408.31-.866.47-1.654.56-.787.089-1.874.092-3.393.092h-3.817c.032-1.103.166-2.824 1.022-3.816.921-1.088 2.466-1.677 4.525-1.677zm-72.75 32.218h-4.722v25.217c0 1.157 0 2.306.255 3.426a5.81 5.81 0 0 0 1.872 3.132c1.767 1.5 3.894 1.488 6.015 1.488h9.886v-4.534H136.4c-.891 0-1.533 0-1.98-.049-.445-.047-.667-.13-.85-.268-.283-.217-.408-.456-.496-.962-.088-.508-.093-1.25-.093-2.239zm38.104 0v21.503c0 3.617 0 6.207 1.75 8.631 1.466 2.043 4.063 3.424 7.266 3.424 3.047 0 5.513-1.22 7.113-2.82 2.867-2.918 2.864-6.532 2.864-9.473 0-3.278.017-6.651-2.301-9.433-1.511-1.824-3.954-3.055-6.956-3.055-2.048 0-3.81.935-5.205 2.275v-11.05zm-12.898 8.773c-2.69 0-5.215.597-7.525 1.432l-.538.196 1.445 4.14.555-.211c1.974-.752 4.03-1.214 6.063-1.214 1.73 0 2.781.432 3.473 1.203.847.954.953 2.408.974 3.761h-3.336c-1.88 0-4.744-.017-7.187 1.75-1.67 1.2-3.085 3.26-3.085 6.012 0 2.703 1.41 4.81 3.135 6.016 1.669 1.2 3.776 1.7 6.171 1.7 3.003 0 5.464-.864 7.044-2.708 1.827-2.14 1.829-4.572 1.829-7.803v-3.568c0-2.555.022-5.596-2.076-7.954-1.566-1.773-3.928-2.752-6.942-2.752zm44.853 0c-3.597 0-6.61 1.647-8.259 4.38-1.5 2.481-1.482 5.265-1.482 8.013s-.017 5.53 1.482 8.013c1.65 2.732 4.662 4.379 8.259 4.379 3.597 0 6.608-1.647 8.258-4.38 1.5-2.481 1.482-5.264 1.482-8.012s.016-5.532-1.482-8.014c-1.65-2.732-4.66-4.38-8.258-4.38zm22.84 0c-2.336 0-5.31.71-7.336 3.1-1.027 1.205-1.564 2.461-1.819 3.876-.254 1.414-.248 2.981-.248 4.934v12.588h4.534V98.178c0-3.038.042-4.903 1.015-6.036.768-.93 2.25-1.524 3.847-1.524.752 0 1.458.132 2.07.35l.559.199 1.379-4.14-.539-.19c-1.03-.36-2.202-.562-3.47-.562zm-45.297 4.34c1.69 0 2.908.607 3.658 1.483 1.252 1.46 1.306 3.961 1.306 6.661 0 2.46-.027 4.768-1.534 6.406-.925 1.01-2.41 1.548-3.912 1.548-1.37 0-2.627-.433-3.459-1.432-.978-1.182-1.023-3.1-1.023-5.655 0-3.568.056-6.071 1.307-7.531.75-.876 1.967-1.485 3.657-1.485zm22.457 0c1.964 0 3.387.768 4.242 2.052.92 1.38.963 3.538.963 5.997s-.043 4.615-.963 5.995c-.855 1.284-2.278 2.057-4.242 2.057-1.963 0-3.388-.773-4.244-2.057-.92-1.38-.965-3.536-.965-5.995 0-2.46.042-4.617.965-5.997.856-1.284 2.28-2.053 4.244-2.053zM159.3 99.714h3.373v.82c0 1.422 0 2.492-.108 3.29-.107.8-.295 1.302-.664 1.73-.659.775-1.862 1.148-3.562 1.148-1.467 0-2.707-.292-3.473-.813-.73-.53-1.3-1.41-1.3-2.564 0-1.307.621-2.23 1.35-2.757 1.158-.828 2.748-.858 4.388-.858z"/><path d="M69.853 31.544c-6.894.164-12.937 3.608-17.355 8.026a47.46 47.46 0 0 0-1.759 1.816c-1.77-2.02-3.682-3.96-5.83-5.711-1.691-1.549-4.124-3.355-7.347-3.316-2.955.036-5.065 2.06-5.934 4.254-1.328 3.081-1.548 6.248-1.502 9.078 0 8.723 1.9 17.236 4.488 25.35-.017.032-.022.062-.032.095-2.891 8.663-5.072 17.84-5.08 27.287-.058 2.852.18 6.105 1.558 9.336.916 2.369 3.21 4.575 6.502 4.622 3.49.05 6.051-1.862 7.74-3.454 2.332-1.905 4.381-4.02 6.27-6.207.441.467.89.93 1.354 1.38 4.358 4.333 10.257 7.72 16.926 7.855 6.67-.111 12.597-3.476 16.979-7.801.737-.71 1.437-1.45 2.12-2.201 1.97 2.16 4.027 4.144 6.331 5.885 1.83 1.497 4.147 2.864 6.862 2.88 2.457-.228 4.105-1.936 4.78-3.735 1.152-2.943 1.118-6.027.972-8.559-.269-5.175-1.391-9.974-2.3-13.36.457 3.482.986 8.39.726 13.36-.144 2.48-.371 5.347-1.55 7.588-.628 1.096-1.692 2.153-2.628 1.927-1.575.024-3.059-1.262-4.815-2.644-2.147-1.842-4.028-3.94-5.9-6.278 2.098-2.687 3.935-5.544 5.57-8.461 3.178-5.647 5.712-11.611 7.75-17.701 2.916-8.631 5.13-17.761 5.172-27.163.064-2.841-.154-6.056-1.502-9.232-.89-2.302-3.105-4.447-6.275-4.497-3.392-.055-5.92 1.81-7.615 3.382-2.143 1.735-4.055 3.652-5.822 5.642a47.165 47.165 0 0 0-1.45-1.467c-4.442-4.411-10.51-7.834-17.405-7.975zm-32.438 5.624c1.803-.07 3.308 1.463 4.463 2.272 2.07 1.644 3.941 3.591 5.735 5.682-2 2.622-3.758 5.388-5.32 8.207a95.676 95.676 0 0 0-4.743 9.83c-1.51-5.782-2.51-11.628-2.509-17.468.05-2.66.11-5.155 1.037-7.071.35-.754.743-1.429 1.337-1.452zm65.885 1.6c.908 1.825.973 4.274 1.038 6.923.042 8.51-2.04 17.07-4.78 25.437-1.926 5.825-4.296 11.485-7.26 16.79-1.303 2.32-2.702 4.572-4.238 6.687-.123-.166-.24-.317-.364-.485-4.254-5.77-8.11-11.57-12.576-18.29l-2.124-3.203c4.952-7.467 9.843-14.9 15.196-21.907a70.56 70.56 0 0 1 4.317 7.09c.723 1.056 1.782 1.595 2.812 1.568a3.282 3.282 0 0 0 3.283-3.283c-.044-.512-.138-1.095-.306-1.45-.223-.475-.503-.922-.76-1.379-1.507-2.694-3.194-5.34-5.099-7.856 1.771-2.084 4.008-4.43 5.615-5.782 1.519-1.277 2.566-2.344 4.07-2.09.56.094.898.808 1.176 1.23zm-33.447-.774c4.539-.14 9.09 2.7 12.88 6.222.621.596 1.214 1.225 1.795 1.867-.238.31-.479.618-.715.926-5.103 6.612-9.738 13.494-14.318 20.34-4.478-6.755-9.01-13.53-13.99-20.04-.235-.309-.474-.619-.711-.928a37.616 37.616 0 0 1 2.128-2.218c3.815-3.514 8.393-6.334 12.931-6.17zM51.728 50.22c5.274 6.826 10.1 14.058 14.96 21.323-5.025 7.505-9.986 14.978-15.419 22.006l-.262.332a70.291 70.291 0 0 1-3.718-5.897c-2.691-4.77-4.9-9.831-6.74-15.042 1.936-5.742 4.303-11.314 7.247-16.529 1.219-2.147 2.52-4.228 3.932-6.193zm18.487 26.595l1.134 1.695c4.399 6.558 8.58 12.495 13.094 18.11.338.423.675.838 1.012 1.252a38.583 38.583 0 0 1-2.316 2.447c-3.848 3.603-8.533 6.499-13.286 6.385-4.752.137-9.463-2.738-13.335-6.333a37.93 37.93 0 0 1-1.656-1.696c.384-.497.764-.993 1.139-1.487 5.071-6.628 9.67-13.518 14.214-20.373zM38.18 80.851a94.815 94.815 0 0 0 4.653 9.633c1.439 2.593 3.04 5.137 4.837 7.56-1.929 2.296-4.14 4.374-6.152 6.183-1.09.98-2.382 2.363-3.831 2.152-.514-.075-.768-.385-1.084-1.12-.764-1.776-.925-4.195-.984-6.836 0-5.86 1.023-11.742 2.561-17.572z"/></svg>
