<svg xmlns="http://www.w3.org/2000/svg" width="135" height="135" viewBox="0 0 35.719 35.719"><path d="M3.1 29.132H1.488c-.33 0-.662-.003-.937.231a.904.904 0 0 0-.291.487c-.04.175-.04.354-.04.534v3.924h.736v-2.319h1.77v-.705H.956v-.9c0-.154 0-.27.014-.349.014-.079.034-.116.078-.15.029-.021.063-.033.132-.04.07-.009.17-.009.308-.009H3.1zm6.6.128a.438.438 0 0 0-.444.443c0 .253.198.443.443.443s.443-.19.443-.443a.437.437 0 0 0-.443-.443zm-4.754 1.238c-.363 0-.826.11-1.141.482a1.23 1.23 0 0 0-.283.604c-.04.22-.04.464-.04.768v1.958h.706v-1.958c0-.473.007-.763.159-.94.119-.144.35-.238.598-.238.117 0 .227.022.322.056l.087.03.215-.644-.084-.03a1.637 1.637 0 0 0-.54-.087zm2.434 0c-.555 0-1.035.203-1.297.571-.285.396-.287.773-.287 1.358 0 .487-.002.964.303 1.38.26.35.703.547 1.243.547.403 0 .807-.085 1.173-.272l.08-.04-.298-.614-.082.044a1.898 1.898 0 0 1-.873.207c-.342 0-.546-.1-.678-.279-.125-.168-.145-.512-.15-.726h.595c.533 0 .884 0 1.223-.242a.985.985 0 0 0 .413-.809 1.122 1.122 0 0 0-.408-.825c-.243-.194-.566-.297-.957-.297zm4.894 0c-.555 0-1.035.203-1.296.571-.285.396-.287.773-.287 1.358 0 .487-.003.964.303 1.38.26.35.703.547 1.242.547.403 0 .808-.085 1.174-.272l.079-.04-.297-.614-.083.044a1.897 1.897 0 0 1-.873.207c-.341 0-.546-.1-.678-.279-.124-.168-.145-.512-.15-.726h.596c.532 0 .884 0 1.223-.242a.985.985 0 0 0 .412-.809 1.121 1.121 0 0 0-.407-.825c-.243-.194-.566-.297-.957-.297zm3.062 0c-.32 0-.604.072-.839.234a1.01 1.01 0 0 0-.444.832c0 .354.19.65.434.836.243.187.528.257.77.31.238.052.41.095.558.201.1.076.174.192.174.333 0 .103-.04.224-.158.31-.12.09-.288.125-.495.125a2.3 2.3 0 0 1-.96-.209l-.081-.038-.286.614.081.038c.396.186.829.27 1.246.27.358 0 .665-.078.915-.256.254-.18.443-.485.443-.854 0-.408-.23-.713-.48-.891-.227-.162-.488-.231-.76-.292-.27-.06-.408-.093-.542-.2a.377.377 0 0 1-.153-.297c0-.132.07-.237.173-.297a.733.733 0 0 1 .405-.093c.285 0 .588.072.862.202l.085.04.265-.624-.079-.037a2.688 2.688 0 0 0-1.133-.256zm-5.99.045v3.767h.706v-3.767zm-1.966.63c.219 0 .393.052.497.138a.468.468 0 0 1 .161.315.37.37 0 0 1-.144.3.482.482 0 0 1-.257.088 5.354 5.354 0 0 1-.528.014h-.594c.005-.171.026-.44.16-.593.143-.17.383-.261.703-.261zm4.894 0c.22 0 .394.052.498.138a.466.466 0 0 1 .16.315.37.37 0 0 1-.143.3.481.481 0 0 1-.258.088 5.352 5.352 0 0 1-.528.014h-.594c.005-.171.026-.44.16-.593.143-.17.383-.261.704-.261zm8.2-2.052h-.734v3.924c0 .18 0 .359.04.533.042.19.144.36.29.487.276.234.607.232.937.232h1.538v-.706h-1.539c-.138 0-.238 0-.308-.007-.069-.008-.103-.02-.132-.042-.044-.034-.063-.071-.077-.15a2.355 2.355 0 0 1-.015-.348zm5.93 0v3.346c0 .563 0 .966.272 1.343.228.318.632.533 1.13.533.475 0 .859-.19 1.108-.44.446-.453.445-1.016.445-1.473 0-.51.003-1.035-.358-1.468-.235-.284-.615-.476-1.082-.476-.319 0-.593.146-.81.354v-1.719zm-2.007 1.365a3.44 3.44 0 0 0-1.171.223l-.084.03.225.644.086-.032a2.67 2.67 0 0 1 .944-.19c.269 0 .432.068.54.188.132.148.148.375.152.585h-.52c-.292 0-.738-.003-1.118.272-.26.187-.48.508-.48.936 0 .42.22.748.488.936.26.187.588.265.96.265.468 0 .85-.135 1.096-.422.285-.333.285-.711.285-1.214v-.555c0-.398.003-.871-.323-1.238-.244-.276-.611-.428-1.08-.428zm6.98 0c-.56 0-1.03.256-1.286.681-.233.386-.23.82-.23 1.247 0 .428-.003.86.23 1.247.257.425.726.682 1.285.682.56 0 1.029-.257 1.285-.682.234-.386.231-.82.231-1.247 0-.427.002-.86-.23-1.247-.257-.425-.726-.681-1.286-.681zm3.553 0c-.363 0-.826.11-1.141.482-.16.188-.243.383-.283.603-.04.22-.039.464-.039.768v1.959h.706v-1.959c0-.473.006-.763.158-.94.12-.144.35-.236.598-.236.117 0 .227.02.323.054l.086.031.215-.644-.084-.03a1.638 1.638 0 0 0-.54-.087zm-7.048.675c.263 0 .452.095.569.23.195.228.203.617.203 1.037 0 .383-.004.742-.238.997-.144.157-.375.241-.61.241-.212 0-.408-.067-.537-.223-.153-.184-.16-.482-.16-.88 0-.555.009-.944.204-1.172.116-.136.306-.23.569-.23zm3.494 0c.306 0 .527.12.66.32.144.214.15.55.15.933 0 .382-.006.718-.15.933-.133.2-.354.32-.66.32-.305 0-.527-.12-.66-.32-.143-.215-.15-.55-.15-.933s.006-.719.15-.934c.133-.2.355-.319.66-.319zm-6.806 1.417h.525v.128c0 .221 0 .388-.017.512a.478.478 0 0 1-.103.269c-.103.12-.29.179-.555.179-.228 0-.42-.046-.54-.127a.485.485 0 0 1-.202-.399c0-.203.096-.347.21-.429.18-.129.427-.133.683-.133zM17.903 1.625c-2.14.051-4.014 1.12-5.385 2.49a14.726 14.726 0 0 0-.546.564 15.11 15.11 0 0 0-1.809-1.772c-.525-.48-1.28-1.04-2.28-1.029-.917.012-1.571.64-1.841 1.32-.412.956-.48 1.94-.466 2.817 0 2.707.59 5.348 1.393 7.866-.006.01-.007.02-.01.03-.897 2.688-1.574 5.535-1.577 8.467-.018.884.056 1.894.484 2.896.284.736.996 1.42 2.017 1.435 1.083.015 1.878-.578 2.402-1.072a15.751 15.751 0 0 0 1.945-1.926c.137.145.277.288.42.428 1.353 1.345 3.183 2.396 5.253 2.437 2.07-.034 3.908-1.078 5.268-2.42.229-.22.446-.45.658-.683.611.67 1.25 1.286 1.964 1.826.568.464 1.287.889 2.13.894.762-.071 1.273-.601 1.483-1.16.357-.913.347-1.87.301-2.655-.083-1.606-.431-3.095-.713-4.146.142 1.08.306 2.604.225 4.146-.045.77-.115 1.659-.481 2.354-.195.34-.525.668-.815.598-.49.008-.95-.391-1.494-.82-.667-.572-1.25-1.223-1.831-1.948a20.71 20.71 0 0 0 1.728-2.626c.986-1.752 1.773-3.602 2.405-5.492.905-2.678 1.592-5.511 1.605-8.429.02-.881-.048-1.879-.466-2.864-.276-.714-.964-1.38-1.947-1.396-1.053-.017-1.837.562-2.363 1.05a15.31 15.31 0 0 0-1.807 1.75 14.635 14.635 0 0 0-.45-.455c-1.378-1.368-3.26-2.43-5.4-2.474zM7.838 3.371c.56-.022 1.026.454 1.385.705.642.51 1.222 1.114 1.779 1.763a20.87 20.87 0 0 0-1.65 2.546 29.688 29.688 0 0 0-1.472 3.05C7.41 9.641 7.1 7.827 7.1 6.015c.016-.825.034-1.6.322-2.194.108-.234.23-.443.415-.45zm20.443.496c.282.566.302 1.326.322 2.148.013 2.64-.633 5.297-1.483 7.893-.597 1.808-1.333 3.564-2.253 5.21-.404.72-.838 1.419-1.315 2.075l-.113-.15c-1.32-1.791-2.516-3.59-3.902-5.676l-.659-.994c1.537-2.317 3.054-4.623 4.715-6.797a21.894 21.894 0 0 1 1.34 2.2c.224.327.553.495.872.486a1.018 1.018 0 0 0 1.02-1.019 1.48 1.48 0 0 0-.096-.45c-.069-.147-.156-.286-.236-.427a21.086 21.086 0 0 0-1.582-2.438c.55-.647 1.244-1.375 1.743-1.794.47-.396.796-.727 1.262-.649.174.03.279.251.365.382zm-10.378-.24c1.408-.044 2.82.838 3.997 1.93.192.185.376.38.556.58l-.221.287c-1.584 2.052-3.022 4.187-4.443 6.311-1.39-2.096-2.796-4.198-4.341-6.218l-.22-.288a11.672 11.672 0 0 1 .66-.688c1.183-1.09 2.604-1.965 4.012-1.914zM12.279 7.42c1.636 2.119 3.134 4.363 4.642 6.617-1.56 2.329-3.099 4.647-4.785 6.828l-.08.103a21.81 21.81 0 0 1-1.154-1.83c-.835-1.48-1.52-3.05-2.092-4.667.6-1.782 1.335-3.51 2.249-5.129.378-.666.782-1.312 1.22-1.922zm5.736 8.253l.352.526c1.365 2.035 2.662 3.877 4.063 5.62l.314.388a11.972 11.972 0 0 1-.719.759c-1.194 1.118-2.647 2.016-4.122 1.981-1.475.043-2.936-.85-4.138-1.965a11.77 11.77 0 0 1-.514-.526c.12-.154.237-.308.354-.462 1.573-2.056 3-4.194 4.41-6.321zm-9.94 1.252a29.42 29.42 0 0 0 1.444 2.99c.446.804.943 1.593 1.5 2.345-.598.712-1.284 1.357-1.908 1.918-.338.305-.74.734-1.189.668-.16-.023-.238-.12-.336-.347-.237-.551-.287-1.302-.306-2.121 0-1.819.318-3.644.795-5.453z"/></svg>