<svg xmlns="http://www.w3.org/2000/svg" width="1000" height="1000" viewBox="0 0 264.583 264.583"><path d="M0 0h264.583v264.583H0z"/><path d="M131.077 46.933c-14.414.343-27.048 7.543-36.285 16.78a99.227 99.227 0 0 0-3.678 3.797c-3.7-4.223-7.698-8.28-12.189-11.94-3.535-3.239-8.622-7.015-15.36-6.933-6.179.075-10.59 4.307-12.407 8.894-2.777 6.441-3.237 13.063-3.14 18.98 0 18.237 3.972 36.036 9.383 53-.036.067-.046.13-.067.199-6.044 18.112-10.604 37.299-10.621 57.05-.121 5.963.376 12.764 3.257 19.52 1.916 4.953 6.712 9.565 13.594 9.663 7.297.105 12.652-3.893 16.183-7.221 4.876-3.983 9.16-8.405 13.109-12.978.922.977 1.86 1.945 2.83 2.886 9.112 9.059 21.446 16.14 35.389 16.422 13.945-.232 26.337-7.267 35.499-16.31 1.54-1.484 3.004-3.031 4.432-4.601 4.119 4.516 8.42 8.664 13.237 12.304 3.826 3.13 8.67 5.988 14.347 6.021 5.136-.477 8.582-4.048 9.993-7.809 2.409-6.153 2.338-12.6 2.033-17.895-.563-10.82-2.909-20.853-4.81-27.932.956 7.28 2.062 17.541 1.519 27.932-.301 5.185-.776 11.18-3.241 15.865-1.313 2.292-3.538 4.501-5.494 4.029-3.293.05-6.396-2.639-10.067-5.528-4.49-3.851-8.422-8.238-12.336-13.126 4.386-5.618 8.227-11.59 11.646-17.69 6.644-11.806 11.942-24.275 16.203-37.008 6.097-18.045 10.725-37.134 10.813-56.791.134-5.94-.322-12.662-3.14-19.302-1.86-4.813-6.492-9.298-13.12-9.402-7.091-.115-12.377 3.784-15.92 7.07-4.481 3.628-8.479 7.636-12.173 11.797a98.61 98.61 0 0 0-3.032-3.067c-9.287-9.223-21.973-16.38-36.39-16.674zM63.257 58.69c3.77-.146 6.916 3.059 9.331 4.75 4.328 3.438 8.24 7.508 11.99 11.88-4.18 5.482-7.856 11.265-11.122 17.159a200.035 200.035 0 0 0-9.917 20.552c-3.157-12.089-5.247-24.311-5.245-36.521.104-5.562.23-10.778 2.168-14.784.732-1.576 1.553-2.988 2.795-3.036zm137.75 3.345c1.898 3.816 2.034 8.936 2.17 14.475.087 17.792-4.266 35.689-9.994 53.182-4.027 12.179-8.982 24.013-15.18 35.104-2.723 4.85-5.648 9.559-8.86 13.98-.257-.346-.501-.662-.76-1.013-8.895-12.064-16.957-24.19-26.294-38.24l-4.44-6.697c10.353-15.611 20.579-31.152 31.77-45.802a147.524 147.524 0 0 1 9.026 14.824c1.512 2.207 3.726 3.334 5.88 3.278a6.862 6.862 0 0 0 6.863-6.864c-.092-1.07-.288-2.29-.64-3.032-.466-.993-1.051-1.927-1.589-2.883-3.15-5.632-6.677-11.164-10.66-16.425 3.702-4.357 8.38-9.262 11.74-12.088 3.175-2.67 5.364-4.901 8.509-4.37 1.17.196 1.877 1.69 2.458 2.571zm-69.93-1.618c9.49-.292 19.005 5.645 26.929 13.009 1.298 1.246 2.538 2.561 3.753 3.903-.498.648-1.002 1.292-1.495 1.936-10.67 13.824-20.36 28.213-29.935 42.526-9.363-14.123-18.838-28.288-29.25-41.898-.491-.646-.991-1.295-1.487-1.94a78.646 78.646 0 0 1 4.45-4.638c7.976-7.347 17.547-13.243 27.035-12.9zM93.182 85.98c11.027 14.271 21.117 29.392 31.278 44.58-10.506 15.692-20.878 31.316-32.238 46.01l-.547.694a146.961 146.961 0 0 1-7.774-12.33c-5.626-9.972-10.244-20.553-14.091-31.448 4.047-12.005 8.996-23.655 15.151-34.558 2.549-4.49 5.269-8.84 8.221-12.948zm38.652 55.603l2.37 3.544c9.198 13.711 17.94 26.124 27.377 37.864.707.884 1.411 1.752 2.116 2.617a80.668 80.668 0 0 1-4.842 5.116c-8.045 7.533-17.84 13.588-27.778 13.35-9.935.286-19.785-5.725-27.88-13.24a79.302 79.302 0 0 1-3.462-3.547 459.46 459.46 0 0 0 2.38-3.109c10.603-13.857 20.218-28.263 29.719-42.595zm-66.977 8.439a198.235 198.235 0 0 0 9.728 20.14c3.008 5.421 6.356 10.74 10.113 15.806-4.033 4.8-8.656 9.145-12.862 12.927-2.28 2.049-4.98 4.94-8.01 4.5-1.075-.157-1.606-.806-2.267-2.342-1.597-3.713-1.933-8.771-2.057-14.293 0-12.251 2.139-24.55 5.355-36.738z" fill="#58d076"/></svg>