<svg xmlns="http://www.w3.org/2000/svg" width="2066.311" height="330.06" viewBox="0 0 546.711 87.328"><path d="M174.639 54.597v27.36h2.714v-27.36zm89.734 0v27.36h2.715v-27.36zm-46.98 2.182V77.627h3.011V56.779zm132.851 0V77.627h3.014V71.06a5.01 5.01 0 0 0 .66-.074l4.705 6.64h3.672l-5.842-8.21c.187-.214.35-.395.621-.75l.003-.004 4.817-6.207h-3.734l-3.545 4.539c-.445.563-.663.829-.908 1.025-.133.1-.309.075-.448.1v-11.34zm-237.312.029l-5.666 7.688-.002.002c-.627.865-.938 1.246-1.207 1.38-.116.059-.276.043-.407.061v-9.13h-3.134v20.818h3.134v-8.68a5.06 5.06 0 0 0 1.18-.194l6.55 8.874h3.835l-7.899-10.711c.282-.365.575-.768.784-1.069l.008-.01 6.658-9.03zm86.176 0l-5.666 7.688v.002c-.627.865-.938 1.246-1.207 1.38-.117.059-.277.043-.409.061v-9.13h-3.133v20.818h3.133v-8.68c.324-.01.707-.065 1.18-.194l6.55 8.874h3.834l-7.898-10.711c.282-.365.577-.768.785-1.069l.008-.01 6.658-9.03zm78.275 0v3.014h5.615v17.805h3.133V59.822h5.617v-3.014zm39.08 0V77.627h3.014v-8.11c0-.926.003-1.686.101-2.281.099-.596.275-1.01.629-1.365.418-.418 1.07-.733 1.944-.733.874 0 1.526.315 1.945.733.354.354.53.77.629 1.365.098.595.101 1.355.101 2.281v8.11h3.014v-8.11c0-2.09-.003-4.004-1.496-5.6-.77-.835-2.145-1.671-4.043-1.671-1.13 0-2.057.486-2.824 1.132v-6.57zm29.336.508c-1.023 0-1.865.81-1.865 1.865 0 1.056.842 1.865 1.865 1.865a1.853 1.853 0 0 0 1.865-1.865 1.854 1.854 0 0 0-1.865-1.865zm-188.77 1.733v13.036c0 1.702 0 2.998.936 4.17.753.959 2 1.549 3.44 1.549 1.177 0 2.207-.39 3.05-.828l.406-.21-1.314-2.587-.414.217c-.64.334-1.274.516-1.729.516-.542 0-.825-.17-1.043-.43-.158-.206-.224-.36-.27-.707-.045-.352-.048-.883-.048-1.69V65.2h3.586v-2.776h-3.586V59.05zm66.164 0v13.036c0 1.702 0 2.998.936 4.17.753.959 2 1.549 3.44 1.549 1.177 0 2.207-.39 3.05-.828l.406-.21-1.316-2.587-.412.217c-.64.334-1.274.516-1.729.516-.542 0-.827-.17-1.045-.43-.158-.206-.222-.36-.267-.707-.046-.352-.049-.883-.049-1.69V65.2h3.584v-2.776h-3.584V59.05zm-86.587 3.197c-1.954 0-3.36.834-4.157 1.664-1.53 1.595-1.533 3.516-1.533 5.607v8.11h3.014v-8.11c0-.926.005-1.686.103-2.281.099-.596.275-1.01.629-1.365.418-.418 1.07-.733 1.944-.733.873 0 1.526.315 1.945.733.354.354.53.77.628 1.365.1.595.102 1.355.102 2.281v8.11h3.014v-8.11c0-2.091-.003-4.012-1.533-5.607-.797-.83-2.203-1.664-4.156-1.664zm12.843 0c-1.292 0-2.442.288-3.398.947-.971.67-1.813 1.855-1.813 3.396 0 1.45.774 2.655 1.764 3.414.991.76 2.143 1.037 3.11 1.248.949.208 1.617.377 2.183.787.378.285.65.717.65 1.243 0 .38-.147.826-.59 1.152-.454.335-1.093.479-1.906.479a9.058 9.058 0 0 1-3.779-.825l-.418-.193-1.225 2.625.416.197c1.592.75 3.33 1.088 5.006 1.088 1.441 0 2.686-.319 3.703-1.04a4.263 4.263 0 0 0 1.807-3.483c0-1.665-.938-2.908-1.955-3.631-.923-.66-1.978-.938-3.067-1.18-1.072-.238-1.6-.368-2.111-.777h-.002l-.002-.002c-.329-.259-.57-.636-.57-1.102 0-.49.257-.871.638-1.095.432-.254.861-.356 1.559-.356 1.118 0 2.31.284 3.387.793l.433.205 1.14-2.674-.403-.187a10.81 10.81 0 0 0-4.557-1.03zm102.395 0c-1.468 0-3.342.444-4.623 1.955a5.02 5.02 0 0 0-1.149 2.45c-.16.889-.156 1.865-.156 3.075v7.9h3.014v-7.9c0-1.882.036-3.008.605-3.672l.003-.004.004-.003c.45-.545 1.338-.909 2.303-.909.453 0 .88.081 1.248.213l.443.158.922-2.76-.43-.15a6.62 6.62 0 0 0-2.183-.353zm44.345 0c-2.233 0-4.179.816-5.244 2.314-1.152 1.601-1.16 3.136-1.16 5.465 0 1.942-.012 3.87 1.223 5.56h.003v.003c1.056 1.418 2.858 2.216 5.031 2.216 1.618 0 3.245-.342 4.72-1.096l.403-.205-1.272-2.628-.421.222c-1 .528-2.217.815-3.43.815-1.338 0-2.111-.385-2.617-1.069-.447-.601-.542-1.87-.567-2.73h2.258c2.121 0 3.552.002 4.928-.98a4.03 4.03 0 0 0 1.688-3.304V66.816c-.034-1.307-.666-2.53-1.66-3.36l-.005-.002-.004-.003c-.989-.791-2.3-1.205-3.873-1.205zm13.268 0c-2.027 0-3.608.774-4.621 1.95-1.541 1.773-1.516 4.157-1.516 5.71 0 1.762-.028 4.206 1.551 5.982 1.01 1.14 2.56 1.916 4.586 1.916a8.264 8.264 0 0 0 4.559-1.361l.376-.252-1.577-2.453-.393.27a5.24 5.24 0 0 1-2.965.904c-1.062 0-1.81-.344-2.28-.887-.794-.919-.843-2.596-.843-4.12 0-1.314.05-2.964.814-3.85.605-.707 1.463-.917 2.31-.917.98 0 2.01.307 2.83.826l.4.253 1.488-2.495-.379-.24a8.112 8.112 0 0 0-4.34-1.236zm26.457 0c-1.953 0-3.36.834-4.156 1.664-1.53 1.595-1.534 3.516-1.534 5.607v8.11h3.014v-8.11c0-.926.003-1.686.102-2.281.099-.596.274-1.01.629-1.365.418-.418 1.071-.733 1.945-.733.874 0 1.525.315 1.944.733.354.354.53.77.628 1.365.1.595.104 1.355.104 2.281v8.11h3.014v-8.11c0-2.091-.003-4.012-1.534-5.607-.797-.83-2.203-1.664-4.156-1.664zm-218.768.177v8.11c0 2.09.003 4.012 1.533 5.607.797.83 2.203 1.664 4.157 1.664 1.953 0 3.36-.834 4.156-1.664 1.53-1.595 1.533-3.516 1.533-5.607v-8.11h-3.013v8.11c0 .926-.003 1.686-.102 2.281-.098.595-.274 1.01-.629 1.365-.418.419-1.071.733-1.945.733-.874 0-1.525-.314-1.943-.733-.355-.354-.53-.77-.63-1.365-.098-.595-.103-1.355-.103-2.281v-8.11zm86.178 0v8.11c0 2.09.001 4.012 1.532 5.607.796.83 2.203 1.664 4.156 1.664 1.953 0 3.36-.834 4.156-1.664h.002c1.53-1.595 1.532-3.516 1.532-5.607v-8.11h-3.014v8.11c0 .926-.003 1.686-.102 2.281-.098.595-.274 1.01-.629 1.365-.418.419-1.07.733-1.945.733-.874 0-1.525-.314-1.943-.733-.355-.354-.53-.77-.63-1.365-.098-.595-.1-1.355-.1-2.281v-8.11zm28.822 0v8.11c0 2.09.001 4.012 1.531 5.607.797.83 2.206 1.664 4.159 1.664 1.953 0 3.36-.834 4.156-1.664 1.53-1.595 1.531-3.516 1.531-5.607v-8.11h-3.013v8.11c0 .926-.003 1.686-.102 2.281-.098.595-.274 1.01-.629 1.365-.418.419-1.07.733-1.943.733-.874 0-1.527-.314-1.945-.733-.355-.354-.53-.77-.63-1.365-.098-.595-.1-1.355-.1-2.281v-8.11zm112.147 0v15.204h3.014V62.423zm-48.104 2.715c.857 0 1.53.204 1.919.524l.003.002.004.002c.327.262.571.755.597 1.175-.005.53-.245.894-.529 1.113h-.003v.003c-.234.178-.497.272-.974.326-.478.055-1.15.057-2.09.057h-2.252c.029-.684.126-1.646.6-2.196l.002-.002v-.002c.546-.645 1.47-1.002 2.725-1.002z" color="#000" font-weight="400" font-family="Gidolinya" white-space="normal" overflow="visible"/><path d="M44.382 3.344c-6.894.164-12.937 3.608-17.355 8.026a47.46 47.46 0 0 0-1.759 1.816c-1.77-2.02-3.682-3.96-5.83-5.71-1.69-1.55-4.124-3.356-7.347-3.317-2.955.036-5.065 2.06-5.934 4.254-1.328 3.081-1.548 6.248-1.502 9.078 0 8.723 1.9 17.236 4.488 25.35-.017.032-.022.062-.032.095-2.89 8.663-5.072 17.84-5.08 27.287-.058 2.852.18 6.105 1.558 9.336.916 2.37 3.21 4.575 6.502 4.622 3.49.05 6.051-1.862 7.74-3.454 2.332-1.905 4.381-4.02 6.27-6.207.441.467.89.93 1.354 1.38 4.358 4.333 10.257 7.72 16.926 7.855 6.67-.11 12.597-3.476 16.98-7.8.736-.71 1.436-1.45 2.12-2.202 1.97 2.16 4.026 4.144 6.33 5.885 1.83 1.497 4.147 2.864 6.862 2.88 2.457-.228 4.105-1.936 4.78-3.735 1.152-2.943 1.118-6.027.972-8.559-.269-5.175-1.39-9.974-2.3-13.36.457 3.482.986 8.39.726 13.36-.144 2.48-.37 5.347-1.55 7.588-.628 1.096-1.692 2.153-2.628 1.927-1.575.024-3.059-1.262-4.815-2.644-2.147-1.842-4.028-3.94-5.9-6.278 2.098-2.687 3.935-5.544 5.57-8.46 3.178-5.648 5.712-11.612 7.75-17.702 2.916-8.63 5.13-17.76 5.172-27.163.064-2.84-.154-6.056-1.502-9.232-.89-2.302-3.105-4.447-6.275-4.497-3.392-.055-5.92 1.81-7.615 3.382-2.143 1.735-4.055 3.652-5.822 5.642a47.165 47.165 0 0 0-1.45-1.467c-4.442-4.41-10.51-7.834-17.405-7.975zM11.944 8.968c1.803-.07 3.308 1.463 4.463 2.272 2.07 1.644 3.941 3.591 5.735 5.682-2 2.622-3.758 5.388-5.32 8.207a95.676 95.676 0 0 0-4.743 9.83c-1.51-5.782-2.51-11.628-2.509-17.468.05-2.66.11-5.155 1.037-7.07.35-.755.743-1.43 1.337-1.453zm65.885 1.6c.908 1.825.973 4.274 1.038 6.923.042 8.51-2.04 17.07-4.78 25.437-1.926 5.825-4.296 11.485-7.26 16.79-1.303 2.32-2.702 4.572-4.238 6.687-.123-.166-.24-.317-.364-.485-4.254-5.77-8.11-11.57-12.576-18.29l-2.124-3.203c4.952-7.467 9.843-14.9 15.196-21.907a70.56 70.56 0 0 1 4.317 7.09c.723 1.056 1.782 1.595 2.812 1.568a3.282 3.282 0 0 0 3.283-3.283c-.044-.512-.138-1.095-.306-1.45-.223-.475-.503-.922-.76-1.379-1.507-2.694-3.194-5.34-5.099-7.856 1.771-2.084 4.008-4.43 5.615-5.782 1.52-1.277 2.566-2.344 4.07-2.09.56.094.898.808 1.176 1.23zm-33.447-.774c4.54-.14 9.09 2.7 12.88 6.222a36.837 36.837 0 0 1 1.795 1.867c-.238.31-.479.618-.715.926-5.103 6.612-9.738 13.494-14.318 20.34-4.478-6.755-9.01-13.53-13.99-20.04-.235-.309-.474-.619-.71-.928a37.616 37.616 0 0 1 2.127-2.218c3.815-3.514 8.393-6.334 12.931-6.17zM26.257 22.02c5.274 6.826 10.1 14.058 14.96 21.323-5.025 7.505-9.986 14.978-15.419 22.006l-.262.332a70.291 70.291 0 0 1-3.718-5.897c-2.69-4.77-4.9-9.83-6.74-15.042 1.936-5.742 4.303-11.314 7.247-16.529 1.22-2.147 2.52-4.228 3.932-6.193zm18.487 26.595l1.134 1.695c4.4 6.558 8.58 12.495 13.094 18.11.338.423.675.838 1.012 1.252a38.583 38.583 0 0 1-2.316 2.447c-3.848 3.603-8.533 6.5-13.286 6.385-4.752.137-9.463-2.738-13.335-6.333a37.93 37.93 0 0 1-1.656-1.696c.384-.497.764-.993 1.14-1.487C35.6 62.36 40.2 55.47 44.743 48.615zM12.71 52.651a94.815 94.815 0 0 0 4.653 9.633c1.44 2.593 3.04 5.137 4.837 7.56-1.929 2.296-4.14 4.374-6.152 6.183-1.09.98-2.382 2.363-3.83 2.152-.515-.075-.769-.385-1.085-1.12-.764-1.776-.925-4.195-.984-6.836 0-5.86 1.023-11.742 2.561-17.572z"/><path d="M380 9.17v33.656h4.865V9.169zm-269.166.048c-2.122 0-4.307-.015-6.125 1.528l-.004.004-.004.003a5.988 5.988 0 0 0-1.924 3.217c-.268 1.146-.26 2.31-.26 3.467v25.389h5.057v-14.9h11.383V23.06h-11.383v-5.623c0-.989.008-1.726.091-2.211.084-.484.189-.67.436-.86.154-.114.338-.187.767-.234.432-.046 1.074-.049 1.966-.049h10.533V9.218zm114.04 0v25.389c0 1.158-.007 2.32.26 3.467a5.993 5.993 0 0 0 1.925 3.219l.004.003.004.004c1.818 1.543 4.003 1.526 6.125 1.526h10.053V37.96h-10.053c-.892 0-1.533-.002-1.965-.048-.429-.047-.614-.118-.768-.233-.247-.19-.351-.378-.435-.861-.084-.485-.09-1.222-.09-2.21V9.217zm42.837 0v21.676c0 3.617-.006 6.259 1.78 8.728 1.5 2.09 4.152 3.495 7.403 3.495 3.093 0 5.6-1.24 7.231-2.871l.003-.003.003-.003c2.914-2.967 2.914-6.646 2.914-9.588 0-3.28.018-6.708-2.342-9.541-1.544-1.864-4.036-3.115-7.084-3.115-1.96 0-3.644.87-5.04 2.085V9.218zm74.717 0v33.608h5.058V27.972h12.594v14.854h5.056V9.218h-5.056v13.89h-12.594V9.217zm60.683 0v10.866c-1.396-1.218-3.081-2.088-5.043-2.088-3.047 0-5.54 1.251-7.084 3.115-2.359 2.833-2.341 6.262-2.341 9.54 0 2.943 0 6.623 2.914 9.589l.004.003.003.003c1.63 1.63 4.138 2.87 7.23 2.87 3.25 0 5.902-1.403 7.402-3.492 1.787-2.47 1.782-5.113 1.782-8.73V9.218zm50.737 0v33.608h4.865v-13.09c0-1.495.007-2.72.166-3.682.16-.96.443-1.633 1.015-2.205.676-.675 1.728-1.182 3.14-1.182 1.41 0 2.463.507 3.138 1.182.572.572.856 1.244 1.015 2.205.16.961.165 2.187.165 3.682v13.09h4.865v-13.09c0-3.374-.003-6.465-2.416-9.041-1.241-1.349-3.463-2.7-6.527-2.7-1.826 0-3.322.787-4.56 1.83V9.219zm-290.227.82a2.991 2.991 0 0 0-3.012 3.01 2.993 2.993 0 0 0 3.012 3.012 2.993 2.993 0 0 0 3.012-3.012c0-1.705-1.36-3.01-3.012-3.01zm209.203 0a2.99 2.99 0 0 0-3.01 3.01 2.991 2.991 0 0 0 3.01 3.012 2.993 2.993 0 0 0 3.012-3.012c0-1.705-1.36-3.01-3.012-3.01zm128.01 0a2.991 2.991 0 0 0-3.012 3.01 2.993 2.993 0 0 0 3.012 3.012 2.993 2.993 0 0 0 3.012-3.012c0-1.705-1.36-3.01-3.012-3.01zm-352.121 7.957c-3.606 0-6.75 1.319-8.469 3.737l.004-.002c-1.863 2.587-1.877 5.064-1.877 8.826 0 3.135-.017 6.247 1.977 8.975l.002.003.002.003c1.704 2.29 4.612 3.58 8.12 3.58 2.612 0 5.238-.553 7.62-1.77l.65-.332-2.052-4.244-.682.36c-1.615.852-3.579 1.312-5.537 1.312-2.16 0-3.405-.62-4.222-1.723l-.002-.002c-.72-.97-.874-3.015-.914-4.404h3.644c3.424 0 5.736 0 7.957-1.586a6.503 6.503 0 0 0 2.723-5.332v-.02c-.054-2.11-1.075-4.085-2.68-5.423l-.006-.006-.006-.004c-1.597-1.277-3.712-1.948-6.252-1.948zm31.46 0c-3.605 0-6.748 1.319-8.468 3.737l.004-.002c-1.863 2.587-1.877 5.064-1.877 8.826 0 3.135-.019 6.247 1.975 8.975l.002.003.002.003c1.705 2.29 4.614 3.58 8.121 3.58 2.613 0 5.238-.553 7.621-1.77l.649-.332-2.051-4.244-.682.36c-1.615.852-3.578 1.312-5.537 1.312-2.16 0-3.407-.62-4.224-1.723v-.002c-.72-.97-.876-3.015-.917-4.404h3.647c3.424 0 5.734 0 7.955-1.586a6.505 6.505 0 0 0 2.725-5.332v-.02c-.054-2.11-1.075-4.085-2.68-5.423l-.006-.006-.006-.004c-1.597-1.277-3.712-1.948-6.252-1.948zm19.682 0c-2.086 0-3.942.466-5.486 1.53-1.568 1.081-2.926 2.996-2.926 5.484 0 2.34 1.25 4.284 2.848 5.51 1.6 1.227 3.46 1.676 5.02 2.017 1.533.336 2.612.608 3.527 1.272.61.46 1.049 1.156 1.049 2.004 0 .616-.237 1.335-.951 1.861-.734.54-1.768.77-3.08.77-2.111 0-4.225-.46-6.1-1.329l-.674-.312-1.979 4.238.672.317c2.57 1.21 5.375 1.76 8.08 1.76 2.327 0 4.336-.516 5.979-1.682 1.674-1.188 2.918-3.199 2.918-5.623 0-2.688-1.515-4.695-3.158-5.861-1.49-1.064-3.192-1.516-4.95-1.907-1.731-.385-2.585-.593-3.41-1.253l-.002-.003-.002-.002c-.53-.417-.921-1.024-.921-1.777 0-.79.416-1.407 1.03-1.77.697-.409 1.39-.572 2.516-.572 1.805 0 3.732.457 5.47 1.28l.7.332 1.84-4.319-.652-.304c-2.263-1.057-4.781-1.66-7.358-1.66zm221.83 0c-3.606 0-6.747 1.319-8.466 3.737-1.861 2.586-1.875 5.064-1.875 8.824 0 3.135-.017 6.247 1.977 8.975l.003.003.003.003c1.704 2.29 4.613 3.58 8.121 3.58 2.613 0 5.238-.553 7.62-1.77l.65-.332-2.051-4.244-.684.36c-1.615.852-3.577 1.312-5.535 1.312-2.16 0-3.408-.62-4.225-1.723v-.002c-.72-.97-.875-3.015-.916-4.404h3.644c3.425 0 5.736 0 7.958-1.586a6.503 6.503 0 0 0 2.722-5.332v-.02c-.054-2.11-1.074-4.085-2.68-5.423l-.006-.006-.006-.004c-1.596-1.277-3.71-1.948-6.251-1.948zm19.684 0c-2.086 0-3.943.466-5.486 1.53-1.568 1.081-2.928 2.996-2.928 5.484 0 2.34 1.25 4.284 2.848 5.51 1.6 1.227 3.462 1.676 5.021 2.017 1.533.336 2.611.609 3.526 1.272.61.46 1.049 1.156 1.049 2.004 0 .616-.238 1.335-.952 1.861-.733.54-1.765.77-3.078.77-2.11 0-4.227-.46-6.101-1.329l-.674-.312-1.979 4.238.672.317c2.57 1.21 5.377 1.76 8.082 1.76 2.326 0 4.334-.516 5.977-1.682 1.674-1.188 2.917-3.199 2.917-5.623 0-2.688-1.512-4.695-3.155-5.861-1.49-1.064-3.194-1.516-4.952-1.907-1.731-.385-2.583-.593-3.408-1.253l-.004-.003-.003-.002c-.531-.417-.922-1.024-.922-1.777 0-.79.418-1.407 1.033-1.77.697-.409 1.39-.572 2.516-.572 1.805 0 3.731.457 5.469 1.28l.699.332 1.84-4.319-.653-.304c-2.263-1.057-4.779-1.66-7.355-1.66zm44.556 0c-3.606 0-6.747 1.319-8.466 3.737-1.861 2.586-1.876 5.064-1.876 8.824 0 3.135-.017 6.247 1.977 8.975l.003.003.003.003c1.705 2.29 4.613 3.58 8.12 3.58 2.614 0 5.24-.553 7.622-1.77l.649-.332-2.053-4.244-.682.36c-1.615.852-3.577 1.312-5.535 1.312-2.16 0-3.408-.62-4.225-1.723v-.002c-.72-.97-.876-3.015-.916-4.404h3.645c3.424 0 5.736 0 7.957-1.586a6.503 6.503 0 0 0 2.722-5.332v-.02c-.054-2.11-1.073-4.085-2.68-5.423l-.005-.006-.006-.004c-1.597-1.277-3.712-1.948-6.252-1.948zm-352.855 0c-2.37 0-5.396.717-7.464 3.157-1.044 1.226-1.595 2.518-1.854 3.955-.259 1.437-.252 3.013-.252 4.967v12.752h4.865V30.074c0-3.039.06-4.859.979-5.93l.004-.006.004-.004c.726-.879 2.162-1.467 3.719-1.467.732 0 1.42.13 2.015.342l.717.256 1.484-4.455-.691-.242c-1.05-.367-2.24-.572-3.525-.572zm121.904 0c-2.714 0-5.26.604-7.583 1.444l-.692.25 1.557 4.457.715-.274c1.96-.746 3.994-1.205 6.003-1.205 1.702 0 2.697.419 3.352 1.15.764.862.89 2.196.922 3.485h-3.164c-1.88 0-4.79-.022-7.283 1.781-1.706 1.227-3.155 3.342-3.155 6.151 0 2.764 1.445 4.922 3.211 6.154 0 0 0 .002.003.002 1.704 1.22 3.846 1.727 6.26 1.727 3.034 0 5.554-.88 7.174-2.77 1.866-2.186 1.867-4.678 1.867-7.91V28.87c0-2.556.026-5.653-2.115-8.065-1.6-1.813-4.02-2.808-7.07-2.808zm44.862 0c-3.648 0-6.722 1.676-8.402 4.46-1.53 2.53-1.506 5.352-1.506 8.101 0 2.75-.023 5.571 1.506 8.102 1.68 2.783 4.754 4.459 8.402 4.459 3.648 0 6.722-1.676 8.402-4.46 1.529-2.53 1.506-5.352 1.506-8.1 0-2.75.023-5.572-1.506-8.103-1.68-2.783-4.754-4.458-8.402-4.458zm22.846 0c-2.37 0-5.395.718-7.463 3.157-1.044 1.226-1.595 2.518-1.854 3.955-.259 1.437-.254 3.013-.254 4.967v12.752h4.866V30.074c0-3.039.06-4.859.978-5.93l.004-.006.004-.004c.726-.879 2.162-1.467 3.719-1.467.732 0 1.42.13 2.015.342l.717.256 1.486-4.455-.693-.242c-1.05-.367-2.24-.572-3.525-.572zm193.546 0c-2.445 0-4.604.88-6.06 2.282-1.321 1.268-2.001 2.767-2.324 4.361-.323 1.594-.317 3.29-.317 5.098v13.09h4.865v-13.09c0-1.592.004-2.905.17-3.92.166-1.015.464-1.7 1.042-2.24.562-.525 1.488-.909 2.624-.909 1.137 0 2.065.384 2.628.909.578.54.873 1.225 1.038 2.24.166 1.015.172 2.328.172 3.92v13.09h4.866v-13.09c0-1.592.004-2.905.17-3.92.165-1.015.463-1.7 1.04-2.24.563-.525 1.489-.909 2.626-.909 1.136 0 2.064.384 2.626.909.578.54.874 1.225 1.04 2.24.165 1.015.172 2.328.172 3.92v13.09h4.864v-13.09c0-1.809.006-3.504-.316-5.098-.323-1.594-1.002-3.093-2.324-4.361-1.456-1.403-3.616-2.281-6.062-2.281-2.593 0-4.79 1.082-6.27 2.935-1.48-1.853-3.677-2.935-6.27-2.935zm-355.04.29v24.54h4.865v-24.54zm209.204 0v24.54h4.865v-24.54zm128.01 0v24.54h4.865v-24.54zm-349.69 4.382h.001c1.383 0 2.47.329 3.096.844l.004.002.004.004c.53.425.928 1.225.969 1.906-.01.854-.403 1.44-.862 1.793-.379.289-.801.438-1.572.526-.771.088-1.856.091-3.375.091h-3.633c.047-1.104.2-2.655.965-3.543l.004-.003.002-.002c.881-1.042 2.372-1.618 4.398-1.618zm31.462 0c1.383 0 2.47.329 3.096.844l.004.002.004.004c.53.425.928 1.225.969 1.906-.01.854-.403 1.44-.862 1.793-.379.289-.802.438-1.572.526-.772.088-1.856.091-3.375.091h-3.635c.047-1.104.202-2.655.967-3.543l.002-.003.004-.002c.881-1.042 2.371-1.618 4.398-1.618zm97.203 0c1.65 0 2.816.591 3.533 1.428 1.196 1.395 1.268 3.856 1.268 6.557 0 2.46-.032 4.71-1.49 6.295v.002h-.004c-.886.967-2.326 1.494-3.79 1.494-1.335 0-2.54-.417-3.335-1.371-.925-1.12-.984-2.996-.984-5.55 0-3.57.072-6.032 1.268-7.427.717-.837 1.883-1.428 3.533-1.428zm22.46 0c1.918 0 3.282.748 4.106 1.985.88 1.32.936 3.445.936 5.904 0 2.46-.056 4.584-.936 5.904-.824 1.237-2.188 1.983-4.107 1.983s-3.28-.746-4.106-1.983c-.88-1.32-.937-3.444-.937-5.904s.057-4.584.937-5.904c.825-1.237 2.187-1.985 4.106-1.985zm98.474 0c1.65 0 2.815.591 3.533 1.428 1.196 1.395 1.267 3.857 1.267 7.426 0 2.556-.06 4.433-.986 5.553-.795.952-1.998 1.37-3.332 1.37-1.465 0-2.907-.529-3.793-1.495v-.003c-1.459-1.583-1.492-3.835-1.492-6.294 0-2.7.072-5.162 1.267-6.557.718-.837 1.886-1.428 3.536-1.428zm23.374 0c1.383 0 2.47.329 3.096.844l.004.002.004.004c.53.424.927 1.223.969 1.903-.008.856-.402 1.443-.862 1.796-.378.288-.8.438-1.57.526-.772.088-1.858.091-3.377.091h-3.632c.047-1.104.202-2.655.967-3.543l.003-.003.003-.002c.88-1.042 2.371-1.618 4.398-1.618zm64.24 0c1.384 0 2.47.328 3.096.844l.004.002.004.004c.53.424.928 1.223.97 1.903-.009.856-.403 1.443-.862 1.796-.379.288-.801.438-1.57.526-.772.088-1.859.091-3.378.091h-3.633c.047-1.104.203-2.655.967-3.543l.003-.003.003-.002c.882-1.042 2.372-1.618 4.398-1.618zm-229.841 9.116h3.211v.654c0 1.423-.006 2.49-.11 3.271-.103.782-.281 1.244-.626 1.643l-.003.002-.003.002c-.613.721-1.759 1.088-3.436 1.088-1.447 0-2.657-.29-3.38-.783a2.943 2.943 0 0 1-1.227-2.426c0-1.255.594-2.129 1.283-2.627 1.104-.786 2.65-.824 4.289-.824z" /></svg>
