<svg xmlns="http://www.w3.org/2000/svg" width="1000" height="301.164" viewBox="0 0 264.583 79.683" id="svg8"><g id="layer1" transform="translate(-132.468 -319.27)"><path id="rect263" fill="#fff" stroke-width=".174" stroke-linecap="round" d="M132.468 319.27h264.583v79.683H132.468z"/><g transform="rotate(3.145 6814.359 785.064) scale(2.6047)" id="g2149" stroke-linecap="square"><path d="M62.324 281.832a2.067 2.067 0 0 0-.643-.798 2.744 2.744 0 0 0-.93-.43 4.229 4.229 0 0 0-2.52.11 3.39 3.39 0 0 0-.915.485 2.39 2.39 0 0 0-.672.784 1.48 1.48 0 0 0-.172.575.946.946 0 0 0 .139.577.89.89 0 0 0 .36.31c.144.07.304.104.464.108.32.01.633-.096.922-.234.652-.311 1.211-.784 1.812-1.186.347-.232.722-.445 1.136-.501a1.63 1.63 0 0 1 1.019.2z" id="path2145" transform="translate(1.386 -.033)" fill="#f8bc92"/><path d="M57.361 281.627a4.096 4.096 0 0 1 2.149-1.392c.671-.175 1.395-.172 2.05.054.656.227 1.239.684 1.574 1.291a.762.762 0 0 1 .115.36.37.37 0 0 1-.045.183.277.277 0 0 1-.142.123.326.326 0 0 1-.162.012c-.054-.008-.106-.026-.158-.044-.58-.195-1.16-.394-1.754-.544a8.294 8.294 0 0 0-1.56-.25 6.697 6.697 0 0 0-2.067.207z" id="path2147" transform="rotate(-16.231 64.326 273.926)" fill="#f48024"/></g><g id="g2155" transform="rotate(74.531 430.81 558.888) scale(2.6047)" stroke-linecap="square"><path transform="translate(1.386 -.033)" id="path2151" d="M62.324 281.832a2.067 2.067 0 0 0-.643-.798 2.744 2.744 0 0 0-.93-.43 4.229 4.229 0 0 0-2.52.11 3.39 3.39 0 0 0-.915.485 2.39 2.39 0 0 0-.672.784 1.48 1.48 0 0 0-.172.575.946.946 0 0 0 .139.577.89.89 0 0 0 .36.31c.144.07.304.104.464.108.32.01.633-.096.922-.234.652-.311 1.211-.784 1.812-1.186.347-.232.722-.445 1.136-.501a1.63 1.63 0 0 1 1.019.2z" fill="#f8bc92"/><path transform="rotate(-16.231 64.326 273.926)" id="path2153" d="M57.361 281.627a4.096 4.096 0 0 1 2.149-1.392c.671-.175 1.395-.172 2.05.054.656.227 1.239.684 1.574 1.291a.762.762 0 0 1 .115.36.37.37 0 0 1-.045.183.277.277 0 0 1-.142.123.326.326 0 0 1-.162.012c-.054-.008-.106-.026-.158-.044-.58-.195-1.16-.394-1.754-.544a8.294 8.294 0 0 0-1.56-.25 6.697 6.697 0 0 0-2.067.207z" fill="#f48024"/></g><g transform="rotate(50.175 583.218 564.657) scale(2.6047)" id="g2161" stroke-linecap="square"><path d="M62.324 281.832a2.067 2.067 0 0 0-.643-.798 2.744 2.744 0 0 0-.93-.43 4.229 4.229 0 0 0-2.52.11 3.39 3.39 0 0 0-.915.485 2.39 2.39 0 0 0-.672.784 1.48 1.48 0 0 0-.172.575.946.946 0 0 0 .139.577.89.89 0 0 0 .36.31c.144.07.304.104.464.108.32.01.633-.096.922-.234.652-.311 1.211-.784 1.812-1.186.347-.232.722-.445 1.136-.501a1.63 1.63 0 0 1 1.019.2z" id="path2157" transform="translate(1.386 -.033)" fill="#f8bc92"/><path d="M57.361 281.627a4.096 4.096 0 0 1 2.149-1.392c.671-.175 1.395-.172 2.05.054.656.227 1.239.684 1.574 1.291a.762.762 0 0 1 .115.36.37.37 0 0 1-.045.183.277.277 0 0 1-.142.123.326.326 0 0 1-.162.012c-.054-.008-.106-.026-.158-.044-.58-.195-1.16-.394-1.754-.544a8.294 8.294 0 0 0-1.56-.25 6.697 6.697 0 0 0-2.067.207z" id="path2159" transform="rotate(-16.231 64.326 273.926)" fill="#f48024"/></g><g transform="rotate(33.454 800.38 572.016) scale(2.6047)" id="g2167" stroke-linecap="square"><path d="M62.324 281.832a2.067 2.067 0 0 0-.643-.798 2.744 2.744 0 0 0-.93-.43 4.229 4.229 0 0 0-2.52.11 3.39 3.39 0 0 0-.915.485 2.39 2.39 0 0 0-.672.784 1.48 1.48 0 0 0-.172.575.946.946 0 0 0 .139.577.89.89 0 0 0 .36.31c.144.07.304.104.464.108.32.01.633-.096.922-.234.652-.311 1.211-.784 1.812-1.186.347-.232.722-.445 1.136-.501a1.63 1.63 0 0 1 1.019.2z" id="path2163" transform="translate(1.386 -.033)" fill="#f8bc92"/><path d="M57.361 281.627a4.096 4.096 0 0 1 2.149-1.392c.671-.175 1.395-.172 2.05.054.656.227 1.239.684 1.574 1.291a.762.762 0 0 1 .115.36.37.37 0 0 1-.045.183.277.277 0 0 1-.142.123.326.326 0 0 1-.162.012c-.054-.008-.106-.026-.158-.044-.58-.195-1.16-.394-1.754-.544a8.294 8.294 0 0 0-1.56-.25 6.697 6.697 0 0 0-2.067.207z" id="path2165" transform="rotate(-16.231 64.326 273.926)" fill="#f48024"/></g><g transform="rotate(18.439 1315.394 588.511) scale(2.6047)" id="g2173" stroke-linecap="square"><path d="M62.324 281.832a2.067 2.067 0 0 0-.643-.798 2.744 2.744 0 0 0-.93-.43 4.229 4.229 0 0 0-2.52.11 3.39 3.39 0 0 0-.915.485 2.39 2.39 0 0 0-.672.784 1.48 1.48 0 0 0-.172.575.946.946 0 0 0 .139.577.89.89 0 0 0 .36.31c.144.07.304.104.464.108.32.01.633-.096.922-.234.652-.311 1.211-.784 1.812-1.186.347-.232.722-.445 1.136-.501a1.63 1.63 0 0 1 1.019.2z" id="path2169" transform="translate(1.386 -.033)" fill="#f8bc92"/><path d="M57.361 281.627a4.096 4.096 0 0 1 2.149-1.392c.671-.175 1.395-.172 2.05.054.656.227 1.239.684 1.574 1.291a.762.762 0 0 1 .115.36.37.37 0 0 1-.045.183.277.277 0 0 1-.142.123.326.326 0 0 1-.162.012c-.054-.008-.106-.026-.158-.044-.58-.195-1.16-.394-1.754-.544a8.294 8.294 0 0 0-1.56-.25 6.697 6.697 0 0 0-2.067.207z" id="path2171" transform="rotate(-16.231 64.326 273.926)" fill="#f48024"/></g><path id="path2175" d="M186.124 375.098v-10.995h3.698v14.644h-32.936v-14.644h3.648v10.995z" fill="#bcbbbb" stroke-width=".5"/><g transform="translate(62.52 71.015) scale(1.889)" id="g2183" fill="#222426"><path d="M731.537 115.986c-11.709 0-17 8.495-17 16.813v64.414h14.545v-46.086h10.766v-11.152h-10.766v-6.426c0-3.391 1.698-5.283 5.104-5.283h5.662v-12.28h-8.31zm15.3 0v64.42c0 8.31 5.104 16.621 16.999 16.621h8.318v-12.28h-5.67c-3.59 0-5.097-1.7-5.097-5.099v-63.662h-14.55zm-298.083.194v81.033h8.125v-20.399l10.01-10.01 18.707 30.415h10.193l-23.23-36.082 20.02-20.028h-10.196l-25.504 24.746V116.18h-8.125zm186.064 21.902v.008c-15.107 0-25.496 10.767-25.496 29.844 0 23.617 13.224 29.843 27.01 29.843 10.58 0 16.25-3.214 22.104-9.254l-8.881-8.689c-3.777 3.784-6.797 5.477-13.223 5.477-8.125 0-12.852-5.476-12.852-13.03h36.461v-6.426c.193-15.864-9.066-27.773-25.123-27.773zm165.102 0c-8.689 0-14.351 3.407-17.95 7.184-5.283 5.483-6.61 12.094-6.61 22.668 0 10.58 1.327 17.192 6.61 22.668 3.592 3.784 9.447 7.181 17.95 7.181 8.689 0 14.544-3.405 18.135-7.181 5.283-5.476 6.611-12.088 6.611-22.668 0-10.574-1.32-17.185-6.611-22.668-3.591-3.777-9.639-7.176-18.135-7.176v-.008zm-268.803.008c-8.689 0-14.358 3.399-17.949 7.176-5.283 5.483-6.611 12.094-6.611 22.668 0 10.58 1.32 17.192 6.611 22.668 3.591 3.784 9.446 7.181 17.95 7.181 8.688 0 14.54-3.405 18.132-7.181 5.283-5.476 6.611-12.088 6.611-22.668 0-10.574-1.32-17.185-6.611-22.668-3.591-3.777-9.637-7.176-18.133-7.176zm165.287.185c-6.425-.185-11.902 2.834-14.736 6.047v-5.668h-14.166v58.559h14.545v-35.127c0-7.375 4.912-10.774 9.445-10.774 3.591 0 5.476 1.136 7.746 3.399l10.951-10.953c-3.962-3.97-8.116-5.483-13.785-5.483zm-101.818.565l-11.707 36.082-11.902-36.074H555.67l21.539 58.365h11.33l21.348-58.365-15.301-.008zm298.84 0l-9.446 36.082-11.902-36.074h-10.58l-11.894 36.074-9.446-36.074h-15.492l17.947 58.365h11.895l12.281-36.649 12.28 36.649h11.902l17.756-58.365-15.301-.008zm-525.52 1.514c-9.067 0-14.734 1.706-19.646 8.125l5.289 5.283c3.213-4.712 6.99-6.42 14.166-6.42 10.21 0 14.357 4.156 14.357 12.281v5.477h-16.806c-12.466 0-19.264 6.424-19.264 16.248 0 4.533 1.507 8.69 4.156 11.332 3.584 3.59 8.117 5.103 15.863 5.103 7.561 0 11.524-1.513 16.25-6.047v5.477h8.118v-38.154c-.186-12.095-7.553-18.705-22.475-18.705h-.008zm-49.445.146c-3.195 0-6.123.57-8.785 1.71-2.662 1.142-4.983 2.854-6.961 5.136v-6.162H294.5v56.136h8.215v-34.572c0-4.944 1.255-8.671 3.765-11.182 2.51-2.51 5.895-3.765 10.155-3.765s7.607 1.255 10.04 3.765c2.51 2.435 3.766 6.162 3.766 11.182v34.572h8.215v-35.94c0-6.618-1.94-11.828-5.82-15.63-3.499-3.5-8.29-5.249-14.375-5.249zm103.85.047c-14.172 0-24.747 9.638-24.747 28.715 0 19.077 10.767 28.707 24.747 28.707 7.746 0 12.657-2.07 18.511-8.31l-5.668-5.284c-4.155 4.712-7.554 6.418-12.851 6.418-5.47 0-10.002-2.076-13.03-6.424-2.641-3.591-3.591-7.932-3.591-15.107 0-6.997.95-11.339 3.591-15.116 3.028-4.347 7.562-6.425 13.038-6.425 5.283 0 8.688 1.513 12.843 6.232l5.477-5.283c-5.662-6.24-10.574-8.123-18.32-8.123zm-158.784.185c-11.901 0-20.59 6.232-20.59 16.434 0 9.26 5.853 14.173 16.805 15.115l9.262.756c6.425.571 9.252 3.214 9.252 8.12 0 6.61-5.662 9.823-14.922 9.823-6.99 0-13.029-1.885-17.377-6.425l-5.477 5.482c6.233 5.855 13.602 8.125 23.047 8.125 13.601 0 22.854-6.232 22.854-17.006.193-10.952-6.612-14.544-16.436-15.494l.008.008-9.068-.756c-6.997-.571-9.83-3.399-9.83-8.125 0-5.662 4.348-9.254 12.472-9.254 5.855 0 10.953 1.32 14.922 4.533l5.283-5.289c-5.097-4.155-12.087-6.047-20.205-6.047zm371.291 9.446c4.912 0 8.125 2.641 9.825 6.047.95 2.07 1.32 3.783 1.32 6.232H623.68c.185-2.642.372-4.155 1.322-6.232 1.506-3.399 4.719-6.047 9.816-6.047zm-103.7.949c2.834 0 5.097.941 6.796 2.64 3.027 3.02 3.404 8.127 3.404 14.167 0 6.047-.377 11.144-3.404 14.171-1.7 1.7-3.962 2.641-6.797 2.641-2.834 0-5.105-.941-6.804-2.64-3.02-3.028-3.399-8.125-3.399-14.172 0-6.04.378-11.14 3.399-14.166 1.699-1.7 3.784-2.641 6.804-2.641zm268.802 0c2.834 0 5.096.941 6.803 2.64 3.02 3.02 3.398 8.127 3.398 14.167 0 6.047-.378 11.144-3.398 14.171-1.707 1.7-3.969 2.641-6.803 2.641s-5.098-.941-6.797-2.64c-3.027-3.028-3.406-8.125-3.406-14.172 0-6.04.379-11.14 3.406-14.166 1.7-1.7 3.777-2.641 6.797-2.641zm-433.527 20.21h15.68v6.042c0 4.726-.945 7.932-2.837 9.639-3.584 3.398-7.738 3.775-12.465 3.775-8.874 0-12.851-3.026-12.851-9.637 0-6.425 4.162-9.818 12.473-9.818z" transform="translate(37.029 131.421) scale(.14007)" id="path2177" stroke-width="1.892"/></g></g><style id="style64"/></svg>