<?xml version="1.0" encoding="UTF-8" standalone="no"?>
<!-- Created with Inkscape (http://www.inkscape.org/) -->

<svg
   xmlns:dc="http://purl.org/dc/elements/1.1/"
   xmlns:cc="http://creativecommons.org/ns#"
   xmlns:rdf="http://www.w3.org/1999/02/22-rdf-syntax-ns#"
   xmlns:svg="http://www.w3.org/2000/svg"
   xmlns="http://www.w3.org/2000/svg"
   xmlns:sodipodi="http://sodipodi.sourceforge.net/DTD/sodipodi-0.dtd"
   xmlns:inkscape="http://www.inkscape.org/namespaces/inkscape"
   width="264.58334mm"
   height="323.36554mm"
   viewBox="0 0 264.58334 323.36554"
   version="1.1"
   id="svg8"
   sodipodi:docname="snack-overflow-variants.svg"
   inkscape:version="0.92.4 5da689c313, 2019-01-14">
  <defs
     id="defs2">
    <inkscape:path-effect
       effect="spiro"
       id="path-effect1929"
       is_visible="true" />
    <inkscape:path-effect
       effect="spiro"
       id="path-effect1806"
       is_visible="true" />
    <inkscape:path-effect
       is_visible="true"
       id="path-effect1689"
       effect="spiro" />
    <inkscape:path-effect
       is_visible="true"
       id="path-effect1685"
       effect="spiro" />
    <inkscape:path-effect
       effect="spiro"
       id="path-effect1681"
       is_visible="true" />
    <inkscape:path-effect
       effect="spiro"
       id="path-effect802"
       is_visible="true" />
    <inkscape:path-effect
       effect="spiro"
       id="path-effect798"
       is_visible="true" />
    <inkscape:path-effect
       effect="spiro"
       id="path-effect650"
       is_visible="true" />
    <inkscape:path-effect
       effect="spiro"
       id="path-effect600"
       is_visible="true" />
    <inkscape:path-effect
       effect="spiro"
       id="path-effect600-8"
       is_visible="true" />
    <inkscape:path-effect
       effect="spiro"
       id="path-effect600-9"
       is_visible="true" />
    <inkscape:path-effect
       effect="spiro"
       id="path-effect600-0"
       is_visible="true" />
  </defs>
  <sodipodi:namedview
     id="base"
     pagecolor="#ffffff"
     bordercolor="#666666"
     borderopacity="1.0"
     inkscape:pageopacity="0.0"
     inkscape:pageshadow="2"
     inkscape:zoom="0.35"
     inkscape:cx="841.26341"
     inkscape:cy="-8.2354407"
     inkscape:document-units="mm"
     inkscape:current-layer="g563"
     showgrid="false"
     inkscape:window-width="2560"
     inkscape:window-height="1440"
     inkscape:window-x="0"
     inkscape:window-y="0"
     inkscape:window-maximized="0"
     inkscape:snap-global="false"
     showborder="false" />
  <metadata
     id="metadata5">
    <rdf:RDF>
      <cc:Work
         rdf:about="">
        <dc:format>image/svg+xml</dc:format>
        <dc:type
           rdf:resource="http://purl.org/dc/dcmitype/StillImage" />
        <dc:title></dc:title>
      </cc:Work>
    </rdf:RDF>
  </metadata>
  <g
     inkscape:label="Layer 1"
     inkscape:groupmode="layer"
     id="layer1"
     transform="translate(-37.952104,46.880825)">
    <g
       id="g563"
       transform="matrix(1.7901397,0,0,1.7901397,-29.987462,-268.0381)">
      <rect
         y="123.54191"
         x="37.952103"
         height="180.63704"
         width="147.80038"
         id="rect414"
         style="opacity:1;fill:#ffffff;fill-opacity:1;fill-rule:nonzero;stroke:none;stroke-width:0.08806739;stroke-linecap:round;stroke-linejoin:miter;stroke-miterlimit:4;stroke-dasharray:none;stroke-dashoffset:0;stroke-opacity:1" />
      <g
         transform="translate(0.447204)"
         id="g412">
        <path
           style="fill:#bcbbbb;stroke-width:0.26458332"
           inkscape:connector-curvature="0"
           class="st1"
           d="m 68.83513,160.97582 v -5.82084 h 1.957916 v 7.7523 H 53.357005 v -7.7523 h 1.931458 v 5.82084 z"
           id="path68" />
        <path
           style="fill:#f48024;stroke-width:0.26458332"
           inkscape:connector-curvature="0"
           class="st2"
           d="m 57.431588,154.62582 9.498542,1.98437 0.396875,-1.905 -9.498542,-1.98437 z m 1.243542,-4.55084 8.784166,4.10105 0.820209,-1.74625 -8.784167,-4.1275 z m 2.434166,-4.3127 7.46125,6.19125 1.243542,-1.48167 -7.46125,-6.19125 z m 4.815417,-4.5773 -1.561042,1.16417 5.794375,7.77875 1.561042,-1.16417 z m -8.704791,17.83292 h 9.683749 v -1.93146 h -9.683749 z"
           id="path70" />
        <g
           id="g131"
           transform="translate(3.4017857)">
          <path
             style="fill:#222426;stroke-width:1.79013956"
             d="m 713.04883,163.22852 c -11.09889,0 -16.11133,8.05695 -16.11133,15.93359 v 61.04297 h 13.78516 v -43.67969 h 10.20312 v -10.56055 h -10.20312 v -6.08789 c 0,-3.22225 1.61173,-5.01172 4.83398,-5.01172 h 5.36914 v -11.63671 z m 14.5,0 v 61.04492 c 0,7.87657 4.83348,15.7539 16.11133,15.7539 h 7.87695 v -11.63672 h -5.36914 c -3.40128,0 -4.83399,-1.61173 -4.83399,-4.83398 v -60.32812 z m -282.48242,0.17968 v 76.79688 h 7.69726 v -19.33399 l 9.48633,-9.48632 17.72266,28.82031 h 9.66796 l -22.01953,-34.19141 18.97657,-18.97461 h -9.66797 l -24.16602,23.44922 V 163.4082 Z m 78.04882,20.76563 c -8.23468,0 -13.60465,3.22243 -17.00585,6.80273 -5.01244,5.1914 -6.26563,11.45762 -6.26563,21.48242 0,10.02474 1.25319,16.28908 6.26563,21.48047 3.4012,3.58024 8.95019,6.80274 17.00585,6.80274 8.23462,0 13.78427,-3.2225 17.18555,-6.80274 5.01237,-5.19139 6.26563,-11.45573 6.26563,-21.48047 0,-10.0248 -1.25326,-16.29102 -6.26563,-21.48242 -3.40128,-3.5803 -9.12995,-6.80273 -17.18555,-6.80273 z m 98.2793,0 c -14.32107,0 -24.16797,10.20475 -24.16797,28.28515 0,22.37674 12.53158,28.28321 25.59961,28.28321 10.02481,0 15.39594,-3.04308 20.94531,-8.77149 l -8.41406,-8.23437 c -3.58023,3.5803 -6.4448,5.1914 -12.53125,5.1914 -7.69761,0 -12.17187,-5.19102 -12.17187,-12.35156 h 34.54882 v -6.08789 c 0.1793,-15.03717 -8.59239,-26.31445 -23.80859,-26.31445 z m 156.45899,0 c -8.23469,0 -13.60654,3.22243 -17.00782,6.80273 -5.01237,5.1914 -6.26562,11.45762 -6.26562,21.48242 0,10.02474 1.25325,16.28908 6.26562,21.48047 3.40128,3.58024 8.95215,6.80274 17.00782,6.80274 8.23462,0 13.78231,-3.2225 17.18359,-6.80274 5.01237,-5.19139 6.26562,-11.45573 6.26562,-21.48047 0,-10.0248 -1.25325,-16.29102 -6.26562,-21.48242 -3.40128,-3.5803 -9.128,-6.80273 -17.18359,-6.80273 z m -99.23047,0.17969 c -5.59527,0.17811 -10.31664,2.87542 -12.83399,5.72851 v -5.37109 h -13.42578 v 55.49414 h 13.78516 V 206.9082 c 0,-6.98158 4.65288,-10.20312 8.94922,-10.20312 3.40127,0 5.19167,1.07449 7.33984,3.22265 l 10.38281,-10.38281 c -3.75932,-3.75926 -7.69598,-5.1914 -13.0664,-5.1914 -0.38041,-0.0112 -0.75785,-0.0119 -1.13086,0 z m -132.23633,0.5371 20.4082,55.31446 h 10.74024 l 20.22851,-55.31446 h -14.5 l -11.09765,34.19141 -11.27735,-34.19141 z m 254.91601,0 17.00782,55.31446 h 11.27734 l 11.63477,-34.72852 11.63672,34.72852 h 11.27734 l 16.82812,-55.31446 h -14.5 l -8.95117,34.19141 -11.27734,-34.19141 h -10.02539 l -11.27735,34.19141 -8.95117,-34.19141 z m -432.85546,1.43165 c -8.59267,0 -13.96283,1.61081 -18.61719,7.69726 l 5.01172,5.01172 c 3.04324,-4.47536 6.6252,-6.08594 13.42773,-6.08594 9.66676,0 13.60352,3.93911 13.60352,11.63672 v 5.19141 h -15.93164 c -11.81493,0 -18.25977,6.08582 -18.25977,15.39453 0,4.29633 1.43326,8.23401 3.93945,10.74023 3.40127,3.40128 7.69754,4.83399 15.03711,4.83399 7.16057,0 10.91919,-1.43218 15.39453,-5.72852 v 5.19141 H 389.75 v -36.16016 c -0.17903,-11.45694 -7.16063,-17.72265 -21.30273,-17.72265 z m -46.85938,0.13281 c -3.02754,0 -5.80322,0.54181 -8.32617,1.62304 -2.52295,1.08128 -4.72151,2.70273 -6.5957,4.86524 v -5.83789 h -7.78516 v 53.19726 h 7.78516 v -32.76171 c 0,-4.68551 1.18957,-8.21891 3.56836,-10.59766 2.37878,-2.37879 5.58632,-3.56641 9.62304,-3.56641 4.03672,0 7.20893,1.18762 9.51563,3.56641 2.37878,2.30667 3.56836,5.84007 3.56836,10.59766 v 32.76171 h 7.78515 v -34.06054 c 0,-6.2713 -1.83737,-11.20827 -5.51367,-14.8125 -3.31588,-3.31587 -7.85826,-4.97461 -13.625,-4.97461 z m 98.41602,0.0469 c -13.42605,0 -23.45118,9.12852 -23.45118,27.20899 0,18.0804 10.20414,27.21094 23.45118,27.21094 7.33956,0 11.99353,-1.96953 17.54297,-7.87696 l -5.3711,-5.01172 c -3.9383,4.47536 -7.15948,6.08594 -12.17187,6.08594 -5.19141,0 -9.48734,-1.96863 -12.35157,-6.08594 -2.50619,-3.40127 -3.40234,-7.51978 -3.40234,-14.32226 0,-6.62353 0.89615,-10.74001 3.40234,-14.32032 2.86423,-4.11731 7.16016,-6.08593 12.35157,-6.08593 5.01239,0 8.23357,1.43089 12.17187,5.90625 l 5.19141,-5.01172 c -5.37042,-5.9075 -10.02372,-7.69727 -17.36328,-7.69727 z m -150.47461,0.17774 c -11.27788,0 -19.51172,5.90746 -19.51172,15.57422 0,8.77169 5.54883,13.4272 15.93164,14.32226 l 8.77148,0.71485 c 6.08648,0.53721 8.77149,3.04288 8.77149,7.69726 0,6.26548 -5.37089,9.31055 -14.14258,9.31055 -6.62352,0 -12.35143,-1.79156 -16.46875,-6.08789 l -5.19141,5.1914 c 5.90746,5.54945 12.88915,7.69727 21.83985,7.69727 12.889,0 21.66015,-5.9075 21.66015,-16.11133 0.17903,-10.38279 -6.26549,-13.78267 -15.57422,-14.67773 l -8.59179,-0.7168 c -6.62352,-0.53721 -9.3086,-3.22197 -9.3086,-7.69727 0,-5.37041 4.11685,-8.77148 11.81446,-8.77148 5.54943,0 10.38328,1.25365 14.14258,4.29688 l 5.01171,-5.01368 c -4.83337,-3.93828 -11.45669,-5.72851 -19.15429,-5.72851 z m 351.86523,8.95117 c 4.65439,0 7.69744,2.50626 9.30859,5.72852 0.89506,1.96914 1.25391,3.58101 1.25391,5.9082 h -21.125 c 0.1793,-2.50622 0.35871,-3.93906 1.25391,-5.9082 1.43213,-3.22226 4.47525,-5.72852 9.30859,-5.72852 z m -98.2793,0.89453 c 2.68518,0 4.83416,0.89477 6.44532,2.50586 2.8642,2.86427 3.22265,7.69926 3.22265,13.42773 0,5.72841 -0.35832,10.56158 -3.22265,13.42579 -1.61116,1.61116 -3.76014,2.50585 -6.44532,2.50585 -2.68524,0 -4.83226,-0.89469 -6.44335,-2.50585 -2.86427,-2.86421 -3.22266,-7.69738 -3.22266,-13.42579 0,-5.72847 0.35832,-10.56346 3.22266,-13.42773 1.61109,-1.61109 3.57909,-2.50586 6.44335,-2.50586 z m 254.73829,0 c 2.68517,0 4.8322,0.89477 6.44336,2.50586 2.8642,2.86427 3.22265,7.69926 3.22265,13.42773 0,5.72841 -0.35832,10.56158 -3.22265,13.42579 -1.61116,1.61116 -3.75819,2.50585 -6.44336,2.50585 -2.68525,0 -4.83422,-0.89469 -6.44532,-2.50585 -2.86427,-2.86421 -3.22265,-7.69738 -3.22265,-13.42579 0,-5.72847 0.35832,-10.56346 3.22265,-13.42773 1.6111,-1.61109 3.58105,-2.50586 6.44532,-2.50586 z m -410.8379,19.1543 h 14.85743 v 5.72851 c 0,4.47536 -0.89346,7.5197 -2.6836,9.13086 -3.40127,3.22225 -7.34106,3.58008 -11.8164,3.58008 -8.41366,0 -12.17188,-2.86538 -12.17188,-9.13086 0,-6.08645 3.93784,-9.30859 11.81445,-9.30859 z"
             transform="matrix(0.14780038,0,0,0.14780038,34.103113,123.54191)"
             id="path66"
             inkscape:connector-curvature="0" />
        </g>
      </g>
      <g
         transform="translate(0.447204,-2.2968882)"
         id="g345">
        <path
           id="path636"
           d="m 68.83513,244.88653 v -5.82084 h 1.957916 v 7.7523 H 53.357005 v -7.7523 h 1.931458 v 5.82084 z"
           class="st1"
           inkscape:connector-curvature="0"
           style="fill:#bcbbbb;stroke-width:0.26458332" />
        <g
           transform="translate(3.4017857,83.910714)"
           id="g646">
          <path
             style="fill:#222426;stroke-width:1.79013956"
             d="m 713.04883,715.41992 c -11.09889,0 -16.11133,8.05501 -16.11133,15.93164 v 61.04297 h 13.78516 v -43.67969 h 10.20312 V 738.1543 h -10.20312 v -6.08789 c 0,-3.22226 1.61173,-5.01172 4.83398,-5.01172 h 5.36914 v -11.63477 z m 14.5,0 v 61.04297 c 0,7.87657 4.83348,15.75391 16.11133,15.75391 h 7.87695 v -11.63672 h -5.36914 c -3.40128,0 -4.83399,-1.61173 -4.83399,-4.83399 v -60.32617 z m -282.48242,0.17774 v 76.79687 h 7.69726 v -19.33398 l 9.48633,-9.48633 17.72266,28.82031 h 9.66796 l -22.01953,-34.19141 18.97657,-18.9746 h -9.66797 l -24.16602,23.44921 v -47.08007 z m 78.04882,20.76562 c -8.23468,0 -13.60465,3.22243 -17.00585,6.80274 -5.01244,5.19139 -6.26563,11.45761 -6.26563,21.48242 0,10.02473 1.25319,16.28907 6.26563,21.48047 3.4012,3.58023 8.95019,6.80273 17.00585,6.80273 8.23462,0 13.78427,-3.2225 17.18555,-6.80273 5.01237,-5.1914 6.26563,-11.45574 6.26563,-21.48047 0,-10.02481 -1.25326,-16.29103 -6.26563,-21.48242 -3.40128,-3.58031 -9.12995,-6.80274 -17.18555,-6.80274 z m 98.2793,0 c -14.32107,0 -24.16797,10.20476 -24.16797,28.28516 0,22.37673 12.53158,28.2832 25.59961,28.2832 10.02481,0 15.39594,-3.04308 20.94531,-8.77148 l -8.41406,-8.23438 c -3.58023,3.5803 -6.4448,5.19141 -12.53125,5.19141 -7.69761,0 -12.17187,-5.19103 -12.17187,-12.35157 h 34.54882 v -6.08789 c 0.1793,-15.03717 -8.59239,-26.31445 -23.80859,-26.31445 z m 156.45899,0 c -8.23469,0 -13.60654,3.22243 -17.00782,6.80274 -5.01237,5.19139 -6.26562,11.45761 -6.26562,21.48242 0,10.02473 1.25325,16.28907 6.26562,21.48047 3.40128,3.58023 8.95215,6.80273 17.00782,6.80273 8.23462,0 13.78231,-3.2225 17.18359,-6.80273 5.01237,-5.1914 6.26562,-11.45574 6.26562,-21.48047 0,-10.02481 -1.25325,-16.29103 -6.26562,-21.48242 -3.40128,-3.58031 -9.128,-6.80274 -17.18359,-6.80274 z m -99.23047,0.17969 c -5.59527,0.17811 -10.31664,2.87543 -12.83399,5.72851 v -5.37109 h -13.42578 v 55.49414 h 13.78516 v -33.29687 c 0,-6.98158 4.65288,-10.20313 8.94922,-10.20313 3.40127,0 5.19167,1.07449 7.33984,3.22266 l 10.38281,-10.38281 c -3.75932,-3.75926 -7.69598,-5.19141 -13.0664,-5.19141 -0.38041,-0.0112 -0.75785,-0.0119 -1.13086,0 z m -132.23633,0.53711 20.4082,55.31445 h 10.74024 l 20.22851,-55.31445 h -14.5 l -11.09765,34.1914 -11.27735,-34.1914 z m 254.91601,0 17.00782,55.31445 h 11.27734 l 11.63477,-34.72851 11.63672,34.72851 h 11.27734 l 16.82812,-55.31445 h -14.5 l -8.95117,34.1914 -11.27734,-34.1914 h -10.02539 l -11.27735,34.1914 -8.95117,-34.1914 z m -432.85546,1.43164 c -8.59267,0 -13.96283,1.61081 -18.61719,7.69726 l 5.01172,5.01368 c 3.04324,-4.47536 6.6252,-6.08789 13.42773,-6.08789 9.66676,0 13.60352,3.9391 13.60352,11.63671 v 5.19141 h -15.93164 c -11.81493,0 -18.25977,6.08583 -18.25977,15.39453 0,4.29634 1.43326,8.23402 3.93945,10.74024 3.40127,3.40127 7.69754,4.83398 15.03711,4.83398 7.16057,0 10.91919,-1.43218 15.39453,-5.72852 v 5.19141 H 389.75 v -36.16015 c -0.17903,-11.45694 -7.16063,-17.72266 -21.30273,-17.72266 z m -46.85938,0.13476 c -3.02754,0 -5.80322,0.53987 -8.32617,1.6211 -2.52295,1.08128 -4.72151,2.70272 -6.5957,4.86523 v -5.83789 h -7.78516 v 53.19727 h 7.78516 v -32.76172 c 0,-4.68551 1.18957,-8.21696 3.56836,-10.5957 2.37878,-2.3788 5.58632,-3.56836 9.62304,-3.56836 4.03672,0 7.20893,1.18956 9.51563,3.56836 2.37878,2.30667 3.56836,5.83811 3.56836,10.5957 v 32.76172 h 7.78515 v -34.0586 c 0,-6.27129 -1.83737,-11.21022 -5.51367,-14.81445 -3.31588,-3.31587 -7.85826,-4.97266 -13.625,-4.97266 z m 98.41602,0.0449 c -13.42605,0 -23.45118,9.12851 -23.45118,27.20898 0,18.0804 10.20414,27.21094 23.45118,27.21094 7.33956,0 11.99353,-1.96953 17.54297,-7.87695 l -5.3711,-5.01172 c -3.9383,4.47536 -7.15948,6.08593 -12.17187,6.08593 -5.19141,0 -9.48734,-1.96862 -12.35157,-6.08593 -2.50619,-3.40128 -3.40234,-7.51978 -3.40234,-14.32227 0,-6.62353 0.89615,-10.74001 3.40234,-14.32031 2.86423,-4.11731 7.16016,-6.08594 12.35157,-6.08594 5.01239,0 8.23357,1.43089 12.17187,5.90625 l 5.19141,-5.01172 c -5.37042,-5.90749 -10.02372,-7.69726 -17.36328,-7.69726 z m -150.47461,0.17773 c -11.27788,0 -19.51172,5.90746 -19.51172,15.57422 0,8.7717 5.54883,13.42721 15.93164,14.32226 l 8.77148,0.71485 c 6.08648,0.53721 8.77149,3.04483 8.77149,7.69922 0,6.26548 -5.37089,9.30859 -14.14258,9.30859 -6.62352,0 -12.35143,-1.79155 -16.46875,-6.08789 l -5.19141,5.19141 c 5.90746,5.54944 12.88915,7.69726 21.83985,7.69726 12.889,0 21.66015,-5.90554 21.66015,-16.10937 0.17903,-10.38279 -6.26549,-13.78463 -15.57422,-14.67969 l -8.59179,-0.7168 c -6.62352,-0.53721 -9.3086,-3.22197 -9.3086,-7.69726 0,-5.37042 4.11685,-8.77149 11.81446,-8.77149 5.54943,0 10.38328,1.25365 14.14258,4.29688 l 5.01171,-5.01367 c -4.83337,-3.93829 -11.45669,-5.72852 -19.15429,-5.72852 z m 351.86523,8.95117 c 4.65439,0 7.69744,2.50627 9.30859,5.72852 0.89506,1.96914 1.25391,3.58101 1.25391,5.9082 h -21.125 c 0.1793,-2.50622 0.35871,-3.93906 1.25391,-5.9082 1.43213,-3.22225 4.47525,-5.72852 9.30859,-5.72852 z m -98.2793,0.89453 c 2.68518,0 4.83416,0.89672 6.44532,2.50782 2.8642,2.86426 3.22265,7.69731 3.22265,13.42578 0,5.7284 -0.35832,10.56158 -3.22265,13.42578 -1.61116,1.61116 -3.76014,2.50586 -6.44532,2.50586 -2.68524,0 -4.83226,-0.8947 -6.44335,-2.50586 -2.86427,-2.8642 -3.22266,-7.69738 -3.22266,-13.42578 0,-5.72847 0.35832,-10.56152 3.22266,-13.42578 1.61109,-1.6111 3.57909,-2.50782 6.44335,-2.50782 z m 254.73829,0 c 2.68517,0 4.8322,0.89672 6.44336,2.50782 2.8642,2.86426 3.22265,7.69731 3.22265,13.42578 0,5.7284 -0.35832,10.56158 -3.22265,13.42578 -1.61116,1.61116 -3.75819,2.50586 -6.44336,2.50586 -2.68525,0 -4.83422,-0.8947 -6.44532,-2.50586 -2.86427,-2.8642 -3.22265,-7.69738 -3.22265,-13.42578 0,-5.72847 0.35832,-10.56152 3.22265,-13.42578 1.6111,-1.6111 3.58105,-2.50782 6.44532,-2.50782 z m -410.8379,19.1543 h 14.85743 v 5.72852 c 0,4.47536 -0.89346,7.5197 -2.6836,9.13086 -3.40127,3.22225 -7.34106,3.58007 -11.8164,3.58007 -8.41366,0 -12.17188,-2.86342 -12.17188,-9.1289 0,-6.08645 3.93784,-9.31055 11.81445,-9.31055 z"
             transform="matrix(0.14780038,0,0,0.14780038,34.103113,41.928083)"
             id="path640"
             inkscape:connector-curvature="0" />
        </g>
        <g
           id="g672"
           transform="matrix(0.82195931,-0.14596858,0.14596858,0.82195931,-23.596321,58.516982)"
           style="stroke-width:1.19786346">
          <path
             sodipodi:nodetypes="aaaaaaaaa"
             inkscape:original-d="m 57.263887,234.98606 c 1.413462,0.9763 3.246864,1.1711 4.937073,1.47808 1.750986,0.31802 3.578057,0.69738 5.326397,0.36512 0.620468,-0.11792 1.365321,-0.28538 1.710968,-0.81397 0.250435,-0.38299 0.263529,-0.97106 0.0432,-1.37212 -0.942023,-1.71477 -3.139379,-2.57144 -5.050443,-2.99057 -2.543431,-0.55782 -5.589622,-0.62103 -7.770386,0.80181 -0.27273,0.17794 -0.505256,0.52415 -0.48324,0.84905 0.04773,0.70439 0.705524,1.28136 1.286431,1.6826 z"
             inkscape:path-effect="#path-effect650"
             inkscape:connector-curvature="0"
             id="path648"
             d="m 57.263887,234.98606 c 1.53543,0.78464 3.239888,1.1735 4.937073,1.47808 1.75758,0.31542 3.550217,0.54887 5.326397,0.36512 0.326579,-0.0338 0.655375,-0.0826 0.96006,-0.2049 0.304685,-0.12232 0.586379,-0.32495 0.750908,-0.60907 0.118326,-0.20434 0.17131,-0.44281 0.17163,-0.67893 3.21e-4,-0.23613 -0.0504,-0.47033 -0.12843,-0.69319 -0.169456,-0.48397 -0.467795,-0.91796 -0.835805,-1.27504 -0.368011,-0.35709 -0.804495,-0.63917 -1.267232,-0.86011 -0.925474,-0.44188 -1.944832,-0.63953 -2.947406,-0.85542 -1.333552,-0.28716 -2.674684,-0.61537 -4.038706,-0.5991 -0.682011,0.008 -1.366564,0.10403 -2.01047,0.32895 -0.643906,0.22493 -1.246806,0.58191 -1.72121,1.07196 -0.230331,0.23793 -0.436079,0.52127 -0.48324,0.84905 -0.0269,0.18696 7.8e-5,0.37994 0.06647,0.55678 0.06639,0.17684 0.171345,0.33789 0.297782,0.47823 0.252876,0.28066 0.585782,0.47568 0.922182,0.64759 z"
             style="opacity:1;fill:#f48024;fill-opacity:1;fill-rule:nonzero;stroke:none;stroke-width:1.19786346;stroke-linecap:square;stroke-linejoin:miter;stroke-miterlimit:4;stroke-dasharray:none;stroke-dashoffset:0;stroke-opacity:1" />
          <path
             style="opacity:1;fill:#222426;fill-opacity:1;fill-rule:nonzero;stroke:none;stroke-width:1.19786346;stroke-linecap:square;stroke-linejoin:miter;stroke-miterlimit:4;stroke-dasharray:none;stroke-dashoffset:0;stroke-opacity:1"
             d="m 58.635274,233.97031 c -0.04265,0.3047 -0.378279,0.4963 -0.896256,0.42379 -0.517981,-0.0726 -0.90331,-0.37828 -0.86066,-0.68298 0.04265,-0.3047 0.483042,-0.51454 0.978182,-0.34603 0.529423,0.18018 0.821384,0.30053 0.778734,0.60522 z"
             id="path655"
             inkscape:connector-curvature="0"
             sodipodi:nodetypes="cscsc" />
          <path
             style="opacity:1;fill:#222426;fill-opacity:1;fill-rule:nonzero;stroke:none;stroke-width:1.19786346;stroke-linecap:square;stroke-linejoin:miter;stroke-miterlimit:4;stroke-dasharray:none;stroke-dashoffset:0;stroke-opacity:1"
             d="m 62.332368,234.0016 c -0.04254,0.3039 -0.435961,0.37769 -0.952594,0.30537 -0.516637,-0.0724 -0.842304,-0.15733 -0.799764,-0.46123 0.04254,-0.30391 0.481789,-0.61586 0.975644,-0.44779 0.528049,0.17971 0.819252,0.29975 0.776714,0.60365 z"
             id="path657"
             inkscape:connector-curvature="0"
             sodipodi:nodetypes="cscsc" />
          <path
             style="opacity:1;fill:#222426;fill-opacity:1;fill-rule:nonzero;stroke:none;stroke-width:1.19786334;stroke-linecap:square;stroke-linejoin:miter;stroke-miterlimit:4;stroke-dasharray:none;stroke-dashoffset:0;stroke-opacity:1"
             d="m 65.095372,235.24774 c -0.05236,0.37406 -0.535259,0.7392 -1.171145,0.65018 -0.63589,-0.0891 -1.15618,-0.34626 -1.103821,-0.72032 0.05236,-0.37406 0.640245,-0.74978 1.248096,-0.54292 0.649936,0.2212 1.079228,0.23901 1.02687,0.61306 z"
             id="path659"
             inkscape:connector-curvature="0"
             sodipodi:nodetypes="cscsc" />
          <path
             style="opacity:1;fill:#222426;fill-opacity:1;fill-rule:nonzero;stroke:none;stroke-width:1.19786346;stroke-linecap:square;stroke-linejoin:miter;stroke-miterlimit:4;stroke-dasharray:none;stroke-dashoffset:0;stroke-opacity:1"
             d="m 67.353071,234.36163 c -0.03518,0.25129 -0.311966,0.4093 -0.73914,0.3495 -0.427178,-0.0599 -0.662275,-0.22929 -0.627102,-0.48057 0.03518,-0.25129 0.540104,-0.44796 0.948445,-0.30899 0.436614,0.1486 0.452969,0.18878 0.417797,0.44006 z"
             id="path661"
             inkscape:connector-curvature="0"
             sodipodi:nodetypes="cscsc" />
          <path
             style="opacity:1;fill:#222426;fill-opacity:1;fill-rule:nonzero;stroke:none;stroke-width:1.19786334;stroke-linecap:square;stroke-linejoin:miter;stroke-miterlimit:4;stroke-dasharray:none;stroke-dashoffset:0;stroke-opacity:1"
             d="m 64.625126,232.40288 c -0.02925,0.20891 -0.259363,0.34028 -0.61451,0.29056 -0.355148,-0.0498 -0.548474,-0.21211 -0.519232,-0.42103 0.02925,-0.20891 0.260322,-0.40003 0.59981,-0.2845 0.362994,0.12354 0.563174,0.20606 0.533932,0.41497 z"
             id="path663"
             inkscape:connector-curvature="0"
             sodipodi:nodetypes="cscsc" />
          <path
             sodipodi:nodetypes="cscsc"
             inkscape:connector-curvature="0"
             id="path652"
             d="m 61.376629,232.19752 c -0.03198,0.22847 -0.260017,0.28946 -0.648407,0.23509 -0.388393,-0.0544 -0.582826,-0.15371 -0.550846,-0.38218 0.03198,-0.22847 0.409441,-0.48031 0.780707,-0.35396 0.396972,0.1351 0.450525,0.27259 0.418546,0.50105 z"
             style="opacity:1;fill:#222426;fill-opacity:1;fill-rule:nonzero;stroke:none;stroke-width:1.19786346;stroke-linecap:square;stroke-linejoin:miter;stroke-miterlimit:4;stroke-dasharray:none;stroke-dashoffset:0;stroke-opacity:1" />
        </g>
        <g
           style="stroke-width:1.19786346"
           transform="matrix(0.83030205,0.08673202,-0.08673202,0.83030205,31.07743,36.579871)"
           id="g688">
          <path
             style="opacity:1;fill:#f48024;fill-opacity:1;fill-rule:nonzero;stroke:none;stroke-width:1.19786346;stroke-linecap:square;stroke-linejoin:miter;stroke-miterlimit:4;stroke-dasharray:none;stroke-dashoffset:0;stroke-opacity:1"
             d="m 57.263887,234.98606 c 1.53543,0.78464 3.239888,1.1735 4.937073,1.47808 1.75758,0.31542 3.550217,0.54887 5.326397,0.36512 0.326579,-0.0338 0.655375,-0.0826 0.96006,-0.2049 0.304685,-0.12232 0.586379,-0.32495 0.750908,-0.60907 0.118326,-0.20434 0.17131,-0.44281 0.17163,-0.67893 3.21e-4,-0.23613 -0.0504,-0.47033 -0.12843,-0.69319 -0.169456,-0.48397 -0.467795,-0.91796 -0.835805,-1.27504 -0.368011,-0.35709 -0.804495,-0.63917 -1.267232,-0.86011 -0.925474,-0.44188 -1.944832,-0.63953 -2.947406,-0.85542 -1.333552,-0.28716 -2.674684,-0.61537 -4.038706,-0.5991 -0.682011,0.008 -1.366564,0.10403 -2.01047,0.32895 -0.643906,0.22493 -1.246806,0.58191 -1.72121,1.07196 -0.230331,0.23793 -0.436079,0.52127 -0.48324,0.84905 -0.0269,0.18696 7.8e-5,0.37994 0.06647,0.55678 0.06639,0.17684 0.171345,0.33789 0.297782,0.47823 0.252876,0.28066 0.585782,0.47568 0.922182,0.64759 z"
             id="path674"
             inkscape:connector-curvature="0"
             inkscape:path-effect="#path-effect650"
             inkscape:original-d="m 57.263887,234.98606 c 1.413462,0.9763 3.246864,1.1711 4.937073,1.47808 1.750986,0.31802 3.578057,0.69738 5.326397,0.36512 0.620468,-0.11792 1.365321,-0.28538 1.710968,-0.81397 0.250435,-0.38299 0.263529,-0.97106 0.0432,-1.37212 -0.942023,-1.71477 -3.139379,-2.57144 -5.050443,-2.99057 -2.543431,-0.55782 -5.589622,-0.62103 -7.770386,0.80181 -0.27273,0.17794 -0.505256,0.52415 -0.48324,0.84905 0.04773,0.70439 0.705524,1.28136 1.286431,1.6826 z"
             sodipodi:nodetypes="aaaaaaaaa" />
          <path
             sodipodi:nodetypes="cscsc"
             inkscape:connector-curvature="0"
             id="path676"
             d="m 58.635274,233.97031 c -0.04265,0.3047 -0.378279,0.4963 -0.896256,0.42379 -0.517981,-0.0726 -0.90331,-0.37828 -0.86066,-0.68298 0.04265,-0.3047 0.483042,-0.51454 0.978182,-0.34603 0.529423,0.18018 0.821384,0.30053 0.778734,0.60522 z"
             style="opacity:1;fill:#222426;fill-opacity:1;fill-rule:nonzero;stroke:none;stroke-width:1.19786346;stroke-linecap:square;stroke-linejoin:miter;stroke-miterlimit:4;stroke-dasharray:none;stroke-dashoffset:0;stroke-opacity:1" />
          <path
             sodipodi:nodetypes="cscsc"
             inkscape:connector-curvature="0"
             id="path678"
             d="m 62.332368,234.0016 c -0.04254,0.3039 -0.435961,0.37769 -0.952594,0.30537 -0.516637,-0.0724 -0.842304,-0.15733 -0.799764,-0.46123 0.04254,-0.30391 0.481789,-0.61586 0.975644,-0.44779 0.528049,0.17971 0.819252,0.29975 0.776714,0.60365 z"
             style="opacity:1;fill:#222426;fill-opacity:1;fill-rule:nonzero;stroke:none;stroke-width:1.19786346;stroke-linecap:square;stroke-linejoin:miter;stroke-miterlimit:4;stroke-dasharray:none;stroke-dashoffset:0;stroke-opacity:1" />
          <path
             sodipodi:nodetypes="cscsc"
             inkscape:connector-curvature="0"
             id="path680"
             d="m 65.095372,235.24774 c -0.05236,0.37406 -0.535259,0.7392 -1.171145,0.65018 -0.63589,-0.0891 -1.15618,-0.34626 -1.103821,-0.72032 0.05236,-0.37406 0.640245,-0.74978 1.248096,-0.54292 0.649936,0.2212 1.079228,0.23901 1.02687,0.61306 z"
             style="opacity:1;fill:#222426;fill-opacity:1;fill-rule:nonzero;stroke:none;stroke-width:1.19786334;stroke-linecap:square;stroke-linejoin:miter;stroke-miterlimit:4;stroke-dasharray:none;stroke-dashoffset:0;stroke-opacity:1" />
          <path
             sodipodi:nodetypes="cscsc"
             inkscape:connector-curvature="0"
             id="path682"
             d="m 67.353071,234.36163 c -0.03518,0.25129 -0.311966,0.4093 -0.73914,0.3495 -0.427178,-0.0599 -0.662275,-0.22929 -0.627102,-0.48057 0.03518,-0.25129 0.540104,-0.44796 0.948445,-0.30899 0.436614,0.1486 0.452969,0.18878 0.417797,0.44006 z"
             style="opacity:1;fill:#222426;fill-opacity:1;fill-rule:nonzero;stroke:none;stroke-width:1.19786346;stroke-linecap:square;stroke-linejoin:miter;stroke-miterlimit:4;stroke-dasharray:none;stroke-dashoffset:0;stroke-opacity:1" />
          <path
             sodipodi:nodetypes="cscsc"
             inkscape:connector-curvature="0"
             id="path684"
             d="m 64.625126,232.40288 c -0.02925,0.20891 -0.259363,0.34028 -0.61451,0.29056 -0.355148,-0.0498 -0.548474,-0.21211 -0.519232,-0.42103 0.02925,-0.20891 0.260322,-0.40003 0.59981,-0.2845 0.362994,0.12354 0.563174,0.20606 0.533932,0.41497 z"
             style="opacity:1;fill:#222426;fill-opacity:1;fill-rule:nonzero;stroke:none;stroke-width:1.19786334;stroke-linecap:square;stroke-linejoin:miter;stroke-miterlimit:4;stroke-dasharray:none;stroke-dashoffset:0;stroke-opacity:1" />
          <path
             style="opacity:1;fill:#222426;fill-opacity:1;fill-rule:nonzero;stroke:none;stroke-width:1.19786346;stroke-linecap:square;stroke-linejoin:miter;stroke-miterlimit:4;stroke-dasharray:none;stroke-dashoffset:0;stroke-opacity:1"
             d="m 61.376629,232.19752 c -0.03198,0.22847 -0.260017,0.28946 -0.648407,0.23509 -0.388393,-0.0544 -0.582826,-0.15371 -0.550846,-0.38218 0.03198,-0.22847 0.409441,-0.48031 0.780707,-0.35396 0.396972,0.1351 0.450525,0.27259 0.418546,0.50105 z"
             id="path686"
             inkscape:connector-curvature="0"
             sodipodi:nodetypes="cscsc" />
        </g>
        <g
           id="g704"
           transform="matrix(0.76165871,0.34176007,-0.34176007,0.76165871,97.801609,31.932839)"
           style="stroke-width:1.19786346">
          <path
             sodipodi:nodetypes="aaaaaaaaa"
             inkscape:original-d="m 57.263887,234.98606 c 1.413462,0.9763 3.246864,1.1711 4.937073,1.47808 1.750986,0.31802 3.578057,0.69738 5.326397,0.36512 0.620468,-0.11792 1.365321,-0.28538 1.710968,-0.81397 0.250435,-0.38299 0.263529,-0.97106 0.0432,-1.37212 -0.942023,-1.71477 -3.139379,-2.57144 -5.050443,-2.99057 -2.543431,-0.55782 -5.589622,-0.62103 -7.770386,0.80181 -0.27273,0.17794 -0.505256,0.52415 -0.48324,0.84905 0.04773,0.70439 0.705524,1.28136 1.286431,1.6826 z"
             inkscape:path-effect="#path-effect650"
             inkscape:connector-curvature="0"
             id="path690"
             d="m 57.263887,234.98606 c 1.53543,0.78464 3.239888,1.1735 4.937073,1.47808 1.75758,0.31542 3.550217,0.54887 5.326397,0.36512 0.326579,-0.0338 0.655375,-0.0826 0.96006,-0.2049 0.304685,-0.12232 0.586379,-0.32495 0.750908,-0.60907 0.118326,-0.20434 0.17131,-0.44281 0.17163,-0.67893 3.21e-4,-0.23613 -0.0504,-0.47033 -0.12843,-0.69319 -0.169456,-0.48397 -0.467795,-0.91796 -0.835805,-1.27504 -0.368011,-0.35709 -0.804495,-0.63917 -1.267232,-0.86011 -0.925474,-0.44188 -1.944832,-0.63953 -2.947406,-0.85542 -1.333552,-0.28716 -2.674684,-0.61537 -4.038706,-0.5991 -0.682011,0.008 -1.366564,0.10403 -2.01047,0.32895 -0.643906,0.22493 -1.246806,0.58191 -1.72121,1.07196 -0.230331,0.23793 -0.436079,0.52127 -0.48324,0.84905 -0.0269,0.18696 7.8e-5,0.37994 0.06647,0.55678 0.06639,0.17684 0.171345,0.33789 0.297782,0.47823 0.252876,0.28066 0.585782,0.47568 0.922182,0.64759 z"
             style="opacity:1;fill:#f48024;fill-opacity:1;fill-rule:nonzero;stroke:none;stroke-width:1.19786346;stroke-linecap:square;stroke-linejoin:miter;stroke-miterlimit:4;stroke-dasharray:none;stroke-dashoffset:0;stroke-opacity:1" />
          <path
             style="opacity:1;fill:#222426;fill-opacity:1;fill-rule:nonzero;stroke:none;stroke-width:1.19786346;stroke-linecap:square;stroke-linejoin:miter;stroke-miterlimit:4;stroke-dasharray:none;stroke-dashoffset:0;stroke-opacity:1"
             d="m 58.635274,233.97031 c -0.04265,0.3047 -0.378279,0.4963 -0.896256,0.42379 -0.517981,-0.0726 -0.90331,-0.37828 -0.86066,-0.68298 0.04265,-0.3047 0.483042,-0.51454 0.978182,-0.34603 0.529423,0.18018 0.821384,0.30053 0.778734,0.60522 z"
             id="path692"
             inkscape:connector-curvature="0"
             sodipodi:nodetypes="cscsc" />
          <path
             style="opacity:1;fill:#222426;fill-opacity:1;fill-rule:nonzero;stroke:none;stroke-width:1.19786346;stroke-linecap:square;stroke-linejoin:miter;stroke-miterlimit:4;stroke-dasharray:none;stroke-dashoffset:0;stroke-opacity:1"
             d="m 62.332368,234.0016 c -0.04254,0.3039 -0.435961,0.37769 -0.952594,0.30537 -0.516637,-0.0724 -0.842304,-0.15733 -0.799764,-0.46123 0.04254,-0.30391 0.481789,-0.61586 0.975644,-0.44779 0.528049,0.17971 0.819252,0.29975 0.776714,0.60365 z"
             id="path694"
             inkscape:connector-curvature="0"
             sodipodi:nodetypes="cscsc" />
          <path
             style="opacity:1;fill:#222426;fill-opacity:1;fill-rule:nonzero;stroke:none;stroke-width:1.19786334;stroke-linecap:square;stroke-linejoin:miter;stroke-miterlimit:4;stroke-dasharray:none;stroke-dashoffset:0;stroke-opacity:1"
             d="m 65.095372,235.24774 c -0.05236,0.37406 -0.535259,0.7392 -1.171145,0.65018 -0.63589,-0.0891 -1.15618,-0.34626 -1.103821,-0.72032 0.05236,-0.37406 0.640245,-0.74978 1.248096,-0.54292 0.649936,0.2212 1.079228,0.23901 1.02687,0.61306 z"
             id="path696"
             inkscape:connector-curvature="0"
             sodipodi:nodetypes="cscsc" />
          <path
             style="opacity:1;fill:#222426;fill-opacity:1;fill-rule:nonzero;stroke:none;stroke-width:1.19786346;stroke-linecap:square;stroke-linejoin:miter;stroke-miterlimit:4;stroke-dasharray:none;stroke-dashoffset:0;stroke-opacity:1"
             d="m 67.353071,234.36163 c -0.03518,0.25129 -0.311966,0.4093 -0.73914,0.3495 -0.427178,-0.0599 -0.662275,-0.22929 -0.627102,-0.48057 0.03518,-0.25129 0.540104,-0.44796 0.948445,-0.30899 0.436614,0.1486 0.452969,0.18878 0.417797,0.44006 z"
             id="path698"
             inkscape:connector-curvature="0"
             sodipodi:nodetypes="cscsc" />
          <path
             style="opacity:1;fill:#222426;fill-opacity:1;fill-rule:nonzero;stroke:none;stroke-width:1.19786334;stroke-linecap:square;stroke-linejoin:miter;stroke-miterlimit:4;stroke-dasharray:none;stroke-dashoffset:0;stroke-opacity:1"
             d="m 64.625126,232.40288 c -0.02925,0.20891 -0.259363,0.34028 -0.61451,0.29056 -0.355148,-0.0498 -0.548474,-0.21211 -0.519232,-0.42103 0.02925,-0.20891 0.260322,-0.40003 0.59981,-0.2845 0.362994,0.12354 0.563174,0.20606 0.533932,0.41497 z"
             id="path700"
             inkscape:connector-curvature="0"
             sodipodi:nodetypes="cscsc" />
          <path
             sodipodi:nodetypes="cscsc"
             inkscape:connector-curvature="0"
             id="path702"
             d="m 61.376629,232.19752 c -0.03198,0.22847 -0.260017,0.28946 -0.648407,0.23509 -0.388393,-0.0544 -0.582826,-0.15371 -0.550846,-0.38218 0.03198,-0.22847 0.409441,-0.48031 0.780707,-0.35396 0.396972,0.1351 0.450525,0.27259 0.418546,0.50105 z"
             style="opacity:1;fill:#222426;fill-opacity:1;fill-rule:nonzero;stroke:none;stroke-width:1.19786346;stroke-linecap:square;stroke-linejoin:miter;stroke-miterlimit:4;stroke-dasharray:none;stroke-dashoffset:0;stroke-opacity:1" />
        </g>
        <g
           style="stroke-width:1.19786346"
           transform="matrix(0.47065297,0.68949961,-0.68949961,0.47065297,202.80509,75.101545)"
           id="g720">
          <path
             style="opacity:1;fill:#f48024;fill-opacity:1;fill-rule:nonzero;stroke:none;stroke-width:1.19786346;stroke-linecap:square;stroke-linejoin:miter;stroke-miterlimit:4;stroke-dasharray:none;stroke-dashoffset:0;stroke-opacity:1"
             d="m 57.263887,234.98606 c 1.53543,0.78464 3.239888,1.1735 4.937073,1.47808 1.75758,0.31542 3.550217,0.54887 5.326397,0.36512 0.326579,-0.0338 0.655375,-0.0826 0.96006,-0.2049 0.304685,-0.12232 0.586379,-0.32495 0.750908,-0.60907 0.118326,-0.20434 0.17131,-0.44281 0.17163,-0.67893 3.21e-4,-0.23613 -0.0504,-0.47033 -0.12843,-0.69319 -0.169456,-0.48397 -0.467795,-0.91796 -0.835805,-1.27504 -0.368011,-0.35709 -0.804495,-0.63917 -1.267232,-0.86011 -0.925474,-0.44188 -1.944832,-0.63953 -2.947406,-0.85542 -1.333552,-0.28716 -2.674684,-0.61537 -4.038706,-0.5991 -0.682011,0.008 -1.366564,0.10403 -2.01047,0.32895 -0.643906,0.22493 -1.246806,0.58191 -1.72121,1.07196 -0.230331,0.23793 -0.436079,0.52127 -0.48324,0.84905 -0.0269,0.18696 7.8e-5,0.37994 0.06647,0.55678 0.06639,0.17684 0.171345,0.33789 0.297782,0.47823 0.252876,0.28066 0.585782,0.47568 0.922182,0.64759 z"
             id="path706"
             inkscape:connector-curvature="0"
             inkscape:path-effect="#path-effect650"
             inkscape:original-d="m 57.263887,234.98606 c 1.413462,0.9763 3.246864,1.1711 4.937073,1.47808 1.750986,0.31802 3.578057,0.69738 5.326397,0.36512 0.620468,-0.11792 1.365321,-0.28538 1.710968,-0.81397 0.250435,-0.38299 0.263529,-0.97106 0.0432,-1.37212 -0.942023,-1.71477 -3.139379,-2.57144 -5.050443,-2.99057 -2.543431,-0.55782 -5.589622,-0.62103 -7.770386,0.80181 -0.27273,0.17794 -0.505256,0.52415 -0.48324,0.84905 0.04773,0.70439 0.705524,1.28136 1.286431,1.6826 z"
             sodipodi:nodetypes="aaaaaaaaa" />
          <path
             sodipodi:nodetypes="cscsc"
             inkscape:connector-curvature="0"
             id="path708"
             d="m 58.635274,233.97031 c -0.04265,0.3047 -0.378279,0.4963 -0.896256,0.42379 -0.517981,-0.0726 -0.90331,-0.37828 -0.86066,-0.68298 0.04265,-0.3047 0.483042,-0.51454 0.978182,-0.34603 0.529423,0.18018 0.821384,0.30053 0.778734,0.60522 z"
             style="opacity:1;fill:#222426;fill-opacity:1;fill-rule:nonzero;stroke:none;stroke-width:1.19786346;stroke-linecap:square;stroke-linejoin:miter;stroke-miterlimit:4;stroke-dasharray:none;stroke-dashoffset:0;stroke-opacity:1" />
          <path
             sodipodi:nodetypes="cscsc"
             inkscape:connector-curvature="0"
             id="path710"
             d="m 62.332368,234.0016 c -0.04254,0.3039 -0.435961,0.37769 -0.952594,0.30537 -0.516637,-0.0724 -0.842304,-0.15733 -0.799764,-0.46123 0.04254,-0.30391 0.481789,-0.61586 0.975644,-0.44779 0.528049,0.17971 0.819252,0.29975 0.776714,0.60365 z"
             style="opacity:1;fill:#222426;fill-opacity:1;fill-rule:nonzero;stroke:none;stroke-width:1.19786346;stroke-linecap:square;stroke-linejoin:miter;stroke-miterlimit:4;stroke-dasharray:none;stroke-dashoffset:0;stroke-opacity:1" />
          <path
             sodipodi:nodetypes="cscsc"
             inkscape:connector-curvature="0"
             id="path712"
             d="m 65.095372,235.24774 c -0.05236,0.37406 -0.535259,0.7392 -1.171145,0.65018 -0.63589,-0.0891 -1.15618,-0.34626 -1.103821,-0.72032 0.05236,-0.37406 0.640245,-0.74978 1.248096,-0.54292 0.649936,0.2212 1.079228,0.23901 1.02687,0.61306 z"
             style="opacity:1;fill:#222426;fill-opacity:1;fill-rule:nonzero;stroke:none;stroke-width:1.19786334;stroke-linecap:square;stroke-linejoin:miter;stroke-miterlimit:4;stroke-dasharray:none;stroke-dashoffset:0;stroke-opacity:1" />
          <path
             sodipodi:nodetypes="cscsc"
             inkscape:connector-curvature="0"
             id="path714"
             d="m 67.353071,234.36163 c -0.03518,0.25129 -0.311966,0.4093 -0.73914,0.3495 -0.427178,-0.0599 -0.662275,-0.22929 -0.627102,-0.48057 0.03518,-0.25129 0.540104,-0.44796 0.948445,-0.30899 0.436614,0.1486 0.452969,0.18878 0.417797,0.44006 z"
             style="opacity:1;fill:#222426;fill-opacity:1;fill-rule:nonzero;stroke:none;stroke-width:1.19786346;stroke-linecap:square;stroke-linejoin:miter;stroke-miterlimit:4;stroke-dasharray:none;stroke-dashoffset:0;stroke-opacity:1" />
          <path
             sodipodi:nodetypes="cscsc"
             inkscape:connector-curvature="0"
             id="path716"
             d="m 64.625126,232.40288 c -0.02925,0.20891 -0.259363,0.34028 -0.61451,0.29056 -0.355148,-0.0498 -0.548474,-0.21211 -0.519232,-0.42103 0.02925,-0.20891 0.260322,-0.40003 0.59981,-0.2845 0.362994,0.12354 0.563174,0.20606 0.533932,0.41497 z"
             style="opacity:1;fill:#222426;fill-opacity:1;fill-rule:nonzero;stroke:none;stroke-width:1.19786334;stroke-linecap:square;stroke-linejoin:miter;stroke-miterlimit:4;stroke-dasharray:none;stroke-dashoffset:0;stroke-opacity:1" />
          <path
             style="opacity:1;fill:#222426;fill-opacity:1;fill-rule:nonzero;stroke:none;stroke-width:1.19786346;stroke-linecap:square;stroke-linejoin:miter;stroke-miterlimit:4;stroke-dasharray:none;stroke-dashoffset:0;stroke-opacity:1"
             d="m 61.376629,232.19752 c -0.03198,0.22847 -0.260017,0.28946 -0.648407,0.23509 -0.388393,-0.0544 -0.582826,-0.15371 -0.550846,-0.38218 0.03198,-0.22847 0.409441,-0.48031 0.780707,-0.35396 0.396972,0.1351 0.450525,0.27259 0.418546,0.50105 z"
             id="path718"
             inkscape:connector-curvature="0"
             sodipodi:nodetypes="cscsc" />
        </g>
      </g>
      <g
         transform="translate(0,0.39453745)"
         id="g306">
        <path
           id="path1637"
           d="m 69.282334,283.03921 v -5.82084 h 1.957916 v 7.7523 H 53.804209 v -7.7523 h 1.931458 v 5.82084 z"
           class="st1"
           inkscape:connector-curvature="0"
           style="fill:#bcbbbb;stroke-width:0.26458332" />
        <g
           transform="translate(3.8489867,122.0634)"
           id="g1645">
          <path
             style="fill:#222426;stroke-width:1.79013956"
             d="m 713.04883,991.76562 c -11.09889,0 -16.11133,8.05501 -16.11133,15.93168 v 61.0449 h 13.78516 v -43.6797 h 10.20312 V 1014.5 h -10.20312 v -6.0859 c 0,-3.2223 1.61173,-5.0137 4.83398,-5.0137 h 5.36914 v -11.63478 z m 14.5,0 v 61.04298 c 0,7.8766 4.83348,15.7539 16.11133,15.7539 h 7.87695 v -11.6367 h -5.36914 c -3.40128,0 -4.83399,-1.6098 -4.83399,-4.832 v -60.32818 z m -282.48242,0.17969 v 76.79689 h 7.69726 v -19.334 l 9.48633,-9.4883 17.72266,28.8223 h 9.66796 l -22.01953,-34.1934 18.97657,-18.9746 h -9.66797 l -24.16602,23.4512 v -47.08009 z m 78.04882,20.76559 c -8.23468,0 -13.60465,3.2205 -17.00585,6.8008 -5.01244,5.1914 -6.26563,11.4576 -6.26563,21.4824 0,10.0248 1.25319,16.2911 6.26563,21.4825 3.4012,3.5802 8.95019,6.8027 17.00585,6.8027 8.23462,0 13.78427,-3.2225 17.18555,-6.8027 5.01237,-5.1914 6.26563,-11.4577 6.26563,-21.4825 0,-10.0248 -1.25326,-16.291 -6.26563,-21.4824 -3.40128,-3.5803 -9.12995,-6.8008 -17.18555,-6.8008 z m 98.2793,0 c -14.32107,0 -24.16797,10.2028 -24.16797,28.2832 0,22.3768 12.53158,28.2852 25.59961,28.2852 10.02481,0 15.39594,-3.045 20.94531,-8.7734 l -8.41406,-8.2344 c -3.58023,3.5803 -6.4448,5.1914 -12.53125,5.1914 -7.69761,0 -12.17187,-5.191 -12.17187,-12.3516 h 34.54882 v -6.0859 c 0.1793,-15.0372 -8.59239,-26.3145 -23.80859,-26.3145 z m 156.45899,0 c -8.23469,0 -13.60654,3.2205 -17.00782,6.8008 -5.01237,5.1914 -6.26562,11.4576 -6.26562,21.4824 0,10.0248 1.25325,16.2911 6.26562,21.4825 3.40128,3.5802 8.95215,6.8027 17.00782,6.8027 8.23462,0 13.78231,-3.2225 17.18359,-6.8027 5.01237,-5.1914 6.26562,-11.4577 6.26562,-21.4825 0,-10.0248 -1.25325,-16.291 -6.26562,-21.4824 -3.40128,-3.5803 -9.128,-6.8008 -17.18359,-6.8008 z m -98.09961,0.1778 c -6.08646,-0.1793 -11.27967,2.6852 -13.96485,5.7285 v -5.3692 h -13.42578 v 55.4942 h 13.78516 v -33.2969 c 0,-6.9816 4.65288,-10.2051 8.94922,-10.2051 3.40127,0 5.19167,1.0745 7.33984,3.2227 l 10.38281,-10.3828 c -3.75932,-3.7593 -7.69598,-5.1914 -13.0664,-5.1914 z m -133.36719,0.5371 20.4082,55.3164 h 10.74024 l 20.22851,-55.3164 h -14.5 l -11.09765,34.1914 -11.2793,-34.1914 z m 254.91601,0 17.00782,55.3164 h 11.27734 l 11.63477,-34.7305 11.63672,34.7305 h 11.27734 l 16.82812,-55.3164 h -14.5 l -8.95117,34.1914 -11.27734,-34.1914 h -10.02539 l -11.27735,34.1914 -8.95117,-34.1914 z m -432.85546,1.4316 c -8.59267,0 -13.96283,1.6128 -18.61719,7.6992 l 5.01172,5.0118 c 3.04324,-4.4754 6.6252,-6.086 13.42773,-6.086 9.66676,0 13.60352,3.9372 13.60352,11.6348 v 5.1914 h -15.93164 c -11.81493,0 -18.25977,6.0878 -18.25977,15.3965 0,4.2963 1.43326,8.234 3.93945,10.7402 3.40127,3.4013 7.69754,4.834 15.03711,4.834 7.16057,0 10.91919,-1.4322 15.39453,-5.7285 v 5.1914 H 389.75 v -36.1621 c -0.17903,-11.457 -7.16063,-17.7227 -21.30273,-17.7227 z m -46.85938,0.1348 c -3.02754,0 -5.80322,0.5398 -8.32617,1.6211 -2.52295,1.0813 -4.72151,2.7047 -6.5957,4.8672 v -5.8399 h -7.78516 v 53.1992 h 7.78516 v -32.7636 c 0,-4.6855 1.18957,-8.217 3.56836,-10.5957 2.37878,-2.3788 5.58632,-3.5684 9.62304,-3.5684 4.03672,0 7.20893,1.1896 9.51563,3.5684 2.37878,2.3066 3.56836,5.8381 3.56836,10.5957 v 32.7636 h 7.78515 v -34.0605 c 0,-6.2713 -1.83737,-11.2083 -5.51367,-14.8125 -3.31588,-3.3159 -7.85826,-4.9746 -13.625,-4.9746 z m 98.41602,0.045 c -13.42605,0 -23.45118,9.1305 -23.45118,27.2109 0,18.0804 10.20414,27.209 23.45118,27.209 7.33956,0 11.99353,-1.9695 17.54297,-7.8769 l -5.3711,-5.0117 c -3.9383,4.4753 -7.15948,6.0859 -12.17187,6.0859 -5.19141,0 -9.48734,-1.9686 -12.35157,-6.0859 -2.50619,-3.4013 -3.40234,-7.5179 -3.40234,-14.3204 0,-6.6235 0.89615,-10.7419 3.40234,-14.3222 2.86423,-4.1173 7.16016,-6.086 12.35157,-6.086 5.01239,0 8.23357,1.4329 12.17187,5.9082 l 5.19141,-5.0136 c -5.37042,-5.9075 -10.02372,-7.6973 -17.36328,-7.6973 z m -150.47461,0.1797 c -11.27788,0 -19.51172,5.9075 -19.51172,15.5742 0,8.7717 5.54883,13.4253 15.93164,14.3203 l 8.77148,0.7168 c 6.08648,0.5372 8.77149,3.0429 8.77149,7.6973 0,6.2655 -5.37089,9.3086 -14.14258,9.3086 -6.62352,0 -12.35143,-1.7896 -16.46875,-6.086 l -5.19141,5.1915 c 5.90746,5.5494 12.88915,7.6972 21.83985,7.6972 12.889,0 21.66015,-5.9075 21.66015,-16.1113 0.17903,-10.3828 -6.26549,-13.7846 -15.57422,-14.6797 l -8.59179,-0.7148 c -6.62352,-0.5373 -9.3086,-3.224 -9.3086,-7.6993 0,-5.3704 4.11685,-8.7714 11.81446,-8.7714 5.54943,0 10.38328,1.2536 14.14258,4.2968 l 5.01171,-5.0117 c -4.83337,-3.9383 -11.45669,-5.7285 -19.15429,-5.7285 z m 351.86523,8.9492 c 4.65439,0 7.69744,2.5063 9.30859,5.7285 0.89506,1.9692 1.25391,3.581 1.25391,5.9082 h -21.125 c 0.1793,-2.5062 0.35871,-3.939 1.25391,-5.9082 1.43213,-3.2222 4.47525,-5.7285 9.30859,-5.7285 z m -98.2793,0.8965 c 2.68518,0 4.83416,0.8948 6.44532,2.5059 2.8642,2.8642 3.22265,7.6973 3.22265,13.4257 0,5.7284 -0.35832,10.5616 -3.22265,13.4258 -1.61116,1.6112 -3.76014,2.5059 -6.44532,2.5059 -2.68524,0 -4.83226,-0.8947 -6.44335,-2.5059 -2.86427,-2.8642 -3.22266,-7.6974 -3.22266,-13.4258 0,-5.7284 0.35832,-10.5615 3.22266,-13.4257 1.61109,-1.6111 3.57909,-2.5059 6.44335,-2.5059 z m 254.73829,0 c 2.68517,0 4.8322,0.8948 6.44336,2.5059 2.8642,2.8642 3.22265,7.6973 3.22265,13.4257 0,5.7284 -0.35832,10.5616 -3.22265,13.4258 -1.61116,1.6112 -3.75819,2.5059 -6.44336,2.5059 -2.68525,0 -4.83422,-0.8947 -6.44532,-2.5059 -2.86427,-2.8642 -3.22265,-7.6974 -3.22265,-13.4258 0,-5.7284 0.35832,-10.5615 3.22265,-13.4257 1.6111,-1.6111 3.58105,-2.5059 6.44532,-2.5059 z m -410.8379,19.1543 h 14.85743 v 5.7285 c 0,4.4754 -0.89541,7.5178 -2.68555,9.1289 -3.40127,3.2223 -7.33911,3.5801 -11.81445,3.5801 -8.41366,0 -12.17188,-2.8634 -12.17188,-9.1289 0,-6.0865 3.93784,-9.3086 11.81445,-9.3086 z"
             transform="matrix(0.14780038,0,0,0.14780038,34.103116,1.083971)"
             id="path1639"
             inkscape:connector-curvature="0" />
        </g>
        <g
           transform="matrix(0.99110457,0,0,0.99110457,1.2167267,-44.979155)"
           id="g1702">
          <ellipse
             style="opacity:1;fill:#f48024;fill-opacity:1;fill-rule:nonzero;stroke:none;stroke-width:1;stroke-linecap:square;stroke-linejoin:miter;stroke-miterlimit:4;stroke-dasharray:none;stroke-dashoffset:0;stroke-opacity:1"
             id="ellipse1696"
             cx="61.672443"
             cy="328.32065"
             rx="3.8921125"
             ry="1.987817" />
          <path
             style="opacity:1;fill:#f48024;fill-opacity:1;fill-rule:nonzero;stroke:none;stroke-width:1;stroke-linecap:square;stroke-linejoin:miter;stroke-miterlimit:4;stroke-dasharray:none;stroke-dashoffset:0;stroke-opacity:1"
             d="m 65.191201,328.073 2.24424,-0.80472 c -0.04435,0.004 -0.08754,0.02 -0.124267,0.0453 -0.03673,0.0252 -0.06691,0.0599 -0.08683,0.0998 -0.01993,0.0399 -0.02956,0.0848 -0.0277,0.12932 0.0019,0.0445 0.01518,0.0885 0.03835,0.12657 0.03026,0.0497 0.07621,0.0882 0.125594,0.11898 0.04939,0.0308 0.10269,0.0547 0.154367,0.0814 0.05168,0.0268 0.102427,0.057 0.143579,0.0981 0.04115,0.0412 0.0723,0.0945 0.07759,0.15249 0.0056,0.0612 -0.01829,0.12264 -0.05633,0.17091 -0.03803,0.0483 -0.08931,0.0846 -0.143141,0.11419 -0.107666,0.0593 -0.230782,0.0964 -0.318367,0.18263 -0.04963,0.0489 -0.08512,0.11193 -0.101122,0.17971 -0.016,0.0678 -0.01246,0.14006 0.01008,0.20596 0.02254,0.0659 0.06402,0.1252 0.118187,0.16898 0.05417,0.0438 0.120848,0.0719 0.190008,0.0801 l -2.160719,-0.63184 -0.08352,-0.51784 z"
             id="path1698"
             inkscape:connector-curvature="0"
             inkscape:path-effect="#path-effect1681"
             inkscape:original-d="m 65.191201,328.073 2.24424,-0.80472 c 0,0 -0.133369,0.26699 -0.200451,0.4009 -0.06708,0.1339 0.334351,0.3004 0.501131,0.45101 0.166778,0.1506 -0.344958,0.31154 -0.517834,0.46773 -0.172876,0.15615 0.217154,0.63476 0.217154,0.63476 l -2.160719,-0.63184 -0.08352,-0.51784 z"
             transform="matrix(1.0281826,0,0,2.0685529,-2.0485505,-350.83937)"
             sodipodi:nodetypes="ccccccccc" />
          <path
             sodipodi:nodetypes="ccccccccc"
             transform="matrix(-1.0281826,0,0,2.0685529,125.46107,-350.88949)"
             inkscape:original-d="m 65.191201,328.073 2.24424,-0.80472 c 0,0 -0.133369,0.26699 -0.200451,0.4009 -0.06708,0.1339 0.334351,0.3004 0.501131,0.45101 0.166778,0.1506 -0.344958,0.31154 -0.517834,0.46773 -0.172876,0.15615 0.217154,0.63476 0.217154,0.63476 l -2.160719,-0.63184 -0.08352,-0.51784 z"
             inkscape:path-effect="#path-effect1689"
             inkscape:connector-curvature="0"
             id="path1700"
             d="m 65.191201,328.073 2.24424,-0.80472 c -0.04435,0.004 -0.08754,0.02 -0.124267,0.0453 -0.03673,0.0252 -0.06691,0.0599 -0.08683,0.0998 -0.01993,0.0399 -0.02956,0.0848 -0.0277,0.12932 0.0019,0.0445 0.01518,0.0885 0.03835,0.12657 0.03026,0.0497 0.07621,0.0882 0.125594,0.11898 0.04939,0.0308 0.10269,0.0547 0.154367,0.0814 0.05168,0.0268 0.102427,0.057 0.143579,0.0981 0.04115,0.0412 0.0723,0.0945 0.07759,0.15249 0.0056,0.0612 -0.01829,0.12264 -0.05633,0.17091 -0.03803,0.0483 -0.08931,0.0846 -0.143141,0.11419 -0.107666,0.0593 -0.230782,0.0964 -0.318367,0.18263 -0.04963,0.0489 -0.08512,0.11193 -0.101122,0.17971 -0.016,0.0678 -0.01246,0.14006 0.01008,0.20596 0.02254,0.0659 0.06402,0.1252 0.118187,0.16898 0.05417,0.0438 0.120848,0.0719 0.190008,0.0801 l -2.160719,-0.63184 -0.08352,-0.51784 z"
             style="opacity:1;fill:#f48024;fill-opacity:1;fill-rule:nonzero;stroke:none;stroke-width:1;stroke-linecap:square;stroke-linejoin:miter;stroke-miterlimit:4;stroke-dasharray:none;stroke-dashoffset:0;stroke-opacity:1" />
        </g>
        <g
           transform="matrix(0.90776154,0.39781562,-0.39781562,0.90776154,138.30787,-48.159815)"
           id="g1710">
          <ellipse
             style="opacity:1;fill:#f48024;fill-opacity:1;fill-rule:nonzero;stroke:none;stroke-width:1;stroke-linecap:square;stroke-linejoin:miter;stroke-miterlimit:4;stroke-dasharray:none;stroke-dashoffset:0;stroke-opacity:1"
             id="ellipse1704"
             cx="61.672443"
             cy="328.32065"
             rx="3.8921125"
             ry="1.987817" />
          <path
             style="opacity:1;fill:#f48024;fill-opacity:1;fill-rule:nonzero;stroke:none;stroke-width:1;stroke-linecap:square;stroke-linejoin:miter;stroke-miterlimit:4;stroke-dasharray:none;stroke-dashoffset:0;stroke-opacity:1"
             d="m 65.191201,328.073 2.24424,-0.80472 c -0.04435,0.004 -0.08754,0.02 -0.124267,0.0453 -0.03673,0.0252 -0.06691,0.0599 -0.08683,0.0998 -0.01993,0.0399 -0.02956,0.0848 -0.0277,0.12932 0.0019,0.0445 0.01518,0.0885 0.03835,0.12657 0.03026,0.0497 0.07621,0.0882 0.125594,0.11898 0.04939,0.0308 0.10269,0.0547 0.154367,0.0814 0.05168,0.0268 0.102427,0.057 0.143579,0.0981 0.04115,0.0412 0.0723,0.0945 0.07759,0.15249 0.0056,0.0612 -0.01829,0.12264 -0.05633,0.17091 -0.03803,0.0483 -0.08931,0.0846 -0.143141,0.11419 -0.107666,0.0593 -0.230782,0.0964 -0.318367,0.18263 -0.04963,0.0489 -0.08512,0.11193 -0.101122,0.17971 -0.016,0.0678 -0.01246,0.14006 0.01008,0.20596 0.02254,0.0659 0.06402,0.1252 0.118187,0.16898 0.05417,0.0438 0.120848,0.0719 0.190008,0.0801 l -2.160719,-0.63184 -0.08352,-0.51784 z"
             id="path1706"
             inkscape:connector-curvature="0"
             inkscape:path-effect="#path-effect1681"
             inkscape:original-d="m 65.191201,328.073 2.24424,-0.80472 c 0,0 -0.133369,0.26699 -0.200451,0.4009 -0.06708,0.1339 0.334351,0.3004 0.501131,0.45101 0.166778,0.1506 -0.344958,0.31154 -0.517834,0.46773 -0.172876,0.15615 0.217154,0.63476 0.217154,0.63476 l -2.160719,-0.63184 -0.08352,-0.51784 z"
             transform="matrix(1.0281826,0,0,2.0685529,-2.0485505,-350.83937)"
             sodipodi:nodetypes="ccccccccc" />
          <path
             sodipodi:nodetypes="ccccccccc"
             transform="matrix(-1.0281826,0,0,2.0685529,125.46107,-350.88949)"
             inkscape:original-d="m 65.191201,328.073 2.24424,-0.80472 c 0,0 -0.133369,0.26699 -0.200451,0.4009 -0.06708,0.1339 0.334351,0.3004 0.501131,0.45101 0.166778,0.1506 -0.344958,0.31154 -0.517834,0.46773 -0.172876,0.15615 0.217154,0.63476 0.217154,0.63476 l -2.160719,-0.63184 -0.08352,-0.51784 z"
             inkscape:path-effect="#path-effect1689"
             inkscape:connector-curvature="0"
             id="path1708"
             d="m 65.191201,328.073 2.24424,-0.80472 c -0.04435,0.004 -0.08754,0.02 -0.124267,0.0453 -0.03673,0.0252 -0.06691,0.0599 -0.08683,0.0998 -0.01993,0.0399 -0.02956,0.0848 -0.0277,0.12932 0.0019,0.0445 0.01518,0.0885 0.03835,0.12657 0.03026,0.0497 0.07621,0.0882 0.125594,0.11898 0.04939,0.0308 0.10269,0.0547 0.154367,0.0814 0.05168,0.0268 0.102427,0.057 0.143579,0.0981 0.04115,0.0412 0.0723,0.0945 0.07759,0.15249 0.0056,0.0612 -0.01829,0.12264 -0.05633,0.17091 -0.03803,0.0483 -0.08931,0.0846 -0.143141,0.11419 -0.107666,0.0593 -0.230782,0.0964 -0.318367,0.18263 -0.04963,0.0489 -0.08512,0.11193 -0.101122,0.17971 -0.016,0.0678 -0.01246,0.14006 0.01008,0.20596 0.02254,0.0659 0.06402,0.1252 0.118187,0.16898 0.05417,0.0438 0.120848,0.0719 0.190008,0.0801 l -2.160719,-0.63184 -0.08352,-0.51784 z"
             style="opacity:1;fill:#f48024;fill-opacity:1;fill-rule:nonzero;stroke:none;stroke-width:1;stroke-linecap:square;stroke-linejoin:miter;stroke-miterlimit:4;stroke-dasharray:none;stroke-dashoffset:0;stroke-opacity:1" />
        </g>
        <g
           transform="matrix(0.65102369,0.74729942,-0.74729942,0.65102369,272.77664,9.5918759)"
           id="g1726">
          <ellipse
             style="opacity:1;fill:#f48024;fill-opacity:1;fill-rule:nonzero;stroke:none;stroke-width:1;stroke-linecap:square;stroke-linejoin:miter;stroke-miterlimit:4;stroke-dasharray:none;stroke-dashoffset:0;stroke-opacity:1"
             id="ellipse1720"
             cx="61.672443"
             cy="328.32065"
             rx="3.8921125"
             ry="1.987817" />
          <path
             style="opacity:1;fill:#f48024;fill-opacity:1;fill-rule:nonzero;stroke:none;stroke-width:1;stroke-linecap:square;stroke-linejoin:miter;stroke-miterlimit:4;stroke-dasharray:none;stroke-dashoffset:0;stroke-opacity:1"
             d="m 65.191201,328.073 2.24424,-0.80472 c -0.04435,0.004 -0.08754,0.02 -0.124267,0.0453 -0.03673,0.0252 -0.06691,0.0599 -0.08683,0.0998 -0.01993,0.0399 -0.02956,0.0848 -0.0277,0.12932 0.0019,0.0445 0.01518,0.0885 0.03835,0.12657 0.03026,0.0497 0.07621,0.0882 0.125594,0.11898 0.04939,0.0308 0.10269,0.0547 0.154367,0.0814 0.05168,0.0268 0.102427,0.057 0.143579,0.0981 0.04115,0.0412 0.0723,0.0945 0.07759,0.15249 0.0056,0.0612 -0.01829,0.12264 -0.05633,0.17091 -0.03803,0.0483 -0.08931,0.0846 -0.143141,0.11419 -0.107666,0.0593 -0.230782,0.0964 -0.318367,0.18263 -0.04963,0.0489 -0.08512,0.11193 -0.101122,0.17971 -0.016,0.0678 -0.01246,0.14006 0.01008,0.20596 0.02254,0.0659 0.06402,0.1252 0.118187,0.16898 0.05417,0.0438 0.120848,0.0719 0.190008,0.0801 l -2.160719,-0.63184 -0.08352,-0.51784 z"
             id="path1722"
             inkscape:connector-curvature="0"
             inkscape:path-effect="#path-effect1681"
             inkscape:original-d="m 65.191201,328.073 2.24424,-0.80472 c 0,0 -0.133369,0.26699 -0.200451,0.4009 -0.06708,0.1339 0.334351,0.3004 0.501131,0.45101 0.166778,0.1506 -0.344958,0.31154 -0.517834,0.46773 -0.172876,0.15615 0.217154,0.63476 0.217154,0.63476 l -2.160719,-0.63184 -0.08352,-0.51784 z"
             transform="matrix(1.0281826,0,0,2.0685529,-2.0485505,-350.83937)"
             sodipodi:nodetypes="ccccccccc" />
          <path
             sodipodi:nodetypes="ccccccccc"
             transform="matrix(-1.0281826,0,0,2.0685529,125.46107,-350.88949)"
             inkscape:original-d="m 65.191201,328.073 2.24424,-0.80472 c 0,0 -0.133369,0.26699 -0.200451,0.4009 -0.06708,0.1339 0.334351,0.3004 0.501131,0.45101 0.166778,0.1506 -0.344958,0.31154 -0.517834,0.46773 -0.172876,0.15615 0.217154,0.63476 0.217154,0.63476 l -2.160719,-0.63184 -0.08352,-0.51784 z"
             inkscape:path-effect="#path-effect1689"
             inkscape:connector-curvature="0"
             id="path1724"
             d="m 65.191201,328.073 2.24424,-0.80472 c -0.04435,0.004 -0.08754,0.02 -0.124267,0.0453 -0.03673,0.0252 -0.06691,0.0599 -0.08683,0.0998 -0.01993,0.0399 -0.02956,0.0848 -0.0277,0.12932 0.0019,0.0445 0.01518,0.0885 0.03835,0.12657 0.03026,0.0497 0.07621,0.0882 0.125594,0.11898 0.04939,0.0308 0.10269,0.0547 0.154367,0.0814 0.05168,0.0268 0.102427,0.057 0.143579,0.0981 0.04115,0.0412 0.0723,0.0945 0.07759,0.15249 0.0056,0.0612 -0.01829,0.12264 -0.05633,0.17091 -0.03803,0.0483 -0.08931,0.0846 -0.143141,0.11419 -0.107666,0.0593 -0.230782,0.0964 -0.318367,0.18263 -0.04963,0.0489 -0.08512,0.11193 -0.101122,0.17971 -0.016,0.0678 -0.01246,0.14006 0.01008,0.20596 0.02254,0.0659 0.06402,0.1252 0.118187,0.16898 0.05417,0.0438 0.120848,0.0719 0.190008,0.0801 l -2.160719,-0.63184 -0.08352,-0.51784 z"
             style="opacity:1;fill:#f48024;fill-opacity:1;fill-rule:nonzero;stroke:none;stroke-width:1;stroke-linecap:square;stroke-linejoin:miter;stroke-miterlimit:4;stroke-dasharray:none;stroke-dashoffset:0;stroke-opacity:1" />
        </g>
        <g
           id="g1694"
           transform="matrix(0.26759264,0.95429683,-0.95429683,0.26759264,370.46922,119.82009)">
          <ellipse
             ry="1.987817"
             rx="3.8921125"
             cy="328.32065"
             cx="61.672443"
             id="path1677"
             style="opacity:1;fill:#f48024;fill-opacity:1;fill-rule:nonzero;stroke:none;stroke-width:1;stroke-linecap:square;stroke-linejoin:miter;stroke-miterlimit:4;stroke-dasharray:none;stroke-dashoffset:0;stroke-opacity:1" />
          <path
             sodipodi:nodetypes="ccccccccc"
             transform="matrix(1.0281826,0,0,2.0685529,-2.0485505,-350.83937)"
             inkscape:original-d="m 65.191201,328.073 2.24424,-0.80472 c 0,0 -0.133369,0.26699 -0.200451,0.4009 -0.06708,0.1339 0.334351,0.3004 0.501131,0.45101 0.166778,0.1506 -0.344958,0.31154 -0.517834,0.46773 -0.172876,0.15615 0.217154,0.63476 0.217154,0.63476 l -2.160719,-0.63184 -0.08352,-0.51784 z"
             inkscape:path-effect="#path-effect1681"
             inkscape:connector-curvature="0"
             id="path1679"
             d="m 65.191201,328.073 2.24424,-0.80472 c -0.04435,0.004 -0.08754,0.02 -0.124267,0.0453 -0.03673,0.0252 -0.06691,0.0599 -0.08683,0.0998 -0.01993,0.0399 -0.02956,0.0848 -0.0277,0.12932 0.0019,0.0445 0.01518,0.0885 0.03835,0.12657 0.03026,0.0497 0.07621,0.0882 0.125594,0.11898 0.04939,0.0308 0.10269,0.0547 0.154367,0.0814 0.05168,0.0268 0.102427,0.057 0.143579,0.0981 0.04115,0.0412 0.0723,0.0945 0.07759,0.15249 0.0056,0.0612 -0.01829,0.12264 -0.05633,0.17091 -0.03803,0.0483 -0.08931,0.0846 -0.143141,0.11419 -0.107666,0.0593 -0.230782,0.0964 -0.318367,0.18263 -0.04963,0.0489 -0.08512,0.11193 -0.101122,0.17971 -0.016,0.0678 -0.01246,0.14006 0.01008,0.20596 0.02254,0.0659 0.06402,0.1252 0.118187,0.16898 0.05417,0.0438 0.120848,0.0719 0.190008,0.0801 l -2.160719,-0.63184 -0.08352,-0.51784 z"
             style="opacity:1;fill:#f48024;fill-opacity:1;fill-rule:nonzero;stroke:none;stroke-width:1;stroke-linecap:square;stroke-linejoin:miter;stroke-miterlimit:4;stroke-dasharray:none;stroke-dashoffset:0;stroke-opacity:1" />
          <path
             style="opacity:1;fill:#f48024;fill-opacity:1;fill-rule:nonzero;stroke:none;stroke-width:1;stroke-linecap:square;stroke-linejoin:miter;stroke-miterlimit:4;stroke-dasharray:none;stroke-dashoffset:0;stroke-opacity:1"
             d="m 65.191201,328.073 2.24424,-0.80472 c -0.04435,0.004 -0.08754,0.02 -0.124267,0.0453 -0.03673,0.0252 -0.06691,0.0599 -0.08683,0.0998 -0.01993,0.0399 -0.02956,0.0848 -0.0277,0.12932 0.0019,0.0445 0.01518,0.0885 0.03835,0.12657 0.03026,0.0497 0.07621,0.0882 0.125594,0.11898 0.04939,0.0308 0.10269,0.0547 0.154367,0.0814 0.05168,0.0268 0.102427,0.057 0.143579,0.0981 0.04115,0.0412 0.0723,0.0945 0.07759,0.15249 0.0056,0.0612 -0.01829,0.12264 -0.05633,0.17091 -0.03803,0.0483 -0.08931,0.0846 -0.143141,0.11419 -0.107666,0.0593 -0.230782,0.0964 -0.318367,0.18263 -0.04963,0.0489 -0.08512,0.11193 -0.101122,0.17971 -0.016,0.0678 -0.01246,0.14006 0.01008,0.20596 0.02254,0.0659 0.06402,0.1252 0.118187,0.16898 0.05417,0.0438 0.120848,0.0719 0.190008,0.0801 l -2.160719,-0.63184 -0.08352,-0.51784 z"
             id="path1687"
             inkscape:connector-curvature="0"
             inkscape:path-effect="#path-effect1689"
             inkscape:original-d="m 65.191201,328.073 2.24424,-0.80472 c 0,0 -0.133369,0.26699 -0.200451,0.4009 -0.06708,0.1339 0.334351,0.3004 0.501131,0.45101 0.166778,0.1506 -0.344958,0.31154 -0.517834,0.46773 -0.172876,0.15615 0.217154,0.63476 0.217154,0.63476 l -2.160719,-0.63184 -0.08352,-0.51784 z"
             transform="matrix(-1.0281826,0,0,2.0685529,125.46107,-350.88949)"
             sodipodi:nodetypes="ccccccccc" />
        </g>
      </g>
      <g
         transform="translate(0.447204,-3.1324235)"
         id="g404">
        <path
           style="fill:#bcbbbb;stroke-width:0.26458332"
           inkscape:connector-curvature="0"
           class="st1"
           d="m 68.83513,205.76599 v -5.82084 h 1.957916 v 7.7523 H 53.357005 v -7.7523 h 1.931458 v 5.82084 z"
           id="path1728" />
        <g
           id="g1736"
           transform="translate(3.4017857,44.790178)">
          <path
             style="fill:#222426;stroke-width:1.79013956"
             d="m 713.04883,445.08008 c -11.09889,0 -16.11133,8.05695 -16.11133,15.93359 v 61.04297 h 13.78516 v -43.67969 h 10.20312 v -10.56054 h -10.20312 v -6.08789 c 0,-3.22226 1.61173,-5.01172 4.83398,-5.01172 h 5.36914 v -11.63672 z m 14.5,0 V 506.125 c 0,7.87657 4.83348,15.75195 16.11133,15.75195 h 7.87695 v -11.63476 h -5.36914 c -3.40128,0 -4.83399,-1.61174 -4.83399,-4.83399 v -60.32812 z m -282.48242,0.17969 v 76.79687 h 7.69726 v -19.33398 l 9.48633,-9.48633 17.72266,28.82031 h 9.66796 l -22.01953,-34.19141 18.97657,-18.97461 h -9.66797 l -24.16602,23.44922 v -47.08007 z m 78.04882,20.76562 c -8.23468,0 -13.60465,3.22243 -17.00585,6.80273 -5.01244,5.1914 -6.26563,11.45762 -6.26563,21.48243 0,10.02473 1.25319,16.28907 6.26563,21.48047 3.4012,3.58023 8.95019,6.80273 17.00585,6.80273 8.23462,0 13.78427,-3.2225 17.18555,-6.80273 5.01237,-5.1914 6.26563,-11.45574 6.26563,-21.48047 0,-10.02481 -1.25326,-16.29103 -6.26563,-21.48243 -3.40128,-3.5803 -9.12995,-6.80273 -17.18555,-6.80273 z m 98.2793,0 c -14.32107,0 -24.16797,10.20476 -24.16797,28.28516 0,22.37673 12.53158,28.2832 25.59961,28.2832 10.02481,0 15.39594,-3.04308 20.94531,-8.77148 l -8.41406,-8.23438 c -3.58023,3.5803 -6.4448,5.19141 -12.53125,5.19141 -7.69761,0 -12.17187,-5.19103 -12.17187,-12.35157 h 34.54882 v -6.08789 c 0.1793,-15.03717 -8.59239,-26.31445 -23.80859,-26.31445 z m 156.45899,0 c -8.23469,0 -13.60654,3.22243 -17.00782,6.80273 -5.01237,5.1914 -6.26562,11.45762 -6.26562,21.48243 0,10.02473 1.25325,16.28907 6.26562,21.48047 3.40128,3.58023 8.95215,6.80273 17.00782,6.80273 8.23462,0 13.78231,-3.2225 17.18359,-6.80273 5.01237,-5.1914 6.26562,-11.45574 6.26562,-21.48047 0,-10.02481 -1.25325,-16.29103 -6.26562,-21.48243 -3.40128,-3.5803 -9.128,-6.80273 -17.18359,-6.80273 z m -99.23047,0.17969 c -5.59527,0.17811 -10.31664,2.87543 -12.83399,5.72851 v -5.37109 h -13.42578 v 55.49414 h 13.78516 v -33.29687 c 0,-6.98158 4.65288,-10.20313 8.94922,-10.20313 3.40127,0 5.19167,1.07449 7.33984,3.22266 l 10.38281,-10.38282 c -3.75932,-3.75926 -7.69598,-5.1914 -13.0664,-5.1914 -0.38041,-0.0112 -0.75785,-0.0119 -1.13086,0 z m -132.23633,0.53711 20.4082,55.31445 h 10.74024 l 20.22851,-55.31445 h -14.5 l -11.09765,34.1914 -11.27735,-34.1914 z m 254.91601,0 17.00782,55.31445 h 11.27734 l 11.63477,-34.72852 11.63672,34.72852 h 11.27734 l 16.82812,-55.31445 h -14.5 l -8.95117,34.1914 -11.27734,-34.1914 h -10.02539 l -11.27735,34.1914 -8.95117,-34.1914 z m -432.85546,1.43164 c -8.59267,0 -13.96283,1.61081 -18.61719,7.69726 l 5.01172,5.01172 c 3.04324,-4.47536 6.6252,-6.08593 13.42773,-6.08593 9.66676,0 13.60352,3.9391 13.60352,11.63671 v 5.19141 h -15.93164 c -11.81493,0 -18.25977,6.08583 -18.25977,15.39453 0,4.29634 1.43326,8.23402 3.93945,10.74024 3.40127,3.40127 7.69754,4.83398 15.03711,4.83398 7.16057,0 10.91919,-1.43218 15.39453,-5.72852 v 5.19141 H 389.75 v -36.16016 c -0.17903,-11.45693 -7.16063,-17.72265 -21.30273,-17.72265 z m -46.85938,0.13281 c -3.02754,0 -5.80322,0.54181 -8.32617,1.62305 -2.52295,1.08128 -4.72151,2.70272 -6.5957,4.86523 v -5.83789 h -7.78516 v 53.19727 h 7.78516 v -32.76172 c 0,-4.68551 1.18957,-8.21891 3.56836,-10.59766 2.37878,-2.37879 5.58632,-3.5664 9.62304,-3.5664 4.03672,0 7.20893,1.18761 9.51563,3.5664 2.37878,2.30667 3.56836,5.84007 3.56836,10.59766 v 32.76172 h 7.78515 v -34.06055 c 0,-6.2713 -1.83737,-11.20827 -5.51367,-14.8125 -3.31588,-3.31587 -7.85826,-4.97461 -13.625,-4.97461 z m 98.41602,0.0469 c -13.42605,0 -23.45118,9.12851 -23.45118,27.20898 0,18.0804 10.20414,27.21094 23.45118,27.21094 7.33956,0 11.99353,-1.96953 17.54297,-7.87696 l -5.3711,-5.01171 c -3.9383,4.47536 -7.15948,6.08593 -12.17187,6.08593 -5.19141,0 -9.48734,-1.96862 -12.35157,-6.08593 -2.50619,-3.40128 -3.40234,-7.51978 -3.40234,-14.32227 0,-6.62353 0.89615,-10.74001 3.40234,-14.32031 2.86423,-4.11731 7.16016,-6.08789 12.35157,-6.08789 5.01239,0 8.23357,1.43284 12.17187,5.9082 l 5.19141,-5.01172 c -5.37042,-5.90749 -10.02372,-7.69726 -17.36328,-7.69726 z m -150.47461,0.17773 c -11.27788,0 -19.51172,5.90746 -19.51172,15.57422 0,8.77169 5.54883,13.42721 15.93164,14.32226 l 8.77148,0.71485 c 6.08648,0.53721 8.77149,3.04288 8.77149,7.69726 0,6.26548 -5.37089,9.3086 -14.14258,9.3086 -6.62352,0 -12.35143,-1.7896 -16.46875,-6.08594 l -5.19141,5.19141 c 5.90746,5.54944 12.88915,7.69726 21.83985,7.69726 12.889,0 21.66015,-5.9075 21.66015,-16.11133 0.17903,-10.38278 -6.26549,-13.78267 -15.57422,-14.67773 l -8.59179,-0.7168 c -6.62352,-0.53721 -9.3086,-3.22197 -9.3086,-7.69726 0,-5.37042 4.11685,-8.77149 11.81446,-8.77149 5.54943,0 10.38328,1.25365 14.14258,4.29688 l 5.01171,-5.01367 c -4.83337,-3.93829 -11.45669,-5.72852 -19.15429,-5.72852 z m 351.86523,8.95117 c 4.65439,0 7.69744,2.50627 9.30859,5.72852 0.89506,1.96914 1.25391,3.58101 1.25391,5.9082 h -21.125 c 0.1793,-2.50622 0.35871,-3.93906 1.25391,-5.9082 1.43213,-3.22225 4.47525,-5.72852 9.30859,-5.72852 z m -98.2793,0.89453 c 2.68518,0 4.83416,0.89477 6.44532,2.50586 2.8642,2.86427 3.22265,7.69927 3.22265,13.42774 0,5.7284 -0.35832,10.56158 -3.22265,13.42578 -1.61116,1.61116 -3.76014,2.50586 -6.44532,2.50586 -2.68524,0 -4.83226,-0.8947 -6.44335,-2.50586 -2.86427,-2.8642 -3.22266,-7.69738 -3.22266,-13.42578 0,-5.72847 0.35832,-10.56347 3.22266,-13.42774 1.61109,-1.61109 3.57909,-2.50586 6.44335,-2.50586 z m 254.73829,0 c 2.68517,0 4.8322,0.89477 6.44336,2.50586 2.8642,2.86427 3.22265,7.69927 3.22265,13.42774 0,5.7284 -0.35832,10.56158 -3.22265,13.42578 -1.61116,1.61116 -3.75819,2.50586 -6.44336,2.50586 -2.68525,0 -4.83422,-0.8947 -6.44532,-2.50586 -2.86427,-2.8642 -3.22265,-7.69738 -3.22265,-13.42578 0,-5.72847 0.35832,-10.56347 3.22265,-13.42774 1.6111,-1.61109 3.58105,-2.50586 6.44532,-2.50586 z m -410.8379,19.1543 h 14.85743 v 5.72852 c 0,4.47536 -0.89346,7.5197 -2.6836,9.13085 -3.40127,3.22226 -7.34106,3.58008 -11.8164,3.58008 -8.41366,0 -12.17188,-2.86538 -12.17188,-9.13086 0,-6.08645 3.93784,-9.30859 11.81445,-9.30859 z"
             transform="matrix(0.14780038,0,0,0.14780038,34.103113,81.884154)"
             id="path1730"
             inkscape:connector-curvature="0" />
        </g>
        <g
           id="g1847"
           transform="matrix(1.2867841,0,0,1.2867841,-17.593447,-55.641905)">
          <g
             transform="translate(0,0.92131697)"
             id="g1823"
             style="fill:#222426;fill-opacity:1">
            <ellipse
               ry="0.98555636"
               rx="4.6438084"
               cy="200.43217"
               cx="61.872894"
               id="ellipse1817"
               style="opacity:1;fill:#222426;fill-opacity:1;fill-rule:nonzero;stroke:none;stroke-width:1;stroke-linecap:square;stroke-linejoin:miter;stroke-miterlimit:4;stroke-dasharray:none;stroke-dashoffset:0;stroke-opacity:1" />
            <ellipse
               style="opacity:1;fill:#222426;fill-opacity:1;fill-rule:nonzero;stroke:none;stroke-width:1;stroke-linecap:square;stroke-linejoin:miter;stroke-miterlimit:4;stroke-dasharray:none;stroke-dashoffset:0;stroke-opacity:1"
               id="ellipse1819"
               cx="61.872894"
               cy="200.68022"
               rx="4.6438084"
               ry="0.98555636" />
            <rect
               y="200.42117"
               x="57.228672"
               height="0.24804688"
               width="9.2892294"
               id="rect1821"
               style="opacity:1;fill:#222426;fill-opacity:1;fill-rule:nonzero;stroke:none;stroke-width:0.99932635;stroke-linecap:square;stroke-linejoin:miter;stroke-miterlimit:4;stroke-dasharray:none;stroke-dashoffset:0;stroke-opacity:1" />
          </g>
          <g
             style="fill:#f48024;fill-opacity:1"
             transform="matrix(0.93612849,0,0,0.93612849,3.9519402,13.116933)"
             id="g1831">
            <ellipse
               ry="0.98555636"
               rx="4.6438084"
               cy="200.43217"
               cx="61.872894"
               id="ellipse1825"
               style="opacity:1;fill:#f48024;fill-opacity:1;fill-rule:nonzero;stroke:none;stroke-width:1;stroke-linecap:square;stroke-linejoin:miter;stroke-miterlimit:4;stroke-dasharray:none;stroke-dashoffset:0;stroke-opacity:1" />
            <ellipse
               style="opacity:1;fill:#f48024;fill-opacity:1;fill-rule:nonzero;stroke:none;stroke-width:1;stroke-linecap:square;stroke-linejoin:miter;stroke-miterlimit:4;stroke-dasharray:none;stroke-dashoffset:0;stroke-opacity:1"
               id="ellipse1827"
               cx="61.872894"
               cy="200.68022"
               rx="4.6438084"
               ry="0.98555636" />
            <rect
               y="200.42117"
               x="57.228672"
               height="0.24804688"
               width="9.2892294"
               id="rect1829"
               style="opacity:1;fill:#f48024;fill-opacity:1;fill-rule:nonzero;stroke:none;stroke-width:0.99932635;stroke-linecap:square;stroke-linejoin:miter;stroke-miterlimit:4;stroke-dasharray:none;stroke-dashoffset:0;stroke-opacity:1" />
          </g>
          <g
             transform="translate(0,-0.4015997)"
             id="g1815"
             style="fill:#222426;fill-opacity:1">
            <ellipse
               style="opacity:1;fill:#222426;fill-opacity:1;fill-rule:nonzero;stroke:none;stroke-width:1;stroke-linecap:square;stroke-linejoin:miter;stroke-miterlimit:4;stroke-dasharray:none;stroke-dashoffset:0;stroke-opacity:1"
               id="path1802"
               cx="61.872894"
               cy="200.43217"
               rx="4.6438084"
               ry="0.98555636" />
            <ellipse
               ry="0.98555636"
               rx="4.6438084"
               cy="200.68022"
               cx="61.872894"
               id="ellipse1808"
               style="opacity:1;fill:#222426;fill-opacity:1;fill-rule:nonzero;stroke:none;stroke-width:1;stroke-linecap:square;stroke-linejoin:miter;stroke-miterlimit:4;stroke-dasharray:none;stroke-dashoffset:0;stroke-opacity:1" />
            <rect
               style="opacity:1;fill:#222426;fill-opacity:1;fill-rule:nonzero;stroke:none;stroke-width:0.99932635;stroke-linecap:square;stroke-linejoin:miter;stroke-miterlimit:4;stroke-dasharray:none;stroke-dashoffset:0;stroke-opacity:1"
               id="rect1810"
               width="9.2892294"
               height="0.24804688"
               x="57.228672"
               y="200.42117" />
          </g>
        </g>
        <g
           transform="matrix(0.34773368,1.2389087,-1.2389087,0.34773368,299.76656,42.979154)"
           id="g1873">
          <g
             id="g1855"
             transform="translate(0,0.92131697)"
             style="fill:#222426;fill-opacity:1">
            <ellipse
               style="opacity:1;fill:#222426;fill-opacity:1;fill-rule:nonzero;stroke:none;stroke-width:1;stroke-linecap:square;stroke-linejoin:miter;stroke-miterlimit:4;stroke-dasharray:none;stroke-dashoffset:0;stroke-opacity:1"
               id="ellipse1849"
               cx="61.872894"
               cy="200.43217"
               rx="4.6438084"
               ry="0.98555636" />
            <ellipse
               ry="0.98555636"
               rx="4.6438084"
               cy="200.68022"
               cx="61.872894"
               id="ellipse1851"
               style="opacity:1;fill:#222426;fill-opacity:1;fill-rule:nonzero;stroke:none;stroke-width:1;stroke-linecap:square;stroke-linejoin:miter;stroke-miterlimit:4;stroke-dasharray:none;stroke-dashoffset:0;stroke-opacity:1" />
            <rect
               style="opacity:1;fill:#222426;fill-opacity:1;fill-rule:nonzero;stroke:none;stroke-width:0.99932635;stroke-linecap:square;stroke-linejoin:miter;stroke-miterlimit:4;stroke-dasharray:none;stroke-dashoffset:0;stroke-opacity:1"
               id="rect1853"
               width="9.2892294"
               height="0.24804688"
               x="57.228672"
               y="200.42117" />
          </g>
          <g
             id="g1863"
             transform="matrix(0.93612849,0,0,0.93612849,3.9519402,13.116933)"
             style="fill:#f48024;fill-opacity:1">
            <ellipse
               style="opacity:1;fill:#f48024;fill-opacity:1;fill-rule:nonzero;stroke:none;stroke-width:1;stroke-linecap:square;stroke-linejoin:miter;stroke-miterlimit:4;stroke-dasharray:none;stroke-dashoffset:0;stroke-opacity:1"
               id="ellipse1857"
               cx="61.872894"
               cy="200.43217"
               rx="4.6438084"
               ry="0.98555636" />
            <ellipse
               ry="0.98555636"
               rx="4.6438084"
               cy="200.68022"
               cx="61.872894"
               id="ellipse1859"
               style="opacity:1;fill:#f48024;fill-opacity:1;fill-rule:nonzero;stroke:none;stroke-width:1;stroke-linecap:square;stroke-linejoin:miter;stroke-miterlimit:4;stroke-dasharray:none;stroke-dashoffset:0;stroke-opacity:1" />
            <rect
               style="opacity:1;fill:#f48024;fill-opacity:1;fill-rule:nonzero;stroke:none;stroke-width:0.99932635;stroke-linecap:square;stroke-linejoin:miter;stroke-miterlimit:4;stroke-dasharray:none;stroke-dashoffset:0;stroke-opacity:1"
               id="rect1861"
               width="9.2892294"
               height="0.24804688"
               x="57.228672"
               y="200.42117" />
          </g>
          <g
             id="g1871"
             transform="translate(0,-0.4015997)"
             style="fill:#222426;fill-opacity:1">
            <ellipse
               ry="0.98555636"
               rx="4.6438084"
               cy="200.43217"
               cx="61.872894"
               id="ellipse1865"
               style="opacity:1;fill:#222426;fill-opacity:1;fill-rule:nonzero;stroke:none;stroke-width:1;stroke-linecap:square;stroke-linejoin:miter;stroke-miterlimit:4;stroke-dasharray:none;stroke-dashoffset:0;stroke-opacity:1" />
            <ellipse
               style="opacity:1;fill:#222426;fill-opacity:1;fill-rule:nonzero;stroke:none;stroke-width:1;stroke-linecap:square;stroke-linejoin:miter;stroke-miterlimit:4;stroke-dasharray:none;stroke-dashoffset:0;stroke-opacity:1"
               id="ellipse1867"
               cx="61.872894"
               cy="200.68022"
               rx="4.6438084"
               ry="0.98555636" />
            <rect
               y="200.42117"
               x="57.228672"
               height="0.24804688"
               width="9.2892294"
               id="rect1869"
               style="opacity:1;fill:#222426;fill-opacity:1;fill-rule:nonzero;stroke:none;stroke-width:0.99932635;stroke-linecap:square;stroke-linejoin:miter;stroke-miterlimit:4;stroke-dasharray:none;stroke-dashoffset:0;stroke-opacity:1" />
          </g>
        </g>
        <g
           transform="matrix(1.1854004,0.50063886,-0.50063886,1.1854004,90.420854,-72.046608)"
           id="g1925">
          <g
             id="g1907"
             transform="translate(0,0.92131697)"
             style="fill:#222426;fill-opacity:1">
            <ellipse
               style="opacity:1;fill:#222426;fill-opacity:1;fill-rule:nonzero;stroke:none;stroke-width:1;stroke-linecap:square;stroke-linejoin:miter;stroke-miterlimit:4;stroke-dasharray:none;stroke-dashoffset:0;stroke-opacity:1"
               id="ellipse1901"
               cx="61.872894"
               cy="200.43217"
               rx="4.6438084"
               ry="0.98555636" />
            <ellipse
               ry="0.98555636"
               rx="4.6438084"
               cy="200.68022"
               cx="61.872894"
               id="ellipse1903"
               style="opacity:1;fill:#222426;fill-opacity:1;fill-rule:nonzero;stroke:none;stroke-width:1;stroke-linecap:square;stroke-linejoin:miter;stroke-miterlimit:4;stroke-dasharray:none;stroke-dashoffset:0;stroke-opacity:1" />
            <rect
               style="opacity:1;fill:#222426;fill-opacity:1;fill-rule:nonzero;stroke:none;stroke-width:0.99932635;stroke-linecap:square;stroke-linejoin:miter;stroke-miterlimit:4;stroke-dasharray:none;stroke-dashoffset:0;stroke-opacity:1"
               id="rect1905"
               width="9.2892294"
               height="0.24804688"
               x="57.228672"
               y="200.42117" />
          </g>
          <g
             id="g1915"
             transform="matrix(0.93612849,0,0,0.93612849,3.9519402,13.116933)"
             style="fill:#f48024;fill-opacity:1">
            <ellipse
               style="opacity:1;fill:#f48024;fill-opacity:1;fill-rule:nonzero;stroke:none;stroke-width:1;stroke-linecap:square;stroke-linejoin:miter;stroke-miterlimit:4;stroke-dasharray:none;stroke-dashoffset:0;stroke-opacity:1"
               id="ellipse1909"
               cx="61.872894"
               cy="200.43217"
               rx="4.6438084"
               ry="0.98555636" />
            <ellipse
               ry="0.98555636"
               rx="4.6438084"
               cy="200.68022"
               cx="61.872894"
               id="ellipse1911"
               style="opacity:1;fill:#f48024;fill-opacity:1;fill-rule:nonzero;stroke:none;stroke-width:1;stroke-linecap:square;stroke-linejoin:miter;stroke-miterlimit:4;stroke-dasharray:none;stroke-dashoffset:0;stroke-opacity:1" />
            <rect
               style="opacity:1;fill:#f48024;fill-opacity:1;fill-rule:nonzero;stroke:none;stroke-width:0.99932635;stroke-linecap:square;stroke-linejoin:miter;stroke-miterlimit:4;stroke-dasharray:none;stroke-dashoffset:0;stroke-opacity:1"
               id="rect1913"
               width="9.2892294"
               height="0.24804688"
               x="57.228672"
               y="200.42117" />
          </g>
          <g
             id="g1923"
             transform="translate(0,-0.4015997)"
             style="fill:#222426;fill-opacity:1">
            <ellipse
               ry="0.98555636"
               rx="4.6438084"
               cy="200.43217"
               cx="61.872894"
               id="ellipse1917"
               style="opacity:1;fill:#222426;fill-opacity:1;fill-rule:nonzero;stroke:none;stroke-width:1;stroke-linecap:square;stroke-linejoin:miter;stroke-miterlimit:4;stroke-dasharray:none;stroke-dashoffset:0;stroke-opacity:1" />
            <ellipse
               style="opacity:1;fill:#222426;fill-opacity:1;fill-rule:nonzero;stroke:none;stroke-width:1;stroke-linecap:square;stroke-linejoin:miter;stroke-miterlimit:4;stroke-dasharray:none;stroke-dashoffset:0;stroke-opacity:1"
               id="ellipse1919"
               cx="61.872894"
               cy="200.68022"
               rx="4.6438084"
               ry="0.98555636" />
            <rect
               y="200.42117"
               x="57.228672"
               height="0.24804688"
               width="9.2892294"
               id="rect1921"
               style="opacity:1;fill:#222426;fill-opacity:1;fill-rule:nonzero;stroke:none;stroke-width:0.99932635;stroke-linecap:square;stroke-linejoin:miter;stroke-miterlimit:4;stroke-dasharray:none;stroke-dashoffset:0;stroke-opacity:1" />
          </g>
        </g>
        <g
           id="g1899"
           transform="matrix(0.85952872,0.95761357,-0.95761357,0.85952872,206.01299,-39.652639)">
          <g
             transform="translate(0,0.92131697)"
             id="g1881"
             style="fill:#222426;fill-opacity:1">
            <ellipse
               ry="0.98555636"
               rx="4.6438084"
               cy="200.43217"
               cx="61.872894"
               id="ellipse1875"
               style="opacity:1;fill:#222426;fill-opacity:1;fill-rule:nonzero;stroke:none;stroke-width:1;stroke-linecap:square;stroke-linejoin:miter;stroke-miterlimit:4;stroke-dasharray:none;stroke-dashoffset:0;stroke-opacity:1" />
            <ellipse
               style="opacity:1;fill:#222426;fill-opacity:1;fill-rule:nonzero;stroke:none;stroke-width:1;stroke-linecap:square;stroke-linejoin:miter;stroke-miterlimit:4;stroke-dasharray:none;stroke-dashoffset:0;stroke-opacity:1"
               id="ellipse1877"
               cx="61.872894"
               cy="200.68022"
               rx="4.6438084"
               ry="0.98555636" />
            <rect
               y="200.42117"
               x="57.228672"
               height="0.24804688"
               width="9.2892294"
               id="rect1879"
               style="opacity:1;fill:#222426;fill-opacity:1;fill-rule:nonzero;stroke:none;stroke-width:0.99932635;stroke-linecap:square;stroke-linejoin:miter;stroke-miterlimit:4;stroke-dasharray:none;stroke-dashoffset:0;stroke-opacity:1" />
          </g>
          <g
             style="fill:#f48024;fill-opacity:1"
             transform="matrix(0.93612849,0,0,0.93612849,3.9519402,13.116933)"
             id="g1889">
            <ellipse
               ry="0.98555636"
               rx="4.6438084"
               cy="200.43217"
               cx="61.872894"
               id="ellipse1883"
               style="opacity:1;fill:#f48024;fill-opacity:1;fill-rule:nonzero;stroke:none;stroke-width:1;stroke-linecap:square;stroke-linejoin:miter;stroke-miterlimit:4;stroke-dasharray:none;stroke-dashoffset:0;stroke-opacity:1" />
            <ellipse
               style="opacity:1;fill:#f48024;fill-opacity:1;fill-rule:nonzero;stroke:none;stroke-width:1;stroke-linecap:square;stroke-linejoin:miter;stroke-miterlimit:4;stroke-dasharray:none;stroke-dashoffset:0;stroke-opacity:1"
               id="ellipse1885"
               cx="61.872894"
               cy="200.68022"
               rx="4.6438084"
               ry="0.98555636" />
            <rect
               y="200.42117"
               x="57.228672"
               height="0.24804688"
               width="9.2892294"
               id="rect1887"
               style="opacity:1;fill:#f48024;fill-opacity:1;fill-rule:nonzero;stroke:none;stroke-width:0.99932635;stroke-linecap:square;stroke-linejoin:miter;stroke-miterlimit:4;stroke-dasharray:none;stroke-dashoffset:0;stroke-opacity:1" />
          </g>
          <g
             transform="translate(0,-0.4015997)"
             id="g1897"
             style="fill:#222426;fill-opacity:1">
            <ellipse
               style="opacity:1;fill:#222426;fill-opacity:1;fill-rule:nonzero;stroke:none;stroke-width:1;stroke-linecap:square;stroke-linejoin:miter;stroke-miterlimit:4;stroke-dasharray:none;stroke-dashoffset:0;stroke-opacity:1"
               id="ellipse1891"
               cx="61.872894"
               cy="200.43217"
               rx="4.6438084"
               ry="0.98555636" />
            <ellipse
               ry="0.98555636"
               rx="4.6438084"
               cy="200.68022"
               cx="61.872894"
               id="ellipse1893"
               style="opacity:1;fill:#222426;fill-opacity:1;fill-rule:nonzero;stroke:none;stroke-width:1;stroke-linecap:square;stroke-linejoin:miter;stroke-miterlimit:4;stroke-dasharray:none;stroke-dashoffset:0;stroke-opacity:1" />
            <rect
               style="opacity:1;fill:#222426;fill-opacity:1;fill-rule:nonzero;stroke:none;stroke-width:0.99932635;stroke-linecap:square;stroke-linejoin:miter;stroke-miterlimit:4;stroke-dasharray:none;stroke-dashoffset:0;stroke-opacity:1"
               id="rect1895"
               width="9.2892294"
               height="0.24804688"
               x="57.228672"
               y="200.42117" />
          </g>
        </g>
      </g>
      <g
         transform="translate(0.636189)"
         id="g283">
        <g
           transform="translate(3.2127975,161.97107)"
           id="g2183"
           inkscape:export-xdpi="666.34998"
           inkscape:export-ydpi="666.34998" />
      </g>
    </g>
  </g>
  <style
     id="style64">.st0{fill:#222426}.st1{fill:#bcbbbb}.st2{fill:#f48024}</style>
</svg>
